<svg xmlns="http://www.w3.org/2000/svg" viewBox="0 0 30.5 27.35"><defs><style>.cls-1{fill:#c4c4c4;}.cls-2{fill:#fff;}.cls-3{fill:none;}.cls-3,.cls-4{stroke:#1d1d1b;stroke-linejoin:round;stroke-width:0.82px;}.cls-4{fill:#fff7cd;}</style></defs><title>Element 147</title><g id="Ebene_2" data-name="Ebene 2"><g id="Ebene_1-2" data-name="Ebene 1"><path class="cls-1" d="M9.06,5.33A22.18,22.18,0,0,1,6.68,6.6,17.51,17.51,0,0,1,2.1,7.88C1.6,8,.41,8.06.41,8.06v7.77A10.62,10.62,0,0,0,5.71,25l3.35,1.93Z"/><path class="cls-2" d="M9.06,5.33A22.57,22.57,0,0,0,11.43,6.6,17.62,17.62,0,0,0,16,7.88c.5.07,1.69.18,1.69.18v7.77A10.62,10.62,0,0,1,12.4,25L9.06,26.94Z"/><path class="cls-3" d="M16,7.88A17.62,17.62,0,0,1,11.43,6.6,22.57,22.57,0,0,1,9.06,5.33,22.18,22.18,0,0,1,6.68,6.6,17.51,17.51,0,0,1,2.1,7.88C1.6,8,.41,8.06.41,8.06v7.77A10.62,10.62,0,0,0,5.71,25l3.35,1.93L12.4,25a10.62,10.62,0,0,0,5.3-9.18V8.06S16.51,8,16,7.88Z"/><polygon class="cls-4" points="11.19 16.57 14.65 1.66 16.06 7.77 24.84 0.41 19.02 9.23 30.09 6.09 20.64 11.97 29.34 12.36 19.44 14.33 21.88 16.57 11.19 16.57"/></g></g></svg>