<svg xmlns="http://www.w3.org/2000/svg" viewBox="0 0 37.72 18.12"><defs><style>.cls-1{fill:none;stroke-miterlimit:10;}.cls-1,.cls-2,.cls-3{stroke:#1d1d1b;}.cls-1,.cls-2{stroke-width:0.82px;}.cls-2{fill:#d9e4eb;stroke-linejoin:round;}.cls-3{fill:#fff;stroke-miterlimit:3.86;stroke-width:0.82px;}.cls-4{fill:#1d1d1b;}</style></defs><title>API</title><g id="Ebene_2" data-name="Ebene 2"><g id="Ebene_1-2" data-name="Ebene 1"><line class="cls-1" x1="10.03" y1="9.01" x2="3.53" y2="9.01"/><rect class="cls-2" x="0.41" y="7.34" width="3.33" height="3.33"/><rect class="cls-2" x="0.41" y="14.38" width="3.33" height="3.33"/><rect class="cls-2" x="0.41" y="0.41" width="3.33" height="3.33"/><polyline class="cls-1" points="3.53 2.07 8.18 2.07 8.18 16.05 3.53 16.05"/><line class="cls-1" x1="27.69" y1="9.01" x2="34.19" y2="9.01"/><rect class="cls-2" x="33.98" y="7.34" width="3.33" height="3.33"/><rect class="cls-2" x="33.98" y="14.38" width="3.33" height="3.33"/><rect class="cls-2" x="33.98" y="0.41" width="3.33" height="3.33"/><polyline class="cls-1" points="34.19 2.07 29.54 2.07 29.54 16.05 34.19 16.05"/><path class="cls-3" d="M27.37,12.81A2.24,2.24,0,0,1,25.05,15H12.6a2.25,2.25,0,0,1-2.32-2.14V5.31A2.24,2.24,0,0,1,12.6,3.17H25.05a2.24,2.24,0,0,1,2.32,2.14Z"/><path class="cls-4" d="M16.52,6.56l1.38,5.2H16.81l-.24-1.1H15.18l-.24,1.1H13.85l1.37-5.2ZM16.38,9.8l-.5-2.34h0L15.36,9.8Z"/><path class="cls-4" d="M20.1,6.56a1.48,1.48,0,0,1,.67.13,1.33,1.33,0,0,1,.45.35,1.54,1.54,0,0,1,.24.5,2.79,2.79,0,0,1,.07.58,1.9,1.9,0,0,1-.12.7,1.2,1.2,0,0,1-.34.48,1.38,1.38,0,0,1-.52.29,2.38,2.38,0,0,1-.68.09h-.56v2.08h-1V6.56Zm-.32,2.35a.69.69,0,0,0,.51-.19.83.83,0,0,0,.19-.59,1,1,0,0,0-.17-.6.7.7,0,0,0-.56-.2h-.44V8.91Z"/><path class="cls-4" d="M22.1,6.56h1v5.2h-1Z"/></g></g></svg>