<svg xmlns="http://www.w3.org/2000/svg" viewBox="0 0 11.12 11.12"><defs><style>.cls-1{fill:#1d1d1b;}.cls-2{fill:#dbe5f1;stroke:#1d1d1b;stroke-miterlimit:10;stroke-width:0.6px;}</style></defs><title>App_Software_tools</title><g id="Ebene_2" data-name="Ebene 2"><g id="Ebene_1-2" data-name="Ebene 1"><path class="cls-1" d="M10.42,2.16a.12.12,0,0,0,0-.18l-.27-.27-.34-.34L9.57,1.1a.13.13,0,0,0-.19,0,4.77,4.77,0,0,0-.73.78c-.05.15,0,.41-.18.62h0L5.31,5.67a.37.37,0,0,0,0,.52l0,0a.36.36,0,0,0,.51,0L9,3.09c.21-.21.48-.15.64-.2A4.37,4.37,0,0,0,10.42,2.16Z"/><rect class="cls-2" x="0.24" y="7.09" width="6.64" height="1.63" rx="0.51" ry="0.51" transform="translate(-4.55 4.83) rotate(-45)"/><path class="cls-1" d="M10.53,7.72a2,2,0,0,0-2.12-.45L3.83,2.69A2,2,0,0,0,1.27.13L2.34,1.2l-.24.9-.9.24L.13,1.27A2,2,0,0,0,2.69,3.83L7.27,8.41a2,2,0,1,0,3.26-.69Zm-2.2,2.2a1.12,1.12,0,1,1,1.59,0A1.14,1.14,0,0,1,8.33,9.92Z"/></g></g></svg>