<svg xmlns="http://www.w3.org/2000/svg" viewBox="0 0 16.24 14.27"><defs><style>.cls-1,.cls-4{fill:#fff;}.cls-1,.cls-2,.cls-3,.cls-4{stroke:#1d1d1b;}.cls-1{stroke-linejoin:round;}.cls-1,.cls-3{stroke-width:0.82px;}.cls-2,.cls-3{fill:none;stroke-linecap:round;stroke-miterlimit:10;}.cls-2{stroke-width:1.3px;}.cls-4{stroke-miterlimit:3.86;stroke-width:0.82px;}.cls-5{fill:#1d1d1b;}</style></defs><title>App_Software_Office_2</title><g id="Ebene_2" data-name="Ebene 2"><g id="Ebene_1-2" data-name="Ebene 1"><circle class="cls-1" cx="5.31" cy="5.31" r="4.91"/><line class="cls-2" x1="5.31" y1="5.31" x2="5.31" y2="2.82"/><line class="cls-3" x1="5.31" y1="9.08" x2="5.31" y2="8.04"/><line class="cls-3" x1="9.09" y1="5.31" x2="8.05" y2="5.31"/><line class="cls-3" x1="2.54" y1="5.31" x2="1.5" y2="5.31"/><line class="cls-3" x1="5.31" y1="5.31" x2="3.03" y2="2.7"/><path class="cls-4" d="M15.84,12.63a1.29,1.29,0,0,1-1.34,1.23H8.41a1.29,1.29,0,0,1-1.34-1.23V8.33A1.29,1.29,0,0,1,8.41,7.1H14.5a1.29,1.29,0,0,1,1.34,1.23Z"/><rect class="cls-5" x="7.41" y="7.36" width="8.09" height="1.21"/><rect class="cls-5" x="9.97" y="9.34" width="1.22" height="1.22"/><rect class="cls-5" x="11.72" y="9.34" width="1.22" height="1.22"/><rect class="cls-5" x="13.47" y="9.34" width="1.22" height="1.22"/><rect class="cls-5" x="8.22" y="10.98" width="1.22" height="1.22"/><rect class="cls-5" x="9.97" y="10.98" width="1.22" height="1.22"/><rect class="cls-5" x="13.47" y="10.98" width="1.22" height="1.22"/></g></g></svg>