<svg xmlns="http://www.w3.org/2000/svg" viewBox="0 0 33.62 31.11"><defs><style>.cls-1{fill:#d9e5ec;}.cls-2{fill:#c4c4c4;}.cls-3{fill:#fff;}.cls-4,.cls-5,.cls-6{fill:none;}.cls-4,.cls-5,.cls-6,.cls-7,.cls-8{stroke:#1d1d1b;}.cls-4,.cls-5,.cls-7{stroke-linejoin:round;}.cls-4,.cls-8{stroke-width:0.82px;}.cls-5{stroke-width:0.84px;}.cls-6,.cls-7{stroke-linecap:round;}.cls-6{stroke-miterlimit:10;}.cls-7{fill:#1d1d1b;stroke-width:0.8px;}.cls-8{fill:#9baab7;stroke-miterlimit:3.86;}</style></defs><title>Application_Software</title><g id="Ebene_2" data-name="Ebene 2"><g id="Ebene_1-2" data-name="Ebene 1"><rect class="cls-1" x="6.71" y="6.46" width="26.5" height="18.45"/><path class="cls-2" d="M33.21.41V6.46H6.71v-6ZM31.27,4.52V2.41H13.07V4.52Zm-20,0V2.41H8.58V4.52Z"/><rect class="cls-3" x="13.07" y="2.41" width="18.2" height="2.11"/><rect class="cls-2" x="8.58" y="2.41" width="2.71" height="2.11"/><polygon class="cls-4" points="33.22 6.46 33.22 24.91 6.71 24.91 6.71 6.46 6.71 0.41 33.22 0.41 33.22 6.46"/><line class="cls-4" x1="33.21" y1="6.46" x2="6.71" y2="6.46"/><rect class="cls-5" x="8.58" y="2.41" width="2.71" height="2.11"/><line class="cls-6" x1="29.13" y1="19.38" x2="25.37" y2="15.61"/><polygon class="cls-7" points="22.38 12.62 24.39 17.01 26.76 14.64 22.38 12.62"/><path class="cls-8" d="M16.77,28.4a2.41,2.41,0,0,1-2.49,2.3H2.9A2.41,2.41,0,0,1,.41,28.4v-8a2.41,2.41,0,0,1,2.49-2.3H14.28a2.41,2.41,0,0,1,2.49,2.3Z"/></g></g></svg>