<svg xmlns="http://www.w3.org/2000/svg" viewBox="0 0 43.06 34.14"><defs><style>.cls-1{fill:#d6e7f1;fill-rule:evenodd;}.cls-2{fill:#0d4252;}.cls-3{fill:#e3edfa;stroke:#1d1d1b;stroke-miterlimit:3.86;stroke-width:0.82px;}</style></defs><title>Betriebsystem_</title><g id="Ebene_2" data-name="Ebene 2"><g id="Ebene_1-2" data-name="Ebene 1"><path class="cls-1" d="M19.32,8.16H17.75a7.34,7.34,0,0,0-.87-2.1L18,5a.49.49,0,0,0,0-.69l-2.06-2a.48.48,0,0,0-.68,0l-1.11,1.1a7.86,7.86,0,0,0-2.05-.85L12,2.4V.88a.5.5,0,0,0-.49-.49H8.64a.5.5,0,0,0-.49.49V2.44a8,8,0,0,0-2.09.87L5,2.21a.49.49,0,0,0-.69,0L2.2,4.26A.51.51,0,0,0,2.2,5L3.31,6.06a7.72,7.72,0,0,0-.85,2.05l-.06.05H.88a.5.5,0,0,0-.49.48v2.91A.5.5,0,0,0,.88,12H2.44a8.1,8.1,0,0,0,.87,2.1L2.2,15.25a.5.5,0,0,0,0,.68L4.26,18A.49.49,0,0,0,5,18l1.11-1.11a7.3,7.3,0,0,0,2.05.86l0,.06v1.52a.5.5,0,0,0,.49.49h2.91a.5.5,0,0,0,.49-.49V17.76a7.79,7.79,0,0,0,2.1-.88L15.25,18a.48.48,0,0,0,.68,0L18,15.93a.48.48,0,0,0,0-.68l-1.11-1.11a7.55,7.55,0,0,0,.86-2.05L17.8,12h1.52a.5.5,0,0,0,.49-.49V8.64A.5.5,0,0,0,19.32,8.16Z"/><path class="cls-2" d="M11.55,20.2H8.64a.89.89,0,0,1-.88-.88V18.05a7.49,7.49,0,0,1-1.64-.68l-.89.9a.9.9,0,0,1-1.24,0L1.93,16.21a.86.86,0,0,1-.25-.61A.89.89,0,0,1,1.93,15l.9-.89a8.48,8.48,0,0,1-.69-1.65H.88A.89.89,0,0,1,0,11.55V8.64a.89.89,0,0,1,.88-.87H2.15a7.65,7.65,0,0,1,.68-1.65l-.9-.89a.89.89,0,0,1-.25-.62A.87.87,0,0,1,1.93,4L4,1.93a.89.89,0,0,1,1.23,0l.9.9a8.14,8.14,0,0,1,1.64-.69V.88A.89.89,0,0,1,8.64,0h2.91a.89.89,0,0,1,.88.88V2.15a7.37,7.37,0,0,1,1.64.68l.9-.9a.9.9,0,0,1,1.24,0L18.27,4a.88.88,0,0,1,0,1.24l-.89.89a8.44,8.44,0,0,1,.68,1.65h1.27a.89.89,0,0,1,.88.87v2.91a.89.89,0,0,1-.88.88H18.05a8.7,8.7,0,0,1-.68,1.65l.9.89a.89.89,0,0,1,.25.63.83.83,0,0,1-.26.61l-2.05,2.06a.9.9,0,0,1-1.24,0l-.9-.9a8.11,8.11,0,0,1-1.64.68v1.27A.89.89,0,0,1,11.55,20.2ZM6,16.39l.26.16a6.77,6.77,0,0,0,2,.81l.14,0,.15.22,0,.19v1.52a.13.13,0,0,0,.1.1h2.91a.12.12,0,0,0,.1-.1V17.45l.3-.07a7.56,7.56,0,0,0,2-.83l.26-.16,1.32,1.33a.12.12,0,0,0,.14,0l2.06-2.06v-.14L16.4,14.2l.15-.26A7.06,7.06,0,0,0,17.36,12l0-.13.21-.16.2,0h1.52a.12.12,0,0,0,.1-.1V8.64a.12.12,0,0,0-.1-.09H17.45l-.07-.3a7.56,7.56,0,0,0-.83-2L16.39,6l1.32-1.33h0V4.54L15.66,2.48a.12.12,0,0,0-.14,0L14.2,3.8l-.26-.15A7.06,7.06,0,0,0,12,2.84l-.14,0-.15-.21,0-.19V.88a.11.11,0,0,0-.1-.1H8.64a.12.12,0,0,0-.1.1V2.74l-.29.08a7.56,7.56,0,0,0-2,.83L6,3.8,4.68,2.48a.12.12,0,0,0-.14,0L2.48,4.54v.13L3.8,6l-.15.26a6.94,6.94,0,0,0-.81,2l0,.12-.2.17-.2.05H.88a.11.11,0,0,0-.1.09v2.91a.11.11,0,0,0,.1.1H2.74l.08.29a7.48,7.48,0,0,0,.83,2l.15.26L2.48,15.52h0v.14l2.06,2.06a.11.11,0,0,0,.14,0Z"/><path class="cls-1" d="M42.19,22.09H40.62A7.7,7.7,0,0,0,39.75,20l1.11-1.11a.51.51,0,0,0,0-.69L38.8,16.14a.51.51,0,0,0-.69,0L37,17.25A7.46,7.46,0,0,0,35,16.4l0-.06V14.81a.5.5,0,0,0-.49-.48H31.51a.5.5,0,0,0-.49.48v1.57a7.9,7.9,0,0,0-2.1.87l-1.1-1.11a.51.51,0,0,0-.69,0L25.07,18.2a.51.51,0,0,0,0,.69L26.18,20a7.3,7.3,0,0,0-.86,2.05l-.05,0H23.74a.5.5,0,0,0-.48.49v2.91a.5.5,0,0,0,.48.49h1.57a7.76,7.76,0,0,0,.87,2.1l-1.11,1.11a.5.5,0,0,0,0,.68l2.06,2.06a.51.51,0,0,0,.69,0l1.1-1.11a7.17,7.17,0,0,0,2.06.85l0,.07v1.52a.5.5,0,0,0,.49.49h2.91a.5.5,0,0,0,.49-.49V31.69a7.76,7.76,0,0,0,2.1-.87l1.1,1.11a.51.51,0,0,0,.69,0l2.06-2.06a.5.5,0,0,0,0-.68l-1.11-1.11A7.46,7.46,0,0,0,40.6,26l.06,0h1.53a.5.5,0,0,0,.48-.49V22.58A.5.5,0,0,0,42.19,22.09Z"/><path class="cls-2" d="M34.42,34.14H31.51a.89.89,0,0,1-.88-.88V32A7.54,7.54,0,0,1,29,31.31l-.9.9a.89.89,0,0,1-1.24,0l-2.06-2.05a.91.91,0,0,1-.25-.62.89.89,0,0,1,.25-.62l.9-.9A8.72,8.72,0,0,1,25,26.37H23.74a.89.89,0,0,1-.87-.88V22.58a.88.88,0,0,1,.87-.87H25a8.19,8.19,0,0,1,.68-1.65l-.9-.9a.91.91,0,0,1-.25-.62.9.9,0,0,1,.26-.62l2.05-2.05a.9.9,0,0,1,1.24,0l.9.9a8.72,8.72,0,0,1,1.64-.68V14.81a.89.89,0,0,1,.88-.87h2.91a.89.89,0,0,1,.88.87v1.28a7.54,7.54,0,0,1,1.64.67l.9-.89a.88.88,0,0,1,1.23,0l2.06,2.05a.9.9,0,0,1,.26.62.88.88,0,0,1-.26.62l-.89.9a8.55,8.55,0,0,1,.68,1.65h1.27a.88.88,0,0,1,.87.87v2.91a.89.89,0,0,1-.87.88H40.91A7.75,7.75,0,0,1,40.24,28l.89.9a.9.9,0,0,1,.26.62.88.88,0,0,1-.26.62l-2.06,2.06a.86.86,0,0,1-.61.25h0a.84.84,0,0,1-.62-.26l-.9-.89A8.72,8.72,0,0,1,35.3,32v1.27A.89.89,0,0,1,34.42,34.14Zm-5.56-3.81.26.16a7,7,0,0,0,1.95.8l.15,0,.15.22,0,.19v1.52a.13.13,0,0,0,.1.1h2.91a.13.13,0,0,0,.1-.1V31.39l.29-.07a7.29,7.29,0,0,0,2-.83l.27-.16,1.32,1.32h.13l2.06-2h0v-.13l-1.32-1.32.16-.26a7.16,7.16,0,0,0,.8-1.95l0-.14.21-.16.19,0h1.53a.11.11,0,0,0,.09-.1V22.58a.12.12,0,0,0-.09-.1H40.32l-.08-.29a7.21,7.21,0,0,0-.82-2l-.16-.26,1.32-1.33h0v-.13l-2.06-2.06a.11.11,0,0,0-.13,0l-1.32,1.32-.26-.16a7.3,7.3,0,0,0-2-.8l-.14,0-.16-.22,0-.18V14.81a.11.11,0,0,0-.1-.09H31.51a.11.11,0,0,0-.1.09v1.87l-.29.08a7.59,7.59,0,0,0-2,.82l-.26.16-1.32-1.32a.1.1,0,0,0-.13,0l-2.06,2.06v.13l1.32,1.33-.16.26a7.18,7.18,0,0,0-.81,1.94l0,.13-.21.17-.19,0H23.74a.12.12,0,0,0-.09.1v2.91a.11.11,0,0,0,.09.1h1.87l.07.29a7.76,7.76,0,0,0,.83,2l.16.26-1.32,1.32h0v.14l2.06,2a.09.09,0,0,0,.13,0Z"/><path class="cls-1" d="M31,8.73H29.63a6.53,6.53,0,0,0-.75-1.81l1-1a.42.42,0,0,0,0-.59L28.06,3.59a.44.44,0,0,0-.59,0l-1,1a6.29,6.29,0,0,0-1.77-.73l0-.06V2.45A.42.42,0,0,0,24.28,2H21.77a.43.43,0,0,0-.42.42V3.8a6.59,6.59,0,0,0-1.81.75l-1-1a.44.44,0,0,0-.59,0L16.21,5.37a.42.42,0,0,0,0,.59l1,1a6.27,6.27,0,0,0-.74,1.77l-.05,0H15.06a.43.43,0,0,0-.41.42v2.51a.42.42,0,0,0,.41.42h1.35a6.8,6.8,0,0,0,.76,1.82l-1,.95a.42.42,0,0,0,0,.59L18,17.22a.42.42,0,0,0,.59,0l1-1a6,6,0,0,0,1.77.74l0,.05v1.32a.44.44,0,0,0,.42.42h2.51a.43.43,0,0,0,.42-.42V17a6.61,6.61,0,0,0,1.81-.76l1,1a.42.42,0,0,0,.59,0l1.78-1.78a.42.42,0,0,0,0-.59l-1-.95a6.21,6.21,0,0,0,.74-1.78l.05,0H31a.43.43,0,0,0,.42-.42V9.15A.44.44,0,0,0,31,8.73Z"/><path class="cls-2" d="M24.28,19.18H21.77a.82.82,0,0,1-.81-.81V17.31a6.72,6.72,0,0,1-1.36-.56l-.74.75a.83.83,0,0,1-1.15,0l-1.77-1.78a.8.8,0,0,1,0-1.14l.74-.75a7.34,7.34,0,0,1-.56-1.36H15.06a.82.82,0,0,1-.8-.81V9.15a.82.82,0,0,1,.8-.81h1.06A7.25,7.25,0,0,1,16.68,7l-.75-.75a.86.86,0,0,1-.23-.57.83.83,0,0,1,.24-.58l1.77-1.77a.84.84,0,0,1,1.15,0l.74.75A7.34,7.34,0,0,1,21,3.5v-1a.82.82,0,0,1,.81-.81h2.51a.82.82,0,0,1,.81.81V3.51a6.68,6.68,0,0,1,1.36.55l.75-.74a.81.81,0,0,1,1.14,0l1.77,1.77a.81.81,0,0,1,0,1.15L29.37,7a7.25,7.25,0,0,1,.56,1.35H31a.82.82,0,0,1,.81.81v2.51a.82.82,0,0,1-.81.81H29.93a6.72,6.72,0,0,1-.56,1.36l.74.75a.8.8,0,0,1,0,1.14L28.34,17.5a.86.86,0,0,1-1.14,0l-.75-.75a7.34,7.34,0,0,1-1.36.56v1.06A.82.82,0,0,1,24.28,19.18Zm-4.8-3.41.26.16a6.15,6.15,0,0,0,1.66.69l.15,0,.15.22,0,.17v1.32l2.54,0,0-1.69.3-.07a6.19,6.19,0,0,0,1.7-.71l.26-.16L27.75,17l1.81-1.78L28.39,14l.16-.26A6.08,6.08,0,0,0,29.24,12l0-.14.22-.16.18,0H31l0-2.54,0,0H29.33l-.07-.29a6.44,6.44,0,0,0-.71-1.71l-.16-.26,1.17-1.17L27.79,3.87,26.57,5l-.26-.16a5.89,5.89,0,0,0-1.66-.69l-.14,0-.16-.22,0-.18V2.45l-2.54,0,0,1.68-.3.08a6.49,6.49,0,0,0-1.7.7L19.48,5,18.31,3.87,16.49,5.65l1.17,1.21-.16.26a6.27,6.27,0,0,0-.69,1.67l0,.12-.21.17-.19,0H15.06l0,2.54,1.68,0,.07.3a6.72,6.72,0,0,0,.71,1.71l.16.26-1.17,1.17L18.26,17Z"/><path class="cls-3" d="M38.56,25.08A4.09,4.09,0,0,1,34.33,29H11.72A4.08,4.08,0,0,1,7.5,25.08V11.47a4.08,4.08,0,0,1,4.22-3.89H34.33a4.09,4.09,0,0,1,4.23,3.89Z"/></g></g></svg>