<svg xmlns="http://www.w3.org/2000/svg" viewBox="0 0 24.51 16.94"><defs><style>.cls-1,.cls-3{fill:#e3edfa;stroke:#1d1d1b;stroke-width:0.82px;}.cls-1{stroke-miterlimit:3.86;}.cls-2{fill:#1d1d1b;}.cls-3{stroke-linejoin:round;}</style></defs><title>Case_Laptop</title><g id="Ebene_2" data-name="Ebene 2"><g id="Ebene_1-2" data-name="Ebene 1"><path class="cls-1" d="M3.18.41H21.74a.54.54,0,0,1,.54.54V15.09a0,0,0,0,1,0,0H2.63a0,0,0,0,1,0,0V1A.54.54,0,0,1,3.18.41Z"/><rect class="cls-2" x="4.15" y="2.04" width="16.62" height="10.55"/><path class="cls-3" d="M14.68,14.21v.55H9.83v-.55h-9a.38.38,0,0,0-.37.38v.84a1.11,1.11,0,0,0,1.11,1.11H23a1.11,1.11,0,0,0,1.1-1.11v-.84a.37.37,0,0,0-.37-.38Z"/></g></g></svg>