<svg xmlns="http://www.w3.org/2000/svg" viewBox="0 0 28.54 23.53"><defs><style>.cls-1,.cls-5{fill:#e3edfa;}.cls-1,.cls-3,.cls-5{stroke:#1d1d1b;stroke-width:0.82px;}.cls-1,.cls-3{stroke-miterlimit:3.86;}.cls-2{fill:#1d1d1b;}.cls-3{fill:#b8c9d9;stroke-linecap:round;}.cls-4{fill:#e94e1b;}.cls-5{stroke-linejoin:round;}</style></defs><title>Case_All_in_One_1</title><g id="Ebene_2" data-name="Ebene 2"><g id="Ebene_1-2" data-name="Ebene 1"><rect class="cls-1" x="0.41" y="0.41" width="21.56" height="19.31" rx="1.61" ry="1.61"/><rect class="cls-2" x="2.65" y="2.49" width="17.4" height="11.77"/><line class="cls-3" x1="12.04" y1="16.87" x2="19.74" y2="16.87"/><rect class="cls-4" x="2.65" y="16.17" width="1.39" height="1.39" rx="0.42" ry="0.42"/><rect class="cls-5" x="10.31" y="12.91" width="1.83" height="18.6" rx="0.71" ry="0.71" transform="translate(33.43 10.99) rotate(90)"/><path class="cls-5" d="M28.13,22.41a.71.71,0,0,1-.71.71H23.36a.71.71,0,0,1-.71-.71h0a1.68,1.68,0,0,1,1.68-1.68h2.12a1.68,1.68,0,0,1,1.68,1.68Z"/></g></g></svg>