<svg xmlns="http://www.w3.org/2000/svg" viewBox="0 0 44.97 23.51"><defs><style>.cls-1,.cls-4{fill:#e3edfa;}.cls-1,.cls-2,.cls-4{stroke:#1d1d1b;stroke-width:0.82px;}.cls-1,.cls-2{stroke-miterlimit:3.86;}.cls-2{fill:#b8c9d9;stroke-linecap:round;}.cls-3{fill:#e94e1b;}.cls-4{stroke-linejoin:round;}.cls-5{fill:#1d1d1b;}</style></defs><title>Case_Desktop_3</title><g id="Ebene_2" data-name="Ebene 2"><g id="Ebene_1-2" data-name="Ebene 1"><rect class="cls-1" x="4.77" y="14.78" width="3.96" height="12.68" rx="0.79" ry="0.79" transform="translate(-14.38 27.87) rotate(-90)"/><line class="cls-2" x1="6.08" y1="21.12" x2="10.52" y2="21.12"/><rect class="cls-3" x="1.81" y="20.4" width="1.45" height="1.45" rx="0.42" ry="0.42"/><path class="cls-4" d="M44.56,22a.71.71,0,0,1-.72.71H39.79a.71.71,0,0,1-.72-.71h0a1.68,1.68,0,0,1,1.68-1.68h2.13A1.68,1.68,0,0,1,44.56,22Z"/><rect class="cls-1" x="14.04" y="0.41" width="24.69" height="18.14" rx="1.84" ry="1.84"/><rect class="cls-5" x="16.42" y="2.79" width="19.92" height="13.48"/><rect class="cls-4" x="25.47" y="12.46" width="1.83" height="18.6" rx="0.71" ry="0.71" transform="translate(48.14 -4.63) rotate(90)"/></g></g></svg>