<svg xmlns="http://www.w3.org/2000/svg" viewBox="0 0 34.91 28.96"><defs><style>.cls-1{fill:#d9e5ec;}.cls-2{fill:#c4c4c4;}.cls-3{fill:#fff;}.cls-4,.cls-5{fill:none;}.cls-4,.cls-5,.cls-6{stroke:#1d1d1b;stroke-linejoin:round;}.cls-4{stroke-width:0.82px;}.cls-5{stroke-width:0.84px;}.cls-6{fill:#fac495;stroke-linecap:round;stroke-width:0.82px;}</style></defs><title>Cointainer_Engine</title><g id="Ebene_2" data-name="Ebene 2"><g id="Ebene_1-2" data-name="Ebene 1"><rect class="cls-1" x="8" y="6.46" width="26.5" height="18.45"/><path class="cls-2" d="M34.5.41V6.46H8v-6ZM32.56,4.52V2.41H14.36V4.52Zm-20,0V2.41H9.87V4.52Z"/><rect class="cls-3" x="14.36" y="2.41" width="18.2" height="2.11"/><rect class="cls-2" x="9.87" y="2.41" width="2.71" height="2.11"/><polygon class="cls-4" points="34.5 6.46 34.5 24.91 8 24.91 8 6.46 8 0.41 34.5 0.41 34.5 6.46"/><line class="cls-4" x1="34.5" y1="6.46" x2="8" y2="6.46"/><rect class="cls-5" x="9.87" y="2.41" width="2.71" height="2.11"/><rect class="cls-6" x="0.41" y="17.11" width="19.52" height="11.44"/><line class="cls-6" x1="3.34" y1="26.77" x2="3.34" y2="18.9"/><line class="cls-6" x1="6.75" y1="26.77" x2="6.75" y2="18.9"/><line class="cls-6" x1="10.16" y1="26.77" x2="10.16" y2="18.9"/><line class="cls-6" x1="13.57" y1="26.77" x2="13.57" y2="18.9"/><line class="cls-6" x1="16.98" y1="26.77" x2="16.98" y2="18.9"/></g></g></svg>