<svg xmlns="http://www.w3.org/2000/svg" viewBox="0 0 36.95 29.19"><defs><style>.cls-1{fill:#d9e5ec;}.cls-2{fill:#c4c4c4;}.cls-3,.cls-9{fill:#fff;}.cls-4,.cls-5,.cls-6{fill:none;}.cls-4,.cls-5,.cls-6,.cls-7,.cls-8,.cls-9{stroke:#1d1d1b;}.cls-4,.cls-5,.cls-7,.cls-8,.cls-9{stroke-linejoin:round;}.cls-4{stroke-width:0.82px;}.cls-5{stroke-width:0.84px;}.cls-6,.cls-7{stroke-linecap:round;}.cls-6{stroke-miterlimit:10;}.cls-7,.cls-8{fill:#1d1d1b;}.cls-7{stroke-width:0.8px;}.cls-8,.cls-9{stroke-width:0.82px;}</style></defs><title>Component</title><g id="Ebene_2" data-name="Ebene 2"><g id="Ebene_1-2" data-name="Ebene 1"><rect class="cls-1" x="10.04" y="6.46" width="26.5" height="18.45"/><path class="cls-2" d="M36.54.41V6.46H10v-6ZM34.6,4.52V2.41H16.4V4.52Zm-20,0V2.41H11.91V4.52Z"/><rect class="cls-3" x="16.4" y="2.41" width="18.2" height="2.11"/><rect class="cls-2" x="11.91" y="2.41" width="2.71" height="2.11"/><polygon class="cls-4" points="36.54 6.46 36.54 24.91 10.04 24.91 10.04 6.46 10.04 0.41 36.54 0.41 36.54 6.46"/><line class="cls-4" x1="36.54" y1="6.46" x2="10.04" y2="6.46"/><rect class="cls-5" x="11.91" y="2.41" width="2.71" height="2.11"/><line class="cls-6" x1="32.46" y1="19.38" x2="28.69" y2="15.61"/><polygon class="cls-7" points="25.7 12.62 27.72 17.01 30.09 14.64 25.7 12.62"/><path class="cls-8" d="M21,22.06a1.82,1.82,0,0,0-1,.3V19.13H16.78a1.9,1.9,0,1,0-3.19,0H10.36v3.4a1.58,1.58,0,0,1,.75-.19,1.62,1.62,0,1,1,0,3.23,1.58,1.58,0,0,1-.75-.19v3.41h3.4a1.65,1.65,0,0,1-.19-.76,1.62,1.62,0,1,1,3.23,0,1.65,1.65,0,0,1-.19.76H20V25.55a1.82,1.82,0,0,0,1,.3,1.9,1.9,0,0,0,0-3.79Z"/><path class="cls-9" d="M11.08,22.06a1.84,1.84,0,0,0-1,.3V19.13H6.83a1.9,1.9,0,1,0-3.49-1,2,2,0,0,0,.3,1H.41v3.4a1.58,1.58,0,0,1,.75-.19,1.62,1.62,0,1,1,0,3.23,1.58,1.58,0,0,1-.75-.19v3.41H3.82a1.54,1.54,0,0,1-.2-.76,1.62,1.62,0,0,1,3.24,0,1.65,1.65,0,0,1-.2.76h3.41V25.55a1.84,1.84,0,0,0,1,.3,1.9,1.9,0,0,0,0-3.79Z"/></g></g></svg>