<svg xmlns="http://www.w3.org/2000/svg" viewBox="0 0 37.86 36.32"><defs><style>.cls-1{fill:#d9e5ec;}.cls-2{fill:#c4c4c4;}.cls-3{fill:#fff;}.cls-4,.cls-5,.cls-6{fill:none;}.cls-4,.cls-5,.cls-6,.cls-8{stroke:#1d1d1b;stroke-linejoin:round;}.cls-4{stroke-width:0.82px;}.cls-5{stroke-width:0.84px;}.cls-6,.cls-8{stroke-linecap:round;stroke-width:0.82px;}.cls-7{fill:#1d1d1b;}.cls-8{fill:#fac495;}</style></defs><title>Container_Orchestrator</title><g id="Ebene_2" data-name="Ebene 2"><g id="Ebene_1-2" data-name="Ebene 1"><rect class="cls-1" x="10.95" y="6.46" width="26.5" height="18.45"/><path class="cls-2" d="M37.45.41V6.46H11v-6ZM35.51,4.52V2.41H17.31V4.52Zm-20,0V2.41H12.82V4.52Z"/><rect class="cls-3" x="17.31" y="2.41" width="18.2" height="2.11"/><rect class="cls-2" x="12.82" y="2.41" width="2.71" height="2.11"/><polygon class="cls-4" points="37.45 6.46 37.45 24.91 10.95 24.91 10.95 6.46 10.95 0.41 37.45 0.41 37.45 6.46"/><line class="cls-4" x1="37.45" y1="6.46" x2="10.95" y2="6.46"/><rect class="cls-5" x="12.82" y="2.41" width="2.71" height="2.11"/><path class="cls-6" d="M.41,28.43V16.64A3.62,3.62,0,0,1,4,13h13.6"/><polygon class="cls-7" points="14.93 16.35 14.37 15.76 17.32 13.02 14.37 10.28 14.93 9.68 18.52 13.02 14.93 16.35"/><path class="cls-6" d="M25.65,17.58V29.36A3.63,3.63,0,0,1,22,33H8.43"/><polygon class="cls-7" points="11.13 29.65 11.69 30.25 8.74 32.98 11.69 35.73 11.13 36.32 7.54 32.98 11.13 29.65"/><rect class="cls-8" x="3.91" y="17.66" width="18.23" height="10.69"/><line class="cls-8" x1="6.65" y1="26.68" x2="6.65" y2="19.32"/><line class="cls-8" x1="9.84" y1="26.68" x2="9.84" y2="19.32"/><line class="cls-8" x1="13.03" y1="26.68" x2="13.03" y2="19.32"/><line class="cls-8" x1="16.21" y1="26.68" x2="16.21" y2="19.32"/><line class="cls-8" x1="19.4" y1="26.68" x2="19.4" y2="19.32"/></g></g></svg>