<svg xmlns="http://www.w3.org/2000/svg" viewBox="0 0 17.45 36.86"><defs><style>.cls-1{fill:#b8c9d9;stroke-miterlimit:3.86;}.cls-1,.cls-2{stroke:#1d1d1b;stroke-width:0.82px;}.cls-2{fill:none;stroke-linecap:round;stroke-miterlimit:10;}.cls-3{fill:#1d1d1b;}</style></defs><title>Data_Input_1</title><g id="Ebene_2" data-name="Ebene 2"><g id="Ebene_1-2" data-name="Ebene 1"><path class="cls-1" d="M.41,17V34.32c0,1.18,3.72,2.14,8.31,2.14S17,35.5,17,34.32V17Z"/><path class="cls-1" d="M17,17c0,1.18-3.73,2.13-8.32,2.13S.41,18.16.41,17s3.72-2.13,8.31-2.13S17,15.81,17,17Z"/><line class="cls-2" x1="12.4" y1="0.41" x2="12.4" y2="8.58"/><polygon class="cls-3" points="10.74 7.45 12.39 13.64 14.06 7.45 10.74 7.45"/><line class="cls-2" x1="8.72" y1="1.84" x2="8.72" y2="12.58"/><polygon class="cls-3" points="7.06 11.45 8.72 17.64 10.38 11.45 7.06 11.45"/><line class="cls-2" x1="5.05" y1="0.41" x2="5.05" y2="6.17"/><polygon class="cls-3" points="3.39 5.04 5.05 11.23 6.71 5.04 3.39 5.04"/></g></g></svg>