<svg xmlns="http://www.w3.org/2000/svg" xmlns:xlink="http://www.w3.org/1999/xlink" viewBox="0 0 27.32 25.32"><defs><style>.cls-1,.cls-10,.cls-5,.cls-6,.cls-8{fill:none;}.cls-1,.cls-5,.cls-6{stroke:#1d1d1b;}.cls-1,.cls-10,.cls-7,.cls-8,.cls-9{stroke-miterlimit:3.86;}.cls-2{fill:#d9e5ec;}.cls-3{fill:#c4c4c4;}.cls-4{fill:#fff;}.cls-5,.cls-6{stroke-linejoin:round;}.cls-5{stroke-width:0.82px;}.cls-6{stroke-width:0.84px;}.cls-7{fill:#b8c9d9;}.cls-7,.cls-8,.cls-9{stroke:#1e1e1c;}.cls-10,.cls-7,.cls-8,.cls-9{stroke-width:0.82px;}.cls-9{fill:#e3edf9;}.cls-10{stroke:#e94f1d;}.cls-11{fill:#1d1d1b;}.cls-12{clip-path:url(#clip-path);}</style><clipPath id="clip-path"><circle class="cls-1" cx="20.91" cy="17.96" r="3.52"/></clipPath></defs><title>Datawarehouse</title><g id="Ebene_2" data-name="Ebene 2"><g id="Ebene_1-2" data-name="Ebene 1"><rect class="cls-2" x="0.41" y="6.46" width="26.5" height="18.45"/><path class="cls-3" d="M26.91.41V6.46H.41v-6ZM25,4.52V2.41H6.77V4.52Zm-20,0V2.41H2.28V4.52Z"/><rect class="cls-4" x="6.77" y="2.41" width="18.2" height="2.11"/><rect class="cls-3" x="2.28" y="2.41" width="2.71" height="2.11"/><polygon class="cls-5" points="26.91 6.46 26.91 24.91 0.41 24.91 0.41 6.46 0.41 0.41 26.91 0.41 26.91 6.46"/><line class="cls-5" x1="26.91" y1="6.46" x2="0.41" y2="6.46"/><rect class="cls-6" x="2.28" y="2.41" width="2.71" height="2.11"/><g id="Ebene_2-2" data-name="Ebene 2"><g id="Ebene_1-2-2" data-name="Ebene 1-2"><path class="cls-7" d="M18,8.46c-1.81,0-3.28.48-3.28,1.09V17c0,.58,1.47,1.09,3.28,1.09S21.3,17.55,21.3,17V9.55C21.3,8.94,19.84,8.46,18,8.46Z"/><path class="cls-8" d="M14.75,9.55c0,.58,1.47,1.09,3.28,1.09s3.27-.49,3.27-1.09"/><path class="cls-7" d="M9.17,8.46c-1.8,0-3.26.48-3.26,1.09V17c0,.58,1.46,1.09,3.27,1.09s3.27-.51,3.27-1.09V9.55C12.45,8.94,11,8.46,9.17,8.46Z"/><path class="cls-8" d="M5.91,9.55c0,.58,1.46,1.09,3.27,1.09s3.27-.49,3.27-1.09"/><path class="cls-7" d="M13.61,8.8c-1.81,0-3.27.5-3.27,1.1v7.41c0,.58,1.46,1.09,3.27,1.09s3.27-.49,3.27-1.09V9.9C16.87,9.3,15.41,8.8,13.61,8.8Z"/><path class="cls-8" d="M10.34,9.9c0,.58,1.46,1.09,3.27,1.09s3.27-.49,3.27-1.09"/><rect class="cls-9" x="7.9" y="12.02" width="3.99" height="8.23" rx="0.46" ry="0.46"/><line class="cls-8" x1="8.74" y1="13.35" x2="11.06" y2="13.35"/><line class="cls-8" x1="8.74" y1="14.48" x2="11.06" y2="14.48"/><line class="cls-10" x1="8.74" y1="16.14" x2="9.24" y2="16.14"/><rect class="cls-9" x="15.31" y="12.02" width="3.99" height="8.23" rx="0.46" ry="0.46"/><line class="cls-8" x1="16.14" y1="13.35" x2="18.47" y2="13.35"/><line class="cls-8" x1="16.14" y1="14.48" x2="18.47" y2="14.48"/><line class="cls-10" x1="16.14" y1="16.14" x2="16.64" y2="16.14"/><polyline class="cls-8" points="9.9 20.25 9.9 21.8 17.3 21.8 17.3 20.25"/></g></g><rect class="cls-11" x="24.3" y="20.81" width="0.99" height="3.59" rx="0.46" ry="0.46" transform="translate(-8.76 22.58) rotate(-42.3)"/><g class="cls-12"><g id="Ebene_2-3" data-name="Ebene 2"><g id="Ebene_1-2-3" data-name="Ebene 1-2"><path class="cls-7" d="M18.38,6c-2.34,0-4.24.63-4.24,1.41v9.64c0,.76,1.9,1.41,4.24,1.41s4.25-.65,4.25-1.41V7.42C22.63,6.64,20.73,6,18.38,6Z"/><path class="cls-8" d="M14.14,7.42c0,.76,1.9,1.42,4.24,1.42s4.25-.64,4.25-1.42"/><path class="cls-7" d="M6.89,6c-2.33,0-4.24.63-4.24,1.41v9.64c0,.76,1.91,1.41,4.25,1.41s4.24-.65,4.24-1.41V7.42C11.14,6.64,9.24,6,6.89,6Z"/><path class="cls-8" d="M2.65,7.42c0,.76,1.91,1.42,4.25,1.42s4.24-.64,4.24-1.42"/><path class="cls-7" d="M12.64,6.45c-2.34,0-4.24.65-4.24,1.43V17.5c0,.75,1.9,1.41,4.25,1.41s4.24-.63,4.24-1.41V7.88C16.88,7.1,15,6.45,12.64,6.45Z"/><path class="cls-8" d="M8.4,7.88c0,.76,1.9,1.41,4.25,1.41s4.24-.62,4.24-1.41"/><rect class="cls-9" x="5.24" y="10.64" width="5.18" height="10.69" rx="0.6" ry="0.6"/><line class="cls-8" x1="6.33" y1="12.36" x2="9.34" y2="12.36"/><line class="cls-8" x1="6.33" y1="13.83" x2="9.34" y2="13.83"/><line class="cls-10" x1="6.33" y1="15.98" x2="6.97" y2="15.98"/><rect class="cls-9" x="14.86" y="10.64" width="5.18" height="10.69" rx="0.6" ry="0.6"/><line class="cls-8" x1="15.94" y1="12.36" x2="18.96" y2="12.36"/><line class="cls-8" x1="15.94" y1="13.83" x2="18.96" y2="13.83"/><line class="cls-10" x1="15.94" y1="15.98" x2="16.58" y2="15.98"/><polyline class="cls-8" points="7.83 21.32 7.83 23.33 17.45 23.33 17.45 21.32"/></g></g></g><circle class="cls-1" cx="20.91" cy="17.96" r="3.52"/><path class="cls-2" d="M20.91,21a3.21,3.21,0,0,1-.92-.14,3.05,3.05,0,1,1,3.63-4.32h0a3,3,0,0,1,.2,2.33,3.06,3.06,0,0,1-1.5,1.79A3,3,0,0,1,20.91,21Zm0-5.6a2.53,2.53,0,0,0-2.43,1.78,2.56,2.56,0,0,0,1.66,3.2,2.55,2.55,0,0,0,3.2-1.66,2.54,2.54,0,0,0-.16-1.95h0a2.58,2.58,0,0,0-2.27-1.37Z"/></g></g></svg>