<svg xmlns="http://www.w3.org/2000/svg" viewBox="0 0 33.35 30.67"><defs><style>.cls-1{fill:#d9e5ec;}.cls-2{fill:#c4c4c4;}.cls-3{fill:#fff;}.cls-4,.cls-5,.cls-6{fill:none;}.cls-4,.cls-5,.cls-6,.cls-7,.cls-8{stroke:#1d1d1b;}.cls-4,.cls-5,.cls-7{stroke-linejoin:round;}.cls-4{stroke-width:0.82px;}.cls-5{stroke-width:0.84px;}.cls-6,.cls-7{stroke-linecap:round;}.cls-6{stroke-miterlimit:10;}.cls-7{fill:#1d1d1b;stroke-width:0.8px;}.cls-8{fill:#b8c9d9;stroke-miterlimit:3.86;stroke-width:0.82px;}</style></defs><title>Database_Management_System</title><g id="Ebene_2" data-name="Ebene 2"><g id="Ebene_1-2" data-name="Ebene 1"><rect class="cls-1" x="6.44" y="6.46" width="26.5" height="18.45"/><path class="cls-2" d="M32.94.41V6.46H6.44v-6ZM31,4.52V2.41H12.8V4.52Zm-20,0V2.41H8.31V4.52Z"/><rect class="cls-3" x="12.8" y="2.41" width="18.2" height="2.11"/><rect class="cls-2" x="8.31" y="2.41" width="2.71" height="2.11"/><polygon class="cls-4" points="32.94 6.46 32.94 24.91 6.44 24.91 6.44 6.46 6.44 0.41 32.94 0.41 32.94 6.46"/><line class="cls-4" x1="32.94" y1="6.46" x2="6.44" y2="6.46"/><rect class="cls-5" x="8.31" y="2.41" width="2.71" height="2.11"/><line class="cls-6" x1="28.86" y1="19.38" x2="25.09" y2="15.61"/><polygon class="cls-7" points="22.11 12.62 24.12 17.01 26.49 14.64 22.11 12.62"/><path class="cls-8" d="M.41,17.77V28.38c0,1,2.53,1.88,5.64,1.88s5.65-.84,5.65-1.88V17.77Z"/><path class="cls-8" d="M11.7,17.77c0,1-2.53,1.89-5.65,1.89S.41,18.81.41,17.77s2.53-1.88,5.64-1.88S11.7,16.73,11.7,17.77Z"/></g></g></svg>