<?xml version="1.0" encoding="UTF-8" standalone="no"?>
<svg
   xmlns:dc="http://purl.org/dc/elements/1.1/"
   xmlns:cc="http://creativecommons.org/ns#"
   xmlns:rdf="http://www.w3.org/1999/02/22-rdf-syntax-ns#"
   xmlns:svg="http://www.w3.org/2000/svg"
   xmlns="http://www.w3.org/2000/svg"
   xmlns:sodipodi="http://sodipodi.sourceforge.net/DTD/sodipodi-0.dtd"
   xmlns:inkscape="http://www.inkscape.org/namespaces/inkscape"
   viewBox="0 0 34.16 30.8"
   version="1.1"
   id="svg32"
   sodipodi:docname="Database_Management_Server.svg"
   inkscape:version="1.0.1 (3bc2e813f5, 2020-09-07)">
  <metadata
     id="metadata36">
    <rdf:RDF>
      <cc:Work
         rdf:about="">
        <dc:format>image/svg+xml</dc:format>
        <dc:type
           rdf:resource="http://purl.org/dc/dcmitype/StillImage" />
      </cc:Work>
    </rdf:RDF>
  </metadata>
  <sodipodi:namedview
     pagecolor="#ffffff"
     bordercolor="#666666"
     borderopacity="1"
     objecttolerance="10"
     gridtolerance="10"
     guidetolerance="10"
     inkscape:pageopacity="0"
     inkscape:pageshadow="2"
     inkscape:window-width="1920"
     inkscape:window-height="1001"
     id="namedview34"
     showgrid="false"
     inkscape:zoom="9.7341975"
     inkscape:cx="23.956192"
     inkscape:cy="13.211452"
     inkscape:window-x="-9"
     inkscape:window-y="-9"
     inkscape:window-maximized="1"
     inkscape:current-layer="svg32" />
  <defs
     id="defs4">
    <style
       id="style2">.cls-1{fill:#d9e5ec;}.cls-2{fill:#c4c4c4;}.cls-3,.cls-8{fill:#fff;}.cls-4,.cls-5{fill:none;stroke-linejoin:round;}.cls-4,.cls-5,.cls-6{stroke:#1d1d1b;}.cls-4{stroke-width:0.82px;}.cls-5{stroke-width:0.84px;}.cls-6{fill:#b8c9d9;stroke-miterlimit:3.86;stroke-width:0.82px;}.cls-7{fill:#d6e7f1;}.cls-7,.cls-8{stroke:#0d4252;stroke-miterlimit:10;stroke-width:0.78px;fill-rule:evenodd;}</style>
  </defs>
  <title
     id="title6">Database_Management_Server</title>
  <rect
     class="cls-1"
     x="7.25"
     y="6.46"
     width="26.5"
     height="18.450001"
     id="rect8" />
  <path
     class="cls-2"
     d="M 33.75,0.41 V 6.46 H 7.25 v -6 z M 31.81,4.52 V 2.41 h -18.2 v 2.11 z m -20,0 V 2.41 H 9.12 v 2.11 z"
     id="path10" />
  <rect
     class="cls-3"
     x="13.61"
     y="2.4100001"
     width="18.200001"
     height="2.1099999"
     id="rect12" />
  <rect
     class="cls-2"
     x="9.1199999"
     y="2.4100001"
     width="2.71"
     height="2.1099999"
     id="rect14" />
  <path
     style="color:#000000;font-style:normal;font-variant:normal;font-weight:normal;font-stretch:normal;font-size:medium;line-height:normal;font-family:sans-serif;font-variant-ligatures:normal;font-variant-position:normal;font-variant-caps:normal;font-variant-numeric:normal;font-variant-alternates:normal;font-variant-east-asian:normal;font-feature-settings:normal;font-variation-settings:normal;text-indent:0;text-align:start;text-decoration:none;text-decoration-line:none;text-decoration-style:solid;text-decoration-color:#000000;letter-spacing:normal;word-spacing:normal;text-transform:none;writing-mode:lr-tb;direction:ltr;text-orientation:mixed;dominant-baseline:auto;baseline-shift:baseline;text-anchor:start;white-space:normal;shape-padding:0;shape-margin:0;inline-size:0;clip-rule:nonzero;display:inline;overflow:visible;visibility:visible;isolation:auto;mix-blend-mode:normal;color-interpolation:sRGB;color-interpolation-filters:linearRGB;solid-color:#000000;solid-opacity:1;vector-effect:none;fill:#1d1d1b;fill-opacity:1;fill-rule:nonzero;stroke:none;stroke-width:0.82px;stroke-linecap:butt;stroke-linejoin:round;stroke-miterlimit:4;stroke-dasharray:none;stroke-dashoffset:0;stroke-opacity:1;color-rendering:auto;image-rendering:auto;shape-rendering:auto;text-rendering:auto;enable-background:accumulate;stop-color:#000000;stop-opacity:1;opacity:1"
     d="M 7.25 0 A 0.410041 0.410041 0 0 0 6.8398438 0.41015625 L 6.8398438 6.4609375 L 6.8398438 24.910156 A 0.410041 0.410041 0 0 0 7.25 25.320312 L 33.75 25.320312 A 0.410041 0.410041 0 0 0 34.160156 24.910156 L 34.160156 6.4609375 L 34.160156 0.41015625 A 0.410041 0.410041 0 0 0 33.75 0 L 7.25 0 z M 7.6601562 0.8203125 L 33.339844 0.8203125 L 33.339844 6.4609375 L 33.339844 24.5 L 7.6601562 24.5 L 7.6601562 6.4609375 L 7.6601562 0.8203125 z "
     id="path64" />
  <path
     style="color:#000000;font-style:normal;font-variant:normal;font-weight:normal;font-stretch:normal;font-size:medium;line-height:normal;font-family:sans-serif;font-variant-ligatures:normal;font-variant-position:normal;font-variant-caps:normal;font-variant-numeric:normal;font-variant-alternates:normal;font-variant-east-asian:normal;font-feature-settings:normal;font-variation-settings:normal;text-indent:0;text-align:start;text-decoration:none;text-decoration-line:none;text-decoration-style:solid;text-decoration-color:#000000;letter-spacing:normal;word-spacing:normal;text-transform:none;writing-mode:lr-tb;direction:ltr;text-orientation:mixed;dominant-baseline:auto;baseline-shift:baseline;text-anchor:start;white-space:normal;shape-padding:0;shape-margin:0;inline-size:0;clip-rule:nonzero;display:inline;overflow:visible;visibility:visible;isolation:auto;mix-blend-mode:normal;color-interpolation:sRGB;color-interpolation-filters:linearRGB;solid-color:#000000;solid-opacity:1;vector-effect:none;fill:#1d1d1b;fill-opacity:1;fill-rule:nonzero;stroke:none;stroke-width:0.82px;stroke-linecap:butt;stroke-linejoin:round;stroke-miterlimit:4;stroke-dasharray:none;stroke-dashoffset:0;stroke-opacity:1;color-rendering:auto;image-rendering:auto;shape-rendering:auto;text-rendering:auto;enable-background:accumulate;stop-color:#000000;stop-opacity:1;opacity:1"
     d="M 7.25 6.0507812 L 7.25 6.8691406 L 33.75 6.8691406 L 33.75 6.0507812 L 7.25 6.0507812 z "
     id="path69" />
  <path
     style="color:#000000;font-style:normal;font-variant:normal;font-weight:normal;font-stretch:normal;font-size:medium;line-height:normal;font-family:sans-serif;font-variant-ligatures:normal;font-variant-position:normal;font-variant-caps:normal;font-variant-numeric:normal;font-variant-alternates:normal;font-variant-east-asian:normal;font-feature-settings:normal;font-variation-settings:normal;text-indent:0;text-align:start;text-decoration:none;text-decoration-line:none;text-decoration-style:solid;text-decoration-color:#000000;letter-spacing:normal;word-spacing:normal;text-transform:none;writing-mode:lr-tb;direction:ltr;text-orientation:mixed;dominant-baseline:auto;baseline-shift:baseline;text-anchor:start;white-space:normal;shape-padding:0;shape-margin:0;inline-size:0;clip-rule:nonzero;display:inline;overflow:visible;visibility:visible;isolation:auto;mix-blend-mode:normal;color-interpolation:sRGB;color-interpolation-filters:linearRGB;solid-color:#000000;solid-opacity:1;vector-effect:none;fill:#1d1d1b;fill-opacity:1;fill-rule:nonzero;stroke:none;stroke-width:0.84px;stroke-linecap:butt;stroke-linejoin:round;stroke-miterlimit:4;stroke-dasharray:none;stroke-dashoffset:0;stroke-opacity:1;color-rendering:auto;image-rendering:auto;shape-rendering:auto;text-rendering:auto;enable-background:accumulate;stop-color:#000000;stop-opacity:1;opacity:1"
     d="M 9.1191406 1.9902344 A 0.42004199 0.42004199 0 0 0 8.6992188 2.4101562 L 8.6992188 4.5195312 A 0.42004199 0.42004199 0 0 0 9.1191406 4.9394531 L 11.830078 4.9394531 A 0.42004199 0.42004199 0 0 0 12.25 4.5195312 L 12.25 2.4101562 A 0.42004199 0.42004199 0 0 0 11.830078 1.9902344 L 9.1191406 1.9902344 z M 9.5390625 2.8300781 L 11.410156 2.8300781 L 11.410156 4.0996094 L 9.5390625 4.0996094 L 9.5390625 2.8300781 z "
     id="path74" />
  <g
     id="g82"
     style="opacity:1">
    <path
       style="color:#000000;font-style:normal;font-variant:normal;font-weight:normal;font-stretch:normal;font-size:medium;line-height:normal;font-family:sans-serif;font-variant-ligatures:normal;font-variant-position:normal;font-variant-caps:normal;font-variant-numeric:normal;font-variant-alternates:normal;font-variant-east-asian:normal;font-feature-settings:normal;font-variation-settings:normal;text-indent:0;text-align:start;text-decoration:none;text-decoration-line:none;text-decoration-style:solid;text-decoration-color:#000000;letter-spacing:normal;word-spacing:normal;text-transform:none;writing-mode:lr-tb;direction:ltr;text-orientation:mixed;dominant-baseline:auto;baseline-shift:baseline;text-anchor:start;white-space:normal;shape-padding:0;shape-margin:0;inline-size:0;clip-rule:nonzero;display:inline;overflow:visible;visibility:visible;isolation:auto;mix-blend-mode:normal;color-interpolation:sRGB;color-interpolation-filters:linearRGB;solid-color:#000000;solid-opacity:1;vector-effect:none;fill:#b8c9d9;fill-opacity:1;fill-rule:nonzero;stroke:none;stroke-width:0.82px;stroke-linecap:butt;stroke-linejoin:miter;stroke-miterlimit:3.86;stroke-dasharray:none;stroke-dashoffset:0;stroke-opacity:1.0;color-rendering:auto;image-rendering:auto;shape-rendering:auto;text-rendering:auto;enable-background:accumulate;stop-color:#000000;stop-opacity:1;"
       d="m 20.14,11.54 v 8.38 c 0,0.83 2,1.49 4.46,1.49 2.46,0 4.46,-0.66 4.46,-1.49 v -8.38 z"
       id="path84" />
    <path
       style="color:#000000;font-style:normal;font-variant:normal;font-weight:normal;font-stretch:normal;font-size:medium;line-height:normal;font-family:sans-serif;font-variant-ligatures:normal;font-variant-position:normal;font-variant-caps:normal;font-variant-numeric:normal;font-variant-alternates:normal;font-variant-east-asian:normal;font-feature-settings:normal;font-variation-settings:normal;text-indent:0;text-align:start;text-decoration:none;text-decoration-line:none;text-decoration-style:solid;text-decoration-color:#000000;letter-spacing:normal;word-spacing:normal;text-transform:none;writing-mode:lr-tb;direction:ltr;text-orientation:mixed;dominant-baseline:auto;baseline-shift:baseline;text-anchor:start;white-space:normal;shape-padding:0;shape-margin:0;inline-size:0;clip-rule:nonzero;display:inline;overflow:visible;visibility:visible;isolation:auto;mix-blend-mode:normal;color-interpolation:sRGB;color-interpolation-filters:linearRGB;solid-color:#000000;solid-opacity:1;vector-effect:none;fill:#1d1d1b;fill-opacity:1;fill-rule:nonzero;stroke:none;stroke-width:0.82px;stroke-linecap:butt;stroke-linejoin:miter;stroke-miterlimit:3.86;stroke-dasharray:none;stroke-dashoffset:0;stroke-opacity:1.0;color-rendering:auto;image-rendering:auto;shape-rendering:auto;text-rendering:auto;enable-background:accumulate;stop-color:#000000;stop-opacity:1;"
       d="M 19.730469 11.130859 L 19.730469 11.539062 L 19.730469 19.919922 C 19.730469 20.292081 19.953108 20.600346 20.236328 20.824219 C 20.519548 21.048092 20.884814 21.220943 21.318359 21.365234 C 22.18545 21.653817 23.332943 21.820312 24.599609 21.820312 C 25.866276 21.820312 27.015722 21.653817 27.882812 21.365234 C 28.316358 21.220943 28.67967 21.048092 28.962891 20.824219 C 29.246111 20.600346 29.470703 20.292081 29.470703 19.919922 L 29.470703 11.130859 L 19.730469 11.130859 z M 20.550781 11.949219 L 28.650391 11.949219 L 28.650391 19.919922 C 28.650391 19.962763 28.623733 20.048326 28.455078 20.181641 C 28.286423 20.314955 27.997002 20.463432 27.623047 20.587891 C 26.875137 20.836808 25.792943 21 24.599609 21 C 23.406276 21 22.324082 20.836808 21.576172 20.587891 C 21.202217 20.463432 20.914749 20.314955 20.746094 20.181641 C 20.577439 20.048326 20.550781 19.962763 20.550781 19.919922 L 20.550781 11.949219 z "
       id="path86" />
  </g>
  <g
     id="g88"
     style="opacity:1">
    <path
       style="color:#000000;font-style:normal;font-variant:normal;font-weight:normal;font-stretch:normal;font-size:medium;line-height:normal;font-family:sans-serif;font-variant-ligatures:normal;font-variant-position:normal;font-variant-caps:normal;font-variant-numeric:normal;font-variant-alternates:normal;font-variant-east-asian:normal;font-feature-settings:normal;font-variation-settings:normal;text-indent:0;text-align:start;text-decoration:none;text-decoration-line:none;text-decoration-style:solid;text-decoration-color:#000000;letter-spacing:normal;word-spacing:normal;text-transform:none;writing-mode:lr-tb;direction:ltr;text-orientation:mixed;dominant-baseline:auto;baseline-shift:baseline;text-anchor:start;white-space:normal;shape-padding:0;shape-margin:0;inline-size:0;clip-rule:nonzero;display:inline;overflow:visible;visibility:visible;isolation:auto;mix-blend-mode:normal;color-interpolation:sRGB;color-interpolation-filters:linearRGB;solid-color:#000000;solid-opacity:1;vector-effect:none;fill:#b8c9d9;fill-opacity:1;fill-rule:nonzero;stroke:none;stroke-width:0.82px;stroke-linecap:butt;stroke-linejoin:miter;stroke-miterlimit:3.86;stroke-dasharray:none;stroke-dashoffset:0;stroke-opacity:1.0;color-rendering:auto;image-rendering:auto;shape-rendering:auto;text-rendering:auto;enable-background:accumulate;stop-color:#000000;stop-opacity:1;"
       d="m 29.06,11.54 c 0,0.83 -2,1.49 -4.46,1.49 -2.46,0 -4.46,-0.66 -4.46,-1.49 0,-0.83 2,-1.48 4.46,-1.48 2.46,0 4.46,0.66 4.46,1.48 z"
       id="path90" />
    <path
       style="color:#000000;font-style:normal;font-variant:normal;font-weight:normal;font-stretch:normal;font-size:medium;line-height:normal;font-family:sans-serif;font-variant-ligatures:normal;font-variant-position:normal;font-variant-caps:normal;font-variant-numeric:normal;font-variant-alternates:normal;font-variant-east-asian:normal;font-feature-settings:normal;font-variation-settings:normal;text-indent:0;text-align:start;text-decoration:none;text-decoration-line:none;text-decoration-style:solid;text-decoration-color:#000000;letter-spacing:normal;word-spacing:normal;text-transform:none;writing-mode:lr-tb;direction:ltr;text-orientation:mixed;dominant-baseline:auto;baseline-shift:baseline;text-anchor:start;white-space:normal;shape-padding:0;shape-margin:0;inline-size:0;clip-rule:nonzero;display:inline;overflow:visible;visibility:visible;isolation:auto;mix-blend-mode:normal;color-interpolation:sRGB;color-interpolation-filters:linearRGB;solid-color:#000000;solid-opacity:1;vector-effect:none;fill:#1d1d1b;fill-opacity:1;fill-rule:nonzero;stroke:none;stroke-width:0.82px;stroke-linecap:butt;stroke-linejoin:miter;stroke-miterlimit:3.86;stroke-dasharray:none;stroke-dashoffset:0;stroke-opacity:1.0;color-rendering:auto;image-rendering:auto;shape-rendering:auto;text-rendering:auto;enable-background:accumulate;stop-color:#000000;stop-opacity:1;"
       d="M 24.599609 9.6503906 C 23.333498 9.6503906 22.185339 9.8137477 21.318359 10.099609 C 20.88487 10.24254 20.521787 10.413796 20.238281 10.636719 C 19.954776 10.859641 19.730469 11.166904 19.730469 11.539062 C 19.730469 11.911221 19.953108 12.221439 20.236328 12.445312 C 20.519548 12.669186 20.884814 12.840084 21.318359 12.984375 C 22.18545 13.272958 23.332943 13.439453 24.599609 13.439453 C 25.866276 13.439453 27.015722 13.272958 27.882812 12.984375 C 28.316358 12.840084 28.67967 12.669186 28.962891 12.445312 C 29.246111 12.221439 29.470703 11.911221 29.470703 11.539062 C 29.470703 11.167396 29.245986 10.862638 28.962891 10.640625 C 28.679795 10.418612 28.314196 10.247067 27.880859 10.103516 C 27.014186 9.8164133 25.866276 9.6503906 24.599609 9.6503906 z M 24.599609 10.470703 C 25.792943 10.470703 26.87472 10.632962 27.623047 10.880859 C 27.99721 11.004808 28.286299 11.152794 28.455078 11.285156 C 28.623857 11.417518 28.650391 11.500729 28.650391 11.539062 C 28.650391 11.581904 28.623733 11.667467 28.455078 11.800781 C 28.286423 11.934096 27.997002 12.082573 27.623047 12.207031 C 26.875137 12.455949 25.792943 12.619141 24.599609 12.619141 C 23.406276 12.619141 22.324082 12.455949 21.576172 12.207031 C 21.202217 12.082573 20.914749 11.934096 20.746094 11.800781 C 20.577439 11.667467 20.550781 11.581904 20.550781 11.539062 C 20.550781 11.496221 20.575771 11.41364 20.744141 11.28125 C 20.91251 11.14886 21.202162 11.002225 21.576172 10.878906 C 22.324192 10.632268 23.40572 10.470703 24.599609 10.470703 z "
       id="path92" />
  </g>
  <path
     style="color:#000000;font-style:normal;font-variant:normal;font-weight:normal;font-stretch:normal;font-size:medium;line-height:normal;font-family:sans-serif;font-variant-ligatures:normal;font-variant-position:normal;font-variant-caps:normal;font-variant-numeric:normal;font-variant-alternates:normal;font-variant-east-asian:normal;font-feature-settings:normal;font-variation-settings:normal;text-indent:0;text-align:start;text-decoration:none;text-decoration-line:none;text-decoration-style:solid;text-decoration-color:#000000;letter-spacing:normal;word-spacing:normal;text-transform:none;writing-mode:lr-tb;direction:ltr;text-orientation:mixed;dominant-baseline:auto;baseline-shift:baseline;text-anchor:start;white-space:normal;shape-padding:0;shape-margin:0;inline-size:0;clip-rule:nonzero;display:inline;overflow:visible;visibility:visible;isolation:auto;mix-blend-mode:normal;color-interpolation:sRGB;color-interpolation-filters:linearRGB;solid-color:#000000;solid-opacity:1;vector-effect:none;fill:#d6e7f1;fill-opacity:1;fill-rule:evenodd;stroke:none;stroke-width:0.78px;stroke-linecap:butt;stroke-linejoin:miter;stroke-miterlimit:10;stroke-dasharray:none;stroke-dashoffset:0;stroke-opacity:1;color-rendering:auto;image-rendering:auto;shape-rendering:auto;text-rendering:auto;enable-background:accumulate;stop-color:#000000"
     d="M 14.1,22 H 13 c -0.13683,-0.533988 -0.348956,-1.045785 -0.63,-1.52 l 0.8,-0.8 c 0.140068,-0.137238 0.140068,-0.362762 0,-0.5 l -1.49,-1.49 c -0.138136,-0.128306 -0.351864,-0.128306 -0.49,0 l -0.81,0.8 C 9.9199142,18.213865 9.4210393,18.008248 8.9,17.88 V 17.83 16.7 C 8.8945839,16.505093 8.7349818,16.349925 8.54,16.35 H 6.36 C 6.1650182,16.349925 6.0054161,16.505093 6,16.7 v 1.13 c -0.5325209,0.141197 -1.0437321,0.353081 -1.52,0.63 l -0.8,-0.8 c -0.1414536,-0.129648 -0.3585464,-0.129648 -0.5,0 L 1.7,19.15 c -0.1296485,0.141454 -0.1296485,0.358546 0,0.5 l 0.81,0.8 c -0.2817979,0.461962 -0.4909066,0.964497 -0.62,1.49 v 0 H 0.74 c -0.19108788,0.0052 -0.34476179,0.158912 -0.35,0.35 v 2.11 c 0,0.1933 0.15670034,0.35 0.35,0.35 h 1.13 c 0.1402282,0.534434 0.3557172,1.04622 0.64,1.52 l -0.81,0.8 c -0.1296485,0.141454 -0.1296485,0.358546 0,0.5 l 1.49,1.49 c 0.1414536,0.129648 0.3585464,0.129648 0.5,0 l 0.8,-0.8 c 0.468549,0.2899 0.9773835,0.508934 1.51,0.65 v 0 1.1 c 0.00494,0.19291 0.1573053,0.349632 0.35,0.36 h 2.12 c 0.1966087,-0.0052 0.3547543,-0.163391 0.36,-0.36 v -1.09 c 0.5314164,-0.135079 1.0401591,-0.347336 1.51,-0.63 l 0.81,0.8 c 0.138136,0.128306 0.351864,0.128306 0.49,0 l 1.49,-1.49 c 0.140068,-0.137238 0.140068,-0.362762 0,-0.5 l -0.8,-0.8 c 0.295105,-0.457589 0.520883,-0.956322 0.67,-1.48 v 0 h 1.1 c 0.191088,-0.0052 0.344762,-0.158912 0.35,-0.35 V 22.32 C 14.426012,22.142759 14.278675,22.008052 14.1,22 Z"
     id="path78" />
  <path
     style="color:#000000;font-style:normal;font-variant:normal;font-weight:normal;font-stretch:normal;font-size:medium;line-height:normal;font-family:sans-serif;font-variant-ligatures:normal;font-variant-position:normal;font-variant-caps:normal;font-variant-numeric:normal;font-variant-alternates:normal;font-variant-east-asian:normal;font-feature-settings:normal;font-variation-settings:normal;text-indent:0;text-align:start;text-decoration:none;text-decoration-line:none;text-decoration-style:solid;text-decoration-color:#000000;letter-spacing:normal;word-spacing:normal;text-transform:none;writing-mode:lr-tb;direction:ltr;text-orientation:mixed;dominant-baseline:auto;baseline-shift:baseline;text-anchor:start;white-space:normal;shape-padding:0;shape-margin:0;inline-size:0;clip-rule:nonzero;display:inline;overflow:visible;visibility:visible;isolation:auto;mix-blend-mode:normal;color-interpolation:sRGB;color-interpolation-filters:linearRGB;solid-color:#000000;solid-opacity:1;vector-effect:none;fill:#0d4252;fill-opacity:1;fill-rule:evenodd;stroke:none;stroke-width:0.78px;stroke-linecap:butt;stroke-linejoin:miter;stroke-miterlimit:10;stroke-dasharray:none;stroke-dashoffset:0;stroke-opacity:1;color-rendering:auto;image-rendering:auto;shape-rendering:auto;text-rendering:auto;enable-background:accumulate;stop-color:#000000"
     d="m 6.359375,15.960938 c -0.4019747,-1.56e-4 -0.7388341,0.326696 -0.75,0.728515 v 0.0059 0.878907 c -0.3567551,0.11321 -0.7028881,0.255362 -1.0351562,0.427693 l -0.625,-0.623047 -0.00586,-0.0059 c -0.2879789,-0.263946 -0.7393649,-0.263946 -1.0273438,0 l -0.00586,0.0059 -1.4921874,1.501953 -0.00586,0.0059 c -0.2639455,0.287979 -0.2639455,0.739365 0,1.027343 l 0.00781,0.0059 0.6328125,0.625 C 1.8811812,20.866257 1.7416465,21.202549 1.6347656,21.550781 H 0.734375 0.72851562 C 0.33429513,21.561588 0.01080659,21.885076 0,22.279297 v 0.0059 2.115235 c 0,0.404071 0.33616308,0.740234 0.74023438,0.740234 H 1.6152344 c 0.1137696,0.358095 0.2591444,0.703413 0.4355468,1.035156 l -0.6308593,0.623047 -0.00781,0.0078 c -0.2639455,0.287979 -0.2639455,0.739364 0,1.027343 l 0.00586,0.0059 1.5019531,1.501953 0.00586,0.0059 c 0.287979,0.263946 0.7393649,0.263946 1.0273438,0 l 0.00586,-0.0059 0.6230468,-0.623047 c 0.3286214,0.179452 0.6709996,0.328379 1.0273438,0.443359 v 0.853516 0.0039 c 0.010049,0.392668 0.3265215,0.719131 0.71875,0.740235 h 0.011719 2.1347656 0.00586 c 0.3999471,-0.01067 0.7295634,-0.340288 0.7402343,-0.740235 v -0.0039 -0.839844 c 0.3553918,-0.110873 0.698585,-0.253046 1.0273437,-0.427734 l 0.632812,0.623047 0.0039,0.0039 c 0.28511,0.264821 0.736374,0.264821 1.021484,0 l 0.0039,-0.0039 1.492188,-1.492188 c 0.292628,-0.286716 0.292628,-0.769924 0,-1.05664 l -0.609375,-0.611328 c 0.181564,-0.319518 0.333918,-0.652342 0.453125,-1 h 0.859375 l 0.0059,-0.002 c 0.394221,-0.01081 0.717709,-0.334295 0.728516,-0.728515 v -0.0059 -2.18164 l -0.0039,-0.02539 c -0.04893,-0.361541 -0.354283,-0.639825 -0.71875,-0.65625 l -0.0078,-0.002 h -0.0098 -0.84375 C 13.1442,21.251231 13.00061,20.906342 12.826172,20.574219 l 0.617187,-0.615235 v -0.002 c 0.291008,-0.286912 0.292088,-0.768501 0,-1.054687 l -1.492187,-1.494141 -0.0059,-0.0039 c -0.285109,-0.264821 -0.736374,-0.264821 -1.021484,0 l -0.0039,0.0039 -0.634766,0.626953 C 9.9657429,17.866873 9.6342883,17.728703 9.2890625,17.623047 v -0.927735 -0.0059 c -0.011166,-0.401819 -0.3480253,-0.728671 -0.75,-0.728515 z m 0.03125,0.779296 h 2.1191406 v 1.089844 0.355469 l 0.296875,0.07227 c 0.4831997,0.118934 0.9463741,0.310326 1.3730474,0.566407 l 0.259765,0.15625 0.996094,-0.984375 1.433594,1.433594 -0.988282,0.988281 0.154297,0.261719 c 0.262179,0.442383 0.460246,0.919824 0.587891,1.417968 l 0.07422,0.292969 h 1.363281 v 2.039063 h -1.35547 L 12.625,24.712891 c -0.138582,0.48668 -0.348791,0.94974 -0.623047,1.375 l -0.169922,0.265625 0.996094,0.996093 -1.433594,1.433594 -0.996093,-0.984375 -0.259766,0.15625 C 9.7014928,28.218093 9.2288491,28.41728 8.734375,28.542969 l -0.2949219,0.07422 V 29.98047 H 6.390625 V 28.609375 L 6.0996094,28.533203 C 5.6041511,28.401979 5.131173,28.197409 4.6953125,27.927734 l -0.2636719,-0.162109 -0.9921875,0.994141 -1.4375,-1.439454 1,-0.988281 L 2.84375,26.070312 C 2.5784839,25.628226 2.3788947,25.149074 2.2480469,24.650391 L 2.1699219,24.359375 H 0.77929688 V 22.330078 H 2.1953125 l 0.074219,-0.296875 C 2.3890897,21.546514 2.582766,21.080184 2.84375,20.652344 l 0.1601562,-0.263672 -1.0019531,-0.988281 1.4296875,-1.4375 0.984375,0.984375 0.2597656,-0.150391 c 0.4461641,-0.259416 0.9249667,-0.457571 1.4238282,-0.589844 l 0.2910156,-0.07617 z"
     id="path80" />
  <g
     id="g96"
     style="opacity:1">
    <path
       style="color:#000000;font-style:normal;font-variant:normal;font-weight:normal;font-stretch:normal;font-size:medium;line-height:normal;font-family:sans-serif;font-variant-ligatures:normal;font-variant-position:normal;font-variant-caps:normal;font-variant-numeric:normal;font-variant-alternates:normal;font-variant-east-asian:normal;font-feature-settings:normal;font-variation-settings:normal;text-indent:0;text-align:start;text-decoration:none;text-decoration-line:none;text-decoration-style:solid;text-decoration-color:#000000;letter-spacing:normal;word-spacing:normal;text-transform:none;writing-mode:lr-tb;direction:ltr;text-orientation:mixed;dominant-baseline:auto;baseline-shift:baseline;text-anchor:start;white-space:normal;shape-padding:0;shape-margin:0;inline-size:0;clip-rule:nonzero;display:inline;overflow:visible;visibility:visible;isolation:auto;mix-blend-mode:normal;color-interpolation:sRGB;color-interpolation-filters:linearRGB;solid-color:#000000;solid-opacity:1;vector-effect:none;fill:#ffffff;fill-opacity:1;fill-rule:evenodd;stroke:none;stroke-width:0.78px;stroke-linecap:butt;stroke-linejoin:miter;stroke-miterlimit:10;stroke-dasharray:none;stroke-dashoffset:0;stroke-opacity:1.0;color-rendering:auto;image-rendering:auto;shape-rendering:auto;text-rendering:auto;enable-background:accumulate;stop-color:#000000;stop-opacity:1;"
       d="M 7.42,27.11 C 4.082975,27.118911 2.4062192,23.084921 4.7655701,20.72557 7.124921,18.366219 11.158911,20.042975 11.15,23.38 c 0,2.060022 -1.6699779,3.73 -3.73,3.73 z"
       id="path98" />
    <path
       style="color:#000000;font-style:normal;font-variant:normal;font-weight:normal;font-stretch:normal;font-size:medium;line-height:normal;font-family:sans-serif;font-variant-ligatures:normal;font-variant-position:normal;font-variant-caps:normal;font-variant-numeric:normal;font-variant-alternates:normal;font-variant-east-asian:normal;font-feature-settings:normal;font-variation-settings:normal;text-indent:0;text-align:start;text-decoration:none;text-decoration-line:none;text-decoration-style:solid;text-decoration-color:#000000;letter-spacing:normal;word-spacing:normal;text-transform:none;writing-mode:lr-tb;direction:ltr;text-orientation:mixed;dominant-baseline:auto;baseline-shift:baseline;text-anchor:start;white-space:normal;shape-padding:0;shape-margin:0;inline-size:0;clip-rule:nonzero;display:inline;overflow:visible;visibility:visible;isolation:auto;mix-blend-mode:normal;color-interpolation:sRGB;color-interpolation-filters:linearRGB;solid-color:#000000;solid-opacity:1;vector-effect:none;fill:#0d4252;fill-opacity:1;fill-rule:evenodd;stroke:none;stroke-width:0.78px;stroke-linecap:butt;stroke-linejoin:miter;stroke-miterlimit:10;stroke-dasharray:none;stroke-dashoffset:0;stroke-opacity:1.0;color-rendering:auto;image-rendering:auto;shape-rendering:auto;text-rendering:auto;enable-background:accumulate;stop-color:#000000;stop-opacity:1;"
       d="M 6.6894531 19.294922 C 5.9035662 19.431371 5.1356969 19.803756 4.4902344 20.449219 C 3.1993093 21.740144 2.9997339 23.521508 3.5957031 24.955078 C 4.1916724 26.388648 5.5960382 27.504875 7.421875 27.5 C 9.6917567 27.498917 11.539062 25.650988 11.539062 23.380859 C 11.543938 21.555023 10.429664 20.15261 8.9960938 19.556641 C 8.2793088 19.258656 7.4753401 19.158473 6.6894531 19.294922 z M 6.8300781 20.056641 C 7.4638532 19.948196 8.109795 20.03393 8.6953125 20.277344 C 9.8663475 20.764171 10.763801 21.867718 10.759766 23.378906 L 10.759766 23.380859 C 10.759766 25.23011 9.2691724 26.720703 7.4199219 26.720703 C 5.9087337 26.724738 4.8032334 25.827285 4.3164062 24.65625 C 3.8295791 23.485215 3.9725898 22.070379 5.0410156 21.001953 C 5.5752285 20.46774 6.196303 20.165085 6.8300781 20.056641 z "
       id="path100" />
  </g>
</svg>
