<svg xmlns="http://www.w3.org/2000/svg" viewBox="0 0 40.41 24.05"><defs><style>.cls-1{fill:#b8c9d9;}.Outline-Ende-Rund-10,.cls-2{fill:none;}.Outline-Ende-Rund-10,.cls-2,.cls-3{stroke:#1d1d1b;stroke-width:0.82px;}.cls-2{stroke-miterlimit:3.86;}.cls-3{fill:#fff;}.Outline-Ende-Rund-10,.cls-3{stroke-linecap:round;stroke-miterlimit:10;}</style></defs><title>Database_Schema</title><g id="Ebene_2" data-name="Ebene 2"><g id="Ebene_1-2" data-name="Ebene 1"><path class="cls-1" d="M20.2.41c-4.46,0-8.07,1.2-8.07,2.69V21c0,1.48,3.61,2.69,8.07,2.69s8.07-1.21,8.07-2.69V3.1C28.27,1.61,24.65.41,20.2.41Z"/><path class="cls-2" d="M12.13,3.1V21c0,1.48,3.61,2.69,8.07,2.69s8.07-1.21,8.07-2.69V3.1"/><ellipse class="cls-2" cx="20.2" cy="3.1" rx="8.07" ry="2.69"/><rect class="cls-3" x="0.41" y="11.6" width="8.45" height="4.94"/><rect class="cls-3" x="31.55" y="11.6" width="8.45" height="4.94"/><polygon class="cls-3" points="24.99 14.07 19.97 17.18 14.94 14.07 19.97 10.95 24.99 14.07"/><line class="Outline-Ende-Rund-10" x1="9.14" y1="14.07" x2="15.22" y2="14.07"/><line class="Outline-Ende-Rund-10" x1="24.99" y1="14.07" x2="31.55" y2="14.07"/></g></g></svg>