<svg xmlns="http://www.w3.org/2000/svg" viewBox="0 0 18.65 26.49"><defs><style>.cls-1{fill:#b8c9d9;stroke-miterlimit:3.86;}.cls-1,.cls-2,.cls-3,.cls-4{stroke:#1d1d1b;stroke-width:0.82px;}.cls-2{fill:none;}.cls-2,.cls-3,.cls-4{stroke-miterlimit:10;}.cls-3{fill:#fff;}.cls-4{fill:#e94e1b;}</style></defs><title>Data_Structure_2</title><g id="Ebene_2" data-name="Ebene 2"><g id="Ebene_1-2" data-name="Ebene 1"><path class="cls-1" d="M9.33.41C4.4.41.41,1.74.41,3.38V23.11c0,1.64,4,3,8.92,3s8.91-1.33,8.91-3V3.38C18.24,1.74,14.25.41,9.33.41Z"/><path class="cls-1" d="M18.24,3.38c0,1.64-4,3-8.91,3S.41,5,.41,3.38s4-3,8.92-3S18.24,1.74,18.24,3.38Z"/><polyline class="cls-2" points="12.3 13.52 9.32 13.52 9.32 9.85 6.45 9.85"/><polyline class="cls-2" points="12.3 22.21 9.32 22.21 9.32 9.85 6.45 9.85"/><line class="cls-2" x1="12.3" y1="17.87" x2="9.32" y2="17.87"/><rect class="cls-3" x="12.2" y="12.11" width="2.81" height="2.81" rx="0.66" ry="0.66"/><rect class="cls-4" x="3.63" y="8.45" width="2.81" height="2.81" rx="0.66" ry="0.66"/><rect class="cls-3" x="12.2" y="16.46" width="2.81" height="2.81" rx="0.66" ry="0.66"/><rect class="cls-3" x="12.2" y="20.8" width="2.81" height="2.81" rx="0.66" ry="0.66"/></g></g></svg>