<svg xmlns="http://www.w3.org/2000/svg" viewBox="0 0 27.19 23.69"><defs><style>.cls-1,.cls-4{fill:#b8c9d9;}.cls-1,.cls-2,.cls-3{stroke:#1d1d1b;}.cls-1,.cls-2,.cls-3,.cls-4{stroke-miterlimit:3.86;stroke-width:0.82px;}.cls-2{fill:none;}.cls-3{fill:#e3edfa;}.cls-4{stroke:#e94e1b;}</style></defs><title>Data_Center</title><g id="Ebene_2" data-name="Ebene 2"><g id="Ebene_1-2" data-name="Ebene 1"><path class="cls-1" d="M21.18.41c-3.1,0-5.61.83-5.61,1.87V15c0,1,2.51,1.87,5.61,1.87S26.79,16,26.79,15V2.28C26.79,1.24,24.28.41,21.18.41Z"/><path class="cls-2" d="M15.57,2.28c0,1,2.51,1.87,5.61,1.87s5.61-.84,5.61-1.87"/><path class="cls-1" d="M6,.41C2.92.41.41,1.24.41,2.28V15c0,1,2.51,1.87,5.6,1.87S11.62,16,11.62,15V2.28C11.62,1.24,9.11.41,6,.41Z"/><path class="cls-2" d="M.41,2.28c0,1,2.51,1.87,5.6,1.87s5.61-.84,5.61-1.87"/><path class="cls-1" d="M13.6,1C10.5,1,8,1.85,8,2.88v12.7c0,1,2.51,1.87,5.61,1.87s5.6-.83,5.6-1.87V2.88C19.2,1.85,16.69,1,13.6,1Z"/><path class="cls-2" d="M8,2.88c0,1,2.51,1.87,5.61,1.87s5.6-.83,5.6-1.87"/><rect class="cls-3" x="3.83" y="6.52" width="6.84" height="14.11" rx="0.79" ry="0.79"/><line class="cls-1" x1="5.26" y1="8.8" x2="9.24" y2="8.8"/><line class="cls-1" x1="5.26" y1="10.74" x2="9.24" y2="10.74"/><line class="cls-4" x1="5.26" y1="13.58" x2="6.11" y2="13.58"/><rect class="cls-3" x="16.52" y="6.52" width="6.84" height="14.11" rx="0.79" ry="0.79"/><line class="cls-1" x1="17.95" y1="8.8" x2="21.94" y2="8.8"/><line class="cls-1" x1="17.95" y1="10.74" x2="21.94" y2="10.74"/><line class="cls-4" x1="17.95" y1="13.58" x2="18.8" y2="13.58"/><polyline class="cls-2" points="7.25 20.63 7.25 23.28 19.94 23.28 19.94 20.63"/></g></g></svg>