<svg xmlns="http://www.w3.org/2000/svg" viewBox="0 0 30.06 21.61"><defs><style>.cls-1{fill:#fff;}.cls-1,.cls-2,.cls-3{stroke:#1d1d1b;stroke-miterlimit:10;stroke-width:0.82px;}.cls-2{fill:none;}.cls-3{fill:#d9e5ec;stroke-linecap:round;}</style></defs><title>Data_Structure</title><g id="Ebene_2" data-name="Ebene 2"><g id="Ebene_1-2" data-name="Ebene 1"><line class="cls-1" x1="13.75" y1="14.65" x2="13.75" y2="9.83"/><polyline class="cls-2" points="23.97 14.65 23.97 12.71 3.4 12.71 3.4 14.65"/><path class="cls-3" d="M12.59,1.06h0a.65.65,0,0,0-.65-.65H8.11a.65.65,0,0,0-.65.65V9.18a.65.65,0,0,0,.65.65H19.39A.65.65,0,0,0,20,9.18V2.35a.65.65,0,0,0-.65-.65H13.23A.64.64,0,0,1,12.59,1.06Z"/><path class="cls-3" d="M4,15.1H4a.45.45,0,0,0-.45-.45H.86a.45.45,0,0,0-.45.45v5.65a.46.46,0,0,0,.45.46H8.71a.46.46,0,0,0,.45-.46V16a.45.45,0,0,0-.45-.45H4.42A.45.45,0,0,1,4,15.1Z"/><path class="cls-3" d="M14.22,15.1h0a.45.45,0,0,0-.45-.45H11.11a.45.45,0,0,0-.45.45v5.65a.46.46,0,0,0,.45.46H19a.46.46,0,0,0,.45-.46V16a.45.45,0,0,0-.45-.45H14.67A.45.45,0,0,1,14.22,15.1Z"/><path class="cls-3" d="M24.47,15.1h0a.45.45,0,0,0-.45-.45H21.35a.45.45,0,0,0-.45.45v5.65a.46.46,0,0,0,.45.46h7.86a.46.46,0,0,0,.45-.46V16a.45.45,0,0,0-.45-.45H24.92A.45.45,0,0,1,24.47,15.1Z"/></g></g></svg>