<svg xmlns="http://www.w3.org/2000/svg" viewBox="0 0 27.32 25.32"><defs><style>.cls-1{fill:#d9e5ec;}.cls-2{fill:#c4c4c4;}.cls-3{fill:#fff;}.cls-4,.cls-5,.cls-6,.cls-7{fill:none;stroke:#1d1d1b;}.cls-4,.cls-5{stroke-linejoin:round;}.cls-4{stroke-width:0.82px;}.cls-5{stroke-width:0.84px;}.cls-6,.cls-7{stroke-miterlimit:10;stroke-width:0.82px;}.cls-7{stroke-linecap:round;}</style></defs><title>Distributed_Ledger_2</title><g id="Ebene_2" data-name="Ebene 2"><g id="Ebene_1-2" data-name="Ebene 1"><rect class="cls-1" x="0.41" y="6.46" width="26.5" height="18.45"/><path class="cls-2" d="M26.91.41V6.46H.41v-6ZM25,4.52V2.41H6.77V4.52Zm-20,0V2.41H2.28V4.52Z"/><rect class="cls-3" x="6.77" y="2.41" width="18.2" height="2.11"/><rect class="cls-2" x="2.28" y="2.41" width="2.71" height="2.11"/><polygon class="cls-4" points="26.91 6.46 26.91 24.91 0.41 24.91 0.41 6.46 0.41 0.41 26.91 0.41 26.91 6.46"/><line class="cls-4" x1="26.91" y1="6.46" x2="0.41" y2="6.46"/><rect class="cls-5" x="2.28" y="2.41" width="2.71" height="2.11"/><rect class="cls-6" x="8.89" y="8.6" width="4.45" height="2.65" rx="1.33" ry="1.33" transform="translate(-3.15 5.63) rotate(-25)"/><line class="cls-7" x1="19.01" y1="13.36" x2="12.1" y2="9.43"/><rect class="cls-6" x="17.15" y="13.08" width="4.45" height="2.65" rx="1.33" ry="1.33" transform="translate(26.11 -8.78) rotate(69.59)"/><line class="cls-7" x1="16.37" y1="20.82" x2="19.78" y2="15.43"/><rect class="cls-6" x="6.15" y="16.37" width="4.45" height="2.65" rx="1.33" ry="1.33" transform="translate(20.57 2.39) rotate(63.86)"/><line class="cls-7" x1="7.91" y1="16.69" x2="10.1" y2="10.37"/><rect class="cls-6" x="13.11" y="19.88" width="4.45" height="2.65" rx="1.33" ry="1.33" transform="translate(-6.04 6.12) rotate(-18.91)"/><line class="cls-7" x1="14.28" y1="21.54" x2="8.88" y2="18.68"/><line class="cls-7" x1="11.68" y1="11.05" x2="14.81" y2="19.91"/><line class="cls-7" x1="17.99" y1="14.66" x2="9.49" y2="16.98"/></g></g></svg>