<svg xmlns="http://www.w3.org/2000/svg" viewBox="0 0 27.32 25.32"><defs><style>.cls-1{fill:#d9e5ec;}.cls-2{fill:#c4c4c4;}.cls-3{fill:#fff;}.Linie,.cls-4,.cls-5{fill:none;stroke:#1d1d1b;}.cls-4,.cls-5{stroke-linejoin:round;}.cls-4{stroke-width:0.82px;}.cls-5{stroke-width:0.84px;}.cls-6{fill:#1d1d1b;}.Linie{stroke-miterlimit:10;stroke-width:0.82px;}</style></defs><title>Distributed_Ledger_1</title><g id="Ebene_2" data-name="Ebene 2"><g id="Ebene_1-2" data-name="Ebene 1"><rect class="cls-1" x="0.41" y="6.46" width="26.5" height="18.45"/><path class="cls-2" d="M26.91.41V6.46H.41v-6ZM25,4.52V2.41H6.77V4.52Zm-20,0V2.41H2.28V4.52Z"/><rect class="cls-3" x="6.77" y="2.41" width="18.2" height="2.11"/><rect class="cls-2" x="2.28" y="2.41" width="2.71" height="2.11"/><polygon class="cls-4" points="26.91 6.46 26.91 24.91 0.41 24.91 0.41 6.46 0.41 0.41 26.91 0.41 26.91 6.46"/><line class="cls-4" x1="26.91" y1="6.46" x2="0.41" y2="6.46"/><rect class="cls-5" x="2.28" y="2.41" width="2.71" height="2.11"/><circle class="cls-6" cx="9.32" cy="16.68" r="1.16"/><circle class="cls-6" cx="19.76" cy="15.55" r="1.16"/><circle class="cls-6" cx="11.91" cy="9.94" r="1.16"/><circle class="cls-6" cx="14.98" cy="21.14" r="1.16"/><line class="Linie" x1="19.76" y1="15.55" x2="9.32" y2="16.68"/><line class="Linie" x1="14.98" y1="21.14" x2="9.32" y2="16.68"/><line class="Linie" x1="14.98" y1="21.14" x2="19.76" y2="15.55"/><line class="Linie" x1="19.76" y1="15.55" x2="11.91" y2="9.94"/><line class="Linie" x1="14.98" y1="21.14" x2="11.91" y2="9.94"/><line class="Linie" x1="9.32" y1="16.68" x2="11.91" y2="9.94"/></g></g></svg>