<svg xmlns="http://www.w3.org/2000/svg" viewBox="0 0 10.98 10.98"><defs><style>.cls-1{fill:none;}.cls-1,.cls-3{stroke:#1d1d1b;stroke-miterlimit:10;stroke-width:0.82px;}.cls-2{fill:#1d1d1b;}.cls-3{fill:#fff;}</style></defs><title>Embedded</title><g id="Ebene_2" data-name="Ebene 2"><g id="Ebene_1-2" data-name="Ebene 1"><line class="cls-1" x1="8.09" y1="3.59" x2="10.4" y2="3.59"/><circle class="cls-2" cx="10.4" cy="3.59" r="0.57"/><line class="cls-1" x1="8.09" y1="5.49" x2="9.65" y2="5.49"/><circle class="cls-2" cx="9.65" cy="5.49" r="0.57"/><line class="cls-1" x1="8.09" y1="7.39" x2="10.4" y2="7.39"/><circle class="cls-2" cx="10.4" cy="7.39" r="0.57"/><line class="cls-1" x1="2.97" y1="7.39" x2="0.57" y2="7.39"/><circle class="cls-2" cx="0.57" cy="7.39" r="0.57"/><line class="cls-1" x1="3.01" y1="5.49" x2="1.32" y2="5.49"/><circle class="cls-2" cx="1.32" cy="5.49" r="0.57"/><line class="cls-1" x1="2.97" y1="3.59" x2="0.57" y2="3.59"/><circle class="cls-2" cx="0.57" cy="3.59" r="0.57"/><line class="cls-1" x1="3.59" y1="2.93" x2="3.59" y2="0.57"/><circle class="cls-2" cx="3.59" cy="0.57" r="0.57"/><line class="cls-1" x1="5.49" y1="2.93" x2="5.49" y2="1.32"/><circle class="cls-2" cx="5.49" cy="1.32" r="0.57"/><line class="cls-1" x1="7.39" y1="2.93" x2="7.39" y2="0.57"/><circle class="cls-2" cx="7.39" cy="0.57" r="0.57"/><line class="cls-1" x1="7.39" y1="8.05" x2="7.39" y2="10.4"/><circle class="cls-2" cx="7.39" cy="10.4" r="0.57"/><line class="cls-1" x1="5.49" y1="8.05" x2="5.49" y2="9.65"/><circle class="cls-2" cx="5.49" cy="9.65" r="0.57"/><line class="cls-1" x1="3.59" y1="8.05" x2="3.59" y2="10.4"/><circle class="cls-2" cx="3.59" cy="10.4" r="0.57"/><rect class="cls-3" x="2.97" y="2.93" width="5.13" height="5.13" rx="0.57" ry="0.57"/><rect class="cls-2" x="3.87" y="3.83" width="3.31" height="3.31" rx="0.57" ry="0.57"/></g></g></svg>