<svg xmlns="http://www.w3.org/2000/svg" viewBox="0 0 23.71 26.27"><defs><style>.cls-1,.cls-4{fill:#fff;}.cls-1,.cls-3,.cls-4{stroke:#1d1d1b;}.cls-1{stroke-miterlimit:10;}.cls-1,.cls-3{stroke-width:0.82px;}.cls-2,.cls-3{fill:#b8c9d9;}.cls-3{stroke-linejoin:round;}.cls-4{stroke-miterlimit:3.86;stroke-width:0.82px;}.cls-5{fill:#1d1d1b;}</style></defs><title>Executable_File</title><g id="Ebene_2" data-name="Ebene 2"><g id="Ebene_1-2" data-name="Ebene 1"><polygon class="cls-1" points="12.76 0.41 0.41 0.41 0.41 25.86 17.59 25.86 17.59 5.25 12.76 0.41"/><polygon class="cls-2" points="12.71 0.41 17.67 5.36 12.71 5.36 12.71 0.41"/><polygon class="cls-3" points="12.64 0.41 17.59 5.36 12.64 5.36 12.64 0.41"/><path class="cls-4" d="M23.3,19.92a2.4,2.4,0,0,1-2.49,2.29H9.43a2.4,2.4,0,0,1-2.49-2.29v-8a2.4,2.4,0,0,1,2.49-2.3H20.81a2.4,2.4,0,0,1,2.49,2.3Z"/><path class="cls-5" d="M12.77,14.13h-2v1.32h1.88v.92H10.77v1.5h2.08v.92H9.65V13.21h3.12Z"/><path class="cls-5" d="M14.42,13.21,15.14,15l.71-1.81h1.23L15.78,16l1.39,2.82H15.9l-.8-1.89-.8,1.89H13.06L14.46,16l-1.29-2.76Z"/><path class="cls-5" d="M20.73,14.13h-2v1.32h1.88v.92H18.73v1.5h2.08v.92h-3.2V13.21h3.12Z"/></g></g></svg>