<svg xmlns="http://www.w3.org/2000/svg" viewBox="0 0 22.61 21.36"><defs><style>.cls-1{fill:#d6e7f1;}.Outline-Ende-Rund-4,.cls-1,.cls-2{stroke:#1d1d1b;}.cls-1,.cls-2{stroke-linejoin:round;stroke-width:0.82px;}.cls-2{fill:#fff;}.cls-3{fill:#a1b505;}.Outline-Ende-Rund-4{fill:none;stroke-linecap:round;stroke-miterlimit:10;stroke-width:0.82px;}</style></defs><title>External_Storage</title><g id="Ebene_2" data-name="Ebene 2"><g id="Ebene_1-2" data-name="Ebene 1"><path class="cls-1" d="M9.71,21h10.6a1.89,1.89,0,0,0,1.89-1.88L21.27,1.79A1.45,1.45,0,0,0,19.82.41H10.2A1.45,1.45,0,0,0,8.75,1.79L7.82,19.07A1.88,1.88,0,0,0,9.71,21Z"/><rect class="cls-2" x="7.82" y="17.18" width="14.38" height="3.77" rx="1.89" ry="1.89"/><rect class="cls-3" x="9.64" y="18.18" width="1.94" height="1.51" rx="0.33" ry="0.33"/><rect class="Outline-Ende-Rund-4" x="1.4" y="1.98" width="3.52" height="2.71"/><path class="cls-1" d="M.41,4.65H5.91a0,0,0,0,1,0,0v8.58a1.84,1.84,0,0,1-1.84,1.84H2.25A1.84,1.84,0,0,1,.41,13.24V4.65A0,0,0,0,1,.41,4.65Z"/></g></g></svg>