<svg xmlns="http://www.w3.org/2000/svg" viewBox="0 0 22.67 32.6"><defs><style>.cls-1{fill:#fff7cc;stroke-linejoin:round;}.cls-1,.cls-2,.cls-4{stroke:#1d1d1b;}.cls-1,.cls-2{stroke-width:0.82px;}.cls-2{fill:none;stroke-linecap:round;}.cls-2,.cls-4{stroke-miterlimit:10;}.cls-3,.cls-4{fill:#1d1d1b;}.cls-4{stroke-width:0.2px;}</style></defs><title>Extraction_process_Automated</title><g id="Ebene_2" data-name="Ebene 2"><g id="Ebene_1-2" data-name="Ebene 1"><polygon class="cls-1" points="22.26 14.7 22.26 14.7 5.46 14.7 0.41 17.24 0.41 17.24 0.41 17.24 0.41 17.24 0.41 32.19 0.41 32.19 0.41 32.19 17.21 32.19 17.21 32.19 22.26 28.65 22.26 14.7 22.26 14.7"/><line class="cls-1" x1="22.26" y1="14.7" x2="17.21" y2="17.24"/><line class="cls-1" x1="17.21" y1="32.19" x2="17.21" y2="17.24"/><line class="cls-1" x1="17.21" y1="17.24" x2="0.41" y2="17.24"/><line class="cls-2" x1="7.66" y1="17.24" x2="7.66" y2="9.07"/><polygon class="cls-3" points="9.32 10.2 7.66 4.01 6 10.2 9.32 10.2"/><line class="cls-2" x1="11.34" y1="15.81" x2="11.34" y2="5.06"/><polygon class="cls-3" points="12.99 6.19 11.34 0 9.68 6.19 12.99 6.19"/><line class="cls-2" x1="15.01" y1="17.24" x2="15.01" y2="11.48"/><polygon class="cls-3" points="16.67 12.61 15.01 6.42 13.35 12.61 16.67 12.61"/><path class="cls-4" d="M6,26.42a3.79,3.79,0,0,1-.28-2.81l.66.69.84-2.93-3,.74.53.54a4.76,4.76,0,0,0-.17,4.43A4.81,4.81,0,0,0,11,29.35L10.34,28A3.28,3.28,0,0,1,6,26.42Z"/><path class="cls-4" d="M14,22.35a4.81,4.81,0,0,0-6.4-2.27l.66,1.38A3.27,3.27,0,0,1,12.58,23a4.08,4.08,0,0,1,.29,2.92l-.67-.8-.84,2.93,3-.74-.52-.54A4.79,4.79,0,0,0,14,22.35Z"/></g></g></svg>