<svg xmlns="http://www.w3.org/2000/svg" viewBox="0 0 39.62 33.15"><defs><style>.cls-1{fill:#d9e5ec;}.cls-2{fill:#c4c4c4;}.cls-3,.cls-8{fill:#fff;}.cls-4,.cls-5,.cls-6,.cls-9{fill:none;}.cls-10,.cls-4,.cls-5,.cls-6,.cls-7,.cls-8,.cls-9{stroke:#1d1d1b;}.cls-10,.cls-4,.cls-5,.cls-7{stroke-linejoin:round;}.cls-10,.cls-4{stroke-width:0.82px;}.cls-5{stroke-width:0.84px;}.cls-6,.cls-7{stroke-linecap:round;}.cls-6,.cls-8,.cls-9{stroke-miterlimit:10;}.cls-7{fill:#1d1d1b;stroke-width:0.8px;}.cls-8,.cls-9{stroke-width:0.82px;}.cls-10{fill:#b8c9d9;}</style></defs><title>File_System</title><g id="Ebene_2" data-name="Ebene 2"><g id="Ebene_1-2" data-name="Ebene 1"><rect class="cls-1" x="12.72" y="6.46" width="26.5" height="18.45"/><path class="cls-2" d="M39.22.41V6.46H12.72v-6ZM37.28,4.52V2.41H19.08V4.52Zm-20,0V2.41H14.59V4.52Z"/><rect class="cls-3" x="19.08" y="2.41" width="18.2" height="2.11"/><rect class="cls-2" x="14.59" y="2.41" width="2.71" height="2.11"/><polygon class="cls-4" points="39.22 6.46 39.22 24.91 12.72 24.91 12.72 6.46 12.72 0.41 39.22 0.41 39.22 6.46"/><line class="cls-4" x1="39.22" y1="6.46" x2="12.72" y2="6.46"/><rect class="cls-5" x="14.59" y="2.41" width="2.71" height="2.11"/><line class="cls-6" x1="35.14" y1="19.38" x2="31.37" y2="15.61"/><polygon class="cls-7" points="28.38 12.62 30.39 17.01 32.76 14.64 28.38 12.62"/><line class="cls-8" x1="12.71" y1="26.7" x2="12.71" y2="22.26"/><polyline class="cls-9" points="22.14 26.7 22.14 24.91 3.17 24.91 3.17 26.7"/><path class="cls-10" d="M11.64,14.16h0a.59.59,0,0,0-.6-.59H7.51a.59.59,0,0,0-.6.59v7.5a.6.6,0,0,0,.6.6h10.4a.6.6,0,0,0,.6-.6v-6.3a.6.6,0,0,0-.6-.6H12.24A.6.6,0,0,1,11.64,14.16Z"/><path class="cls-10" d="M3.7,27.11h0a.41.41,0,0,0-.42-.41H.82a.41.41,0,0,0-.41.41v5.22a.41.41,0,0,0,.41.41H8.06a.41.41,0,0,0,.42-.41V27.94a.41.41,0,0,0-.42-.41H4.11A.41.41,0,0,1,3.7,27.11Z"/><path class="cls-10" d="M13.15,27.11h0a.41.41,0,0,0-.42-.41H10.27a.41.41,0,0,0-.41.41v5.22a.41.41,0,0,0,.41.41h7.24a.41.41,0,0,0,.42-.41V27.94a.41.41,0,0,0-.42-.41h-4A.41.41,0,0,1,13.15,27.11Z"/><path class="cls-10" d="M22.6,27.11h0a.41.41,0,0,0-.42-.41H19.72a.41.41,0,0,0-.41.41v5.22a.41.41,0,0,0,.41.41H27a.41.41,0,0,0,.42-.41V27.94a.41.41,0,0,0-.42-.41H23A.41.41,0,0,1,22.6,27.11Z"/></g></g></svg>