<svg xmlns="http://www.w3.org/2000/svg" viewBox="0 0 21.93 27.39"><defs><style>.cls-1{fill:#fff;stroke:#1d1d1b;stroke-miterlimit:10;}.cls-1,.cls-3{stroke-width:0.82px;}.cls-2{fill:#b8c9d9;}.cls-3{fill:none;stroke:#9baab7;stroke-linecap:round;stroke-linejoin:round;}</style></defs><title>File_Exchange_Format_2</title><g id="Ebene_2" data-name="Ebene 2"><g id="Ebene_1-2" data-name="Ebene 1"><polygon class="cls-1" points="8.19 0.41 2.4 0.41 2.4 14.92 12.2 14.92 12.2 4.42 8.19 0.41"/><polygon class="cls-2" points="8.06 0.85 11.77 4.56 8.06 4.56 8.06 0.85"/><polygon class="cls-1" points="16.83 12.47 11.04 12.47 11.04 26.98 20.84 26.98 20.84 16.48 16.83 12.47"/><polygon class="cls-2" points="16.7 12.92 20.41 16.62 16.7 16.62 16.7 12.92"/><path class="cls-3" d="M8.66,27H4.31A1.69,1.69,0,0,1,2.6,25.31V17.15"/><polyline class="cls-3" points="0.41 19.14 2.6 16.94 4.8 19.14"/><path class="cls-3" d="M13.27.41h4.36a1.69,1.69,0,0,1,1.7,1.67v8.33"/><polyline class="cls-3" points="21.52 8.52 19.33 10.71 17.13 8.52"/></g></g></svg>