<svg xmlns="http://www.w3.org/2000/svg" viewBox="0 0 24.22 26.73"><defs><style>.cls-1{fill:#fff;}.cls-1,.cls-3{stroke:#1d1d1b;stroke-miterlimit:10;stroke-width:0.82px;}.cls-2{fill:#b8c9d9;}.cls-3{fill:none;}</style></defs><title>File_Structure_1</title><g id="Ebene_2" data-name="Ebene 2"><g id="Ebene_1-2" data-name="Ebene 1"><polygon class="cls-1" points="12.26 0.41 7.63 0.41 7.63 12 15.46 12 15.46 3.61 12.26 0.41"/><polygon class="cls-2" points="12.11 0.8 15.07 3.77 12.11 3.77 12.11 0.8"/><polygon class="cls-1" points="3.83 17.75 0.41 17.75 0.41 26.32 6.2 26.32 6.2 20.12 3.83 17.75"/><polygon class="cls-2" points="3.62 18.12 5.81 20.31 3.62 20.31 3.62 18.12"/><polygon class="cls-1" points="12.63 17.75 9.22 17.75 9.22 26.32 15 26.32 15 20.12 12.63 17.75"/><polygon class="cls-2" points="12.43 18.12 14.62 20.31 12.43 20.31 12.43 18.12"/><polygon class="cls-1" points="21.44 17.75 18.02 17.75 18.02 26.32 23.81 26.32 23.81 20.12 21.44 17.75"/><polygon class="cls-2" points="21.24 18.12 23.43 20.31 21.24 20.31 21.24 18.12"/><line class="cls-1" x1="11.29" y1="17.76" x2="11.29" y2="12"/><polyline class="cls-3" points="19.92 17.75 19.92 14.88 2.49 14.88 2.49 17.75"/></g></g></svg>