<svg xmlns="http://www.w3.org/2000/svg" viewBox="0 0 18 26.27"><defs><style>.cls-1{fill:#fff;}.cls-1,.cls-3,.cls-4,.cls-5,.cls-6{stroke:#1d1d1b;stroke-width:0.82px;}.cls-1,.cls-4,.cls-5,.cls-6{stroke-miterlimit:10;}.cls-2,.cls-3,.cls-5{fill:#b8c9d9;}.cls-3{stroke-linejoin:round;}.cls-4{fill:none;}.cls-6{fill:#e94e1b;}</style></defs><title>File_Structure_2</title><g id="Ebene_2" data-name="Ebene 2"><g id="Ebene_1-2" data-name="Ebene 1"><polygon class="cls-1" points="12.76 0.41 0.41 0.41 0.41 25.86 17.59 25.86 17.59 5.25 12.76 0.41"/><polygon class="cls-2" points="12.71 0.41 17.67 5.36 12.71 5.36 12.71 0.41"/><polygon class="cls-3" points="12.64 0.41 17.59 5.36 12.64 5.36 12.64 0.41"/><polyline class="cls-4" points="11.97 12.14 9 12.14 9 7.62 6.12 7.62"/><polyline class="cls-4" points="11.97 20.83 9 20.83 9 7.62 6.12 7.62"/><line class="cls-4" x1="11.97" y1="16.48" x2="9" y2="16.48"/><rect class="cls-5" x="11.88" y="10.73" width="2.81" height="2.81" rx="0.66" ry="0.66"/><rect class="cls-6" x="3.31" y="6.21" width="2.81" height="2.81" rx="0.66" ry="0.66"/><rect class="cls-5" x="11.88" y="15.08" width="2.81" height="2.81" rx="0.66" ry="0.66"/><rect class="cls-5" x="11.88" y="19.42" width="2.81" height="2.81" rx="0.66" ry="0.66"/></g></g></svg>