<svg xmlns="http://www.w3.org/2000/svg" viewBox="0 0 34.35 25.82"><defs><style>.cls-1{fill:#fac495;stroke:#e94e1b;stroke-linejoin:bevel;stroke-width:0.82px;}.cls-2{fill:#d9e5ec;}.cls-3{fill:#c5c5c4;}.cls-4{fill:#fff;}.cls-5,.cls-8{fill:#1e1e1c;}.cls-6,.cls-7{fill:none;}.cls-6,.cls-7,.cls-8{stroke:#1e1e1c;}.cls-6,.cls-8{stroke-linejoin:round;}.cls-6{stroke-width:0.82px;}.cls-7,.cls-8{stroke-linecap:round;}.cls-7{stroke-miterlimit:10;}.cls-8{stroke-width:0.8px;}</style></defs><title>Firewall</title><g id="Ebene_2" data-name="Ebene 2"><g id="Ebene_1-2" data-name="Ebene 1"><rect class="cls-1" x="8.14" y="2.62" width="11.53" height="5.93"/><rect class="cls-1" x="19.67" y="2.62" width="11.49" height="5.93"/><polygon class="cls-1" points="22.45 0.41 10.92 0.41 8.14 2.62 19.67 2.62 22.45 0.41"/><polygon class="cls-1" points="33.94 0.41 22.45 0.41 19.67 2.62 31.16 2.62 33.94 0.41"/><rect class="cls-1" x="8.14" y="14.5" width="11.53" height="5.93"/><rect class="cls-1" x="19.67" y="14.5" width="11.49" height="5.93"/><rect class="cls-1" x="8.14" y="8.56" width="5.49" height="5.93"/><rect class="cls-1" x="13.63" y="8.56" width="11.49" height="5.93"/><rect class="cls-1" x="25.12" y="8.56" width="6.04" height="5.93"/><polygon class="cls-1" points="31.16 8.56 33.94 6.34 33.94 0.41 31.16 2.62 31.16 8.56"/><polygon class="cls-1" points="31.16 20.44 33.94 18.22 33.94 12.29 31.16 14.5 31.16 20.44"/><polygon class="cls-1" points="31.16 14.49 33.94 12.28 33.94 6.34 31.16 8.56 31.16 14.49"/><rect class="cls-2" x="0.41" y="14.76" width="15.3" height="10.65"/><path class="cls-3" d="M15.67,11.27v3.49H.41V11.27Zm-1.08,2.37V12.42H4.08v1.22Zm-11.54,0V12.42H1.49v1.22Z"/><rect class="cls-4" x="4.08" y="12.42" width="10.51" height="1.22"/><rect class="cls-5" x="1.49" y="12.42" width="1.56" height="1.22"/><polygon class="cls-6" points="15.71 14.76 15.71 25.41 0.41 25.41 0.41 14.76 0.41 11.27 15.71 11.27 15.71 14.76"/><line class="cls-6" x1="15.71" y1="14.76" x2="0.41" y2="14.76"/><line class="cls-7" x1="13.35" y1="22.22" x2="11.18" y2="20.04"/><polygon class="cls-8" points="9.45 18.32 10.61 20.85 11.98 19.48 9.45 18.32"/></g></g></svg>