<svg xmlns="http://www.w3.org/2000/svg" viewBox="0 0 23.71 26.27"><defs><style>.cls-1,.cls-4{fill:#fff;}.cls-1,.cls-3,.cls-4{stroke:#1d1d1b;}.cls-1{stroke-miterlimit:10;}.cls-1,.cls-3{stroke-width:0.82px;}.cls-2,.cls-3{fill:#b8c9d9;}.cls-3{stroke-linejoin:round;}.cls-4{stroke-miterlimit:3.86;stroke-width:0.82px;}.cls-5{fill:#708006;}.cls-6{fill:#1d1d1b;}</style></defs><title>Image_File_compressed</title><g id="Ebene_2" data-name="Ebene 2"><g id="Ebene_1-2" data-name="Ebene 1"><polygon class="cls-1" points="12.76 0.41 0.41 0.41 0.41 25.86 17.59 25.86 17.59 5.25 12.76 0.41"/><polygon class="cls-2" points="12.71 0.41 17.67 5.36 12.71 5.36 12.71 0.41"/><polygon class="cls-3" points="12.64 0.41 17.59 5.36 12.64 5.36 12.64 0.41"/><path class="cls-4" d="M23.3,19.84a2.4,2.4,0,0,1-2.49,2.29H9.43a2.4,2.4,0,0,1-2.49-2.29v-8A2.4,2.4,0,0,1,9.43,9.5H20.81a2.4,2.4,0,0,1,2.49,2.3Z"/><path class="cls-5" d="M9.49,13.13h1.12v5.58H9.49Z"/><path class="cls-5" d="M13.15,13.13l.79,3.94h0l.81-3.94h1.66v5.58h-1V14.26h0l-1,4.45h-.88l-1-4.45h0v4.45h-1V13.13Z"/><path class="cls-5" d="M19.68,14.47a1,1,0,0,0-.11-.3.9.9,0,0,0-.2-.23.49.49,0,0,0-.3-.09.61.61,0,0,0-.58.45,4.47,4.47,0,0,0-.18,1.5c0,.34,0,.64,0,.91a3.84,3.84,0,0,0,.11.69,1.08,1.08,0,0,0,.24.44.53.53,0,0,0,.39.15.47.47,0,0,0,.22,0,.63.63,0,0,0,.23-.17.91.91,0,0,0,.18-.27,1.19,1.19,0,0,0,.07-.4v-.57H19V15.7h1.82v3H20V18.2h0a1.13,1.13,0,0,1-.49.46,1.55,1.55,0,0,1-.68.14,1.74,1.74,0,0,1-.84-.18,1.17,1.17,0,0,1-.51-.56,3.06,3.06,0,0,1-.25-.92,12.09,12.09,0,0,1-.06-1.28,7.58,7.58,0,0,1,.09-1.24,2.34,2.34,0,0,1,.31-.88,1.43,1.43,0,0,1,.58-.54,2,2,0,0,1,.9-.18,1.69,1.69,0,0,1,1.33.46,1.9,1.9,0,0,1,.41,1.31H19.72A1.75,1.75,0,0,0,19.68,14.47Z"/><rect class="cls-6" x="3.15" y="0.54" width="1.23" height="1.23"/><rect class="cls-6" x="4.36" y="1.75" width="1.23" height="1.23"/><rect class="cls-6" x="3.15" y="2.97" width="1.23" height="1.23"/><rect class="cls-6" x="4.36" y="4.18" width="1.23" height="1.23"/><rect class="cls-6" x="3.15" y="5.41" width="1.23" height="1.23"/><rect class="cls-6" x="4.36" y="6.61" width="1.23" height="1.23"/><path class="cls-6" d="M5.57,7.84H3.17a.38.38,0,0,0-.39.38v3.06A1.22,1.22,0,0,0,4,12.5h.73A1.22,1.22,0,0,0,6,11.28V8.22A.38.38,0,0,0,5.57,7.84Zm-.41,3.44a.46.46,0,0,1-.46.46H4.06a.47.47,0,0,1-.47-.46v-1.1a.46.46,0,0,1,.47-.46H4.7a.45.45,0,0,1,.46.46Z"/></g></g></svg>