<svg xmlns="http://www.w3.org/2000/svg" viewBox="0 0 33.35 30.67"><defs><style>.cls-1{fill:#d9e5ec;}.cls-2{fill:#c4c4c4;}.cls-3{fill:#fff;}.cls-4,.cls-5,.cls-7{fill:none;}.cls-4,.cls-5,.cls-6,.cls-8,.cls-9{stroke:#1d1d1b;}.cls-4,.cls-5,.cls-8{stroke-linejoin:round;}.cls-4{stroke-width:0.82px;}.cls-5{stroke-width:0.84px;}.cls-6{fill:#b8c9d9;}.cls-6,.cls-9{stroke-miterlimit:3.86;}.cls-6,.cls-7,.cls-8,.cls-9{stroke-width:0.82px;}.cls-7{stroke:#0d4252;stroke-miterlimit:10;}.cls-7,.cls-9{stroke-linecap:round;}.cls-8{fill:#fff7cc;}.cls-9{fill:#ededed;}</style></defs><title>Inductive_Reasoner_1</title><g id="Ebene_2" data-name="Ebene 2"><g id="Ebene_1-2" data-name="Ebene 1"><rect class="cls-1" x="6.44" y="6.46" width="26.5" height="18.45"/><path class="cls-2" d="M32.94.41V6.46H6.44v-6ZM31,4.52V2.41H12.8V4.52Zm-20,0V2.41H8.31V4.52Z"/><rect class="cls-3" x="12.8" y="2.41" width="18.2" height="2.11"/><rect class="cls-2" x="8.31" y="2.41" width="2.71" height="2.11"/><polygon class="cls-4" points="32.94 6.46 32.94 24.91 6.44 24.91 6.44 6.46 6.44 0.41 32.94 0.41 32.94 6.46"/><line class="cls-4" x1="32.94" y1="6.46" x2="6.44" y2="6.46"/><rect class="cls-5" x="8.31" y="2.41" width="2.71" height="2.11"/><path class="cls-6" d="M.41,17.77V28.38c0,1,2.53,1.88,5.64,1.88s5.65-.84,5.65-1.88V17.77Z"/><path class="cls-6" d="M11.7,17.77c0,1-2.53,1.89-5.65,1.89S.41,18.81.41,17.77s2.53-1.88,5.64-1.88S11.7,16.73,11.7,17.77Z"/><path class="cls-7" d="M21,11.28a1,1,0,0,0-1-1.27h0a1.58,1.58,0,0,0-1.49,1.27L17.59,16"/><path class="cls-7" d="M14.31,20.19a1,1,0,0,0,1,1.27h0a1.6,1.6,0,0,0,1.5-1.27l.83-4.75"/><line class="cls-7" x1="15.89" y1="15.44" x2="19.5" y2="15.44"/><line class="cls-7" x1="20.32" y1="17" x2="22.94" y2="21.46"/><line class="cls-7" x1="22.94" y1="17" x2="20.32" y2="21.46"/><path class="cls-8" d="M31,13.18a3.81,3.81,0,0,0-7.55-.78,3.76,3.76,0,0,0,.88,3.3,3.89,3.89,0,0,1,.92,2.6v.22a.87.87,0,0,0,.87.88H28.2a.87.87,0,0,0,.87-.88V18.3A3.94,3.94,0,0,1,30,15.68,3.81,3.81,0,0,0,31,13.18Z"/><path class="cls-9" d="M27.48,21.63h-.59a.92.92,0,0,1-.89-.7l-.39-1.67h3.15l-.39,1.67A.92.92,0,0,1,27.48,21.63Z"/></g></g></svg>