<svg xmlns="http://www.w3.org/2000/svg" viewBox="0 0 33.35 30.67"><defs><style>.cls-1{fill:#d9e5ec;}.cls-2{fill:#c4c4c4;}.cls-3{fill:#fff;}.cls-4,.cls-5,.cls-9{fill:none;}.cls-4,.cls-5,.cls-6,.cls-7,.cls-8,.cls-9{stroke:#1d1d1b;}.cls-4,.cls-5,.cls-7,.cls-9{stroke-linejoin:round;}.cls-4{stroke-width:0.82px;}.cls-5{stroke-width:0.84px;}.cls-6{fill:#b8c9d9;}.cls-6,.cls-8{stroke-miterlimit:3.86;}.cls-6,.cls-7,.cls-8{stroke-width:0.82px;}.cls-7{fill:#fff7cc;}.cls-8{fill:#ededed;}.cls-8,.cls-9{stroke-linecap:round;}.cls-9{stroke-width:0.6px;}.cls-10{fill:#1d1d1b;}</style></defs><title>Inductive_Reasoner_2</title><g id="Ebene_2" data-name="Ebene 2"><g id="Ebene_1-2" data-name="Ebene 1"><rect class="cls-1" x="6.44" y="6.46" width="26.5" height="18.45"/><path class="cls-2" d="M32.94.41V6.46H6.44v-6ZM31,4.52V2.41H12.8V4.52Zm-20,0V2.41H8.31V4.52Z"/><rect class="cls-3" x="12.8" y="2.41" width="18.2" height="2.11"/><rect class="cls-2" x="8.31" y="2.41" width="2.71" height="2.11"/><polygon class="cls-4" points="32.94 6.46 32.94 24.91 6.44 24.91 6.44 6.46 6.44 0.41 32.94 0.41 32.94 6.46"/><line class="cls-4" x1="32.94" y1="6.46" x2="6.44" y2="6.46"/><rect class="cls-5" x="8.31" y="2.41" width="2.71" height="2.11"/><path class="cls-6" d="M.41,17.77V28.38c0,1,2.53,1.88,5.64,1.88s5.65-.84,5.65-1.88V17.77Z"/><path class="cls-6" d="M11.7,17.77c0,1-2.53,1.89-5.65,1.89S.41,18.81.41,17.77s2.53-1.88,5.64-1.88S11.7,16.73,11.7,17.77Z"/><path class="cls-7" d="M27.41,12.76a4.8,4.8,0,0,0-9.5-1A4.75,4.75,0,0,0,19,15.92a4.9,4.9,0,0,1,1.15,3.27v.28a1.1,1.1,0,0,0,1.1,1.1h2.67a1.1,1.1,0,0,0,1.1-1.1v-.28a5,5,0,0,1,1.18-3.3A4.71,4.71,0,0,0,27.41,12.76Z"/><path class="cls-8" d="M23,23.38H22.3a1.15,1.15,0,0,1-1.12-.88l-.49-2.1h4l-.49,2.1A1.15,1.15,0,0,1,23,23.38Z"/><polyline class="cls-9" points="22.14 20.21 20.16 13.68 22.5 14.54 21.97 10.73 25.26 13.25 23.11 20.21"/><circle class="cls-10" cx="21.97" cy="10.61" r="1.14"/><circle class="cls-10" cx="19.95" cy="13.38" r="1.14"/><circle class="cls-10" cx="25.14" cy="13.17" r="1.14"/><circle class="cls-10" cx="22.55" cy="14.51" r="1.14"/></g></g></svg>