<svg xmlns="http://www.w3.org/2000/svg" viewBox="0 0 33.62 31.11"><defs><style>.cls-1{fill:#d9e5ec;}.cls-2{fill:#c4c4c4;}.cls-3{fill:#fff;}.cls-4,.cls-5{fill:none;stroke-linejoin:round;}.cls-4,.cls-5,.cls-7{stroke:#1d1d1b;}.cls-4,.cls-7{stroke-width:0.82px;}.cls-5{stroke-width:0.84px;}.cls-6{fill:#d6e7f1;stroke:#0d4252;stroke-miterlimit:10;stroke-width:0.78px;fill-rule:evenodd;}.cls-7{fill:#9baab7;stroke-miterlimit:3.86;}.cls-8{fill:#1d1d1b;}</style></defs><title>IT_Management_Tool</title><g id="Ebene_2" data-name="Ebene 2"><g id="Ebene_1-2" data-name="Ebene 1"><rect class="cls-1" x="6.71" y="6.46" width="26.5" height="18.45"/><path class="cls-2" d="M33.21.41V6.46H6.71v-6ZM31.27,4.52V2.41H13.07V4.52Zm-20,0V2.41H8.58V4.52Z"/><rect class="cls-3" x="13.07" y="2.41" width="18.2" height="2.11"/><rect class="cls-2" x="8.58" y="2.41" width="2.71" height="2.11"/><polygon class="cls-4" points="33.22 6.46 33.22 24.91 6.71 24.91 6.71 6.46 6.71 0.41 33.22 0.41 33.22 6.46"/><line class="cls-4" x1="33.21" y1="6.46" x2="6.71" y2="6.46"/><rect class="cls-5" x="8.58" y="2.41" width="2.71" height="2.11"/><path class="cls-6" d="M31,13.64H29.85a5.49,5.49,0,0,0-.63-1.52l.81-.8a.37.37,0,0,0,0-.5l-1.5-1.49a.36.36,0,0,0-.49,0l-.8.8a5.26,5.26,0,0,0-1.49-.61l0,0V8.37A.36.36,0,0,0,25.37,8H23.26a.36.36,0,0,0-.36.35V9.5a5.74,5.74,0,0,0-1.51.63l-.8-.8a.37.37,0,0,0-.5,0L18.6,10.82a.35.35,0,0,0,0,.5l.8.8a5.59,5.59,0,0,0-.62,1.49l0,0h-1.1a.36.36,0,0,0-.36.35V16.1a.36.36,0,0,0,.36.35h1.13A5.81,5.81,0,0,0,19.4,18l-.8.8a.35.35,0,0,0,0,.5l1.49,1.49a.37.37,0,0,0,.5,0l.8-.8a5.08,5.08,0,0,0,1.48.61l0,.05v1.1a.36.36,0,0,0,.36.35h2.11a.36.36,0,0,0,.35-.35V20.59A5.81,5.81,0,0,0,27.24,20l.8.8a.36.36,0,0,0,.49,0L30,19.27a.37.37,0,0,0,0-.5l-.81-.8a5.59,5.59,0,0,0,.62-1.49l0,0H31a.35.35,0,0,0,.35-.35V14A.35.35,0,0,0,31,13.64Z"/><path class="cls-7" d="M16.77,28.4a2.41,2.41,0,0,1-2.49,2.3H2.9A2.41,2.41,0,0,1,.41,28.4v-8a2.41,2.41,0,0,1,2.49-2.3H14.28a2.41,2.41,0,0,1,2.49,2.3Z"/><path class="cls-8" d="M5.22,21.69,6.7,27.28H5.53L5.27,26.1H3.79l-.26,1.18H2.35l1.48-5.59Zm-.14,3.48-.54-2.51h0L4,25.17Z"/><path class="cls-8" d="M9.06,21.69a1.61,1.61,0,0,1,.73.15,1.36,1.36,0,0,1,.47.38,1.38,1.38,0,0,1,.26.53,2.57,2.57,0,0,1,.08.62,2.18,2.18,0,0,1-.13.75,1.42,1.42,0,0,1-.36.52,1.53,1.53,0,0,1-.56.31,2.39,2.39,0,0,1-.73.1h-.6v2.23H7.09V21.69Zm-.34,2.53a.75.75,0,0,0,.54-.2.87.87,0,0,0,.21-.64,1,1,0,0,0-.18-.64.76.76,0,0,0-.6-.22H8.22v1.7Z"/><path class="cls-8" d="M13.12,21.69a1.61,1.61,0,0,1,.73.15,1.36,1.36,0,0,1,.47.38,1.54,1.54,0,0,1,.26.53,2.57,2.57,0,0,1,.08.62,2.18,2.18,0,0,1-.13.75,1.42,1.42,0,0,1-.36.52,1.53,1.53,0,0,1-.56.31,2.39,2.39,0,0,1-.73.1h-.6v2.23H11.15V21.69Zm-.34,2.53a.77.77,0,0,0,.54-.2.87.87,0,0,0,.21-.64,1,1,0,0,0-.18-.64.76.76,0,0,0-.6-.22h-.47v1.7Z"/><path class="cls-8" d="M22.1,12.23h1.12v5.58H22.1Z"/><path class="cls-8" d="M27.33,13.15H26.11v4.66H25V13.15H23.76v-.92h3.57Z"/></g></g></svg>