<svg xmlns="http://www.w3.org/2000/svg" viewBox="0 0 27.4 32.11"><defs><style>.cls-1,.cls-2{fill:#fff;}.cls-1,.cls-3{stroke:#1d1d1b;}.cls-1,.cls-2,.cls-3{stroke-miterlimit:3.86;stroke-width:0.82px;}.cls-2{stroke:#9baab7;}.cls-3{fill:#b8c9d9;}</style></defs><title>Element 135</title><g id="Ebene_2" data-name="Ebene 2"><g id="Ebene_1-2" data-name="Ebene 1"><rect class="cls-1" x="9.65" y="0.41" width="17.34" height="24.5"/><rect class="cls-1" x="7.94" y="2.24" width="17.34" height="24.5"/><rect class="cls-1" x="6.22" y="4.07" width="17.34" height="24.5"/><rect class="cls-2" x="13" y="14.48" width="1.96" height="3.25" rx="0.91" ry="0.91"/><rect class="cls-2" x="16.52" y="14.48" width="1.96" height="3.25" rx="0.91" ry="0.91"/><line class="cls-2" x1="9.54" y1="14.2" x2="9.54" y2="18.1"/><line class="cls-2" x1="11.38" y1="14.2" x2="11.38" y2="18.1"/><line class="cls-2" x1="19.88" y1="14.2" x2="19.88" y2="18.1"/><rect class="cls-2" x="9.04" y="8.79" width="1.96" height="3.25" rx="0.91" ry="0.91"/><rect class="cls-2" x="13.91" y="8.79" width="1.96" height="3.25" rx="0.91" ry="0.91"/><line class="cls-2" x1="12.45" y1="8.51" x2="12.45" y2="12.41"/><rect class="cls-2" x="18.78" y="8.79" width="1.96" height="3.25" rx="0.91" ry="0.91"/><line class="cls-2" x1="17.32" y1="8.51" x2="17.32" y2="12.41"/><rect class="cls-2" x="18.78" y="20.17" width="1.96" height="3.25" rx="0.91" ry="0.91"/><rect class="cls-2" x="11.99" y="20.17" width="1.96" height="3.25" rx="0.91" ry="0.91"/><line class="cls-2" x1="17.32" y1="19.89" x2="17.32" y2="23.79"/><line class="cls-2" x1="15.48" y1="19.89" x2="15.48" y2="23.79"/><path class="cls-3" d="M.41,19.21V29.82c0,1,2.53,1.89,5.64,1.89s5.65-.85,5.65-1.89V19.21Z"/><path class="cls-3" d="M11.7,19.21c0,1-2.53,1.89-5.65,1.89S.41,20.25.41,19.21s2.53-1.88,5.64-1.88S11.7,18.18,11.7,19.21Z"/></g></g></svg>