<svg xmlns="http://www.w3.org/2000/svg" viewBox="0 0 29.07 24.01"><defs><style>.cls-1,.cls-6{fill:#d6e7f1;}.cls-2,.cls-5{fill:none;}.cls-2,.cls-4,.cls-6{stroke:#1d1d1b;stroke-linejoin:round;}.cls-2,.cls-4,.cls-5,.cls-6{stroke-width:0.82px;}.cls-3{fill:#1b181c;}.cls-4{fill:#fff;}.cls-5{stroke:#9baab7;stroke-linecap:round;stroke-miterlimit:10;}</style></defs><title>Element 139</title><g id="Ebene_2" data-name="Ebene 2"><g id="Ebene_1-2" data-name="Ebene 1"><rect id="SVGID" class="cls-1" x="0.41" y="0.41" width="28.26" height="23.2"/><rect id="SVGID-2" data-name="SVGID" class="cls-2" x="0.41" y="0.41" width="28.26" height="23.2"/><rect class="cls-3" x="10.68" y="14.79" width="15.64" height="1.73" rx="0.42" ry="0.42"/><rect class="cls-4" x="12.74" y="15.55" width="11.39" height="5.21"/><line class="cls-5" x1="14.44" y1="17.1" x2="22.43" y2="17.1"/><line class="cls-5" x1="18.58" y1="18.81" x2="22.43" y2="18.81"/><rect class="cls-3" x="10.41" y="6.91" width="1.73" height="1.73" rx="0.39" ry="0.39"/><rect class="cls-3" x="7.94" y="6.91" width="1.73" height="1.73" rx="0.39" ry="0.39"/><rect class="cls-3" x="12.87" y="6.91" width="1.73" height="1.73" rx="0.39" ry="0.39"/><rect class="cls-3" x="10.41" y="4.45" width="1.73" height="1.73" rx="0.39" ry="0.39"/><rect class="cls-3" x="7.94" y="4.45" width="1.73" height="1.73" rx="0.39" ry="0.39"/><rect class="cls-3" x="12.87" y="4.45" width="1.73" height="1.73" rx="0.39" ry="0.39"/><rect class="cls-3" x="10.41" y="9.38" width="1.73" height="1.73" rx="0.39" ry="0.39"/><rect class="cls-3" x="7.94" y="9.38" width="1.73" height="1.73" rx="0.39" ry="0.39"/><rect class="cls-3" x="12.87" y="9.38" width="1.73" height="1.73" rx="0.39" ry="0.39"/><rect class="cls-6" x="2.37" y="3.33" width="3.64" height="8.89" rx="1.82" ry="1.82"/><rect class="cls-6" x="16.18" y="3.65" width="10.52" height="8.24"/></g></g></svg>