<svg xmlns="http://www.w3.org/2000/svg" viewBox="0 0 31.56 32.24"><defs><style>.cls-1,.cls-3{fill:#fff;}.cls-1,.cls-2,.cls-3,.cls-4{stroke:#1d1d1b;stroke-width:0.82px;}.cls-1,.cls-2{stroke-miterlimit:10;}.cls-2{fill:#fff7cc;}.cls-3{stroke-linejoin:round;}.cls-4{fill:#b8c9d9;stroke-miterlimit:3.86;}</style></defs><title>Element 136</title><g id="Ebene_2" data-name="Ebene 2"><g id="Ebene_1-2" data-name="Ebene 1"><polygon class="cls-1" points="24.45 0.45 12.1 0.45 12.1 18.16 29.29 18.16 29.29 5.29 24.45 0.45"/><path class="cls-2" d="M16.28,9.24h0A1.3,1.3,0,0,0,15,8H7.35a1.3,1.3,0,0,0-1.3,1.29V25.46a1.3,1.3,0,0,0,1.3,1.3H29.86a1.3,1.3,0,0,0,1.29-1.3V11.83a1.29,1.29,0,0,0-1.29-1.29H17.57A1.3,1.3,0,0,1,16.28,9.24Z"/><polygon class="cls-3" points="24.41 0.41 29.36 5.36 24.41 5.36 24.41 0.41"/><path class="cls-4" d="M.41,19.34V30c0,1,2.53,1.89,5.64,1.89S11.7,31,11.7,30V19.34Z"/><path class="cls-4" d="M11.7,19.34c0,1-2.53,1.89-5.65,1.89S.41,20.38.41,19.34s2.53-1.88,5.64-1.88S11.7,18.31,11.7,19.34Z"/></g></g></svg>