<svg xmlns="http://www.w3.org/2000/svg" viewBox="0 0 33.11 26.77"><defs><style>.cls-1,.cls-3{fill:#fff;}.cls-1,.cls-2{stroke:#1d1d1b;stroke-linejoin:round;stroke-width:0.82px;}.cls-2{fill:#b8c9d9;}.cls-4{fill:#0e4252;}</style></defs><title>Element 143</title><g id="Ebene_2" data-name="Ebene 2"><g id="Ebene_1-2" data-name="Ebene 1"><path class="cls-1" d="M23.43,26.36H7.19V2c0-.87.52-1.58,1.17-1.58H25.8c-.64,0-1.16.71-1.16,1.58V24.72C24.64,25.63,24.1,26.36,23.43,26.36Z"/><path class="cls-2" d="M22.53,23.84H5.09v1c0,.86.51,1.56,1.14,1.56H23.68c-.63,0-1.15-.7-1.15-1.56Z"/><path class="cls-3" d="M20.57,16.13l-2.86.77c-1.19.17-1.36-.28-1.26-.67h-.6c-1.78.25-1.28-.88-1-1.1s-.21.15-.21.15c-1.78.25-1.55-.82-.89-1s.52-.14.52-.14c-.54-.25-.49-.68-.24-.87,1.55-1.16,7.14-3,7.14-3a4.47,4.47,0,0,0-1.53-1.31C17.42,8.11,17.56,7,17.69,6.7c.42-.66,1.68.49,3,1a8.45,8.45,0,0,0,2.61.24,6,6,0,0,1,2.57.61,9.82,9.82,0,0,1,1.54.94v3.05a1.85,1.85,0,0,1-.81,1.61,17,17,0,0,1-2,.88,41.9,41.9,0,0,1-4.18,1.17"/><polygon class="cls-3" points="27.68 8.63 32.17 8.63 32.17 15.24 27.68 15.24 27.68 8.63"/><path class="cls-4" d="M33.11,15.63H27.29V8.25h5.82Zm-5-.78h4.27V9H28.07Z"/><rect class="cls-4" x="29.26" y="8.63" width="3.22" height="6.61"/><path class="cls-4" d="M27.73,9.29l-.11-.08a10,10,0,0,0-1.59-1,6.35,6.35,0,0,0-2.69-.63h-.23a7.12,7.12,0,0,1-2.29-.23,8.5,8.5,0,0,1-1.33-.62c-.84-.44-1.63-.86-2.06-.17a1.31,1.31,0,0,0,.06,1.06,3.24,3.24,0,0,0,2.06,1.49,4.14,4.14,0,0,1,1.1.86s0,0,.05.05c-1.28.44-5.48,1.93-6.84,2.95a.7.7,0,0,0-.29.65.79.79,0,0,0,.11.3h0A.91.91,0,0,0,13,15c.05.2.26.62,1.16.62h.14a.91.91,0,0,0,0,.46c.14.33.49.5,1.05.5a3.25,3.25,0,0,0,.51,0l.25,0a.74.74,0,0,0,.05.25q.21.51,1.05.51c.16,0,.34,0,.53,0l2.86-.78h0a41.88,41.88,0,0,0,4.08-1.15,17.19,17.19,0,0,0,2-.9,2.1,2.1,0,0,0,1-1.85Zm-.57,3.22a1.54,1.54,0,0,1-.67,1.34,14.67,14.67,0,0,1-2,.86,38.81,38.81,0,0,1-4.14,1.16h0l-2.72.74c-.62.09-.9,0-1-.13s.09-.41.16-.46c.24-.16,2.75-1.05,5-1.8l-.18-.54c-1.12.38-4.83,1.64-5.15,1.89a1,1,0,0,0-.22.27l-.5.09c-.62.09-.9,0-1-.13a.54.54,0,0,1,.15-.46c.3-.19,4-1.49,6.18-2.26L21,12.55c-1.4.49-6,2.1-6.33,2.35l-.09.09c-.79.11-1-.07-1-.15s.1-.28.29-.34c.73-.25,6.38-2.34,6.62-2.43l-.2-.53-6,2.21a.31.31,0,0,1-.13-.16.15.15,0,0,1,.06-.14c1.41-1,6.31-2.73,7-3a7.42,7.42,0,0,0,1,.75l.31-.48A8.86,8.86,0,0,1,21,9.58a4.21,4.21,0,0,0-1.3-1c-1.16-.4-1.58-.87-1.73-1.19a.84.84,0,0,1-.07-.57c.13-.21.72.11,1.3.41a9.17,9.17,0,0,0,1.41.66,7.85,7.85,0,0,0,2.47.26h.23a5.72,5.72,0,0,1,2.45.58,9.61,9.61,0,0,1,1.38.82Z"/><path class="cls-3" d="M12.11,18.86a41.9,41.9,0,0,1-4.18-1.17,17,17,0,0,1-2-.88,1.85,1.85,0,0,1-.81-1.61v-3a9.82,9.82,0,0,1,1.54-.94,6,6,0,0,1,2.57-.61,8.42,8.42,0,0,0,2.61-.24c1.36-.46,2.62-1.61,3-.95.13.32.27,1.41-1.95,2.18-.72.24-1.65.58-1,1.22l-.06-.05s5.11,1.17,6.88,1.86c.72.29.86,1.29-.62,1.05l-5.77-1.06-.17-.09S18,16,19.06,17c.55.49.3,1.22-2.19.38l-5.1-1.55a42.45,42.45,0,0,1,6,1.92c.91.39,1.1,1.6-.53,1.19L11,17.08l5.1,1.47c.28.22.76,1.15-1,.9L12,18.84"/><polygon class="cls-3" points="4.88 11.34 0.39 11.34 0.39 17.95 4.88 17.95 4.88 11.34"/><path class="cls-4" d="M5.26,18.34H0V11H5.26ZM.78,17.56H4.49V11.73H.78Z"/><rect class="cls-4" x="0.39" y="11.34" width="2.91" height="6.61"/><path class="cls-4" d="M19.51,17.64a.72.72,0,0,0-.26-.9,7,7,0,0,0-1.8-.91l.64.12a2.6,2.6,0,0,0,.46,0c.75,0,.95-.38,1-.56a1,1,0,0,0-.69-1.07c-1.64-.64-6-1.67-6.8-1.85,0,0-.07-.1-.06-.12,0-.2.75-.44,1-.54a3.32,3.32,0,0,0,2.07-1.48,1.35,1.35,0,0,0,0-1.12c-.42-.65-1.21-.22-2,.22a8.5,8.5,0,0,1-1.33.62,7.14,7.14,0,0,1-2.29.23H9.22A6.35,6.35,0,0,0,6.53,11a10.51,10.51,0,0,0-1.59,1L4.83,12v3.19a2.11,2.11,0,0,0,1,1.87,16.42,16.42,0,0,0,2,.89,37.55,37.55,0,0,0,4.1,1.16h0l3.1.61a3.51,3.51,0,0,0,.57.05c.39,0,.84-.08,1-.46a.53.53,0,0,0,0-.3l.5.15a2.87,2.87,0,0,0,.65.09c.63,0,.82-.33.88-.5a.91.91,0,0,0-.15-.77h.13A.9.9,0,0,0,19.51,17.64ZM17,17.06v0a46.1,46.1,0,0,0-5.12-1.58l-.13.55A43,43,0,0,1,17.63,18c.39.17.56.49.52.61s-.3.19-.86.05L11.07,16.8l-.16.55,5,1.47c.08.09.15.23.13.28s-.25.17-.95.07l-3-.59h0A38.81,38.81,0,0,1,8,17.42a15.67,15.67,0,0,1-2-.86A1.55,1.55,0,0,1,5.4,15.2V12.29a9.61,9.61,0,0,1,1.38-.82,5.72,5.72,0,0,1,2.45-.58h.23a7.54,7.54,0,0,0,2.47-.26A9.63,9.63,0,0,0,13.33,10c.58-.3,1.17-.61,1.28-.46a.81.81,0,0,1,0,.62c-.15.32-.57.79-1.73,1.19-.57.19-1.28.44-1.39.94a.82.82,0,0,0,.31.76l.07,0s5.11,1.17,6.84,1.85c.24.1.36.29.34.39s-.27.2-.81.11l-5.18-1-.74-.2-.14.55.19.05v.05l.58.1c1.9.52,5.23,1.52,6,2.18a.58.58,0,0,1,.15.19S18.68,17.64,17,17.06Z"/></g></g></svg>