<svg xmlns="http://www.w3.org/2000/svg" viewBox="0 0 22.3 26.77"><defs><style>.cls-1,.cls-3{fill:#fff;}.cls-1,.cls-2{stroke:#1d1d1b;stroke-linejoin:round;}.cls-1,.cls-2,.cls-3{stroke-width:0.82px;}.cls-2{fill:#b8c9d9;}.cls-3{stroke:#9baab7;stroke-miterlimit:10;}.cls-4{fill:#1d1d1b;}</style></defs><title>Element 146</title><g id="Ebene_2" data-name="Ebene 2"><g id="Ebene_1-2" data-name="Ebene 1"><path class="cls-1" d="M18.75,26.36H2.51V2C2.51,1.12,3,.41,3.68.41H21.13C20.48.41,20,1.12,20,2V24.72C20,25.63,19.42,26.36,18.75,26.36Z"/><path class="cls-2" d="M17.86,23.84H.41v1c0,.86.51,1.56,1.14,1.56H19c-.63,0-1.14-.7-1.14-1.56Z"/><line class="cls-3" x1="12.2" y1="7.65" x2="4.87" y2="7.65"/><line class="cls-3" x1="12.2" y1="10.69" x2="4.87" y2="10.69"/><line class="cls-3" x1="17.32" y1="13.72" x2="4.87" y2="13.72"/><line class="cls-3" x1="17.32" y1="16.75" x2="4.87" y2="16.75"/><path class="cls-4" d="M15.22,9.48a.72.72,0,0,0,.18.51.62.62,0,0,0,.45.19.57.57,0,0,0,.46-.19.69.69,0,0,0,.14-.39.75.75,0,0,0-.13-.43,1.3,1.3,0,0,0-.45-.32l-1.11-.54A1.71,1.71,0,0,1,14,7.72a1.52,1.52,0,0,1,0-1.56,1.6,1.6,0,0,1,.6-.52,1.23,1.23,0,0,1-.54-1,1.6,1.6,0,0,1,.14-.69,1.45,1.45,0,0,1,.39-.46,1.59,1.59,0,0,1,.59-.26,3.31,3.31,0,0,1,.72-.08,2.6,2.6,0,0,1,.79.11,1.44,1.44,0,0,1,.53.3,1.08,1.08,0,0,1,.3.46,1.87,1.87,0,0,1,.09.59H16.45a.74.74,0,0,0-.13-.44.59.59,0,0,0-.5-.17.56.56,0,0,0-.41.15.51.51,0,0,0-.14.36.49.49,0,0,0,.13.31,1.28,1.28,0,0,0,.44.31l1.07.5a2.39,2.39,0,0,1,.71.54,1.41,1.41,0,0,1,.28.93,1.1,1.1,0,0,1,0,.35,1.66,1.66,0,0,1-.14.37,2.27,2.27,0,0,1-.22.32,1,1,0,0,1-.29.24,1.39,1.39,0,0,1,.36.44,1.68,1.68,0,0,1,.13.68,1.42,1.42,0,0,1-.48,1.17,2.2,2.2,0,0,1-1.36.37,1.94,1.94,0,0,1-1.37-.42A1.45,1.45,0,0,1,14,9.48V9.35h1.19Zm1-1.65a.88.88,0,0,1,.17.12,2,2,0,0,0,.33-.37.64.64,0,0,0,.09-.31.6.6,0,0,0-.13-.4,1.75,1.75,0,0,0-.48-.34l-.86-.46A1.28,1.28,0,0,0,15,6.4a.64.64,0,0,0-.12.35A.56.56,0,0,0,15,7a.45.45,0,0,0,.23.22l.89.49Z"/></g></g></svg>