<svg xmlns="http://www.w3.org/2000/svg" viewBox="0 0 40.01 24.09"><defs><style>.cls-1,.cls-3{fill:#e3edfa;}.cls-1,.cls-3,.cls-5{stroke:#1d1d1b;stroke-width:0.82px;}.cls-1,.cls-5{stroke-miterlimit:3.86;}.cls-2{fill:#e94e1b;}.cls-3{stroke-linejoin:round;}.cls-4{fill:#1d1d1b;}.cls-5{fill:#b8c9d9;stroke-linecap:round;}</style></defs><title>Element 140</title><g id="Ebene_2" data-name="Ebene 2"><g id="Ebene_1-2" data-name="Ebene 1"><rect class="cls-1" x="0.41" y="0.41" width="11.22" height="23.14" rx="0.79" ry="0.79"/><rect class="cls-2" x="2.75" y="11.69" width="1.44" height="1.44"/><rect class="cls-3" x="21.66" y="13.47" width="1.83" height="18.6" rx="0.71" ry="0.71" transform="translate(45.35 0.19) rotate(90)"/><path class="cls-3" d="M39.6,23a.71.71,0,0,1-.71.72h-4a.72.72,0,0,1-.72-.72h0a1.68,1.68,0,0,1,1.68-1.68h2.12A1.68,1.68,0,0,1,39.6,23Z"/><rect class="cls-1" x="10.24" y="1.64" width="24.69" height="18.14" rx="1.84" ry="1.84"/><rect class="cls-4" x="12.81" y="4.02" width="19.92" height="13.48"/><line class="cls-5" x1="3.08" y1="4.14" x2="8.95" y2="4.14"/><line class="cls-5" x1="3.08" y1="5.8" x2="8.95" y2="5.8"/><line class="cls-5" x1="3.08" y1="7.46" x2="8.95" y2="7.46"/><line class="cls-5" x1="3.08" y1="9.12" x2="8.95" y2="9.12"/></g></g></svg>