<svg xmlns="http://www.w3.org/2000/svg" viewBox="0 0 18.44 17.3"><defs><style>.cls-1{fill:#d9e5ec;}.cls-2{fill:#c4c4c4;}.cls-3{fill:#fff;}.cls-4,.cls-7{fill:#1d1d1b;}.cls-5,.cls-6{fill:none;}.cls-5,.cls-6,.cls-7{stroke:#1d1d1b;}.cls-5,.cls-7{stroke-linejoin:round;}.cls-5{stroke-width:0.82px;}.cls-6,.cls-7{stroke-linecap:round;}.cls-6{stroke-miterlimit:10;}.cls-7{stroke-width:0.8px;}</style></defs><title>Element 137</title><g id="Ebene_2" data-name="Ebene 2"><g id="Ebene_1-2" data-name="Ebene 1"><rect class="cls-1" x="0.41" y="3.9" width="15.3" height="10.65"/><path class="cls-2" d="M15.71.41V3.9H.41V.41ZM14.59,2.78V1.56H4.08V2.78Zm-11.54,0V1.56H1.49V2.78Z"/><rect class="cls-3" x="4.08" y="1.56" width="10.51" height="1.22"/><rect class="cls-4" x="1.49" y="1.56" width="1.56" height="1.22"/><polygon class="cls-5" points="15.71 3.9 15.71 14.55 0.41 14.55 0.41 3.9 0.41 0.41 15.71 0.41 15.71 3.9"/><line class="cls-5" x1="15.71" y1="3.9" x2="0.41" y2="3.9"/><rect class="cls-1" x="2.74" y="6.24" width="15.3" height="10.65"/><path class="cls-2" d="M18,2.75V6.24H2.74V2.75ZM16.92,5.12V3.9H6.41V5.12Zm-11.54,0V3.9H3.82V5.12Z"/><rect class="cls-3" x="6.41" y="3.9" width="10.51" height="1.22"/><rect class="cls-4" x="3.82" y="3.9" width="1.56" height="1.22"/><polygon class="cls-5" points="18.04 6.24 18.04 16.89 2.74 16.89 2.74 6.24 2.74 2.75 18.04 2.75 18.04 6.24"/><line class="cls-5" x1="18.04" y1="6.24" x2="2.74" y2="6.24"/><line class="cls-6" x1="15.68" y1="13.7" x2="13.51" y2="11.52"/><polygon class="cls-7" points="11.78 9.8 12.94 12.33 14.31 10.96 11.78 9.8"/></g></g></svg>