<svg xmlns="http://www.w3.org/2000/svg" viewBox="0 0 21.61 21.61"><defs><style>.cls-1{fill:#fff7cd;}.cls-1,.cls-2{stroke:#1d1d1b;}.cls-1,.cls-2,.cls-3,.cls-5{stroke-linejoin:round;stroke-width:0.82px;}.cls-2{fill:#dbe5f0;}.cls-3{fill:#fff;}.cls-3,.cls-5{stroke:#020303;stroke-linecap:round;}.cls-4{fill:#b8c9d9;}.cls-5{fill:none;}.cls-6{fill:#d7e0eb;}</style></defs><title>Element 138</title><g id="Ebene_2" data-name="Ebene 2"><g id="Ebene_1-2" data-name="Ebene 1"><polygon class="cls-1" points="18.58 17.18 12.21 10.8 18.58 4.43 19.79 5.64 21.2 0.41 15.96 1.81 17.18 3.02 10.8 9.4 4.43 3.02 5.64 1.81 0.41 0.41 1.81 5.64 3.02 4.43 9.39 10.8 3.02 17.18 1.81 15.96 0.41 21.2 5.64 19.8 4.43 18.58 10.8 12.21 17.18 18.58 15.96 19.8 21.2 21.2 19.79 15.96 18.58 17.18"/><rect class="cls-2" x="14.74" y="7.05" width="4.52" height="7.57"/><rect class="cls-3" x="14.57" y="8.36" width="3.08" height="4.85"/><polygon class="cls-4" points="17.26 8.7 14.57 11.13 14.57 8.76 17.26 8.76 17.26 8.7"/><line class="cls-5" x1="14.74" y1="11.61" x2="17.65" y2="11.61"/><line class="cls-5" x1="14.74" y1="10.03" x2="17.65" y2="10.03"/><rect class="cls-2" x="2.48" y="7.05" width="4.52" height="7.57"/><rect class="cls-3" x="4.08" y="8.36" width="2.91" height="4.85"/><polygon class="cls-4" points="7.17 8.7 4.48 11.13 4.48 8.76 7.17 8.76 7.17 8.7"/><line class="cls-5" x1="4.08" y1="11.61" x2="7" y2="11.61"/><line class="cls-5" x1="4.08" y1="10.03" x2="7" y2="10.03"/><rect class="cls-2" x="7" y="3.34" width="7.57" height="12.05"/><polygon class="cls-6" points="8.76 5.28 8.06 5.28 8.06 5.65 8.76 5.28"/><polygon class="cls-6" points="13.66 6.93 12.96 6.93 12.96 7.3 13.66 6.93"/><rect class="cls-3" x="8.57" y="5.79" width="4.43" height="8.24"/><polygon class="cls-4" points="12.59 8.27 8.98 11.53 8.98 6.18 12.59 6.18 12.59 8.27"/><line class="cls-5" x1="10.8" y1="14.04" x2="10.8" y2="5.79"/><line class="cls-5" x1="8.57" y1="11.97" x2="13" y2="11.97"/><line class="cls-5" x1="8.57" y1="9.91" x2="13" y2="9.91"/><line class="cls-5" x1="8.57" y1="7.85" x2="13" y2="7.85"/></g></g></svg>