<svg xmlns="http://www.w3.org/2000/svg" viewBox="0 0 34.16 30.8"><defs><style>.cls-1{fill:#d9e5ec;}.cls-2{fill:#c4c4c4;}.cls-3,.cls-9{fill:#fff;}.cls-4,.cls-5,.cls-6{fill:none;}.cls-4,.cls-5,.cls-6,.cls-7{stroke:#1d1d1b;}.cls-4,.cls-5,.cls-7{stroke-linejoin:round;}.cls-4{stroke-width:0.82px;}.cls-5{stroke-width:0.84px;}.cls-6,.cls-7{stroke-linecap:round;}.cls-6,.cls-8,.cls-9{stroke-miterlimit:10;}.cls-7{fill:#1d1d1b;stroke-width:0.8px;}.cls-8{fill:#d6e7f1;}.cls-8,.cls-9{stroke:#0d4252;stroke-width:0.78px;fill-rule:evenodd;}</style></defs><title>Element 141</title><g id="Ebene_2" data-name="Ebene 2"><g id="Ebene_1-2" data-name="Ebene 1"><rect class="cls-1" x="7.25" y="6.46" width="26.5" height="18.45"/><path class="cls-2" d="M33.75.41V6.46H7.25v-6ZM31.81,4.52V2.41H13.61V4.52Zm-20,0V2.41H9.12V4.52Z"/><rect class="cls-3" x="13.61" y="2.41" width="18.2" height="2.11"/><rect class="cls-2" x="9.12" y="2.41" width="2.71" height="2.11"/><polygon class="cls-4" points="33.75 6.46 33.75 24.91 7.25 24.91 7.25 6.46 7.25 0.41 33.75 0.41 33.75 6.46"/><line class="cls-4" x1="33.75" y1="6.46" x2="7.25" y2="6.46"/><rect class="cls-5" x="9.12" y="2.41" width="2.71" height="2.11"/><line class="cls-6" x1="29.67" y1="19.38" x2="25.9" y2="15.61"/><polygon class="cls-7" points="22.91 12.62 24.93 17.01 27.3 14.64 22.91 12.62"/><path class="cls-8" d="M14.1,22H13a5.81,5.81,0,0,0-.63-1.52l.8-.8a.35.35,0,0,0,0-.5l-1.49-1.49a.36.36,0,0,0-.49,0l-.81.8a5.37,5.37,0,0,0-1.48-.61l0-.05V16.7a.36.36,0,0,0-.36-.35H6.36A.36.36,0,0,0,6,16.7v1.13a6.17,6.17,0,0,0-1.52.63l-.8-.8a.37.37,0,0,0-.5,0L1.7,19.15a.37.37,0,0,0,0,.5l.81.8a5.28,5.28,0,0,0-.62,1.49l0,0H.74a.36.36,0,0,0-.35.35v2.11a.35.35,0,0,0,.35.35H1.87a5.83,5.83,0,0,0,.64,1.52l-.81.8a.37.37,0,0,0,0,.5l1.49,1.49a.37.37,0,0,0,.5,0l.8-.8A5.59,5.59,0,0,0,6,28.91l0,0v1.1a.37.37,0,0,0,.35.36H8.47a.37.37,0,0,0,.36-.36V28.92a5.61,5.61,0,0,0,1.51-.63l.81.8a.36.36,0,0,0,.49,0l1.49-1.49a.35.35,0,0,0,0-.5l-.8-.8A5.52,5.52,0,0,0,13,24.82l0,0H14.1a.36.36,0,0,0,.35-.35V22.32A.37.37,0,0,0,14.1,22Z"/><path class="cls-9" d="M7.42,27.11a3.74,3.74,0,1,1,3.73-3.73A3.73,3.73,0,0,1,7.42,27.11Z"/></g></g></svg>