<svg xmlns="http://www.w3.org/2000/svg" viewBox="0 0 27.32 25.32"><defs><style>.cls-1{fill:#d9e5ec;}.cls-2{fill:#c4c4c4;}.cls-3{fill:#fff;}.cls-4,.cls-5{fill:none;stroke:#1d1d1b;stroke-linejoin:round;}.cls-4{stroke-width:0.82px;}.cls-5{stroke-width:0.84px;}.cls-6{fill:#1d1d1b;}</style></defs><title>Element 144</title><g id="Ebene_2" data-name="Ebene 2"><g id="Ebene_1-2" data-name="Ebene 1"><g id="_Gruppe_" data-name="&lt;Gruppe&gt;"><rect class="cls-1" x="0.41" y="6.46" width="26.5" height="18.45"/><path class="cls-2" d="M26.91.41V6.46H.41v-6ZM25,4.52V2.41H6.77V4.52Zm-20,0V2.41H2.28V4.52Z"/><rect class="cls-3" x="6.77" y="2.41" width="18.2" height="2.11"/><rect class="cls-2" x="2.28" y="2.41" width="2.71" height="2.11"/><polygon class="cls-4" points="26.91 6.46 26.91 24.91 0.41 24.91 0.41 6.46 0.41 0.41 26.91 0.41 26.91 6.46"/><line class="cls-4" x1="26.91" y1="6.46" x2="0.41" y2="6.46"/><rect class="cls-5" x="2.28" y="2.41" width="2.71" height="2.11"/></g><path class="cls-6" d="M22.83,19.88a.51.51,0,0,1-.36-.15L18.7,16a.5.5,0,0,1,0-.7.5.5,0,0,1,.71,0L23.18,19a.48.48,0,0,1,0,.7A.5.5,0,0,1,22.83,19.88Z"/><polygon class="cls-6" points="16.07 12.62 18.08 17.01 20.45 14.64 16.07 12.62"/><path class="cls-6" d="M18.08,17.41H18a.37.37,0,0,1-.29-.22l-2-4.39a.4.4,0,0,1,.53-.53l4.38,2a.4.4,0,0,1,.23.29.43.43,0,0,1-.11.36l-2.37,2.37A.4.4,0,0,1,18.08,17.41Zm-1.19-4,1.32,2.88,1.55-1.56Z"/></g></g></svg>