<svg xmlns="http://www.w3.org/2000/svg" viewBox="0 0 10.82 13.6"><defs><style>.cls-1,.cls-2{fill:none;stroke-miterlimit:10;}.cls-1{stroke:#9baab7;stroke-width:0.82px;}.cls-2{stroke:#1d1d1b;stroke-linecap:round;}.cls-3{fill:#fac495;}</style></defs><title>Lebenszyklus_Mitte</title><g id="Ebene_2" data-name="Ebene 2"><g id="Ebene_1-2" data-name="Ebene 1"><path class="cls-1" d="M2,9.75a4.39,4.39,0,0,0-.52,2V13.1h8V11.71a4.23,4.23,0,0,0-.53-2A28.9,28.9,0,0,0,6.52,7S8.38,4.69,8.86,3.84a4.48,4.48,0,0,0,.53-2V.48l-8,0V1.88a4.61,4.61,0,0,0,.53,2C2.44,4.7,4.3,7,4.3,7A29.08,29.08,0,0,0,2,9.75Z"/><line class="cls-2" x1="0.5" y1="13.1" x2="10.32" y2="13.09"/><line class="cls-2" x1="0.5" y1="0.51" x2="10.32" y2="0.5"/><path class="cls-3" d="M5.56,5.62l-.08.09-.07-.08c-.48-.51-1.12-1.23-1.6-1.8H7.16C6.69,4.39,6,5.12,5.56,5.62Z"/><path class="cls-3" d="M5.57,9.82c.47.5,1.12,1.22,1.59,1.79H3.81c.47-.56,1.12-1.29,1.6-1.79l.08-.08Z"/></g></g></svg>