<svg xmlns="http://www.w3.org/2000/svg" viewBox="0 0 22.3 26.77"><defs><style>.cls-1,.cls-3{fill:#fff;}.cls-1,.cls-2,.cls-5{stroke:#1d1d1b;}.cls-1,.cls-2{stroke-linejoin:round;}.cls-1,.cls-2,.cls-3{stroke-width:0.82px;}.cls-2{fill:#b8c9d9;}.cls-3{stroke:#9baab7;}.cls-3,.cls-5{stroke-miterlimit:10;}.cls-4{fill:#1d1d1b;}.cls-5{fill:#fff7cc;}</style></defs><title>License</title><g id="Ebene_2" data-name="Ebene 2"><g id="Ebene_1-2" data-name="Ebene 1"><path class="cls-1" d="M18.75,26.36H2.51V2C2.51,1.12,3,.41,3.68.41H21.13C20.48.41,20,1.12,20,2V24.72C20,25.63,19.42,26.36,18.75,26.36Z"/><path class="cls-2" d="M17.86,23.84H.41v1c0,.86.51,1.56,1.14,1.56H19c-.63,0-1.14-.7-1.14-1.56Z"/><line class="cls-3" x1="16.78" y1="6.74" x2="4.33" y2="6.74"/><line class="cls-3" x1="16.78" y1="9.77" x2="4.33" y2="9.77"/><line class="cls-3" x1="16.78" y1="12.8" x2="4.33" y2="12.8"/><line class="cls-3" x1="16.78" y1="15.83" x2="4.33" y2="15.83"/><polygon class="cls-4" points="17.62 12.65 17.69 20.22 15.77 18.64 13.86 20.22 13.92 12.65 17.62 12.65"/><polygon class="cls-5" points="15.77 6.14 17.69 5.23 18.39 7.23 20.39 7.94 19.48 9.85 20.39 11.77 18.39 12.48 17.69 14.48 15.77 13.56 13.86 14.48 13.15 12.48 11.15 11.77 12.06 9.85 11.15 7.94 13.15 7.23 13.86 5.23 15.77 6.14"/></g></g></svg>