<svg xmlns="http://www.w3.org/2000/svg" viewBox="0 0 35.1 26.46"><defs><style>.cls-1{fill:#b8c9d9;}.cls-2{fill:none;stroke-width:0.9px;}.cls-2,.cls-3{stroke:#1d1d1b;stroke-miterlimit:3.86;}.cls-3{fill:#fff;stroke-width:0.82px;}.cls-4{fill:#9baab7;}</style></defs><title>Metar_Repository</title><g id="Ebene_2" data-name="Ebene 2"><g id="Ebene_1-2" data-name="Ebene 1"><path class="cls-1" d="M25.77.45c-4.91,0-8.88,1.32-8.88,3V23.05c0,1.63,4,3,8.88,3s8.88-1.33,8.88-3V3.41C34.65,1.77,30.67.45,25.77.45Z"/><path class="cls-2" d="M16.89,3.41V23.05c0,1.63,4,3,8.88,3s8.88-1.33,8.88-3V3.41"/><ellipse class="cls-2" cx="25.77" cy="3.41" rx="8.88" ry="2.96"/><path class="cls-3" d="M32.34,19.86a2.11,2.11,0,0,1-2.19,2l-27.55,0a2.11,2.11,0,0,1-2.19-2V11.71a2.11,2.11,0,0,1,2.19-2l27.55.05a2.11,2.11,0,0,1,2.19,2Z"/><path class="cls-4" d="M12.18,11.47l.49,2.42h0l.5-2.42h1V14.9h-.63V12.16h0L13,14.9h-.54l-.61-2.74h0V14.9h-.63V11.47Z"/><path class="cls-4" d="M16.71,12H15.48v.8h1.15v.57H15.48v.92h1.27v.57h-2V11.47h1.92Z"/><path class="cls-4" d="M19.21,12h-.75V14.9h-.7V12H17v-.57h2.2Z"/><path class="cls-4" d="M20.86,11.47l.91,3.43h-.72l-.16-.73H20l-.15.73h-.73L20,11.47Zm-.09,2.14-.34-1.55h0l-.33,1.55Z"/><path class="cls-4" d="M5.45,16.47a.93.93,0,0,1,.67.22.83.83,0,0,1,.24.66,1,1,0,0,1-.14.57.64.64,0,0,1-.43.28h0a.59.59,0,0,1,.38.17.68.68,0,0,1,.15.41c0,.07,0,.14,0,.21v.25q0,.29,0,.42a.27.27,0,0,0,.13.2v0H5.75a.36.36,0,0,1-.07-.17c0-.06,0-.13,0-.19l0-.66a.53.53,0,0,0-.1-.32.38.38,0,0,0-.3-.11H4.87V19.9h-.7V16.47ZM5.15,18a.57.57,0,0,0,.39-.12.51.51,0,0,0,.13-.4A.42.42,0,0,0,5.19,17H4.87v1Z"/><path class="cls-4" d="M8.86,17H7.63v.8H8.79v.57H7.63v.92H8.9v.57h-2V16.47H8.86Z"/><path class="cls-4" d="M10.56,16.47a1,1,0,0,1,.44.09.74.74,0,0,1,.29.23.84.84,0,0,1,.16.33,1.58,1.58,0,0,1,.05.38,1.3,1.3,0,0,1-.08.46.83.83,0,0,1-.22.32,1,1,0,0,1-.34.19,1.63,1.63,0,0,1-.45.06H10V19.9H9.35V16.47ZM10.35,18a.43.43,0,0,0,.33-.13.49.49,0,0,0,.13-.38.64.64,0,0,0-.11-.4.46.46,0,0,0-.37-.13H10v1Z"/><path class="cls-4" d="M11.9,17.47a1.59,1.59,0,0,1,.16-.57.89.89,0,0,1,.35-.37A1.36,1.36,0,0,1,13,16.4a1.33,1.33,0,0,1,.62.13.89.89,0,0,1,.35.37,1.41,1.41,0,0,1,.16.57,5.14,5.14,0,0,1,0,.71,5.2,5.2,0,0,1,0,.72,1.41,1.41,0,0,1-.16.57.93.93,0,0,1-.35.36A1.34,1.34,0,0,1,13,20a1.37,1.37,0,0,1-.62-.12.93.93,0,0,1-.35-.36,1.59,1.59,0,0,1-.16-.57c0-.21,0-.45,0-.72S11.88,17.68,11.9,17.47Zm.67,1.3a1.93,1.93,0,0,0,.07.4.44.44,0,0,0,.14.22.49.49,0,0,0,.25.07.46.46,0,0,0,.25-.07.44.44,0,0,0,.14-.22,1.44,1.44,0,0,0,.07-.4c0-.16,0-.36,0-.59s0-.42,0-.58a1.44,1.44,0,0,0-.07-.4.44.44,0,0,0-.14-.22.39.39,0,0,0-.25-.07.41.41,0,0,0-.25.07.44.44,0,0,0-.14.22,1.93,1.93,0,0,0-.07.4c0,.16,0,.35,0,.58S12.56,18.61,12.57,18.77Z"/><path class="cls-4" d="M15.26,18.93a1.5,1.5,0,0,0,0,.22.39.39,0,0,0,.07.16.38.38,0,0,0,.14.11.73.73,0,0,0,.23,0,.43.43,0,0,0,.28-.11.37.37,0,0,0,.13-.32.64.64,0,0,0,0-.2.65.65,0,0,0-.1-.15l-.19-.12a2.45,2.45,0,0,0-.3-.11,2.4,2.4,0,0,1-.39-.17.89.89,0,0,1-.28-.21.85.85,0,0,1-.17-.29,1,1,0,0,1-.05-.37,1,1,0,0,1,.28-.76,1.13,1.13,0,0,1,.78-.25,1.86,1.86,0,0,1,.42.05,1.19,1.19,0,0,1,.34.16.89.89,0,0,1,.22.29,1.08,1.08,0,0,1,.08.42v.1h-.66A.69.69,0,0,0,16,17a.31.31,0,0,0-.29-.13.54.54,0,0,0-.19,0l-.12.09a.31.31,0,0,0-.06.13.39.39,0,0,0,0,.15.5.5,0,0,0,.07.27.59.59,0,0,0,.28.19l.54.24a1.07,1.07,0,0,1,.32.18.76.76,0,0,1,.2.2.64.64,0,0,1,.1.24,1.2,1.2,0,0,1,0,.28.94.94,0,0,1-.31.79,1.38,1.38,0,0,1-.88.25,1.16,1.16,0,0,1-.84-.25,1,1,0,0,1-.25-.73v-.14h.69Z"/><path class="cls-4" d="M17.33,16.47H18V19.9h-.69Z"/><path class="cls-4" d="M20.64,17h-.75V19.9h-.7V17h-.74v-.57h2.19Z"/><path class="cls-4" d="M21,17.47a1.82,1.82,0,0,1,.16-.57.86.86,0,0,1,.36-.37,1.33,1.33,0,0,1,.62-.13,1.39,1.39,0,0,1,.62.13.89.89,0,0,1,.35.37,1.82,1.82,0,0,1,.16.57c0,.21,0,.45,0,.71s0,.51,0,.72a1.82,1.82,0,0,1-.16.57.93.93,0,0,1-.35.36,1.4,1.4,0,0,1-.62.12,1.34,1.34,0,0,1-.62-.12.89.89,0,0,1-.36-.36A1.82,1.82,0,0,1,21,18.9q0-.31,0-.72C21,17.92,21,17.68,21,17.47Zm.68,1.3a2,2,0,0,0,.06.4.53.53,0,0,0,.15.22.44.44,0,0,0,.25.07.43.43,0,0,0,.24-.07.53.53,0,0,0,.15-.22,2,2,0,0,0,.06-.4c0-.16,0-.36,0-.59s0-.42,0-.58a2,2,0,0,0-.06-.4.53.53,0,0,0-.15-.22.36.36,0,0,0-.24-.07.37.37,0,0,0-.25.07.53.53,0,0,0-.15.22,2,2,0,0,0-.06.4c0,.16,0,.35,0,.58S21.66,18.61,21.67,18.77Z"/><path class="cls-4" d="M25.07,16.47a1,1,0,0,1,.68.22.83.83,0,0,1,.24.66,1.09,1.09,0,0,1-.14.57.66.66,0,0,1-.43.28h0a.61.61,0,0,1,.38.17.68.68,0,0,1,.14.41A1.49,1.49,0,0,1,26,19a2.18,2.18,0,0,0,0,.25,2.12,2.12,0,0,0,0,.42.29.29,0,0,0,.12.2v0h-.75a.51.51,0,0,1-.07-.17c0-.06,0-.13,0-.19l0-.66a.61.61,0,0,0-.1-.32.42.42,0,0,0-.31-.11h-.37V19.9H23.8V16.47ZM24.78,18a.56.56,0,0,0,.38-.12.51.51,0,0,0,.14-.4.43.43,0,0,0-.48-.47h-.33v1Z"/><path class="cls-4" d="M27.48,17.79h0L28,16.47h.75l-.89,2.08V19.9h-.69V18.55l-.89-2.08H27Z"/></g></g></svg>