<svg xmlns="http://www.w3.org/2000/svg" viewBox="0 0 37.24 18.21"><defs><style>.cls-1{fill:#1d1d1b;}.cls-2{fill:#d9e4eb;}.cls-3{fill:#d6e7f1;fill-rule:evenodd;}.cls-4{fill:#0d4252;}</style></defs><title>Middleware</title><g id="Ebene_2" data-name="Ebene 2"><g id="Ebene_1-2" data-name="Ebene 1"><rect class="cls-1" x="27.17" y="8.75" width="6.47" height="0.82"/><rect class="cls-2" x="33.43" y="7.5" width="3.31" height="3.31"/><path class="cls-1" d="M36.74,11.31H33.43a.5.5,0,0,1-.5-.5V7.5a.5.5,0,0,1,.5-.5h3.31a.5.5,0,0,1,.5.5v3.31A.5.5,0,0,1,36.74,11.31Zm-2.81-1h2.31V8H33.93Z"/><rect class="cls-2" x="33.43" y="0.5" width="3.31" height="3.31"/><path class="cls-1" d="M36.74,4.31H33.43a.51.51,0,0,1-.5-.5V.5a.5.5,0,0,1,.5-.5h3.31a.5.5,0,0,1,.5.5V3.81A.5.5,0,0,1,36.74,4.31Zm-2.81-1h2.31V1H33.93Z"/><rect class="cls-2" x="33.43" y="14.4" width="3.31" height="3.31"/><path class="cls-1" d="M36.74,18.21H33.43a.51.51,0,0,1-.5-.5V14.4a.5.5,0,0,1,.5-.5h3.31a.5.5,0,0,1,.5.5v3.31A.5.5,0,0,1,36.74,18.21Zm-2.81-1h2.31V14.9H33.93Z"/><polygon class="cls-1" points="28.84 5.54 28.02 5.54 28.02 1.75 33.64 1.75 33.64 2.56 28.84 2.56 28.84 5.54"/><polygon class="cls-1" points="33.64 16.46 28.02 16.46 28.02 5.35 28.84 5.35 28.84 15.64 33.64 15.64 33.64 16.46"/><rect class="cls-1" x="3.6" y="8.64" width="6.47" height="0.82"/><rect class="cls-2" x="0.5" y="7.4" width="3.31" height="3.31"/><path class="cls-1" d="M3.81,11.21H.5a.5.5,0,0,1-.5-.5V7.4a.5.5,0,0,1,.5-.5H3.81a.5.5,0,0,1,.5.5v3.31A.5.5,0,0,1,3.81,11.21ZM1,10.21H3.31V7.9H1Z"/><rect class="cls-2" x="0.5" y="14.4" width="3.31" height="3.31"/><path class="cls-1" d="M3.81,18.21H.5a.5.5,0,0,1-.5-.5V14.4a.5.5,0,0,1,.5-.5H3.81a.5.5,0,0,1,.5.5v3.31A.5.5,0,0,1,3.81,18.21ZM1,17.21H3.31V14.9H1Z"/><rect class="cls-2" x="0.5" y="0.5" width="3.31" height="3.31"/><path class="cls-1" d="M3.81,4.31H.5a.5.5,0,0,1-.5-.5V.5A.5.5,0,0,1,.5,0H3.81a.5.5,0,0,1,.5.5V3.81A.5.5,0,0,1,3.81,4.31ZM1,3.31H3.31V1H1Z"/><polygon class="cls-1" points="9.22 16.46 3.6 16.46 3.6 15.64 8.4 15.64 8.4 12.66 9.22 12.66 9.22 16.46"/><polygon class="cls-1" points="9.22 12.86 8.4 12.86 8.4 2.56 3.6 2.56 3.6 1.75 9.22 1.75 9.22 12.86"/><path class="cls-3" d="M26.6,7.46H25.26a6.46,6.46,0,0,0-.75-1.79l.95-1a.42.42,0,0,0,0-.59L23.69,2.36a.41.41,0,0,0-.58,0l-.95,1a6.48,6.48,0,0,0-1.76-.73l0-.05V1.22A.44.44,0,0,0,19.94.8h-2.5a.43.43,0,0,0-.41.42V2.56a7,7,0,0,0-1.8.75l-1-1a.42.42,0,0,0-.59,0L11.92,4.12a.44.44,0,0,0,0,.59l.95,1a6.17,6.17,0,0,0-.73,1.75l-.05,0h-1.3a.43.43,0,0,0-.42.42v2.5a.42.42,0,0,0,.42.41h1.34a6.63,6.63,0,0,0,.74,1.8l-.95.95a.44.44,0,0,0,0,.59l1.77,1.76a.42.42,0,0,0,.59,0l1-1a6,6,0,0,0,1.76.73l0,.06V17a.42.42,0,0,0,.41.42h2.5a.43.43,0,0,0,.42-.42V15.69a6.47,6.47,0,0,0,1.8-.75l.95,1a.41.41,0,0,0,.58,0l1.77-1.76a.42.42,0,0,0,0-.59l-.95-.95a6.35,6.35,0,0,0,.73-1.76l.05,0H26.6a.43.43,0,0,0,.42-.41V7.88A.44.44,0,0,0,26.6,7.46Z"/><path class="cls-4" d="M19.94,17.84h-2.5a.82.82,0,0,1-.8-.8V16a6.28,6.28,0,0,1-1.35-.55l-.73.74a.83.83,0,0,1-1.15,0L11.65,14.4a.81.81,0,0,1,0-1.13l.74-.74a7.25,7.25,0,0,1-.56-1.35h-1a.82.82,0,0,1-.81-.8V7.88a.82.82,0,0,1,.81-.81h1a6.55,6.55,0,0,1,.56-1.34L11.65,5a.81.81,0,0,1-.23-.57.78.78,0,0,1,.23-.57l1.76-1.77a.83.83,0,0,1,1.14,0l.74.74a7.21,7.21,0,0,1,1.35-.55v-1a.82.82,0,0,1,.8-.81h2.5a.82.82,0,0,1,.81.81V2.27a7.12,7.12,0,0,1,1.34.55l.74-.74a.83.83,0,0,1,1.14,0l1.77,1.77a.81.81,0,0,1,0,1.14L25,5.73a7.41,7.41,0,0,1,.55,1.34H26.6a.82.82,0,0,1,.81.81v2.5a.82.82,0,0,1-.81.8H25.55A7.5,7.5,0,0,1,25,12.53l.74.74a.81.81,0,0,1,0,1.14L24,16.17a.86.86,0,0,1-1.14,0l-.74-.74a7.45,7.45,0,0,1-1.34.56v1A.82.82,0,0,1,19.94,17.84Zm-4.77-3.38.26.15a6.09,6.09,0,0,0,1.65.69l.14,0,.16.22,0,.18V17l2.52,0,0-1.67.29-.08a6.16,6.16,0,0,0,1.7-.7l.26-.15,1.16,1.16,1.8-1.77L24,12.65l.16-.26a6.06,6.06,0,0,0,.68-1.65l0-.14.21-.16.18,0H26.6l0-2.52,0,0H25l-.07-.29a6.28,6.28,0,0,0-.7-1.69L24,5.6l1.16-1.16L23.42,2.63,22.22,3.8,22,3.64A6,6,0,0,0,20.3,3l-.14,0L20,2.7l0-.17V1.22l-2.53,0,0,1.68-.3.07a6.28,6.28,0,0,0-1.69.7l-.26.16L14,2.63,12.2,4.4l1.16,1.21-.15.26a6.14,6.14,0,0,0-.69,1.65l0,.12-.21.17-.19,0h-1.3l0,2.53,1.67,0,.07.3a6.59,6.59,0,0,0,.71,1.69l.15.26L12.2,13.82,14,15.62Z"/></g></g></svg>