<svg xmlns="http://www.w3.org/2000/svg" viewBox="0 0 49.44 34.59"><defs><style>.cls-1,.cls-3{fill:#b8c9d9;}.cls-1{stroke:#1e1e1c;stroke-width:0.82px;}.cls-1,.cls-4,.cls-5,.cls-6{stroke-miterlimit:10;}.cls-2{fill:#fff;}.cls-4{fill:none;}.cls-4,.cls-5{stroke:#1d1d1b;stroke-width:0.82px;}.cls-5{fill:#d9e4eb;}.cls-6{fill:#d6e7f1;stroke:#0d4252;stroke-width:0.78px;fill-rule:evenodd;}</style></defs><title>Middleware_Interface_Repository</title><g id="Ebene_2" data-name="Ebene 2"><g id="Ebene_1-2" data-name="Ebene 1"><g id="Ebene_2-2" data-name="Ebene 2"><g id="Ebene_1-2-2" data-name="Ebene 1-2"><rect class="cls-1" x="0.41" y="0.41" width="35.99" height="21.34"/><rect class="cls-2" x="4.8" y="4.61" width="5.41" height="15.07" rx="0.79" ry="0.79"/><rect class="cls-3" x="5.39" y="7.48" width="4.25" height="0.76"/><rect class="cls-3" x="5.39" y="10.21" width="4.25" height="0.76"/><rect class="cls-2" x="12.01" y="3.86" width="4.25" height="15.83" rx="0.79" ry="0.79"/><rect class="cls-3" x="12.71" y="6.72" width="2.83" height="0.76"/><rect class="cls-3" x="12.71" y="9.45" width="2.83" height="0.76"/><rect class="cls-2" x="18.04" y="5.13" width="5.41" height="14.55" rx="0.79" ry="0.79"/><rect class="cls-3" x="18.63" y="7.7" width="4.25" height="0.76"/><rect class="cls-3" x="18.63" y="10.43" width="4.25" height="0.76"/><rect class="cls-2" x="26.09" y="4.69" width="5.41" height="14.55" rx="0.79" ry="0.79" transform="translate(-2.09 7.65) rotate(-14.61)"/><rect class="cls-3" x="25.58" y="7.4" width="4.25" height="0.76" transform="translate(-1.07 7.24) rotate(-14.61)"/><rect class="cls-3" x="26.27" y="10.04" width="4.25" height="0.76" transform="translate(-1.71 7.5) rotate(-14.61)"/></g></g><line class="cls-4" x1="33.95" y1="29.4" x2="30.37" y2="29.4"/><rect class="cls-5" x="28.65" y="28.48" width="1.83" height="1.83"/><rect class="cls-5" x="28.65" y="32.36" width="1.83" height="1.83"/><rect class="cls-5" x="28.65" y="24.67" width="1.83" height="1.83"/><polyline class="cls-4" points="30.37 25.58 32.93 25.58 32.93 33.27 30.37 33.27"/><line class="cls-4" x1="43.74" y1="29.4" x2="47.32" y2="29.4"/><rect class="cls-5" x="47.2" y="28.48" width="1.83" height="1.83"/><rect class="cls-5" x="47.2" y="32.36" width="1.83" height="1.83"/><rect class="cls-5" x="47.2" y="24.67" width="1.83" height="1.83"/><polyline class="cls-4" points="47.32 25.58 44.75 25.58 44.75 33.27 47.32 33.27"/><path class="cls-6" d="M43.23,28.52h-.74a3.83,3.83,0,0,0-.41-1L42.6,27a.24.24,0,0,0,0-.33l-1-1a.26.26,0,0,0-.33,0l-.53.53a3.48,3.48,0,0,0-1-.4l0,0v-.73a.24.24,0,0,0-.23-.23H38.17a.23.23,0,0,0-.23.23v.75a3.83,3.83,0,0,0-1,.41l-.52-.53a.26.26,0,0,0-.33,0l-1,1a.26.26,0,0,0,0,.33l.53.52a3.7,3.7,0,0,0-.41,1l0,0h-.73a.24.24,0,0,0-.23.23v1.38a.24.24,0,0,0,.23.23h.74a4.41,4.41,0,0,0,.42,1l-.53.52a.26.26,0,0,0,0,.33l1,1a.24.24,0,0,0,.33,0l.52-.52a3.67,3.67,0,0,0,1,.4l0,0v.72a.23.23,0,0,0,.23.24h1.38a.24.24,0,0,0,.23-.24v-.74a3.76,3.76,0,0,0,1-.41l.53.52a.24.24,0,0,0,.33,0l1-1a.24.24,0,0,0,0-.33l-.52-.52a3.67,3.67,0,0,0,.4-1l0,0h.72a.23.23,0,0,0,.23-.23V28.75A.23.23,0,0,0,43.23,28.52Z"/></g></g></svg>