<svg xmlns="http://www.w3.org/2000/svg" viewBox="0 0 13.44 10.41"><defs><style>.cls-1{fill:#0d4252;}</style></defs><title>Multiuser</title><g id="Ebene_2" data-name="Ebene 2"><g id="Ebene_1-2" data-name="Ebene 1"><path class="cls-1" d="M12.63,4.29H11V9h2.46V5.09A.81.81,0,0,0,12.63,4.29Z"/><path class="cls-1" d="M12,2.52a1.27,1.27,0,1,0-1.27,1.26A1.27,1.27,0,0,0,12,2.52Z"/><circle class="cls-1" cx="6.72" cy="1.75" r="1.75"/><path class="cls-1" d="M4,2.52a1.27,1.27,0,1,0-2.53,0A1.27,1.27,0,0,0,4,2.52Z"/><path class="cls-1" d="M0,5.09V9H2.45V4.29H.81A.8.8,0,0,0,0,5.09Z"/><path class="cls-1" d="M9.84,4.29a1.15,1.15,0,0,0-.61-.18h-5a1.15,1.15,0,0,0-.61.18,1.08,1.08,0,0,0-.48.9v5.22H4.67V6h.6v4.4h2.9V6h.6v4.4h1.55V5.19A1.08,1.08,0,0,0,9.84,4.29Z"/></g></g></svg>