<svg xmlns="http://www.w3.org/2000/svg" viewBox="0 0 35.24 22.7"><defs><style>.cls-1{fill:#fac495;stroke:#e94e1b;stroke-linejoin:bevel;stroke-width:0.82px;}.cls-2{fill:none;}.cls-2,.cls-3{stroke:#1d1d1b;stroke-linecap:round;stroke-linejoin:round;stroke-width:0.82px;}.cls-3{fill:#e3edfa;}</style></defs><title>Network_Firewall</title><g id="Ebene_2" data-name="Ebene 2"><g id="Ebene_1-2" data-name="Ebene 1"><rect class="cls-1" x="9.03" y="2.62" width="11.53" height="5.93"/><rect class="cls-1" x="20.56" y="2.62" width="11.49" height="5.93"/><polygon class="cls-1" points="23.35 0.41 11.82 0.41 9.03 2.62 20.56 2.62 23.35 0.41"/><polygon class="cls-1" points="34.84 0.41 23.35 0.41 20.56 2.62 32.05 2.62 34.84 0.41"/><rect class="cls-1" x="9.03" y="14.5" width="11.53" height="5.93"/><rect class="cls-1" x="20.56" y="14.5" width="11.49" height="5.93"/><rect class="cls-1" x="9.03" y="8.56" width="5.49" height="5.93"/><rect class="cls-1" x="14.52" y="8.56" width="11.49" height="5.93"/><rect class="cls-1" x="26.01" y="8.56" width="6.04" height="5.93"/><polygon class="cls-1" points="32.05 8.56 34.84 6.34 34.84 0.41 32.05 2.62 32.05 8.56"/><polygon class="cls-1" points="32.05 20.44 34.84 18.22 34.84 12.29 32.05 14.5 32.05 20.44"/><polygon class="cls-1" points="32.05 14.49 34.84 12.28 34.84 6.34 32.05 8.56 32.05 14.49"/><line class="cls-2" x1="3.68" y1="20.8" x2="6.91" y2="20.8"/><line class="cls-2" x1="10.64" y1="20.8" x2="13.87" y2="20.8"/><line class="cls-2" x1="8.81" y1="18.77" x2="8.81" y2="17.09"/><rect class="cls-3" x="7.21" y="19.02" width="3.28" height="3.28"/><rect class="cls-3" x="5.14" y="11.62" width="7.42" height="5.46"/><rect class="cls-3" x="0.41" y="19.02" width="3.28" height="3.28"/><rect class="cls-3" x="13.98" y="19.02" width="3.28" height="3.28"/></g></g></svg>