<svg xmlns="http://www.w3.org/2000/svg" viewBox="0 0 24.39 37.04"><defs><style>.cls-1,.cls-4{fill:none;}.cls-1,.cls-2,.cls-4{stroke:#1d1d1b;}.cls-1,.cls-2{stroke-linejoin:round;stroke-width:0.82px;}.cls-1{fill-rule:evenodd;}.cls-2{fill:#d6e7f1;}.cls-3{fill:#1d1d1b;}.cls-4{stroke-linecap:round;stroke-miterlimit:10;stroke-width:1.5px;}</style></defs><title>Network_WLAN</title><g id="Ebene_2" data-name="Ebene 2"><g id="Ebene_1-2" data-name="Ebene 1"><polygon class="cls-1" points="12.19 2.71 2.71 9.6 6.33 20.75 18.06 20.75 21.68 9.6 12.19 2.71"/><polyline class="cls-1" points="18.07 20.54 12.19 2.71 6.34 20.75 21.68 9.61 2.71 9.6 18.07 20.75"/><circle class="cls-2" cx="2.71" cy="9.6" r="2.3"/><circle class="cls-2" cx="12.19" cy="2.71" r="2.3"/><circle class="cls-2" cx="21.68" cy="9.61" r="2.3"/><circle class="cls-2" cx="18.07" cy="20.75" r="2.3"/><circle class="cls-2" cx="6.34" cy="20.75" r="2.3"/><circle class="cls-3" cx="12.23" cy="35.8" r="1.25"/><path class="cls-4" d="M8.89,31.92a6.54,6.54,0,0,1,6.62.06"/><path class="cls-4" d="M6.69,29.79a9.51,9.51,0,0,1,11,.07"/><path class="cls-4" d="M4.52,27.69a12.46,12.46,0,0,1,15.34.08"/></g></g></svg>