<svg xmlns="http://www.w3.org/2000/svg" viewBox="0 0 35.31 39.32"><defs><style>.cls-1,.cls-3{fill:none;}.cls-1,.cls-2,.cls-3{stroke:#1d1d1b;stroke-linejoin:round;stroke-width:0.82px;}.cls-1{fill-rule:evenodd;}.cls-2{fill:#d6e7f1;}.cls-4{fill:#1d1d1b;}</style></defs><title>Network_LAN</title><g id="Ebene_2" data-name="Ebene 2"><g id="Ebene_1-2" data-name="Ebene 1"><polygon class="cls-1" points="17.83 2.71 8.34 9.6 11.96 20.75 23.69 20.75 27.31 9.6 17.83 2.71"/><polyline class="cls-1" points="23.7 20.54 17.83 2.71 11.97 20.75 27.31 9.61 8.34 9.6 23.7 20.75"/><circle class="cls-2" cx="8.34" cy="9.6" r="2.3"/><circle class="cls-2" cx="17.83" cy="2.71" r="2.3"/><circle class="cls-2" cx="27.31" cy="9.61" r="2.3"/><circle class="cls-2" cx="23.7" cy="20.75" r="2.3"/><circle class="cls-2" cx="11.97" cy="20.75" r="2.3"/><line class="cls-3" x1="17.65" y1="39.32" x2="17.65" y2="31.89"/><line class="cls-3" x1="7.16" y1="31.89" x2="7.16" y2="24.46"/><line class="cls-3" x1="28.15" y1="31.89" x2="28.15" y2="24.46"/><path class="cls-3" d="M35.31,31.86H0"/><rect class="cls-4" x="15.55" y="29.78" width="4.17" height="4.17"/><rect class="cls-4" x="5.07" y="29.78" width="4.17" height="4.17"/><rect class="cls-4" x="26.07" y="29.78" width="4.17" height="4.17"/></g></g></svg>