<svg xmlns="http://www.w3.org/2000/svg" viewBox="0 0 24.39 37.18"><defs><style>.cls-1,.cls-3,.cls-5{fill:none;}.cls-1,.cls-2,.cls-3,.cls-5{stroke:#1d1d1b;}.cls-1,.cls-2,.cls-3{stroke-linejoin:round;stroke-width:0.82px;}.cls-1{fill-rule:evenodd;}.cls-2{fill:#d6e7f1;}.cls-4{fill:#1d1d1b;}.cls-5{stroke-miterlimit:3.86;stroke-width:0.82px;}</style></defs><title>Network_WAN</title><g id="Ebene_2" data-name="Ebene 2"><g id="Ebene_1-2" data-name="Ebene 1"><polygon class="cls-1" points="12.19 2.71 2.71 9.6 6.33 20.75 18.06 20.75 21.68 9.6 12.19 2.71"/><polyline class="cls-1" points="18.07 20.54 12.19 2.71 6.34 20.75 21.68 9.61 2.71 9.6 18.07 20.75"/><circle class="cls-2" cx="2.71" cy="9.6" r="2.3"/><circle class="cls-2" cx="12.19" cy="2.71" r="2.3"/><circle class="cls-2" cx="21.68" cy="9.61" r="2.3"/><circle class="cls-2" cx="18.07" cy="20.75" r="2.3"/><circle class="cls-2" cx="6.34" cy="20.75" r="2.3"/><path class="cls-3" d="M21.2,35.1H4.4"/><rect class="cls-4" x="1.56" y="33.01" width="4.17" height="4.17"/><rect class="cls-4" x="18.5" y="33.01" width="4.17" height="4.17"/><ellipse class="cls-5" cx="11.93" cy="28.07" rx="5.1" ry="4.26"/><ellipse class="cls-5" cx="11.93" cy="28.07" rx="2.83" ry="4.26"/><line class="cls-5" x1="6.83" y1="28.07" x2="17.05" y2="28.07"/><line class="cls-5" x1="11.94" y1="32.34" x2="11.94" y2="23.8"/></g></g></svg>