<svg xmlns="http://www.w3.org/2000/svg" viewBox="0 0 46.54 29.56"><defs><style>.cls-1{fill:#fff;}.cls-1,.cls-2,.cls-3{stroke:#1d1d1b;stroke-miterlimit:10;stroke-width:0.82px;}.cls-2{fill:#d9e5ec;}.cls-2,.cls-3{stroke-linecap:round;}.cls-3{fill:none;}.cls-4{fill:#1d1d1b;}</style></defs><title>Object_Model</title><g id="Ebene_2" data-name="Ebene 2"><g id="Ebene_1-2" data-name="Ebene 1"><rect class="cls-1" x="0.41" y="0.41" width="45.73" height="28.75"/><rect class="cls-2" x="15.9" y="3.43" width="14.68" height="9.8"/><line class="cls-3" x1="15.9" y1="5.97" x2="30.58" y2="5.97"/><rect class="cls-2" x="33.53" y="18.83" width="9.14" height="6.52"/><line class="cls-3" x1="33.53" y1="21.1" x2="42.67" y2="21.1"/><rect class="cls-2" x="18.67" y="18.83" width="9.14" height="6.52"/><line class="cls-3" x1="18.67" y1="21.1" x2="27.81" y2="21.1"/><rect class="cls-2" x="3.88" y="18.83" width="9.14" height="6.52"/><line class="cls-3" x1="3.88" y1="21.1" x2="13.02" y2="21.1"/><line class="Outline-Ende-Rund-10" x1="15.09" y1="22.43" x2="18.67" y2="22.43"/><rect class="cls-4" x="13.76" y="21.37" width="2.14" height="2.14" transform="translate(-11.52 17.06) rotate(-45)"/><line class="cls-3" x1="31.38" y1="22.43" x2="27.81" y2="22.43"/><line class="cls-3" x1="23.27" y1="15.33" x2="23.27" y2="18.37"/><polygon class="cls-4" points="22.09 15.67 23.27 13.63 24.45 15.67 22.09 15.67"/><rect class="cls-4" x="30.58" y="21.37" width="2.14" height="2.14" transform="translate(69.88 15.92) rotate(135)"/></g></g></svg>