<svg xmlns="http://www.w3.org/2000/svg" viewBox="0 0 24.7 26.46"><defs><style>.cls-1{fill:#b8c9d9;}.cls-2,.cls-4,.cls-5,.cls-6,.cls-7{fill:none;}.cls-2,.cls-3,.cls-4,.cls-5,.cls-6,.cls-7{stroke:#1d1d1b;}.cls-2,.cls-7{stroke-miterlimit:3.86;}.cls-2{stroke-width:0.9px;}.cls-3{fill:#fff;}.cls-3,.cls-5,.cls-6,.cls-7{stroke-linecap:round;}.cls-3,.cls-4,.cls-5,.cls-6{stroke-linejoin:round;}.cls-3,.cls-6{stroke-width:0.82px;}.cls-4,.cls-5,.cls-7{stroke-width:0.6px;}</style></defs><title>Olap_Database</title><g id="Ebene_2" data-name="Ebene 2"><g id="Ebene_1-2" data-name="Ebene 1"><path class="cls-1" d="M15.37.45c-4.91,0-8.88,1.32-8.88,3V23.05c0,1.63,4,3,8.88,3s8.88-1.33,8.88-3V3.41C24.25,1.77,20.27.45,15.37.45Z"/><path class="cls-2" d="M6.49,3.41V23.05c0,1.63,4,3,8.88,3s8.88-1.33,8.88-3V3.41"/><ellipse class="cls-2" cx="15.37" cy="3.41" rx="8.88" ry="2.96"/><polygon class="cls-3" points="9.69 8.92 9.69 8.92 4.52 8.92 4.51 8.93 2.48 10.62 2.47 10.62 2.46 10.63 0.41 12.33 0.41 17.42 0.41 17.43 0.41 22.52 5.58 22.52 5.58 22.52 5.58 22.52 10.75 22.52 12.79 20.83 12.81 20.83 14.86 19.12 14.86 19 14.86 14.02 14.86 14.02 14.86 14.02 14.86 13.9 14.86 8.92 9.69 8.92 9.69 8.92"/><line class="cls-4" x1="7.64" y1="10.63" x2="9.68" y2="8.93"/><line class="cls-4" x1="12.81" y1="10.63" x2="7.64" y2="10.63"/><line class="cls-5" x1="14.86" y1="14.02" x2="12.81" y2="15.73"/><line class="cls-4" x1="7.64" y1="10.62" x2="5.58" y2="12.33"/><line class="cls-4" x1="2.47" y1="10.62" x2="7.64" y2="10.62"/><line class="cls-6" x1="5.58" y1="12.33" x2="0.41" y2="12.33"/><line class="cls-6" x1="5.58" y1="17.43" x2="0.41" y2="17.43"/><line class="cls-6" x1="10.75" y1="22.52" x2="10.75" y2="17.42"/><line class="cls-7" x1="12.81" y1="20.7" x2="12.81" y2="15.72"/><line class="cls-6" x1="5.58" y1="22.52" x2="5.58" y2="17.42"/><line class="cls-6" x1="10.75" y1="17.42" x2="10.75" y2="12.33"/><line class="cls-7" x1="12.81" y1="15.6" x2="12.81" y2="10.62"/><line class="cls-6" x1="5.58" y1="17.43" x2="5.58" y2="12.33"/><polyline class="cls-6" points="10.75 12.33 7.63 12.33 5.58 12.33"/><line class="cls-5" x1="12.81" y1="15.72" x2="10.75" y2="17.43"/><line class="cls-6" x1="10.75" y1="17.43" x2="5.58" y2="17.43"/><line class="cls-6" x1="14.86" y1="8.92" x2="10.75" y2="12.33"/></g></g></svg>