<svg xmlns="http://www.w3.org/2000/svg" viewBox="0 0 15.38 18.53"><defs><style>.cls-1{fill:#0d4252;}.cls-2{fill:none;stroke:#1d1d1b;stroke-linecap:round;stroke-linejoin:round;stroke-width:0.82px;}.cls-3{fill:#1d1d1b;}</style></defs><title>Operation_Maintenance</title><g id="Ebene_2" data-name="Ebene 2"><g id="Ebene_1-2" data-name="Ebene 1"><path class="cls-1" d="M8.14,7.84,4,12a.8.8,0,0,0,0,1.14H4a.8.8,0,0,0,1.14,0L9.29,9a2,2,0,0,0,2.56-2.56L10.78,7.49l-.9-.24-.24-.9L10.7,5.28A2,2,0,0,0,8.14,7.84Z"/><path class="cls-2" d="M3.67,15.43A7.28,7.28,0,0,1,9,2.2"/><path class="cls-2" d="M12.21,3.65A7.28,7.28,0,0,1,6.35,16.51"/><path class="cls-3" d="M9.48,2,8,.13a.35.35,0,0,0-.49,0l0,0a.35.35,0,0,0,0,.49l.83,1,.4.51-.4.31L7,3.34a.35.35,0,0,0-.09.48l0,.05A.35.35,0,0,0,7.42,4L9.33,2.61A.44.44,0,0,0,9.48,2Z"/><path class="cls-3" d="M5.29,16.58,6.76,18.4a.34.34,0,0,0,.48.05l0,0a.36.36,0,0,0,0-.49l-.83-1-.41-.51.41-.31,1.27-.9a.34.34,0,0,0,.09-.48l0,0a.34.34,0,0,0-.48-.09L5.44,15.91A.45.45,0,0,0,5.29,16.58Z"/></g></g></svg>