<svg xmlns="http://www.w3.org/2000/svg" viewBox="0 0 26.57 19.34"><defs><style>.cls-1{fill:#d6e7f1;stroke:#0d4252;stroke-width:0.82px;fill-rule:evenodd;}.cls-1,.cls-2{stroke-miterlimit:10;}.cls-2{fill:#e94e1b;stroke:#fff;}</style></defs><title>OS_Kernel_2</title><g id="Ebene_2" data-name="Ebene 2"><g id="Ebene_1-2" data-name="Ebene 1"><path class="cls-1" d="M11.39,9.21l-.89-.08a4.28,4.28,0,0,0-.39-1.24l.69-.58a.27.27,0,0,0,0-.39L9.77,5.63a.28.28,0,0,0-.39,0l-.69.57a4.29,4.29,0,0,0-1.12-.59l0,0,.09-.87a.29.29,0,0,0-.26-.3L5.71,4.21a.29.29,0,0,0-.3.25l-.09.9a4.82,4.82,0,0,0-1.24.38l-.57-.69a.29.29,0,0,0-.4,0L1.83,6.08a.29.29,0,0,0,0,.39l.58.7a4.16,4.16,0,0,0-.6,1.12l0,0L.87,8.23a.3.3,0,0,0-.31.26L.41,10.15a.28.28,0,0,0,.25.3l.89.08a4.44,4.44,0,0,0,.39,1.25l-.69.57a.28.28,0,0,0,0,.39L2.28,14a.28.28,0,0,0,.39,0l.69-.57a4.19,4.19,0,0,0,1.13.59l0,0L4.43,15a.3.3,0,0,0,.25.31l1.66.15a.3.3,0,0,0,.31-.25l.08-.9A4.7,4.7,0,0,0,8,13.92l.58.69a.28.28,0,0,0,.39,0l1.28-1.06a.28.28,0,0,0,0-.39l-.57-.69a4.5,4.5,0,0,0,.59-1.13l0,0,.87.08a.29.29,0,0,0,.3-.25l.16-1.67A.29.29,0,0,0,11.39,9.21Z"/><path class="cls-1" d="M25.88,12.26H25a4.1,4.1,0,0,0-.49-1.2l.63-.64a.28.28,0,0,0,0-.4L23.94,8.85a.27.27,0,0,0-.39,0l-.64.63A4.46,4.46,0,0,0,21.74,9l0,0V8.08a.29.29,0,0,0-.28-.28H19.76a.29.29,0,0,0-.28.28V9a4.69,4.69,0,0,0-1.2.5l-.63-.63a.28.28,0,0,0-.4,0L16.07,10a.3.3,0,0,0,0,.4l.64.64a4.2,4.2,0,0,0-.49,1.17l0,0h-.87a.29.29,0,0,0-.28.28V14.2a.29.29,0,0,0,.28.28h.9a4.61,4.61,0,0,0,.5,1.21l-.64.63a.29.29,0,0,0,0,.39l1.18,1.18a.28.28,0,0,0,.4,0l.63-.63a4.39,4.39,0,0,0,1.18.49l0,0v.88a.29.29,0,0,0,.28.28h1.67a.29.29,0,0,0,.28-.28v-.9a4.54,4.54,0,0,0,1.2-.5l.64.63a.27.27,0,0,0,.39,0l1.18-1.18a.27.27,0,0,0,0-.39l-.63-.63A4.07,4.07,0,0,0,25,14.51l0,0h.87a.29.29,0,0,0,.28-.28V12.54A.29.29,0,0,0,25.88,12.26Z"/><path class="cls-1" d="M22.43,6.64H21.17A6.39,6.39,0,0,0,20.48,5l.88-.89a.39.39,0,0,0,0-.55L19.71,1.86a.41.41,0,0,0-.55,0l-.89.89a5.92,5.92,0,0,0-1.64-.68l0,0V.8A.4.4,0,0,0,16.2.41H13.86a.4.4,0,0,0-.39.39V2.05a6.71,6.71,0,0,0-1.68.7l-.89-.89a.41.41,0,0,0-.55,0L8.7,3.52a.39.39,0,0,0,0,.55L9.59,5A5.82,5.82,0,0,0,8.9,6.6l0,0H7.63A.4.4,0,0,0,7.24,7V9.36a.4.4,0,0,0,.39.39H8.89a6.28,6.28,0,0,0,.7,1.69l-.89.89a.39.39,0,0,0,0,.55l1.65,1.65a.39.39,0,0,0,.55,0l.89-.89a5.86,5.86,0,0,0,1.65.68l0,0v1.22a.4.4,0,0,0,.39.39H16.2a.4.4,0,0,0,.39-.39V14.34a6.22,6.22,0,0,0,1.68-.7l.89.89a.39.39,0,0,0,.55,0l1.65-1.65a.39.39,0,0,0,0-.55l-.88-.89a6.31,6.31,0,0,0,.68-1.65l.05,0h1.22a.4.4,0,0,0,.39-.39V7A.4.4,0,0,0,22.43,6.64Z"/><circle class="cls-2" cx="15.03" cy="8.2" r="3.54"/></g></g></svg>