<svg xmlns="http://www.w3.org/2000/svg" viewBox="0 0 33.35 30.67"><defs><style>.cls-1{fill:#d9e5ec;}.cls-2{fill:#c4c4c4;}.cls-3{fill:#fff;}.cls-10,.cls-4,.cls-5{fill:none;}.cls-4,.cls-5,.cls-6{stroke:#1d1d1b;}.cls-4,.cls-5{stroke-linejoin:round;}.cls-4{stroke-width:0.82px;}.cls-5{stroke-width:0.84px;}.cls-6{fill:#b8c9d9;stroke-miterlimit:3.86;stroke-width:0.82px;}.cls-7,.cls-8,.cls-9{fill:#9baab7;}.cls-8{stroke:#dbe5f1;}.cls-10,.cls-8,.cls-9{stroke-miterlimit:10;}.cls-10,.cls-9{stroke:#0d4252;}</style></defs><title>Persistency_Framework</title><g id="Ebene_2" data-name="Ebene 2"><g id="Ebene_1-2" data-name="Ebene 1"><rect class="cls-1" x="6.44" y="6.46" width="26.5" height="18.45"/><path class="cls-2" d="M32.94.41V6.46H6.44v-6ZM31,4.52V2.41H12.8V4.52Zm-20,0V2.41H8.31V4.52Z"/><rect class="cls-3" x="12.8" y="2.41" width="18.2" height="2.11"/><rect class="cls-2" x="8.31" y="2.41" width="2.71" height="2.11"/><polygon class="cls-4" points="32.94 6.46 32.94 24.91 6.44 24.91 6.44 6.46 6.44 0.41 32.94 0.41 32.94 6.46"/><line class="cls-4" x1="32.94" y1="6.46" x2="6.44" y2="6.46"/><rect class="cls-5" x="8.31" y="2.41" width="2.71" height="2.11"/><path class="cls-6" d="M.41,17.77V28.38c0,1,2.53,1.88,5.64,1.88s5.65-.84,5.65-1.88V17.77Z"/><path class="cls-6" d="M11.7,17.77c0,1-2.53,1.89-5.65,1.89S.41,18.81.41,17.77s2.53-1.88,5.64-1.88S11.7,16.73,11.7,17.77Z"/><path class="cls-7" d="M25.52,9l-.92-.22-.4,1.64c0,.12-.14.23-.25.19s-.16-.2-.48-.29a1,1,0,0,0-1,.45A1,1,0,0,0,23,12.28a1.07,1.07,0,0,0,.53-.06.18.18,0,0,1,.19.22l-.4,1.63,2.73.67a.22.22,0,0,0,.25-.23,3.76,3.76,0,0,1,0-.48.87.87,0,0,1,1-.39c.48.12.82.49.74.8s-.27.28-.33.41a.25.25,0,0,0,.16.33l2.72.67.31-1.25.08-.31.71-2.91A.86.86,0,0,0,31,10.33Z"/><path class="cls-7" d="M21.35,20.5a.5.5,0,0,1,.2-.39.49.49,0,0,1,.44-.06.6.6,0,0,1,.16.08.41.41,0,0,0,.24.08.71.71,0,0,0,.62-.74.73.73,0,0,0-.62-.79.41.41,0,0,0-.24.08.6.6,0,0,1-.16.08.5.5,0,0,1-.44-.06.5.5,0,0,1-.2-.39V17.22H18.88a.88.88,0,0,1,.11.43,1.29,1.29,0,0,1-1.34,1.22,1.31,1.31,0,0,1-1.4-1.22.82.82,0,0,1,.11-.43H13.89v4.23a.87.87,0,0,0,.87.86h6.59Z"/><path class="cls-7" d="M17,16.82a.47.47,0,0,1,.07.43.68.68,0,0,1-.09.17.42.42,0,0,0-.08.23.7.7,0,0,0,.74.62c.46,0,.8-.28.8-.62a.42.42,0,0,0-.08-.23.68.68,0,0,1-.09-.17.47.47,0,0,1,.07-.43.46.46,0,0,1,.39-.2h2.67V15a.22.22,0,0,0-.28-.18,3.09,3.09,0,0,1-.46.12c-.24,0-.62-.39-.62-.86s.29-.91.6-.91.34.2.48.23a.26.26,0,0,0,.28-.23V11.36H14.76a.87.87,0,0,0-.87.87v4.39h2.67A.46.46,0,0,1,17,16.82Z"/><path class="cls-7" d="M26,16.84c-.13,0-.26-.08-.25-.2s.16-.2.17-.53a1,1,0,0,0-2,0,1,1,0,0,0,.18.49.18.18,0,0,1-.17.24H22v1.34a1.1,1.1,0,0,1,.44-.1,1.29,1.29,0,0,1,1.22,1.34,1.31,1.31,0,0,1-1.22,1.39,1,1,0,0,1-.44-.1v1.6h5.88a.87.87,0,0,0,.87-.86V16.84Z"/><path class="cls-8" d="M21.35,11.36H14.76a.87.87,0,0,0-.87.87v4.6"/><path class="cls-8" d="M21.35,11.36H14.76a.87.87,0,0,0-.87.87v4.6"/><path class="cls-9" d="M30.54,15.85l1.1-4.47A.86.86,0,0,0,31,10.33L24.6,8.76"/><path class="cls-10" d="M28.7,16.84v4.61a.87.87,0,0,1-.87.86H14.76a.87.87,0,0,1-.87-.86V12.23a.87.87,0,0,1,.87-.87h6.59"/></g></g></svg>