<svg xmlns="http://www.w3.org/2000/svg" viewBox="0 0 32.15 24.14"><defs><style>.cls-1{fill:#fac495;stroke:#e94e1b;stroke-linejoin:bevel;stroke-width:0.82px;}.cls-2{fill:#e3edfa;}.cls-2,.cls-3,.cls-4{stroke:#1d1d1b;stroke-linecap:round;stroke-linejoin:round;stroke-width:0.82px;}.cls-3{fill:#1d1d1b;}.cls-4{fill:none;}</style></defs><title>Personal_Firewall</title><g id="Ebene_2" data-name="Ebene 2"><g id="Ebene_1-2" data-name="Ebene 1"><rect class="cls-1" x="5.94" y="2.62" width="11.53" height="5.93"/><rect class="cls-1" x="17.46" y="2.62" width="11.49" height="5.93"/><polygon class="cls-1" points="20.25 0.41 8.72 0.41 5.94 2.62 17.46 2.62 20.25 0.41"/><polygon class="cls-1" points="31.74 0.41 20.25 0.41 17.46 2.62 28.95 2.62 31.74 0.41"/><rect class="cls-1" x="5.94" y="14.5" width="11.53" height="5.93"/><rect class="cls-1" x="17.46" y="14.5" width="11.49" height="5.93"/><rect class="cls-1" x="5.94" y="8.56" width="5.49" height="5.93"/><rect class="cls-1" x="11.43" y="8.56" width="11.49" height="5.93"/><rect class="cls-1" x="22.92" y="8.56" width="6.04" height="5.93"/><polygon class="cls-1" points="28.95 8.56 31.74 6.34 31.74 0.41 28.95 2.62 28.95 8.56"/><polygon class="cls-1" points="28.95 20.44 31.74 18.22 31.74 12.29 28.95 14.5 28.95 20.44"/><polygon class="cls-1" points="28.95 14.49 31.74 12.28 31.74 6.34 28.95 8.56 28.95 14.49"/><rect class="cls-2" x="0.41" y="11.09" width="11.56" height="7.19"/><rect class="cls-3" x="2.55" y="13.15" width="7.28" height="3.07"/><rect class="cls-2" x="0.41" y="20.34" width="11.56" height="3.39"/><line class="cls-4" x1="2.18" y1="22.03" x2="3.44" y2="22.03"/></g></g></svg>