<svg xmlns="http://www.w3.org/2000/svg" viewBox="0 0 39.33 28.43"><defs><style>.cls-1{fill:#fff7cc;}.cls-2{fill:#c0d4e0;}.cls-2,.cls-3,.cls-4,.cls-5{stroke:#1d1d1b;stroke-width:0.82px;}.cls-2,.cls-3{stroke-miterlimit:10;}.cls-3{fill:none;}.cls-4{fill:#e3edfa;}.cls-4,.cls-5{stroke-miterlimit:3.86;}.cls-5{fill:#b8c9d9;stroke-linecap:round;}.cls-6{fill:#e94e1b;}</style></defs><title>Platform_Cluster</title><g id="Ebene_2" data-name="Ebene 2"><g id="Ebene_1-2" data-name="Ebene 1"><rect class="cls-1" x="0.41" y="3.03" width="36.32" height="24.99" rx="4.02" ry="4.02"/><rect class="cls-2" x="30.03" y="0.41" width="5.05" height="5.05"/><rect class="cls-2" x="26.19" y="7.57" width="5.05" height="5.05"/><rect class="cls-2" x="33.87" y="7.57" width="5.05" height="5.05"/><path class="cls-3" d="M36.73,14.66V24a4,4,0,0,1-4,4H4.43a4,4,0,0,1-4-4V7.05a4,4,0,0,1,4-4H28"/><rect class="cls-4" x="8.02" y="5.89" width="9.34" height="19.27" rx="0.57" ry="0.57"/><line class="cls-5" x1="9.97" y1="9" x2="15.42" y2="9"/><line class="cls-5" x1="9.97" y1="10.38" x2="15.42" y2="10.38"/><line class="cls-5" x1="9.97" y1="11.76" x2="15.42" y2="11.76"/><line class="cls-5" x1="9.97" y1="13.14" x2="15.42" y2="13.14"/><rect class="cls-6" x="9.85" y="15.17" width="1.44" height="1.44" rx="0.31" ry="0.31"/></g></g></svg>