<svg xmlns="http://www.w3.org/2000/svg" viewBox="0 0 29.05 26.77"><defs><style>.cls-1,.cls-3,.cls-6{fill:#fff;}.cls-1,.cls-2,.cls-5,.cls-6{stroke:#1d1d1b;}.cls-1,.cls-2{stroke-linejoin:round;}.cls-1,.cls-2,.cls-3{stroke-width:0.82px;}.cls-2{fill:#b8c9d9;}.cls-3{stroke:#9baab7;}.cls-3,.cls-5{stroke-miterlimit:10;}.cls-4{fill:#1d1d1b;}.cls-5{fill:#fff7cc;}.cls-6{stroke-miterlimit:3.86;stroke-width:0.82px;}</style></defs><title>Prop_License</title><g id="Ebene_2" data-name="Ebene 2"><g id="Ebene_1-2" data-name="Ebene 1"><path class="cls-1" d="M25.5,26.36H9.26V2c0-.87.52-1.58,1.17-1.58H27.88c-.65,0-1.17.71-1.17,1.58V24.72C26.71,25.63,26.17,26.36,25.5,26.36Z"/><path class="cls-2" d="M24.61,23.84H7.16v1c0,.86.51,1.56,1.14,1.56H25.75c-.63,0-1.14-.7-1.14-1.56Z"/><line class="cls-3" x1="24.12" y1="7.16" x2="11.67" y2="7.16"/><line class="cls-3" x1="24.12" y1="10.19" x2="11.67" y2="10.19"/><line class="cls-3" x1="24.12" y1="13.23" x2="11.67" y2="13.23"/><line class="cls-3" x1="24.12" y1="16.26" x2="11.67" y2="16.26"/><polygon class="cls-4" points="24.97 13.07 25.03 20.64 23.12 19.07 21.2 20.64 21.27 13.07 24.97 13.07"/><polygon class="cls-5" points="23.12 6.57 25.03 5.66 25.74 7.66 27.74 8.36 26.83 10.28 27.74 12.19 25.74 12.9 25.03 14.9 23.12 13.99 21.2 14.9 20.5 12.9 18.5 12.19 19.41 10.28 18.5 8.36 20.5 7.66 21.2 5.66 23.12 6.57"/><path class="cls-6" d="M17.19,16.88a2.47,2.47,0,0,1-2.56,2.36H3A2.47,2.47,0,0,1,.41,16.88V12A2.47,2.47,0,0,1,3,9.59H14.63A2.47,2.47,0,0,1,17.19,12Z"/><path class="cls-4" d="M3.9,12.2a1.48,1.48,0,0,1,.59.11,1.17,1.17,0,0,1,.38.31,1.12,1.12,0,0,1,.21.44,2,2,0,0,1,.06.49,1.59,1.59,0,0,1-.1.61,1.21,1.21,0,0,1-.29.43,1.22,1.22,0,0,1-.45.24,1.87,1.87,0,0,1-.59.08H3.22v1.81H2.31V12.2Zm-.28,2a.6.6,0,0,0,.44-.16.66.66,0,0,0,.17-.51.83.83,0,0,0-.14-.52.6.6,0,0,0-.49-.18H3.22v1.37Z"/><path class="cls-4" d="M7.28,12.2a1.26,1.26,0,0,1,.89.29,1.11,1.11,0,0,1,.31.87,1.39,1.39,0,0,1-.18.75.89.89,0,0,1-.57.37h0a.83.83,0,0,1,.5.22,1,1,0,0,1,.19.55,2.46,2.46,0,0,1,0,.28c0,.1,0,.21,0,.33s0,.43,0,.55a.34.34,0,0,0,.17.26v0h-1a.43.43,0,0,1-.09-.22,2.11,2.11,0,0,1,0-.25l0-.87A.72.72,0,0,0,7.4,15,.5.5,0,0,0,7,14.81H6.51v1.91H5.59V12.2Zm-.39,2a.76.76,0,0,0,.5-.15.65.65,0,0,0,.18-.52.56.56,0,0,0-.63-.63H6.51v1.3Z"/><path class="cls-4" d="M9.07,13.51a2,2,0,0,1,.21-.74,1.14,1.14,0,0,1,.46-.49,1.73,1.73,0,0,1,.82-.17,1.75,1.75,0,0,1,.82.17,1.21,1.21,0,0,1,.46.49,2,2,0,0,1,.21.74,9.25,9.25,0,0,1,0,1,9.1,9.1,0,0,1,0,.95,2,2,0,0,1-.21.74,1.12,1.12,0,0,1-.46.48,1.9,1.9,0,0,1-.82.16,1.86,1.86,0,0,1-.82-.16,1.07,1.07,0,0,1-.46-.48,2,2,0,0,1-.21-.74A9.1,9.1,0,0,1,9,14.46,9.25,9.25,0,0,1,9.07,13.51ZM10,15.23a2.62,2.62,0,0,0,.09.52.68.68,0,0,0,.19.3.54.54,0,0,0,.33.09.53.53,0,0,0,.32-.09.61.61,0,0,0,.2-.3,2.11,2.11,0,0,0,.08-.52c0-.21,0-.47,0-.77s0-.56,0-.77a2.19,2.19,0,0,0-.08-.52.57.57,0,0,0-.2-.3.53.53,0,0,0-.32-.09.54.54,0,0,0-.33.09.62.62,0,0,0-.19.3,2.76,2.76,0,0,0-.09.52c0,.21,0,.46,0,.77S9.94,15,10,15.23Z"/><path class="cls-4" d="M14.23,12.2a1.48,1.48,0,0,1,.59.11,1.17,1.17,0,0,1,.38.31,1.12,1.12,0,0,1,.21.44,2,2,0,0,1,.06.49,1.59,1.59,0,0,1-.1.61,1.21,1.21,0,0,1-.29.43,1.22,1.22,0,0,1-.45.24,1.87,1.87,0,0,1-.59.08h-.49v1.81h-.91V12.2Zm-.28,2a.6.6,0,0,0,.44-.16.66.66,0,0,0,.17-.51.83.83,0,0,0-.14-.52.6.6,0,0,0-.49-.18h-.38v1.37Z"/></g></g></svg>