<svg xmlns="http://www.w3.org/2000/svg" viewBox="0 0 30.95 25.87"><defs><style>.cls-1{fill:#e3edfa;stroke:#1d1d1b;stroke-linejoin:round;stroke-width:0.82px;}.cls-2{fill:#1d1d1b;}</style></defs><title>Rack</title><g id="Ebene_2" data-name="Ebene 2"><g id="Ebene_1-2" data-name="Ebene 1"><path class="cls-1" d="M.76,2.76,4.16.53A.76.76,0,0,1,4.58.41H26.37a.82.82,0,0,1,.43.12l3.4,2.23a.81.81,0,0,1,.35.65V24.69a.78.78,0,0,1-.78.77H1.18a.78.78,0,0,1-.77-.77V3.41A.78.78,0,0,1,.76,2.76Z"/><rect class="cls-2" x="2.96" y="4.64" width="25.03" height="4.59" rx="1.07" ry="1.07"/><rect class="cls-2" x="2.96" y="10.69" width="25.03" height="4.59" rx="1.07" ry="1.07"/><rect class="cls-2" x="2.96" y="16.74" width="25.03" height="4.59" rx="1.07" ry="1.07"/><rect class="cls-2" x="1.43" y="5.61" width="0.89" height="0.89"/><rect class="cls-2" x="1.43" y="7.05" width="0.89" height="0.89"/><rect class="cls-2" x="1.43" y="11.7" width="0.89" height="0.89"/><rect class="cls-2" x="1.43" y="13.14" width="0.89" height="0.89"/><rect class="cls-2" x="1.43" y="17.87" width="0.89" height="0.89"/><rect class="cls-2" x="1.43" y="19.3" width="0.89" height="0.89"/><rect class="cls-2" x="28.57" y="5.61" width="0.89" height="0.89"/><rect class="cls-2" x="28.57" y="7.05" width="0.89" height="0.89"/><rect class="cls-2" x="28.57" y="11.7" width="0.89" height="0.89"/><rect class="cls-2" x="28.57" y="13.14" width="0.89" height="0.89"/><rect class="cls-2" x="28.57" y="17.87" width="0.89" height="0.89"/><rect class="cls-2" x="28.57" y="19.3" width="0.89" height="0.89"/></g></g></svg>