<svg xmlns="http://www.w3.org/2000/svg" viewBox="0 0 30.95 25.87"><defs><style>.cls-1,.cls-3{fill:#e3edfa;}.cls-1,.cls-3,.cls-5{stroke:#1d1d1b;stroke-width:0.82px;}.cls-1{stroke-linejoin:round;}.cls-2{fill:#1d1d1b;}.cls-3,.cls-5{stroke-miterlimit:3.86;}.cls-4{fill:#e94e1b;}.cls-5{fill:#b8c9d9;stroke-linecap:round;}</style></defs><title>Rack_Mounted</title><g id="Ebene_2" data-name="Ebene 2"><g id="Ebene_1-2" data-name="Ebene 1"><path class="cls-1" d="M.76,2.76,4.16.53A.76.76,0,0,1,4.58.41H26.37a.82.82,0,0,1,.43.12l3.4,2.23a.81.81,0,0,1,.35.65V24.69a.78.78,0,0,1-.78.77H1.18a.78.78,0,0,1-.77-.77V3.41A.78.78,0,0,1,.76,2.76Z"/><rect class="cls-2" x="2.96" y="10.92" width="25.03" height="4.59" rx="1.07" ry="1.07"/><rect class="cls-2" x="2.96" y="16.97" width="25.03" height="4.59" rx="1.07" ry="1.07"/><rect class="cls-2" x="1.43" y="5.85" width="0.89" height="0.89"/><rect class="cls-2" x="1.43" y="7.28" width="0.89" height="0.89"/><rect class="cls-2" x="1.43" y="11.93" width="0.89" height="0.89"/><rect class="cls-2" x="1.43" y="13.37" width="0.89" height="0.89"/><rect class="cls-2" x="1.43" y="18.1" width="0.89" height="0.89"/><rect class="cls-2" x="1.43" y="19.53" width="0.89" height="0.89"/><rect class="cls-2" x="28.57" y="5.85" width="0.89" height="0.89"/><rect class="cls-2" x="28.57" y="7.28" width="0.89" height="0.89"/><rect class="cls-2" x="28.57" y="11.93" width="0.89" height="0.89"/><rect class="cls-2" x="28.57" y="13.37" width="0.89" height="0.89"/><rect class="cls-2" x="28.57" y="18.1" width="0.89" height="0.89"/><rect class="cls-2" x="28.57" y="19.53" width="0.89" height="0.89"/><rect class="cls-3" x="2.96" y="4.87" width="25.03" height="4.59" rx="1.07" ry="1.07"/><rect class="cls-4" x="4.75" y="6.17" width="1.99" height="1.99" rx="0.42" ry="0.42"/><line class="cls-5" x1="14.75" y1="6.5" x2="26.34" y2="6.5"/><line class="cls-5" x1="14.75" y1="7.83" x2="26.34" y2="7.83"/><rect class="cls-3" x="2.96" y="10.92" width="25.03" height="4.59" rx="1.07" ry="1.07"/><rect class="cls-4" x="4.75" y="12.22" width="1.99" height="1.99" rx="0.42" ry="0.42"/><line class="cls-5" x1="14.75" y1="12.55" x2="26.34" y2="12.55"/><line class="cls-5" x1="14.75" y1="13.88" x2="26.34" y2="13.88"/><rect class="cls-3" x="2.96" y="16.97" width="25.03" height="4.59" rx="1.07" ry="1.07"/><rect class="cls-4" x="4.75" y="18.27" width="1.99" height="1.99" rx="0.42" ry="0.42"/><line class="cls-5" x1="14.75" y1="18.6" x2="26.34" y2="18.6"/><line class="cls-5" x1="14.75" y1="19.92" x2="26.34" y2="19.92"/></g></g></svg>