<svg xmlns="http://www.w3.org/2000/svg" viewBox="0 0 27.21 24.45"><defs><style>.cls-1,.cls-2{fill:#d6e7f1;}.cls-1,.cls-3{stroke:#1d1d1b;stroke-linejoin:round;}.cls-1,.cls-3,.cls-5{stroke-width:0.82px;}.cls-3{fill:#fff;}.cls-4{fill:#1b181c;}.cls-5{fill:none;stroke:#9baab7;stroke-linecap:round;stroke-miterlimit:10;}</style></defs><title>Scanner</title><g id="Ebene_2" data-name="Ebene 2"><g id="Ebene_1-2" data-name="Ebene 1"><rect class="cls-1" x="0.42" y="14.39" width="26.38" height="9.65"/><polygon class="cls-2" points="2.47 20.96 2.28 21.06 2.28 20.96 2.47 20.96"/><polyline class="cls-3" points="2.47 20.96 23.22 20.96 23.22 20.77 23.22 14.39 2.28 14.39 2.28 20.96 2.47 20.96"/><path class="cls-4" d="M24.27,19.46v.43a.57.57,0,0,0,.54.6h.37a.57.57,0,0,0,.54-.6v-.43a.57.57,0,0,0-.54-.6h-.37A.57.57,0,0,0,24.27,19.46Z"/><polygon class="cls-3" points="3.82 18.82 3.82 12.56 21.68 12.56 21.68 18.57 21.68 18.82 6.26 18.82 3.82 18.82"/><line class="cls-5" x1="17.56" y1="17.43" x2="17.56" y2="13.65"/><line class="cls-5" x1="15.8" y1="17.43" x2="15.8" y2="13.65"/><line class="cls-5" x1="14.05" y1="17.43" x2="14.05" y2="13.65"/><line class="cls-5" x1="19.31" y1="15.47" x2="19.31" y2="13.65"/><line class="cls-5" x1="12.21" y1="17.43" x2="12.21" y2="13.65"/><polygon class="cls-1" points="0.41 10.39 21.29 0.41 21.29 7.68 0.41 17.66 0.41 10.39"/></g></g></svg>