<svg xmlns="http://www.w3.org/2000/svg" viewBox="0 0 26.62 26.77"><defs><style>.cls-1,.cls-5{fill:#fff;}.cls-1,.cls-2,.cls-6{stroke:#1d1d1b;stroke-linejoin:round;stroke-width:0.82px;}.cls-2{fill:#b8c9d9;}.cls-3{fill:#1d1d1b;}.cls-4{fill:#d6e7f1;}.cls-4,.cls-5{stroke:#0d4252;stroke-miterlimit:10;stroke-width:0.78px;fill-rule:evenodd;}.cls-6{fill:#fff7cc;stroke-linecap:round;}</style></defs><title>Service_Contract</title><g id="Ebene_2" data-name="Ebene 2"><g id="Ebene_1-2" data-name="Ebene 1"><path class="cls-1" d="M23.07,26.36H6.83V2C6.83,1.12,7.35.41,8,.41H25.44c-.64,0-1.16.71-1.16,1.58V24.72C24.28,25.63,23.74,26.36,23.07,26.36Z"/><path class="cls-2" d="M22.17,23.84H4.73v1c0,.86.51,1.56,1.14,1.56H23.32c-.63,0-1.15-.7-1.15-1.56Z"/><path class="cls-3" d="M19.54,9.48a.72.72,0,0,0,.18.51.62.62,0,0,0,.45.19.53.53,0,0,0,.45-.19.62.62,0,0,0,.14-.39.69.69,0,0,0-.13-.43,1.16,1.16,0,0,0-.44-.32l-1.11-.53a1.74,1.74,0,0,1-.73-.6,1.52,1.52,0,0,1,0-1.56,1.5,1.5,0,0,1,.59-.52,1.25,1.25,0,0,1-.54-1,1.47,1.47,0,0,1,.15-.69,1.33,1.33,0,0,1,.39-.46,1.76,1.76,0,0,1,.59-.26,3.24,3.24,0,0,1,.72-.08,2.48,2.48,0,0,1,.78.11,1.29,1.29,0,0,1,.53.3,1.21,1.21,0,0,1,.31.46,1.87,1.87,0,0,1,.09.59H20.76a.74.74,0,0,0-.12-.44.59.59,0,0,0-.5-.17.56.56,0,0,0-.41.15.48.48,0,0,0-.15.36.55.55,0,0,0,.13.31,1.45,1.45,0,0,0,.45.31l1.07.5a2.22,2.22,0,0,1,.7.54,1.42,1.42,0,0,1,.29.93,1.48,1.48,0,0,1,0,.35A1.66,1.66,0,0,1,22,7.8a3.62,3.62,0,0,1-.22.32,1.09,1.09,0,0,1-.29.24,1.19,1.19,0,0,1,.35.45,1.45,1.45,0,0,1,.13.67,1.42,1.42,0,0,1-.48,1.17,2.15,2.15,0,0,1-1.35.37,1.92,1.92,0,0,1-1.37-.42,1.45,1.45,0,0,1-.45-1.12V9.35h1.19Zm1-1.65a.88.88,0,0,1,.17.12,1.63,1.63,0,0,0,.32-.37.57.57,0,0,0,.1-.31.61.61,0,0,0-.14-.4,1.84,1.84,0,0,0-.47-.34l-.87-.46a1.43,1.43,0,0,0-.38.33.71.71,0,0,0-.11.35.54.54,0,0,0,.07.26.49.49,0,0,0,.23.22l.89.49Z"/><path class="cls-4" d="M1.7,9.08l.81.81a5.44,5.44,0,0,0-.63,1.52H.74a.35.35,0,0,0-.35.35v2.11a.35.35,0,0,0,.35.35H1.88a5.51,5.51,0,0,0,.61,1.49v.06l-.78.78a.37.37,0,0,0,0,.5l1.5,1.49a.37.37,0,0,0,.5,0l.8-.8A6.11,6.11,0,0,0,6,18.37V19.5a.35.35,0,0,0,.35.35H8.48a.35.35,0,0,0,.35-.35V18.36a5.2,5.2,0,0,0,1.49-.61h.06l.78.78a.37.37,0,0,0,.5,0l1.49-1.49a.37.37,0,0,0,0-.5l-.8-.8A6.17,6.17,0,0,0,13,14.22h1.13a.35.35,0,0,0,.35-.35V11.76a.35.35,0,0,0-.35-.35H13a5.53,5.53,0,0,0-.62-1.49V9.87l.78-.78a.37.37,0,0,0,0-.5l-1.49-1.5a.37.37,0,0,0-.5,0l-.81.81a5.44,5.44,0,0,0-1.52-.63V6.13a.35.35,0,0,0-.35-.35H6.37A.35.35,0,0,0,6,6.13V7.27a5.51,5.51,0,0,0-1.49.61h0l-.79-.79a.36.36,0,0,0-.49,0L1.7,8.59A.36.36,0,0,0,1.7,9.08Z"/><path class="cls-5" d="M10.07,10.17a3.74,3.74,0,1,1-5.29,0A3.74,3.74,0,0,1,10.07,10.17Z"/><path class="cls-6" d="M13.7,17.55a3.61,3.61,0,0,0,.28,1l-.81.61,1.14,1.52.8-.6a3.7,3.7,0,0,0,1.9.81l.12,1L19,21.67l-.12-1a3.83,3.83,0,0,0,1.67-1.23l.91.39.75-1.74-.92-.4a4,4,0,0,0,0-1,3.44,3.44,0,0,0-.28-1l.81-.6-1.13-1.52-.8.59A4,4,0,0,0,18,13.3l-.12-1L16,12.53l.12,1a3.72,3.72,0,0,0-1.66,1.23l-.92-.4-.75,1.75.93.4A3.59,3.59,0,0,0,13.7,17.55ZM17.26,15a2.17,2.17,0,1,1-1.89,2.4A2.17,2.17,0,0,1,17.26,15Z"/></g></g></svg>