<svg xmlns="http://www.w3.org/2000/svg" viewBox="0 0 33.53 23.98"><defs><style>.cls-1{fill:#d6e7f1;}.cls-1,.cls-2{stroke:#0d4252;stroke-miterlimit:10;stroke-width:0.78px;fill-rule:evenodd;}.cls-2,.cls-4{fill:#fff;}.cls-3{fill:#fff7cc;stroke:#1d1d1b;stroke-linecap:round;stroke-width:0.82px;}.cls-3,.cls-4{stroke-linejoin:round;}.cls-4{stroke:#67accc;}</style></defs><title>Service_RunsInCloud</title><g id="Ebene_2" data-name="Ebene 2"><g id="Ebene_1-2" data-name="Ebene 1"><path class="cls-1" d="M2.1,6.88l1,1a7.28,7.28,0,0,0-.82,2H.85a.47.47,0,0,0-.46.46v2.75a.47.47,0,0,0,.46.46H2.33a7.1,7.1,0,0,0,.8,1.94v.07l-1,1a.48.48,0,0,0,0,.65l1.95,1.95a.48.48,0,0,0,.65,0l1-1.05a7.81,7.81,0,0,0,2,.82v1.48a.47.47,0,0,0,.46.46h2.75a.48.48,0,0,0,.46-.46V19a7.23,7.23,0,0,0,1.94-.8h.07l1,1a.47.47,0,0,0,.66,0L17,17.26a.48.48,0,0,0,0-.65l-1-1a7,7,0,0,0,.82-2h1.48a.47.47,0,0,0,.46-.46V10.37a.47.47,0,0,0-.46-.46H16.79A6.8,6.8,0,0,0,16,8V7.9l1-1a.48.48,0,0,0,0-.65L15.07,4.29a.47.47,0,0,0-.65,0l-1,1a7.9,7.9,0,0,0-2-.82V3a.47.47,0,0,0-.45-.46H8.19A.47.47,0,0,0,7.73,3V4.51a7,7,0,0,0-1.94.81H5.72l-1-1a.46.46,0,0,0-.65,0L2.1,6.23A.48.48,0,0,0,2.1,6.88Z"/><path class="cls-2" d="M13,8.3a4.87,4.87,0,1,1-6.88,0A4.86,4.86,0,0,1,13,8.3Z"/><path class="cls-3" d="M17.74,17.91a5.07,5.07,0,0,0,.36,1.31L17.05,20l1.48,2,1-.77a5,5,0,0,0,2.48,1.05l.16,1.3,2.45-.29L24.51,22a5,5,0,0,0,2.17-1.6l1.19.51,1-2.27-1.21-.52a5.14,5.14,0,0,0,.05-1.36,5.07,5.07,0,0,0-.36-1.31l1.05-.79-1.48-2-1,.78a4.94,4.94,0,0,0-2.48-1.06l-.16-1.3-2.46.29.16,1.3a5,5,0,0,0-2.17,1.6l-1.19-.51-1,2.28,1.21.52A5.06,5.06,0,0,0,17.74,17.91Zm4.64-3.38a2.82,2.82,0,1,1-2.46,3.13A2.81,2.81,0,0,1,22.38,14.53Z"/><path class="cls-4" d="M30.48,1.93h0a2.5,2.5,0,0,0-1.62.59,3.12,3.12,0,0,0-2.92-2h-.28a3.12,3.12,0,0,0-3.12,3.07,1.72,1.72,0,0,0-1.23-.51h0a2.23,2.23,0,0,0-2.24,2.23v.12a2.32,2.32,0,0,0,2.32,2.32h8.9A2.74,2.74,0,0,0,33,5V4.47A2.55,2.55,0,0,0,30.48,1.93Z"/></g></g></svg>