<svg xmlns="http://www.w3.org/2000/svg" viewBox="0 0 32.52 26.75"><defs><style>.cls-1{fill:#d6e7f1;}.cls-1,.cls-2{stroke:#0d4252;stroke-miterlimit:10;stroke-width:0.78px;fill-rule:evenodd;}.cls-2{fill:#fff;}.cls-3{fill:#fff7cc;stroke-linecap:round;stroke-linejoin:round;}.cls-3,.cls-4{stroke:#1d1d1b;stroke-width:0.82px;}.cls-4{fill:#b8c9d9;stroke-miterlimit:3.86;}</style></defs><title>Service_Web</title><g id="Ebene_2" data-name="Ebene 2"><g id="Ebene_1-2" data-name="Ebene 1"><path class="cls-1" d="M2.1,9.65l1,1a7.55,7.55,0,0,0-.82,2H.85a.47.47,0,0,0-.46.46v2.75a.46.46,0,0,0,.46.45H2.33a7,7,0,0,0,.8,1.93v.08l-1,1a.48.48,0,0,0,0,.65L4.05,22a.48.48,0,0,0,.65,0l1-1a7.81,7.81,0,0,0,2,.82v1.47a.47.47,0,0,0,.46.46h2.75a.47.47,0,0,0,.46-.46V21.74a7.23,7.23,0,0,0,1.94-.8h.07l1,1a.49.49,0,0,0,.66,0L17,20a.48.48,0,0,0,0-.65l-1-1a7.22,7.22,0,0,0,.82-2h1.48a.47.47,0,0,0,.46-.46V13.14a.47.47,0,0,0-.46-.46H16.79a6.69,6.69,0,0,0-.8-1.94v-.07l1-1A.48.48,0,0,0,17,9L15.07,7.05a.48.48,0,0,0-.65,0l-1,1a7.55,7.55,0,0,0-2-.82V5.8a.46.46,0,0,0-.45-.46H8.19a.47.47,0,0,0-.46.46V7.28a7,7,0,0,0-1.94.8H5.72l-1-1a.48.48,0,0,0-.65,0L2.1,9A.48.48,0,0,0,2.1,9.65Z"/><path class="cls-2" d="M13,11.07a4.87,4.87,0,1,1-6.88,0A4.86,4.86,0,0,1,13,11.07Z"/><path class="cls-3" d="M17.74,20.68A5.18,5.18,0,0,0,18.1,22l-1.05.78,1.48,2,1-.78A4.94,4.94,0,0,0,22.05,25l.16,1.3,2.45-.29-.15-1.3a5,5,0,0,0,2.17-1.61l1.19.52,1-2.28-1.21-.52a5.12,5.12,0,0,0,.05-1.36,5.3,5.3,0,0,0-.36-1.31l1.05-.78-1.48-2-1,.77a4.93,4.93,0,0,0-2.48-1l-.16-1.3-2.46.29.16,1.3A4.9,4.9,0,0,0,18.75,17l-1.19-.51-1,2.27,1.21.52A5.12,5.12,0,0,0,17.74,20.68Zm4.64-3.39a2.82,2.82,0,1,1-2.46,3.13A2.82,2.82,0,0,1,22.38,17.29Z"/><ellipse class="cls-4" cx="25.51" cy="5.92" rx="6.6" ry="5.51"/><ellipse class="cls-4" cx="25.51" cy="5.92" rx="3.67" ry="5.51"/><line class="cls-4" x1="18.91" y1="5.92" x2="32.16" y2="5.92"/><line class="cls-4" x1="25.53" y1="11.45" x2="25.53" y2="0.39"/></g></g></svg>