<svg xmlns="http://www.w3.org/2000/svg" viewBox="0 0 29.26 21.79"><defs><style>.cls-1{fill:#d6e7f1;}.cls-1,.cls-2{stroke:#0d4252;stroke-miterlimit:10;stroke-width:0.78px;fill-rule:evenodd;}.cls-2{fill:#fff;}.cls-3{fill:#fff7cc;stroke:#1d1d1b;stroke-linecap:round;stroke-linejoin:round;stroke-width:0.82px;}</style></defs><title>Service_2</title><g id="Ebene_2" data-name="Ebene 2"><g id="Ebene_1-2" data-name="Ebene 1"><path class="cls-1" d="M2.1,4.7l1,1a7.55,7.55,0,0,0-.82,2H.85a.47.47,0,0,0-.46.46v2.75a.46.46,0,0,0,.46.45H2.33a7,7,0,0,0,.8,1.93v.08l-1,1a.48.48,0,0,0,0,.65L4.05,17a.48.48,0,0,0,.65,0l1-1a7.47,7.47,0,0,0,2,.82v1.48a.47.47,0,0,0,.46.46h2.75a.47.47,0,0,0,.46-.46V16.79a7.23,7.23,0,0,0,1.94-.8h.07l1,1a.49.49,0,0,0,.66,0L17,15.07a.48.48,0,0,0,0-.65l-1-1a7.16,7.16,0,0,0,.82-2h1.48a.46.46,0,0,0,.46-.45V8.19a.47.47,0,0,0-.46-.46H16.79A6.69,6.69,0,0,0,16,5.79V5.72l1-1a.48.48,0,0,0,0-.65L15.07,2.1a.48.48,0,0,0-.65,0l-1,1a7.55,7.55,0,0,0-2-.82V.85a.46.46,0,0,0-.45-.46H8.19a.47.47,0,0,0-.46.46V2.33a7,7,0,0,0-1.94.8H5.72l-1-1a.48.48,0,0,0-.65,0L2.1,4.05A.48.48,0,0,0,2.1,4.7Z"/><path class="cls-2" d="M13,6.12a4.87,4.87,0,1,1-6.88,0A4.85,4.85,0,0,1,13,6.12Z"/><path class="cls-3" d="M17.74,15.73A5.18,5.18,0,0,0,18.1,17l-1.05.78,1.48,2,1-.78a5,5,0,0,0,2.48,1.06l.16,1.3,2.45-.29-.15-1.3a5,5,0,0,0,2.17-1.61l1.19.52,1-2.28-1.21-.52a5.12,5.12,0,0,0,.05-1.36,5.3,5.3,0,0,0-.36-1.31l1.05-.78-1.48-2-1,.77a5,5,0,0,0-2.48-1.06L23.22,8.9l-2.46.29.16,1.3a4.9,4.9,0,0,0-2.17,1.6l-1.19-.51-1,2.27,1.21.52A5.12,5.12,0,0,0,17.74,15.73Zm4.64-3.39a2.82,2.82,0,1,1-2.46,3.13A2.82,2.82,0,0,1,22.38,12.34Z"/></g></g></svg>