<svg xmlns="http://www.w3.org/2000/svg" viewBox="0 0 31.75 25.98"><defs><style>.cls-1{fill:#d6e7f1;}.cls-1,.cls-2{stroke:#0d4252;stroke-miterlimit:10;stroke-width:0.78px;fill-rule:evenodd;}.cls-2,.cls-4{fill:#fff;}.cls-3{fill:#fff7cc;stroke:#1d1d1b;stroke-linecap:round;stroke-linejoin:round;stroke-width:0.82px;}.cls-5{fill:#706f6f;}</style></defs><title>Service_IsExternal</title><g id="Ebene_2" data-name="Ebene 2"><g id="Ebene_1-2" data-name="Ebene 1"><path class="cls-1" d="M2.1,8.88l1,1a7.28,7.28,0,0,0-.82,2H.85a.47.47,0,0,0-.46.46v2.75a.47.47,0,0,0,.46.46H2.33a7.1,7.1,0,0,0,.8,1.94v.07l-1,1a.48.48,0,0,0,0,.65l1.95,1.95a.48.48,0,0,0,.65,0l1-1.05a7.81,7.81,0,0,0,2,.82v1.48a.47.47,0,0,0,.46.46h2.75a.48.48,0,0,0,.46-.46V21a7.23,7.23,0,0,0,1.94-.8h.07l1,1a.47.47,0,0,0,.66,0L17,19.26a.48.48,0,0,0,0-.65l-1-1.05a7,7,0,0,0,.82-2h1.48a.47.47,0,0,0,.46-.46V12.37a.47.47,0,0,0-.46-.46H16.79A6.8,6.8,0,0,0,16,10V9.9l1-1a.48.48,0,0,0,0-.65L15.07,6.29a.46.46,0,0,0-.65,0l-1,1a7.9,7.9,0,0,0-2-.82V5a.47.47,0,0,0-.45-.46H8.19A.47.47,0,0,0,7.73,5V6.51a7,7,0,0,0-1.94.81H5.72l-1-1a.46.46,0,0,0-.65,0L2.1,8.23A.48.48,0,0,0,2.1,8.88Z"/><path class="cls-2" d="M13,10.3a4.87,4.87,0,1,1-6.88,0A4.86,4.86,0,0,1,13,10.3Z"/><path class="cls-3" d="M17.74,19.91a5.07,5.07,0,0,0,.36,1.31L17.05,22l1.48,2,1-.77a5,5,0,0,0,2.48,1.05l.16,1.3,2.45-.29L24.51,24a5,5,0,0,0,2.17-1.6l1.19.51,1-2.27-1.21-.52a5.14,5.14,0,0,0,.05-1.36,5.07,5.07,0,0,0-.36-1.31l1.05-.79-1.48-2-1,.78a4.94,4.94,0,0,0-2.48-1.06l-.16-1.3-2.46.29.16,1.3a5.06,5.06,0,0,0-2.17,1.6l-1.19-.51-1,2.28,1.21.52A5.06,5.06,0,0,0,17.74,19.91Zm4.64-3.38a2.82,2.82,0,1,1-2.46,3.13A2.81,2.81,0,0,1,22.38,16.53Z"/><rect class="cls-4" x="21.34" y="1.28" width="9.16" height="9.16"/><polygon class="cls-5" points="30.1 4.47 30.1 10.04 21.75 10.04 21.75 1.69 27.23 1.69 28.04 0.87 20.93 0.87 20.93 10.85 30.91 10.85 30.91 3.66 30.1 4.47"/><path class="cls-5" d="M31.75,0H28.53l1.25,1.26-5,5.05a.48.48,0,0,0,0,.7.47.47,0,0,0,.35.15A.49.49,0,0,0,25.44,7l5-5,1.26,1.26Z"/></g></g></svg>