<svg xmlns="http://www.w3.org/2000/svg" viewBox="0 0 39.33 28.43"><defs><style>.cls-1,.cls-5{fill:#fff7cc;}.cls-2{fill:#c0d4e0;}.cls-2,.cls-3,.cls-5,.cls-6,.cls-7{stroke:#1d1d1b;stroke-width:0.82px;}.cls-2,.cls-3,.cls-4{stroke-miterlimit:10;}.cls-3,.cls-7{fill:none;}.cls-4{fill:#d6e7f1;stroke:#0d4252;stroke-width:0.78px;fill-rule:evenodd;}.cls-5,.cls-7{stroke-linecap:round;}.cls-5,.cls-6,.cls-7{stroke-linejoin:round;}.cls-6{fill:#fff;}.cls-8{fill:#1d1d1b;}</style></defs><title>Service_Cluster_2</title><g id="Ebene_2" data-name="Ebene 2"><g id="Ebene_1-2" data-name="Ebene 1"><rect class="cls-1" x="0.41" y="3.03" width="36.32" height="24.99" rx="4.02" ry="4.02"/><rect class="cls-2" x="30.03" y="0.41" width="5.05" height="5.05"/><rect class="cls-2" x="26.19" y="7.57" width="5.05" height="5.05"/><rect class="cls-2" x="33.87" y="7.57" width="5.05" height="5.05"/><path class="cls-3" d="M36.73,14.66V24a4,4,0,0,1-4,4H4.43a4,4,0,0,1-4-4V7.05a4,4,0,0,1,4-4H28"/><path class="cls-4" d="M15.35,16.22h-1a4.9,4.9,0,0,0-.54-1.3v-.05l.68-.68a.31.31,0,0,0,0-.44l-1.3-1.3a.32.32,0,0,0-.44,0l-.7.7a5,5,0,0,0-1.33-.55v-1a.32.32,0,0,0-.3-.31H8.59a.32.32,0,0,0-.3.31v1a4.9,4.9,0,0,0-1.3.54h0l-.68-.68a.33.33,0,0,0-.44,0l-1.3,1.3a.33.33,0,0,0,0,.44l.7.7a5.12,5.12,0,0,0-.55,1.33h-1a.32.32,0,0,0-.31.31v1.84a.32.32,0,0,0,.31.3h1A4.77,4.77,0,0,0,5.21,20V20l-.68.68a.31.31,0,0,0,0,.44l1.3,1.3a.31.31,0,0,0,.44,0l.7-.7a5.12,5.12,0,0,0,1.33.55v1a.32.32,0,0,0,.3.31h1.85a.32.32,0,0,0,.3-.31v-1A4.84,4.84,0,0,0,12,21.75h.05l.68.68a.31.31,0,0,0,.44,0l1.3-1.3a.31.31,0,0,0,0-.44l-.7-.7a5,5,0,0,0,.55-1.33h1a.32.32,0,0,0,.31-.3V16.53A.32.32,0,0,0,15.35,16.22Zm-3.53,3.53a3.26,3.26,0,1,1,0-4.61A3.25,3.25,0,0,1,11.82,19.75Z"/><path class="cls-5" d="M15,21.58a3.12,3.12,0,0,0,.25.87l-.71.53,1,1.33.7-.52a3.4,3.4,0,0,0,1.66.71l.1.87,1.65-.2-.1-.87A3.3,3.3,0,0,0,21,23.23l.8.34.65-1.52-.81-.35a3.08,3.08,0,0,0,0-.91,3,3,0,0,0-.24-.88l.71-.52-1-1.33-.7.52a3.31,3.31,0,0,0-1.66-.71L18.66,17,17,17.2l.1.87a3.3,3.3,0,0,0-1.45,1.07l-.8-.34-.65,1.52.81.35A3.44,3.44,0,0,0,15,21.58Zm3.11-2.27a1.89,1.89,0,1,1-1.65,2.09A1.89,1.89,0,0,1,18.1,19.31Z"/><polygon class="cls-6" points="15.21 7.92 17.46 7.01 20.57 8.37 23.69 7.99 24.36 8.59 20.62 10.77 15.92 10.06 15.21 7.92"/><polyline class="cls-7" points="17.47 8.71 20.57 9.03 20.57 8.37"/><polygon class="cls-8" points="12.77 11.13 16.51 10.53 15.18 7.6 12.29 8.06 12.77 11.13"/></g></g></svg>