<svg xmlns="http://www.w3.org/2000/svg" viewBox="0 0 32.36 29.67"><defs><style>.cls-1{fill:#d9e5ec;}.cls-2{fill:#c4c4c4;}.cls-3{fill:#fff;}.cls-4,.cls-5,.cls-6{fill:none;}.cls-4,.cls-5,.cls-6,.cls-7{stroke:#1d1d1b;}.cls-4,.cls-5,.cls-7{stroke-linejoin:round;}.cls-4{stroke-width:0.82px;}.cls-5{stroke-width:0.84px;}.cls-6,.cls-7{stroke-linecap:round;}.cls-6,.cls-8{stroke-miterlimit:10;}.cls-7,.cls-9{fill:#1d1d1b;}.cls-7{stroke-width:0.8px;}.cls-8{fill:#fac495;stroke:#9baab7;}</style></defs><title>Software_Mission_Critical</title><g id="Ebene_2" data-name="Ebene 2"><g id="Ebene_1-2" data-name="Ebene 1"><rect class="cls-1" x="5.46" y="6.46" width="26.5" height="18.45"/><path class="cls-2" d="M32,.41V6.46H5.46v-6ZM30,4.52V2.41H11.82V4.52Zm-20,0V2.41H7.33V4.52Z"/><rect class="cls-3" x="11.82" y="2.41" width="18.2" height="2.11"/><rect class="cls-2" x="7.33" y="2.41" width="2.71" height="2.11"/><polygon class="cls-4" points="31.95 6.46 31.95 24.91 5.46 24.91 5.46 6.46 5.46 0.41 31.95 0.41 31.95 6.46"/><line class="cls-4" x1="31.96" y1="6.46" x2="5.46" y2="6.46"/><rect class="cls-5" x="7.33" y="2.41" width="2.71" height="2.11"/><line class="cls-6" x1="27.87" y1="19.38" x2="24.11" y2="15.61"/><polygon class="cls-7" points="21.12 12.62 23.13 17.01 25.5 14.64 21.12 12.62"/><circle class="cls-8" cx="5.95" cy="23.71" r="5.45"/><path class="cls-9" d="M5.32,22.37V20.23H6.59v2.14L6.41,25H5.49Zm1.27,4.45H5.32V25.6H6.59Z"/></g></g></svg>