<svg xmlns="http://www.w3.org/2000/svg" viewBox="0 0 16.48 16.48"><defs><style>.cls-1{fill:#fff;stroke:#1d1d1b;stroke-miterlimit:10;stroke-width:0.82px;}.cls-2{fill:#1d1d1b;}</style></defs><title>Software_Custom_Made</title><g id="Ebene_2" data-name="Ebene 2"><g id="Ebene_1-2" data-name="Ebene 1"><rect class="cls-1" x="-0.53" y="6.18" width="17.55" height="4.13" transform="translate(-3.41 8.24) rotate(-45)"/><line class="cls-1" x1="2.35" y1="11.22" x2="3.81" y2="12.68"/><line class="cls-1" x1="11.08" y1="2.48" x2="12.54" y2="3.94"/><line class="cls-1" x1="4.19" y1="9.4" x2="5.25" y2="10.47"/><line class="cls-1" x1="6.93" y1="7.07" x2="8.39" y2="8.53"/><line class="cls-1" x1="9.38" y1="4.42" x2="10.44" y2="5.48"/><path class="cls-1" d="M1.37,1.35l0,0a1.52,1.52,0,0,0,0,2.16L12.78,15l2.8.62L15,12.78,3.53,1.35A1.52,1.52,0,0,0,1.37,1.35Z"/><polygon class="cls-2" points="13.5 14.91 15.34 15.32 14.93 13.48 13.5 14.91"/></g></g></svg>