<svg xmlns="http://www.w3.org/2000/svg" viewBox="0 0 39.33 28.43"><defs><style>.cls-1{fill:#fff7cc;}.cls-2{fill:#c0d4e0;}.cls-10,.cls-2,.cls-3,.cls-8,.cls-9{stroke:#1d1d1b;}.cls-2,.cls-3,.cls-9{stroke-miterlimit:10;}.cls-2,.cls-3{stroke-width:0.82px;}.cls-3,.cls-8,.cls-9{fill:none;}.cls-4{fill:#d9e5ec;}.cls-5{fill:#c4c4c4;}.cls-6{fill:#fff;}.cls-10,.cls-7{fill:#1d1d1b;}.cls-10,.cls-8{stroke-linejoin:round;}.cls-8{stroke-width:0.82px;}.cls-10,.cls-9{stroke-linecap:round;}.cls-10{stroke-width:0.8px;}</style></defs><title>Software Cluster</title><g id="Ebene_2" data-name="Ebene 2"><g id="Ebene_1-2" data-name="Ebene 1"><rect class="cls-1" x="0.41" y="3.03" width="36.32" height="24.99" rx="4.02" ry="4.02"/><rect class="cls-2" x="30.03" y="0.41" width="5.05" height="5.05"/><rect class="cls-2" x="26.19" y="7.57" width="5.05" height="5.05"/><rect class="cls-2" x="33.87" y="7.57" width="5.05" height="5.05"/><path class="cls-3" d="M36.73,14.66V24a4,4,0,0,1-4,4H4.43a4,4,0,0,1-4-4V7.05a4,4,0,0,1,4-4H28"/><rect class="cls-4" x="6.16" y="11.84" width="15.75" height="10.97"/><path class="cls-5" d="M21.91,8.24v3.6H6.16V8.24Zm-1.15,2.45V9.43H9.94v1.26Zm-11.88,0V9.43H7.27v1.26Z"/><rect class="cls-6" x="9.94" y="9.43" width="10.82" height="1.25"/><rect class="cls-7" x="7.27" y="9.43" width="1.61" height="1.25"/><polygon class="cls-8" points="21.91 11.84 21.91 22.8 6.16 22.8 6.16 11.84 6.16 8.24 21.91 8.24 21.91 11.84"/><line class="cls-8" x1="21.91" y1="11.84" x2="6.16" y2="11.84"/><line class="cls-9" x1="19.49" y1="19.52" x2="17.25" y2="17.28"/><polygon class="cls-10" points="15.47 15.5 16.67 18.11 18.08 16.7 15.47 15.5"/></g></g></svg>