<svg xmlns="http://www.w3.org/2000/svg" viewBox="0 0 21.08 12.58"><defs><style>.cls-1,.cls-3{fill:#fff;}.cls-1{stroke:#9baab7;stroke-linecap:round;stroke-linejoin:round;stroke-width:0.82px;}.cls-2{fill:#010101;}.cls-4{fill:#a1b505;}</style></defs><title>Software_Performance_High</title><g id="Ebene_2" data-name="Ebene 2"><g id="Ebene_1-2" data-name="Ebene 1"><rect class="cls-1" x="0.41" y="0.41" width="20.26" height="11.77"/><path class="cls-2" d="M10.44,2.15a8.08,8.08,0,0,1,8.08,8.08v.32H15.71v-.32a5.26,5.26,0,1,0-10.52,0v.32H2.38v-.32A8.07,8.07,0,0,1,10.44,2.15Z"/><path class="cls-3" d="M10.44,2.79A7.43,7.43,0,0,0,3,9.91H4.56a5.9,5.9,0,0,1,11.78,0h1.53A7.44,7.44,0,0,0,10.44,2.79Z"/><path class="cls-2" d="M10.39,8.35l0,0,6.5-2.14L11.15,9.69a1.27,1.27,0,0,1-.68.94A1.25,1.25,0,0,1,8.82,10a1.22,1.22,0,0,1,.61-1.64A1.19,1.19,0,0,1,10.39,8.35Z"/><path class="cls-4" d="M15.2,6.74l1.51-.5A7.42,7.42,0,0,0,3,9.91H4.56A5.89,5.89,0,0,1,15.2,6.74Z"/></g></g></svg>