<svg xmlns="http://www.w3.org/2000/svg" viewBox="0 0 36.32 30.37"><defs><style>.cls-1{fill:#d9e5ec;}.cls-2{fill:#c4c4c4;}.cls-3,.cls-8{fill:#fff;}.cls-4,.cls-5,.cls-6{fill:none;}.cls-4,.cls-5,.cls-6,.cls-7{stroke:#1d1d1b;}.cls-4,.cls-5,.cls-7{stroke-linejoin:round;}.cls-4{stroke-width:0.82px;}.cls-5{stroke-width:0.84px;}.cls-6,.cls-7{stroke-linecap:round;}.cls-6,.cls-8,.cls-9{stroke-miterlimit:10;}.cls-7{fill:#1d1d1b;stroke-width:0.8px;}.cls-8,.cls-9{stroke:#9baab7;}.cls-9{fill:#c84942;}</style></defs><title>Source_Code_False</title><g id="Ebene_2" data-name="Ebene 2"><g id="Ebene_1-2" data-name="Ebene 1"><rect class="cls-1" x="9.41" y="6.46" width="26.5" height="18.45"/><path class="cls-2" d="M35.91.41V6.46H9.41v-6ZM34,4.52V2.41H15.77V4.52Zm-20,0V2.41H11.28V4.52Z"/><rect class="cls-3" x="15.77" y="2.41" width="18.2" height="2.11"/><rect class="cls-2" x="11.28" y="2.41" width="2.71" height="2.11"/><polygon class="cls-4" points="35.91 6.46 35.91 24.91 9.41 24.91 9.41 6.46 9.41 0.41 35.91 0.41 35.91 6.46"/><line class="cls-4" x1="35.91" y1="6.46" x2="9.41" y2="6.46"/><rect class="cls-5" x="11.28" y="2.41" width="2.71" height="2.11"/><line class="cls-6" x1="31.83" y1="19.38" x2="28.06" y2="15.61"/><polygon class="cls-7" points="25.07 12.62 27.09 17.01 29.46 14.64 25.07 12.62"/><rect class="cls-8" x="0.5" y="11.09" width="10.7" height="15.72"/><line class="cls-9" x1="2.01" y1="13.34" x2="8.5" y2="13.34"/><line class="cls-9" x1="2.75" y1="14.93" x2="9.24" y2="14.93"/><line class="cls-9" x1="3.62" y1="16.52" x2="10.11" y2="16.52"/><line class="cls-9" x1="2.01" y1="18.12" x2="8.5" y2="18.12"/><line class="cls-9" x1="2.75" y1="19.71" x2="9.24" y2="19.71"/><line class="cls-9" x1="3.62" y1="21.3" x2="10.11" y2="21.3"/><circle class="cls-9" cx="10.41" cy="24.42" r="5.45"/><rect class="cls-3" x="9.82" y="20.76" width="1.15" height="7.53" transform="translate(-14.3 14.54) rotate(-45)"/><rect class="cls-3" x="6.63" y="23.95" width="7.53" height="1.15" transform="translate(-14.3 14.53) rotate(-45)"/></g></g></svg>