<?xml version="1.0" encoding="utf-8"?>
<!-- Generator: Adobe Illustrator 22.1.0, SVG Export Plug-In . SVG Version: 6.00 Build 0)  -->
<svg version="1.1" id="Ebene_1" xmlns="http://www.w3.org/2000/svg" xmlns:xlink="http://www.w3.org/1999/xlink" x="0px" y="0px"
	 viewBox="0 0 36.3 30.3" style="enable-background:new 0 0 36.3 30.3;" xml:space="preserve">
<style type="text/css">
	.st0{fill:#D9E5EC;}
	.st1{fill:#C4C4C4;}
	.st2{fill:#FFFFFF;}
	.st3{fill:none;stroke:#1D1D1B;stroke-width:0.82;stroke-linejoin:round;}
	.st4{fill:none;stroke:#1D1D1B;stroke-width:0.84;stroke-linejoin:round;}
	.st5{fill:none;stroke:#1D1D1B;stroke-linecap:round;stroke-miterlimit:10;}
	.st6{fill:#1D1D1B;stroke:#1D1D1B;stroke-width:0.8;stroke-linecap:round;stroke-linejoin:round;}
	.st7{fill:#FFFFFF;stroke:#9BAAB7;stroke-miterlimit:10;}
	.st8{fill:none;stroke:#9BAAB7;stroke-miterlimit:10;}
	.st9{fill:#A1B505;stroke:#9BAAB7;stroke-miterlimit:10;}
</style>
<title>Source_Code_True</title>
<g id="Ebene_2_1_">
	<g id="Ebene_1-2">
		<rect x="9.4" y="6.5" class="st0" width="26.5" height="18.5"/>
		<path class="st1" d="M35.9,0.4v6.1H9.4v-6L35.9,0.4z M34,4.5V2.4H15.8v2.1H34z M14,4.5V2.4h-2.7v2.1H14z"/>
		<rect x="15.8" y="2.4" class="st2" width="18.2" height="2.1"/>
		<rect x="11.3" y="2.4" class="st1" width="2.7" height="2.1"/>
		<polygon class="st3" points="35.9,6.5 35.9,24.9 9.4,24.9 9.4,6.5 9.4,0.4 35.9,0.4 		"/>
		<line class="st3" x1="35.9" y1="6.5" x2="9.4" y2="6.5"/>
		<rect x="11.3" y="2.4" class="st4" width="2.7" height="2.1"/>
		<line class="st5" x1="31.8" y1="19.4" x2="28.1" y2="15.6"/>
		<polygon class="st6" points="25.1,12.6 27.1,17 29.5,14.6 		"/>
		<rect x="0.5" y="11.1" class="st7" width="10.7" height="15.7"/>
		<line class="st8" x1="2" y1="13.3" x2="8.5" y2="13.3"/>
		<line class="st8" x1="2.8" y1="14.9" x2="9.2" y2="14.9"/>
		<line class="st8" x1="3.6" y1="16.5" x2="10.1" y2="16.5"/>
		<line class="st8" x1="2" y1="18.1" x2="8.5" y2="18.1"/>
		<line class="st8" x1="2.8" y1="19.7" x2="9.2" y2="19.7"/>
		<line class="st8" x1="3.6" y1="21.3" x2="10.1" y2="21.3"/>
		<circle class="st9" cx="10.3" cy="24.4" r="5.4"/>
		<polygon class="st2" points="14.4,22.2 13.7,21.4 9.6,25.4 7.8,23.6 7.1,24.3 9.6,26.9 9.6,26.9 9.6,26.9 		"/>
	</g>
</g>
</svg>
