<svg xmlns="http://www.w3.org/2000/svg" viewBox="0 0 55.4 35.49"><defs><style>.cls-1,.cls-9{fill:#fff;}.cls-1,.cls-3,.cls-5,.cls-6,.cls-8{stroke:#1d1d1b;}.cls-1,.cls-3,.cls-6,.cls-8{stroke-miterlimit:3.86;}.cls-1,.cls-8{stroke-width:0.82px;}.cls-2{fill:#1d1d1b;}.cls-3,.cls-5{fill:#e3edfa;}.cls-3,.cls-5,.cls-6{stroke-width:0.82px;}.cls-4{fill:#e94e1b;}.cls-5{stroke-linejoin:round;}.cls-6{fill:#b8c9d9;stroke-linecap:round;}.cls-7{fill:#d6e7f1;stroke:#0d4252;stroke-miterlimit:10;stroke-width:0.78px;fill-rule:evenodd;}.cls-8{fill:#9baab7;}</style></defs><title>Specific_Platform_1</title><g id="Ebene_2" data-name="Ebene 2"><g id="Ebene_1-2" data-name="Ebene 1"><path class="cls-1" d="M14.46,8.33a1.85,1.85,0,0,1-1.91,1.76H2.32A1.85,1.85,0,0,1,.41,8.33V2.17A1.84,1.84,0,0,1,2.32.41H12.55a1.84,1.84,0,0,1,1.91,1.76Z"/><path class="cls-2" d="M5.11,6.35h0l.64-3.16h.89l-1,4.28H4.56l-1-4.28H4.5Z"/><path class="cls-2" d="M8.27,3.19l.61,3h0l.62-3h1.27V7.47H10V4.05h0L9.22,7.47H8.55L7.79,4.05h0V7.47H7V3.19Z"/><rect class="cls-3" x="15.8" y="3.11" width="11.22" height="23.14" rx="0.79" ry="0.79"/><rect class="cls-4" x="18.14" y="14.4" width="1.44" height="1.44"/><rect class="cls-5" x="37.05" y="16.18" width="1.83" height="18.6" rx="0.71" ry="0.71" transform="translate(63.45 -12.49) rotate(90)"/><path class="cls-5" d="M55,25.68a.71.71,0,0,1-.72.71H50.23a.71.71,0,0,1-.72-.71h0A1.68,1.68,0,0,1,51.19,24h2.12A1.69,1.69,0,0,1,55,25.68Z"/><rect class="cls-3" x="25.63" y="4.35" width="24.69" height="18.14" rx="1.84" ry="1.84"/><rect class="cls-2" x="28.2" y="6.73" width="19.92" height="13.48"/><line class="cls-6" x1="18.47" y1="6.85" x2="24.34" y2="6.85"/><line class="cls-6" x1="18.47" y1="8.51" x2="24.34" y2="8.51"/><line class="cls-6" x1="18.47" y1="10.17" x2="24.34" y2="10.17"/><line class="cls-6" x1="18.47" y1="11.83" x2="24.34" y2="11.83"/><path class="cls-7" d="M13.14,22.4h-.79a3.49,3.49,0,0,0-.44-1l.56-.56a.26.26,0,0,0,0-.35l-1-1a.26.26,0,0,0-.35,0l-.56.55a3.6,3.6,0,0,0-1-.42l0,0v-.77a.24.24,0,0,0-.24-.24H7.77a.24.24,0,0,0-.24.24v.79A3.93,3.93,0,0,0,6.47,20l-.55-.55a.26.26,0,0,0-.35,0l-1,1a.24.24,0,0,0,0,.35l.55.56a3.93,3.93,0,0,0-.43,1l0,0H3.87a.24.24,0,0,0-.24.24v1.47a.24.24,0,0,0,.24.24h.79a3.93,3.93,0,0,0,.43,1.06L4.54,26a.24.24,0,0,0,0,.35l1,1a.26.26,0,0,0,.35,0l.55-.56a3.52,3.52,0,0,0,1,.43l0,0V28a.24.24,0,0,0,.24.24H9.24A.24.24,0,0,0,9.48,28v-.79a3.49,3.49,0,0,0,1-.44l.56.56a.26.26,0,0,0,.35,0l1-1a.26.26,0,0,0,0-.35l-.56-.55a3.52,3.52,0,0,0,.43-1l0,0h.77a.24.24,0,0,0,.24-.24V22.64A.24.24,0,0,0,13.14,22.4Z"/><path class="cls-7" d="M24.16,29.25h-.79a3.66,3.66,0,0,0-.44-1.06l.56-.55a.26.26,0,0,0,0-.35l-1-1a.26.26,0,0,0-.35,0l-.56.55a3.6,3.6,0,0,0-1-.42l0,0v-.76a.25.25,0,0,0-.24-.25H18.79a.25.25,0,0,0-.24.25v.79a3.93,3.93,0,0,0-1.06.43l-.55-.55a.26.26,0,0,0-.35,0l-1,1a.26.26,0,0,0,0,.35l.55.55a3.85,3.85,0,0,0-.42,1l0,0h-.77a.24.24,0,0,0-.24.24V31a.25.25,0,0,0,.24.24h.79a3.87,3.87,0,0,0,.43,1.05l-.55.56a.26.26,0,0,0,0,.35l1,1a.26.26,0,0,0,.35,0l.55-.56a3.52,3.52,0,0,0,1,.43l0,0v.77a.24.24,0,0,0,.24.24h1.47a.24.24,0,0,0,.24-.24v-.79a3.49,3.49,0,0,0,1.05-.44l.56.56a.26.26,0,0,0,.35,0l1-1a.26.26,0,0,0,0-.35l-.56-.56a3.36,3.36,0,0,0,.43-1l0,0h.77A.25.25,0,0,0,24.4,31V29.49A.24.24,0,0,0,24.16,29.25Z"/><path class="cls-7" d="M18.94,22.53h-.68a3.65,3.65,0,0,0-.38-.91l.48-.48a.22.22,0,0,0,0-.3L17.47,20a.22.22,0,0,0-.3,0l-.48.48a3.16,3.16,0,0,0-.89-.37l0,0v-.66a.22.22,0,0,0-.21-.21H14.3a.22.22,0,0,0-.21.21v.68a3.65,3.65,0,0,0-.91.38L12.7,20a.22.22,0,0,0-.3,0l-.89.89a.22.22,0,0,0,0,.3l.48.48a3.16,3.16,0,0,0-.37.89l0,0h-.67a.22.22,0,0,0-.21.21V24a.22.22,0,0,0,.21.21h.68a3.65,3.65,0,0,0,.38.91l-.48.48a.22.22,0,0,0,0,.3l.89.89a.22.22,0,0,0,.3,0l.48-.48a3.16,3.16,0,0,0,.89.37l0,0v.67a.22.22,0,0,0,.21.21h1.27a.22.22,0,0,0,.21-.21V26.7a3.65,3.65,0,0,0,.91-.38l.48.48a.22.22,0,0,0,.3,0l.89-.89a.22.22,0,0,0,0-.3l-.48-.48a3.16,3.16,0,0,0,.37-.89l0,0h.67a.22.22,0,0,0,.21-.21V22.74A.22.22,0,0,0,18.94,22.53Z"/><path class="cls-8" d="M21.48,30.35a1.84,1.84,0,0,1-1.91,1.76H9.34a1.84,1.84,0,0,1-1.91-1.76V24.19a1.84,1.84,0,0,1,1.91-1.76H19.57a1.84,1.84,0,0,1,1.91,1.76Z"/><path class="cls-9" d="M9.75,28.19a2.66,2.66,0,0,0,0,.3.69.69,0,0,0,.08.23.41.41,0,0,0,.16.16.45.45,0,0,0,.24.06.5.5,0,0,0,.26-.06.46.46,0,0,0,.15-.16.69.69,0,0,0,.08-.23,2.66,2.66,0,0,0,0-.3v-3h.86v3a1.9,1.9,0,0,1-.11.68,1,1,0,0,1-.75.63,2.1,2.1,0,0,1-.51.05,2.07,2.07,0,0,1-.5-.05,1,1,0,0,1-.44-.19A1,1,0,0,1,9,28.89a1.94,1.94,0,0,1-.11-.7v-3h.86Z"/><path class="cls-9" d="M14.2,28.14h0V25.21H15v4.28H14l-1-3h0v3h-.79V25.21h1Z"/><path class="cls-9" d="M15.65,25.21h.86v4.28h-.86Z"/><path class="cls-9" d="M17.92,25.21l.55,1.38L19,25.21H20l-1,2.11L20,29.49h-1L18.44,28l-.61,1.45h-.94L18,27.32l-1-2.11Z"/></g></g></svg>