<svg xmlns="http://www.w3.org/2000/svg" viewBox="0 0 35.84 27.85"><defs><style>.cls-1{fill:#e3edfa;}.cls-2{fill:#ebeca2;}.cls-3{fill:none;stroke-width:0.82px;}.cls-3,.cls-4{stroke:#1d1d1b;stroke-miterlimit:3.86;}.cls-4{fill:#fff;stroke-width:0.82px;}</style></defs><title>Sprache_Txt</title><g id="Ebene_2" data-name="Ebene 2"><g id="Ebene_1-2" data-name="Ebene 1"><path class="cls-1" d="M34.56,18.06v.21a9.17,9.17,0,0,1-9.17,9.17H12.24a9.18,9.18,0,0,1-9.17-9.17V13.16A9.18,9.18,0,0,1,12.24,4H25.39A9.08,9.08,0,0,1,30.72,5.7V18.06Z"/><polygon class="cls-2" points="34.56 13.05 32.17 13.05 32.17 16.31 34.56 16.31 35.44 16.31 35.44 13.05 34.56 13.05"/><path class="cls-3" d="M34.56,18.06v.21a9.17,9.17,0,0,1-9.17,9.17H12.24a9.18,9.18,0,0,1-9.17-9.17V13.16A9.18,9.18,0,0,1,12.24,4H25.39A9.08,9.08,0,0,1,30.72,5.7"/><polygon class="cls-3" points="35.44 3.99 35.44 11.03 34.31 11.03 32.17 11.03 32.17 6.99 32.17 3.99 32.17 0.41 35.44 0.41 35.44 3.99"/><polygon class="cls-3" points="34.56 13.05 35.44 13.05 35.44 16.31 34.56 16.31 32.17 16.31 32.17 13.05 34.56 13.05"/><g id="_Gruppe_" data-name="&lt;Gruppe&gt;"><polygon class="cls-2" points="32.17 0.41 32.17 3.99 32.17 6.99 32.17 11.03 34.31 11.03 35.44 11.03 35.44 3.99 35.44 0.41 32.17 0.41"/><path class="cls-1" d="M34.56,18.06v.21a9.17,9.17,0,0,1-9.17,9.17H12.24a9.18,9.18,0,0,1-9.17-9.17V13.16A9.18,9.18,0,0,1,12.24,4H25.39A9.08,9.08,0,0,1,30.72,5.7V18.06Z"/><path class="cls-3" d="M34.56,18.06v.21a9.17,9.17,0,0,1-9.17,9.17H12.24a9.18,9.18,0,0,1-9.17-9.17V13.16A9.18,9.18,0,0,1,12.24,4H25.39A9.08,9.08,0,0,1,30.72,5.7"/><rect class="cls-3" x="32.17" y="0.41" width="3.26" height="10.62"/><rect class="cls-3" x="32.17" y="13.05" width="3.26" height="3.26"/></g><rect class="cls-4" x="0.41" y="10.13" width="26.5" height="11.16"/></g></g></svg>