<svg xmlns="http://www.w3.org/2000/svg" viewBox="0 0 33.18 27.85"><defs><style>.cls-1{fill:#e3edfa;}.cls-2{fill:#ebeca2;}.cls-3{fill:none;stroke:#1d1d1b;stroke-miterlimit:3.86;stroke-width:0.82px;}</style></defs><title>Sprache</title><g id="Ebene_2" data-name="Ebene 2"><g id="Ebene_1-2" data-name="Ebene 1"><path class="cls-1" d="M31.9,18.06v.21a9.17,9.17,0,0,1-9.17,9.17H9.58A9.18,9.18,0,0,1,.41,18.27V13.16A9.18,9.18,0,0,1,9.58,4H22.73A9.08,9.08,0,0,1,28.06,5.7V18.06Z"/><polygon class="cls-2" points="31.9 13.05 29.51 13.05 29.51 16.31 31.9 16.31 32.77 16.31 32.77 13.05 31.9 13.05"/><path class="cls-3" d="M31.9,18.06v.21a9.17,9.17,0,0,1-9.17,9.17H9.58A9.18,9.18,0,0,1,.41,18.27V13.16A9.18,9.18,0,0,1,9.58,4H22.73A9.08,9.08,0,0,1,28.06,5.7"/><polygon class="cls-3" points="32.77 3.99 32.77 11.03 31.65 11.03 29.51 11.03 29.51 6.99 29.51 3.99 29.51 0.41 32.77 0.41 32.77 3.99"/><polygon class="cls-3" points="31.9 13.05 32.77 13.05 32.77 16.31 31.9 16.31 29.51 16.31 29.51 13.05 31.9 13.05"/><g id="_Gruppe_" data-name="&lt;Gruppe&gt;"><polygon class="cls-2" points="29.51 0.41 29.51 3.99 29.51 6.99 29.51 11.03 31.65 11.03 32.77 11.03 32.77 3.99 32.77 0.41 29.51 0.41"/><path class="cls-1" d="M31.9,18.06v.21a9.17,9.17,0,0,1-9.17,9.17H9.58A9.18,9.18,0,0,1,.41,18.27V13.16A9.18,9.18,0,0,1,9.58,4H22.73A9.08,9.08,0,0,1,28.06,5.7V18.06Z"/><path class="cls-3" d="M31.9,18.06v.21a9.17,9.17,0,0,1-9.17,9.17H9.58A9.18,9.18,0,0,1,.41,18.27V13.16A9.18,9.18,0,0,1,9.58,4H22.73A9.08,9.08,0,0,1,28.06,5.7"/><rect class="cls-3" x="29.51" y="0.41" width="3.26" height="10.62"/><rect class="cls-3" x="29.51" y="13.05" width="3.26" height="3.26"/></g></g></g></svg>