<svg xmlns="http://www.w3.org/2000/svg" viewBox="0 0 29.34 26.77"><defs><style>.cls-1,.cls-3,.cls-5{fill:#fff;}.cls-1,.cls-2,.cls-5{stroke:#1d1d1b;}.cls-1,.cls-2{stroke-linejoin:round;}.cls-1,.cls-2,.cls-3{stroke-width:0.82px;}.cls-2{fill:#b8c9d9;}.cls-3{stroke:#9baab7;stroke-miterlimit:10;}.cls-4{fill:#1d1d1b;}.cls-5{stroke-miterlimit:3.86;stroke-width:0.82px;}.cls-6{fill:#a1b505;}</style></defs><title>Use_Agreement</title><g id="Ebene_2" data-name="Ebene 2"><g id="Ebene_1-2" data-name="Ebene 1"><path class="cls-1" d="M25.8,26.36H9.56V2c0-.87.52-1.58,1.16-1.58H28.17C27.53.41,27,1.12,27,2V24.72C27,25.63,26.46,26.36,25.8,26.36Z"/><path class="cls-2" d="M24.9,23.84H7.45v1c0,.86.51,1.56,1.15,1.56H26c-.63,0-1.14-.7-1.14-1.56Z"/><line class="cls-3" x1="19.25" y1="7.65" x2="11.91" y2="7.65"/><line class="cls-3" x1="19.25" y1="10.69" x2="16.26" y2="10.69"/><line class="cls-3" x1="24.36" y1="13.72" x2="17.19" y2="13.72"/><line class="cls-3" x1="24.36" y1="16.75" x2="17.19" y2="16.75"/><path class="cls-4" d="M22.26,9.48a.72.72,0,0,0,.18.51.62.62,0,0,0,.45.19.55.55,0,0,0,.46-.19.69.69,0,0,0,0-.82,1.3,1.3,0,0,0-.45-.32l-1.1-.54a1.69,1.69,0,0,1-.74-.59,1.45,1.45,0,0,1-.22-.79,1.36,1.36,0,0,1,.22-.77,1.5,1.5,0,0,1,.59-.52,1.23,1.23,0,0,1-.54-1,1.47,1.47,0,0,1,.15-.69,1.23,1.23,0,0,1,.39-.46,1.54,1.54,0,0,1,.58-.26A3.4,3.4,0,0,1,23,3.13a2.57,2.57,0,0,1,.78.11,1.36,1.36,0,0,1,.53.3,1.08,1.08,0,0,1,.3.46,1.63,1.63,0,0,1,.1.59H23.49a.68.68,0,0,0-.13-.44A.57.57,0,0,0,22.87,4a.54.54,0,0,0-.41.15.48.48,0,0,0-.15.36.49.49,0,0,0,.13.31,1.45,1.45,0,0,0,.45.31l1.07.5a2.34,2.34,0,0,1,.7.54,1.42,1.42,0,0,1,.29.93,1.48,1.48,0,0,1-.05.35,1.69,1.69,0,0,1-.15.37,1.66,1.66,0,0,1-.22.32,1.05,1.05,0,0,1-.28.24,1.51,1.51,0,0,1,.35.44,1.53,1.53,0,0,1,.13.68,1.42,1.42,0,0,1-.48,1.17,2.16,2.16,0,0,1-1.36.37,2,2,0,0,1-1.37-.42,1.45,1.45,0,0,1-.44-1.12V9.35h1.18Zm1-1.65a.66.66,0,0,1,.17.12,1.48,1.48,0,0,0,.33-.37.64.64,0,0,0,.09-.31.6.6,0,0,0-.13-.4,1.75,1.75,0,0,0-.48-.34l-.86-.46A1.28,1.28,0,0,0,22,6.4a.64.64,0,0,0-.12.35A.56.56,0,0,0,22,7a.49.49,0,0,0,.23.22l.89.49Z"/><path class="cls-5" d="M17.19,17.41a2.47,2.47,0,0,1-2.56,2.35H3A2.47,2.47,0,0,1,.41,17.41V12.47A2.47,2.47,0,0,1,3,10.12H14.63a2.47,2.47,0,0,1,2.56,2.35Z"/><path class="cls-6" d="M5.1,15.88a3,3,0,0,0,0,.31.92.92,0,0,0,.08.25.44.44,0,0,0,.17.16.53.53,0,0,0,.26.06.54.54,0,0,0,.27-.06.49.49,0,0,0,.16-.16.67.67,0,0,0,.08-.25,1.56,1.56,0,0,0,0-.31V12.72h.92v3.16a1.67,1.67,0,0,1-.13.71,1.08,1.08,0,0,1-.32.45,1.23,1.23,0,0,1-.46.22,3.1,3.1,0,0,1-.54,0,2.41,2.41,0,0,1-.54,0,1.12,1.12,0,0,1-.46-.2,1.14,1.14,0,0,1-.32-.44,1.94,1.94,0,0,1-.12-.74V12.72H5.1Z"/><path class="cls-6" d="M8.39,16a1.28,1.28,0,0,0,0,.29.5.5,0,0,0,.1.22.42.42,0,0,0,.18.14.85.85,0,0,0,.3.05.6.6,0,0,0,.38-.13.54.54,0,0,0,.16-.43.71.71,0,0,0,0-.26.63.63,0,0,0-.13-.2,1.2,1.2,0,0,0-.25-.16l-.39-.15a3.25,3.25,0,0,1-.52-.22,1.34,1.34,0,0,1-.37-.28.91.91,0,0,1-.22-.38A1.45,1.45,0,0,1,7.54,14a1.27,1.27,0,0,1,.37-1,1.5,1.5,0,0,1,1-.33,2.45,2.45,0,0,1,.56.07,1.07,1.07,0,0,1,.44.22.89.89,0,0,1,.29.37,1.36,1.36,0,0,1,.11.56V14H9.46a.86.86,0,0,0-.11-.5A.42.42,0,0,0,9,13.3a.58.58,0,0,0-.25,0,.4.4,0,0,0-.16.12.32.32,0,0,0-.09.16,1.36,1.36,0,0,0,0,.2.63.63,0,0,0,.09.35.74.74,0,0,0,.38.26l.7.31a1.57,1.57,0,0,1,.43.24,1.28,1.28,0,0,1,.26.26,1.15,1.15,0,0,1,.14.32,2.17,2.17,0,0,1,0,.38,1.24,1.24,0,0,1-.41,1,1.82,1.82,0,0,1-1.16.32A1.52,1.52,0,0,1,7.81,17a1.34,1.34,0,0,1-.34-1v-.19h.92Z"/><path class="cls-6" d="M13.47,13.47H11.85v1.06h1.52v.75H11.85V16.5h1.68v.74H10.94V12.72h2.53Z"/></g></g></svg>