<svg xmlns="http://www.w3.org/2000/svg" viewBox="0 0 25.05 26.77"><defs><style>.cls-1{fill:#fff;}.cls-2{fill:#b8c9d9;}.cls-3{fill:#1d1d1b;}.cls-4{fill:#fff7cc;}.cls-5{fill:#dbe5f1;}.cls-6,.cls-7,.cls-8,.cls-9{fill:none;stroke-width:0.82px;}.cls-6,.cls-7,.cls-9{stroke:#1d1d1b;}.cls-6{stroke-linecap:round;}.cls-6,.cls-7{stroke-linejoin:round;}.cls-8{stroke:#9baab7;}.cls-8,.cls-9{stroke-miterlimit:10;}</style></defs><title>User_Agreement</title><g id="Ebene_2" data-name="Ebene 2"><g id="Ebene_1-2" data-name="Ebene 1"><path class="cls-1" d="M19,6.53l-.86-.46a1.15,1.15,0,0,0-.38.33.62.62,0,0,0-.12.35.56.56,0,0,0,.08.26.54.54,0,0,0,.23.22l.89.49a1.18,1.18,0,0,1,.19.11l.16.11a1.31,1.31,0,0,0,.33-.36.7.7,0,0,0,.1-.31.61.61,0,0,0-.14-.4A1.56,1.56,0,0,0,19,6.53Z"/><path class="cls-1" d="M21.09.41H6.42C5.78.41,5.26,1.12,5.26,2V5.63a2.23,2.23,0,0,1,0,4.45V11.5H8.15a1.58,1.58,0,0,1,.58.11,1.56,1.56,0,0,1,1,1.43v7.47H5.26v3.33H20.6v1a1.44,1.44,0,0,0,1,1.54,1.52,1.52,0,0,0,1.07-1.62V2c0-.87.53-1.58,1.17-1.58Zm-.49,7a1.14,1.14,0,0,1-.15.36,1.46,1.46,0,0,1-.22.33,1.05,1.05,0,0,1-.28.24,1.36,1.36,0,0,1,.35.44,1.48,1.48,0,0,1,.13.67A1.39,1.39,0,0,1,20,10.64,2.09,2.09,0,0,1,18.6,11a2,2,0,0,1-1.38-.42,1.5,1.5,0,0,1-.44-1.12V9.35H18v.13a.72.72,0,0,0,.18.51.62.62,0,0,0,.45.19.53.53,0,0,0,.45-.19.69.69,0,0,0,0-.82,1.19,1.19,0,0,0-.45-.33l-1.1-.53a1.63,1.63,0,0,1-.74-.6,1.5,1.5,0,0,1-.22-.78,1.34,1.34,0,0,1,.22-.77,1.5,1.5,0,0,1,.59-.52,1.23,1.23,0,0,1-.54-1A1.4,1.4,0,0,1,17,3.93a1.16,1.16,0,0,1,.39-.46,1.54,1.54,0,0,1,.58-.26,2.87,2.87,0,0,1,.73-.08,2.3,2.3,0,0,1,.78.11,1.36,1.36,0,0,1,.53.3,1.08,1.08,0,0,1,.3.46,1.63,1.63,0,0,1,.1.59H19.19a.68.68,0,0,0-.13-.44A.57.57,0,0,0,18.57,4a.54.54,0,0,0-.41.15.5.5,0,0,0-.15.37.49.49,0,0,0,.13.31,1.45,1.45,0,0,0,.45.31l1.07.5a2.06,2.06,0,0,1,.7.54,1.42,1.42,0,0,1,.29.93A1.55,1.55,0,0,1,20.6,7.43Z"/><g id="_Gruppe_" data-name="&lt;Gruppe&gt;"><path class="cls-2" d="M21.75,26.36H21.5a.3.3,0,0,0,.13,0A.25.25,0,0,0,21.75,26.36Z"/><path class="cls-1" d="M18.81,7.72l-.89-.49A.54.54,0,0,1,17.69,7a.56.56,0,0,1-.08-.26.62.62,0,0,1,.12-.35,1.15,1.15,0,0,1,.38-.33l.86.46a1.56,1.56,0,0,1,.48.34.61.61,0,0,1,.14.4.7.7,0,0,1-.1.31,1.31,1.31,0,0,1-.33.36L19,7.83A1.18,1.18,0,0,0,18.81,7.72Z"/><path class="cls-3" d="M17.92,7.23l.89.49a1.18,1.18,0,0,1,.19.11l.16.11a1.31,1.31,0,0,0,.33-.36.7.7,0,0,0,.1-.31.61.61,0,0,0-.14-.4A1.56,1.56,0,0,0,19,6.53l-.86-.46a1.15,1.15,0,0,0-.38.33.62.62,0,0,0-.12.35.56.56,0,0,0,.08.26A.54.54,0,0,0,17.92,7.23Zm-1.37-.3a1.34,1.34,0,0,1,.22-.77,1.5,1.5,0,0,1,.59-.52,1.23,1.23,0,0,1-.54-1A1.4,1.4,0,0,1,17,3.93a1.16,1.16,0,0,1,.39-.46,1.54,1.54,0,0,1,.58-.26,2.87,2.87,0,0,1,.73-.08,2.3,2.3,0,0,1,.78.11,1.36,1.36,0,0,1,.53.3,1.08,1.08,0,0,1,.3.46,1.63,1.63,0,0,1,.1.59H19.19a.68.68,0,0,0-.13-.44A.57.57,0,0,0,18.57,4a.54.54,0,0,0-.41.15.5.5,0,0,0-.15.37.49.49,0,0,0,.13.31,1.45,1.45,0,0,0,.45.31l1.07.5a2.06,2.06,0,0,1,.7.54,1.42,1.42,0,0,1,.29.93,1.55,1.55,0,0,1,0,.35,1.14,1.14,0,0,1-.15.36,1.46,1.46,0,0,1-.22.33,1.05,1.05,0,0,1-.28.24,1.36,1.36,0,0,1,.35.44,1.48,1.48,0,0,1,.13.67A1.39,1.39,0,0,1,20,10.64,2.09,2.09,0,0,1,18.6,11a2,2,0,0,1-1.38-.42,1.5,1.5,0,0,1-.44-1.12V9.35H18v.13a.72.72,0,0,0,.18.51.62.62,0,0,0,.45.19.53.53,0,0,0,.45-.19.69.69,0,0,0,0-.82,1.19,1.19,0,0,0-.45-.33l-1.1-.53a1.63,1.63,0,0,1-.74-.6A1.5,1.5,0,0,1,16.55,6.93Z"/><path class="cls-2" d="M5.26,23.84H20.6v1a1.44,1.44,0,0,0,1,1.54.3.3,0,0,1-.13,0H5.26Z"/><path class="cls-2" d="M5.26,23.84v2.52h-1c-.63,0-1.15-.7-1.15-1.56v-1Z"/><path class="cls-4" d="M5.26,5.63H4.84a2.24,2.24,0,0,0,0,4.45h.42a2.23,2.23,0,0,0,0-4.45Z"/><path class="cls-5" d="M8.73,11.61a1.58,1.58,0,0,0-.58-.11H2A1.54,1.54,0,0,0,.41,13v7.47H9.69V13A1.56,1.56,0,0,0,8.73,11.61Z"/><path class="cls-6" d="M24.64.41h-.77c-.64,0-1.17.71-1.17,1.58V24.72a1.52,1.52,0,0,1-1.07,1.62"/><path class="cls-7" d="M5.26,4.31V2c0-.87.52-1.58,1.16-1.58H23.87"/><line class="cls-7" x1="5.26" y1="23.84" x2="5.26" y2="21.6"/><path class="cls-7" d="M21.84,26.36h-.09a.25.25,0,0,1-.12,0,1.44,1.44,0,0,1-1-1.54v-1H3.15v1c0,.86.52,1.56,1.15,1.56H21.75"/><line class="cls-8" x1="14.95" y1="7.65" x2="8.73" y2="7.65"/><line class="cls-8" x1="14.95" y1="10.68" x2="11.28" y2="10.68"/><line class="cls-8" x1="20.07" y1="13.72" x2="11.28" y2="13.72"/><line class="cls-8" x1="20.07" y1="16.75" x2="11.28" y2="16.75"/><path class="cls-9" d="M8.73,11.61a1.56,1.56,0,0,1,1,1.43v7.47H.41V13A1.54,1.54,0,0,1,2,11.5H8.15A1.58,1.58,0,0,1,8.73,11.61Z"/><line class="cls-9" x1="2.55" y1="20.51" x2="2.55" y2="14.21"/><line class="cls-9" x1="7.55" y1="20.51" x2="7.55" y2="14.21"/><path class="cls-9" d="M5.26,5.63a2.23,2.23,0,0,1,0,4.45H4.84a2.24,2.24,0,0,1,0-4.45h.42Z"/></g></g></g></svg>