<svg xmlns="http://www.w3.org/2000/svg" viewBox="0 0 25.15 26.05"><defs><style>.cls-1{fill:#fff7cd;}.cls-2,.cls-4{fill:#fff;}.cls-2{stroke:#0c90b4;stroke-miterlimit:3.86;stroke-width:0.33px;}.cls-3{fill:#010101;}.cls-5{fill:#dbe5f1;}.cls-5,.cls-6{stroke:#1d1d1b;stroke-miterlimit:10;stroke-width:0.82px;}.cls-6{fill:#fff7cc;}</style></defs><title>Vendor</title><g id="Ebene_2" data-name="Ebene 2"><g id="Ebene_1-2" data-name="Ebene 1"><polygon class="cls-1" points="14.69 7.96 14.71 15.59 22.33 15.59 24.75 13.31 24.77 5.69 17.14 5.69 14.69 7.96"/><polygon class="cls-2" points="18.68 7.26 18.68 3.9 17.47 3.9 19.79 1.59 22.11 3.9 20.87 3.9 20.87 7.26 18.68 7.26"/><path class="cls-3" d="M21.15,5.31V4.19h1.64l-3-3-3,3H18.4V5.31H17L14.3,7.79l0,8.18h8.15l2.65-2.49,0-8.17ZM15.09,15.2l0-7.07.1-.1h7V15.2Zm9.27-2-1.69,1.59v-7l1.72-1.48Z"/><polygon class="cls-4" points="18.97 6.97 20.58 6.97 20.58 3.62 21.42 3.62 19.79 1.99 18.15 3.62 18.97 3.62 18.97 6.97"/><path class="cls-5" d="M3.14,9.74H14.06a2.73,2.73,0,0,1,2.73,2.73V25.64a0,0,0,0,1,0,0H.41a0,0,0,0,1,0,0V12.47A2.73,2.73,0,0,1,3.14,9.74Z"/><line class="cls-5" x1="4.19" y1="25.64" x2="4.19" y2="14.53"/><line class="cls-5" x1="13.01" y1="25.64" x2="13.01" y2="14.53"/><circle class="cls-6" cx="8.6" cy="4.35" r="3.94"/></g></g></svg>