<svg xmlns="http://www.w3.org/2000/svg" viewBox="0 0 33.01 25.32"><defs><style>.cls-1{fill:#d9e5ec;}.cls-2{fill:#c4c4c4;}.cls-3,.cls-8{fill:#fff;}.cls-4,.cls-5,.cls-6{fill:none;}.cls-4,.cls-5,.cls-6,.cls-7,.cls-8{stroke:#1d1d1b;}.cls-4,.cls-5,.cls-7{stroke-linejoin:round;}.cls-4,.cls-8{stroke-width:0.82px;}.cls-5{stroke-width:0.84px;}.cls-6,.cls-7{stroke-linecap:round;}.cls-6{stroke-miterlimit:10;}.cls-7,.cls-9{fill:#1d1d1b;}.cls-7{stroke-width:0.8px;}.cls-8{stroke-miterlimit:3.86;}</style></defs><title>Virtual_Machine</title><g id="Ebene_2" data-name="Ebene 2"><g id="Ebene_1-2" data-name="Ebene 1"><rect class="cls-1" x="6.1" y="6.46" width="26.5" height="18.45"/><path class="cls-2" d="M32.6.41V6.46H6.1v-6ZM30.66,4.52V2.41H12.46V4.52Zm-20,0V2.41H8V4.52Z"/><rect class="cls-3" x="12.46" y="2.41" width="18.2" height="2.11"/><rect class="cls-2" x="7.97" y="2.41" width="2.71" height="2.11"/><polygon class="cls-4" points="32.6 6.46 32.6 24.91 6.1 24.91 6.1 6.46 6.1 0.41 32.6 0.41 32.6 6.46"/><line class="cls-4" x1="32.6" y1="6.46" x2="6.1" y2="6.46"/><rect class="cls-5" x="7.97" y="2.41" width="2.71" height="2.11"/><line class="cls-6" x1="28.52" y1="19.38" x2="24.75" y2="15.61"/><polygon class="cls-7" points="21.77 12.62 23.78 17.01 26.15 14.64 21.77 12.62"/><path class="cls-8" d="M17.38,20.9a1.24,1.24,0,0,1-1.29,1.19H1.7A1.24,1.24,0,0,1,.41,20.9V16.74A1.24,1.24,0,0,1,1.7,15.55H16.09a1.24,1.24,0,0,1,1.29,1.19Z"/><path class="cls-9" d="M3.08,19.57h0l.43-2.14h.6l-.67,2.89H2.72l-.67-2.89h.62Z"/><path class="cls-9" d="M4.37,17.43H5v2.89H4.37Z"/><path class="cls-9" d="M6.47,17.43a.8.8,0,0,1,.56.18.7.7,0,0,1,.21.56.85.85,0,0,1-.12.48.53.53,0,0,1-.37.23h0a.5.5,0,0,1,.32.14.66.66,0,0,1,.13.36.91.91,0,0,1,0,.17c0,.07,0,.14,0,.22s0,.27,0,.35a.22.22,0,0,0,.11.16v0H6.72a.35.35,0,0,1-.06-.14.86.86,0,0,1,0-.16l0-.56a.54.54,0,0,0-.09-.27.31.31,0,0,0-.26-.09H6v1.22H5.39V17.43Zm-.25,1.26a.46.46,0,0,0,.32-.1.44.44,0,0,0,.11-.33.35.35,0,0,0-.4-.4H6v.83Z"/><path class="cls-9" d="M9.26,17.9H8.63v2.42H8.05V17.9H7.41v-.47H9.26Z"/><path class="cls-9" d="M10.06,19.44c0,.08,0,.14,0,.2a.38.38,0,0,0,.06.16.27.27,0,0,0,.1.11.43.43,0,0,0,.17,0,.39.39,0,0,0,.17,0,.27.27,0,0,0,.1-.11.38.38,0,0,0,.06-.16,1.21,1.21,0,0,0,0-.2v-2h.58v2a1.2,1.2,0,0,1-.07.46.7.7,0,0,1-.21.29.78.78,0,0,1-.29.14,2.07,2.07,0,0,1-.35,0,1.87,1.87,0,0,1-.34,0,.67.67,0,0,1-.3-.13.76.76,0,0,1-.21-.28,1.28,1.28,0,0,1-.07-.48v-2h.58Z"/><path class="cls-9" d="M13,17.43l.76,2.89h-.6L13,19.71h-.77l-.13.61h-.61l.77-2.89Zm-.08,1.8-.28-1.3h0l-.28,1.3Z"/><path class="cls-9" d="M14,17.43h.58v2.41h1v.48H14Z"/></g></g></svg>