<svg xmlns="http://www.w3.org/2000/svg" viewBox="0 0 27.32 25.32"><defs><style>.cls-1{fill:#d9e5ec;}.cls-2{fill:#c4c4c4;}.cls-3{fill:#fff;}.cls-4,.cls-5{fill:none;stroke-linejoin:round;}.cls-4,.cls-5,.cls-6{stroke:#1d1d1b;}.cls-4{stroke-width:0.82px;}.cls-5{stroke-width:0.84px;}.cls-6{fill:#b8c9d9;stroke-miterlimit:3.86;stroke-width:0.82px;}</style></defs><title>Webclient</title><g id="Ebene_2" data-name="Ebene 2"><g id="Ebene_1-2" data-name="Ebene 1"><rect class="cls-1" x="0.41" y="6.46" width="26.5" height="18.45"/><path class="cls-2" d="M26.91.41V6.46H.41v-6ZM25,4.52V2.41H6.77V4.52Zm-20,0V2.41H2.28V4.52Z"/><rect class="cls-3" x="6.77" y="2.41" width="18.2" height="2.11"/><rect class="cls-2" x="2.28" y="2.41" width="2.71" height="2.11"/><polygon class="cls-4" points="26.91 6.46 26.91 24.91 0.41 24.91 0.41 6.46 0.41 0.41 26.91 0.41 26.91 6.46"/><line class="cls-4" x1="26.91" y1="6.46" x2="0.41" y2="6.46"/><rect class="cls-5" x="2.28" y="2.41" width="2.71" height="2.11"/><ellipse class="cls-6" cx="13.63" cy="15.5" rx="8.21" ry="6.85"/><ellipse class="cls-6" cx="13.63" cy="15.5" rx="4.56" ry="6.85"/><line class="cls-6" x1="5.42" y1="15.5" x2="21.89" y2="15.5"/><line class="cls-6" x1="13.65" y1="22.38" x2="13.65" y2="8.63"/></g></g></svg>