<svg xmlns="http://www.w3.org/2000/svg" viewBox="0 0 21.95 21.95"><defs><style>.cls-1{fill:#d6e7f1;fill-rule:evenodd;}.cls-2{fill:#0d4252;}.cls-3{fill:#1d1d1b;}</style></defs><title>Workflow_Mgmt_1</title><g id="Ebene_2" data-name="Ebene 2"><g id="Ebene_1-2" data-name="Ebene 1"><path class="cls-1" d="M21,8.86H19.32a8.27,8.27,0,0,0-.95-2.29l1.21-1.21a.54.54,0,0,0,0-.75L17.34,2.37a.54.54,0,0,0-.75,0L15.38,3.58a7.91,7.91,0,0,0-2.24-.93l-.05-.07V.92a.54.54,0,0,0-.53-.53H9.39a.55.55,0,0,0-.53.53V2.63a8.27,8.27,0,0,0-2.29,1L5.36,2.37a.54.54,0,0,0-.75,0L2.37,4.61a.54.54,0,0,0,0,.75L3.58,6.57a7.91,7.91,0,0,0-.93,2.24l-.07,0H.92a.55.55,0,0,0-.53.53v3.17a.55.55,0,0,0,.53.53H2.63a8.27,8.27,0,0,0,1,2.29L2.37,16.59a.54.54,0,0,0,0,.75l2.24,2.24a.54.54,0,0,0,.75,0l1.21-1.21a7.91,7.91,0,0,0,2.24.93l0,.07V21a.55.55,0,0,0,.53.53h3.17a.54.54,0,0,0,.53-.53V19.32a8.27,8.27,0,0,0,2.29-.95l1.21,1.21a.54.54,0,0,0,.75,0l2.24-2.24a.54.54,0,0,0,0-.75l-1.21-1.21a7.91,7.91,0,0,0,.93-2.24l.07-.05H21a.55.55,0,0,0,.53-.53V9.39A.55.55,0,0,0,21,8.86Z"/><path class="cls-2" d="M12.56,22H9.39A.93.93,0,0,1,8.47,21V19.61a7.91,7.91,0,0,1-1.84-.75l-1,1a.94.94,0,0,1-1.3,0L2.09,17.61a.94.94,0,0,1,0-1.3l1-1a8.92,8.92,0,0,1-.76-1.84H.92A.93.93,0,0,1,0,12.56V9.39a.93.93,0,0,1,.92-.92H2.33a8.41,8.41,0,0,1,.76-1.83l-1-1a1,1,0,0,1,0-1.31L4.34,2.09a1,1,0,0,1,1.3,0l1,1a8.7,8.7,0,0,1,1.84-.76V.92A.93.93,0,0,1,9.39,0h3.17a.93.93,0,0,1,.92.92V2.34a8.37,8.37,0,0,1,1.84.75l1-1a1,1,0,0,1,1.3,0l2.25,2.25a.93.93,0,0,1,0,1.3l-1,1a8.62,8.62,0,0,1,.76,1.83H21a.93.93,0,0,1,.92.92v3.17a.93.93,0,0,1-.92.92H19.62a8.92,8.92,0,0,1-.76,1.84l1,1a.94.94,0,0,1,0,1.31l-2.24,2.24a1,1,0,0,1-1.3,0l-1-1a8.7,8.7,0,0,1-1.84.76V21A.93.93,0,0,1,12.56,22ZM6.51,17.88l.26.16a7.74,7.74,0,0,0,2.13.88L9,19l.16.22.05.19V21a.15.15,0,0,0,.14.14h3.17a.16.16,0,0,0,.15-.14V19L13,19A8.53,8.53,0,0,0,15.18,18l.26-.16,1.43,1.43a.17.17,0,0,0,.19,0l2.25-2.25a.15.15,0,0,0,0-.1.12.12,0,0,0,0-.09l-1.42-1.43.15-.26a7.74,7.74,0,0,0,.88-2.13l0-.13.21-.17.2-.05H21a.15.15,0,0,0,.14-.14V9.39A.15.15,0,0,0,21,9.25H19L18.94,9A7.85,7.85,0,0,0,18,6.77l-.16-.26L19.3,5.09a.13.13,0,0,0,0-.1.15.15,0,0,0,0-.1L17.06,2.64a.17.17,0,0,0-.2,0L15.44,4.07l-.26-.16A7.74,7.74,0,0,0,13.05,3l-.14,0-.16-.22,0-.19V.92a.16.16,0,0,0-.15-.14H9.39a.15.15,0,0,0-.14.14v2L9,3a8.53,8.53,0,0,0-2.18.91l-.26.16L5.09,2.64a.18.18,0,0,0-.2,0L2.64,4.89a.15.15,0,0,0,0,.1.12.12,0,0,0,0,.09L4.07,6.51l-.16.26A8.14,8.14,0,0,0,3,8.9L3,9l-.21.17-.2.05H.92a.15.15,0,0,0-.14.14v3.17a.15.15,0,0,0,.14.14h2L3,13a8.32,8.32,0,0,0,.91,2.18l.16.26L2.64,16.86a.17.17,0,0,0,0,.1.15.15,0,0,0,0,.1l2.25,2.25a.17.17,0,0,0,.2,0Z"/><path class="cls-3" d="M13,5.74,11.58,3.92a.35.35,0,0,0-.49,0l0,0a.35.35,0,0,0-.05.49l.83,1A5.84,5.84,0,0,0,7.08,15.6a.39.39,0,0,0,.27.1.41.41,0,0,0,.3-.14.4.4,0,0,0,0-.57,5,5,0,0,1,4.21-8.75l-1.28.9a.34.34,0,0,0-.09.47l0,0a.35.35,0,0,0,.49.09L12.89,6.4A.44.44,0,0,0,13,5.74Z"/><path class="cls-3" d="M14.87,6.76a.47.47,0,0,0-.27-.1.41.41,0,0,0-.27.72,5,5,0,0,1-4.21,8.74l1.28-.89a.35.35,0,0,0,.08-.48l0-.05a.35.35,0,0,0-.48-.08L9.05,16a.45.45,0,0,0-.15.66l1.47,1.82a.34.34,0,0,0,.48.06l.05,0A.35.35,0,0,0,11,18l-.83-1A5.8,5.8,0,0,0,16.57,13,5.87,5.87,0,0,0,14.87,6.76Z"/></g></g></svg>