<svg xmlns="http://www.w3.org/2000/svg" viewBox="0 0 40.77 19.45"><defs><style>.Outline-Ende-Rund-9{fill:none;stroke-linecap:round;}.Outline-Ende-Rund-9,.cls-1{stroke:#1d1d1b;stroke-width:0.82px;}.Outline-Ende-Rund-9,.cls-1,.cls-2{stroke-miterlimit:10;}.cls-1{fill:#c5d4dc;}.cls-1,.cls-2{fill-rule:evenodd;}.cls-2{fill:#fff7cc;stroke:#0d4252;stroke-width:0.78px;}</style></defs><title>Workflow_Schema</title><g id="Ebene_2" data-name="Ebene 2"><g id="Ebene_1-2" data-name="Ebene 1"><line class="Outline-Ende-Rund-9" x1="15.81" y1="16.55" x2="24.57" y2="16.55"/><polygon class="cls-1" points="24.55 14.06 37.01 14.06 40.12 16.55 37.01 19.04 24.55 19.04 24.55 14.06"/><polygon class="cls-1" points="0.41 14.06 12.86 14.06 15.97 16.55 12.86 19.04 0.41 19.04 0.41 14.06"/><path class="cls-2" d="M25.38,5.37h-1A4.81,4.81,0,0,0,23.82,4l.71-.72a.31.31,0,0,0,0-.44L23.21,1.55a.33.33,0,0,0-.44,0l-.71.71a5,5,0,0,0-1.32-.54l0,0V.7A.32.32,0,0,0,20.4.39H18.53a.32.32,0,0,0-.31.31v1a5.11,5.11,0,0,0-1.34.55l-.71-.71a.33.33,0,0,0-.44,0L14.4,2.87a.33.33,0,0,0,0,.44l.72.72a4.61,4.61,0,0,0-.55,1.31l0,0h-1a.33.33,0,0,0-.31.31V7.55a.32.32,0,0,0,.31.31h1a5,5,0,0,0,.56,1.35l-.72.71a.33.33,0,0,0,0,.44l1.33,1.32a.31.31,0,0,0,.44,0l.71-.71a4.61,4.61,0,0,0,1.31.55l0,0v1a.32.32,0,0,0,.31.31H20.4a.32.32,0,0,0,.32-.31v-1A4.94,4.94,0,0,0,22.06,11l.71.71a.31.31,0,0,0,.44,0l1.32-1.32a.31.31,0,0,0,0-.44l-.71-.71a4.79,4.79,0,0,0,.55-1.32l0,0h1a.32.32,0,0,0,.32-.31V5.68A.33.33,0,0,0,25.38,5.37ZM19.47,9.92a3.31,3.31,0,1,1,3.31-3.3A3.31,3.31,0,0,1,19.47,9.92Z"/></g></g></svg>