<?xml version="1.0" encoding="iso-8859-1"?>
<!-- Uploaded to: SVG Repo, www.svgrepo.com, Generator: SVG Repo Mixer Tools -->
<svg version="1.1" id="Layer_1" xmlns="http://www.w3.org/2000/svg" xmlns:xlink="http://www.w3.org/1999/xlink" 
	 viewBox="0 0 512 512" xml:space="preserve">
<path style="fill:#0BBBDA;" d="M187.764,256.199c-15.499,0-28.063-12.497-28.063-27.915v-64.178
	c0-32.131,29.315-48.786,61.616-48.786h56.258c32.301,0,61.616,16.655,61.616,48.786v64.178c0,15.417-12.564,27.915-28.063,27.915
	H187.764z"/>
<rect x="171.183" y="272.031" style="fill:#FFCF70;" width="156.532" height="184.708"/>
<path style="fill:#FFBAA8;" d="M66.616,406.422H55.203c-13.999,0-25.349-11.349-25.349-25.349v-24.149
	c0-13.999,11.349-25.349,25.349-25.349h11.413c12.496,0,22.626,10.131,22.626,22.626v29.593
	C89.242,396.293,79.112,406.422,66.616,406.422z"/>
<path style="fill:#0BBBDA;" d="M108.661,492.686H10.435v-46.717c0-21.84,17.706-39.546,39.546-39.546h19.133
	c21.84,0,39.546,17.706,39.546,39.546V492.686z"/>
<path style="fill:#FFBAA8;" d="M164.842,406.422h-11.413c-13.999,0-25.349-11.349-25.349-25.349v-24.149
	c0-13.999,11.349-25.349,25.349-25.349h11.413c12.496,0,22.626,10.131,22.626,22.626v29.593
	C187.468,396.293,177.338,406.422,164.842,406.422z"/>
<path style="fill:#0BBBDA;" d="M206.887,492.686h-98.226v-46.717c0-21.84,17.706-39.546,39.546-39.546h19.133
	c21.84,0,39.546,17.706,39.546,39.546V492.686z"/>
<path style="fill:#FFBAA8;" d="M263.067,406.422h-11.413c-13.999,0-25.349-11.349-25.349-25.349v-24.149
	c0-13.999,11.349-25.349,25.349-25.349h11.413c12.496,0,22.626,10.131,22.626,22.626v29.593
	C285.694,396.293,275.564,406.422,263.067,406.422z"/>
<path style="fill:#0BBBDA;" d="M305.113,492.686h-98.226v-46.717c0-21.84,17.706-39.546,39.546-39.546h19.133
	c21.84,0,39.546,17.706,39.546,39.546V492.686z"/>
<path style="fill:#FFBAA8;" d="M361.293,406.422H349.88c-13.999,0-25.349-11.349-25.349-25.349v-24.149
	c0-13.999,11.349-25.349,25.349-25.349h11.413c12.496,0,22.626,10.131,22.626,22.626v29.593
	C383.919,396.293,373.79,406.422,361.293,406.422z"/>
<path style="fill:#0BBBDA;" d="M403.339,492.686h-98.226v-46.717c0-21.84,17.706-39.546,39.546-39.546h19.133
	c21.84,0,39.546,17.706,39.546,39.546L403.339,492.686L403.339,492.686z"/>
<path style="fill:#FFBAA8;" d="M459.519,406.422h-11.413c-13.999,0-25.349-11.349-25.349-25.349v-24.149
	c0-13.999,11.349-25.349,25.349-25.349h11.413c12.496,0,22.626,10.131,22.626,22.626v29.593
	C482.145,396.293,472.016,406.422,459.519,406.422z"/>
<path style="fill:#0BBBDA;" d="M501.565,492.686h-98.226v-46.717c0-21.84,17.706-39.546,39.546-39.546h19.133
	c21.84,0,39.546,17.706,39.546,39.546L501.565,492.686L501.565,492.686z"/>
<path style="fill:#FFBAA8;" d="M252.838,115.32h-6.783c-21.469,0-34.698-17.403-34.698-38.872V58.186
	c0-21.469,13.229-38.872,34.698-38.872h6.783c21.469,0,34.698,17.403,34.698,38.872v18.262
	C287.535,97.917,274.306,115.32,252.838,115.32z"/>
<g>
	<polygon style="fill:#ECF0F1;" points="282.77,115.32 249.446,167.672 216.124,115.32 	"/>
	<rect x="134.659" y="219.854" style="fill:#ECF0F1;" width="229.58" height="52.177"/>
</g>
<g>
	<path style="fill:#231F20;" d="M486.727,402.549c3.687-5.333,5.853-11.793,5.853-18.753v-29.592
		c0-18.231-14.832-33.063-33.063-33.063h-11.413c-19.731,0-35.784,16.053-35.784,35.784v24.149c0,7.814,2.524,15.046,6.791,20.937
		c-6.152,3.34-11.519,7.941-15.774,13.444c-4.036-5.219-9.079-9.617-14.837-12.907c3.687-5.332,5.853-11.793,5.853-18.753v-29.592
		c0-18.231-14.832-33.063-33.063-33.063H349.88c-4.109,0-8.055,0.705-11.733,1.986v-40.666h26.089
		c5.762,0,10.435-4.672,10.435-10.435v-52.177c0-5.763-4.673-10.435-10.435-10.435h-14.61v-45.308
		c0-31.368-23.985-54.214-59.686-58.488c5.11-8.009,8.03-17.984,8.03-29.17V58.186c0-28.57-18.981-49.308-45.133-49.308h-6.783
		c-26.152,0-45.133,20.737-45.133,49.308v18.262c0,11.186,2.92,21.161,8.03,29.17c-35.7,4.273-59.686,27.12-59.686,58.488v45.308
		h-14.61c-5.762,0-10.435,4.672-10.435,10.435v52.177c0,5.764,4.673,10.435,10.435,10.435h26.089v38.68h-7.316
		c-19.731,0-35.784,16.053-35.784,35.784v24.149c0,7.814,2.524,15.046,6.791,20.937c-6.152,3.34-11.519,7.941-15.774,13.444
		c-4.036-5.219-9.079-9.617-14.837-12.907c3.687-5.332,5.853-11.793,5.853-18.753v-29.592c0-18.231-14.832-33.063-33.063-33.063
		H55.203c-19.731,0-35.784,16.053-35.784,35.784v24.149c0,7.814,2.524,15.046,6.791,20.937C10.613,410.48,0,427.007,0,445.969
		v46.717c0,5.763,4.673,10.435,10.435,10.435h98.226h98.226h98.226h98.226h98.226c5.762,0,10.435-4.672,10.435-10.435v-46.717
		C512,427.393,501.807,411.164,486.727,402.549z M433.192,356.926c0-8.223,6.69-14.913,14.913-14.913h11.413
		c6.721,0,12.192,5.469,12.192,12.192v29.592c0,6.721-5.469,12.191-12.192,12.191h-11.413c-8.223,0-14.913-6.69-14.913-14.913
		L433.192,356.926L433.192,356.926z M349.88,342.013h11.413c6.721,0,12.192,5.469,12.192,12.192v29.592
		c0,6.721-5.469,12.191-12.192,12.191H349.88c-8.223,0-14.913-6.69-14.913-14.913v-24.149
		C334.967,348.703,341.657,342.013,349.88,342.013z M263.757,125.756l-14.311,22.482l-14.311-22.482H263.757z M221.792,58.186
		c0-14.155,7.502-28.437,24.262-28.437h6.783c16.76,0,24.262,14.282,24.262,28.437v18.262c0,14.155-7.502,28.437-24.262,28.437
		h-6.783c-16.76,0-24.262-14.282-24.262-28.437L221.792,58.186L221.792,58.186z M170.137,164.106
		c0-22.839,19.107-34.793,40.699-37.658l29.807,46.827c1.915,3.01,5.235,4.832,8.803,4.832s6.888-1.822,8.803-4.832l29.807-46.827
		c21.592,2.865,40.699,14.818,40.699,37.658v45.308h-18.262v-26.785c0-5.764-4.673-10.435-10.435-10.435
		c-5.762,0-10.435,4.672-10.435,10.435v26.785H209.27v-26.785c0-5.764-4.673-10.435-10.435-10.435
		c-5.762,0-10.435,4.672-10.435,10.435v26.785h-18.262L170.137,164.106L170.137,164.106z M145.091,230.284h208.709v31.306H145.091
		L145.091,230.284L145.091,230.284z M317.276,282.462v59.745c-2.037,4.494-3.181,9.473-3.181,14.719v24.149
		c0,7.814,2.524,15.046,6.791,20.937c-6.152,3.34-11.519,7.941-15.774,13.444c-4.036-5.219-9.079-9.617-14.837-12.907
		c3.687-5.332,5.853-11.793,5.853-18.753v-29.592c0-18.231-14.832-33.063-33.063-33.063h-11.413
		c-19.731,0-35.784,16.053-35.784,35.784v24.149c0,7.814,2.524,15.046,6.791,20.937c-6.152,3.34-11.519,7.941-15.774,13.444
		c-4.036-5.219-9.079-9.617-14.837-12.907c3.687-5.332,5.853-11.793,5.853-18.753v-29.592c0-12.11-6.549-22.715-16.288-28.474
		v-43.269L317.276,282.462L317.276,282.462z M236.741,381.075v-24.149c0-8.223,6.69-14.913,14.913-14.913h11.413
		c6.721,0,12.192,5.469,12.192,12.192v29.592c0,6.721-5.469,12.191-12.192,12.191h-11.413
		C243.431,395.987,236.741,389.297,236.741,381.075z M138.515,356.926c0-8.223,6.69-14.913,14.913-14.913h11.413
		c6.721,0,12.192,5.469,12.192,12.192v29.592c0,6.721-5.469,12.191-12.192,12.191h-11.413c-8.223,0-14.913-6.69-14.913-14.913
		V356.926z M40.289,356.926c0-8.223,6.69-14.913,14.913-14.913h11.413c6.721,0,12.192,5.469,12.192,12.192v29.592
		c0,6.721-5.469,12.191-12.192,12.191H55.203c-8.223,0-14.913-6.69-14.913-14.913C40.289,381.074,40.289,356.926,40.289,356.926z
		 M20.871,445.969c0-16.052,13.059-29.111,29.111-29.111h19.134c16.052,0,29.111,13.059,29.111,29.111v36.282H20.871V445.969z
		 M119.097,445.969c0-16.052,13.059-29.111,29.111-29.111h19.134c16.052,0,29.111,13.059,29.111,29.111v36.282h-77.355v-36.282
		H119.097z M217.323,445.969c0-16.052,13.059-29.111,29.111-29.111h19.134c16.052,0,29.111,13.059,29.111,29.111v36.282h-77.355
		v-36.282H217.323z M315.548,445.969c0-16.052,13.059-29.111,29.111-29.111h19.134c16.052,0,29.111,13.059,29.111,29.111v36.282
		h-77.355v-36.282H315.548z M491.129,482.251h-77.355v-36.282c0-16.052,13.059-29.111,29.111-29.111h19.134
		c16.052,0,29.111,13.059,29.111,29.111v36.282H491.129z"/>
	<circle style="fill:#231F20;" cx="249.449" cy="193.766" r="10.435"/>
</g>
</svg>