<?xml version="1.0" encoding="UTF-8" standalone="no"?>
<svg
   xmlns:dc="http://purl.org/dc/elements/1.1/"
   xmlns:cc="http://creativecommons.org/ns#"
   xmlns:rdf="http://www.w3.org/1999/02/22-rdf-syntax-ns#"
   xmlns:svg="http://www.w3.org/2000/svg"
   xmlns="http://www.w3.org/2000/svg"
   xmlns:sodipodi="http://sodipodi.sourceforge.net/DTD/sodipodi-0.dtd"
   xmlns:inkscape="http://www.inkscape.org/namespaces/inkscape"
   width="800px"
   height="800px"
   viewBox="0 0 48 48"
   enable-background="new 0 0 48 48"
   id="svg12"
   sodipodi:docname="electrical-sensor-svgrepo-com.svg"
   inkscape:version="1.0.1 (3bc2e813f5, 2020-09-07)">
  <metadata
     id="metadata18">
    <rdf:RDF>
      <cc:Work
         rdf:about="">
        <dc:format>image/svg+xml</dc:format>
        <dc:type
           rdf:resource="http://purl.org/dc/dcmitype/StillImage" />
      </cc:Work>
    </rdf:RDF>
  </metadata>
  <defs
     id="defs16" />
  <sodipodi:namedview
     pagecolor="#ffffff"
     bordercolor="#666666"
     borderopacity="1"
     objecttolerance="10"
     gridtolerance="10"
     guidetolerance="10"
     inkscape:pageopacity="0"
     inkscape:pageshadow="2"
     inkscape:window-width="1920"
     inkscape:window-height="1000"
     id="namedview14"
     showgrid="false"
     inkscape:zoom="0.74953319"
     inkscape:cx="551.22703"
     inkscape:cy="547.88411"
     inkscape:window-x="-9"
     inkscape:window-y="-9"
     inkscape:window-maximized="1"
     inkscape:current-layer="svg12" />
  <g
     id="g25">
    <circle
       fill="#B2EBF2"
       cx="32"
       cy="24"
       r="9"
       id="circle2" />
    <path
       fill="#4DD0E1"
       d="M32,12c-6.6,0-12,5.4-12,12c0,6.6,5.4,12,12,12s12-5.4,12-12C44,17.4,38.6,12,32,12z M32,32 c-4.4,0-8-3.6-8-8s3.6-8,8-8s8,3.6,8,8S36.4,32,32,32z"
       id="path4" />
    <g
       fill="#3F51B5"
       id="g10">
      <polygon
         points="25.4,22 19.8,5.1 13.6,27.7 11.4,22 4,22 4,26 8.6,26 14.4,40.3 20.2,18.9 22.6,26 30,26 30,22"
         id="polygon6" />
      <circle
         cx="32"
         cy="24"
         r="4"
         id="circle8" />
    </g>
  </g>
</svg>
