<?xml version="1.0" encoding="iso-8859-1"?>
<!-- Uploaded to: SVG Repo, www.svgrepo.com, Generator: SVG Repo Mixer Tools -->
<svg height="800px" width="800px" version="1.1" id="Capa_1" xmlns="http://www.w3.org/2000/svg" xmlns:xlink="http://www.w3.org/1999/xlink" 
	 viewBox="0 0 194.092 194.092" xml:space="preserve">
<g>
	<g>
		<g>
			<path style="fill:#010002;" d="M68.873,82.382c11.352,0,20.589-9.241,20.589-20.596c0-11.363-9.237-20.603-20.589-20.603
				c-11.363,0-20.607,9.241-20.607,20.603C48.266,73.145,57.51,82.382,68.873,82.382z M68.873,46.357
				c8.5,0,15.414,6.925,15.414,15.428c0,8.493-6.914,15.418-15.414,15.418c-8.507,0-15.428-6.925-15.428-15.418
				C53.445,53.282,60.366,46.357,68.873,46.357z"/>
			<path style="fill:#010002;" d="M126.153,82.382c11.37,0,20.603-9.241,20.603-20.596c0-11.363-9.233-20.603-20.603-20.603
				c-11.359,0-20.596,9.241-20.596,20.603C105.556,73.145,114.793,82.382,126.153,82.382z M126.153,46.357
				c8.51,0,15.421,6.925,15.421,15.428c0,8.493-6.911,15.418-15.421,15.418c-8.493,0-15.414-6.925-15.414-15.418
				C110.739,53.282,117.66,46.357,126.153,46.357z"/>
			<path style="fill:#010002;" d="M170.226,50.383c-1.024,0-2.026,0.183-3.003,0.544C155.653,20.421,127.423,0,96.695,0
				C66.067,0,37.87,20.346,26.245,50.73c-0.78-0.233-1.578-0.347-2.38-0.347c-7.494,0-13.367,9.878-13.367,22.49
				c0,11.445,4.531,20.417,11.098,22.178c2.498,16.413,9.509,31.412,20.314,43.426c-0.018,0.268-0.029,0.53-0.029,0.812
				c0,30.223,24.59,54.803,54.814,54.803s54.821-24.58,54.821-54.803c0-0.125,0-0.24-0.032-0.558l-0.011-0.229v-0.011
				c10.772-11.978,17.769-26.917,20.296-43.265c6.893-1.224,11.825-10.447,11.825-22.35
				C183.593,60.261,177.724,50.383,170.226,50.383z M147.221,138.577l-0.92,0.193l0.032,0.523c0,27.36-22.268,49.624-49.635,49.624
				c-27.364,0-49.628-22.268-49.628-49.624c0-0.268,0.014-0.523,0.039-0.773l0.05-0.898c0.891-26.895,22.654-47.96,49.546-47.96
				c26.73,0,48.493,20.943,49.535,47.674v0.297c0.011,0.225,0.029,0.426,0.039,0.54c0,0.125,0.011,0.251,0.021,0.336
				L147.221,138.577L147.221,138.577z M46.198,138.147L46.198,138.147L46.198,138.147L46.198,138.147z M23.869,90.176
				c-4.363,0-8.185-8.088-8.185-17.304s3.822-17.304,8.185-17.304c0.762,0,1.553,0.286,2.348,0.855l2.824,2.004l1.124-3.282
				C40.428,25.256,67.159,5.179,96.695,5.179c29.715,0,56.506,20.246,66.678,50.383l1.206,3.557l2.899-2.398
				c5.365-4.449,10.933,5.025,10.933,16.155c0,9.216-3.819,17.304-8.181,17.304c-0.075,0-0.165-0.014-0.426-0.054l-2.527-0.286
				l-0.34,2.534c-1.843,14.287-7.383,27.618-16.058,38.677c-1.868-12.322-7.924-23.692-17.207-32.195
				c-10.132-9.269-23.259-14.383-36.97-14.383c-13.707,0-26.841,5.114-36.97,14.383c-9.28,8.503-15.343,19.873-17.207,32.206
				C33.861,120.01,28.321,106.7,26.467,92.399l-0.344-2.219h-2.255V90.176z"/>
		</g>
		<g>
			<path style="fill:#010002;" d="M85.239,127.794c3.944,0,7.143-3.203,7.143-7.129c0-3.951-3.199-7.143-7.143-7.143
				c-3.937,0-7.133,3.196-7.133,7.143C78.107,124.591,81.303,127.794,85.239,127.794z"/>
			<path style="fill:#010002;" d="M85.239,128.721c-4.445,0-8.063-3.618-8.063-8.056c0-4.449,3.618-8.07,8.063-8.07
				c4.449,0,8.063,3.622,8.063,8.07C93.302,125.102,89.688,128.721,85.239,128.721z M85.239,114.448
				c-3.421,0-6.209,2.788-6.209,6.213s2.788,6.202,6.209,6.202c3.429,0,6.216-2.777,6.216-6.202S88.668,114.448,85.239,114.448z"/>
		</g>
		<g>
			<path style="fill:#010002;" d="M108.155,127.794c3.94,0,7.133-3.203,7.133-7.129c0-3.951-3.196-7.143-7.133-7.143
				c-3.947,0-7.14,3.196-7.14,7.143C101.011,124.591,104.207,127.794,108.155,127.794z"/>
			<path style="fill:#010002;" d="M108.155,128.721c-4.449,0-8.067-3.618-8.067-8.056c0-4.449,3.618-8.07,8.067-8.07
				c4.438,0,8.06,3.622,8.06,8.07C116.211,125.102,112.592,128.721,108.155,128.721z M108.155,114.448
				c-3.425,0-6.213,2.788-6.213,6.213s2.788,6.202,6.213,6.202s6.206-2.777,6.206-6.202S111.58,114.448,108.155,114.448z"/>
		</g>
		<g>
			<circle style="fill:#010002;" cx="85.594" cy="162.741" r="7.136"/>
			<path style="fill:#010002;" d="M85.594,170.797c-4.445,0-8.056-3.611-8.056-8.06c0-4.438,3.615-8.06,8.056-8.06
				s8.056,3.622,8.056,8.06C93.65,167.19,90.039,170.797,85.594,170.797z M85.594,156.532c-3.429,0-6.209,2.781-6.209,6.206
				c0,3.425,2.784,6.213,6.209,6.213s6.209-2.788,6.209-6.213C91.803,159.313,89.019,156.532,85.594,156.532z"/>
		</g>
		<g>
			<circle style="fill:#010002;" cx="108.502" cy="162.741" r="7.136"/>
			<path style="fill:#010002;" d="M108.502,170.797c-4.449,0-8.07-3.611-8.07-8.06c0-4.438,3.622-8.06,8.07-8.06
				c4.438,0,8.056,3.622,8.056,8.06C116.558,167.19,112.94,170.797,108.502,170.797z M108.502,156.532
				c-3.429,0-6.216,2.781-6.216,6.206c0,3.425,2.788,6.213,6.216,6.213c3.414,0,6.202-2.788,6.202-6.213
				C114.704,159.313,111.916,156.532,108.502,156.532z"/>
		</g>
		<g>
			<circle style="fill:#010002;" cx="73.565" cy="142.714" r="7.133"/>
			<path style="fill:#010002;" d="M73.561,150.773c-4.438,0-8.056-3.618-8.056-8.06c0-4.438,3.618-8.056,8.056-8.056
				c4.449,0,8.063,3.618,8.063,8.056C81.625,147.155,78.014,150.773,73.561,150.773z M73.561,136.497
				c-3.421,0-6.206,2.788-6.206,6.213c0,3.429,2.784,6.216,6.206,6.216c3.429,0,6.216-2.788,6.216-6.216
				C79.778,139.289,76.99,136.497,73.561,136.497z"/>
		</g>
		<g>
			<circle style="fill:#010002;" cx="96.473" cy="142.714" r="7.136"/>
			<path style="fill:#010002;" d="M96.473,150.773c-4.445,0-8.063-3.618-8.063-8.06c0-4.438,3.618-8.056,8.063-8.056
				c4.441,0,8.06,3.618,8.06,8.056C104.536,147.155,100.915,150.773,96.473,150.773z M96.473,136.497
				c-3.429,0-6.216,2.788-6.216,6.213c0,3.429,2.788,6.216,6.216,6.216c3.429,0,6.206-2.788,6.206-6.216
				C102.679,139.289,99.902,136.497,96.473,136.497z"/>
		</g>
		<g>
			<circle style="fill:#010002;" cx="117.878" cy="142.714" r="7.143"/>
			<path style="fill:#010002;" d="M117.878,150.773c-4.445,0-8.056-3.618-8.056-8.06c0-4.438,3.611-8.056,8.056-8.056
				c4.449,0,8.06,3.618,8.06,8.056C125.938,147.155,122.327,150.773,117.878,150.773z M117.878,136.497
				c-3.425,0-6.213,2.788-6.213,6.213c0,3.429,2.788,6.216,6.213,6.216c3.429,0,6.206-2.788,6.206-6.216
				C124.088,139.289,121.307,136.497,117.878,136.497z"/>
		</g>
	</g>
</g>
</svg>