<?xml version="1.0" encoding="UTF-8" standalone="no"?>
<!-- Uploaded to: SVG Repo, www.svgrepo.com, Generator: SVG Repo Mixer Tools -->

<svg
   height="800px"
   width="800px"
   version="1.1"
   id="Layer_1"
   viewBox="0 0 512 512"
   xml:space="preserve"
   sodipodi:docname="team-svgrepo-com.svg"
   inkscape:version="1.2.2 (732a01da63, 2022-12-09)"
   xmlns:inkscape="http://www.inkscape.org/namespaces/inkscape"
   xmlns:sodipodi="http://sodipodi.sourceforge.net/DTD/sodipodi-0.dtd"
   xmlns="http://www.w3.org/2000/svg"
   xmlns:svg="http://www.w3.org/2000/svg"><defs
   id="defs110" /><sodipodi:namedview
   id="namedview108"
   pagecolor="#ffffff"
   bordercolor="#000000"
   borderopacity="0.25"
   inkscape:showpageshadow="2"
   inkscape:pageopacity="0.0"
   inkscape:pagecheckerboard="0"
   inkscape:deskcolor="#d1d1d1"
   showgrid="false"
   inkscape:zoom="1.28375"
   inkscape:cx="400.77897"
   inkscape:cy="400.38948"
   inkscape:window-width="3840"
   inkscape:window-height="2054"
   inkscape:window-x="-11"
   inkscape:window-y="-11"
   inkscape:window-maximized="1"
   inkscape:current-layer="Layer_1" />


















<g
   id="g350"
   transform="matrix(0.33780652,0,0,0.32229795,348.49785,6.4810127)"><circle
     style="fill:#ffd791"
     cx="260.276"
     cy="281.65302"
     r="51.306999"
     id="circle57" /><path
     style="fill:#ffc44f"
     d="m 277.378,315.858 c -28.336,0 -51.307,-22.97 -51.307,-51.307 0,-9.785 2.742,-18.929 7.495,-26.71 -14.751,9.012 -24.597,25.261 -24.597,43.812 0,28.336 22.971,51.307 51.307,51.307 18.551,0 34.8,-9.847 43.812,-24.597 -7.781,4.753 -16.924,7.495 -26.71,7.495 z"
     id="path59" /><path
     style="fill:#f6f6f7"
     d="M 337.236,503.983 H 183.315 V 384.267 c 0,-18.891 15.314,-34.205 34.205,-34.205 h 85.511 c 18.891,0 34.205,15.314 34.205,34.205 z"
     id="path61" /><path
     style="fill:#d9dcdf"
     d="M 243.173,350.063 H 217.52 c -18.891,0 -34.205,15.314 -34.205,34.205 v 119.716 h 25.653 V 384.267 c 0.001,-18.89 15.315,-34.204 34.205,-34.204 z"
     id="path63" /><g
     id="g69">
	<polygon
   style="fill:#509fe8"
   points="268.827,375.716 251.724,375.716 243.173,350.063 277.378,350.063 "
   id="polygon65" />
	<polygon
   style="fill:#509fe8"
   points="268.827,375.716 277.378,469.779 260.276,478.33 243.173,469.779 251.724,375.716 "
   id="polygon67" />
</g><circle
     style="fill:#ffd791"
     cx="97.804001"
     cy="59.324001"
     r="51.306999"
     id="circle71" /><path
     style="fill:#ffc44f"
     d="m 114.906,93.528 c -28.336,0 -51.307,-22.971 -51.307,-51.307 0,-9.785 2.742,-18.929 7.495,-26.71 -14.751,9.012 -24.597,25.261 -24.597,43.812 0,28.336 22.971,51.307 51.307,51.307 18.551,0 34.8,-9.847 43.812,-24.597 -7.781,4.753 -16.924,7.495 -26.71,7.495 z"
     id="path73" /><path
     style="fill:#f6f6f7"
     d="M 174.764,281.653 H 20.843 V 161.937 c 0,-18.891 15.314,-34.205 34.205,-34.205 h 85.511 c 18.891,0 34.205,15.314 34.205,34.205 z"
     id="path75" /><path
     style="fill:#d9dcdf"
     d="M 80.701,127.733 H 55.048 c -18.891,0 -34.205,15.314 -34.205,34.205 V 281.654 H 46.496 V 161.937 c 10e-4,-18.89 15.315,-34.204 34.205,-34.204 z"
     id="path77" /><g
     id="g83">
	<polygon
   style="fill:#ff8c78"
   points="106.355,153.386 89.253,153.386 80.701,127.733 114.906,127.733 "
   id="polygon79" />
	<polygon
   style="fill:#ff8c78"
   points="106.355,153.386 114.906,247.449 97.804,256 80.701,247.449 89.253,153.386 "
   id="polygon81" />
</g><circle
     style="fill:#ffd791"
     cx="414.19601"
     cy="59.324001"
     r="51.306999"
     id="circle85" /><path
     style="fill:#ffc44f"
     d="m 431.299,93.528 c -28.336,0 -51.307,-22.971 -51.307,-51.307 0,-9.785 2.742,-18.929 7.495,-26.71 -14.751,9.012 -24.597,25.261 -24.597,43.812 0,28.336 22.97,51.307 51.307,51.307 18.551,0 34.8,-9.847 43.812,-24.597 -7.781,4.753 -16.925,7.495 -26.71,7.495 z"
     id="path87" /><path
     style="fill:#f6f6f7"
     d="M 491.157,281.653 H 337.236 V 161.937 c 0,-18.891 15.314,-34.205 34.205,-34.205 h 85.511 c 18.891,0 34.205,15.314 34.205,34.205 z"
     id="path89" /><path
     style="fill:#d9dcdf"
     d="m 397.094,127.733 h -25.653 c -18.891,0 -34.205,15.314 -34.205,34.205 v 119.716 h 25.653 V 161.937 c 0,-18.89 15.314,-34.204 34.205,-34.204 z"
     id="path91" /><g
     id="g97">
	<polygon
   style="fill:#c4df64"
   points="422.747,153.386 405.645,153.386 397.094,127.733 431.299,127.733 "
   id="polygon93" />
	<polygon
   style="fill:#c4df64"
   points="422.747,153.386 431.299,247.449 414.196,256 397.094,247.449 405.645,153.386 "
   id="polygon95" />
</g><path
     d="m 260.276,340.977 c 32.711,0 59.324,-26.612 59.324,-59.324 0,-32.712 -26.612,-59.324 -59.324,-59.324 -32.712,0 -59.324,26.612 -59.324,59.324 0,32.712 26.612,59.324 59.324,59.324 z m 0,-102.614 c 23.871,0 43.29,19.42 43.29,43.29 0,23.871 -19.42,43.29 -43.29,43.29 -23.87,0 -43.29,-19.42 -43.29,-43.29 -10e-4,-23.87 19.419,-43.29 43.29,-43.29 z"
     id="path99" /><path
     d="m 414.196,118.647 c 32.711,0 59.324,-26.612 59.324,-59.324 C 473.52,26.611 446.908,0 414.196,0 c -32.712,0 -59.324,26.612 -59.324,59.324 0,32.712 26.613,59.323 59.324,59.323 z m 0,-102.614 c 23.871,0 43.29,19.42 43.29,43.29 0,23.87 -19.42,43.29 -43.29,43.29 -23.871,0 -43.29,-19.42 -43.29,-43.29 0,-23.87 19.42,-43.29 43.29,-43.29 z"
     id="path101" /><path
     d="m 97.804,118.647 c 32.711,0 59.324,-26.612 59.324,-59.324 C 157.128,26.611 130.515,0 97.804,0 65.093,0 38.48,26.612 38.48,59.324 c 0,32.712 26.612,59.323 59.324,59.323 z m 0,-102.614 c 23.871,0 43.29,19.42 43.29,43.29 0,23.87 -19.42,43.29 -43.29,43.29 -23.87,0 -43.29,-19.42 -43.29,-43.29 0,-23.87 19.419,-43.29 43.29,-43.29 z"
     id="path103" /><path
     d="m 491.157,195.608 c 4.428,0 8.017,-3.589 8.017,-8.017 v -25.653 c 0,-23.281 -18.941,-42.221 -42.221,-42.221 h -85.511 c -2.606,0 -5.198,0.267 -7.756,0.746 -29.559,-22.564 -66.121,-34.951 -103.409,-34.951 -38.311,0 -75.605,12.983 -105.582,36.644 -4.519,-1.615 -9.251,-2.439 -14.134,-2.439 H 55.048 c -23.281,0 -42.221,18.941 -42.221,42.221 v 119.716 c 0,4.427 3.588,8.017 8.017,8.017 h 72.281 c 3.295,16.457 8.992,32.27 16.979,47.095 2.212,4.103 7.615,5.444 11.5,2.87 3.405,-2.258 4.55,-6.883 2.616,-10.475 -6.722,-12.475 -11.652,-25.721 -14.709,-39.489 h 65.254 c 4.428,0 8.017,-3.589 8.017,-8.017 V 161.938 c 0,-11.925 -4.937,-22.977 -13.365,-30.833 26.287,-19.127 58.165,-29.56 90.86,-29.56 31.217,0 60.795,9.066 86.282,26.33 -10.623,7.815 -17.339,20.413 -17.339,34.062 v 119.716 c 0,4.427 3.588,8.017 8.017,8.017 h 73.793 c -8.69,38.866 -32.504,73.294 -65.776,95.309 v -0.712 c 0,-23.281 -18.941,-42.221 -42.221,-42.221 H 217.52 c -23.281,0 -42.221,18.941 -42.221,42.221 v 0.721 c -13.093,-8.628 -24.755,-19.157 -34.77,-31.438 -2.799,-3.43 -7.849,-3.944 -11.28,-1.146 -3.431,2.798 -3.943,7.848 -1.146,11.279 13.255,16.253 29.118,29.733 47.196,40.136 v 100.164 c 0,4.427 3.588,8.017 8.017,8.017 h 153.921 c 4.428,0 8.017,-3.589 8.017,-8.017 v -100.16 c 42.357,-24.42 72.55,-66.437 82.155,-114.152 h 63.749 c 4.428,0 8.017,-3.589 8.017,-8.017 v -51.307 c 0,-4.427 -3.588,-8.017 -8.017,-8.017 -4.429,0 -8.017,3.589 -8.017,8.017 v 43.29 H 345.253 v -111.7 c 0,-11.531 7.718,-21.859 18.772,-25.116 h 0.001 c 2.415,-0.711 4.909,-1.071 7.415,-1.071 h 19.875 l 6.194,18.583 -8.399,92.391 c -0.299,3.287 1.447,6.421 4.397,7.896 l 17.102,8.551 c 2.237,1.118 4.934,1.118 7.171,0 l 17.102,-8.551 c 2.951,-1.475 4.698,-4.61 4.397,-7.896 l -8.399,-92.391 6.195,-18.584 h 19.875 c 14.441,0 26.188,11.748 26.188,26.188 v 25.653 c 10e-4,4.428 3.589,8.018 8.018,8.018 z M 96.573,161.403 h 2.462 l 7.392,81.322 -8.623,4.312 -8.623,-4.312 z m 7.211,-25.654 -3.207,9.62 h -5.546 l -3.207,-9.62 z m 62.963,137.888 H 28.86 v -111.7 c 0,-14.44 11.747,-26.188 26.188,-26.188 h 19.875 l 6.194,18.583 -8.399,92.391 c -0.299,3.287 1.447,6.421 4.397,7.896 l 17.102,8.551 c 2.237,1.118 4.934,1.118 7.171,0 l 17.102,-8.551 c 2.951,-1.475 4.698,-4.61 4.397,-7.896 l -8.399,-92.391 6.195,-18.583 h 19.875 c 4.147,0 8.123,0.948 11.812,2.819 8.868,4.494 14.376,13.448 14.376,23.369 v 111.7 z m 92.298,110.096 h 2.462 l 7.392,81.322 -8.623,4.312 -8.623,-4.312 z m 7.211,-25.654 -3.207,9.62 h -5.546 l -3.207,-9.62 z m -74.924,137.888 v -111.7 c 0,-14.44 11.747,-26.188 26.188,-26.188 h 19.875 l 6.194,18.583 -8.399,92.391 c -0.299,3.287 1.447,6.421 4.397,7.896 l 17.102,8.551 c 2.237,1.118 4.934,1.118 7.171,0 l 17.102,-8.551 c 2.951,-1.475 4.698,-4.61 4.397,-7.896 l -8.399,-92.391 6.195,-18.583 h 19.875 c 14.441,0 26.188,11.748 26.188,26.188 V 495.966 H 191.332 Z m 222.864,-248.93 -8.623,-4.312 7.392,-81.323 h 2.462 l 7.392,81.322 z M 416.97,145.37 h -5.546 l -3.207,-9.62 h 11.96 z"
     id="path105" /></g>
<g
   id="g231"
   transform="matrix(2.4090618,0,0,3.0387861,115.15734,1.7448903)">

<path
   class="st0"
   d="M 0,115.27 H 4.39 V 1.99 0 h 1.99 82.93 1.99 v 1.99 113.28 h 5.14 v 7.61 H 0 Z M 13.88,8.32 h 67.92 0.83 v 0.83 104.89 h 4.69 V 3.97 H 8.36 v 111.3 h 4.69 V 9.15 8.32 Z m 2.06,105.72 H 75.1 L 74.72,113.89 46.96,110.1 V 33.9 L 79.75,13.24 V 11.2 H 15.94 Z M 51.7,59.66 55.93,58.45 V 74.26 L 51.7,72.73 Z"
   id="path229"
   style="clip-rule:evenodd;fill-rule:evenodd" />

</g></svg>
