<?xml version="1.0" encoding="iso-8859-1"?>
<!-- Uploaded to: SVG Repo, www.svgrepo.com, Generator: SVG Repo Mixer Tools -->
<svg height="800px" width="800px" version="1.1" id="Layer_1" xmlns="http://www.w3.org/2000/svg" xmlns:xlink="http://www.w3.org/1999/xlink" 
	 viewBox="0 0 512 512" xml:space="preserve">
<circle style="fill:#FFD791;" cx="260.276" cy="281.653" r="51.307"/>
<path style="fill:#FFC44F;" d="M277.378,315.858c-28.336,0-51.307-22.97-51.307-51.307c0-9.785,2.742-18.929,7.495-26.71
	c-14.751,9.012-24.597,25.261-24.597,43.812c0,28.336,22.971,51.307,51.307,51.307c18.551,0,34.8-9.847,43.812-24.597
	C296.307,313.116,287.164,315.858,277.378,315.858z"/>
<path style="fill:#F6F6F7;" d="M337.236,503.983H183.315V384.267c0-18.891,15.314-34.205,34.205-34.205h85.511
	c18.891,0,34.205,15.314,34.205,34.205V503.983z"/>
<path style="fill:#D9DCDF;" d="M243.173,350.063H217.52c-18.891,0-34.205,15.314-34.205,34.205v119.716h25.653V384.267
	C208.969,365.377,224.283,350.063,243.173,350.063z"/>
<g>
	<polygon style="fill:#509FE8;" points="268.827,375.716 251.724,375.716 243.173,350.063 277.378,350.063 	"/>
	<polygon style="fill:#509FE8;" points="277.378,469.779 260.276,478.33 243.173,469.779 251.724,375.716 268.827,375.716 	"/>
</g>
<circle style="fill:#FFD791;" cx="97.804" cy="59.324" r="51.307"/>
<path style="fill:#FFC44F;" d="M114.906,93.528c-28.336,0-51.307-22.971-51.307-51.307c0-9.785,2.742-18.929,7.495-26.71
	c-14.751,9.012-24.597,25.261-24.597,43.812c0,28.336,22.971,51.307,51.307,51.307c18.551,0,34.8-9.847,43.812-24.597
	C133.835,90.786,124.692,93.528,114.906,93.528z"/>
<path style="fill:#F6F6F7;" d="M174.764,281.653H20.843V161.937c0-18.891,15.314-34.205,34.205-34.205h85.511
	c18.891,0,34.205,15.314,34.205,34.205V281.653z"/>
<path style="fill:#D9DCDF;" d="M80.701,127.733H55.048c-18.891,0-34.205,15.314-34.205,34.205v119.716h25.653V161.937
	C46.497,143.047,61.811,127.733,80.701,127.733z"/>
<g>
	<polygon style="fill:#FF8C78;" points="106.355,153.386 89.253,153.386 80.701,127.733 114.906,127.733 	"/>
	<polygon style="fill:#FF8C78;" points="114.906,247.449 97.804,256 80.701,247.449 89.253,153.386 106.355,153.386 	"/>
</g>
<circle style="fill:#FFD791;" cx="414.196" cy="59.324" r="51.307"/>
<path style="fill:#FFC44F;" d="M431.299,93.528c-28.336,0-51.307-22.971-51.307-51.307c0-9.785,2.742-18.929,7.495-26.71
	c-14.751,9.012-24.597,25.261-24.597,43.812c0,28.336,22.97,51.307,51.307,51.307c18.551,0,34.8-9.847,43.812-24.597
	C450.228,90.786,441.084,93.528,431.299,93.528z"/>
<path style="fill:#F6F6F7;" d="M491.157,281.653H337.236V161.937c0-18.891,15.314-34.205,34.205-34.205h85.511
	c18.891,0,34.205,15.314,34.205,34.205V281.653z"/>
<path style="fill:#D9DCDF;" d="M397.094,127.733h-25.653c-18.891,0-34.205,15.314-34.205,34.205v119.716h25.653V161.937
	C362.889,143.047,378.203,127.733,397.094,127.733z"/>
<g>
	<polygon style="fill:#C4DF64;" points="422.747,153.386 405.645,153.386 397.094,127.733 431.299,127.733 	"/>
	<polygon style="fill:#C4DF64;" points="431.299,247.449 414.196,256 397.094,247.449 405.645,153.386 422.747,153.386 	"/>
</g>
<path d="M260.276,340.977c32.711,0,59.324-26.612,59.324-59.324s-26.612-59.324-59.324-59.324s-59.324,26.612-59.324,59.324
	S227.564,340.977,260.276,340.977z M260.276,238.363c23.871,0,43.29,19.42,43.29,43.29c0,23.871-19.42,43.29-43.29,43.29
	s-43.29-19.42-43.29-43.29C216.985,257.783,236.405,238.363,260.276,238.363z"/>
<path d="M414.196,118.647c32.711,0,59.324-26.612,59.324-59.324S446.908,0,414.196,0s-59.324,26.612-59.324,59.324
	S381.485,118.647,414.196,118.647z M414.196,16.033c23.871,0,43.29,19.42,43.29,43.29s-19.42,43.29-43.29,43.29
	c-23.871,0-43.29-19.42-43.29-43.29S390.326,16.033,414.196,16.033z"/>
<path d="M97.804,118.647c32.711,0,59.324-26.612,59.324-59.324S130.515,0,97.804,0S38.48,26.612,38.48,59.324
	S65.092,118.647,97.804,118.647z M97.804,16.033c23.871,0,43.29,19.42,43.29,43.29s-19.42,43.29-43.29,43.29
	s-43.29-19.42-43.29-43.29S73.933,16.033,97.804,16.033z"/>
<path d="M491.157,195.608c4.428,0,8.017-3.589,8.017-8.017v-25.653c0-23.281-18.941-42.221-42.221-42.221h-85.511
	c-2.606,0-5.198,0.267-7.756,0.746c-29.559-22.564-66.121-34.951-103.409-34.951c-38.311,0-75.605,12.983-105.582,36.644
	c-4.519-1.615-9.251-2.439-14.134-2.439H55.048c-23.281,0-42.221,18.941-42.221,42.221v119.716c0,4.427,3.588,8.017,8.017,8.017
	h72.281c3.295,16.457,8.992,32.27,16.979,47.095c2.212,4.103,7.615,5.444,11.5,2.87c3.405-2.258,4.55-6.883,2.616-10.475
	c-6.722-12.475-11.652-25.721-14.709-39.489h65.254c4.428,0,8.017-3.589,8.017-8.017V161.938c0-11.925-4.937-22.977-13.365-30.833
	c26.287-19.127,58.165-29.56,90.86-29.56c31.217,0,60.795,9.066,86.282,26.33c-10.623,7.815-17.339,20.413-17.339,34.062v119.716
	c0,4.427,3.588,8.017,8.017,8.017h73.793c-8.69,38.866-32.504,73.294-65.776,95.309v-0.712c0-23.281-18.941-42.221-42.221-42.221
	H217.52c-23.281,0-42.221,18.941-42.221,42.221v0.721c-13.093-8.628-24.755-19.157-34.77-31.438
	c-2.799-3.43-7.849-3.944-11.28-1.146c-3.431,2.798-3.943,7.848-1.146,11.279c13.255,16.253,29.118,29.733,47.196,40.136v100.164
	c0,4.427,3.588,8.017,8.017,8.017h153.921c4.428,0,8.017-3.589,8.017-8.017V403.823c42.357-24.42,72.55-66.437,82.155-114.152
	h63.749c4.428,0,8.017-3.589,8.017-8.017v-51.307c0-4.427-3.588-8.017-8.017-8.017s-8.017,3.589-8.017,8.017v43.29H345.253V161.937
	c0-11.531,7.718-21.859,18.772-25.116h0.001c2.415-0.711,4.909-1.071,7.415-1.071h19.875l6.194,18.583l-8.399,92.391
	c-0.299,3.287,1.447,6.421,4.397,7.896l17.102,8.551c2.237,1.118,4.934,1.118,7.171,0l17.102-8.551
	c2.951-1.475,4.698-4.61,4.397-7.896l-8.399-92.391l6.195-18.584h19.875c14.441,0,26.188,11.748,26.188,26.188v25.653
	C483.14,192.018,486.728,195.608,491.157,195.608z M96.573,161.403h2.462l7.392,81.322l-8.623,4.312l-8.623-4.312L96.573,161.403z
	 M103.784,135.749l-3.207,9.62h-5.546l-3.207-9.62H103.784z M166.747,273.637H28.86V161.937c0-14.44,11.747-26.188,26.188-26.188
	h19.875l6.194,18.583l-8.399,92.391c-0.299,3.287,1.447,6.421,4.397,7.896l17.102,8.551c2.237,1.118,4.934,1.118,7.171,0
	l17.102-8.551c2.951-1.475,4.698-4.61,4.397-7.896l-8.399-92.391l6.195-18.583h19.875c4.147,0,8.123,0.948,11.812,2.819
	c8.868,4.494,14.376,13.448,14.376,23.369V273.637z M259.045,383.733h2.462l7.392,81.322l-8.623,4.312l-8.623-4.312L259.045,383.733
	z M266.256,358.079l-3.207,9.62h-5.546l-3.207-9.62H266.256z M191.332,495.967V384.267c0-14.44,11.747-26.188,26.188-26.188h19.875
	l6.194,18.583l-8.399,92.391c-0.299,3.287,1.447,6.421,4.397,7.896l17.102,8.551c2.237,1.118,4.934,1.118,7.171,0l17.102-8.551
	c2.951-1.475,4.698-4.61,4.397-7.896l-8.399-92.391l6.195-18.583h19.875c14.441,0,26.188,11.748,26.188,26.188v111.699H191.332z
	 M414.196,247.037l-8.623-4.312l7.392-81.323h2.462l7.392,81.322L414.196,247.037z M416.97,145.37h-5.546l-3.207-9.62h11.96
	L416.97,145.37z"/>
</svg>