<?xml version="1.0" encoding="UTF-8" standalone="no"?>
<!-- Uploaded to: SVG Repo, www.svgrepo.com, Generator: SVG Repo Mixer Tools -->

<svg
   width="800px"
   height="800px"
   viewBox="0 0 1024 1024"
   class="icon"
   version="1.1"
   id="svg16"
   sodipodi:docname="temperature-svgrepo-com.svg"
   inkscape:version="1.2.2 (732a01da63, 2022-12-09)"
   xmlns:inkscape="http://www.inkscape.org/namespaces/inkscape"
   xmlns:sodipodi="http://sodipodi.sourceforge.net/DTD/sodipodi-0.dtd"
   xmlns="http://www.w3.org/2000/svg"
   xmlns:svg="http://www.w3.org/2000/svg">
  <defs
     id="defs20" />
  <sodipodi:namedview
     id="namedview18"
     pagecolor="#ffffff"
     bordercolor="#000000"
     borderopacity="0.25"
     inkscape:showpageshadow="2"
     inkscape:pageopacity="0.0"
     inkscape:pagecheckerboard="0"
     inkscape:deskcolor="#d1d1d1"
     showgrid="false"
     inkscape:zoom="1.28375"
     inkscape:cx="400"
     inkscape:cy="399.61052"
     inkscape:window-width="3840"
     inkscape:window-height="2054"
     inkscape:window-x="-11"
     inkscape:window-y="-11"
     inkscape:window-maximized="1"
     inkscape:current-layer="svg16" />
  <path
     d="M570.8 742c0.5-2.9 0.9-5.8 0.9-8.8V418.5H458.4v314.6c0 3 0.4 5.9 0.9 8.8-34.3 19.5-57.5 56.3-57.5 98.5 0 62.6 50.7 113.3 113.3 113.3 62.6 0 113.3-50.7 113.3-113.3-0.1-42.2-23.3-79-57.6-98.4z"
     fill="#F59558"
     id="path12" />
  <path
     d="M594.3 730.3V194.8c0-43.7-35.6-79.3-79.3-79.3s-79.3 35.6-79.3 79.3v535.4c-35.2 25.4-56.6 66.5-56.6 110.2 0 75 61 135.9 135.9 135.9s136-60.8 136-135.8c0-43.7-21.4-84.8-56.7-110.2zM515 931.1c-50 0-90.6-40.6-90.6-90.6 0-32.1 17.4-62.1 45.3-78.4 7-4 11.3-11.5 11.3-19.6v-40.8h11.3c6.3 0 11.3-5.1 11.3-11.3 0-6.3-5.1-11.3-11.3-11.3H481v-45.3h11.3c6.3 0 11.3-5.1 11.3-11.3 0-6.3-5.1-11.3-11.3-11.3H481v-45.3h11.3c6.3 0 11.3-5.1 11.3-11.3 0-6.3-5.1-11.3-11.3-11.3H481V498h11.3c6.3 0 11.3-5.1 11.3-11.3 0-6.3-5.1-11.3-11.3-11.3H481v-45.3h11.3c6.3 0 11.3-5.1 11.3-11.3 0-6.3-5.1-11.3-11.3-11.3H481v-45.3h11.3c6.3 0 11.3-5.1 11.3-11.3 0-6.3-5.1-11.3-11.3-11.3H481v-45.3h11.3c6.3 0 11.3-5.1 11.3-11.3 0-6.3-5.1-11.3-11.3-11.3H481V226h11.3c6.3 0 11.3-5.1 11.3-11.3 0-6.3-5.1-11.3-11.3-11.3H481v-8.5c0-18.7 15.2-34 34-34 18.7 0 34 15.2 34 34v547.7c0 8.1 4.3 15.6 11.3 19.6 28 16.2 45.3 46.2 45.3 78.4 0.1 49.9-40.6 90.5-90.6 90.5z"
     fill="#211F1E"
     id="path14" />
  <g
     id="g221"
     transform="matrix(11.438169,0,0,12.681504,-8357.7014,-4443.2694)">
    <path
       id="path1945"
       style="fill:#000000;stroke-width:0.512;stroke-linecap:round;stroke-linejoin:round;paint-order:markers fill stroke"
       d="m 753.3402,398.55926 a 3.2328334,3.2328334 0 0 1 -3.2328,3.23284 3.2328334,3.2328334 0 0 1 -3.2328,-3.23284 3.2328334,3.2328334 0 0 1 3.2328,-3.23283 3.2328334,3.2328334 0 0 1 3.2328,3.23283 z m -3.5359,-22.62983 a 22.629834,22.629834 0 0 0 -15.6969,6.62983 l 2.2857,2.28572 a 19.397001,19.397001 0 0 1 13.7143,-5.68272 19.397001,19.397001 0 0 1 13.7143,5.68272 l 2.2857,-2.28572 a 22.629834,22.629834 0 0 0 -15.6969,-6.62983 z m 0.3031,6.46567 a 16.164168,16.164168 0 0 0 -11.4286,4.73559 l 2.2857,2.28572 a 12.931333,12.931333 0 0 1 8.9472,-3.78848 12.931333,12.931333 0 0 1 0.1957,0 12.931333,12.931333 0 0 1 9.1429,3.78848 l 2.2857,-2.28572 a 16.164168,16.164168 0 0 0 -11.4286,-4.73559 z m -0.1642,6.46566 a 9.6985002,9.6985002 0 0 0 -6.6929,2.84136 l 2.2857,2.28572 a 6.4656668,6.4656668 0 0 1 4.4135,-1.89424 6.4656668,6.4656668 0 0 1 0.1579,0 6.4656668,6.4656668 0 0 1 4.5714,1.89424 l 2.2857,-2.28572 a 9.6985002,9.6985002 0 0 0 -6.8571,-2.84136 9.6985002,9.6985002 0 0 0 -0.1642,0 z" />
  </g>
</svg>
