<?xml version="1.0" encoding="utf-8"?>
<!-- Uploaded to: SVG Repo, www.svgrepo.com, Generator: SVG Repo Mixer Tools -->
<svg width="800px" height="800px" viewBox="0 0 1024 1024" class="icon"  version="1.1" xmlns="http://www.w3.org/2000/svg"><path d="M570.8 742c0.5-2.9 0.9-5.8 0.9-8.8V418.5H458.4v314.6c0 3 0.4 5.9 0.9 8.8-34.3 19.5-57.5 56.3-57.5 98.5 0 62.6 50.7 113.3 113.3 113.3 62.6 0 113.3-50.7 113.3-113.3-0.1-42.2-23.3-79-57.6-98.4z" fill="#F59558" /><path d="M594.3 730.3V194.8c0-43.7-35.6-79.3-79.3-79.3s-79.3 35.6-79.3 79.3v535.4c-35.2 25.4-56.6 66.5-56.6 110.2 0 75 61 135.9 135.9 135.9s136-60.8 136-135.8c0-43.7-21.4-84.8-56.7-110.2zM515 931.1c-50 0-90.6-40.6-90.6-90.6 0-32.1 17.4-62.1 45.3-78.4 7-4 11.3-11.5 11.3-19.6v-40.8h11.3c6.3 0 11.3-5.1 11.3-11.3 0-6.3-5.1-11.3-11.3-11.3H481v-45.3h11.3c6.3 0 11.3-5.1 11.3-11.3 0-6.3-5.1-11.3-11.3-11.3H481v-45.3h11.3c6.3 0 11.3-5.1 11.3-11.3 0-6.3-5.1-11.3-11.3-11.3H481V498h11.3c6.3 0 11.3-5.1 11.3-11.3 0-6.3-5.1-11.3-11.3-11.3H481v-45.3h11.3c6.3 0 11.3-5.1 11.3-11.3 0-6.3-5.1-11.3-11.3-11.3H481v-45.3h11.3c6.3 0 11.3-5.1 11.3-11.3 0-6.3-5.1-11.3-11.3-11.3H481v-45.3h11.3c6.3 0 11.3-5.1 11.3-11.3 0-6.3-5.1-11.3-11.3-11.3H481V226h11.3c6.3 0 11.3-5.1 11.3-11.3 0-6.3-5.1-11.3-11.3-11.3H481v-8.5c0-18.7 15.2-34 34-34 18.7 0 34 15.2 34 34v547.7c0 8.1 4.3 15.6 11.3 19.6 28 16.2 45.3 46.2 45.3 78.4 0.1 49.9-40.6 90.5-90.6 90.5z" fill="#211F1E" /></svg>