<?xml version="1.0" encoding="iso-8859-1"?>
<!-- Uploaded to: SVG Repo, www.svgrepo.com, Generator: SVG Repo Mixer Tools -->
<svg height="800px" width="800px" version="1.1" id="Layer_1" xmlns="http://www.w3.org/2000/svg" xmlns:xlink="http://www.w3.org/1999/xlink" 
	 viewBox="0 0 511.984 511.984" xml:space="preserve">
<g>
	<path style="fill:#4A89DC;" d="M420.216,309.99c-1.812,0-3.64-0.453-5.327-1.438l-147.793-85.317
		c-5.109-2.945-6.859-9.468-3.906-14.57c2.938-5.102,9.469-6.852,14.578-3.906l147.792,85.326c5.094,2.953,6.844,9.469,3.906,14.578
		C427.481,308.084,423.903,309.99,420.216,309.99z"/>
	<path style="fill:#4A89DC;" d="M300.126,240.664c-4.703,0-9.016-3.141-10.297-7.906l-7.797-29.14
		c-1.531-5.695,1.844-11.539,7.531-13.07c5.703-1.523,11.547,1.852,13.063,7.546l7.813,29.14c1.531,5.688-1.844,11.539-7.547,13.062
		C301.97,240.547,301.048,240.664,300.126,240.664z"/>
	<path style="fill:#4A89DC;" d="M270.986,248.469c-4.703,0-9.016-3.141-10.297-7.906c-1.515-5.687,1.859-11.539,7.547-13.062
		l29.14-7.812c5.688-1.523,11.547,1.859,13.063,7.546c1.531,5.688-1.844,11.539-7.547,13.062l-29.14,7.813
		C272.83,248.351,271.908,248.469,270.986,248.469z"/>
	<path style="fill:#4A89DC;" d="M400.31,323.146c-4.703,0-9.016-3.156-10.297-7.922l-7.813-29.14
		c-1.516-5.688,1.859-11.53,7.547-13.062c5.688-1.523,11.547,1.844,13.063,7.546l7.813,29.14c1.531,5.688-1.859,11.531-7.547,13.063
		C402.154,323.021,401.232,323.146,400.31,323.146z"/>
	<path style="fill:#4A89DC;" d="M392.498,293.991c-4.703,0-9.016-3.141-10.297-7.906c-1.516-5.688,1.859-11.53,7.547-13.062
		l29.141-7.805c5.687-1.523,11.546,1.852,13.062,7.539c1.531,5.687-1.844,11.546-7.531,13.062l-29.14,7.813
		C394.342,293.882,393.42,293.991,392.498,293.991z"/>
	<path style="fill:#4A89DC;" d="M272.439,309.99c-3.688,0-7.281-1.906-9.25-5.327c-2.953-5.109-1.203-11.625,3.906-14.578
		l147.793-85.326c5.108-2.945,11.624-1.195,14.577,3.906c2.938,5.102,1.188,11.625-3.906,14.57l-147.792,85.317
		C276.08,309.537,274.252,309.99,272.439,309.99z"/>
	<path style="fill:#4A89DC;" d="M300.141,293.991c-0.906,0-1.844-0.109-2.766-0.359l-29.14-7.813
		c-5.688-1.516-9.062-7.359-7.547-13.062c1.531-5.688,7.375-9.07,13.063-7.539l29.14,7.805c5.703,1.531,9.078,7.374,7.547,13.062
		C309.173,290.85,304.86,293.991,300.141,293.991z"/>
	<path style="fill:#4A89DC;" d="M292.329,323.146c-0.906,0-1.828-0.125-2.766-0.375c-5.688-1.531-9.063-7.375-7.531-13.063
		l7.797-29.14c1.531-5.702,7.375-9.069,13.063-7.546c5.703,1.531,9.078,7.374,7.547,13.062l-7.813,29.14
		C301.36,319.99,297.048,323.146,292.329,323.146z"/>
	<path style="fill:#4A89DC;" d="M421.653,248.469c-0.906,0-1.844-0.117-2.765-0.359l-29.141-7.813
		c-5.688-1.523-9.063-7.375-7.547-13.062c1.531-5.687,7.375-9.069,13.078-7.538l29.14,7.804c5.688,1.523,9.063,7.375,7.531,13.062
		C430.684,245.328,426.372,248.469,421.653,248.469z"/>
	<path style="fill:#4A89DC;" d="M392.513,240.664c-0.906,0-1.844-0.117-2.766-0.367c-5.688-1.523-9.063-7.375-7.547-13.062
		l7.813-29.14c1.531-5.695,7.375-9.07,13.063-7.546c5.688,1.531,9.078,7.375,7.547,13.07l-7.813,29.14
		C401.545,237.523,397.232,240.664,392.513,240.664z"/>
</g>
<g>
	<path style="fill:#5D9CEC;" d="M346.327,352.661c-5.891,0-10.671-4.781-10.671-10.672V171.33c0-5.891,4.78-10.664,10.671-10.664
		s10.656,4.773,10.656,10.664v170.659C356.983,347.88,352.218,352.661,346.327,352.661z"/>
	<path style="fill:#5D9CEC;" d="M346.327,213.993c-2.734,0-5.469-1.039-7.546-3.125c-4.172-4.164-4.172-10.914,0-15.078
		l21.326-21.335c4.172-4.164,10.922-4.164,15.094,0c4.156,4.164,4.156,10.922,0,15.085l-21.327,21.328
		C351.78,212.954,349.061,213.993,346.327,213.993z"/>
	<path style="fill:#5D9CEC;" d="M346.327,213.993c-2.734,0-5.469-1.039-7.546-3.125l-21.327-21.328
		c-4.172-4.164-4.172-10.921,0-15.085c4.156-4.164,10.921-4.164,15.077,0l21.343,21.335c4.156,4.164,4.156,10.914,0,15.078
		C351.78,212.954,349.046,213.993,346.327,213.993z"/>
	<path style="fill:#5D9CEC;" d="M324.984,341.989c-2.719,0-5.452-1.031-7.53-3.125c-4.172-4.156-4.172-10.906,0-15.077
		l21.327-21.327c4.171-4.172,10.921-4.172,15.093,0c4.156,4.156,4.156,10.905,0,15.077l-21.343,21.327
		C330.453,340.958,327.719,341.989,324.984,341.989z"/>
	<path style="fill:#5D9CEC;" d="M367.654,341.989c-2.734,0-5.453-1.031-7.547-3.125l-21.326-21.327
		c-4.172-4.172-4.172-10.921,0-15.077c4.171-4.172,10.921-4.172,15.093,0l21.327,21.327c4.156,4.171,4.156,10.921,0,15.077
		C373.123,340.958,370.388,341.989,367.654,341.989z"/>
</g>
<path style="fill:#F5F7FA;" d="M154.334,501.328c-35.296,0-63.998-28.719-63.998-63.997c0-16.844,6.484-32.75,18.28-44.797
	l3.047-3.109V53.334c0-23.53,19.141-42.67,42.671-42.67c23.515,0,42.655,19.14,42.655,42.67v336.09l3.062,3.109
	c11.781,12.047,18.281,27.953,18.281,44.797C218.332,472.609,189.614,501.328,154.334,501.328z"/>
<g>
	<path style="fill:#434A54;" d="M132.116,223.993c0,5.89-4.781,10.664-10.672,10.664s-10.672-4.773-10.672-10.664
		s4.781-10.664,10.672-10.664S132.116,218.103,132.116,223.993z"/>
	<path style="fill:#434A54;" d="M197.88,223.993c0,5.89-4.766,10.664-10.656,10.664s-10.672-4.773-10.672-10.664
		s4.781-10.664,10.672-10.664S197.88,218.103,197.88,223.993z"/>
</g>
<path style="fill:#ED5564;" d="M154.334,458.641c-11.766,0-21.343-9.562-21.343-21.311c0-11.781,9.577-21.344,21.343-21.344
	c11.765,0,21.327,9.563,21.327,21.344C175.661,449.08,166.098,458.641,154.334,458.641z"/>
<g>
	<path style="fill:#DA4453;" d="M154.334,405.331c-17.671,0-31.999,14.313-31.999,32c0,17.654,14.328,31.997,31.999,31.997
		s31.999-14.343,31.999-31.997C186.333,419.643,172.005,405.331,154.334,405.331z M154.334,447.986
		c-5.891,0-10.672-4.781-10.672-10.655c0-5.891,4.781-10.688,10.672-10.688c5.874,0,10.655,4.797,10.655,10.688
		C164.989,443.205,160.208,447.986,154.334,447.986z"/>
	<path style="fill:#DA4453;" d="M154.334,426.643c-5.891,0-10.672-4.766-10.672-10.656v-63.998c0-5.891,4.781-10.656,10.672-10.656
		c5.89,0,10.655,4.766,10.655,10.656v63.998C164.989,421.878,160.223,426.643,154.334,426.643z"/>
</g>
<path style="fill:#E6E9ED;" d="M207.66,385.081V53.334C207.66,23.875,183.786,0,154.334,0s-53.343,23.875-53.343,53.334v331.747
	c-13.187,13.469-21.326,31.906-21.326,52.25c0,41.216,33.436,74.653,74.669,74.653s74.653-33.438,74.653-74.653
	C228.987,416.987,220.863,398.55,207.66,385.081z M154.334,490.64c-29.405,0-53.343-23.906-53.343-53.31
	c0-14.047,5.422-27.297,15.25-37.328l6.094-6.219v-8.703V53.334c0-17.648,14.344-31.999,31.999-31.999
	c17.64,0,31.999,14.351,31.999,31.999v331.747v8.703l6.094,6.219c9.827,10.031,15.233,23.281,15.233,37.328
	C207.66,466.734,183.739,490.64,154.334,490.64z"/>
</svg>