<?xml version="1.0" encoding="iso-8859-1"?>
<!-- Uploaded to: SVG Repo, www.svgrepo.com, Generator: SVG Repo Mixer Tools -->
<svg height="800px" width="800px" version="1.1" id="Layer_1" xmlns="http://www.w3.org/2000/svg" xmlns:xlink="http://www.w3.org/1999/xlink" 
	 viewBox="0 0 511.985 511.985" xml:space="preserve">
<path style="fill:#F5F7FA;" d="M138.67,501.313c-35.289,0-63.998-28.719-63.998-63.997c0-16.844,6.491-32.75,18.28-44.781
	l3.047-3.109V53.327c0-23.53,19.14-42.67,42.671-42.67c23.521,0,42.662,19.14,42.662,42.67v336.098l3.047,3.109
	c11.797,12.031,18.288,27.938,18.288,44.781C202.667,472.595,173.957,501.313,138.67,501.313z"/>
<g>
	<path style="fill:#434A54;" d="M116.443,223.994c0,5.89-4.773,10.656-10.664,10.656c-5.89,0-10.663-4.766-10.663-10.656
		s4.773-10.671,10.663-10.671C111.67,213.323,116.443,218.104,116.443,223.994z"/>
	<path style="fill:#434A54;" d="M182.222,223.994c0,5.89-4.773,10.656-10.664,10.656s-10.672-4.766-10.672-10.656
		s4.781-10.671,10.672-10.671S182.222,218.104,182.222,223.994z"/>
</g>
<path style="fill:#ED5564;" d="M138.67,458.642c-11.766,0-21.336-9.562-21.336-21.326c0-11.766,9.57-21.328,21.336-21.328
	c11.765,0,21.326,9.563,21.326,21.328S150.434,458.642,138.67,458.642z"/>
<g>
	<path style="fill:#DA4453;" d="M138.67,405.316c-17.672,0-32,14.328-32,32c0,17.67,14.328,31.997,32,31.997
		c17.671,0,31.998-14.327,31.998-31.997C170.668,419.644,156.341,405.316,138.67,405.316z M138.67,447.987
		c-5.883,0-10.672-4.797-10.672-10.671c0-5.891,4.789-10.672,10.672-10.672c5.882,0,10.663,4.781,10.663,10.672
		C149.333,443.19,144.552,447.987,138.67,447.987z"/>
	<path style="fill:#DA4453;" d="M138.67,426.644c-5.891,0-10.672-4.766-10.672-10.656V117.325c0-5.89,4.781-10.671,10.672-10.671
		c5.89,0,10.663,4.781,10.663,10.671v298.663C149.333,421.879,144.559,426.644,138.67,426.644z"/>
</g>
<path style="fill:#E6E9ED;" d="M191.996,385.066V53.327C191.996,23.875,168.121,0,138.67,0c-29.453,0-53.335,23.875-53.335,53.327
	v331.739C72.141,398.535,64,416.972,64,437.316c0,41.231,33.429,74.669,74.67,74.669c41.232,0,74.661-33.438,74.661-74.669
	C213.331,416.972,205.19,398.535,191.996,385.066z M138.67,490.641c-29.406,0-53.335-23.922-53.335-53.325
	c0-14.031,5.414-27.297,15.241-37.328l6.094-6.219v-8.703V53.327c0-17.64,14.352-31.999,32-31.999
	c17.64,0,31.998,14.358,31.998,31.999v331.739v8.703l6.094,6.219c9.828,10.031,15.234,23.297,15.234,37.328
	C191.996,466.72,168.074,490.641,138.67,490.641z"/>
<g>
	<path style="fill:#F6BB42;" d="M330.663,139.434c-5.891,0-10.671,4.781-10.671,10.671v21.327c0,5.891,4.78,10.672,10.671,10.672
		s10.671-4.781,10.671-10.672v-21.327C341.334,144.216,336.554,139.434,330.663,139.434z"/>
	<path style="fill:#F6BB42;" d="M330.663,331.428c-5.891,0-10.671,4.781-10.671,10.656v21.343c0,5.891,4.78,10.656,10.671,10.656
		s10.671-4.766,10.671-10.656v-21.343C341.334,336.209,336.554,331.428,330.663,331.428z"/>
</g>
<g>
	<path style="fill:#FFCE54;" d="M247.697,173.808c-4.164,4.156-4.164,10.906,0,15.078l15.085,15.078
		c4.164,4.172,10.93,4.172,15.086,0c4.155-4.156,4.155-10.906,0-15.078l-15.086-15.078
		C258.619,169.636,251.861,169.636,247.697,173.808z"/>
	<path style="fill:#FFCE54;" d="M383.458,309.554c-4.156,4.172-4.156,10.922,0,15.093l15.094,15.078
		c4.156,4.172,10.906,4.172,15.078,0s4.172-10.922,0-15.078l-15.078-15.093C394.38,305.398,387.614,305.398,383.458,309.554z"/>
</g>
<g>
	<path style="fill:#F6BB42;" d="M213.331,256.774c0,5.891,4.773,10.656,10.671,10.656h21.328c5.891,0,10.664-4.766,10.672-10.656
		c-0.008-5.906-4.781-10.672-10.672-10.672h-21.328C218.104,246.102,213.331,250.868,213.331,256.774z"/>
	<path style="fill:#F6BB42;" d="M405.333,256.774c0,5.891,4.766,10.656,10.656,10.656h21.343c5.874,0,10.654-4.766,10.654-10.656
		c0-5.906-4.78-10.672-10.654-10.672h-21.343C410.098,246.102,405.333,250.868,405.333,256.774z"/>
</g>
<g>
	<path style="fill:#FFCE54;" d="M247.697,339.724c4.164,4.172,10.922,4.172,15.085,0l15.086-15.078
		c4.155-4.171,4.155-10.921,0-15.093c-4.156-4.155-10.922-4.155-15.086,0l-15.085,15.093
		C243.533,328.803,243.533,335.553,247.697,339.724z"/>
	<path style="fill:#FFCE54;" d="M383.458,203.963c4.156,4.172,10.922,4.172,15.094,0l15.078-15.078
		c4.172-4.171,4.172-10.921,0-15.078c-4.172-4.172-10.922-4.172-15.078,0l-15.094,15.078
		C379.302,193.057,379.302,199.807,383.458,203.963z"/>
	<path style="fill:#FFCE54;" d="M330.663,310.085c-29.405,0-53.326-23.905-53.326-53.311c0-29.421,23.921-53.342,53.326-53.342
		c29.404,0,53.326,23.921,53.326,53.342C383.989,286.18,360.067,310.085,330.663,310.085z"/>
</g>
<path style="fill:#F6BB42;" d="M330.663,192.776c-35.358,0-63.998,28.64-63.998,63.998c0,35.343,28.64,63.998,63.998,63.998
	c35.342,0,63.998-28.655,63.998-63.998C394.661,221.416,366.005,192.776,330.663,192.776z M330.663,299.43
	c-23.515,0-42.671-19.141-42.671-42.655c0-23.531,19.156-42.67,42.671-42.67s42.67,19.14,42.67,42.67
	C373.333,280.289,354.178,299.43,330.663,299.43z"/>
</svg>