<svg xmlns="http://www.w3.org/2000/svg" viewBox="0 0 25.55 26.14"><defs><style>.cls-1{fill:#1d1d1b;}</style></defs><title>Access_Point</title><g id="Ebene_2" data-name="Ebene 2"><g id="Ebene_1-2" data-name="Ebene 1"><path class="cls-1" d="M3.43,18.77a.74.74,0,0,1-.61-.32,15.58,15.58,0,0,1,.1-18,.75.75,0,0,1,1.22.87A14.09,14.09,0,0,0,4,17.58a.76.76,0,0,1-.61,1.19Z"/><path class="cls-1" d="M7.21,3.63a.75.75,0,0,0-1,.26A11,11,0,0,0,6.09,15a.76.76,0,0,0,.65.38.86.86,0,0,0,.38-.1.76.76,0,0,0,.27-1A9.38,9.38,0,0,1,6.14,9.52,9.55,9.55,0,0,1,7.47,4.66.74.74,0,0,0,7.21,3.63Z"/><path class="cls-1" d="M18.44,3.53a.76.76,0,0,0-.28,1,9.35,9.35,0,0,1,1.25,4.69,9.55,9.55,0,0,1-1.33,4.86.75.75,0,1,0,1.29.76,11,11,0,0,0,1.54-5.62,10.86,10.86,0,0,0-1.45-5.44A.74.74,0,0,0,18.44,3.53Z"/><path class="cls-1" d="M22.74.32a.75.75,0,0,0-1-.18.74.74,0,0,0-.18,1,14.11,14.11,0,0,1-.09,16.28.74.74,0,0,0,.17,1.05.76.76,0,0,0,.43.14.74.74,0,0,0,.61-.31,15.6,15.6,0,0,0,.11-18Z"/><path class="cls-1" d="M13.79,12.05a2.86,2.86,0,1,0-2,0l-3.1,14H12.6a.35.35,0,0,0,.18.05.34.34,0,0,0,.17-.05h3.93Z"/></g></g></svg>