<?xml version="1.0" encoding="UTF-8" standalone="no"?>
<svg
   viewBox="0 0 43.06 34.14"
   version="1.1"
   id="svg122"
   style="zoom: 1;"
   xmlns="http://www.w3.org/2000/svg"
   xmlns:svg="http://www.w3.org/2000/svg"
   xmlns:rdf="http://www.w3.org/1999/02/22-rdf-syntax-ns#"
   xmlns:cc="http://creativecommons.org/ns#"
   xmlns:dc="http://purl.org/dc/elements/1.1/">
  <defs
     id="defs100">
    <style
       id="style98">.cls-1{fill:#d6e7f1;fill-rule:evenodd;}.cls-2{fill:#0d4252;}.cls-3{fill:#e3edfa;stroke:#1d1d1b;stroke-miterlimit:3.86;stroke-width:0.82px;}.cls-4{font-size:13.24px;fill:#007493;font-family:HelveticaNeue-CondensedBold, Helvetica Neue;font-weight:700;}</style>
  </defs>
  <title
     id="title102">Betriebssystem</title>
  <path
     class="cls-1"
     d="m 17.863515,7.7521843 h -1.57 a 7.34,7.34 0 0 0 -0.87,-2.1 l 1.12,-1.06 a 0.49,0.49 0 0 0 0,-0.69 l -2.06,-2 a 0.48,0.48 0 0 0 -0.68,0 l -1.11,1.1 a 7.86,7.86 0 0 0 -2.05,-0.85 l -0.1,-0.16 v -1.52 a 0.5,0.5 0 0 0 -0.49,-0.49 H 7.1835154 a 0.5,0.5 0 0 0 -0.49,0.49 v 1.56 a 8,8 0 0 0 -2.09,0.87 l -1.06,-1.1 a 0.49,0.49 0 0 0 -0.69,0 l -2.11,2.05 a 0.51,0.51 0 0 0 0,0.74 l 1.11,1.06 a 7.72,7.72 0 0 0 -0.85,2.05 l -0.06,0.05 h -1.52000004 a 0.5,0.5 0 0 0 -0.48999996,0.48 v 2.9099997 a 0.5,0.5 0 0 0 0.48999996,0.45 H 0.9835154 a 8.1,8.1 0 0 0 0.87,2.1 l -1.11,1.15 a 0.5,0.5 0 0 0 0,0.68 l 2.06,2.07 a 0.49,0.49 0 0 0 0.74,0 l 1.11,-1.11 a 7.3,7.3 0 0 0 2.05,0.86 v 0.06 1.52 a 0.5,0.5 0 0 0 0.49,0.49 h 2.9099996 a 0.5,0.5 0 0 0 0.49,-0.49 v -1.57 a 7.79,7.79 0 0 0 2.1,-0.88 l 1.1,1.12 a 0.48,0.48 0 0 0 0.68,0 l 2.07,-2.07 a 0.48,0.48 0 0 0 0,-0.68 l -1.11,-1.11 a 7.55,7.55 0 0 0 0.86,-2.05 l 0.05,-0.09 h 1.52 a 0.5,0.5 0 0 0 0.49,-0.49 V 8.2321843 a 0.5,0.5 0 0 0 -0.49,-0.48 z"
     id="path104" />
  <path
     class="cls-2"
     d="M 10.093515,19.792184 H 7.1835154 a 0.89,0.89 0 0 1 -0.88,-0.88 v -1.27 a 7.49,7.49 0 0 1 -1.64,-0.68 l -0.89,0.9 a 0.9,0.9 0 0 1 -1.24,0 l -2.06000004,-2.06 a 0.86,0.86 0 0 1 -0.25,-0.61 0.89,0.89 0 0 1 0.25,-0.6 l 0.90000004,-0.89 a 8.48,8.48 0 0 1 -0.69,-1.65 h -1.26000004 a 0.89,0.89 0 0 1 -0.87999996,-0.91 V 8.2321843 a 0.89,0.89 0 0 1 0.87999996,-0.87 H 0.6935154 a 7.65,7.65 0 0 1 0.68,-1.65 l -0.90000004,-0.89 a 0.89,0.89 0 0 1 -0.25,-0.62 0.87,0.87 0 0 1 0.25,-0.61 l 2.07000004,-2.07 a 0.89,0.89 0 0 1 1.23,0 l 0.9,0.9 a 8.14,8.14 0 0 1 1.64,-0.69 v -1.26 a 0.89,0.89 0 0 1 0.87,-0.88 h 2.9099996 a 0.89,0.89 0 0 1 0.88,0.88 v 1.27 a 7.37,7.37 0 0 1 1.64,0.68 l 0.9,-0.9 a 0.9,0.9 0 0 1 1.24,0 l 2.06,2.07 a 0.88,0.88 0 0 1 0,1.24 l -0.89,0.89 a 8.44,8.44 0 0 1 0.68,1.65 h 1.27 a 0.89,0.89 0 0 1 0.88,0.87 v 2.9099997 a 0.89,0.89 0 0 1 -0.88,0.88 h -1.28 a 8.7,8.7 0 0 1 -0.68,1.65 l 0.9,0.89 a 0.89,0.89 0 0 1 0.25,0.63 0.83,0.83 0 0 1 -0.26,0.61 l -2.05,2.06 a 0.9,0.9 0 0 1 -1.24,0 l -0.9,-0.9 a 8.11,8.11 0 0 1 -1.64,0.68 v 1.27 a 0.89,0.89 0 0 1 -0.88,0.87 z m -5.5499996,-3.81 0.26,0.16 a 6.77,6.77 0 0 0 2,0.81 h 0.14 l 0.15,0.22 v 0.19 1.52 a 0.13,0.13 0 0 0 0.1,0.1 h 2.9099996 a 0.12,0.12 0 0 0 0.1,-0.1 v -1.84 l 0.3,-0.07 a 7.56,7.56 0 0 0 2,-0.83 l 0.26,-0.16 1.32,1.33 a 0.12,0.12 0 0 0 0.14,0 l 2.06,-2.06 v -0.14 l -1.34,-1.32 0.15,-0.26 a 7.06,7.06 0 0 0 0.81,-1.94 v -0.13 l 0.21,-0.16 h 0.2 1.52 a 0.12,0.12 0 0 0 0.1,-0.1 V 8.2321843 a 0.12,0.12 0 0 0 -0.1,-0.09 h -1.84 l -0.07,-0.3 a 7.56,7.56 0 0 0 -0.83,-2 l -0.16,-0.25 1.32,-1.33 v 0 -0.13 l -2.05,-2.06 a 0.12,0.12 0 0 0 -0.14,0 l -1.32,1.32 -0.26,-0.15 a 7.06,7.06 0 0 0 -1.94,-0.81 h -0.14 l -0.15,-0.21 v -0.19 -1.56 a 0.11,0.11 0 0 0 -0.1,-0.1 H 7.1835154 a 0.12,0.12 0 0 0 -0.1,0.1 v 1.86 l -0.29,0.08 a 7.56,7.56 0 0 0 -2,0.83 l -0.25,0.15 -1.32,-1.32 a 0.12,0.12 0 0 0 -0.14,0 l -2.06,2.06 v 0.13 l 1.32,1.33 -0.15,0.26 a 6.94,6.94 0 0 0 -0.81,2 v 0.12 l -0.2,0.17 -0.2,0.05 h -1.56000004 a 0.11,0.11 0 0 0 -0.1,0.09 v 2.9099997 a 0.11,0.11 0 0 0 0.1,0.1 H 1.2835154 l 0.08,0.29 a 7.48,7.48 0 0 0 0.83,2 l 0.15,0.26 -1.32,1.27 v 0 0.14 l 2.06,2.06 a 0.11,0.11 0 0 0 0.14,0 z"
     id="path106" />
  <path
     class="cls-1"
     d="m 40.733515,21.682184 h -1.57 a 7.7,7.7 0 0 0 -0.87,-2.09 l 1.11,-1.11 a 0.51,0.51 0 0 0 0,-0.69 l -2.06,-2.06 a 0.51,0.51 0 0 0 -0.69,0 l -1.11,1.11 a 7.46,7.46 0 0 0 -2,-0.85 v -0.06 -1.53 a 0.5,0.5 0 0 0 -0.49,-0.48 h -3 a 0.5,0.5 0 0 0 -0.49,0.48 v 1.57 a 7.9,7.9 0 0 0 -2.1,0.87 l -1.1,-1.11 a 0.51,0.51 0 0 0 -0.69,0 l -2.06,2.06 a 0.51,0.51 0 0 0 0,0.69 l 1.11,1.11 a 7.3,7.3 0 0 0 -0.86,2.05 h -0.05 -1.53 a 0.5,0.5 0 0 0 -0.48,0.49 v 2.91 a 0.5,0.5 0 0 0 0.48,0.49 h 1.57 a 7.76,7.76 0 0 0 0.87,2.1 l -1.11,1.11 a 0.5,0.5 0 0 0 0,0.68 l 2.06,2.06 a 0.51,0.51 0 0 0 0.69,0 l 1.1,-1.11 a 7.17,7.17 0 0 0 2.06,0.85 v 0.07 1.52 a 0.5,0.5 0 0 0 0.49,0.49 h 2.91 a 0.5,0.5 0 0 0 0.49,-0.49 v -1.53 a 7.76,7.76 0 0 0 2.1,-0.87 l 1.1,1.11 a 0.51,0.51 0 0 0 0.69,0 l 2.06,-2.06 a 0.5,0.5 0 0 0 0,-0.68 l -1.11,-1.11 a 7.46,7.46 0 0 0 0.89,-2.08 h 0.06 1.53 a 0.5,0.5 0 0 0 0.48,-0.49 v -2.93 a 0.5,0.5 0 0 0 -0.48,-0.49 z"
     id="path108" />
  <path
     class="cls-2"
     d="m 32.963515,33.732184 h -2.91 a 0.89,0.89 0 0 1 -0.88,-0.88 v -1.26 a 7.54,7.54 0 0 1 -1.63,-0.69 l -0.9,0.9 a 0.89,0.89 0 0 1 -1.24,0 l -2.06,-2.05 a 0.91,0.91 0 0 1 -0.25,-0.62 0.89,0.89 0 0 1 0.25,-0.62 l 0.9,-0.9 a 8.72,8.72 0 0 1 -0.7,-1.65 h -1.26 a 0.89,0.89 0 0 1 -0.87,-0.88 v -2.91 a 0.88,0.88 0 0 1 0.87,-0.87 h 1.26 a 8.19,8.19 0 0 1 0.68,-1.65 l -0.9,-0.9 a 0.91,0.91 0 0 1 -0.25,-0.62 0.9,0.9 0 0 1 0.26,-0.62 l 2.05,-2.05 a 0.9,0.9 0 0 1 1.24,0 l 0.9,0.9 a 8.72,8.72 0 0 1 1.64,-0.68 v -1.28 a 0.89,0.89 0 0 1 0.88,-0.87 h 2.91 a 0.89,0.89 0 0 1 0.88,0.87 v 1.28 a 7.54,7.54 0 0 1 1.64,0.67 l 0.9,-0.89 a 0.88,0.88 0 0 1 1.23,0 l 2.06,2.05 a 0.9,0.9 0 0 1 0.26,0.62 0.88,0.88 0 0 1 -0.26,0.62 l -0.89,0.9 a 8.55,8.55 0 0 1 0.68,1.65 h 1.27 a 0.88,0.88 0 0 1 0.87,0.87 v 2.91 a 0.89,0.89 0 0 1 -0.87,0.88 h -1.27 a 7.75,7.75 0 0 1 -0.67,1.63 l 0.89,0.9 a 0.9,0.9 0 0 1 0.26,0.62 0.88,0.88 0 0 1 -0.26,0.62 l -2.06,2.06 a 0.86,0.86 0 0 1 -0.61,0.25 v 0 a 0.84,0.84 0 0 1 -0.62,-0.26 l -0.9,-0.89 a 8.72,8.72 0 0 1 -1.64,0.7 v 1.27 a 0.89,0.89 0 0 1 -0.88,0.87 z m -5.56,-3.81 0.26,0.16 a 7,7 0 0 0 1.95,0.8 h 0.15 l 0.15,0.22 v 0.19 1.52 a 0.13,0.13 0 0 0 0.1,0.1 h 2.91 a 0.13,0.13 0 0 0 0.1,-0.1 v -1.83 l 0.29,-0.07 a 7.29,7.29 0 0 0 2,-0.83 l 0.27,-0.16 1.32,1.32 h 0.13 l 2.06,-2 v 0 -0.13 l -1.32,-1.32 0.16,-0.26 a 7.16,7.16 0 0 0 0.8,-1.95 v -0.14 l 0.21,-0.16 h 0.19 1.53 a 0.11,0.11 0 0 0 0.09,-0.1 v -3.01 a 0.12,0.12 0 0 0 -0.09,-0.1 h -1.8 l -0.08,-0.29 a 7.21,7.21 0 0 0 -0.82,-2 l -0.16,-0.26 1.32,-1.33 v 0 -0.13 l -2.06,-2.06 a 0.11,0.11 0 0 0 -0.13,0 l -1.32,1.32 -0.26,-0.16 a 7.3,7.3 0 0 0 -2,-0.8 h -0.14 l -0.16,-0.22 v -0.18 -1.56 a 0.11,0.11 0 0 0 -0.1,-0.09 h -2.9 a 0.11,0.11 0 0 0 -0.1,0.09 v 1.87 l -0.29,0.08 a 7.59,7.59 0 0 0 -2,0.82 l -0.26,0.16 -1.32,-1.32 a 0.1,0.1 0 0 0 -0.13,0 l -2.06,2.06 v 0.13 l 1.32,1.33 -0.16,0.26 a 7.18,7.18 0 0 0 -0.81,1.94 v 0.13 l -0.21,0.17 h -0.19 -1.56 a 0.12,0.12 0 0 0 -0.09,0.1 v 2.91 a 0.11,0.11 0 0 0 0.09,0.1 h 1.87 l 0.07,0.29 a 7.76,7.76 0 0 0 0.83,2 l 0.16,0.26 -1.32,1.32 v 0 0.14 l 2.06,2 a 0.09,0.09 0 0 0 0.13,0 z"
     id="path110" />
  <path
     class="cls-1"
     d="m 29.543515,8.3221843 h -1.37 a 6.53,6.53 0 0 0 -0.75,-1.81 l 1,-1 a 0.42,0.42 0 0 0 0,-0.59 l -1.82,-1.74 a 0.44,0.44 0 0 0 -0.59,0 l -1,1 a 6.29,6.29 0 0 0 -1.77,-0.73 v -0.06 -1.35 a 0.42,0.42 0 0 0 -0.42,-0.45 h -2.51 a 0.43,0.43 0 0 0 -0.42,0.42 v 1.38 a 6.59,6.59 0 0 0 -1.81,0.75 l -1,-1 a 0.44,0.44 0 0 0 -0.59,0 l -1.74,1.82 a 0.42,0.42 0 0 0 0,0.59 l 1,1 a 6.27,6.27 0 0 0 -0.74,1.77 h -0.05 -1.36 a 0.43,0.43 0 0 0 -0.41,0.42 v 2.5099997 a 0.42,0.42 0 0 0 0.41,0.42 h 1.35 a 6.8,6.8 0 0 0 0.76,1.82 l -1,0.95 a 0.42,0.42 0 0 0 0,0.59 l 1.83,1.78 a 0.42,0.42 0 0 0 0.59,0 l 1,-1 a 6,6 0 0 0 1.77,0.74 v 0.05 1.32 a 0.44,0.44 0 0 0 0.42,0.42 h 2.51 a 0.43,0.43 0 0 0 0.42,-0.42 v -1.33 a 6.61,6.61 0 0 0 1.81,-0.76 l 1,1 a 0.42,0.42 0 0 0 0.59,0 l 1.78,-1.78 a 0.42,0.42 0 0 0 0,-0.59 l -1,-0.95 a 6.21,6.21 0 0 0 0.74,-1.78 h 0.05 1.32 a 0.43,0.43 0 0 0 0.42,-0.42 V 8.7421843 a 0.44,0.44 0 0 0 -0.42,-0.42 z"
     id="path112" />
  <path
     class="cls-2"
     d="m 22.823515,18.772184 h -2.51 a 0.82,0.82 0 0 1 -0.81,-0.81 v -1.06 a 6.72,6.72 0 0 1 -1.36,-0.56 l -0.74,0.75 a 0.83,0.83 0 0 1 -1.15,0 l -1.77,-1.78 a 0.8,0.8 0 0 1 0,-1.14 l 0.74,-0.75 a 7.34,7.34 0 0 1 -0.56,-1.36 h -1.06 a 0.82,0.82 0 0 1 -0.8,-0.81 V 8.7421843 a 0.82,0.82 0 0 1 0.8,-0.81 h 1.06 a 7.25,7.25 0 0 1 0.56,-1.34 l -0.75,-0.75 a 0.86,0.86 0 0 1 -0.23,-0.57 0.83,0.83 0 0 1 0.24,-0.58 l 1.77,-1.77 a 0.84,0.84 0 0 1 1.15,0 l 0.74,0.75 a 7.34,7.34 0 0 1 1.4,-0.58 v -1 a 0.82,0.82 0 0 1 0.81,-0.81 h 2.51 a 0.82,0.82 0 0 1 0.81,0.81 v 1.01 a 6.68,6.68 0 0 1 1.36,0.55 l 0.75,-0.74 a 0.81,0.81 0 0 1 1.14,0 l 1.77,1.77 a 0.81,0.81 0 0 1 0,1.15 l -0.78,0.76 a 7.25,7.25 0 0 1 0.56,1.35 h 1.07 a 0.82,0.82 0 0 1 0.81,0.81 v 2.5099997 a 0.82,0.82 0 0 1 -0.81,0.81 h -1.07 a 6.72,6.72 0 0 1 -0.56,1.36 l 0.74,0.75 a 0.8,0.8 0 0 1 0,1.14 l -1.77,1.77 a 0.86,0.86 0 0 1 -1.14,0 l -0.75,-0.75 a 7.34,7.34 0 0 1 -1.36,0.56 v 1.06 a 0.82,0.82 0 0 1 -0.81,0.81 z m -4.8,-3.41 0.26,0.16 a 6.15,6.15 0 0 0 1.66,0.69 h 0.15 l 0.15,0.22 v 0.17 1.32 h 2.54 v -1.69 l 0.3,-0.07 a 6.19,6.19 0 0 0 1.7,-0.71 l 0.26,-0.16 1.25,1.3 1.81,-1.78 -1.17,-1.22 0.16,-0.26 a 6.08,6.08 0 0 0 0.69,-1.74 v -0.14 l 0.22,-0.16 h 0.18 1.36 v -2.5399997 0 h -1.67 l -0.07,-0.29 a 6.44,6.44 0 0 0 -0.71,-1.71 l -0.16,-0.26 1.17,-1.17 -1.77,-1.86 -1.22,1.13 -0.26,-0.16 a 5.89,5.89 0 0 0 -1.66,-0.69 h -0.14 l -0.16,-0.22 v -0.18 -1.3 h -2.54 v 1.68 l -0.3,0.08 a 6.49,6.49 0 0 0 -1.7,0.7 l -0.33,0.09 -1.17,-1.13 -1.82,1.78 1.17,1.21 -0.16,0.26 a 6.27,6.27 0 0 0 -0.69,1.67 v 0.12 l -0.21,0.17 h -0.19 -1.35 v 2.5399997 h 1.68 l 0.07,0.3 a 6.72,6.72 0 0 0 0.71,1.71 l 0.16,0.26 -1.17,1.17 1.75,1.94 z"
     id="path114" />
  <path
     class="cls-3"
     d="m 37.103515,24.672184 a 4.09,4.09 0 0 1 -4.23,3.92 h -22.61 a 4.08,4.08 0 0 1 -4.2199996,-3.92 v -13.61 A 4.08,4.08 0 0 1 10.263515,7.1721843 h 22.61 a 4.09,4.09 0 0 1 4.23,3.8899997 z"
     id="path116" />
  <g
     aria-label="UNIX"
     transform="scale(0.84375461,1.1851787)"
     id="text118"
     style="font-weight:700;font-size:13.24px;font-family:HelveticaNeue-CondensedBold, 'Helvetica Neue';fill:#007493;stroke-width:0.63852"
     class="cls-4">
    <path
       d="m 17.959905,16.352976 v -5.878559 h -2.07868 v 5.878559 q 0,1.0592 -0.42368,1.56232 -0.42368,0.48988 -1.53584,0.48988 -0.63552,0 -1.01948,-0.17212 -0.37072,-0.18536 -0.58256,-0.4634 -0.21184,-0.29128 -0.27804,-0.662 -0.0662,-0.37072 -0.0662,-0.75468 V 10.474417 H 9.8967453 v 5.878559 q 0,1.93304 1.0459597,2.85984 1.0592,0.9268 2.979,0.9268 1.89332,0 2.96576,-0.9268 1.07244,-0.94004 1.07244,-2.85984 z"
       style="font-weight:700;font-size:13.24px;font-family:HelveticaNeue-CondensedBold, 'Helvetica Neue';fill:#007493;stroke-width:0.63852"
       id="path33" />
    <path
       d="m 19.737168,10.474417 v 9.453359 h 1.94628 v -6.32872 h 0.02648 l 3.93228,6.32872 h 2.07868 v -9.453359 h -1.94628 v 6.341959 h -0.02648 l -3.94552,-6.341959 z"
       style="font-weight:700;font-size:13.24px;font-family:HelveticaNeue-CondensedBold, 'Helvetica Neue';fill:#007493;stroke-width:0.63852"
       id="path35" />
    <path
       d="m 29.537871,10.474417 v 9.453359 h 2.07868 v -9.453359 z"
       style="font-weight:700;font-size:13.24px;font-family:HelveticaNeue-CondensedBold, 'Helvetica Neue';fill:#007493;stroke-width:0.63852"
       id="path37" />
    <path
       d="m 35.759637,14.976016 -3.296759,4.95176 h 2.330239 l 2.10516,-3.27028 2.06544,3.27028 h 2.47588 l -3.29676,-4.93852 3.03196,-4.514839 h -2.27728 l -1.9198,3.018719 -1.8536,-3.018719 h -2.409679 z"
       style="font-weight:700;font-size:13.24px;font-family:HelveticaNeue-CondensedBold, 'Helvetica Neue';fill:#007493;stroke-width:0.63852"
       id="path39" />
  </g>
  <metadata
     id="metadata258">
    <rdf:RDF>
      <cc:Work
         rdf:about="">
        <dc:title>Betriebssystem</dc:title>
      </cc:Work>
    </rdf:RDF>
  </metadata>
</svg>
