<svg xmlns="http://www.w3.org/2000/svg" viewBox="0 0 27.22 38.26"><defs><style>.cls-1{fill:#fff7cc;stroke-linejoin:round;}.cls-1,.cls-2,.cls-4{stroke:#1d1d1b;stroke-width:0.82px;}.cls-2{fill:none;stroke-linecap:round;stroke-miterlimit:10;}.cls-3{fill:#1d1d1b;}.cls-4{fill:#b8c9d9;stroke-miterlimit:3.86;}</style></defs><title>Data_Input_2</title><g id="Ebene_2" data-name="Ebene 2"><g id="Ebene_1-2" data-name="Ebene 1"><polygon class="cls-1" points="26.81 15.56 26.81 15.56 10.01 15.56 4.96 18.09 4.96 18.09 4.96 18.1 4.96 18.1 4.96 33.05 4.96 33.05 4.96 33.05 21.77 33.05 21.77 33.05 26.81 29.51 26.81 15.56 26.81 15.56"/><line class="cls-1" x1="26.81" y1="15.56" x2="21.77" y2="18.1"/><line class="cls-1" x1="21.77" y1="33.05" x2="21.77" y2="18.1"/><line class="cls-1" x1="21.77" y1="18.1" x2="4.96" y2="18.1"/><line class="cls-2" x1="19.56" y1="0.41" x2="19.56" y2="8.58"/><polygon class="cls-3" points="17.9 7.45 19.56 13.64 21.22 7.45 17.9 7.45"/><line class="cls-2" x1="15.89" y1="1.84" x2="15.89" y2="12.58"/><polygon class="cls-3" points="14.23 11.45 15.89 17.64 17.55 11.45 14.23 11.45"/><line class="cls-2" x1="12.21" y1="0.41" x2="12.21" y2="6.17"/><polygon class="cls-3" points="10.55 5.04 12.21 11.23 13.87 5.04 10.55 5.04"/><path class="cls-4" d="M.41,24V36.34c0,.84,2.64,1.52,5.9,1.52s5.9-.68,5.9-1.52V24Z"/><path class="cls-4" d="M12.21,24c0,.84-2.64,1.52-5.9,1.52S.41,24.87.41,24s2.64-1.51,5.9-1.51S12.21,23.2,12.21,24Z"/></g></g></svg>