<svg xmlns="http://www.w3.org/2000/svg" viewBox="0 0 10.82 13.6"><defs><style>.cls-1{fill:#e94e1b;}.cls-2,.cls-3{fill:none;stroke-miterlimit:10;}.cls-2{stroke:#9baab7;stroke-width:0.82px;}.cls-3{stroke:#1d1d1b;stroke-linecap:round;}</style></defs><title>Element 23_Ende</title><g id="Ebene_2" data-name="Ebene 2"><g id="Ebene_1-2" data-name="Ebene 1"><path class="cls-1" d="M2.85,11.7a3.33,3.33,0,0,1,.34-1.24C3.5,9.92,4.71,8.37,5.4,7.52v0a34.38,34.38,0,0,1,2.22,2.94A3.33,3.33,0,0,1,8,11.69Z"/><path class="cls-2" d="M8.87,3.85a4.27,4.27,0,0,0,.53-2V.5h-8V1.89a4.44,4.44,0,0,0,.53,2A29.79,29.79,0,0,0,4.3,6.62,38.87,38.87,0,0,0,2,9.77a4.57,4.57,0,0,0-.53,2v1.38h8V11.72a4.61,4.61,0,0,0-.53-2C8.38,8.9,6.52,6.62,6.52,6.62A29.08,29.08,0,0,0,8.87,3.85Z"/><line class="cls-3" x1="10.32" y1="0.5" x2="0.5" y2="0.51"/><line class="cls-3" x1="10.32" y1="13.09" x2="0.5" y2="13.1"/><path class="cls-1" d="M4.45,4.68H6.38c-.31.35-.63.69-.89,1l-.08.09-.07-.08Z"/></g></g></svg>