<svg xmlns="http://www.w3.org/2000/svg" viewBox="0 0 31.58 26.49"><defs><style>.cls-1{fill:#c0d4e0;}.cls-2{fill:#ddedf7;}.cls-3,.cls-4{fill:none;}.cls-3,.cls-4,.cls-5{stroke:#1d1d1b;}.cls-3,.cls-5{stroke-linejoin:round;}.cls-3{stroke-width:0.82px;}.cls-4{stroke-miterlimit:10;}.cls-4,.cls-5{stroke-width:0.82px;}.cls-5{fill:#fff7cc;}</style></defs><title>Event Topic_blau</title><g id="Ebene_2" data-name="Ebene 2"><g id="Ebene_1-2" data-name="Ebene 1"><g id="_Gruppe_" data-name="&lt;Gruppe&gt;"><path class="cls-1" d="M31,5a.45.45,0,0,0-.25-.77l-3.11-.46a.43.43,0,0,1-.34-.24L26,.66a.46.46,0,0,0-.81,0l-.81,1.65-.58,1.17a.45.45,0,0,1-.34.24l-3.11.46a.45.45,0,0,0-.25.77L22.3,7.14a.5.5,0,0,1,.13.4l-.53,3.1a.45.45,0,0,0,.65.48l2.78-1.47a.45.45,0,0,1,.42,0l1.16.61,1.62.86a.46.46,0,0,0,.66-.48l-.53-3.1a.44.44,0,0,1,.13-.4Z"/><path class="cls-2" d="M18,3.87a2.44,2.44,0,0,0,.62,2.51L20.32,8l-.39,2.29a2.45,2.45,0,0,0,2.41,2.87,2.53,2.53,0,0,0,1.14-.28l2.06-1.09,1.37.72v8.35a5.23,5.23,0,0,1-5.23,5.22h-16A5.22,5.22,0,0,1,.41,20.87v-14A5.22,5.22,0,0,1,5.63,1.59H21.68a4.4,4.4,0,0,1,.73.06l-.1.21L20,2.2A2.42,2.42,0,0,0,18,3.87Z"/><path class="cls-3" d="M26.91,12.52v8.35a5.23,5.23,0,0,1-5.23,5.22h-16A5.22,5.22,0,0,1,.41,20.87v-14A5.22,5.22,0,0,1,5.63,1.59H21.68a4.4,4.4,0,0,1,.73.06"/><path class="cls-4" d="M24.33,2.31,25.14.66a.46.46,0,0,1,.81,0l1.39,2.82a.43.43,0,0,0,.34.24l3.11.46A.45.45,0,0,1,31,5L28.79,7.14a.44.44,0,0,0-.13.4l.53,3.1a.46.46,0,0,1-.66.48l-1.62-.86-1.16-.61a.45.45,0,0,0-.42,0l-2.78,1.47a.45.45,0,0,1-.65-.48l.53-3.1a.5.5,0,0,0-.13-.4L20.05,5a.45.45,0,0,1,.25-.77l3.11-.46a.45.45,0,0,0,.34-.24Z"/></g><polygon class="cls-5" points="12.87 7.09 9.22 14.4 12.79 14.4 8.97 22.37 18.35 11.98 14.44 11.98 17.69 7.09 12.87 7.09"/></g></g></svg>