<svg xmlns="http://www.w3.org/2000/svg" viewBox="0 0 22.67 32.6"><defs><style>.cls-1{fill:#fff7cc;stroke-linejoin:round;}.cls-1,.cls-2{stroke:#1d1d1b;stroke-width:0.82px;}.cls-2{fill:none;stroke-linecap:round;stroke-miterlimit:10;}.cls-3{fill:#1d1d1b;}</style></defs><title>Extraction_Process</title><g id="Ebene_2" data-name="Ebene 2"><g id="Ebene_1-2" data-name="Ebene 1"><polygon class="cls-1" points="22.26 14.7 22.26 14.7 5.46 14.7 0.41 17.24 0.41 17.24 0.41 17.24 0.41 17.24 0.41 32.19 0.41 32.19 0.41 32.19 17.21 32.19 17.21 32.19 22.26 28.65 22.26 14.7 22.26 14.7"/><line class="cls-1" x1="22.26" y1="14.7" x2="17.21" y2="17.24"/><line class="cls-1" x1="17.21" y1="32.19" x2="17.21" y2="17.24"/><line class="cls-1" x1="17.21" y1="17.24" x2="0.41" y2="17.24"/><line class="cls-2" x1="7.66" y1="17.24" x2="7.66" y2="9.07"/><polygon class="cls-3" points="9.32 10.2 7.66 4.01 6 10.2 9.32 10.2"/><line class="cls-2" x1="11.34" y1="15.81" x2="11.34" y2="5.06"/><polygon class="cls-3" points="12.99 6.19 11.34 0 9.68 6.19 12.99 6.19"/><line class="cls-2" x1="15.01" y1="17.24" x2="15.01" y2="11.48"/><polygon class="cls-3" points="16.67 12.61 15.01 6.42 13.35 12.61 16.67 12.61"/></g></g></svg>