<svg xmlns="http://www.w3.org/2000/svg" viewBox="0 0 23.67 34.44"><defs><style>.cls-1{fill:#fff7cc;}.cls-1,.cls-2,.cls-4,.cls-6{stroke:#1d1d1b;}.cls-1,.cls-4,.cls-5,.cls-6,.cls-7{stroke-linejoin:round;}.cls-1,.cls-2,.cls-4,.cls-6,.cls-7{stroke-width:0.82px;}.cls-2{fill:none;stroke-miterlimit:10;}.cls-2,.cls-5,.cls-6{stroke-linecap:round;}.cls-3,.cls-7{fill:#1d1d1b;}.cls-4,.cls-5,.cls-6{fill:#fff;}.cls-5{stroke:#fff;stroke-width:2px;}.cls-7{stroke:#e30613;}</style></defs><title>Extraction_process_eecuted</title><g id="Ebene_2" data-name="Ebene 2"><g id="Ebene_1-2" data-name="Ebene 1"><polygon class="cls-1" points="23.26 14.7 23.26 14.7 6.46 14.7 1.41 17.24 1.41 17.24 1.41 17.24 1.41 17.24 1.41 32.19 1.41 32.19 1.41 32.19 18.21 32.19 18.21 32.19 23.26 28.65 23.26 14.7 23.26 14.7"/><line class="cls-1" x1="23.26" y1="14.7" x2="18.21" y2="17.24"/><line class="cls-1" x1="18.21" y1="32.19" x2="18.21" y2="17.24"/><line class="cls-1" x1="18.21" y1="17.24" x2="1.41" y2="17.24"/><line class="cls-2" x1="8.66" y1="17.24" x2="8.66" y2="9.07"/><polygon class="cls-3" points="10.32 10.2 8.66 4.01 7 10.2 10.32 10.2"/><line class="cls-2" x1="12.33" y1="15.81" x2="12.33" y2="5.06"/><polygon class="cls-3" points="13.99 6.19 12.34 0 10.67 6.19 13.99 6.19"/><line class="cls-2" x1="16.01" y1="17.24" x2="16.01" y2="11.48"/><polygon class="cls-3" points="17.67 12.61 16.01 6.42 14.35 12.61 17.67 12.61"/><rect class="cls-4" x="0.41" y="24.85" width="11.47" height="9.19"/><line class="cls-5" x1="3.25" y1="25.53" x2="3.25" y2="23.45"/><line class="cls-6" x1="3.25" y1="25.53" x2="3.25" y2="23.45"/><line class="cls-5" x1="9.03" y1="25.53" x2="9.03" y2="23.45"/><line class="cls-6" x1="9.03" y1="25.53" x2="9.03" y2="23.45"/><line class="cls-7" x1="0.86" y1="26.8" x2="11.42" y2="26.8"/></g></g></svg>