<svg xmlns="http://www.w3.org/2000/svg" viewBox="0 0 29.05 26.77"><defs><style>.cls-1,.cls-3,.cls-7{fill:#fff;}.cls-1,.cls-2,.cls-5,.cls-6{stroke:#1d1d1b;}.cls-1,.cls-2{stroke-linejoin:round;}.cls-1,.cls-2,.cls-3{stroke-width:0.82px;}.cls-2{fill:#b8c9d9;}.cls-3{stroke:#9baab7;}.cls-3,.cls-5{stroke-miterlimit:10;}.cls-4{fill:#1d1d1b;}.cls-5{fill:#fff7cc;}.cls-6{fill:#9baab7;stroke-miterlimit:3.86;stroke-width:0.82px;}</style></defs><title>Foss_License</title><g id="Ebene_2" data-name="Ebene 2"><g id="Ebene_1-2" data-name="Ebene 1"><path class="cls-1" d="M25.5,26.36H9.26V2c0-.87.52-1.58,1.17-1.58H27.88c-.65,0-1.17.71-1.17,1.58V24.72C26.71,25.63,26.17,26.36,25.5,26.36Z"/><path class="cls-2" d="M24.61,23.84H7.16v1c0,.86.51,1.56,1.14,1.56H25.75c-.63,0-1.14-.7-1.14-1.56Z"/><line class="cls-3" x1="24.12" y1="7.32" x2="11.67" y2="7.32"/><line class="cls-3" x1="24.12" y1="10.35" x2="11.67" y2="10.35"/><line class="cls-3" x1="24.12" y1="13.38" x2="11.67" y2="13.38"/><line class="cls-3" x1="24.12" y1="16.41" x2="11.67" y2="16.41"/><polygon class="cls-4" points="24.97 13.23 25.03 20.8 23.12 19.23 21.2 20.8 21.27 13.23 24.97 13.23"/><polygon class="cls-5" points="23.12 6.73 25.03 5.81 25.74 7.81 27.74 8.52 26.83 10.44 27.74 12.35 25.74 13.06 25.03 15.06 23.12 14.14 21.2 15.06 20.5 13.06 18.5 12.35 19.41 10.44 18.5 8.52 20.5 7.81 21.2 5.81 23.12 6.73"/><path class="cls-6" d="M17.19,17a2.47,2.47,0,0,1-2.56,2.36H3A2.47,2.47,0,0,1,.41,17V12.11A2.47,2.47,0,0,1,3,9.75H14.63a2.47,2.47,0,0,1,2.56,2.36Z"/><path class="cls-7" d="M5.13,12.36v.74H3.51v1.07H5v.74H3.51v2H2.6V12.36Z"/><path class="cls-7" d="M5.49,13.67a2.16,2.16,0,0,1,.2-.74,1.23,1.23,0,0,1,.47-.49A1.59,1.59,0,0,1,7,12.27a1.57,1.57,0,0,1,.81.17,1.17,1.17,0,0,1,.47.49,2,2,0,0,1,.21.74,9.1,9.1,0,0,1,0,.95,9.25,9.25,0,0,1,0,1,2.07,2.07,0,0,1-.21.74,1.12,1.12,0,0,1-.47.47A1.68,1.68,0,0,1,7,17a1.7,1.7,0,0,1-.82-.17,1.18,1.18,0,0,1-.47-.47,2.29,2.29,0,0,1-.2-.74,7.08,7.08,0,0,1,0-1A7,7,0,0,1,5.49,13.67Zm.88,1.72a2.62,2.62,0,0,0,.09.52.64.64,0,0,0,.19.29.54.54,0,0,0,.33.09.53.53,0,0,0,.32-.09.51.51,0,0,0,.19-.29,1.68,1.68,0,0,0,.09-.52c0-.21,0-.47,0-.77s0-.57,0-.78a1.8,1.8,0,0,0-.09-.52A.51.51,0,0,0,7.3,13,.53.53,0,0,0,7,12.94a.54.54,0,0,0-.33.09.64.64,0,0,0-.19.29,2.91,2.91,0,0,0-.09.52c0,.21,0,.47,0,.78S6.36,15.18,6.37,15.39Z"/><path class="cls-7" d="M9.79,15.6a2.64,2.64,0,0,0,0,.29.55.55,0,0,0,.1.22.53.53,0,0,0,.19.13.6.6,0,0,0,.29.05.58.58,0,0,0,.38-.13.51.51,0,0,0,.17-.42.76.76,0,0,0,0-.27.49.49,0,0,0-.13-.2,1.81,1.81,0,0,0-.25-.16L10.12,15a2.8,2.8,0,0,1-.52-.22,1.34,1.34,0,0,1-.37-.28A1.07,1.07,0,0,1,9,14.09a1.49,1.49,0,0,1-.07-.49,1.24,1.24,0,0,1,.37-1,1.52,1.52,0,0,1,1-.33,2.47,2.47,0,0,1,.56.06,1.21,1.21,0,0,1,.44.22.84.84,0,0,1,.29.38,1.18,1.18,0,0,1,.11.55v.13h-.87a.88.88,0,0,0-.12-.5.42.42,0,0,0-.38-.17.62.62,0,0,0-.25,0,.4.4,0,0,0-.16.12.46.46,0,0,0-.09.17,1.23,1.23,0,0,0,0,.19.63.63,0,0,0,.09.35.79.79,0,0,0,.38.27l.7.3a2.36,2.36,0,0,1,.43.24,1,1,0,0,1,.26.27.8.8,0,0,1,.14.31,2.11,2.11,0,0,1,0,.38,1.23,1.23,0,0,1-.42,1,1.82,1.82,0,0,1-1.16.33,1.48,1.48,0,0,1-1.1-.34,1.3,1.3,0,0,1-.33-1v-.18h.91Z"/><path class="cls-7" d="M13.08,15.6a1.37,1.37,0,0,0,0,.29.55.55,0,0,0,.1.22.42.42,0,0,0,.18.13.67.67,0,0,0,.3.05.56.56,0,0,0,.37-.13.49.49,0,0,0,.17-.42.77.77,0,0,0,0-.27.63.63,0,0,0-.13-.2,1.81,1.81,0,0,0-.25-.16L13.41,15a2.54,2.54,0,0,1-.52-.22,1.2,1.2,0,0,1-.37-.28.94.94,0,0,1-.22-.37,1.49,1.49,0,0,1-.07-.49,1.24,1.24,0,0,1,.37-1,1.5,1.5,0,0,1,1-.33,2.47,2.47,0,0,1,.56.06,1.21,1.21,0,0,1,.44.22.92.92,0,0,1,.29.38,1.31,1.31,0,0,1,.11.55v.13h-.88a1,1,0,0,0-.11-.5.43.43,0,0,0-.38-.17.6.6,0,0,0-.25,0,.43.43,0,0,0-.17.12.45.45,0,0,0-.08.17,1.23,1.23,0,0,0,0,.19.63.63,0,0,0,.09.35.74.74,0,0,0,.38.27l.7.3a2.75,2.75,0,0,1,.43.24,1.33,1.33,0,0,1,.26.27.79.79,0,0,1,.13.31,1.48,1.48,0,0,1,0,.38,1.26,1.26,0,0,1-.41,1A1.82,1.82,0,0,1,13.6,17a1.48,1.48,0,0,1-1.1-.34,1.26,1.26,0,0,1-.34-1v-.18h.92Z"/></g></g></svg>