<svg xmlns="http://www.w3.org/2000/svg" viewBox="0 0 10.82 13.6"><defs><style>.cls-1{fill:#a1b505;}.cls-2,.cls-3{fill:none;stroke-miterlimit:10;}.cls-2{stroke:#9baab7;stroke-width:0.82px;}.cls-3{stroke:#1d1d1b;stroke-linecap:round;}</style></defs><title>Lebenszyklus_Anfang</title><g id="Ebene_2" data-name="Ebene 2"><g id="Ebene_1-2" data-name="Ebene 1"><path class="cls-1" d="M8,1.9a3.15,3.15,0,0,1-.34,1.24c-.31.54-1.52,2.09-2.21,2.94v0A36.21,36.21,0,0,1,3.19,3.14a3.09,3.09,0,0,1-.35-1.23Z"/><path class="cls-2" d="M2,9.75a4.39,4.39,0,0,0-.52,2V13.1h8V11.71a4.23,4.23,0,0,0-.53-2A28.9,28.9,0,0,0,6.52,7S8.38,4.69,8.86,3.84a4.48,4.48,0,0,0,.53-2V.48l-8,0V1.88a4.61,4.61,0,0,0,.53,2C2.44,4.7,4.3,7,4.3,7A29.08,29.08,0,0,0,2,9.75Z"/><line class="cls-3" x1="0.5" y1="13.1" x2="10.32" y2="13.09"/><line class="cls-3" x1="0.5" y1="0.51" x2="10.32" y2="0.5"/><path class="cls-1" d="M5.33,10.9l.08-.09.08.09c.26.28.58.62.88,1H4.44C4.75,11.52,5.07,11.18,5.33,10.9Z"/></g></g></svg>