<svg xmlns="http://www.w3.org/2000/svg" viewBox="0 0 36.8 22.15"><defs><style>.cls-1,.cls-3{fill:#b8c9d9;}.cls-1{stroke:#1d1d1b;stroke-miterlimit:10;stroke-width:0.82px;}.cls-2{fill:#fff;}</style></defs><title>Library</title><g id="Ebene_2" data-name="Ebene 2"><g id="Ebene_1-2" data-name="Ebene 1"><rect class="cls-1" x="0.41" y="0.41" width="35.99" height="21.34"/><rect class="cls-2" x="4.8" y="4.61" width="5.41" height="15.07" rx="0.79" ry="0.79"/><rect class="cls-3" x="5.39" y="7.48" width="4.25" height="0.76"/><rect class="cls-3" x="5.39" y="10.21" width="4.25" height="0.76"/><rect class="cls-2" x="12.01" y="3.86" width="4.25" height="15.83" rx="0.79" ry="0.79"/><rect class="cls-3" x="12.71" y="6.72" width="2.83" height="0.76"/><rect class="cls-3" x="12.71" y="9.45" width="2.83" height="0.76"/><rect class="cls-2" x="18.04" y="5.13" width="5.41" height="14.55" rx="0.79" ry="0.79"/><rect class="cls-3" x="18.63" y="7.7" width="4.25" height="0.76"/><rect class="cls-3" x="18.63" y="10.43" width="4.25" height="0.76"/><rect class="cls-2" x="26.09" y="4.69" width="5.41" height="14.55" rx="0.79" ry="0.79" transform="translate(-2.09 7.65) rotate(-14.61)"/><rect class="cls-3" x="25.58" y="7.4" width="4.25" height="0.76" transform="translate(-1.07 7.24) rotate(-14.61)"/><rect class="cls-3" x="26.27" y="10.04" width="4.25" height="0.76" transform="translate(-1.71 7.5) rotate(-14.61)"/></g></g></svg>