<svg xmlns="http://www.w3.org/2000/svg" viewBox="0 0 29.39 21.27"><defs><style>.cls-1{fill:#fff;}.cls-1,.cls-3{stroke:#1d1d1b;stroke-linejoin:round;}.cls-1,.cls-3,.cls-5{stroke-width:0.82px;}.cls-2{fill:#d6e7f1;}.cls-3,.cls-5{fill:none;}.cls-4{fill:#1b181c;}.cls-5{stroke:#9baab7;stroke-linecap:round;stroke-miterlimit:10;}</style></defs><title>Printer</title><g id="Ebene_2" data-name="Ebene 2"><g id="Ebene_1-2" data-name="Ebene 1"><rect class="cls-1" x="8.06" y="0.41" width="13.11" height="9.07"/><polygon id="SVGID" class="cls-2" points="0.41 7.36 6.82 7.36 7.74 7.4 21.51 7.4 22.52 7.36 28.99 7.36 28.99 18.79 0.41 18.79 0.41 7.36"/><polygon id="SVGID-2" data-name="SVGID" class="cls-3" points="0.41 7.36 6.82 7.36 7.74 7.4 21.51 7.4 22.52 7.36 28.99 7.36 28.99 18.79 0.41 18.79 0.41 7.36"/><rect class="cls-4" x="5.79" y="9.72" width="1.99" height="1.99" rx="0.45" ry="0.45"/><rect class="cls-4" x="2.95" y="9.72" width="1.99" height="1.99" rx="0.45" ry="0.45"/><rect class="cls-4" x="5.69" y="14" width="18" height="1.99" rx="0.48" ry="0.48"/><rect class="cls-1" x="8.06" y="14.87" width="13.11" height="6"/><line class="cls-5" x1="10.02" y1="16.65" x2="19.22" y2="16.65"/><line class="cls-5" x1="14.79" y1="18.62" x2="19.22" y2="18.62"/></g></g></svg>