<svg xmlns="http://www.w3.org/2000/svg" viewBox="0 0 35.9 32.42"><defs><style>.cls-1{fill:#d6e7f1;}.cls-1,.cls-2{stroke:#0d4252;fill-rule:evenodd;}.cls-1,.cls-2,.cls-4{stroke-miterlimit:10;stroke-width:0.78px;}.cls-2,.cls-4{fill:#fff;}.cls-3{fill:#fff7cc;stroke-linecap:round;}.cls-3,.cls-4,.cls-5,.cls-6{stroke:#1d1d1b;}.cls-3,.cls-5,.cls-6{stroke-linejoin:round;stroke-width:0.82px;}.cls-5{fill:#9baab7;}.cls-6{fill:#e3edfa;}</style></defs><title>Service_Level#</title><g id="Ebene_2" data-name="Ebene 2"><g id="Ebene_1-2" data-name="Ebene 1"><path class="cls-1" d="M2.1,15.32l1,1.05a7.41,7.41,0,0,0-.82,2H.85a.47.47,0,0,0-.46.46v2.75A.47.47,0,0,0,.85,22H2.33A7.1,7.1,0,0,0,3.13,24V24l-1,1a.48.48,0,0,0,0,.65l1.95,1.95a.48.48,0,0,0,.65,0l1-1a7.47,7.47,0,0,0,2,.82V28.9a.47.47,0,0,0,.46.46h2.75a.48.48,0,0,0,.46-.46V27.42a7.23,7.23,0,0,0,1.94-.8h.07l1,1a.47.47,0,0,0,.66,0L17,25.7a.48.48,0,0,0,0-.65L16,24a7,7,0,0,0,.82-2h1.48a.47.47,0,0,0,.46-.46V18.81a.47.47,0,0,0-.46-.46H16.79a6.8,6.8,0,0,0-.8-1.94v-.07l1-1a.48.48,0,0,0,0-.65l-1.95-1.94a.46.46,0,0,0-.65,0l-1,1a7.9,7.9,0,0,0-2-.82V11.47a.46.46,0,0,0-.45-.45H8.19a.46.46,0,0,0-.46.45V13a7,7,0,0,0-1.94.81H5.72l-1-1a.48.48,0,0,0-.65,0L2.1,14.67A.48.48,0,0,0,2.1,15.32Z"/><path class="cls-2" d="M13,16.74a4.87,4.87,0,1,1-6.88,0A4.86,4.86,0,0,1,13,16.74Z"/><path class="cls-3" d="M17.74,26.35a5.07,5.07,0,0,0,.36,1.31l-1.05.79,1.48,2,1-.77a4.93,4.93,0,0,0,2.48,1.05l.16,1.3,2.45-.29-.15-1.3a5,5,0,0,0,2.17-1.6l1.19.51,1-2.27-1.21-.52a5.12,5.12,0,0,0,.05-1.36,5.07,5.07,0,0,0-.36-1.31l1.05-.79-1.48-2-1,.78a4.94,4.94,0,0,0-2.48-1.06l-.16-1.3-2.46.29.16,1.3a5,5,0,0,0-2.17,1.61l-1.19-.52-1,2.28,1.21.52A5.06,5.06,0,0,0,17.74,26.35ZM22.38,23a2.82,2.82,0,1,1-2.46,3.13A2.81,2.81,0,0,1,22.38,23Z"/><rect class="cls-4" x="19.78" y="8.56" width="4.36" height="7.03"/><rect class="cls-5" x="31.14" y="0.41" width="4.36" height="15.18"/><rect class="cls-6" x="25.46" y="5.12" width="4.36" height="10.47"/></g></g></svg>