<svg xmlns="http://www.w3.org/2000/svg" viewBox="0 0 32.58 27.34"><defs><style>.cls-1{fill:#d6e7f1;}.cls-1,.cls-2{stroke:#0d4252;stroke-miterlimit:10;stroke-width:0.78px;fill-rule:evenodd;}.cls-2,.cls-4{fill:#fff;}.cls-3{fill:#fff7cc;stroke:#1d1d1b;stroke-linecap:round;stroke-linejoin:round;stroke-width:0.82px;}.cls-5{fill:#706f6f;}.cls-6{fill:#9baab7;}</style></defs><title>Service_ExternalCustomer</title><g id="Ebene_2" data-name="Ebene 2"><g id="Ebene_1-2" data-name="Ebene 1"><path class="cls-1" d="M2.1,10.24l1,1a7.55,7.55,0,0,0-.82,2H.85a.46.46,0,0,0-.46.45v2.76a.46.46,0,0,0,.46.45H2.33a7,7,0,0,0,.8,1.94V19l-1,1a.48.48,0,0,0,0,.65l1.95,1.95a.48.48,0,0,0,.65,0l1-1.05a7.47,7.47,0,0,0,2,.82v1.48a.47.47,0,0,0,.46.46h2.75a.47.47,0,0,0,.46-.46V22.34a7.23,7.23,0,0,0,1.94-.8h.07l1,1a.49.49,0,0,0,.66,0L17,20.62A.48.48,0,0,0,17,20l-1-1a7.16,7.16,0,0,0,.82-2h1.48a.46.46,0,0,0,.46-.45V13.73a.48.48,0,0,0-.46-.46H16.79a6.86,6.86,0,0,0-.8-1.95v-.07l1-1a.48.48,0,0,0,0-.65L15.07,7.65a.48.48,0,0,0-.65,0l-1,1a7.51,7.51,0,0,0-2-.81V6.4a.46.46,0,0,0-.45-.46H8.19a.47.47,0,0,0-.46.46V7.88a7,7,0,0,0-1.94.8H5.72l-1-1a.48.48,0,0,0-.65,0L2.1,9.59A.48.48,0,0,0,2.1,10.24Z"/><path class="cls-2" d="M13,11.67a4.87,4.87,0,1,1-6.88,0A4.85,4.85,0,0,1,13,11.67Z"/><path class="cls-3" d="M17.74,21.28a5.3,5.3,0,0,0,.36,1.31l-1.05.78,1.48,2,1-.78a5,5,0,0,0,2.48,1.06l.16,1.3,2.45-.29-.15-1.3a5,5,0,0,0,2.17-1.61l1.19.51,1-2.27-1.21-.52a5.12,5.12,0,0,0,.05-1.36,5.3,5.3,0,0,0-.36-1.31L28.38,18,26.9,16l-1,.78a5,5,0,0,0-2.48-1.06l-.16-1.3-2.46.29.16,1.3a5,5,0,0,0-2.17,1.61l-1.19-.51-1,2.27,1.21.52A5.12,5.12,0,0,0,17.74,21.28Zm4.64-3.39A2.82,2.82,0,1,1,19.92,21,2.82,2.82,0,0,1,22.38,17.89Z"/><rect class="cls-4" x="20.56" y="1.49" width="9.16" height="9.16"/><polygon class="cls-5" points="29.32 6.1 29.32 10.25 20.97 10.25 20.97 1.9 22.88 1.9 22.88 1.08 20.16 1.08 20.16 11.07 30.14 11.07 30.14 5.28 29.32 6.1"/><path class="cls-6" d="M24.8,5.58h.7A3.13,3.13,0,0,1,28.62,8.7v1a0,0,0,0,1,0,0H21.67a0,0,0,0,1,0,0v-1A3.13,3.13,0,0,1,24.8,5.58Z"/><circle class="cls-6" cx="25.15" cy="3.14" r="1.87"/><path class="cls-5" d="M32.58,0H29.36l1.26,1.26L27.93,4a.5.5,0,0,0,0,.71.47.47,0,0,0,.35.15.49.49,0,0,0,.35-.15L31.33,2l1.25,1.26Z"/></g></g></svg>