<svg xmlns="http://www.w3.org/2000/svg" viewBox="0 0 32.63 27.65"><defs><style>.cls-1{fill:#d6e7f1;}.cls-1,.cls-2{stroke:#0d4252;stroke-miterlimit:10;stroke-width:0.78px;fill-rule:evenodd;}.cls-2,.cls-4{fill:#fff;}.cls-3{fill:#fff7cc;stroke:#1d1d1b;stroke-linecap:round;stroke-linejoin:round;stroke-width:0.82px;}.cls-5{fill:#706f6f;}.cls-6{fill:#9baab7;}</style></defs><title>Service_Internal_Customer</title><g id="Ebene_2" data-name="Ebene 2"><g id="Ebene_1-2" data-name="Ebene 1"><path class="cls-1" d="M2.1,10.55l1,1a7.28,7.28,0,0,0-.82,2H.85A.47.47,0,0,0,.39,14v2.75a.47.47,0,0,0,.46.46H2.33a7.1,7.1,0,0,0,.8,1.94v.07l-1,1a.48.48,0,0,0,0,.65l1.95,1.94a.46.46,0,0,0,.65,0l1-1a7.81,7.81,0,0,0,2,.82v1.48a.47.47,0,0,0,.46.46h2.75a.48.48,0,0,0,.46-.46V22.65a7.23,7.23,0,0,0,1.94-.8h.07l1,1a.47.47,0,0,0,.66,0L17,20.93a.48.48,0,0,0,0-.65l-1-1.05a7,7,0,0,0,.82-2h1.48a.47.47,0,0,0,.46-.46V14a.47.47,0,0,0-.46-.46H16.79a6.8,6.8,0,0,0-.8-1.94v-.07l1-1a.48.48,0,0,0,0-.65L15.07,8a.47.47,0,0,0-.65,0l-1,1a7.9,7.9,0,0,0-2-.82V6.7a.47.47,0,0,0-.45-.46H8.19a.47.47,0,0,0-.46.46V8.18A7.29,7.29,0,0,0,5.79,9H5.72l-1-1a.46.46,0,0,0-.65,0L2.1,9.9A.48.48,0,0,0,2.1,10.55Z"/><path class="cls-2" d="M13,12a4.87,4.87,0,1,1-6.88,0A4.86,4.86,0,0,1,13,12Z"/><path class="cls-3" d="M17.74,21.58a5.07,5.07,0,0,0,.36,1.31l-1.05.79,1.48,2,1-.77a5,5,0,0,0,2.48,1.05l.16,1.3L24.66,27l-.15-1.3a5,5,0,0,0,2.17-1.6l1.19.51,1-2.27-1.21-.52a5.14,5.14,0,0,0,.05-1.36,5.07,5.07,0,0,0-.36-1.31l1.05-.79-1.48-2-1,.77a5,5,0,0,0-2.48-1.05l-.16-1.3L20.76,15l.16,1.3a5,5,0,0,0-2.17,1.6l-1.19-.51-1,2.28,1.21.51A5.15,5.15,0,0,0,17.74,21.58Zm4.64-3.38a2.82,2.82,0,1,1-2.46,3.13A2.81,2.81,0,0,1,22.38,18.2Z"/><rect class="cls-4" x="20.56" y="1.8" width="9.16" height="9.16"/><polygon class="cls-5" points="29.32 5.75 29.32 10.56 20.97 10.56 20.97 2.21 22.88 2.21 22.88 1.39 20.16 1.39 20.16 11.37 30.14 11.37 30.14 5.75 29.32 5.75"/><path class="cls-5" d="M32.49.15a.5.5,0,0,0-.71,0l-2.7,2.69L27.83,1.58V4.8h3.22L29.79,3.55l2.7-2.7A.5.5,0,0,0,32.49.15Z"/><path class="cls-6" d="M24.8,5.88h.7A3.13,3.13,0,0,1,28.62,9v1a0,0,0,0,1,0,0H21.67a0,0,0,0,1,0,0V9A3.13,3.13,0,0,1,24.8,5.88Z"/><circle class="cls-6" cx="25.15" cy="3.45" r="1.87"/></g></g></svg>