<svg xmlns="http://www.w3.org/2000/svg" viewBox="0 0 37.18 23.24"><defs><style>.cls-1{fill:#d6e7f1;}.cls-1,.cls-2{stroke:#0d4252;stroke-miterlimit:10;stroke-width:0.78px;fill-rule:evenodd;}.cls-2,.cls-4{fill:#fff;}.cls-3{fill:#fff7cc;stroke-width:0.82px;}.cls-3,.cls-4,.cls-5{stroke:#1d1d1b;stroke-linejoin:round;}.cls-3,.cls-5{stroke-linecap:round;}.cls-5{fill:none;}.cls-6{fill:#1d1d1b;}</style></defs><title>Service_Supporting_2</title><g id="Ebene_2" data-name="Ebene 2"><g id="Ebene_1-2" data-name="Ebene 1"><path class="cls-1" d="M2.1,6.14l1,1.05a7.55,7.55,0,0,0-.82,2H.85a.46.46,0,0,0-.46.45v2.75a.47.47,0,0,0,.46.46H2.33a7,7,0,0,0,.8,1.94v.07l-1,1a.48.48,0,0,0,0,.65l1.95,1.95a.48.48,0,0,0,.65,0l1-1a7.47,7.47,0,0,0,2,.82v1.48a.47.47,0,0,0,.46.46h2.75a.47.47,0,0,0,.46-.46V18.24a7.23,7.23,0,0,0,1.94-.8h.07l1,1a.49.49,0,0,0,.66,0L17,16.52a.48.48,0,0,0,0-.65l-1-1a7.16,7.16,0,0,0,.82-2h1.48a.47.47,0,0,0,.46-.46V9.63a.48.48,0,0,0-.46-.46H16.79A6.86,6.86,0,0,0,16,7.23V7.16l1-1a.48.48,0,0,0,0-.65L15.07,3.55a.48.48,0,0,0-.65,0l-1,1a7.51,7.51,0,0,0-2-.81V2.3a.46.46,0,0,0-.45-.46H8.19a.47.47,0,0,0-.46.46V3.78a7,7,0,0,0-1.94.8H5.72l-1-1a.48.48,0,0,0-.65,0L2.1,5.49A.48.48,0,0,0,2.1,6.14Z"/><path class="cls-2" d="M13,7.57a4.87,4.87,0,1,1-6.88,0A4.85,4.85,0,0,1,13,7.57Z"/><path class="cls-3" d="M17.74,17.18a5.3,5.3,0,0,0,.36,1.31l-1.05.78,1.48,2,1-.78a5,5,0,0,0,2.48,1.06l.16,1.3,2.45-.29-.15-1.3a5,5,0,0,0,2.17-1.61l1.19.51,1-2.27-1.21-.52A5.12,5.12,0,0,0,27.69,16a5.3,5.3,0,0,0-.36-1.31l1.05-.78-1.48-2-1,.78a5,5,0,0,0-2.48-1.06l-.16-1.3-2.46.29.16,1.3a5,5,0,0,0-2.17,1.61L17.56,13l-1,2.27,1.21.52A5.12,5.12,0,0,0,17.74,17.18Zm4.64-3.39a2.82,2.82,0,1,1-2.46,3.13A2.82,2.82,0,0,1,22.38,13.79Z"/><polygon class="cls-4" points="23 1.86 26.36 0.5 31.02 3.03 35.67 1.96 36.68 2.85 31.09 6.12 24.07 5.05 23 1.86"/><polyline class="cls-5" points="26.38 3.03 31.05 4.32 31.02 3.03"/><polygon class="cls-6" points="19.37 6.65 24.95 5.76 22.96 1.38 18.64 2.07 19.37 6.65"/></g></g></svg>