<svg xmlns="http://www.w3.org/2000/svg" viewBox="0 0 30.68 27.91"><defs><style>.cls-1{fill:#d6e7f1;}.cls-1,.cls-2{stroke:#0d4252;stroke-width:0.78px;fill-rule:evenodd;}.cls-1,.cls-2,.cls-4{stroke-miterlimit:10;}.cls-2,.cls-4{fill:#fff;}.cls-3{fill:#fff7cc;stroke-linecap:round;stroke-linejoin:round;}.cls-3,.cls-4{stroke:#1d1d1b;stroke-width:0.82px;}.cls-5{fill:#e94e1b;}</style></defs><title>Service_Supporting_1</title><g id="Ebene_2" data-name="Ebene 2"><g id="Ebene_1-2" data-name="Ebene 1"><path class="cls-1" d="M2.1,10.81l1,1a7.47,7.47,0,0,0-.82,2H.85a.47.47,0,0,0-.46.46v2.75a.46.46,0,0,0,.46.45H2.33a7,7,0,0,0,.8,1.93v.08l-1,1a.48.48,0,0,0,0,.65l1.95,1.95a.47.47,0,0,0,.65,0l1-1a7.81,7.81,0,0,0,2,.82v1.47a.47.47,0,0,0,.46.46h2.75a.47.47,0,0,0,.46-.46V22.9a6.92,6.92,0,0,0,1.94-.8h.07l1,1a.49.49,0,0,0,.66,0L17,21.18a.47.47,0,0,0,0-.64l-1-1.05a7.1,7.1,0,0,0,.82-2h1.48a.47.47,0,0,0,.46-.46V14.3a.47.47,0,0,0-.46-.46H16.79A6.69,6.69,0,0,0,16,11.9v-.07l1-1a.48.48,0,0,0,0-.65L15.07,8.21a.48.48,0,0,0-.65,0l-1,1a7.55,7.55,0,0,0-2-.82V7a.46.46,0,0,0-.45-.46H8.19A.47.47,0,0,0,7.73,7V8.44a7,7,0,0,0-1.94.8H5.72l-1-1a.48.48,0,0,0-.65,0L2.1,10.16A.48.48,0,0,0,2.1,10.81Z"/><path class="cls-2" d="M13,12.23a4.87,4.87,0,1,1-6.88,0A4.86,4.86,0,0,1,13,12.23Z"/><path class="cls-3" d="M17.74,21.84a5.07,5.07,0,0,0,.36,1.31l-1.05.78,1.48,2,1-.78a4.94,4.94,0,0,0,2.48,1.06l.16,1.3,2.45-.29-.15-1.3a5,5,0,0,0,2.17-1.61l1.19.52,1-2.28L27.64,22a4.46,4.46,0,0,0-.31-2.66l1.05-.79-1.48-2-1,.77a4.93,4.93,0,0,0-2.48-1.05L23.22,15l-2.46.29.16,1.3a5,5,0,0,0-2.17,1.6l-1.19-.51-1,2.27,1.21.52A5.12,5.12,0,0,0,17.74,21.84Zm4.64-3.39a2.82,2.82,0,1,1-2.46,3.13A2.82,2.82,0,0,1,22.38,18.45Z"/><circle class="cls-4" cx="24.46" cy="6.22" r="5.81"/><circle class="cls-4" cx="24.46" cy="6.22" r="3.07"/><rect class="cls-5" x="20.41" y="0.95" width="1.91" height="4.34" rx="0.57" ry="0.57" transform="translate(4.05 16.02) rotate(-45)"/><rect class="cls-5" x="26.62" y="7.16" width="1.91" height="4.34" rx="0.57" ry="0.57" transform="translate(1.48 22.23) rotate(-45)"/><rect class="cls-5" x="20.41" y="7.16" width="1.91" height="4.34" rx="0.57" ry="0.57" transform="translate(29.88 31.04) rotate(-135)"/><rect class="cls-5" x="26.62" y="0.95" width="1.91" height="4.34" rx="0.57" ry="0.57" transform="translate(44.86 24.83) rotate(-135)"/></g></g></svg>