<svg xmlns="http://www.w3.org/2000/svg" viewBox="0 0 27.32 25.32"><defs><style>.cls-1{fill:#d9e5ec;}.cls-2{fill:#c4c4c4;}.cls-3{fill:#fff;}.cls-4,.cls-5{fill:none;}.cls-4,.cls-5,.cls-6{stroke:#1d1d1b;stroke-linejoin:round;}.cls-4{stroke-width:0.82px;}.cls-5{stroke-width:0.84px;}.cls-6{fill:#c8c7c6;stroke-linecap:round;stroke-width:0.82px;}</style></defs><title>Werkzeug</title><g id="Ebene_2" data-name="Ebene 2"><g id="Ebene_1-2" data-name="Ebene 1"><rect class="cls-1" x="0.41" y="6.46" width="26.5" height="18.45"/><path class="cls-2" d="M26.91.41V6.46H.41v-6ZM25,4.52V2.41H6.77V4.52Zm-20,0V2.41H2.28V4.52Z"/><rect class="cls-3" x="6.77" y="2.41" width="18.2" height="2.11"/><rect class="cls-2" x="2.28" y="2.41" width="2.71" height="2.11"/><polygon class="cls-4" points="26.91 6.46 26.91 24.91 0.41 24.91 0.41 6.46 0.41 0.41 26.91 0.41 26.91 6.46"/><line class="cls-4" x1="26.91" y1="6.46" x2="0.41" y2="6.46"/><rect class="cls-5" x="2.28" y="2.41" width="2.71" height="2.11"/><path class="cls-6" d="M17.21,12.88,3.72,19.77a1.34,1.34,0,0,0-.58,1.81h0a1.33,1.33,0,0,0,1.8.58l13.49-6.89a3.29,3.29,0,0,0,5.35-2.73l-2.22,1.14-1.3-.84.08-1.55,2.22-1.14a3.29,3.29,0,0,0-5.35,2.73Z"/></g></g></svg>