<svg xmlns="http://www.w3.org/2000/svg" viewBox="0 0 44.99 23.65"><defs><style>.cls-1{fill:#c5d4dc;}.cls-1,.cls-2{fill-rule:evenodd;}.cls-2{fill:#d6e7f1;}.cls-3{fill:#0d4252;}.cls-4{fill:#1d1d1b;}</style></defs><title>Workflow_Mgmt_3</title><g id="Ebene_2" data-name="Ebene 2"><g id="Ebene_1-2" data-name="Ebene 1"><polygon class="cls-1" points="44.99 12.02 30.45 0.39 30.45 6.25 0 6.25 0 17.8 30.45 17.8 30.45 23.65 44.99 12.02"/><path class="cls-2" d="M26.86,8.86H25.15a8.58,8.58,0,0,0-.95-2.29l1.21-1.21a.54.54,0,0,0,0-.75L23.16,2.37a.53.53,0,0,0-.74,0L21.21,3.58A8.16,8.16,0,0,0,19,2.65l0-.07V.92a.55.55,0,0,0-.53-.53H15.21a.55.55,0,0,0-.53.53V2.63a8.53,8.53,0,0,0-2.29,1l-1.2-1.21a.54.54,0,0,0-.75,0L8.19,4.61a.54.54,0,0,0,0,.75L9.4,6.57a8.22,8.22,0,0,0-.93,2.24l-.06,0H6.75a.54.54,0,0,0-.53.53v3.17a.54.54,0,0,0,.53.53h1.7a8.58,8.58,0,0,0,1,2.29L8.19,16.59a.54.54,0,0,0,0,.75l2.25,2.24a.54.54,0,0,0,.75,0l1.2-1.21a8,8,0,0,0,2.24.93l0,.07V21a.55.55,0,0,0,.53.53h3.18a.55.55,0,0,0,.53-.53V19.32a8.53,8.53,0,0,0,2.29-.95l1.21,1.21a.53.53,0,0,0,.74,0l2.25-2.24a.54.54,0,0,0,0-.75L24.2,15.38a8.22,8.22,0,0,0,.93-2.24l.06-.05h1.67a.55.55,0,0,0,.53-.53V9.39A.55.55,0,0,0,26.86,8.86Z"/><path class="cls-3" d="M18.39,22H15.21a.93.93,0,0,1-.92-.92V19.61a7.84,7.84,0,0,1-1.83-.75l-1,1a1,1,0,0,1-1.31,0L7.92,17.61A.89.89,0,0,1,7.65,17a.94.94,0,0,1,.27-.66l1-1a9,9,0,0,1-.77-1.84H6.75a.93.93,0,0,1-.92-.92V9.39a.93.93,0,0,1,.92-.92H8.16a8.38,8.38,0,0,1,.75-1.83l-1-1a.93.93,0,0,1,0-1.31l2.24-2.24a1,1,0,0,1,1.3,0l1,1a8.62,8.62,0,0,1,1.83-.76V.92A.93.93,0,0,1,15.21,0h3.18a.93.93,0,0,1,.92.92V2.34a8.29,8.29,0,0,1,1.83.75l1-1a1,1,0,0,1,1.3,0l2.24,2.25A.9.9,0,0,1,26,5a.93.93,0,0,1-.27.65l-1,1a9.17,9.17,0,0,1,.76,1.83h1.41a.93.93,0,0,1,.92.92v3.17a.93.93,0,0,1-.92.92H25.44a8.89,8.89,0,0,1-.75,1.84l1,1a.93.93,0,0,1,0,1.31l-2.24,2.24a1,1,0,0,1-1.3,0l-1-1a8.62,8.62,0,0,1-1.83.76V21A.93.93,0,0,1,18.39,22Zm-6.06-4.07.26.16a7.93,7.93,0,0,0,2.14.88l.14,0,.15.22.05.19V21a.16.16,0,0,0,.14.14h3.18a.15.15,0,0,0,.14-.14V19l.29-.07A8.59,8.59,0,0,0,21,18l.26-.16,1.42,1.43a.18.18,0,0,0,.2,0l2.24-2.25a.15.15,0,0,0,0-.1.13.13,0,0,0,0-.09l-1.42-1.43.16-.26a7.74,7.74,0,0,0,.88-2.13l0-.13.22-.17.19-.05h1.67a.16.16,0,0,0,.14-.14V9.39a.16.16,0,0,0-.14-.14h-2L24.77,9a8.16,8.16,0,0,0-.9-2.18l-.16-.26,1.42-1.42a.18.18,0,0,0,0-.1.15.15,0,0,0,0-.1L22.89,2.64a.17.17,0,0,0-.2,0L21.27,4.07,21,3.91A7.67,7.67,0,0,0,18.87,3l-.14,0-.15-.22,0-.19V.92a.15.15,0,0,0-.14-.14H15.21a.15.15,0,0,0-.14.14v2L14.78,3a8.59,8.59,0,0,0-2.19.91l-.26.16L10.91,2.64a.18.18,0,0,0-.2,0L8.47,4.89a.15.15,0,0,0,0,.1.13.13,0,0,0,0,.09L9.89,6.51l-.15.26A7.52,7.52,0,0,0,8.85,8.9l0,.13-.21.17-.2.05H6.75a.16.16,0,0,0-.15.14v3.17a.16.16,0,0,0,.15.14h2l.08.3a8,8,0,0,0,.91,2.18l.15.26L8.47,16.86a.18.18,0,0,0,0,.1.15.15,0,0,0,0,.1l2.24,2.25a.18.18,0,0,0,.21,0Z"/><path class="cls-4" d="M18.87,5.74,17.4,3.92a.34.34,0,0,0-.48,0l-.05,0a.36.36,0,0,0-.05.49l.83,1A5.85,5.85,0,0,0,12.9,15.6a.41.41,0,0,0,.58,0,.4.4,0,0,0,0-.57,5,5,0,0,1,4.21-8.75l-1.27.9a.33.33,0,0,0-.09.47l0,0a.34.34,0,0,0,.48.09L18.72,6.4A.44.44,0,0,0,18.87,5.74Z"/><path class="cls-4" d="M20.69,6.76a.45.45,0,0,0-.27-.1.41.41,0,0,0-.3.14.41.41,0,0,0,0,.58,5,5,0,0,1-4.21,8.74l1.28-.89a.35.35,0,0,0,.09-.48l0-.05a.36.36,0,0,0-.49-.08L14.88,16a.44.44,0,0,0-.15.66l1.46,1.82a.35.35,0,0,0,.49.06l0,0a.34.34,0,0,0,.05-.48l-.83-1A5.84,5.84,0,0,0,20.69,6.76Z"/></g></g></svg>