<?xml version="1.0" encoding="UTF-8" standalone="no"?>
<!-- Generator: Adobe Illustrator 15.1.0, SVG Export Plug-In . SVG Version: 6.00 Build 0)  -->

<svg
   version="1.1"
   id="Ebene_1"
   x="0px"
   y="0px"
   width="28.35px"
   height="28.35px"
   viewBox="0 0 28.35 28.35"
   enable-background="new 0 0 28.35 28.35"
   xml:space="preserve"
   sodipodi:docname="Comment2.svg"
   inkscape:version="1.1 (c68e22c387, 2021-05-23)"
   xmlns:inkscape="http://www.inkscape.org/namespaces/inkscape"
   xmlns:sodipodi="http://sodipodi.sourceforge.net/DTD/sodipodi-0.dtd"
   xmlns="http://www.w3.org/2000/svg"
   xmlns:svg="http://www.w3.org/2000/svg"><defs
   id="defs23">
		
		
	</defs><sodipodi:namedview
   id="namedview21"
   pagecolor="#505050"
   bordercolor="#eeeeee"
   borderopacity="1"
   inkscape:pageshadow="0"
   inkscape:pageopacity="0"
   inkscape:pagecheckerboard="0"
   showgrid="false"
   inkscape:zoom="29.347442"
   inkscape:cx="14.175"
   inkscape:cy="14.192037"
   inkscape:window-width="1920"
   inkscape:window-height="1017"
   inkscape:window-x="-8"
   inkscape:window-y="-8"
   inkscape:window-maximized="1"
   inkscape:current-layer="g18" />
<g
   id="g18">
	<rect
   x="4.224"
   y="5.7550001"
   fill="#ffffff"
   width="19.916"
   height="17.612"
   id="rect2" /><path
   d="M 24.516,23.743 H 3.848 V 5.379 H 24.516 Z M 4.6,22.991 H 23.764 V 6.131 H 4.6 Z"
   id="path4" />
	<g
   id="g16">
		<g
   id="g10">
			<path
   d="M13.23,18.467c-0.372,0.191-1.15,0.384-2.135,0.384c-2.279,0-3.982-1.438-3.982-4.102c0-2.542,1.716-4.246,4.223-4.246     c0.996,0,1.643,0.216,1.919,0.359l-0.264,0.852c-0.385-0.191-0.948-0.335-1.619-0.335c-1.896,0-3.154,1.211-3.154,3.334     c0,1.99,1.139,3.25,3.094,3.25c0.648,0,1.295-0.132,1.715-0.336L13.23,18.467z"
   id="path8" />
		</g>
		<g
   id="g14">
			<path
   d="M19.017,11.907h-0.023l-1.355,0.73l-0.203-0.804l1.703-0.912h0.899v7.796h-1.021V11.907z"
   id="path12" />
		</g>
	</g>
<rect
   style="fill:#cccccc"
   id="rect153"
   width="13.459436"
   height="7.3941712"
   x="6.6445312"
   y="1.5674279"
   ry="1.7207634"
   rx="3.4244897" /><rect
   style="fill:#ffff00"
   id="rect153-3"
   width="13.459436"
   height="7.3941712"
   x="20.103968"
   y="1.5674279"
   ry="3.6970856"
   rx="6.7297182" /></g>
</svg>
