<?xml version="1.0" encoding="utf-8"?>
<!-- Generator: Adobe Illustrator 15.1.0, SVG Export Plug-In . SVG Version: 6.00 Build 0)  -->
<!DOCTYPE svg PUBLIC "-//W3C//DTD SVG 1.1//EN" "http://www.w3.org/Graphics/SVG/1.1/DTD/svg11.dtd">
<svg version="1.1" id="Ebene_1" xmlns="http://www.w3.org/2000/svg" xmlns:xlink="http://www.w3.org/1999/xlink" x="0px" y="0px"
	 width="28.35px" height="28.35px" viewBox="0 0 28.35 28.35" enable-background="new 0 0 28.35 28.35" xml:space="preserve">
<g>
	<g>
		<rect x="4.224" y="5.755" fill="#FFFFFF" width="19.916" height="17.612"/>
		<path d="M24.516,23.743H3.848V5.379h20.668V23.743z M4.6,22.991h19.164V6.131H4.6V22.991z"/>
	</g>
	<g>
		<g>
			<path d="M13.23,18.467c-0.372,0.191-1.15,0.384-2.135,0.384c-2.279,0-3.982-1.438-3.982-4.102c0-2.542,1.716-4.246,4.223-4.246
				c0.996,0,1.643,0.216,1.919,0.359l-0.264,0.852c-0.385-0.191-0.948-0.335-1.619-0.335c-1.896,0-3.154,1.211-3.154,3.334
				c0,1.99,1.139,3.25,3.094,3.25c0.648,0,1.295-0.132,1.715-0.336L13.23,18.467z"/>
		</g>
		<g>
			<path d="M19.017,11.907h-0.023l-1.355,0.73l-0.203-0.804l1.703-0.912h0.899v7.796h-1.021V11.907z"/>
		</g>
	</g>
</g>
</svg>
