<?xml version="1.0" encoding="utf-8"?>
<!-- Generator: Adobe Illustrator 14.0.0, SVG Export Plug-In . SVG Version: 6.00 Build 43363)  -->
<!DOCTYPE svg PUBLIC "-//W3C//DTD SVG 1.1//EN" "http://www.w3.org/Graphics/SVG/1.1/DTD/svg11.dtd">
<svg version="1.1" id="Ebene_1" xmlns="http://www.w3.org/2000/svg" xmlns:xlink="http://www.w3.org/1999/xlink" x="0px" y="0px"
	 width="52px" height="44px" viewBox="0 0 52 44" enable-background="new 0 0 52 44" xml:space="preserve">
<g>
	<g>
		<polygon fill-rule="evenodd" clip-rule="evenodd" points="38.314,15.022 30.225,15.022 32.848,12.663 40.939,12.663 		"/>
		<polygon fill-rule="evenodd" clip-rule="evenodd" points="38.314,15.022 30.225,15.022 32.848,12.663 40.939,12.663 		"/>
	</g>
	<g>
		<polygon fill="#FFFFFF" stroke="#008FB4" stroke-width="0.3327" stroke-miterlimit="3.8637" points="36.82,8.179 36.82,11.808 
			38.137,11.808 35.629,14.315 33.121,11.808 34.461,11.808 34.461,8.179 		"/>
		<polygon fill="none" stroke="#008FB4" stroke-width="0.6143" stroke-miterlimit="3.8637" points="36.82,8.179 36.82,11.808 
			38.137,11.808 35.629,14.315 33.121,11.808 34.461,11.808 34.461,8.179 		"/>
	</g>
	<g>
		
			<line fill-rule="evenodd" clip-rule="evenodd" fill="none" stroke="#008FB4" stroke-width="0.5877" stroke-miterlimit="3.8637" x1="38.27" y1="23.418" x2="38.27" y2="14.684"/>
	</g>
</g>
<g>
	<g>
		<polygon fill-rule="evenodd" clip-rule="evenodd" fill="none" stroke="#008FB4" stroke-width="0.8293" points="30.109,15.077 
			30.135,23.324 38.381,23.324 40.994,20.87 41.016,12.622 32.77,12.622 		"/>
		<polygon fill-rule="evenodd" clip-rule="evenodd" fill="none" stroke="#008FB4" stroke-width="0.8293" points="30.109,15.077 
			30.135,23.324 38.381,23.324 40.994,20.87 41.016,12.622 32.77,12.622 		"/>
	</g>
</g>
<g>
	<polygon fill-rule="evenodd" clip-rule="evenodd" points="38.314,15.022 30.225,15.022 32.848,12.663 40.939,12.663 	"/>
	<polygon fill-rule="evenodd" clip-rule="evenodd" points="38.314,15.022 30.225,15.022 32.848,12.663 40.939,12.663 	"/>
</g>
<g>
	<g>
		<polygon fill="#FFFFFF" points="36.82,8.179 36.82,11.808 38.137,11.808 35.629,14.315 33.121,11.808 34.461,11.808 34.461,8.179 
					"/>
		<path d="M35.629,14.55l-2.91-2.909h1.575V8.012h2.692v3.629h1.552L35.629,14.55L35.629,14.55z M33.522,11.974l2.106,2.105
			l2.105-2.105h-1.081V8.345h-2.026v3.629H33.522L33.522,11.974z"/>
	</g>
	<g>
		<path d="M35.629,14.749l-3.25-3.249h1.774V7.872h2.974V11.5h1.751L35.629,14.749L35.629,14.749z M33.862,12.115l1.767,1.766
			l1.766-1.766h-0.882V8.486h-1.745v3.629H33.862L33.862,12.115z"/>
	</g>
</g>
<g>
	<g>
		<polygon points="38.562,23.418 37.975,23.418 37.975,14.684 38.562,14.684 38.562,23.418 		"/>
	</g>
</g>
<g>
	<g>
		<g>
			<linearGradient id="SVGID_1_" gradientUnits="userSpaceOnUse" x1="35.5625" y1="23.3242" x2="35.5625" y2="12.6226">
				<stop  offset="0" style="stop-color:#FFFFFF"/>
				<stop  offset="0.2747" style="stop-color:#FFE6B3"/>
				<stop  offset="0.7857" style="stop-color:#D2BF96"/>
				<stop  offset="0.989" style="stop-color:#FFE6B3"/>
			</linearGradient>
			<polygon fill-rule="evenodd" clip-rule="evenodd" fill="url(#SVGID_1_)" stroke="#008FB4" stroke-width="0.8293" points="
				30.109,15.077 30.135,23.324 38.381,23.324 40.994,20.87 41.016,12.622 32.77,12.622 			"/>
			<polygon fill-rule="evenodd" clip-rule="evenodd" fill="#FFF7CC" stroke="#008FB4" stroke-width="0.8293" points=" 30.109,15.077 
				30.135,23.324 38.381,23.324 40.994,20.87 41.016,12.622 32.77,12.622 			"/>
		</g>
	</g>
	<g>
		<polygon fill-rule="evenodd" clip-rule="evenodd" points="38.314,15.022 30.225,15.022 32.848,12.663 40.939,12.663 		"/>
		<polygon fill-rule="evenodd" clip-rule="evenodd" points="38.314,15.022 30.225,15.022 32.848,12.663 40.939,12.663 		"/>
	</g>
	<g>
		<polygon fill="#FFFFFF" stroke="#008FB4" stroke-width="0.3327" stroke-miterlimit="3.8637" points="36.82,8.179 36.82,11.808 
			38.137,11.808 35.629,14.315 33.121,11.808 34.461,11.808 34.461,8.179 		"/>
		<polygon fill="none" stroke="#008FB4" stroke-width="0.6143" stroke-miterlimit="3.8637" points="36.82,8.179 36.82,11.808 
			38.137,11.808 35.629,14.315 33.121,11.808 34.461,11.808 34.461,8.179 		"/>
	</g>
	<g>
		
			<line fill-rule="evenodd" clip-rule="evenodd" fill="none" stroke="#008FB4" stroke-width="0.5877" stroke-miterlimit="3.8637" x1="38.27" y1="23.418" x2="38.27" y2="14.684"/>
	</g>
</g>
<g>
	<g>
		<g>
			<path d="M38.545,23.738h-8.824l-0.027-8.843l2.914-2.688h8.823l-0.022,8.842L38.545,23.738L38.545,23.738z M30.548,22.91h7.669
				l2.363-2.22l0.02-7.653h-7.668l-2.408,2.221L30.548,22.91L30.548,22.91z"/>
		</g>
		<g>
			<path d="M38.545,23.738h-8.824l-0.027-8.843l2.914-2.688h8.823l-0.022,8.842L38.545,23.738L38.545,23.738z M30.548,22.91h7.669
				l2.363-2.22l0.02-7.653h-7.668l-2.408,2.221L30.548,22.91L30.548,22.91z"/>
		</g>
	</g>
</g>
<g>
	<polygon fill-rule="evenodd" clip-rule="evenodd" points="38.314,15.022 30.225,15.022 32.848,12.663 40.939,12.663 	"/>
	<polygon fill-rule="evenodd" clip-rule="evenodd" points="38.314,15.022 30.225,15.022 32.848,12.663 40.939,12.663 	"/>
</g>
<g>
	<g>
		<polygon fill="#FFFFFF" points="36.82,8.179 36.82,11.808 38.137,11.808 35.629,14.315 33.121,11.808 34.461,11.808 34.461,8.179 
					"/>
		<path d="M35.629,14.55l-2.91-2.909h1.575V8.012h2.692v3.629h1.552L35.629,14.55L35.629,14.55z M33.522,11.974l2.106,2.105
			l2.105-2.105h-1.081V8.345h-2.026v3.629H33.522L33.522,11.974z"/>
	</g>
	<g>
		<path d="M35.629,14.749l-3.25-3.249h1.774V7.872h2.974V11.5h1.751L35.629,14.749L35.629,14.749z M33.862,12.115l1.767,1.766
			l1.766-1.766h-0.882V8.486h-1.745v3.629H33.862L33.862,12.115z"/>
	</g>
</g>
<g>
	<g>
		<polygon points="38.562,23.418 37.975,23.418 37.975,14.684 38.562,14.684 38.562,23.418 		"/>
	</g>
</g>
<g>
	<path fill="#E3E7F3" stroke="#000000" stroke-width="0.828" d="M28.87,17.807H17.713c-1.54,0-2.776,1.247-2.776,2.785L14.929,33.65
		h3.386V22.777h0.654V33.65h8.633V22.777h0.654V33.65h3.386l0.003-13.059C31.646,19.054,30.407,17.807,28.87,17.807z"/>
	<path d="M32.057,34.064H14.514l0.009-13.474c0-1.764,1.431-3.199,3.191-3.199H28.87c1.759,0,3.19,1.435,3.19,3.199L32.057,34.064
		L32.057,34.064z"/>
	<path fill="#DBE5EF" d="M31.228,33.236l0.003-12.645c0-1.307-1.059-2.37-2.361-2.37H17.713c-1.302,0-2.362,1.063-2.362,2.37
		l-0.008,12.645h2.839V22.363h1.2v10.874h7.804V22.363h1.2v10.874H31.228z"/>
	<path d="M23.285,16.788c-2.444,0-4.432-1.988-4.432-4.433c0-2.444,1.988-4.432,4.432-4.432c2.443,0,4.431,1.988,4.431,4.432
		C27.716,14.8,25.729,16.788,23.285,16.788L23.285,16.788z"/>
	<path fill="#FFF7CC" d="M23.285,8.753c-1.987,0-3.603,1.616-3.603,3.603c0,1.987,1.616,3.604,3.603,3.604
		c1.986,0,3.602-1.617,3.602-3.604C26.887,10.369,25.271,8.753,23.285,8.753L23.285,8.753z"/>
</g>
</svg>
