<?xml version="1.0" encoding="utf-8"?>
<!-- Generator: Adobe Illustrator 14.0.0, SVG Export Plug-In . SVG Version: 6.00 Build 43363)  -->
<!DOCTYPE svg PUBLIC "-//W3C//DTD SVG 1.1//EN" "http://www.w3.org/Graphics/SVG/1.1/DTD/svg11.dtd">
<svg version="1.1" id="Ebene_1" xmlns="http://www.w3.org/2000/svg" xmlns:xlink="http://www.w3.org/1999/xlink" x="0px" y="0px"
	 width="52px" height="44px" viewBox="0 0 52 44" enable-background="new 0 0 52 44" xml:space="preserve">
<g>
	<path fill="#1A171B" d="M13.881,12.957l-3.21-2.353l3.979-0.021l1.248-3.779l1.248,3.781l3.984,0.016l-3.213,2.355l1.215,3.796
		l-3.234-2.33l-3.235,2.332L13.881,12.957L13.881,12.957z M18.203,15.473l-0.865-2.704l2.291-1.682l-2.841-0.012l-0.89-2.698
		l-0.891,2.698l-2.84,0.014l2.291,1.68l-0.865,2.704l2.305-1.658L18.203,15.473L18.203,15.473z"/>
	<polygon fill-rule="evenodd" clip-rule="evenodd" fill="#FFF7CC" points="18.301,15.605 16.013,13.961 15.931,13.902 
		15.784,13.961 13.498,15.605 14.359,12.925 14.39,12.827 14.289,12.704 12.015,11.039 14.832,11.025 14.933,11.025 15.017,10.893 
		15.898,8.219 16.781,10.893 16.812,10.988 16.969,11.025 19.781,11.039 17.51,12.704 17.427,12.764 17.441,12.925 18.301,15.605 	
		"/>
	<path fill="#E3E7F3" stroke="#1A171B" stroke-width="0.828" d="M31.57,18.422H20.413c-1.54,0-2.776,1.247-2.776,2.785
		l-0.008,13.059h3.386V23.393h0.653v10.873h8.634V23.393h0.653v10.873h3.387l0.004-13.059C34.345,19.669,33.106,18.422,31.57,18.422
		z"/>
	<path fill="#1A171B" d="M34.756,34.68H17.213l0.01-13.474c0-1.764,1.431-3.199,3.19-3.199H31.57c1.758,0,3.189,1.435,3.189,3.199
		L34.756,34.68L34.756,34.68z"/>
	<path fill="#DBE5EF" d="M33.927,33.852l0.003-12.645c0-1.307-1.06-2.37-2.36-2.37H20.413c-1.302,0-2.362,1.063-2.362,2.37
		l-0.008,12.645h2.84V22.979h1.2v10.873h7.804V22.979h1.201v10.873H33.927z"/>
	<path fill="#1A171B" d="M25.984,17.403c-2.443,0-4.432-1.988-4.432-4.433c0-2.444,1.988-4.432,4.432-4.432s4.432,1.988,4.432,4.432
		C30.416,15.415,28.427,17.403,25.984,17.403L25.984,17.403z"/>
	<path fill="#FFF7CC" d="M25.984,9.368c-1.986,0-3.603,1.616-3.603,3.603c0,1.987,1.616,3.604,3.603,3.604s3.602-1.617,3.602-3.604
		C29.586,10.984,27.97,9.368,25.984,9.368L25.984,9.368z"/>
</g>
</svg>
