<?xml version="1.0" encoding="utf-8"?>
<!-- Generator: Adobe Illustrator 14.0.0, SVG Export Plug-In . SVG Version: 6.00 Build 43363)  -->
<!DOCTYPE svg PUBLIC "-//W3C//DTD SVG 1.1//EN" "http://www.w3.org/Graphics/SVG/1.1/DTD/svg11.dtd">
<svg version="1.1" id="Ebene_1" xmlns="http://www.w3.org/2000/svg" xmlns:xlink="http://www.w3.org/1999/xlink" x="0px" y="0px"
	 width="52px" height="44px" viewBox="0 0 52 44" enable-background="new 0 0 52 44" xml:space="preserve">
<polygon fill="#FFF7CC" points="26.474,10.052 43.053,10.052 43.053,19.877 26.474,19.877 26.474,10.052 "/>
<path fill-rule="evenodd" clip-rule="evenodd" d="M31.464,17.403v-0.715H29.32v0.715H31.464z M28.605,16.688h0.715v-2.862h-0.715
	V16.688z M31.464,14.541h0.715v-0.715h-0.715V14.541z M32.179,15.973h-0.715v0.715h0.715V15.973z M29.32,13.11v0.716h2.145V13.11
	H29.32z M35.045,13.11h-0.717v1.431H32.9v0.715h1.428v1.432h0.717v-1.432h1.43v-0.715h-1.43V13.11z M39.336,14.541V13.11h-0.717
	v1.431h-1.43v0.715h1.43v1.432h0.717v-1.432h1.432v-0.715H39.336z"/>
<polygon fill="none" points="26.474,10.052 43.053,10.052 43.053,19.877 26.474,19.877 26.474,10.052 "/>
<g>
	<defs>
		<polygon id="SVGID_1_" points="26.474,10.052 43.053,10.052 43.053,19.877 26.474,19.877 26.474,10.052 		"/>
	</defs>
	<clipPath id="SVGID_2_">
		<use xlink:href="#SVGID_1_"  overflow="visible"/>
	</clipPath>
	<use xlink:href="#SVGID_1_"  overflow="visible" fill="none" stroke="#000000" stroke-width="0.82"/>
</g>
<g>
	<path fill="#E3E7F3" stroke="#000000" stroke-width="0.828" d="M25.955,19.057H14.797c-1.54,0-2.776,1.247-2.776,2.785L12.013,34.9
		h3.386v-0.414h0.653V34.9h8.634v-0.414h0.653V34.9h3.387l0.004-13.059C28.73,20.304,27.491,19.057,25.955,19.057z"/>
	<path d="M29.14,35.314H11.597l0.01-13.474c0-1.764,1.431-3.199,3.19-3.199h11.157c1.758,0,3.189,1.435,3.189,3.199L29.14,35.314
		L29.14,35.314z"/>
	<path fill="#DBE5EF" d="M28.312,34.486l0.003-12.645c0-1.307-1.06-2.37-2.36-2.37H14.797c-1.302,0-2.362,1.063-2.362,2.37
		l-0.008,12.645h2.84l0,0h1.2l0,0h7.804l0,0h1.201l0,0H28.312z"/>
	<path d="M20.369,18.038c-2.443,0-4.432-1.988-4.432-4.433c0-2.444,1.988-4.432,4.432-4.432s4.432,1.988,4.432,4.432
		C24.8,16.05,22.812,18.038,20.369,18.038L20.369,18.038z"/>
	<path fill="#FFF7CC" d="M20.369,10.003c-1.986,0-3.603,1.616-3.603,3.603c0,1.987,1.616,3.604,3.603,3.604s3.602-1.617,3.602-3.604
		C23.97,11.619,22.355,10.003,20.369,10.003L20.369,10.003z"/>
</g>
</svg>
