<?xml version="1.0" encoding="utf-8"?>
<!-- Generator: Adobe Illustrator 14.0.0, SVG Export Plug-In . SVG Version: 6.00 Build 43363)  -->
<!DOCTYPE svg PUBLIC "-//W3C//DTD SVG 1.1//EN" "http://www.w3.org/Graphics/SVG/1.1/DTD/svg11.dtd">
<svg version="1.1" id="Ebene_1" xmlns="http://www.w3.org/2000/svg" xmlns:xlink="http://www.w3.org/1999/xlink" x="0px" y="0px"
	 width="52px" height="44px" viewBox="0 0 52 44" enable-background="new 0 0 52 44" xml:space="preserve">
<path d="M41.386,12.644c0-0.405-0.258-0.746-0.623-0.879v-0.065c-0.01-0.57-0.457-1.019-1.027-1.029h-4.91
	c-0.574,0.011-1.02,0.458-1.031,1.028h-6.021c-0.441,0.019-0.791,0.319-0.908,0.732c-0.465,0.103-0.812,0.489-0.826,0.988v7.372
	c0.014,0.571,0.463,1.021,1.033,1.031h12.664c0.57-0.011,1.018-0.46,1.027-1.031v-0.868l0.621-7.192
	C41.384,12.697,41.386,12.676,41.386,12.644z"/>
<path d="M41.386,12.644c0-0.405-0.258-0.746-0.623-0.879v-0.065c-0.01-0.57-0.457-1.019-1.027-1.029h-4.91
	c-0.574,0.011-1.02,0.458-1.031,1.028h-6.021c-0.441,0.019-0.791,0.319-0.908,0.732c-0.465,0.103-0.812,0.489-0.826,0.988v7.372
	c0.014,0.571,0.463,1.021,1.033,1.031h12.664c0.57-0.011,1.018-0.46,1.027-1.031v-0.868l0.621-7.192
	C41.384,12.697,41.386,12.676,41.386,12.644z"/>
<path d="M41.386,12.644c0-0.396-0.248-0.728-0.601-0.867V11.7c0-0.568-0.481-1.048-1.05-1.048h-4.91
	c-0.566,0-1.046,0.479-1.048,1.046h-6.005c-0.435,0.019-0.777,0.311-0.899,0.713c-0.473,0.099-0.848,0.508-0.848,1.006v7.373
	c0,0.568,0.479,1.048,1.046,1.048h12.664c0.568,0,1.05-0.48,1.05-1.048v-1.129l0.599-6.932
	C41.384,12.697,41.386,12.676,41.386,12.644z"/>
<path fill="#FFF7CC" d="M34.192,12.784V11.7c0-0.336,0.293-0.634,0.633-0.634h4.91c0.336,0,0.635,0.297,0.635,0.634v1.492v1.362
	v6.236c0,0.336-0.299,0.633-0.635,0.633H27.071c-0.338,0-0.631-0.297-0.631-0.633v-7.373c0-0.338,0.293-0.633,0.631-0.633
	L34.192,12.784z"/>
<g>
	<g>
		<path d="M39.735,21.838H27.071c-0.566,0-1.046-0.48-1.046-1.048v-7.373c0-0.568,0.479-1.048,1.046-1.048l6.706,0V11.7
			c0-0.568,0.48-1.048,1.048-1.048h4.91c0.568,0,1.05,0.48,1.05,1.048v9.09C40.785,21.358,40.304,21.838,39.735,21.838
			L39.735,21.838z M34.825,11.48c-0.108,0-0.218,0.111-0.218,0.219v1.499l-7.536,0c-0.109,0-0.216,0.108-0.216,0.219v7.373
			c0,0.108,0.108,0.219,0.216,0.219h12.664c0.107,0,0.22-0.112,0.22-0.219V11.7c0-0.106-0.112-0.219-0.22-0.219H34.825L34.825,11.48
			z"/>
	</g>
</g>
<g>
	<defs>
		<path id="SVGID_1_" d="M41.386,12.644c0-0.405-0.258-0.746-0.623-0.879v-0.065c-0.01-0.57-0.457-1.019-1.027-1.029h-4.91
			c-0.574,0.011-1.02,0.458-1.031,1.028h-6.021c-0.441,0.019-0.791,0.319-0.908,0.732c-0.465,0.103-0.812,0.489-0.826,0.988v7.372
			c0.014,0.571,0.463,1.021,1.033,1.031h12.664c0.57-0.011,1.018-0.46,1.027-1.031v-0.868l0.621-7.192
			C41.384,12.697,41.386,12.676,41.386,12.644z"/>
	</defs>
	<clipPath id="SVGID_2_">
		<use xlink:href="#SVGID_1_"  overflow="visible"/>
	</clipPath>
</g>
<g>
	<defs>
		<path id="SVGID_3_" d="M41.386,12.644c0-0.405-0.258-0.746-0.623-0.879v-0.065c-0.01-0.57-0.457-1.019-1.027-1.029h-4.91
			c-0.574,0.011-1.02,0.458-1.031,1.028h-6.021c-0.441,0.019-0.791,0.319-0.908,0.732c-0.465,0.103-0.812,0.489-0.826,0.988v7.372
			c0.014,0.571,0.463,1.021,1.033,1.031h12.664c0.57-0.011,1.018-0.46,1.027-1.031v-0.868l0.621-7.192
			C41.384,12.697,41.386,12.676,41.386,12.644z"/>
	</defs>
	<clipPath id="SVGID_4_">
		<use xlink:href="#SVGID_3_"  overflow="visible"/>
	</clipPath>
</g>
<g>
	<path fill="#E3E7F3" stroke="#000000" stroke-width="0.828" d="M26.288,18.724H15.131c-1.54,0-2.776,1.247-2.776,2.785
		l-0.008,13.059h3.386v-0.414h0.653v0.414h8.634v-0.414h0.653v0.414h3.387l0.004-13.059C29.063,19.971,27.824,18.724,26.288,18.724z
		"/>
	<path d="M29.474,34.981H11.931l0.01-13.474c0-1.764,1.431-3.199,3.19-3.199h11.157c1.758,0,3.189,1.435,3.189,3.199L29.474,34.981
		L29.474,34.981z"/>
	<path fill="#DBE5EF" d="M28.646,34.153l0.003-12.645c0-1.307-1.06-2.37-2.36-2.37H15.131c-1.302,0-2.362,1.063-2.362,2.37
		l-0.008,12.645h2.84l0,0h1.2l0,0h7.804l0,0h1.201l0,0H28.646z"/>
	<path d="M20.702,17.705c-2.443,0-4.432-1.988-4.432-4.433c0-2.444,1.988-4.432,4.432-4.432s4.432,1.988,4.432,4.432
		C25.134,15.717,23.146,17.705,20.702,17.705L20.702,17.705z"/>
	<path fill="#FFF7CC" d="M20.702,9.67c-1.986,0-3.603,1.616-3.603,3.603c0,1.987,1.616,3.604,3.603,3.604s3.602-1.617,3.602-3.604
		C24.304,11.286,22.688,9.67,20.702,9.67L20.702,9.67z"/>
</g>
</svg>
