<?xml version="1.0" encoding="utf-8"?>
<!-- Generator: Adobe Illustrator 14.0.0, SVG Export Plug-In . SVG Version: 6.00 Build 43363)  -->
<!DOCTYPE svg PUBLIC "-//W3C//DTD SVG 1.1//EN" "http://www.w3.org/Graphics/SVG/1.1/DTD/svg11.dtd">
<svg version="1.1" id="Ebene_1" xmlns="http://www.w3.org/2000/svg" xmlns:xlink="http://www.w3.org/1999/xlink" x="0px" y="0px"
	 width="52px" height="44px" viewBox="0 0 52 44" enable-background="new 0 0 52 44" xml:space="preserve">
<path fill-rule="evenodd" clip-rule="evenodd" fill="#FFF7CC" d="M41.99,15.085h-1.088c-0.131-0.519-0.336-1.01-0.604-1.457
	l0.771-0.771c0.125-0.126,0.125-0.35,0-0.476l-1.43-1.43c-0.129-0.127-0.352-0.127-0.477,0l-0.771,0.769
	c-0.447-0.268-0.904-0.46-1.424-0.591l-0.033-0.042v-1.058c0-0.18-0.158-0.338-0.336-0.338h-2.021c-0.178,0-0.34,0.158-0.34,0.338
	v1.087c-0.516,0.131-1.006,0.336-1.454,0.604l-0.771-0.769c-0.125-0.127-0.35-0.127-0.477,0l-1.432,1.43
	c-0.123,0.126-0.123,0.35,0,0.476l0.771,0.771c-0.266,0.446-0.463,0.905-0.592,1.424l-0.039,0.033h-1.061
	c-0.18,0-0.336,0.158-0.336,0.337v2.022c0,0.18,0.156,0.337,0.336,0.337h1.088c0.129,0.519,0.338,1.009,0.604,1.457l-0.771,0.77
	c-0.123,0.126-0.123,0.351,0,0.477l1.432,1.43c0.127,0.126,0.352,0.126,0.477,0l0.771-0.77c0.447,0.268,0.905,0.459,1.424,0.591
	l0.029,0.043v1.058c0,0.179,0.162,0.336,0.34,0.336H36.6c0.178,0,0.336-0.157,0.336-0.336v-1.088c0.52-0.133,1.01-0.336,1.457-0.604
	l0.771,0.77c0.125,0.126,0.348,0.126,0.477,0l1.43-1.43c0.125-0.126,0.125-0.351,0-0.477l-0.771-0.77
	c0.268-0.448,0.463-0.906,0.594-1.425l0.039-0.032h1.059c0.182,0,0.34-0.157,0.34-0.337v-2.022
	C42.33,15.244,42.172,15.085,41.99,15.085z M35.588,20.013c-1.975,0-3.579-1.602-3.579-3.58c0-1.976,1.604-3.579,3.579-3.579
	c1.979,0,3.58,1.603,3.58,3.579C39.168,18.411,37.566,20.013,35.588,20.013z"/>
<g>
	<path d="M36.6,23.588h-2.021c-0.41,0-0.756-0.345-0.756-0.751V22.06c-0.336-0.104-0.657-0.236-0.967-0.398l-0.549,0.547
		c-0.27,0.272-0.787,0.275-1.062,0l-1.432-1.43c-0.283-0.29-0.283-0.773-0.003-1.06l0.553-0.552c-0.165-0.315-0.3-0.64-0.403-0.971
		h-0.773c-0.407,0-0.751-0.344-0.751-0.751v-2.022c0-0.407,0.344-0.751,0.751-0.751h0.775c0.101-0.333,0.233-0.654,0.401-0.971
		l-0.55-0.548c-0.282-0.29-0.282-0.773-0.003-1.059l1.435-1.434c0.275-0.274,0.79-0.276,1.065,0.002l0.546,0.544
		c0.311-0.163,0.634-0.297,0.967-0.402v-0.773c0-0.408,0.346-0.752,0.756-0.752H36.6c0.406,0,0.75,0.345,0.75,0.752v0.775
		c0.338,0.103,0.658,0.235,0.973,0.4l0.549-0.547c0.268-0.269,0.781-0.276,1.061-0.001l1.432,1.432c0.285,0.288,0.285,0.773,0,1.061
		l-0.549,0.55c0.162,0.31,0.297,0.634,0.4,0.971h0.775c0.408,0,0.754,0.344,0.754,0.751v2.022c0,0.407-0.346,0.751-0.754,0.751
		h-0.775c-0.102,0.335-0.234,0.656-0.4,0.971l0.549,0.548c0.285,0.289,0.285,0.774,0,1.062l-1.43,1.432
		c-0.285,0.281-0.791,0.275-1.064-0.002l-0.547-0.545c-0.309,0.161-0.635,0.295-0.973,0.401v0.774
		C37.35,23.243,37.006,23.588,36.6,23.588L36.6,23.588z M34.652,22.759h1.867v-1.331l0.312-0.08c0.48-0.123,0.934-0.311,1.348-0.558
		l0.275-0.167l0.947,0.943l1.318-1.32l-0.943-0.943l0.166-0.278c0.254-0.427,0.428-0.845,0.547-1.313l0.033-0.132l0.221-0.181
		l0.188-0.032h0.982V15.5h-1.336L40.5,15.187c-0.121-0.476-0.309-0.929-0.557-1.345l-0.168-0.278l0.945-0.944l-1.318-1.319
		l-0.945,0.942l-0.277-0.166c-0.422-0.252-0.84-0.425-1.312-0.545l-0.137-0.034l-0.178-0.224l-0.033-0.186v-0.981h-1.867v1.333
		L34.34,11.52c-0.473,0.12-0.924,0.308-1.342,0.558l-0.277,0.166l-0.945-0.942l-1.321,1.319l0.944,0.943l-0.165,0.277
		c-0.258,0.433-0.432,0.85-0.546,1.312l-0.032,0.131l-0.219,0.184l-0.19,0.033h-0.981v1.867h1.333l0.078,0.314
		c0.114,0.463,0.303,0.916,0.558,1.346l0.165,0.277l-0.944,0.942l1.321,1.32l0.946-0.943l0.276,0.167
		c0.418,0.25,0.834,0.423,1.313,0.545l0.152,0.038l0.16,0.235l0.029,0.171V22.759L34.652,22.759z M35.588,20.427
		c-2.202,0-3.994-1.792-3.994-3.994c0-2.202,1.792-3.994,3.994-3.994c2.203,0,3.994,1.792,3.994,3.994
		C39.582,18.636,37.791,20.427,35.588,20.427L35.588,20.427z M35.588,13.269c-1.744,0-3.164,1.419-3.164,3.165
		s1.419,3.165,3.164,3.165s3.164-1.42,3.164-3.165S37.332,13.269,35.588,13.269L35.588,13.269z"/>
</g>
<g>
	<path fill="#E3E7F3" stroke="#000000" stroke-width="0.828" d="M29.287,17.724H18.13c-1.54,0-2.776,1.247-2.776,2.785
		l-0.008,13.059h3.386v-0.414h0.654v0.414h8.633v-0.414h0.654v0.414h3.386l0.003-13.059C32.062,18.971,30.824,17.724,29.287,17.724z
		"/>
	<path d="M32.474,33.981H14.931l0.009-13.474c0-1.764,1.431-3.199,3.191-3.199h11.157c1.759,0,3.19,1.435,3.19,3.199L32.474,33.981
		L32.474,33.981z"/>
	<path fill="#DBE5EF" d="M31.645,33.153l0.003-12.645c0-1.307-1.059-2.37-2.361-2.37H18.13c-1.302,0-2.362,1.063-2.362,2.37
		l-0.008,12.645H18.6l0,0h1.2l0,0h7.804l0,0h1.2l0,0H31.645z"/>
	<path d="M23.702,16.705c-2.444,0-4.432-1.988-4.432-4.433c0-2.444,1.988-4.432,4.432-4.432c2.443,0,4.431,1.988,4.431,4.432
		C28.133,14.717,26.146,16.705,23.702,16.705L23.702,16.705z"/>
	<path fill="#FFF7CC" d="M23.702,8.67c-1.987,0-3.603,1.616-3.603,3.603c0,1.987,1.616,3.604,3.603,3.604
		c1.986,0,3.602-1.617,3.602-3.604C27.304,10.286,25.688,8.67,23.702,8.67L23.702,8.67z"/>
</g>
</svg>
