<?xml version="1.0" encoding="UTF-8" standalone="no"?>
<svg
   xmlns:dc="http://purl.org/dc/elements/1.1/"
   xmlns:cc="http://creativecommons.org/ns#"
   xmlns:rdf="http://www.w3.org/1999/02/22-rdf-syntax-ns#"
   xmlns:svg="http://www.w3.org/2000/svg"
   xmlns="http://www.w3.org/2000/svg"
   xmlns:sodipodi="http://sodipodi.sourceforge.net/DTD/sodipodi-0.dtd"
   xmlns:inkscape="http://www.inkscape.org/namespaces/inkscape"
   version="1.1"
   id="Ebene_1"
   x="0px"
   y="0px"
   width="34.556"
   height="26.684999"
   viewBox="0 0 34.556 26.684999"
   enable-background="new 0 0 52 44"
   xml:space="preserve"
   sodipodi:docname="Department_Low.svg"
   inkscape:version="1.0.1 (3bc2e813f5, 2020-09-07)"><metadata
   id="metadata66"><rdf:RDF><cc:Work
       rdf:about=""><dc:format>image/svg+xml</dc:format><dc:type
         rdf:resource="http://purl.org/dc/dcmitype/StillImage" /></cc:Work></rdf:RDF></metadata><defs
   id="defs47">
		
		
		
		
		
	</defs><sodipodi:namedview
   id="namedview45"
   pagecolor="#ffffff"
   bordercolor="#000000"
   borderopacity="0.25"
   inkscape:showpageshadow="2"
   inkscape:pageopacity="0.0"
   inkscape:pagecheckerboard="0"
   inkscape:deskcolor="#d1d1d1"
   showgrid="false"
   inkscape:zoom="16"
   inkscape:cx="14.75"
   inkscape:cy="13.75"
   inkscape:window-width="1920"
   inkscape:window-height="1001"
   inkscape:window-x="-9"
   inkscape:window-y="-9"
   inkscape:window-maximized="1"
   inkscape:current-layer="Ebene_1"
   inkscape:document-rotation="0" />

<polygon
   points="32.368,31.055 9.293,31.055 7.42,34.777 34.24,34.777 "
   id="polygon2"
   transform="translate(-7.42,-8.129)" /><polygon
   fill="#fff7cc"
   points="9.655,31.643 32.006,31.643 33.288,34.189 8.374,34.189 "
   id="polygon4"
   transform="translate(-7.42,-8.129)" /><polygon
   points="18.946,11.875 20.831,8.129 22.716,11.875 "
   id="polygon6"
   transform="translate(-7.42,-8.129)" /><polygon
   fill="#fff7cc"
   points="21.762,11.287 20.831,9.437 19.899,11.287 "
   id="polygon8"
   transform="translate(-7.42,-8.129)" /><polygon
   points="23.15,12.733 18.514,12.733 16.64,16.455 25.021,16.455 "
   id="polygon10"
   transform="translate(-7.42,-8.129)" /><polygon
   fill="#fff7cc"
   points="18.876,13.321 22.788,13.321 24.067,15.867 17.594,15.867 "
   id="polygon12"
   transform="translate(-7.42,-8.129)" /><polygon
   points="27.326,21.035 14.334,21.035 16.209,17.315 25.453,17.315 "
   id="polygon16"
   transform="translate(-7.42,-8.129)" /><polygon
   points="29.632,25.616 12.03,25.616 13.903,21.894 27.758,21.894 "
   id="polygon20"
   transform="translate(-7.42,-8.129)" /><polygon
   fill="#fff7cc"
   points="12.984,25.028 28.678,25.028 27.396,22.481 14.266,22.481 "
   id="polygon22"
   transform="translate(-7.42,-8.129)" /><polygon
   points="31.937,30.197 9.725,30.197 11.598,26.476 30.063,26.476 "
   id="polygon24"
   transform="translate(-7.42,-8.129)" /><g
   id="g38"
   transform="translate(-10)"><path
     d="M 44.553,26.685 H 27.01 l 0.009,-13.474 c 0,-1.764 1.431,-3.198 3.191,-3.198 h 11.157 c 1.758,0 3.189,1.435 3.189,3.199 z"
     id="path32" /><path
     fill="#dbe5ef"
     d="m 43.725,25.857 0.003,-12.645 c 0,-1.307 -1.06,-2.371 -2.36,-2.371 H 30.21 c -1.302,0 -2.362,1.064 -2.362,2.371 L 27.84,25.857 h 2.84 V 14.984 h 1.2 v 10.873 h 7.804 V 14.984 h 1.201 v 10.873 z"
     id="path34" /><path
     d="m 35.782,9.409 c -2.444,0 -4.432,-1.988 -4.432,-4.433 0,-2.444 1.988,-4.432 4.432,-4.432 2.443,0 4.431,1.988 4.431,4.432 0,2.445 -1.988,4.433 -4.431,4.433 z"
     id="path36" /><path
     fill="#fff7cc"
     d="m 35.782,1.374 c -1.987,0 -3.603,1.616 -3.603,3.603 0,1.987 1.616,3.604 3.603,3.604 1.986,0 3.601,-1.617 3.601,-3.604 0,-1.987 -1.615,-3.603 -3.601,-3.603 z"
     id="path38" /></g><path
   style="fill:#707173;fill-opacity:1;stroke-width:0.0093826"
   d="m 4.314941,21.416402 c -0.520102,-0.0036 -0.947511,-0.0084 -0.949797,-0.0107 -0.0075,-0.0075 0.162183,-0.355313 0.691666,-1.4174 l 0.522713,-1.048506 h 6.207 6.207 v 1.243195 1.243194 l -5.86647,-0.0016 c -3.226559,-8.92e-4 -6.292009,-0.0046 -6.812112,-0.0082 z"
   id="path762" /><path
   style="fill:#fff7cc;fill-opacity:1;stroke-width:0.0441942"
   d="M 8.534097,11.051271 9.15312,9.813835 h 4.25451 4.25451 l 0.233476,0.469455 0.233476,0.469456 -0.226436,0.226602 c -0.266475,0.266671 -0.576704,0.750649 -0.690572,1.077341 l -0.08087,0.232019 h -4.60807 -4.608071 z"
   id="path901" /></svg>
