<?xml version="1.0" encoding="UTF-8" standalone="no"?>
<svg
   xmlns:dc="http://purl.org/dc/elements/1.1/"
   xmlns:cc="http://creativecommons.org/ns#"
   xmlns:rdf="http://www.w3.org/1999/02/22-rdf-syntax-ns#"
   xmlns:svg="http://www.w3.org/2000/svg"
   xmlns="http://www.w3.org/2000/svg"
   xmlns:sodipodi="http://sodipodi.sourceforge.net/DTD/sodipodi-0.dtd"
   xmlns:inkscape="http://www.inkscape.org/namespaces/inkscape"
   version="1.1"
   id="Ebene_1"
   x="0px"
   y="0px"
   width="34.556"
   height="26.684999"
   viewBox="0 0 34.556 26.684999"
   enable-background="new 0 0 52 44"
   xml:space="preserve"
   sodipodi:docname="Department.svg"
   inkscape:version="1.0.1 (3bc2e813f5, 2020-09-07)"><metadata
   id="metadata49"><rdf:RDF><cc:Work
       rdf:about=""><dc:format>image/svg+xml</dc:format><dc:type
         rdf:resource="http://purl.org/dc/dcmitype/StillImage" /><dc:title></dc:title></cc:Work></rdf:RDF></metadata><defs
   id="defs47" /><sodipodi:namedview
   pagecolor="#ffffff"
   bordercolor="#666666"
   borderopacity="1"
   objecttolerance="10"
   gridtolerance="10"
   guidetolerance="10"
   inkscape:pageopacity="0"
   inkscape:pageshadow="2"
   inkscape:window-width="894"
   inkscape:window-height="967"
   id="namedview45"
   showgrid="false"
   fit-margin-top="0"
   fit-margin-left="0"
   fit-margin-right="0"
   fit-margin-bottom="0"
   inkscape:zoom="6.8139381"
   inkscape:cx="16.346235"
   inkscape:cy="46.56052"
   inkscape:window-x="0"
   inkscape:window-y="0"
   inkscape:window-maximized="0"
   inkscape:current-layer="Ebene_1" />
<g
   id="g42"
   transform="translate(-7.42,-8.129)">
	<polygon
   points="32.368,31.055 9.293,31.055 7.42,34.777 34.24,34.777 "
   id="polygon2" />
	<polygon
   fill="#fff7cc"
   points="9.655,31.643 32.006,31.643 33.288,34.189 8.374,34.189 "
   id="polygon4" />
	<polygon
   points="18.946,11.875 20.831,8.129 22.716,11.875 "
   id="polygon6" />
	<polygon
   fill="#fff7cc"
   points="21.762,11.287 20.831,9.437 19.899,11.287 "
   id="polygon8" />
	<polygon
   points="23.15,12.733 18.514,12.733 16.64,16.455 25.021,16.455 "
   id="polygon10" />
	<polygon
   fill="#fff7cc"
   points="18.876,13.321 22.788,13.321 24.067,15.867 17.594,15.867 "
   id="polygon12" />
	<polygon
   points="26.849,20.742 25.272,17.609 16.39,17.609 14.812,20.742 "
   id="polygon14" />
	<polygon
   points="27.326,21.035 14.334,21.035 16.209,17.315 25.453,17.315 "
   id="polygon16" />
	<polygon
   fill="#707173"
   points="15.289,20.447 26.372,20.447 25.091,17.903 16.571,17.903 "
   id="polygon18" />
	<polygon
   points="29.632,25.616 12.03,25.616 13.903,21.894 27.758,21.894 "
   id="polygon20" />
	<polygon
   fill="#fff7cc"
   points="12.984,25.028 28.678,25.028 27.396,22.481 14.266,22.481 "
   id="polygon22" />
	<polygon
   points="31.937,30.197 9.725,30.197 11.598,26.476 30.063,26.476 "
   id="polygon24" />
	<polygon
   fill="#fff7cc"
   points="10.679,29.609 30.982,29.609 29.701,27.063 11.96,27.063 "
   id="polygon26" />
	<circle
   fill="#e3e7f3"
   stroke="#000000"
   stroke-width="0.828"
   cx="33.202"
   cy="13.106"
   r="4.0180001"
   id="circle28" />
	<g
   id="g40">
		<path
   fill="#e3e7f3"
   stroke="#000000"
   stroke-width="0.828"
   d="M 38.787,18.557 H 27.63 c -1.54,0 -2.776,1.247 -2.776,2.785 L 24.845,34.4 h 3.386 V 23.527 h 0.654 V 34.4 h 8.633 V 23.527 h 0.653 V 34.4 h 3.387 l 0.004,-13.059 c 0,-1.537 -1.239,-2.784 -2.775,-2.784 z"
   id="path30" />
		<path
   d="M 41.973,34.814 H 24.43 L 24.439,21.34 c 0,-1.764 1.431,-3.198 3.191,-3.198 h 11.157 c 1.758,0 3.189,1.435 3.189,3.199 z"
   id="path32" />
		<path
   fill="#dbe5ef"
   d="m 41.145,33.986 0.003,-12.645 c 0,-1.307 -1.06,-2.371 -2.36,-2.371 H 27.63 c -1.302,0 -2.362,1.064 -2.362,2.371 L 25.26,33.986 H 28.1 V 23.113 h 1.2 v 10.873 h 7.804 V 23.113 h 1.201 v 10.873 z"
   id="path34" />
		<path
   d="m 33.202,17.538 c -2.444,0 -4.432,-1.988 -4.432,-4.433 0,-2.444 1.988,-4.432 4.432,-4.432 2.443,0 4.431,1.988 4.431,4.432 0,2.445 -1.988,4.433 -4.431,4.433 z"
   id="path36" />
		<path
   fill="#fff7cc"
   d="m 33.202,9.503 c -1.987,0 -3.603,1.616 -3.603,3.603 0,1.987 1.616,3.604 3.603,3.604 1.986,0 3.601,-1.617 3.601,-3.604 0,-1.987 -1.615,-3.603 -3.601,-3.603 z"
   id="path38" />
	</g>
</g>
</svg>
