<?xml version="1.0" encoding="UTF-8" standalone="no"?>
<!-- Generator: Adobe Illustrator 14.0.0, SVG Export Plug-In . SVG Version: 6.00 Build 43363)  -->

<svg
   version="1.1"
   id="Ebene_1"
   x="0px"
   y="0px"
   width="34.556"
   height="26.684999"
   viewBox="0 0 34.556 26.684999"
   enable-background="new 0 0 52 44"
   xml:space="preserve"
   sodipodi:docname="Department_Low.svg"
   inkscape:version="1.2.1 (9c6d41e410, 2022-07-14)"
   xmlns:inkscape="http://www.inkscape.org/namespaces/inkscape"
   xmlns:sodipodi="http://sodipodi.sourceforge.net/DTD/sodipodi-0.dtd"
   xmlns="http://www.w3.org/2000/svg"
   xmlns:svg="http://www.w3.org/2000/svg"><defs
   id="defs47">
	
	
	
	
	
	
	
	
	
	
	
	
	
	
	
</defs><sodipodi:namedview
   id="namedview45"
   pagecolor="#ffffff"
   bordercolor="#000000"
   borderopacity="0.25"
   inkscape:showpageshadow="2"
   inkscape:pageopacity="0.0"
   inkscape:pagecheckerboard="0"
   inkscape:deskcolor="#d1d1d1"
   showgrid="false"
   inkscape:zoom="16"
   inkscape:cx="14.75"
   inkscape:cy="13.75"
   inkscape:window-width="1920"
   inkscape:window-height="1009"
   inkscape:window-x="1912"
   inkscape:window-y="-8"
   inkscape:window-maximized="1"
   inkscape:current-layer="Ebene_1" />

<g
   id="total"
   transform="translate(-7.42,-8.129)"><polygon
     points="7.42,34.777 34.24,34.777 32.368,31.055 9.293,31.055 "
     id="polygon2" /><polygon
     fill="#fff7cc"
     points="33.288,34.189 8.374,34.189 9.655,31.643 32.006,31.643 "
     id="polygon4" /><polygon
     points="22.716,11.875 18.946,11.875 20.831,8.129 "
     id="polygon6" /><polygon
     fill="#fff7cc"
     points="19.899,11.287 21.762,11.287 20.831,9.437 "
     id="polygon8" /><polygon
     points="16.64,16.455 25.021,16.455 23.15,12.733 18.514,12.733 "
     id="polygon10" /><polygon
     fill="#fff7cc"
     points="24.067,15.867 17.594,15.867 18.876,13.321 22.788,13.321 "
     id="polygon12" /><polygon
     points="16.39,17.609 14.812,20.742 26.849,20.742 25.272,17.609 "
     id="polygon14" /><polygon
     points="16.209,17.315 25.453,17.315 27.326,21.035 14.334,21.035 "
     id="polygon16" /><polygon
     fill="#707173"
     points="25.091,17.903 16.571,17.903 15.289,20.447 26.372,20.447 "
     id="polygon18"
     style="fill:#707173;fill-opacity:1" /><polygon
     points="13.903,21.894 27.758,21.894 29.632,25.616 12.03,25.616 "
     id="polygon20" /><polygon
     fill="#fff7cc"
     points="27.396,22.481 14.266,22.481 12.984,25.028 28.678,25.028 "
     id="polygon22" /><polygon
     points="11.598,26.476 30.063,26.476 31.937,30.197 9.725,30.197 "
     id="polygon24" /><polygon
     fill="#fff7cc"
     points="29.701,27.063 11.96,27.063 10.679,29.609 30.982,29.609 "
     id="polygon26" /><circle
     fill="#e3e7f3"
     stroke="#000000"
     stroke-width="0.828"
     cx="33.202"
     cy="13.106"
     r="4.0180001"
     id="circle28" /><g
     id="g40">
		<path
   fill="#e3e7f3"
   stroke="#000000"
   stroke-width="0.828"
   d="M 38.787,18.557 H 27.63 c -1.54,0 -2.776,1.247 -2.776,2.785 L 24.845,34.4 h 3.386 V 23.527 h 0.654 V 34.4 h 8.633 V 23.527 h 0.653 V 34.4 h 3.387 l 0.004,-13.059 c 0,-1.537 -1.239,-2.784 -2.775,-2.784 z"
   id="path30" />
		<path
   d="M 41.973,34.814 H 24.43 L 24.439,21.34 c 0,-1.764 1.431,-3.198 3.191,-3.198 h 11.157 c 1.758,0 3.189,1.435 3.189,3.199 z"
   id="path32" />
		<path
   fill="#dbe5ef"
   d="m 41.145,33.986 0.003,-12.645 c 0,-1.307 -1.06,-2.371 -2.36,-2.371 H 27.63 c -1.302,0 -2.362,1.064 -2.362,2.371 L 25.26,33.986 H 28.1 V 23.113 h 1.2 v 10.873 h 7.804 V 23.113 h 1.201 v 10.873 z"
   id="path34" />
		<path
   d="m 33.202,17.538 c -2.444,0 -4.432,-1.988 -4.432,-4.433 0,-2.444 1.988,-4.432 4.432,-4.432 2.443,0 4.431,1.988 4.431,4.432 0,2.445 -1.988,4.433 -4.431,4.433 z"
   id="path36" />
		<path
   fill="#fff7cc"
   d="m 33.202,9.503 c -1.987,0 -3.603,1.616 -3.603,3.603 0,1.987 1.616,3.604 3.603,3.604 1.986,0 3.601,-1.617 3.601,-3.604 0,-1.987 -1.615,-3.603 -3.601,-3.603 z"
   id="path38" />
	</g><path
     style="fill:#707173;fill-opacity:1;stroke-width:0.053076"
     d="m 10.774427,29.536349 c 0,-0.01484 0.274768,-0.576118 0.610595,-1.247286 l 0.610595,-1.220305 h 6.209671 6.20967 v 1.247285 1.247286 h -6.820266 c -3.751146,0 -6.820265,-0.01214 -6.820265,-0.02698 z"
     id="path754" /><path
     style="fill:#707173;fill-opacity:1;stroke-width:0.0093826"
     d="m 10.832218,29.318276 c 0.07863,-0.156103 0.365441,-0.726096 0.637359,-1.266651 0.311827,-0.619892 0.499382,-0.982827 0.507899,-0.982827 0.0087,0 -0.164416,0.355832 -0.487303,1.001593 -0.591872,1.183722 -0.723745,1.455606 -0.711807,1.467544 0.01765,0.01765 2.60143,0.02609 8.064204,0.02636 l 5.580267,2.74e-4 0.0024,-1.250232 0.0024,-1.250231 0.0023,1.268996 0.0023,1.268997 H 17.56072 10.689203 Z"
     id="path756" /><path
     style="fill:#707173;fill-opacity:1;stroke-width:0.0093826"
     d="m 11.73488,29.545348 c -0.520137,-0.0036 -0.947546,-0.0085 -0.949798,-0.01071 -0.0074,-0.0074 0.161074,-0.352497 0.691692,-1.417226 l 0.522589,-1.048619 h 6.20708 6.20708 v 1.243195 1.243194 l -5.86647,-0.0016 c -3.226559,-8.88e-4 -6.292037,-0.0046 -6.812173,-0.0082 z"
     id="path758" /><path
     style="fill:#707173;fill-opacity:1;stroke-width:0.0093826"
     d="m 11.73488,29.545348 c -0.520137,-0.0036 -0.947546,-0.0085 -0.949798,-0.01071 -0.0074,-0.0074 0.162687,-0.355999 0.691735,-1.417339 l 0.52265,-1.048506 h 6.207028 6.207028 v 1.243195 1.243194 l -5.86647,-0.0016 c -3.226559,-8.88e-4 -6.292037,-0.0046 -6.812173,-0.0082 z"
     id="path760" /><path
     style="fill:#707173;fill-opacity:1;stroke-width:0.0093826"
     d="m 11.734941,29.545402 c -0.520102,-0.0036 -0.947511,-0.0084 -0.949797,-0.0107 -0.0075,-0.0075 0.162183,-0.355313 0.691666,-1.4174 l 0.522713,-1.048506 h 6.207 6.207 v 1.243195 1.243194 l -5.86647,-0.0016 c -3.226559,-8.92e-4 -6.292009,-0.0046 -6.812112,-0.0082 z"
     id="path762" /><path
     style="fill:#707173;fill-opacity:1;stroke-width:0.0093826"
     d=""
     id="path764" /><path
     style="fill:#707173;fill-opacity:1;stroke-width:0.0093826"
     d=""
     id="path766" /><path
     style="fill:#707173;fill-opacity:1;stroke-width:0.00390625"
     d="m 10.757101,29.47168 c 0.03637,-0.07144 0.161523,-0.319727 0.278113,-0.551758 0.654717,-1.302981 0.913312,-1.810671 0.916859,-1.800033 0.0028,0.0085 -0.229729,0.482104 -0.622614,1.26799 -0.373233,0.746578 -0.537512,1.084788 -0.549676,1.131652 -0.0032,0.01241 0.0026,7.66e-4 0.06148,-0.123047 0.09956,-0.209338 0.261773,-0.536972 0.702525,-1.418945 l 0.453372,-0.907227 h 2.724076 2.724075 v 1.246094 1.246094 l -0.438476,-8e-5 c -0.951052,-1.73e-4 -4.096557,-0.0077 -4.793945,-0.01154 -0.751724,-0.0041 -1.360847,-0.01015 -1.410157,-0.01402 -0.01939,-0.0015 -0.02553,-9.85e-4 -0.0211,0.0018 0.01022,0.0065 0.331996,0.01172 0.993755,0.01602 0.636765,0.0041 3.797161,0.01149 4.993164,0.01161 l 0.676757,6.9e-5 v 0.01758 0.01758 h -3.377171 -3.377172 z"
     id="path768" /><path
     style="fill:#707173;fill-opacity:1;stroke-width:0.00390625"
     d=""
     id="path770" /><path
     style="fill:#707173;fill-opacity:1;stroke-width:0.00390625"
     d="m 10.772695,29.44043 c 0.04498,-0.08862 0.174509,-0.345703 0.287846,-0.571289 0.197482,-0.39307 0.293479,-0.58362 0.534289,-1.060547 0.212573,-0.421003 0.354973,-0.695513 0.35725,-0.688682 0.0028,0.0085 -0.207174,0.436517 -0.617762,1.258994 -0.389099,0.77943 -0.513878,1.035085 -0.54922,1.12527 -0.01382,0.03526 -0.0025,0.01652 0.02253,-0.03738 0.08151,-0.175365 0.425271,-0.870408 0.882433,-1.78418 l 0.306337,-0.612305 h 2.724457 2.724457 v 1.246094 1.246094 l -0.440429,-7.9e-5 c -0.950709,-1.71e-4 -4.093378,-0.0077 -4.791992,-0.01155 -0.756509,-0.0041 -1.366974,-0.01016 -1.41211,-0.01397 -0.01797,-0.0015 -0.02357,-9.86e-4 -0.01914,0.0018 0.01026,0.0065 0.333637,0.01171 0.995708,0.016 0.639893,0.0041 3.799267,0.01149 4.991211,0.01161 l 0.676757,6.8e-5 v 0.01758 0.01758 H 14.068119 10.69092 Z"
     id="path772" /><path
     style="fill:#707173;fill-opacity:1;stroke-width:0.00390625"
     d="m 10.80787,29.370117 c 0.06431,-0.127295 0.190316,-0.377344 0.280017,-0.555664 0.66878,-1.329484 0.860555,-1.705455 0.864255,-1.694357 0.0029,0.0087 -0.144769,0.309964 -0.557611,1.137716 -0.403512,0.809044 -0.535208,1.077234 -0.591498,1.204537 -0.01222,0.02763 -0.02153,0.05092 -0.0207,0.05176 8.35e-4,8.36e-4 0.02138,-0.04023 0.04566,-0.09126 0.08772,-0.184357 0.353722,-0.721898 0.756773,-1.529297 l 0.410959,-0.823243 h 2.724791 2.724791 v 1.246094 1.246094 l -0.555664,-6.4e-5 c -0.955905,-1.11e-4 -3.884291,-0.0074 -4.668945,-0.01156 -0.76215,-0.0041 -1.380996,-0.01019 -1.419922,-0.01401 -0.01547,-0.0015 -0.01973,-9.93e-4 -0.0152,0.0019 0.02164,0.01375 1.426638,0.02132 4.885317,0.0263 l 1.774414,0.0026 v 0.01698 0.01698 h -3.377183 -3.377183 z"
     id="path774" /><path
     style="fill:#707173;fill-opacity:1;stroke-width:0.00390625"
     d=""
     id="path776" /><path
     style="fill:#707173;fill-opacity:1"
     d="m 10.829332,29.327148 c 0.07614,-0.150927 0.208312,-0.413281 0.293719,-0.583007 0.372913,-0.741075 0.514739,-1.02207 0.627953,-1.244141 0.114069,-0.223747 0.199418,-0.385063 0.201084,-0.380065 0.0029,0.0086 -0.146846,0.314702 -0.488621,0.999206 -0.481454,0.964249 -0.684426,1.379952 -0.677273,1.387105 9.25e-4,9.25e-4 0.0088,-0.01373 0.01759,-0.03256 0.07794,-0.167704 0.317415,-0.651983 0.814217,-1.646543 l 0.378055,-0.756836 h 2.724627 2.724626 v 1.246644 1.246644 l -1.631835,-0.0027 c -2.877958,-0.0047 -4.91546,-0.01434 -5.014649,-0.02377 -0.01652,-0.0016 -0.01772,-0.0013 -0.0078,0.0019 0.01789,0.0058 0.358889,0.01126 0.841797,0.01356 0.23955,0.0011 0.490039,0.0029 0.55664,0.004 0.0666,0.001 0.804004,0.0028 1.638672,0.004 0.834668,0.0012 1.54834,0.0029 1.585938,0.0038 0.0376,9.66e-4 0.510009,0.0018 1.049804,0.0019 l 0.981445,1.05e-4 v 0.01758 0.01758 h -3.377206 -3.377207 z"
     id="path778" /><path
     style="fill:#707173;fill-opacity:1;stroke-width:0.00390625"
     d="m 10.721149,29.541992 c 0.03081,-0.06161 0.459285,-0.912647 0.713416,-1.416992 0.352794,-0.700152 0.514515,-1.014087 0.517613,-1.004795 0.0029,0.0086 -0.164746,0.350239 -0.628984,1.282139 -0.364197,0.73108 -0.481334,0.97024 -0.524977,1.071848 -0.02487,0.05789 -0.01066,0.0336 0.02778,-0.04751 0.08502,-0.179367 0.330272,-0.675057 0.73923,-1.494069 l 0.430576,-0.862305 h 2.724753 2.724752 v 1.246085 1.246085 l -0.850585,9.95e-4 -0.850586,9.94e-4 0.850586,9.68e-4 0.850585,9.67e-4 v 0.01758 0.01758 h -3.376977 -3.376978 z m 4.762592,0.01857 c -0.0011,-0.0011 -0.402579,-0.0022 -0.892253,-0.0026 -1.361008,-9.54e-4 -3.002989,-0.0084 -3.663754,-0.0167 -0.10173,-0.0013 -0.114494,-9.45e-4 -0.06055,0.0015 0.120198,0.0056 0.933167,0.01248 1.814453,0.01544 1.041306,0.0035 2.804764,0.0049 2.8021,0.0023 z m -4.687924,-0.02386 c -0.0013,-0.0013 -0.0047,-0.0014 -0.0075,-3.08e-4 -0.0031,0.0012 -0.0022,0.0022 0.0024,0.0024 0.0041,1.7e-4 0.0064,-7.53e-4 0.0051,-0.0021 z"
     id="path780" /><path
     style="fill:#707173;fill-opacity:1;stroke-width:0.00390625"
     d="m 10.734851,29.514648 c 0.08757,-0.175045 0.8579,-1.704253 0.924356,-1.834961 0.165602,-0.325711 0.27528,-0.537209 0.288605,-0.556533 0.03545,-0.0514 -0.09901,0.224241 -0.598231,1.226455 -0.35462,0.711914 -0.518604,1.045776 -0.541059,1.101563 -0.0017,0.0043 -0.0078,0.01836 -0.01357,0.03125 -0.0057,0.01289 -0.0087,0.02168 -0.0066,0.01953 0.0021,-0.0021 0.02084,-0.03994 0.04169,-0.08398 0.08156,-0.172246 0.311197,-0.636222 0.729366,-1.473633 l 0.436452,-0.874024 h 2.724744 2.724744 v 1.246083 1.246082 l -0.65332,10e-4 -0.65332,9.99e-4 0.65332,9.65e-4 0.65332,9.65e-4 v 0.01758 0.01758 h -3.37697 -3.37697 z m 5.379407,0.049 c -0.0048,-9.31e-4 -0.01274,-9.31e-4 -0.01758,0 -0.0048,9.32e-4 -8.79e-4,0.0017 0.0088,0.0017 0.0097,0 0.01362,-7.61e-4 0.0088,-0.0017 z m -1.25293,-0.0038 c -1.375581,-0.0021 -3.505211,-0.01205 -3.914062,-0.01827 -0.08378,-0.0013 -0.09853,-9.13e-4 -0.05664,0.0014 0.169126,0.0093 2.019906,0.01849 3.605469,0.01794 0.47373,-1.63e-4 0.638086,-6.4e-4 0.365234,-0.0011 z"
     id="path782" /><path
     style="fill:#707173;fill-opacity:1;stroke-width:0.00390625"
     d="m 10.896741,29.192383 c 0.89267,-1.773769 1.051178,-2.084953 1.055463,-2.072098 0.0029,0.0087 -0.143179,0.307025 -0.567541,1.159012 -0.384006,0.770962 -0.511056,1.029128 -0.566884,1.151911 -0.04023,0.08848 -0.01812,0.0486 0.04148,-0.07481 0.112303,-0.232544 0.313884,-0.638995 0.725505,-1.462843 l 0.411317,-0.823243 h 2.724617 2.724616 v 1.24608 1.246079 l -0.508789,0.001 -0.508789,0.001 0.508789,9.61e-4 0.508789,9.62e-4 v 0.01758 0.01758 h -3.377247 -3.377248 z m 2.893441,0.367242 c -0.0112,-7.86e-4 -0.03054,-7.93e-4 -0.04297,-1.6e-5 -0.01243,7.78e-4 -0.0033,0.0014 0.02036,0.0014 0.02363,8e-6 0.0338,-6.27e-4 0.0226,-0.0014 z m 0.872904,-5.4e-5 c -0.156299,-5.66e-4 -0.412061,-5.66e-4 -0.568359,0 -0.156299,5.65e-4 -0.02842,0.001 0.284179,0.001 0.312598,0 0.440479,-4.63e-4 0.28418,-0.001 z m -1.80957,-0.0052 c -0.39961,-0.0016 -0.992572,-0.0049 -1.317693,-0.0075 -0.325122,-0.0025 -0.591941,-0.0038 -0.592931,-0.0028 -0.0054,0.0054 1.194378,0.01311 2.047342,0.01315 l 0.589844,3.2e-5 -0.726562,-0.0029 z m 0.756889,0.0014 c -0.0048,-9.27e-4 -0.01359,-9.51e-4 -0.01953,-5.3e-5 -0.0059,8.98e-4 -0.002,0.0017 0.0087,0.0017 0.01074,3.1e-5 0.0156,-7.06e-4 0.0108,-0.0016 z m -2.705219,-0.01573 c -0.0081,-8.46e-4 -0.02041,-8.31e-4 -0.02734,3.1e-5 -0.0069,8.63e-4 -3.04e-4,0.0016 0.01473,0.0015 0.01504,-1.6e-5 0.02071,-7.24e-4 0.01261,-0.0016 z m -0.109065,-0.05389 c -0.0012,-0.0012 -0.0034,9.65e-4 -0.0049,0.0048 -0.0021,0.0056 -0.0017,0.006 0.0022,0.0022 0.0027,-0.0026 0.0039,-0.0058 0.0027,-0.007 z"
     id="path784" /><path
     style="fill:#707173;fill-opacity:1;stroke-width:0.00390625"
     d="m 10.696478,29.59082 c 0.0043,-0.0098 0.182022,-0.363188 0.566308,-1.125976 0.469542,-0.932015 0.661263,-1.30754 0.684986,-1.34169 0.03454,-0.04972 -0.09125,0.208852 -0.539647,1.109268 -0.401106,0.805453 -0.530833,1.068948 -0.588314,1.194954 -0.04146,0.09089 -0.0215,0.05546 0.03557,-0.06313 0.104315,-0.216778 0.285832,-0.582828 0.71379,-1.439443 l 0.426897,-0.854493 h 2.724625 2.724624 v 1.246075 1.246074 l -0.37207,0.001 -0.37207,10e-4 0.37207,9.57e-4 0.37207,9.56e-4 v 0.01758 0.01758 h -3.376764 -3.376765 z m 3.854991,-0.03125 c -0.08019,-5.9e-4 -0.210266,-5.9e-4 -0.289062,10e-7 -0.0788,5.91e-4 -0.01319,0.0011 0.145796,0.0011 0.158984,-1e-6 0.223454,-4.84e-4 0.143266,-0.0011 z m -1.360063,-0.0037 c -0.478992,-0.0016 -1.786258,-0.0091 -2.007812,-0.01151 -0.125684,-0.0014 -0.227637,-0.0016 -0.226563,-4.42e-4 0.0052,0.0054 1.22305,0.0134 1.988282,0.013 0.265332,-1.39e-4 0.376074,-6.1e-4 0.246093,-0.001 z m -2.293945,-0.01563 c -0.0038,-9.82e-4 -0.0099,-9.82e-4 -0.01367,0 -0.0038,9.83e-4 -6.84e-4,0.0018 0.0068,0.0018 0.0075,0 0.0106,-8.03e-4 0.0068,-0.0018 z"
     id="path786" /><path
     style="fill:#707173;fill-opacity:1;stroke-width:0.00390625"
     d="m 10.692057,29.598361 c 0.0012,-0.0029 0.259081,-0.515266 0.598096,-1.188205 0.488079,-0.968829 0.658383,-1.300875 0.661861,-1.290444 0.0032,0.0097 -0.121013,0.263419 -0.6385,1.304116 -0.342673,0.689136 -0.440581,0.888102 -0.48993,0.995624 -0.03976,0.08662 -0.02266,0.0575 0.02789,-0.04751 0.103578,-0.215163 0.375073,-0.762651 0.751523,-1.515493 l 0.393096,-0.786133 h 2.724607 2.724607 v 1.246068 1.246067 l -0.27246,0.001 -0.272461,10e-4 0.272461,9.5e-4 0.27246,9.49e-4 v 0.01758 0.01758 h -3.377278 c -1.857503,0 -3.376693,-0.0014 -3.375977,-0.0032 z m 3.732748,-0.03876 c -0.0145,-7.51e-4 -0.03823,-7.51e-4 -0.05273,0 -0.0145,7.52e-4 -0.0026,0.0014 0.02637,0.0014 0.029,0 0.04087,-6.15e-4 0.02637,-0.0014 z m -1.369141,-0.0039 c -0.09722,-5.81e-4 -0.256299,-5.81e-4 -0.353516,0 -0.09722,5.82e-4 -0.01767,0.0011 0.176758,0.0011 0.194434,0 0.273975,-4.75e-4 0.176758,-0.0011 z m -0.614583,-0.0024 c -8.95e-4,-7.92e-4 -0.269694,-0.0022 -0.597331,-0.0031 -0.327637,-9.22e-4 -0.491113,-6.93e-4 -0.363281,5.1e-4 0.289365,0.0027 0.962808,0.0046 0.960612,0.0026 z m -1.2797,-0.0093 c -0.03478,-6.47e-4 -0.09278,-6.48e-4 -0.128906,-3e-6 -0.03612,6.45e-4 -0.0077,0.0012 0.06323,0.0012 0.0709,1e-6 0.100454,-5.27e-4 0.06568,-0.0012 z"
     id="path788" /><path
     style="fill:#707173;fill-opacity:1;stroke-width:0.00390625"
     d="m 10.691406,29.599411 c 0,-0.0012 0.01911,-0.03942 0.04246,-0.08496 0.02335,-0.04555 0.132559,-0.262106 0.24268,-0.481247 0.712409,-1.417701 0.971407,-1.92567 0.975531,-1.913297 0.0031,0.0093 -0.117537,0.256502 -0.51067,1.04611 -0.460388,0.92469 -0.652342,1.316478 -0.637311,1.300781 0.0021,-0.0021 0.02568,-0.04961 0.05249,-0.105469 0.09683,-0.201734 0.341405,-0.694876 0.73666,-1.485351 l 0.402851,-0.805665 h 2.724607 2.724607 v 1.246054 1.246054 l -0.176757,0.0011 -0.176758,0.0011 0.176758,9.36e-4 0.176757,9.35e-4 v 0.01758 0.01758 h -3.376953 c -1.857324,0 -3.376953,-9.68e-4 -3.376953,-0.0022 z m 2.290039,-0.04374 c -0.0564,-6.1e-4 -0.148681,-6.1e-4 -0.205078,0 -0.0564,6.1e-4 -0.01025,0.0011 0.102539,0.0011 0.112793,0 0.158936,-4.99e-4 0.102539,-0.0011 z m -0.761718,-0.0039 c -0.08648,-5.86e-4 -0.227979,-5.86e-4 -0.314454,0 -0.08647,5.87e-4 -0.01572,0.0011 0.157227,0.0011 0.172949,0 0.243701,-4.8e-4 0.157227,-0.0011 z m -0.601319,-0.0039 c -0.03263,-6.53e-4 -0.08712,-6.54e-4 -0.121094,-3e-6 -0.03397,6.51e-4 -0.0073,0.0012 0.05933,0.0012 0.0666,2e-6 0.0944,-5.31e-4 0.06177,-0.0012 z m -0.486572,-0.0039 c -0.02095,-7.02e-4 -0.05523,-7.02e-4 -0.07617,0 -0.02095,7.02e-4 -0.0038,0.0013 0.03809,0.0013 0.0419,0 0.05903,-5.75e-4 0.03809,-0.0013 z"
     id="path790" /><path
     style="fill:#707173;fill-opacity:1;stroke-width:0.00390625"
     d="m 10.691406,29.600016 c 0,-0.0031 0.945562,-1.878871 1.059606,-2.101969 0.146978,-0.287522 0.198792,-0.384963 0.20107,-0.37813 0.0017,0.0051 -0.03196,0.078 -0.1025,0.22188 -0.02949,0.06016 -0.06815,0.139258 -0.0859,0.175781 -0.01776,0.03652 -0.152202,0.307227 -0.298769,0.601563 -0.431096,0.865724 -0.651065,1.313193 -0.647365,1.316893 7.08e-4,7.08e-4 0.053,-0.104581 0.116206,-0.233975 0.06321,-0.129394 0.328033,-0.661971 0.588505,-1.183504 l 0.473586,-0.948243 h 2.724736 2.724735 v 1.246039 1.246038 l -0.12207,0.0011 -0.12207,0.0011 0.12207,9.18e-4 0.12207,9.19e-4 v 0.01758 0.01758 h -3.376953 c -1.857324,0 -3.376953,-6.96e-4 -3.376953,-0.0015 z m 2.235352,-0.04433 c -0.01772,-7.24e-4 -0.04673,-7.24e-4 -0.06445,0 -0.01772,7.23e-4 -0.0032,0.0013 0.03223,0.0013 0.03545,0 0.04995,-5.93e-4 0.03223,-0.0013 z m -0.773169,-0.0039 c -0.0498,-6.18e-4 -0.13242,-6.18e-4 -0.183593,-1e-6 -0.05117,6.17e-4 -0.01043,0.0011 0.09055,0.0011 0.100976,1e-6 0.142846,-5.04e-4 0.09304,-0.0011 z m -0.574487,-0.0039 c -0.01773,-7.24e-4 -0.04673,-7.24e-4 -0.06445,0 -0.01772,7.24e-4 -0.0032,0.0013 0.03223,0.0013 0.03545,0 0.04995,-5.92e-4 0.03223,-0.0013 z m -0.46875,-0.0039 c -0.01128,-7.89e-4 -0.02974,-7.89e-4 -0.04102,0 -0.01128,7.89e-4 -0.0021,0.0014 0.02051,0.0014 0.02256,0 0.03179,-6.46e-4 0.02051,-0.0014 z m -0.293946,-0.10008 c 0,-0.005 -0.0018,-0.0027 -0.0075,0.0092 -0.0044,0.0092 -0.0043,0.0093 0.0014,0.0022 0.0033,-0.0042 0.0061,-0.0093 0.0061,-0.01139 z"
     id="path792" /><path
     style="fill:#707173;fill-opacity:1;stroke-width:0.00390625"
     d="m 10.691406,29.59939 c 0,-0.0012 0.04199,-0.08513 0.09331,-0.186524 0.05132,-0.101393 0.22909,-0.454175 0.395049,-0.78396 0.534141,-1.061422 0.75396,-1.492422 0.769911,-1.50957 0.0221,-0.02376 -0.07416,0.175062 -0.461344,0.95293 -0.450668,0.905405 -0.67045,1.352384 -0.666779,1.356055 7.85e-4,7.85e-4 0.01687,-0.03067 0.03575,-0.06989 0.0881,-0.183095 0.893247,-1.800873 1.127587,-2.265656 l 0.01132,-0.02246 h 2.724553 2.724553 v 1.246018 1.246018 l -0.08496,0.0011 -0.08496,0.0011 0.08496,8.96e-4 0.08496,8.96e-4 v 0.01758 0.01758 h -3.376953 c -1.857324,0 -3.376953,-9.77e-4 -3.376953,-0.0022 z m 1.422621,-0.04762 c -0.02859,-6.68e-4 -0.0743,-6.66e-4 -0.101562,4e-6 -0.02727,6.71e-4 -0.0039,0.0012 0.05199,0.0012 0.05586,-2e-6 0.07817,-5.5e-4 0.04957,-0.0012 z m -0.552504,-0.0038 c -0.0081,-8.43e-4 -0.02124,-8.43e-4 -0.0293,0 -0.0081,8.42e-4 -0.0015,0.0015 0.01465,0.0015 0.01611,0 0.02271,-6.9e-4 0.01465,-0.0015 z m -0.46289,-0.0038 c -0.0048,-9.31e-4 -0.01274,-9.31e-4 -0.01758,0 -0.0048,9.31e-4 -8.79e-4,0.0017 0.0088,0.0017 0.0097,0 0.01362,-7.62e-4 0.0088,-0.0017 z"
     id="path794" /><path
     style="fill:#707173;fill-opacity:1;stroke-width:0.00390625"
     d="m 10.691406,29.599265 c 0,-0.0013 0.0499,-0.101019 0.110893,-0.22168 0.06099,-0.12066 0.24052,-0.476901 0.398951,-0.791648 0.576097,-1.144493 0.746851,-1.477961 0.750773,-1.466196 0.0034,0.01011 -0.09999,0.221736 -0.567279,1.161509 -0.192825,0.387793 -0.373403,0.75166 -0.401284,0.808594 -0.0912,0.186228 -0.159646,0.329022 -0.158341,0.330327 7.04e-4,7.04e-4 0.04867,-0.09574 0.106583,-0.214329 0.05792,-0.118584 0.276368,-0.558381 0.485447,-0.977326 0.209079,-0.418946 0.424434,-0.85085 0.478567,-0.959788 l 0.09843,-0.198069 2.725586,-1.73e-4 2.725585,-1.74e-4 v 1.245984 1.245984 l -0.05371,0.0012 -0.05371,0.0012 0.05371,8.56e-4 0.05371,8.57e-4 v 0.01758 0.01758 h -3.376953 c -1.857324,0 -3.376953,-10e-4 -3.376953,-0.0023 z m 1.391602,-0.04746 c -0.01128,-7.89e-4 -0.02974,-7.89e-4 -0.04102,0 -0.01128,7.89e-4 -0.0021,0.0014 0.02051,0.0014 0.02256,0 0.03179,-6.45e-4 0.02051,-0.0014 z"
     id="path796" /><path
     style="fill:#707173;fill-opacity:1;stroke-width:0.00390625"
     d="m 10.691406,29.599419 c 0,-0.0012 0.117085,-0.234529 0.260188,-0.518555 0.143103,-0.284026 0.327928,-0.650884 0.410722,-0.815239 0.373027,-0.740497 0.573632,-1.132067 0.587255,-1.146289 0.02272,-0.02372 -0.05809,0.142669 -0.54531,1.122851 -0.358166,0.720546 -0.549871,1.109598 -0.547784,1.111686 6.95e-4,6.94e-4 0.05523,-0.108086 0.121183,-0.241735 0.06596,-0.133649 0.321601,-0.647734 0.568099,-1.142411 l 0.448178,-0.899415 h 2.725688 2.725687 v 1.245953 1.245952 l -0.03809,0.0013 -0.03809,0.0013 0.03809,8.18e-4 0.03809,8.17e-4 v 0.01758 0.01758 h -3.376953 c -1.857324,0 -3.376953,-9.64e-4 -3.376953,-0.0021 z m 0.163684,-0.238091 c 0,-0.0021 -0.006,0.0075 -0.01329,0.02148 -0.0073,0.01396 -0.01329,0.02715 -0.01329,0.0293 0,0.0021 0.006,-0.0075 0.01329,-0.02148 0.0073,-0.01396 0.01329,-0.02715 0.01329,-0.0293 z"
     id="path798" /><path
     style="fill:#707173;fill-opacity:1;stroke-width:0.00390625"
     d="m 10.691406,29.599229 c 0,-0.002 0.167437,-0.334927 0.696324,-1.384385 0.358977,-0.712311 0.548009,-1.08087 0.561879,-1.095508 0.02291,-0.02417 -0.05706,0.140651 -0.525812,1.083789 -0.354691,0.713646 -0.561502,1.133128 -0.559593,1.135038 6.51e-4,6.5e-4 0.05165,-0.101098 0.113343,-0.226107 0.06169,-0.12501 0.315548,-0.635542 0.564134,-1.134517 l 0.451976,-0.907227 h 2.725827 2.725828 v 1.245923 1.245923 l -0.02832,0.0013 -0.02832,0.0013 0.02832,7.76e-4 0.02832,7.76e-4 v 0.01758 0.01758 h -3.376953 c -1.857324,0 -3.376953,-10e-4 -3.376953,-0.0023 z m 0.150588,-0.208992 c 0.0056,-0.01096 0.0094,-0.02057 0.0086,-0.02138 -8e-4,-8e-4 -0.0062,0.0082 -0.01194,0.01992 -0.0058,0.01176 -0.0097,0.02137 -0.0086,0.02137 10e-4,0 0.0064,-0.009 0.01194,-0.01992 z"
     id="path800" /><path
     style="fill:#707173;fill-opacity:1;stroke-width:0.00390625"
     d="m 10.691406,29.599231 c 0,-0.0047 0.93434,-1.85774 1.085039,-2.151965 0.134352,-0.262308 0.173201,-0.334655 0.175693,-0.32718 0.0029,0.0088 -0.09211,0.205218 -0.362302,0.749055 -0.42213,0.849647 -0.660284,1.331244 -0.658965,1.332563 7.84e-4,7.84e-4 0.05335,-0.103604 0.116822,-0.231975 0.06347,-0.12837 0.302239,-0.608254 0.530601,-1.066409 l 0.415205,-0.833008 h 2.725906 2.725907 v 1.24589 1.24589 l -0.02051,0.0014 -0.02051,0.0014 0.02051,7.23e-4 0.02051,7.22e-4 v 0.01758 0.01758 h -3.376953 c -1.857324,0 -3.376953,-10e-4 -3.376953,-0.0023 z m 0.152067,-0.214465 c 0,-0.0021 -0.0025,4.88e-4 -0.0056,0.0059 -0.0031,0.0054 -0.0056,0.01152 -0.0056,0.01367 0,0.0021 0.0025,-4.88e-4 0.0056,-0.0059 0.0031,-0.0054 0.0056,-0.01152 0.0056,-0.01367 z m 0.078,-0.160157 c 0,-0.0021 -0.01124,0.01807 -0.02499,0.04492 -0.01374,0.02686 -0.02498,0.05059 -0.02498,0.05273 0,0.0021 0.01124,-0.01807 0.02498,-0.04492 0.01374,-0.02686 0.02499,-0.05059 0.02499,-0.05273 z"
     id="path802" /><path
     style="fill:#707173;fill-opacity:1;stroke-width:0.00390625"
     d="m 10.691406,29.599103 c 0,-0.0048 0.929517,-1.848264 1.088928,-2.15965 0.135621,-0.264916 0.169165,-0.327283 0.171793,-0.3194 0.0036,0.01073 -0.108234,0.239349 -0.648945,1.326857 -0.123815,0.249023 -0.224579,0.453308 -0.22392,0.453967 6.59e-4,6.58e-4 0.206632,-0.410949 0.457719,-0.914684 l 0.456522,-0.915881 h 2.725904 2.725905 v 1.245858 1.245858 l -0.01465,0.0015 -0.01465,0.0015 0.01465,6.57e-4 0.01465,6.56e-4 v 0.01758 0.01758 h -3.376953 c -1.857324,0 -3.376953,-0.0011 -3.376953,-0.0025 z m 0.147683,-0.206628 c -0.0012,-0.0012 -0.0034,9.65e-4 -0.0049,0.0048 -0.0021,0.0056 -0.0017,0.006 0.0022,0.0022 0.0027,-0.0026 0.0039,-0.0058 0.0027,-0.007 z m 0.07458,-0.152241 c 0,-0.0021 -0.0086,0.01279 -0.01913,0.0332 -0.01052,0.02041 -0.01913,0.03887 -0.01913,0.04102 0,0.0021 0.0086,-0.01279 0.01913,-0.0332 0.01052,-0.02041 0.01913,-0.03887 0.01913,-0.04102 z m 0.152318,-0.308593 c 0,-0.0021 -0.02706,0.04971 -0.06013,0.115234 -0.03307,0.06553 -0.06012,0.120898 -0.06012,0.123047 0,0.0021 0.02706,-0.04971 0.06012,-0.115235 0.03307,-0.06553 0.06013,-0.120898 0.06013,-0.123046 z"
     id="path804" /><path
     style="fill:#707173;fill-opacity:1;stroke-width:0.00390625"
     d="m 10.691406,29.599053 c 0,-0.0054 0.925881,-1.841634 1.094837,-2.171319 0.12985,-0.253378 0.163297,-0.315442 0.165857,-0.307762 0.0034,0.01024 -0.07303,0.167233 -0.505405,1.037896 -0.187685,0.37794 -0.340771,0.68764 -0.340189,0.688221 5.81e-4,5.81e-4 0.200388,-0.398731 0.444016,-0.88736 l 0.442961,-0.888417 h 2.725915 2.725914 v 1.245835 1.245834 l -0.01074,0.0016 -0.01074,0.0016 0.01074,5.85e-4 c 0.01004,5.47e-4 0.01074,0.0017 0.01074,0.01816 v 0.01758 h -3.376953 c -1.857324,0 -3.376953,-0.0011 -3.376953,-0.0025 z m 0.218364,-0.351006 c 0,-0.0021 -0.0069,0.0093 -0.01524,0.02539 -0.0084,0.01611 -0.01524,0.03105 -0.01524,0.0332 0,0.0021 0.0069,-0.0093 0.01524,-0.02539 0.0084,-0.01611 0.01524,-0.03105 0.01524,-0.0332 z m 0.144497,-0.292969 c 0,-0.0021 -0.02266,0.04092 -0.05036,0.0957 -0.0277,0.05478 -0.05036,0.101367 -0.05036,0.103516 0,0.0021 0.02266,-0.04092 0.05036,-0.0957 0.0277,-0.05478 0.05036,-0.101367 0.05036,-0.103516 z"
     id="path806" /><path
     style="fill:#707173;fill-opacity:1;stroke-width:0.00390625"
     d="m 10.691406,29.599002 c 0,-0.0054 0.929517,-1.848995 1.098685,-2.17908 0.12452,-0.242966 0.159448,-0.307633 0.162009,-0.29995 0.0032,0.0096 -0.07722,0.175937 -0.3667,0.758606 -0.115723,0.232925 -0.209913,0.423992 -0.209311,0.424594 6.02e-4,6.02e-4 0.139905,-0.276545 0.309563,-0.615882 l 0.308469,-0.616978 h 2.725596 2.725595 v 1.245823 1.245822 l -0.0088,0.0017 -0.0088,0.0017 0.0088,5.32e-4 c 0.0077,4.68e-4 0.0088,0.0026 0.0088,0.01811 v 0.01758 h -3.376953 c -1.857324,0 -3.376953,-0.0012 -3.376953,-0.0026 z m 0.203318,-0.318131 c 0.0045,-0.0088 0.0075,-0.01667 0.0067,-0.01749 -8.19e-4,-8.19e-4 -0.0053,0.0064 -0.01,0.016 -0.01065,0.02191 -0.0078,0.02321 0.0033,0.0015 z m 0.147828,-0.302355 c 0,-0.0021 -0.01827,0.03213 -0.0406,0.07617 -0.02233,0.04404 -0.0406,0.08184 -0.0406,0.08398 0,0.0021 0.01827,-0.03213 0.0406,-0.07617 0.02233,-0.04404 0.0406,-0.08184 0.0406,-0.08398 z m 0.269522,-0.542969 c 0,-0.0021 -0.03848,0.07256 -0.08551,0.166015 -0.04703,0.09346 -0.08551,0.17168 -0.08551,0.173829 0,0.0021 0.03848,-0.07256 0.08551,-0.166016 0.04703,-0.09346 0.08551,-0.17168 0.08551,-0.173828 z m 0.0075,-0.01573 c -0.0012,-0.0012 -0.0034,9.65e-4 -0.0049,0.0048 -0.0021,0.0056 -0.0017,0.006 0.0022,0.0022 0.0027,-0.0026 0.0039,-0.0058 0.0027,-0.007 z"
     id="path808" /><path
     style="fill:#707173;fill-opacity:1;stroke-width:0.00390625"
     d="m 10.691406,29.598833 c 0,-0.0056 0.935914,-1.861687 1.102607,-2.186724 0.12445,-0.242667 0.155464,-0.300007 0.158057,-0.292227 0.0032,0.0097 -0.07112,0.163831 -0.349085,0.723539 -0.108208,0.217886 -0.196249,0.396649 -0.195646,0.397251 6.02e-4,6.02e-4 0.132874,-0.262482 0.293938,-0.584632 l 0.292843,-0.585728 h 2.725596 2.725596 v 1.245808 c 0,1.183198 -3.43e-4,1.245897 -0.0068,1.247594 -0.0065,0.0017 -0.0065,0.0018 0,0.0022 0.0054,3.6e-4 0.0068,0.0041 0.0068,0.01803 v 0.01758 h -3.376953 c -1.857324,0 -3.376953,-0.0012 -3.376953,-0.0027 z m 0.207032,-0.326793 c 0,-0.005 -0.0018,-0.0027 -0.0075,0.0092 -0.0044,0.0092 -0.0043,0.0093 0.0014,0.0022 0.0033,-0.0042 0.0061,-0.0093 0.0061,-0.01139 z m 0.132401,-0.270087 c 0,-0.0021 -0.01388,0.02334 -0.03084,0.05664 -0.01696,0.0333 -0.03084,0.0623 -0.03084,0.06445 0,0.0021 0.01388,-0.02334 0.03084,-0.05664 0.01696,-0.0333 0.03084,-0.0623 0.03084,-0.06445 z m 0.2578,-0.519531 c 0,-0.0021 -0.03057,0.05674 -0.06794,0.130859 -0.03736,0.07412 -0.06794,0.136524 -0.06794,0.138672 0,0.0021 0.03057,-0.05674 0.06794,-0.130859 0.03736,-0.07412 0.06794,-0.136524 0.06794,-0.138672 z"
     id="path810" /><path
     style="fill:#707173;fill-opacity:1;stroke-width:0.00390625"
     d="m 10.691406,29.599591 c 0,-0.0067 0.910015,-1.812177 1.108483,-2.1992 0.117288,-0.228718 0.149595,-0.288268 0.152181,-0.280509 0.0032,0.0096 -0.07065,0.162888 -0.331499,0.688383 -0.100693,0.202846 -0.182585,0.369305 -0.181982,0.369907 6.03e-4,6.03e-4 0.125843,-0.248419 0.278313,-0.553382 l 0.277217,-0.554478 h 2.725597 2.725596 v 1.245769 c 0,0.992959 -9.91e-4,1.246168 -0.0049,1.247738 -0.0039,0.0016 -0.0039,0.002 0,0.0023 0.0031,1.98e-4 0.0049,0.0066 0.0049,0.01789 v 0.01758 h -3.376953 c -1.857324,0 -3.376953,-8.87e-4 -3.376953,-0.002 z m 0.310755,-0.537506 c 0.01411,-0.02816 0.02504,-0.05181 0.02429,-0.05256 -7.51e-4,-7.51e-4 -0.01315,0.02229 -0.02756,0.0512 -0.01441,0.02891 -0.02534,0.05256 -0.02429,0.05256 10e-4,0 0.01345,-0.02304 0.02756,-0.0512 z m 0.216801,-0.437509 c 0.02592,-0.0518 0.04652,-0.09478 0.04578,-0.09551 -7.36e-4,-7.36e-4 -0.02281,0.04164 -0.04905,0.09417 -0.02624,0.05253 -0.04684,0.09551 -0.04578,0.09551 0.0011,0 0.02313,-0.04238 0.04904,-0.09417 z"
     id="path812" /><path
     style="fill:#707173;fill-opacity:1;stroke-width:0.00390625"
     d="m 10.691406,29.598966 c 0,-0.0048 0.749375,-1.492939 1.006839,-1.999357 0.196015,-0.38555 0.250754,-0.48894 0.253886,-0.479543 0.0031,0.0094 -0.06615,0.153431 -0.317906,0.660855 -0.09531,0.192105 -0.172801,0.349774 -0.172198,0.350377 6.03e-4,6.03e-4 0.12057,-0.237872 0.266593,-0.529945 l 0.265498,-0.531041 h 2.725597 2.725597 v 1.245769 c 0,0.992959 -9.91e-4,1.246168 -0.0049,1.247738 -0.0039,0.0016 -0.0039,0.002 0,0.0023 0.0031,1.98e-4 0.0049,0.0066 0.0049,0.01789 v 0.01758 h -3.376953 c -1.857324,0 -3.376953,-0.0012 -3.376953,-0.0026 z m 0.308797,-0.532964 c 0.0088,-0.01741 0.01528,-0.03229 0.01451,-0.03306 -7.71e-4,-7.72e-4 -0.0088,0.01347 -0.0178,0.03165 -0.009,0.01818 -0.01555,0.03306 -0.01451,0.03306 10e-4,0 0.009,-0.01424 0.0178,-0.03165 z m 0.190449,-0.388371 c -0.0012,-0.0012 -0.0034,9.65e-4 -0.0049,0.0048 -0.0021,0.0056 -0.0017,0.006 0.0022,0.0022 0.0027,-0.0026 0.0039,-0.0058 0.0027,-0.007 z m 0.03026,-0.05695 c 0.01411,-0.02816 0.02504,-0.05181 0.02429,-0.05256 -7.51e-4,-7.51e-4 -0.01315,0.02229 -0.02756,0.0512 -0.01441,0.02891 -0.02534,0.05256 -0.02429,0.05256 10e-4,0 0.01345,-0.02304 0.02756,-0.0512 z"
     id="path814" /><path
     style="fill:#707173;fill-opacity:1;stroke-width:0.00390625"
     d="m 10.691406,29.599595 c 0,-0.0059 0.709191,-1.414648 1.01668,-2.019517 0.186335,-0.366544 0.240911,-0.469416 0.244045,-0.460012 0.0031,0.0093 -0.06655,0.154323 -0.302258,0.629605 -0.08888,0.179214 -0.161105,0.326336 -0.160502,0.32694 6.03e-4,6.03e-4 0.114418,-0.225568 0.252921,-0.502601 l 0.251824,-0.503698 h 2.725598 2.725598 v 1.245769 c 0,0.992959 -9.91e-4,1.246168 -0.0049,1.247738 -0.0039,0.0016 -0.0039,0.002 0,0.0023 0.0031,1.98e-4 0.0049,0.0066 0.0049,0.01789 v 0.01758 h -3.376953 c -1.857324,0 -3.376953,-8.85e-4 -3.376953,-0.002 z m 0.310735,-0.537458 c 0.0034,-0.0066 0.0056,-0.01278 0.0047,-0.01362 -8.47e-4,-8.47e-4 -0.0045,0.0046 -0.008,0.01208 -0.008,0.01685 -0.0053,0.01813 0.0033,0.0015 z m 0.208042,-0.423568 c -0.0012,-0.0012 -0.0034,9.65e-4 -0.0049,0.0048 -0.0021,0.0056 -0.0017,0.006 0.0022,0.0022 0.0027,-0.0026 0.0039,-0.0058 0.0027,-0.007 z m 0.01172,-0.02344 c -0.0012,-0.0012 -0.0034,9.65e-4 -0.0049,0.0048 -0.0021,0.0056 -0.0017,0.006 0.0022,0.0022 0.0027,-0.0026 0.0039,-0.0058 0.0027,-0.007 z"
     id="path816" /><path
     style="fill:#707173;fill-opacity:1;stroke-width:0.00390625"
     d="m 10.691406,29.598958 c 0,-0.0053 0.757453,-1.509571 1.020522,-2.026692 0.183728,-0.361159 0.237068,-0.461606 0.240174,-0.452288 0.0031,0.0094 -0.06088,0.142987 -0.288566,0.602349 -0.0835,0.168471 -0.151326,0.30681 -0.150717,0.307419 6.09e-4,6.09e-4 0.109136,-0.215015 0.241171,-0.479163 l 0.240063,-0.480271 h 2.725641 2.725641 l -3.9e-5,1.265625 -3.9e-5,1.265625 h -3.37693 c -1.857302,0 -3.376921,-0.0012 -3.376921,-0.0026 z m 0.311746,-0.542421 c -0.0012,-0.0012 -0.0034,9.66e-4 -0.0049,0.0048 -0.0021,0.0056 -0.0017,0.006 0.0022,0.0022 0.0027,-0.0027 0.0039,-0.0058 0.0027,-0.007 z"
     id="path818" /><path
     style="fill:#707173;fill-opacity:1;stroke-width:0.00390625"
     d="m 10.691406,29.598961 c 0,-0.0053 0.775826,-1.546189 1.02832,-2.04232 0.177093,-0.347973 0.229263,-0.446003 0.232381,-0.43665 0.0031,0.0093 -0.0598,0.140938 -0.274887,0.574992 -0.08029,0.162025 -0.145457,0.295113 -0.14482,0.295751 6.38e-4,6.37e-4 0.104698,-0.206197 0.231246,-0.459632 l 0.230088,-0.46079 h 2.725789 2.725789 v 1.265625 1.265625 h -3.376953 c -1.857324,0 -3.376953,-0.0012 -3.376953,-0.0026 z"
     id="path820" /><path
     style="fill:#707173;fill-opacity:1;stroke-width:0.00390625"
     d="m 10.691406,29.599601 c 0,-0.0051 0.530473,-1.06033 0.889515,-1.769523 0.261222,-0.515975 0.349453,-0.686242 0.366376,-0.707031 0.0062,-0.0076 0.0063,-0.0075 0.0041,0.0026 -0.0044,0.02079 -0.156976,0.336284 -0.326532,0.675283 -0.03648,0.07294 -0.06531,0.132618 -0.06407,0.132618 0.0012,0 0.0989,-0.194239 0.217003,-0.431641 l 0.21474,-0.431641 h 2.726368 2.726367 v 1.265625 1.265625 H 14.06832 c -1.857324,0 -3.376953,-8.82e-4 -3.376953,-0.002 z m 0.866433,-1.660251 c -0.0012,-0.0012 -0.0034,9.65e-4 -0.0049,0.0048 -0.0021,0.0056 -0.0017,0.006 0.0022,0.0022 0.0027,-0.0026 0.0039,-0.0058 0.0027,-0.007 z"
     id="path822" /><path
     style="fill:#707173;fill-opacity:1;stroke-width:0.00390625"
     d="m 11.945313,27.15418 c 0,-0.0089 0.03773,-0.08773 0.04202,-0.08775 0.0029,-1.2e-5 -0.0039,0.0177 -0.01705,0.04392 -0.02281,0.04565 -0.02498,0.04944 -0.02498,0.04383 z"
     id="path824" /><path
     style="fill:#707173;fill-opacity:1;stroke-width:0.00390625"
     d=""
     id="path826" /><path
     style="fill:#707173;fill-opacity:1;stroke-width:0.00390625"
     d=""
     id="path828" /><path
     style="fill:#fff7cc;fill-opacity:1;stroke-width:0.00390625"
     d=""
     id="path830" /><path
     style="fill:#fff7cc;fill-opacity:1;stroke-width:0.0441942"
     d="m 15.954097,19.180271 0.619023,-1.237436 h 4.25451 4.25451 l 0.233476,0.469455 0.233476,0.469456 -0.226436,0.226602 c -0.266475,0.266671 -0.576704,0.750649 -0.690572,1.077341 l -0.08087,0.232019 h -4.60807 -4.608071 z"
     id="path901" /></g></svg>
