<?xml version="1.0" encoding="utf-8"?>
<!-- Generator: Adobe Illustrator 14.0.0, SVG Export Plug-In . SVG Version: 6.00 Build 43363)  -->
<!DOCTYPE svg PUBLIC "-//W3C//DTD SVG 1.1//EN" "http://www.w3.org/Graphics/SVG/1.1/DTD/svg11.dtd">
<svg version="1.1" id="Ebene_1" xmlns="http://www.w3.org/2000/svg" xmlns:xlink="http://www.w3.org/1999/xlink" x="0px" y="0px"
	 width="52px" height="44px" viewBox="0 0 52 44" enable-background="new 0 0 52 44" xml:space="preserve">
<g>
	<rect x="17.598" y="17.764" fill="#DBE5EF" width="18.05" height="10.232"/>
	<path d="M26.524,18.741c4.461,0,8.076,3.615,8.076,8.076v0.32h-2.812v-0.32c0-2.908-2.355-5.263-5.264-5.263
		c-2.902,0-5.252,2.353-5.252,5.263v0.32h-2.811v-0.32C18.461,22.36,22.063,18.741,26.524,18.741z"/>
	<path fill="#FFFFFF" d="M26.524,19.383c-4,0-7.252,3.157-7.418,7.113h1.537c0.166-3.111,2.732-5.583,5.881-5.583
		c3.152,0,5.73,2.473,5.895,5.583h1.537C33.787,22.538,30.526,19.383,26.524,19.383z"/>
	<path fill="#707173" d="M31.381,23.461l1.289-0.834c0.758,1.11,1.224,2.438,1.285,3.87h-1.537
		C32.36,25.373,31.985,24.33,31.381,23.461z"/>
	<path d="M26.471,24.936l0.018-0.029l6.5-2.136l-5.758,3.507c-0.066,0.396-0.295,0.758-0.682,0.938
		c-0.623,0.287-1.359,0.016-1.646-0.605s-0.016-1.357,0.607-1.645C25.825,24.818,26.17,24.82,26.471,24.936z"/>
</g>
</svg>
