<?xml version="1.0" encoding="utf-8"?>
<!-- Generator: Adobe Illustrator 14.0.0, SVG Export Plug-In . SVG Version: 6.00 Build 43363)  -->
<!DOCTYPE svg PUBLIC "-//W3C//DTD SVG 1.1//EN" "http://www.w3.org/Graphics/SVG/1.1/DTD/svg11.dtd">
<svg version="1.1" id="Ebene_1" xmlns="http://www.w3.org/2000/svg" xmlns:xlink="http://www.w3.org/1999/xlink" x="0px" y="0px"
	 width="52px" height="44px" viewBox="0 0 52 44" enable-background="new 0 0 52 44" xml:space="preserve">
<g>
	<rect x="16.848" y="17.431" fill="#DBE5EF" width="18.051" height="10.232"/>
	<path d="M25.773,18.408c4.461,0,8.076,3.615,8.076,8.076v0.32h-2.812v-0.32c0-2.908-2.355-5.263-5.264-5.263
		c-2.902,0-5.252,2.353-5.252,5.263v0.32h-2.811v-0.32C17.711,22.027,21.312,18.408,25.773,18.408z"/>
	<path fill="#FFFFFF" d="M25.773,19.05c-4,0-7.252,3.157-7.418,7.113h1.537c0.166-3.112,2.732-5.583,5.881-5.583
		c3.152,0,5.73,2.474,5.895,5.583h1.537C33.037,22.205,29.775,19.05,25.773,19.05z"/>
	<path fill="#707173" d="M30.631,23.127l1.289-0.833c0.758,1.11,1.225,2.438,1.285,3.87h-1.537
		C31.609,25.04,31.234,23.997,30.631,23.127z"/>
	<path d="M26.615,24.899l0.02-0.029l-0.783-6.798l-0.773,6.699c-0.332,0.225-0.564,0.584-0.564,1.012c0,0.686,0.555,1.24,1.238,1.24
		c0.686,0,1.24-0.555,1.24-1.24C26.992,25.437,26.846,25.124,26.615,24.899z"/>
</g>
</svg>
