<?xml version="1.0" encoding="utf-8"?>
<!-- Generator: Adobe Illustrator 14.0.0, SVG Export Plug-In . SVG Version: 6.00 Build 43363)  -->
<!DOCTYPE svg PUBLIC "-//W3C//DTD SVG 1.1//EN" "http://www.w3.org/Graphics/SVG/1.1/DTD/svg11.dtd">
<svg version="1.1" id="Ebene_1" xmlns="http://www.w3.org/2000/svg" xmlns:xlink="http://www.w3.org/1999/xlink" x="0px" y="0px"
	 width="52px" height="44px" viewBox="0 0 52 44" enable-background="new 0 0 52 44" xml:space="preserve">
<g>
	<g>
		<circle fill="#FFF7CC" cx="10.76" cy="14.93" r="3.482"/>
		<path d="M10.76,18.826c-2.146,0-3.894-1.748-3.894-3.895c0-2.148,1.747-3.896,3.894-3.896c2.148,0,3.896,1.748,3.896,3.896
			C14.656,17.078,12.908,18.826,10.76,18.826L10.76,18.826z M10.76,11.862c-1.69,0-3.065,1.376-3.065,3.068
			c0,1.691,1.375,3.067,3.065,3.067c1.692,0,3.068-1.376,3.068-3.067C13.828,13.239,12.452,11.862,10.76,11.862L10.76,11.862z"/>
	</g>
	<g>
		<path fill="#E3E7F3" d="M15.601,19.538H5.933c-1.334,0-2.405,1.082-2.405,2.415L3.521,33.271h3.255v-9.423h0.243v9.423h7.48
			v-9.423h0.248v9.423h3.257l0.003-11.317C18.007,20.62,16.935,19.538,15.601,19.538z"/>
		<path d="M18.418,33.685H3.106l0.007-11.732c0-1.56,1.265-2.829,2.819-2.829h9.668c1.555,0,2.82,1.269,2.82,2.829L18.418,33.685
			L18.418,33.685z M15.161,32.856h2.429l0.003-10.903c0-1.104-0.894-2.001-1.992-2.001H5.933c-1.098,0-1.991,0.897-1.991,2.001
			L3.935,32.856h2.427v-9.423h1.071v9.423h6.652v-9.423h1.076V32.856L15.161,32.856z"/>
	</g>
	<g>
		<path fill="#E3E7F3" d="M31.245,19.538h-9.668c-1.332,0-2.406,1.082-2.406,2.415l-0.007,11.317h3.256v-9.423h0.246v9.423h7.48
			v-9.424h0.246v9.424h3.257l0.002-11.317C33.651,20.62,32.579,19.538,31.245,19.538z"/>
		<path d="M34.063,33.685H18.75l0.007-11.732c0-1.56,1.266-2.829,2.82-2.829h9.668c1.555,0,2.82,1.27,2.82,2.83L34.063,33.685
			L34.063,33.685z M30.807,32.856h2.429l0.002-10.903c0-1.104-0.894-2.001-1.992-2.001h-9.668c-1.099,0-1.992,0.897-1.992,2.001
			l-0.007,10.903h2.428v-9.423h1.074v9.423h6.652v-9.424h1.074V32.856L30.807,32.856z"/>
	</g>
	<g>
		<path fill="#FFF7CC" d="M26.404,18.412c1.926,0,3.481-1.559,3.481-3.481c0-1.924-1.556-3.482-3.481-3.482
			c-1.921,0-3.48,1.56-3.48,3.482C22.924,16.853,24.483,18.412,26.404,18.412z"/>
		<path d="M26.404,18.826c-2.147,0-3.895-1.748-3.895-3.895c0-2.148,1.747-3.896,3.895-3.896c2.148,0,3.896,1.748,3.896,3.896
			C30.3,17.078,28.553,18.826,26.404,18.826L26.404,18.826z M26.404,11.862c-1.69,0-3.066,1.376-3.066,3.068
			c0,1.691,1.376,3.067,3.066,3.067c1.691,0,3.067-1.376,3.067-3.067C29.472,13.239,28.096,11.862,26.404,11.862L26.404,11.862z"/>
	</g>
	<g>
		<path fill="#E3E7F3" d="M46.891,19.538h-9.667c-1.334,0-2.407,1.082-2.407,2.416L34.81,33.271h3.255v-9.424h0.247v9.424h7.479
			v-9.424h0.243v9.424h3.26l0.002-11.317C49.296,20.62,48.226,19.538,46.891,19.538z"/>
		<path d="M49.708,33.685H34.396l0.007-11.731c0-1.56,1.266-2.829,2.821-2.829h9.667c1.555,0,2.819,1.27,2.819,2.83L49.708,33.685
			L49.708,33.685z M46.448,32.856h2.432l0.002-10.903c0-1.104-0.894-2.001-1.991-2.001h-9.667c-1.099,0-1.993,0.898-1.993,2.001
			l-0.007,10.903h2.427v-9.424h1.075v9.424h6.651v-9.424h1.071V32.856L46.448,32.856z"/>
	</g>
	<g>
		<circle fill="#FFF7CC" cx="42.051" cy="14.93" r="3.482"/>
		<path d="M42.051,18.826c-2.147,0-3.895-1.748-3.895-3.895c0-2.148,1.747-3.896,3.895-3.896c2.148,0,3.896,1.748,3.896,3.896
			C45.947,17.078,44.199,18.826,42.051,18.826L42.051,18.826z M42.051,11.862c-1.69,0-3.066,1.376-3.066,3.068
			c0,1.691,1.376,3.067,3.066,3.067c1.692,0,3.068-1.376,3.068-3.067C45.119,13.239,43.743,11.862,42.051,11.862L42.051,11.862z"/>
	</g>
</g>
</svg>
