<?xml version="1.0" encoding="utf-8"?>
<!-- Generator: Adobe Illustrator 23.0.6, SVG Export Plug-In . SVG Version: 6.00 Build 0)  -->
<svg version="1.1" id="Ebene_2" xmlns="http://www.w3.org/2000/svg" xmlns:xlink="http://www.w3.org/1999/xlink" x="0px" y="0px"
	 viewBox="0 0 1327 1275" style="enable-background:new 0 0 1327 1275;" xml:space="preserve">
<style type="text/css">
	.st0{fill:#FFFFFF;}
	.st1{fill:#006699;}
	.st2{fill:#8F7155;}
	.st3{fill:#6631BA;}
	.st4{fill:#4FA500;}
	.st5{fill:#FF6A00;}
	.st6{fill:#9B1E3B;}
	.st7{fill:#E40050;}
	.st8{fill:#F7B100;}
	.st9{fill:#FFCE00;}
</style>
<rect x="205" y="178" class="st0" width="923" height="923"/>
<g>
	
		<rect x="545.12" y="524.94" transform="matrix(0.7071 0.7071 -0.7071 0.7071 653.8505 -282.6561)" class="st1" width="246" height="246"/>
	
		<rect x="746.65" y="727.17" transform="matrix(0.7071 0.7071 -0.7071 0.7071 855.8759 -365.9235)" class="st2" width="246" height="246"/>
	
		<rect x="342.18" y="322" transform="matrix(0.7071 0.7071 -0.7071 0.7071 450.9109 -198.5957)" class="st3" width="246" height="246"/>
	
		<rect x="344.3" y="725.76" transform="matrix(0.7071 0.7071 -0.7071 0.7071 737.0322 -81.8378)" class="st4" width="246" height="246"/>
	
		<rect x="545.83" y="927.99" transform="matrix(0.7071 0.7071 -0.7071 0.7071 939.0576 -165.1052)" class="st5" width="246" height="246"/>
	
		<rect x="141.36" y="522.82" transform="matrix(0.7071 0.7071 -0.7071 0.7071 534.0925 2.2226)" class="st6" width="246" height="246"/>
	
		<rect x="743.11" y="326.95" transform="matrix(0.7071 0.7071 -0.7071 0.7071 571.8404 -480.646)" class="st7" width="246" height="246"/>
	
		<rect x="944.64" y="529.18" transform="matrix(0.7071 0.7071 -0.7071 0.7071 773.8658 -563.9135)" class="st8" width="246" height="246"/>
	
		<rect x="540.17" y="124.01" transform="matrix(0.7071 0.7071 -0.7071 0.7071 368.9008 -396.5856)" class="st9" width="246" height="246"/>
</g>
</svg>
