<?xml version="1.0" encoding="UTF-8" standalone="no"?>
<svg
   xmlns:dc="http://purl.org/dc/elements/1.1/"
   xmlns:cc="http://creativecommons.org/ns#"
   xmlns:rdf="http://www.w3.org/1999/02/22-rdf-syntax-ns#"
   xmlns:svg="http://www.w3.org/2000/svg"
   xmlns="http://www.w3.org/2000/svg"
   xmlns:sodipodi="http://sodipodi.sourceforge.net/DTD/sodipodi-0.dtd"
   xmlns:inkscape="http://www.inkscape.org/namespaces/inkscape"
   viewBox="0 0 25.000001 24.999999"
   version="1.1"
   id="svg32"
   sodipodi:docname="BlackWhite.svg"
   inkscape:version="1.0.1 (3bc2e813f5, 2020-09-07)"
   width="25"
   height="25">
  <metadata
     id="metadata36">
    <rdf:RDF>
      <cc:Work
         rdf:about="">
        <dc:format>image/svg+xml</dc:format>
        <dc:type
           rdf:resource="http://purl.org/dc/dcmitype/StillImage" />
        <dc:title>Scanner</dc:title>
      </cc:Work>
    </rdf:RDF>
  </metadata>
  <sodipodi:namedview
     pagecolor="#ffffff"
     bordercolor="#666666"
     borderopacity="1"
     objecttolerance="10"
     gridtolerance="10"
     guidetolerance="10"
     inkscape:pageopacity="0"
     inkscape:pageshadow="2"
     inkscape:window-width="1920"
     inkscape:window-height="1001"
     id="namedview34"
     showgrid="false"
     inkscape:zoom="17.341513"
     inkscape:cx="26.349954"
     inkscape:cy="20.136846"
     inkscape:window-x="-9"
     inkscape:window-y="-9"
     inkscape:window-maximized="1"
     inkscape:current-layer="g928"
     inkscape:snap-bbox="true"
     inkscape:bbox-nodes="true"
     inkscape:document-rotation="0">
    <inkscape:grid
       type="xygrid"
       id="grid1040" />
  </sodipodi:namedview>
  <defs
     id="defs4">
    <style
       id="style2">.cls-1,.cls-2{fill:#d6e7f1;}.cls-1,.cls-3{stroke:#1d1d1b;stroke-linejoin:round;}.cls-1,.cls-3,.cls-5{stroke-width:0.82px;}.cls-3{fill:#fff;}.cls-4{fill:#1b181c;}.cls-5{fill:none;stroke:#9baab7;stroke-linecap:round;stroke-miterlimit:10;}</style>
  </defs>
  <title
     id="title6">Scanner</title>
  <g
     id="g928">
    <circle
       style="fill:#000000;stroke:none;stroke-width:0.819999;stroke-linecap:round;stroke-linejoin:round;paint-order:markers fill stroke"
       id="path1042"
       cx="6"
       cy="6"
       r="6" />
    <circle
       style="fill:#4d4d4d;stroke:none;stroke-width:0.819999;stroke-linecap:round;stroke-linejoin:round;paint-order:markers fill stroke"
       id="path1042-8"
       cx="19"
       cy="6"
       r="6" />
    <circle
       style="fill:#999999;stroke:none;stroke-width:0.819999;stroke-linecap:round;stroke-linejoin:round;paint-order:markers fill stroke"
       id="path1042-1"
       cx="6"
       cy="19"
       r="6" />
    <circle
       style="fill:#e6e6e6;stroke:none;stroke-width:0.819999;stroke-linecap:round;stroke-linejoin:round;paint-order:markers fill stroke"
       id="path1042-8-5"
       cx="19"
       cy="19"
       r="6" />
    <path
       id="path1042-9"
       style="fill:#000000;stroke:none;stroke-width:0.819999;stroke-linecap:round;stroke-linejoin:round;paint-order:markers fill stroke"
       d="m 19,0 a 6,6 0 0 0 -6,6 6,6 0 0 0 6,6 6,6 0 0 0 6,-6 6,6 0 0 0 -6,-6 z m 0,1 a 5,5 0 0 1 5,5 5,5 0 0 1 -5,5 5,5 0 0 1 -5,-5 5,5 0 0 1 5,-5 z" />
    <path
       id="path1042-9-3"
       style="fill:#000000;stroke:none;stroke-width:0.819999;stroke-linecap:round;stroke-linejoin:round;paint-order:markers fill stroke"
       d="m 6,13 a 6,6 0 0 0 -6,6 6,6 0 0 0 6,6 6,6 0 0 0 6,-6 6,6 0 0 0 -6,-6 z m 0,1 a 5,5 0 0 1 5,5 5,5 0 0 1 -5,5 5,5 0 0 1 -5,-5 5,5 0 0 1 5,-5 z" />
    <path
       id="path1042-9-6"
       style="fill:#000000;stroke:none;stroke-width:0.819999;stroke-linecap:round;stroke-linejoin:round;paint-order:markers fill stroke"
       d="m 19,13 a 6,6 0 0 0 -6,6 6,6 0 0 0 6,6 6,6 0 0 0 6,-6 6,6 0 0 0 -6,-6 z m 0,1 a 5,5 0 0 1 5,5 5,5 0 0 1 -5,5 5,5 0 0 1 -5,-5 5,5 0 0 1 5,-5 z" />
  </g>
</svg>
