<?xml version="1.0" encoding="UTF-8" standalone="no"?>
<svg
   xmlns:dc="http://purl.org/dc/elements/1.1/"
   xmlns:cc="http://creativecommons.org/ns#"
   xmlns:rdf="http://www.w3.org/1999/02/22-rdf-syntax-ns#"
   xmlns:svg="http://www.w3.org/2000/svg"
   xmlns="http://www.w3.org/2000/svg"
   xmlns:sodipodi="http://sodipodi.sourceforge.net/DTD/sodipodi-0.dtd"
   xmlns:inkscape="http://www.inkscape.org/namespaces/inkscape"
   viewBox="0 0 25.000001 24.999999"
   version="1.1"
   id="svg32"
   sodipodi:docname="Color2.svg"
   inkscape:version="1.0.1 (3bc2e813f5, 2020-09-07)"
   width="25"
   height="25">
  <path
     id="path1042-4-6-8"
     style="fill:#00ff00;fill-opacity:1;stroke:none;stroke-width:0.4;stroke-linecap:round;stroke-linejoin:round;stroke-miterlimit:4;stroke-dasharray:none;paint-order:markers fill stroke"
     d="m 16.499543,19.773429 a 8.4956789,8.4959993 30 0 1 -3.996294,3.484284 8.4956787,8.4959995 30.022366 0 1 -5.1262959,-6.773338 8.4956789,8.4959993 30 0 0 0.877778,0.581206 8.4956789,8.4959993 30 0 0 9.3716759,-0.58378 8.4956789,8.4959993 30 0 1 -1.072175,3.196904 8.4956789,8.4959993 30 0 1 -0.05469,0.09472 z" />
  <path
     id="path1042-4-7-3-3"
     style="fill:#ff00ff;fill-opacity:1;stroke:none;stroke-width:0.4;stroke-linecap:round;stroke-linejoin:round;stroke-miterlimit:4;stroke-dasharray:none;paint-order:markers fill stroke"
     d="M 20.814186,8.8162875 A 8.4956789,8.4959993 30 0 0 16.632073,2.5091392 8.4956789,8.4959993 30 0 0 5.0261931,5.6189254 8.4956789,8.4959993 30 0 0 3.9540191,8.8158293 8.4956789,8.4959993 30 0 1 12.386847,7.7644298 8.4956787,8.4959995 29.977634 0 1 20.814186,8.8162875 Z" />
  <path
     id="path1042-4-7-1"
     style="fill:#ffff00;fill-opacity:1;stroke:none;stroke-width:0.4;stroke-linecap:round;stroke-linejoin:round;stroke-miterlimit:4;stroke-dasharray:none;paint-order:markers fill stroke"
     d="M 20.907687,8.7617192 A 8.4959993,8.4956789 0 0 1 24.278781,15.53711 8.4959993,8.4956789 0 0 1 15.782687,24.03125 8.4959993,8.4956789 0 0 1 12.478,23.361329 8.4959993,8.4956789 0 0 0 17.604953,16.585938 8.4959995,8.4956787 0.022366 0 0 20.907687,8.7617192 Z" />
  <path
     id="path1042-4-6"
     style="fill:#ff0000;fill-opacity:1;stroke:none;stroke-width:0.4;stroke-linecap:round;stroke-linejoin:round;stroke-miterlimit:4;stroke-dasharray:none;paint-order:markers fill stroke"
     d="m 15.720704,6.918176 a 8.4959993,8.4956789 0 0 1 5.015625,1.71875 8.4959995,8.4956787 0.022366 0 1 -3.302735,7.826172 8.4959993,8.4956789 0 0 0 0.06445,-1.050781 8.4959993,8.4956789 0 0 0 -5.191406,-7.8242191 8.4959993,8.4956789 0 0 1 3.304688,-0.6699219 8.4959993,8.4956789 0 0 1 0.109375,0 z" />
  <path
     id="path1042-4"
     style="fill:#0000ff;fill-opacity:1;stroke:none;stroke-width:0.4;stroke-linecap:round;stroke-linejoin:round;stroke-miterlimit:4;stroke-dasharray:none;paint-order:markers fill stroke"
     d="M 9.0859375 6.9238281 A 8.4959993 8.4956789 0 0 0 4.0703125 8.6425781 A 8.4956787 8.4959995 89.977634 0 0 7.3730469 16.46875 A 8.4959993 8.4956789 0 0 1 7.3085938 15.417969 A 8.4959993 8.4956789 0 0 1 12.5 7.59375 A 8.4959993 8.4956789 0 0 0 9.1953125 6.9238281 A 8.4959993 8.4956789 0 0 0 9.0859375 6.9238281 z " />
  <path
     id="path1042-4-7-3"
     style="fill:#00ffff;fill-opacity:1;stroke:none;stroke-width:0.4;stroke-linecap:round;stroke-linejoin:round;stroke-miterlimit:4;stroke-dasharray:none;paint-order:markers fill stroke"
     d="M 4.0742188 8.6601562 A 8.4959993 8.4956789 0 0 0 0.703125 15.435547 A 8.4959993 8.4956789 0 0 0 9.1992188 23.931641 A 8.4959993 8.4956789 0 0 0 12.503906 23.261719 A 8.4959993 8.4956789 0 0 1 7.3769531 16.484375 A 8.4956787 8.4959995 89.977634 0 1 4.0742188 8.6601562 z " />
  <path
     id="path1235"
     style="color:#000000;font-style:normal;font-variant:normal;font-weight:normal;font-stretch:normal;font-size:medium;line-height:normal;font-family:sans-serif;font-variant-ligatures:normal;font-variant-position:normal;font-variant-caps:normal;font-variant-numeric:normal;font-variant-alternates:normal;font-variant-east-asian:normal;font-feature-settings:normal;font-variation-settings:normal;text-indent:0;text-align:start;text-decoration:none;text-decoration-line:none;text-decoration-style:solid;text-decoration-color:#000000;letter-spacing:normal;word-spacing:normal;text-transform:none;writing-mode:lr-tb;direction:ltr;text-orientation:mixed;dominant-baseline:auto;baseline-shift:baseline;text-anchor:start;white-space:normal;shape-padding:0;shape-margin:0;inline-size:0;clip-rule:nonzero;display:inline;overflow:visible;visibility:visible;isolation:auto;mix-blend-mode:normal;color-interpolation:sRGB;color-interpolation-filters:linearRGB;solid-color:#000000;solid-opacity:1;vector-effect:none;fill:#000000;fill-opacity:1;fill-rule:nonzero;stroke:none;stroke-width:0.4;stroke-linecap:round;stroke-linejoin:round;stroke-miterlimit:4;stroke-dasharray:none;stroke-dashoffset:0;stroke-opacity:1;paint-order:markers fill stroke;color-rendering:auto;image-rendering:auto;shape-rendering:auto;text-rendering:auto;enable-background:accumulate;stop-color:#000000;stop-opacity:1;opacity:1"
     d="M 12.734375 1.0019531 C 9.6500099 0.92205228 6.6188546 2.4896991 4.96875 5.3476562 C 4.381622 6.3645533 4.0260747 7.4502526 3.8808594 8.546875 C 1.8275948 10.137779 0.50000016 12.621126 0.5 15.417969 C 0.49999994 20.218095 4.3950177 24.115234 9.1953125 24.115234 C 10.36532 24.115234 11.480669 23.880621 12.5 23.460938 C 13.519331 23.880621 14.63468 24.115234 15.804688 24.115234 C 20.604982 24.115234 24.5 20.218095 24.5 15.417969 C 24.5 12.617052 23.167761 10.131613 21.109375 8.5410156 C 20.761171 5.9630543 19.273482 3.5665137 16.847656 2.1660156 C 15.548537 1.4159973 14.136359 1.0382717 12.734375 1.0019531 z M 12.722656 1.4003906 C 14.059899 1.4355115 15.407823 1.7954763 16.648438 2.5117188 C 18.842219 3.7782513 20.232767 5.894652 20.65625 8.203125 C 19.270265 7.2691771 17.600724 6.7226563 15.804688 6.7226562 C 14.63468 6.7226562 13.519331 6.9574447 12.5 7.3769531 C 11.480669 6.9574446 10.36532 6.7226563 9.1953125 6.7226562 C 7.4008325 6.7226563 5.7329301 7.2687069 4.3476562 8.2011719 C 4.5144177 7.2917378 4.8255191 6.3937015 5.3144531 5.546875 C 6.8902437 2.8176287 9.7807223 1.3231247 12.722656 1.4003906 z M 9.1953125 7.1230469 C 10.176817 7.1230469 11.114558 7.3028467 11.988281 7.6152344 C 9.1014855 9.0302884 7.1074221 11.988374 7.1074219 15.417969 C 7.1074219 15.620408 7.125034 15.818576 7.1386719 16.017578 C 5.0019836 14.209739 3.9523715 11.467585 4.2578125 8.7617188 C 5.6380224 7.7364223 7.3422802 7.1230469 9.1953125 7.1230469 z M 15.804688 7.1230469 C 17.654208 7.1230469 19.355532 7.7340908 20.734375 8.7558594 C 20.930075 10.461169 20.608556 12.241729 19.683594 13.84375 C 19.192873 14.693671 18.570626 15.41518 17.863281 16.015625 C 17.876827 15.81729 17.892578 15.619717 17.892578 15.417969 C 17.892578 11.988374 15.898514 9.0302885 13.011719 7.6152344 C 13.885442 7.3028467 14.823182 7.1230469 15.804688 7.1230469 z M 12.5 7.8105469 C 15.43767 9.0868372 17.492187 12.009287 17.492188 15.417969 C 17.492188 15.738452 17.468919 16.052284 17.433594 16.363281 C 14.859753 18.266626 11.302175 18.584332 8.3515625 16.880859 C 8.0752955 16.721363 7.8150807 16.54644 7.5644531 16.361328 C 7.5292942 16.051048 7.5078125 15.737688 7.5078125 15.417969 C 7.5078127 12.009287 9.5623298 9.0868372 12.5 7.8105469 z M 3.8339844 9.0917969 C 3.6393764 11.93419 4.8489951 14.771209 7.1933594 16.576172 C 7.5848828 19.505706 9.4328344 21.96952 11.988281 23.222656 C 11.114558 23.535185 10.176817 23.714844 9.1953125 23.714844 C 4.6111856 23.714844 0.90039058 20.001911 0.90039062 15.417969 C 0.90039077 12.880288 2.0408683 10.612881 3.8339844 9.0917969 z M 21.175781 9.1015625 C 22.962829 10.622594 24.099609 12.88525 24.099609 15.417969 C 24.099609 20.00191 20.388813 23.714844 15.804688 23.714844 C 14.823182 23.714844 13.885442 23.535185 13.011719 23.222656 C 15.564289 21.97093 17.410321 19.51114 17.804688 16.585938 C 18.681579 15.911807 19.444168 15.059786 20.03125 14.042969 C 20.929559 12.48711 21.29193 10.769309 21.175781 9.1015625 z M 7.6464844 16.902344 C 7.8121542 17.013766 7.9768595 17.127204 8.1523438 17.228516 C 11.123043 18.943585 14.684482 18.695645 17.353516 16.902344 C 16.855037 19.659095 15.000101 21.940718 12.5 23.027344 C 9.9998987 21.940719 8.1449626 19.659095 7.6464844 16.902344 z " />
  <metadata
     id="metadata36">
    <rdf:RDF>
      <cc:Work
         rdf:about="">
        <dc:format>image/svg+xml</dc:format>
        <dc:type
           rdf:resource="http://purl.org/dc/dcmitype/StillImage" />
        <dc:title>Scanner</dc:title>
      </cc:Work>
    </rdf:RDF>
  </metadata>
  <sodipodi:namedview
     pagecolor="#ffffff"
     bordercolor="#666666"
     borderopacity="1"
     objecttolerance="10"
     gridtolerance="10"
     guidetolerance="10"
     inkscape:pageopacity="0"
     inkscape:pageshadow="2"
     inkscape:window-width="1920"
     inkscape:window-height="1001"
     id="namedview34"
     showgrid="false"
     inkscape:zoom="4.3353782"
     inkscape:cx="12.511189"
     inkscape:cy="30.667744"
     inkscape:window-x="-9"
     inkscape:window-y="-9"
     inkscape:window-maximized="1"
     inkscape:current-layer="svg32"
     inkscape:snap-bbox="true"
     inkscape:bbox-nodes="true"
     inkscape:snap-page="false">
    <inkscape:grid
       type="xygrid"
       id="grid1040" />
  </sodipodi:namedview>
  <defs
     id="defs4">
    <style
       id="style2">.cls-1,.cls-2{fill:#d6e7f1;}.cls-1,.cls-3{stroke:#1d1d1b;stroke-linejoin:round;}.cls-1,.cls-3,.cls-5{stroke-width:0.82px;}.cls-3{fill:#fff;}.cls-4{fill:#1b181c;}.cls-5{fill:none;stroke:#9baab7;stroke-linecap:round;stroke-miterlimit:10;}</style>
  </defs>
  <title
     id="title6">Scanner</title>
  <path
     id="path1042-4-7"
     style="fill:#000000;fill-opacity:1;stroke:none;stroke-width:0.4;stroke-linecap:round;stroke-linejoin:round;stroke-miterlimit:4;stroke-dasharray:none;paint-order:markers fill stroke"
     d="M 12.498047,7.5937504 A 8.4959993,8.4956789 0 0 0 7.3085939,15.41797 8.4959993,8.4956789 0 0 0 7.3730469,16.46875 8.4956787,8.4959995 89.977634 0 0 8.2519529,17.052734 8.4956787,8.4959995 89.977634 0 0 17.625,16.470703 8.4959993,8.4956789 0 0 0 17.69141,15.41797 8.4959993,8.4956789 0 0 0 12.498051,7.5937504 Z" />
</svg>
