<?xml version="1.0" encoding="UTF-8" standalone="no"?>
<svg
   xmlns:dc="http://purl.org/dc/elements/1.1/"
   xmlns:cc="http://creativecommons.org/ns#"
   xmlns:rdf="http://www.w3.org/1999/02/22-rdf-syntax-ns#"
   xmlns:svg="http://www.w3.org/2000/svg"
   xmlns="http://www.w3.org/2000/svg"
   xmlns:sodipodi="http://sodipodi.sourceforge.net/DTD/sodipodi-0.dtd"
   xmlns:inkscape="http://www.inkscape.org/namespaces/inkscape"
   viewBox="0 0 25.000001 24.999999"
   version="1.1"
   id="svg32"
   sodipodi:docname="NoWiFi.svg"
   inkscape:version="1.0.1 (3bc2e813f5, 2020-09-07)"
   width="25"
   height="25">
  <metadata
     id="metadata36">
    <rdf:RDF>
      <cc:Work
         rdf:about="">
        <dc:format>image/svg+xml</dc:format>
        <dc:type
           rdf:resource="http://purl.org/dc/dcmitype/StillImage" />
        <dc:title>Scanner</dc:title>
      </cc:Work>
    </rdf:RDF>
  </metadata>
  <sodipodi:namedview
     pagecolor="#ffffff"
     bordercolor="#666666"
     borderopacity="1"
     objecttolerance="10"
     gridtolerance="10"
     guidetolerance="10"
     inkscape:pageopacity="0"
     inkscape:pageshadow="2"
     inkscape:window-width="1920"
     inkscape:window-height="1001"
     id="namedview34"
     showgrid="false"
     inkscape:zoom="4.3353782"
     inkscape:cx="-8.744866"
     inkscape:cy="46.442703"
     inkscape:window-x="-9"
     inkscape:window-y="-9"
     inkscape:window-maximized="1"
     inkscape:current-layer="g928"
     inkscape:snap-bbox="true"
     inkscape:bbox-nodes="true"
     inkscape:document-rotation="0"
     inkscape:snap-page="true"
     inkscape:snap-center="true"
     inkscape:snap-object-midpoints="true">
    <inkscape:grid
       type="xygrid"
       id="grid1040" />
  </sodipodi:namedview>
  <defs
     id="defs4">
    <style
       id="style2">.cls-1,.cls-2{fill:#d6e7f1;}.cls-1,.cls-3{stroke:#1d1d1b;stroke-linejoin:round;}.cls-1,.cls-3,.cls-5{stroke-width:0.82px;}.cls-3{fill:#fff;}.cls-4{fill:#1b181c;}.cls-5{fill:none;stroke:#9baab7;stroke-linecap:round;stroke-miterlimit:10;}</style>
  </defs>
  <title
     id="title6">Scanner</title>
  <g
     id="g928">
    <path
       id="path2084-8"
       style="fill:#f9f9f9;stroke:none;stroke-width:1.92358;stroke-linecap:round;stroke-linejoin:round;stroke-miterlimit:4;stroke-dasharray:none;paint-order:markers fill stroke"
       inkscape:transform-center-y="-3.2666708"
       transform="matrix(-1.2991436,0,0,-1.3001831,-0.35896838,-9.1443614)"
       d="M -9.9034326,-8.7251863 -14.255157,-16.262594 -18.606881,-23.8 l 8.7034483,0 8.7034478,-1e-6 -4.3517244,7.537407 z" />
    <path
       style="color:#000000;font-style:normal;font-variant:normal;font-weight:normal;font-stretch:normal;font-size:medium;line-height:normal;font-family:sans-serif;font-variant-ligatures:normal;font-variant-position:normal;font-variant-caps:normal;font-variant-numeric:normal;font-variant-alternates:normal;font-variant-east-asian:normal;font-feature-settings:normal;font-variation-settings:normal;text-indent:0;text-align:start;text-decoration:none;text-decoration-line:none;text-decoration-style:solid;text-decoration-color:#000000;letter-spacing:normal;word-spacing:normal;text-transform:none;writing-mode:lr-tb;direction:ltr;text-orientation:mixed;dominant-baseline:auto;baseline-shift:baseline;text-anchor:start;white-space:normal;shape-padding:0;shape-margin:0;inline-size:0;clip-rule:nonzero;display:inline;overflow:visible;visibility:visible;isolation:auto;mix-blend-mode:normal;color-interpolation:sRGB;color-interpolation-filters:linearRGB;solid-color:#000000;solid-opacity:1;vector-effect:none;fill:#d40000;fill-opacity:1;fill-rule:nonzero;stroke:none;stroke-width:1.92358;stroke-linecap:round;stroke-linejoin:round;stroke-miterlimit:4;stroke-dasharray:none;stroke-dashoffset:0;stroke-opacity:1;paint-order:markers fill stroke;color-rendering:auto;image-rendering:auto;shape-rendering:auto;text-rendering:auto;enable-background:accumulate;stop-color:#000000;stop-opacity:1;opacity:1"
       d="M -18.607422 -24.761719 A 0.9618862 0.9618862 0 0 0 -19.439453 -23.318359 L -15.087891 -15.78125 L -10.736328 -8.2441406 A 0.9618862 0.9618862 0 0 0 -9.0703125 -8.2441406 L -4.71875 -15.78125 L -0.3671875 -23.318359 A 0.9618862 0.9618862 0 0 0 -1.1992188 -24.761719 L -9.9042969 -24.761719 L -18.607422 -24.761719 z M -16.939453 -22.837891 L -9.9042969 -22.837891 L -2.8671875 -22.837891 L -6.3847656 -16.744141 L -9.9023438 -10.650391 L -13.421875 -16.744141 L -16.939453 -22.837891 z "
       id="path2148"
       transform="matrix(-1.2991436,0,0,-1.3001831,-0.35896855,-9.1443624)" />
    <path
       id="path1945"
       style="fill:#000000;stroke-width:0.4;stroke-linecap:round;stroke-linejoin:round;paint-order:markers fill stroke"
       d="m 13.391455,18.807558 a 0.88444204,0.88444204 0 0 1 -0.884442,0.884442 0.88444204,0.88444204 0 0 1 -0.884442,-0.884442 0.88444204,0.88444204 0 0 1 0.884442,-0.884442 0.88444204,0.88444204 0 0 1 0.884442,0.884442 z m -0.967359,-6.191094 a 6.1910942,6.1910942 0 0 0 -4.2943802,1.813797 l 0.6253282,0.625328 a 5.3066523,5.3066523 0 0 1 3.751969,-1.554683 5.3066523,5.3066523 0 0 1 3.751969,1.554683 l 0.625328,-0.625328 a 6.1910942,6.1910942 0 0 0 -4.294381,-1.813797 z m 0.08292,1.768884 A 4.4222103,4.4222103 0 0 0 9.3803722,15.680917 L 10.0057,16.306245 a 3.537768,3.537768 0 0 1 2.447763,-1.036455 3.537768,3.537768 0 0 1 0.05355,0 3.537768,3.537768 0 0 1 2.501313,1.036455 l 0.625328,-0.625328 a 4.4222103,4.4222103 0 0 0 -3.126641,-1.295569 z m -0.04491,1.768884 a 2.6533261,2.6533261 0 0 0 -1.831073,0.777341 l 0.625329,0.625328 a 1.7688841,1.7688841 0 0 1 1.20747,-0.518227 1.7688841,1.7688841 0 0 1 0.04319,0 1.7688841,1.7688841 0 0 1 1.250656,0.518227 l 0.625329,-0.625328 a 2.6533261,2.6533261 0 0 0 -1.875985,-0.777341 2.6533261,2.6533261 0 0 0 -0.04491,0 z" />
  </g>
</svg>
