<?xml version="1.0" encoding="UTF-8" standalone="no"?>
<svg
   xmlns:dc="http://purl.org/dc/elements/1.1/"
   xmlns:cc="http://creativecommons.org/ns#"
   xmlns:rdf="http://www.w3.org/1999/02/22-rdf-syntax-ns#"
   xmlns:svg="http://www.w3.org/2000/svg"
   xmlns="http://www.w3.org/2000/svg"
   xmlns:sodipodi="http://sodipodi.sourceforge.net/DTD/sodipodi-0.dtd"
   xmlns:inkscape="http://www.inkscape.org/namespaces/inkscape"
   viewBox="0 0 25.000001 24.999999"
   version="1.1"
   id="svg32"
   sodipodi:docname="WiFi.svg"
   inkscape:version="1.0.1 (3bc2e813f5, 2020-09-07)"
   width="25"
   height="25">
  <metadata
     id="metadata36">
    <rdf:RDF>
      <cc:Work
         rdf:about="">
        <dc:format>image/svg+xml</dc:format>
        <dc:type
           rdf:resource="http://purl.org/dc/dcmitype/StillImage" />
        <dc:title>Scanner</dc:title>
      </cc:Work>
    </rdf:RDF>
  </metadata>
  <sodipodi:namedview
     pagecolor="#ffffff"
     bordercolor="#666666"
     borderopacity="1"
     objecttolerance="10"
     gridtolerance="10"
     guidetolerance="10"
     inkscape:pageopacity="0"
     inkscape:pageshadow="2"
     inkscape:window-width="1920"
     inkscape:window-height="1001"
     id="namedview34"
     showgrid="false"
     inkscape:zoom="8.6707563"
     inkscape:cx="60.866001"
     inkscape:cy="16.220785"
     inkscape:window-x="-9"
     inkscape:window-y="-9"
     inkscape:window-maximized="1"
     inkscape:current-layer="g928"
     inkscape:snap-bbox="true"
     inkscape:bbox-nodes="true"
     inkscape:document-rotation="0"
     inkscape:snap-page="true">
    <inkscape:grid
       type="xygrid"
       id="grid1040" />
  </sodipodi:namedview>
  <defs
     id="defs4">
    <style
       id="style2">.cls-1,.cls-2{fill:#d6e7f1;}.cls-1,.cls-3{stroke:#1d1d1b;stroke-linejoin:round;}.cls-1,.cls-3,.cls-5{stroke-width:0.82px;}.cls-3{fill:#fff;}.cls-4{fill:#1b181c;}.cls-5{fill:none;stroke:#9baab7;stroke-linecap:round;stroke-miterlimit:10;}</style>
  </defs>
  <title
     id="title6">Scanner</title>
  <g
     id="g928">
    <path
       id="path1945"
       style="fill:#000000;stroke-width:0.4;stroke-linecap:round;stroke-linejoin:round;paint-order:markers fill stroke"
       d="M 15.025651,20.179558 A 2.5256511,2.5256511 0 0 1 12.5,22.705209 2.5256511,2.5256511 0 0 1 9.9743488,20.179558 2.5256511,2.5256511 0 0 1 12.5,17.653907 2.5256511,2.5256511 0 0 1 15.025651,20.179558 Z M 12.26322,2.5 A 17.679558,17.679558 0 0 0 0,7.6795578 L 1.7857144,9.465272 A 15.153907,15.153907 0 0 1 12.5,5.0256511 15.153907,15.153907 0 0 1 23.214287,9.465272 L 25,7.6795578 A 17.679558,17.679558 0 0 0 12.73678,2.5 Z M 12.5,7.5513022 A 12.628256,12.628256 0 0 0 3.5714288,11.250987 l 1.7857141,1.785714 a 10.102604,10.102604 0 0 1 6.9899361,-2.959748 10.102604,10.102604 0 0 1 0.152921,0 10.102604,10.102604 0 0 1 7.142857,2.959748 l 1.785714,-1.785714 A 12.628256,12.628256 0 0 0 12.5,7.5513022 Z m -0.128253,5.0513018 a 7.5769533,7.5769533 0 0 0 -5.22889,2.219811 l 1.7857144,1.785714 a 5.0513022,5.0513022 0 0 1 3.4481056,-1.479873 5.0513022,5.0513022 0 0 1 0.123323,0 5.0513022,5.0513022 0 0 1 3.571427,1.479873 l 1.785716,-1.785714 A 7.5769533,7.5769533 0 0 0 12.5,12.602604 a 7.5769533,7.5769533 0 0 0 -0.128255,0 z" />
  </g>
</svg>
