<?xml version="1.0" encoding="utf-8"?>
<!-- Generator: Adobe Illustrator 14.0.0, SVG Export Plug-In . SVG Version: 6.00 Build 43363)  -->
<!DOCTYPE svg PUBLIC "-//W3C//DTD SVG 1.1//EN" "http://www.w3.org/Graphics/SVG/1.1/DTD/svg11.dtd">
<svg version="1.1" id="Ebene_1" xmlns="http://www.w3.org/2000/svg" xmlns:xlink="http://www.w3.org/1999/xlink" x="0px" y="0px"
	 width="52px" height="44px" viewBox="0 0 52 44" enable-background="new 0 0 52 44" xml:space="preserve">
<g>
	<g>
		<g>
			<g>
				<circle fill="#FFFFFF" cx="26.099" cy="14.894" r="3.431"/>
				<path fill="#044254" d="M26.1,18.739c-2.121,0-3.848-1.725-3.848-3.845s1.727-3.846,3.848-3.846
					c2.119,0,3.844,1.726,3.844,3.846S28.219,18.739,26.1,18.739L26.1,18.739z M26.1,11.877c-1.664,0-3.018,1.354-3.018,3.017
					s1.354,3.016,3.018,3.016c1.662,0,3.014-1.353,3.014-3.016S27.762,11.877,26.1,11.877L26.1,11.877z"/>
			</g>
			<g>
				<path fill="#FFFFFF" d="M18.965,32.598l0.008-11.101c0-1.312,1.055-2.377,2.369-2.377h9.529c1.312,0,2.369,1.064,2.369,2.377
					l-0.004,11.15L18.965,32.598z"/>
				<path fill="#044254" d="M33.65,33.062l-15.101-0.051l0.008-11.515c0-1.539,1.25-2.791,2.785-2.791h9.529
					c1.535,0,2.783,1.252,2.783,2.791L33.65,33.062L33.65,33.062z M19.379,32.186l13.443,0.045l0.002-10.734
					c0-1.082-0.875-1.963-1.953-1.963h-9.529c-1.078,0-1.955,0.881-1.955,1.963L19.379,32.186L19.379,32.186z"/>
			</g>
		</g>
		<g>
			<g>
				<circle fill="#FFFFFF" cx="26.099" cy="14.894" r="3.431"/>
				<path fill="#044254" d="M26.1,18.739c-2.121,0-3.848-1.725-3.848-3.845s1.727-3.846,3.848-3.846
					c2.119,0,3.844,1.726,3.844,3.846S28.219,18.739,26.1,18.739L26.1,18.739z M26.1,11.877c-1.664,0-3.018,1.354-3.018,3.017
					s1.354,3.016,3.018,3.016c1.662,0,3.014-1.353,3.014-3.016S27.762,11.877,26.1,11.877L26.1,11.877z"/>
			</g>
			<g>
				<path fill="#FFFFFF" d="M18.965,32.598l0.008-11.101c0-1.312,1.055-2.377,2.369-2.377h9.529c1.312,0,2.369,1.064,2.369,2.377
					l-0.004,11.15L18.965,32.598z"/>
				<path fill="#044254" d="M33.65,33.062l-15.101-0.051l0.008-11.515c0-1.539,1.25-2.791,2.785-2.791h9.529
					c1.535,0,2.783,1.252,2.783,2.791L33.65,33.062L33.65,33.062z M19.379,32.186l13.443,0.045l0.002-10.734
					c0-1.082-0.875-1.963-1.953-1.963h-9.529c-1.078,0-1.955,0.881-1.955,1.963L19.379,32.186L19.379,32.186z"/>
			</g>
		</g>
	</g>
	<g>
		<g>
			<path fill-rule="evenodd" clip-rule="evenodd" fill="#FFF7CC" d="M18.965,32.598l0.008-11.101c0-1.312,1.055-2.377,2.369-2.377
				h9.529c1.312,0,2.369,1.064,2.369,2.377l-0.004,11.15L18.965,32.598z"/>
			<path d="M33.65,33.062l-15.101-0.051l0.008-11.515c0-1.539,1.25-2.791,2.785-2.791h9.529c1.535,0,2.783,1.252,2.783,2.791
				L33.65,33.062L33.65,33.062z M19.379,32.186l13.443,0.045l0.002-10.734c0-1.082-0.875-1.963-1.953-1.963h-9.529
				c-1.078,0-1.955,0.881-1.955,1.963L19.379,32.186L19.379,32.186z"/>
		</g>
	</g>
	<g>
		<g>
			<g>
				<circle fill="#FFF7CC" cx="26.099" cy="14.894" r="3.431"/>
				<path d="M26.1,18.739c-2.121,0-3.848-1.725-3.848-3.845s1.727-3.846,3.848-3.846c2.119,0,3.844,1.726,3.844,3.846
					S28.219,18.739,26.1,18.739L26.1,18.739z M26.1,11.877c-1.664,0-3.018,1.354-3.018,3.017s1.354,3.016,3.018,3.016
					c1.662,0,3.014-1.353,3.014-3.016S27.762,11.877,26.1,11.877L26.1,11.877z"/>
			</g>
		</g>
	</g>
</g>
</svg>
