<?xml version="1.0" encoding="utf-8"?>
<!-- Generator: Adobe Illustrator 15.1.0, SVG Export Plug-In . SVG Version: 6.00 Build 0)  -->
<!DOCTYPE svg PUBLIC "-//W3C//DTD SVG 1.1//EN" "http://www.w3.org/Graphics/SVG/1.1/DTD/svg11.dtd">
<svg version="1.1" id="Ebene_1" xmlns="http://www.w3.org/2000/svg" xmlns:xlink="http://www.w3.org/1999/xlink" x="0px" y="0px"
	 width="28.35px" height="28.35px" viewBox="0 0 28.35 28.35" enable-background="new 0 0 28.35 28.35" xml:space="preserve">
<g>
	<rect x="4.224" y="5.697" fill="#E30613" width="19.916" height="17.612"/>
	<path d="M24.54,23.709H3.824V5.297H24.54V23.709z M4.624,22.908H23.74V6.096H4.624V22.908z"/>
</g>
<g>
	<path fill="#FFFFFF" d="M13.23,18.408c-0.372,0.191-1.15,0.385-2.135,0.385c-2.279,0-3.982-1.439-3.982-4.103
		c0-2.542,1.716-4.246,4.223-4.246c0.996,0,1.643,0.217,1.919,0.36l-0.264,0.852c-0.385-0.191-0.948-0.336-1.619-0.336
		c-1.896,0-3.154,1.212-3.154,3.334c0,1.991,1.139,3.25,3.094,3.25c0.648,0,1.295-0.132,1.715-0.336L13.23,18.408z"/>
	<path fill="#FFFFFF" d="M19.017,11.849h-0.023l-1.355,0.731l-0.203-0.805l1.703-0.911h0.899v7.795h-1.021V11.849z"/>
</g>
</svg>
