<?xml version="1.0" encoding="utf-8"?>
<!-- Generator: Adobe Illustrator 15.1.0, SVG Export Plug-In . SVG Version: 6.00 Build 0)  -->
<!DOCTYPE svg PUBLIC "-//W3C//DTD SVG 1.1//EN" "http://www.w3.org/Graphics/SVG/1.1/DTD/svg11.dtd">
<svg version="1.1" id="Ebene_1" xmlns="http://www.w3.org/2000/svg" xmlns:xlink="http://www.w3.org/1999/xlink" x="0px" y="0px"
	 width="13.878px" height="15.799px" viewBox="0 0 13.878 15.799" enable-background="new 0 0 13.878 15.799" xml:space="preserve">
<g>
	<path fill="#FFFFFF" d="M7.037,2.169c-3.17,0-5.749,2.579-5.749,5.749s2.579,5.749,5.749,5.749s5.749-2.579,5.749-5.749
		S10.207,2.169,7.037,2.169z"/>
	<g>
		<g>
			<path fill="none" d="M7.037,7.917"/>
		</g>
	</g>
	<g>
		<path d="M7.037,14.266c-3.501,0-6.349-2.848-6.349-6.349s2.848-6.348,6.349-6.348s6.349,2.847,6.349,6.348
			S10.538,14.266,7.037,14.266z M7.037,2.169c-3.17,0-5.749,2.579-5.749,5.749s2.579,5.749,5.749,5.749s5.749-2.579,5.749-5.749
			S10.207,2.169,7.037,2.169z"/>
	</g>
	<polygon fill="#009FE3" points="10.546,7.562 7.393,7.562 7.393,4.409 6.686,4.409 6.686,7.562 3.526,7.562 3.526,8.27 6.686,8.27 
		6.686,11.427 7.393,11.427 7.393,8.27 10.546,8.27 	"/>
</g>
</svg>
