<?xml version="1.0" encoding="UTF-8" standalone="no"?>
<svg
   xmlns:dc="http://purl.org/dc/elements/1.1/"
   xmlns:cc="http://creativecommons.org/ns#"
   xmlns:rdf="http://www.w3.org/1999/02/22-rdf-syntax-ns#"
   xmlns:svg="http://www.w3.org/2000/svg"
   xmlns="http://www.w3.org/2000/svg"
   xmlns:sodipodi="http://sodipodi.sourceforge.net/DTD/sodipodi-0.dtd"
   xmlns:inkscape="http://www.inkscape.org/namespaces/inkscape"
   version="1.1"
   id="Ebene_1"
   x="0px"
   y="0px"
   width="52px"
   height="44px"
   viewBox="0 0 52 44"
   enable-background="new 0 0 52 44"
   xml:space="preserve"
   sodipodi:docname="Einkaeufer-zerlegt.svg"
   inkscape:version="1.0.1 (3bc2e813f5, 2020-09-07)"><metadata
   id="metadata140"><rdf:RDF><cc:Work
       rdf:about=""><dc:format>image/svg+xml</dc:format><dc:type
         rdf:resource="http://purl.org/dc/dcmitype/StillImage" /><dc:title></dc:title></cc:Work></rdf:RDF></metadata><defs
   id="defs138">
	
	
	

	
	
	
	

		
	
			<linearGradient
   id="SVGID_1_"
   gradientUnits="userSpaceOnUse"
   x1="35.5625"
   y1="23.3242"
   x2="35.5625"
   y2="12.6226">
				<stop
   offset="0"
   style="stop-color:#FFFFFF"
   id="stop52" />
				<stop
   offset="0.2747"
   style="stop-color:#FFE6B3"
   id="stop54" />
				<stop
   offset="0.7857"
   style="stop-color:#D2BF96"
   id="stop56" />
				<stop
   offset="0.989"
   style="stop-color:#FFE6B3"
   id="stop58" />
			</linearGradient>
			
			
		
		
		
	
		
		
	
	
	

	
	

	
	

	
	

		
		
	
		
		
	
	
	
	
	
	
</defs><sodipodi:namedview
   pagecolor="#ffffff"
   bordercolor="#666666"
   borderopacity="1"
   objecttolerance="10"
   gridtolerance="10"
   guidetolerance="10"
   inkscape:pageopacity="0"
   inkscape:pageshadow="2"
   inkscape:window-width="1920"
   inkscape:window-height="1001"
   id="namedview136"
   showgrid="false"
   inkscape:zoom="6.8139381"
   inkscape:cx="58.349857"
   inkscape:cy="44.560385"
   inkscape:window-x="-9"
   inkscape:window-y="-9"
   inkscape:window-maximized="1"
   inkscape:current-layer="Ebene_1" />
<polygon
   fill-rule="evenodd"
   clip-rule="evenodd"
   points="40.939,12.663 38.314,15.022 30.225,15.022 32.848,12.663 "
   id="polygon2"
   transform="translate(-47.402837,49.750967)" /><polygon
   fill-rule="evenodd"
   clip-rule="evenodd"
   points="38.314,15.022 30.225,15.022 32.848,12.663 40.939,12.663 "
   id="polygon4"
   transform="translate(-35.955712,41.826034)" /><polygon
   fill="#ffffff"
   stroke="#008fb4"
   stroke-width="0.3327"
   stroke-miterlimit="3.8637"
   points="36.82,11.808 38.137,11.808 35.629,14.315 33.121,11.808 34.461,11.808 34.461,8.179 36.82,8.179 "
   id="polygon8"
   transform="translate(26.184947,41.659034)" /><polygon
   fill="none"
   stroke="#008fb4"
   stroke-width="0.6143"
   stroke-miterlimit="3.8637"
   points="35.629,14.315 33.121,11.808 34.461,11.808 34.461,8.179 36.82,8.179 36.82,11.808 38.137,11.808 "
   id="polygon10"
   transform="translate(33.200947,41.659034)" /><g
   id="g16"
   transform="translate(-24.361829,37.276536)">
		
			<line
   fill-rule="evenodd"
   clip-rule="evenodd"
   fill="none"
   stroke="#008fb4"
   stroke-width="0.5877"
   stroke-miterlimit="3.8637"
   x1="38.27"
   y1="23.417999"
   x2="38.27"
   y2="14.684"
   id="line14" />
	</g>
<g
   id="g26"
   transform="translate(-40.651969,60.611059)">
	<g
   id="g24">
		<polygon
   fill-rule="evenodd"
   clip-rule="evenodd"
   fill="none"
   stroke="#008fb4"
   stroke-width="0.8293"
   points="41.016,12.622 32.77,12.622 30.109,15.077 30.135,23.324 38.381,23.324 40.994,20.87 "
   id="polygon20" />
		<polygon
   fill-rule="evenodd"
   clip-rule="evenodd"
   fill="none"
   stroke="#008fb4"
   stroke-width="0.8293"
   points="41.016,12.622 32.77,12.622 30.109,15.077 30.135,23.324 38.381,23.324 40.994,20.87 "
   id="polygon22" />
	</g>
</g>
<polygon
   fill-rule="evenodd"
   clip-rule="evenodd"
   points="38.314,15.022 30.225,15.022 32.848,12.663 40.939,12.663 "
   id="polygon28"
   transform="translate(-31.993247,37.276536)" /><polygon
   fill-rule="evenodd"
   clip-rule="evenodd"
   points="38.314,15.022 30.225,15.022 32.848,12.663 40.939,12.663 "
   id="polygon30"
   transform="translate(-41.533183,45.652614)" />
<g
   id="g38"
   transform="translate(18.767947,41.826034)">
		<polygon
   fill="#ffffff"
   points="38.137,11.808 35.629,14.315 33.121,11.808 34.461,11.808 34.461,8.179 36.82,8.179 36.82,11.808 "
   id="polygon34" />
		<path
   d="m 35.629,14.55 -2.91,-2.909 h 1.575 V 8.012 h 2.692 v 3.629 h 1.552 z m -2.107,-2.576 2.106,2.105 2.105,-2.105 H 36.652 V 8.345 h -2.026 v 3.629 z"
   id="path36" />
	</g><g
   id="g42"
   transform="translate(10.89279,41.820276)">
		<path
   d="M 35.629,14.749 32.379,11.5 h 1.774 V 7.872 h 2.974 V 11.5 h 1.751 z m -1.767,-2.634 1.767,1.766 1.766,-1.766 H 36.513 V 8.486 h -1.745 v 3.629 z"
   id="path40" />
	</g>
<g
   id="g50"
   transform="translate(-21.279912,37.129778)">
	<g
   id="g48">
		<polygon
   points="38.562,23.418 37.975,23.418 37.975,14.684 38.562,14.684 "
   id="polygon46" />
	</g>
</g>
<polygon
   fill-rule="evenodd"
   clip-rule="evenodd"
   fill="url(#SVGID_1_)"
   stroke="#008fb4"
   stroke-width="0.8293"
   points="30.135,23.324 38.381,23.324 40.994,20.87 41.016,12.622 32.77,12.622 30.109,15.077 "
   id="polygon61"
   style="fill:url(#SVGID_1_)"
   transform="translate(-8.6587229,60.024027)" /><polygon
   fill-rule="evenodd"
   clip-rule="evenodd"
   fill="#fff7cc"
   stroke="#008fb4"
   stroke-width="0.8293"
   points="38.381,23.324 40.994,20.87 41.016,12.622 32.77,12.622 30.109,15.077 30.135,23.324 "
   id="polygon63"
   transform="translate(8.3652064,60.317543)" /><polygon
   fill-rule="evenodd"
   clip-rule="evenodd"
   points="30.225,15.022 32.848,12.663 40.939,12.663 38.314,15.022 "
   id="polygon69"
   transform="translate(-53.86019,45.935258)" /><polygon
   fill-rule="evenodd"
   clip-rule="evenodd"
   points="32.848,12.663 40.939,12.663 38.314,15.022 30.225,15.022 "
   id="polygon71"
   transform="translate(-58.849962,49.163934)" /><polygon
   fill="#ffffff"
   stroke="#008fb4"
   stroke-width="0.3327"
   stroke-miterlimit="3.8637"
   points="35.629,14.315 33.121,11.808 34.461,11.808 34.461,8.179 36.82,8.179 36.82,11.808 38.137,11.808 "
   id="polygon75"
   transform="translate(40.216947,41.659034)" /><polygon
   fill="none"
   stroke="#008fb4"
   stroke-width="0.6143"
   stroke-miterlimit="3.8637"
   points="33.121,11.808 34.461,11.808 34.461,8.179 36.82,8.179 36.82,11.808 38.137,11.808 35.629,14.315 "
   id="polygon77"
   transform="translate(47.232947,41.659034)" /><g
   id="g83"
   transform="translate(-17.904478,36.983019)">
		
			<line
   fill-rule="evenodd"
   clip-rule="evenodd"
   fill="none"
   stroke="#008fb4"
   stroke-width="0.5877"
   stroke-miterlimit="3.8637"
   x1="38.27"
   y1="23.417999"
   x2="38.27"
   y2="14.684"
   id="line81" />
	</g>
<g
   id="g97"
   transform="translate(-24.655346,60.024027)">
	<g
   id="g95">
		<g
   id="g89">
			<path
   d="m 38.545,23.738 h -8.824 l -0.027,-8.843 2.914,-2.688 h 8.823 l -0.022,8.842 z M 30.548,22.91 h 7.669 l 2.363,-2.22 0.02,-7.653 h -7.668 l -2.408,2.221 z"
   id="path87" />
		</g>
		<g
   id="g93">
			<path
   d="m 38.545,23.738 h -8.824 l -0.027,-8.843 2.914,-2.688 h 8.823 l -0.022,8.842 z M 30.548,22.91 h 7.669 l 2.363,-2.22 0.02,-7.653 h -7.668 l -2.408,2.221 z"
   id="path91" />
		</g>
	</g>
</g>
<polygon
   fill-rule="evenodd"
   clip-rule="evenodd"
   points="40.939,12.663 38.314,15.022 30.225,15.022 32.848,12.663 "
   id="polygon99"
   transform="translate(-48.797039,41.459139)" /><polygon
   fill-rule="evenodd"
   clip-rule="evenodd"
   points="40.939,12.663 38.314,15.022 30.225,15.022 32.848,12.663 "
   id="polygon101"
   transform="translate(-44.981331,37.349915)" />
<g
   id="g109"
   transform="translate(2.7337898,41.679276)">
		<polygon
   fill="#ffffff"
   points="36.82,8.179 36.82,11.808 38.137,11.808 35.629,14.315 33.121,11.808 34.461,11.808 34.461,8.179 "
   id="polygon105" />
		<path
   d="m 35.629,14.55 -2.91,-2.909 h 1.575 V 8.012 h 2.692 v 3.629 h 1.552 z m -2.107,-2.576 2.106,2.105 2.105,-2.105 H 36.652 V 8.345 h -2.026 v 3.629 z"
   id="path107" />
	</g><g
   id="g113"
   transform="translate(-5.4252102,41.820276)">
		<path
   d="M 35.629,14.749 32.379,11.5 h 1.774 V 7.872 h 2.974 V 11.5 h 1.751 z m -1.767,-2.634 1.767,1.766 1.766,-1.766 H 36.513 V 8.486 h -1.745 v 3.629 z"
   id="path111" />
	</g>
<g
   id="g121"
   transform="translate(-27.003474,36.689504)">
	<g
   id="g119">
		<polygon
   points="38.562,23.418 37.975,23.418 37.975,14.684 38.562,14.684 "
   id="polygon117" />
	</g>
</g>
<path
   fill="#e3e7f3"
   stroke="#000000"
   stroke-width="0.828"
   d="m 63.945163,14.87184 h -11.157 c -1.54,0 -2.776,1.247 -2.776,2.785 l -0.008,13.058 h 3.386 v -10.873 h 0.654 v 10.873 h 8.633 v -10.873 h 0.654 v 10.873 h 3.386 l 0.003,-13.059 c 0.001,-1.537 -1.238,-2.784 -2.775,-2.784 z"
   id="path123" /><path
   d="M 21.490423,30.835324 H 3.9474227 l 0.009,-13.474 c 0,-1.764 1.431,-3.199 3.191,-3.199 H 18.303423 c 1.759,0 3.19,1.435 3.19,3.199 z"
   id="path125" /><path
   fill="#dbe5ef"
   d="m 42.873431,29.808018 0.003,-12.645 c 0,-1.307 -1.059,-2.37 -2.361,-2.37 H 29.35843 c -1.302,0 -2.362,1.063 -2.362,2.37 l -0.008,12.645 h 2.839 v -10.873 h 1.2 v 10.874 h 7.804001 v -10.874 h 1.2 v 10.874 h 2.842 z"
   id="path127" /><path
   d="m 12.424907,10.624164 c -2.4439995,0 -4.4319995,-1.9880002 -4.4319995,-4.4330005 0,-2.444 1.988,-4.432 4.4319995,-4.432 2.443,0 4.431,1.988 4.431,4.432 0,2.4450003 -1.987,4.4330005 -4.431,4.4330005 z"
   id="path129" /><path
   fill="#fff7cc"
   d="m 33.998335,3.4697115 c -1.987,0 -3.603,1.616 -3.603,3.603 0,1.9870003 1.616,3.6040005 3.603,3.6040005 1.986,0 3.602,-1.6170002 3.602,-3.6040005 0,-1.987 -1.616,-3.603 -3.602,-3.603 z"
   id="path131" />
</svg>
