<?xml version="1.0" encoding="utf-8"?>
<!-- Generator: Adobe Illustrator 14.0.0, SVG Export Plug-In . SVG Version: 6.00 Build 43363)  -->
<!DOCTYPE svg PUBLIC "-//W3C//DTD SVG 1.1//EN" "http://www.w3.org/Graphics/SVG/1.1/DTD/svg11.dtd">
<svg version="1.1" id="Ebene_1" xmlns="http://www.w3.org/2000/svg" xmlns:xlink="http://www.w3.org/1999/xlink" x="0px" y="0px"
	 width="52px" height="44px" viewBox="0 0 52 44" enable-background="new 0 0 52 44" xml:space="preserve">
<g>
	<rect x="17.144" y="17.781" fill="#DBE5EF" width="18.051" height="10.232"/>
	<path d="M26.07,18.757c4.461,0,8.077,3.615,8.077,8.076v0.32h-2.813v-0.32c0-2.908-2.355-5.263-5.264-5.263
		c-2.902,0-5.252,2.353-5.252,5.263v0.32h-2.811v-0.32C18.007,22.376,21.609,18.757,26.07,18.757z"/>
	<path fill="#FFFFFF" d="M26.07,19.4c-4,0-7.252,3.157-7.418,7.113h1.537c0.166-3.112,2.732-5.583,5.881-5.583
		c3.152,0,5.73,2.474,5.895,5.583h1.538C33.333,22.554,30.072,19.4,26.07,19.4z"/>
	<path fill="#707173" d="M30.927,23.477l1.289-0.833c0.758,1.11,1.225,2.438,1.286,3.87h-1.538
		C31.906,25.39,31.531,24.347,30.927,23.477z"/>
	<path d="M25.654,24.952l-0.02-0.029l-6.5-2.136l5.76,3.507c0.064,0.396,0.293,0.758,0.682,0.938
		c0.623,0.287,1.359,0.016,1.645-0.605c0.287-0.621,0.016-1.357-0.607-1.645C26.298,24.835,25.955,24.837,25.654,24.952z"/>
</g>
</svg>
