<?xml version="1.0" encoding="utf-8"?>
<!-- Generator: Adobe Illustrator 14.0.0, SVG Export Plug-In . SVG Version: 6.00 Build 43363)  -->
<!DOCTYPE svg PUBLIC "-//W3C//DTD SVG 1.1//EN" "http://www.w3.org/Graphics/SVG/1.1/DTD/svg11.dtd">
<svg version="1.1" id="Ebene_1" xmlns="http://www.w3.org/2000/svg" xmlns:xlink="http://www.w3.org/1999/xlink" x="0px" y="0px"
	 width="52px" height="44px" viewBox="0 0 52 44" enable-background="new 0 0 52 44" xml:space="preserve">
<polygon fill="#FFF7CC" points="26.891,8.552 43.469,8.552 43.469,18.377 26.891,18.377 26.891,8.552 "/>
<path fill-rule="evenodd" clip-rule="evenodd" d="M31.881,15.903v-0.715h-2.145v0.715H31.881z M29.021,15.188h0.715v-2.862h-0.715
	V15.188z M31.881,13.041h0.715v-0.715h-0.715V13.041z M32.596,14.473h-0.715v0.715h0.715V14.473z M29.736,11.61v0.716h2.145V11.61
	H29.736z M35.461,11.61h-0.717v1.431h-1.428v0.715h1.428v1.432h0.717v-1.432h1.43v-0.715h-1.43V11.61z M39.752,13.041V11.61h-0.717
	v1.431h-1.43v0.715h1.43v1.432h0.717v-1.432h1.432v-0.715H39.752z"/>
<polygon fill="none" points="26.891,8.552 43.469,8.552 43.469,18.377 26.891,18.377 26.891,8.552 "/>
<g>
	<defs>
		<polygon id="SVGID_1_" points="26.891,8.552 43.469,8.552 43.469,18.377 26.891,18.377 26.891,8.552 		"/>
	</defs>
	<clipPath id="SVGID_2_">
		<use xlink:href="#SVGID_1_"  overflow="visible"/>
	</clipPath>
	<use xlink:href="#SVGID_1_"  overflow="visible" fill="none" stroke="#000000" stroke-width="0.82"/>
</g>
<g>
	<path fill="#E3E7F3" stroke="#000000" stroke-width="0.828" d="M26.371,17.557H15.214c-1.54,0-2.776,1.247-2.776,2.785L12.43,33.4
		h3.386V22.527h0.653V33.4h8.634V22.527h0.653V33.4h3.387l0.004-13.059C29.146,18.804,27.907,17.557,26.371,17.557z"/>
	<path d="M29.557,33.814H12.014l0.01-13.474c0-1.764,1.431-3.199,3.19-3.199h11.157c1.758,0,3.189,1.435,3.189,3.199L29.557,33.814
		L29.557,33.814z"/>
	<path fill="#DBE5EF" d="M28.729,32.986l0.003-12.645c0-1.307-1.06-2.37-2.36-2.37H15.214c-1.302,0-2.362,1.063-2.362,2.37
		l-0.008,12.645h2.84V22.113h1.2v10.874h7.804V22.113h1.201v10.874H28.729z"/>
	<path d="M20.785,16.538c-2.443,0-4.432-1.988-4.432-4.433c0-2.444,1.988-4.432,4.432-4.432s4.432,1.988,4.432,4.432
		C25.217,14.55,23.229,16.538,20.785,16.538L20.785,16.538z"/>
	<path fill="#FFF7CC" d="M20.785,8.503c-1.986,0-3.603,1.616-3.603,3.603c0,1.987,1.616,3.604,3.603,3.604s3.602-1.617,3.602-3.604
		C24.387,10.119,22.771,8.503,20.785,8.503L20.785,8.503z"/>
</g>
</svg>
