<svg xmlns="http://www.w3.org/2000/svg" viewBox="0 0 89.67 41.98"><defs><style>.cls-1{fill:#c5d4dc;}.cls-2{fill:#fff;}.cls-3{fill:#0e4252;}.cls-4{fill:#e3edfa;}.cls-4,.cls-5{stroke:#1d1d1b;stroke-miterlimit:3.86;stroke-width:0.82px;}.cls-5{fill:#b8c9d9;stroke-linecap:round;}.cls-6{fill:#e94e1b;}</style></defs><title>Element 160</title><g id="Ebene_2" data-name="Ebene 2"><g id="Ebene_1-2" data-name="Ebene 1"><polygon class="cls-1" points="0 6.64 71.73 6.64 89.67 20.99 71.73 35.34 0 35.34 0 6.64"/><path class="cls-2" d="M63.68,24.12l-2.86.77c-1.19.17-1.37-.28-1.26-.67H59c-1.77.25-1.27-.88-1-1.1l-.2.15c-1.78.25-1.55-.82-.89-1s.51-.14.51-.14c-.53-.25-.49-.68-.24-.87,1.56-1.16,7.15-3,7.15-3a4.47,4.47,0,0,0-1.53-1.31c-2.22-.77-2.08-1.86-2-2.18.42-.66,1.68.49,3,1a8.42,8.42,0,0,0,2.61.24,6,6,0,0,1,2.57.61,9.82,9.82,0,0,1,1.54.94v3.05a1.84,1.84,0,0,1-.82,1.61,15.6,15.6,0,0,1-2,.88,41.31,41.31,0,0,1-4.17,1.17"/><polygon class="cls-2" points="70.79 16.62 75.28 16.62 75.28 23.23 70.79 23.23 70.79 16.62"/><path class="cls-3" d="M76.22,23.62H70.4V16.24h5.82Zm-5-.78h4.26V17H71.18Z"/><rect class="cls-3" x="72.37" y="16.62" width="3.22" height="6.61"/><path class="cls-3" d="M70.84,17.28l-.11-.08a10.28,10.28,0,0,0-1.6-1,6.31,6.31,0,0,0-2.68-.63h-.24a7.08,7.08,0,0,1-2.28-.23,8.5,8.5,0,0,1-1.33-.62c-.84-.44-1.63-.86-2.06-.17a1.34,1.34,0,0,0,.05,1.06,3.3,3.3,0,0,0,2.07,1.49,4,4,0,0,1,1.09.86l.06.05C62.53,18.48,58.32,20,57,21a.7.7,0,0,0-.29.65.79.79,0,0,0,.11.3h0a.91.91,0,0,0-.66,1c0,.2.25.62,1.16.62h.14a.81.81,0,0,0,0,.46c.14.33.49.5,1,.5a3,3,0,0,0,.5,0l.26,0a.74.74,0,0,0,.05.25c.14.34.48.51,1,.51.16,0,.33,0,.53,0l2.86-.78h0a41.88,41.88,0,0,0,4.08-1.15,16.19,16.19,0,0,0,2-.9,2.1,2.1,0,0,0,1-1.85Zm-.57,3.22a1.54,1.54,0,0,1-.67,1.34,15.29,15.29,0,0,1-2,.86,38.81,38.81,0,0,1-4.14,1.16h0l-2.72.74c-.62.09-.9,0-1-.13A.54.54,0,0,1,60,24c.25-.16,2.76-1.05,5-1.8l-.18-.54c-1.13.38-4.83,1.64-5.15,1.89a1,1,0,0,0-.22.27l-.51.09c-.61.09-.89,0-.94-.13a.54.54,0,0,1,.15-.46c.3-.19,3.94-1.49,6.17-2.26l-.18-.54c-1.4.49-6,2.1-6.33,2.35a.76.76,0,0,0-.09.09c-.79.11-1-.07-1-.15s.1-.28.29-.34c.73-.25,6.38-2.34,6.62-2.43l-.2-.53-6,2.21c-.06,0-.12-.11-.12-.16a.15.15,0,0,1,.06-.14c1.41-1.05,6.31-2.73,7-3a7.42,7.42,0,0,0,1,.75l.3-.48a9.23,9.23,0,0,1-1.41-1.17,4.21,4.21,0,0,0-1.3-1c-1.16-.4-1.59-.87-1.73-1.19a.84.84,0,0,1-.07-.57c.13-.21.72.11,1.29.41a9.29,9.29,0,0,0,1.42.66,7.82,7.82,0,0,0,2.46.26h.24a5.72,5.72,0,0,1,2.45.58,9.41,9.41,0,0,1,1.37.82Z"/><path class="cls-2" d="M55.22,26.85A41.11,41.11,0,0,1,51,25.68a17,17,0,0,1-2-.88,1.84,1.84,0,0,1-.82-1.61V20.14a9.82,9.82,0,0,1,1.54-.94,6,6,0,0,1,2.57-.61,8.45,8.45,0,0,0,2.61-.24c1.36-.46,2.62-1.61,3-1,.12.32.27,1.41-1.95,2.18-.72.24-1.65.58-1,1.22L55,20.75s5.11,1.17,6.88,1.86c.72.29.86,1.29-.63,1.05L55.47,22.6l-.16-.09s5.76,1.46,6.85,2.43c.55.49.3,1.22-2.18.38l-5.1-1.55a42.45,42.45,0,0,1,6,1.92c.91.39,1.1,1.6-.53,1.19L54.1,25.07l5.1,1.47c.28.22.76,1.15-1,.9l-3.08-.61"/><polygon class="cls-2" points="47.98 19.33 43.49 19.33 43.49 25.94 47.98 25.94 47.98 19.33"/><path class="cls-3" d="M48.37,26.33H43.11V18.94h5.26Zm-4.49-.78H47.6V19.72H43.88Z"/><rect class="cls-3" x="43.5" y="19.33" width="2.91" height="6.61"/><path class="cls-3" d="M62.62,25.63a.72.72,0,0,0-.27-.9,6.66,6.66,0,0,0-1.8-.91l.65.12a2.6,2.6,0,0,0,.46,0c.75,0,.94-.38,1-.56A1,1,0,0,0,62,22.35c-1.64-.64-6-1.67-6.8-1.85a.31.31,0,0,1-.07-.12c0-.2.76-.44,1-.54a3.3,3.3,0,0,0,2.06-1.48,1.36,1.36,0,0,0,0-1.12c-.42-.65-1.21-.22-2,.22a8.39,8.39,0,0,1-1.32.62,7.2,7.2,0,0,1-2.29.23h-.23a6.35,6.35,0,0,0-2.69.63,9.48,9.48,0,0,0-1.59,1l-.12.08v3.19a2.09,2.09,0,0,0,1,1.87,16.42,16.42,0,0,0,2,.89A37.58,37.58,0,0,0,55,27.1h0l3.1.61a3.63,3.63,0,0,0,.57.05c.4,0,.84-.08,1-.46a.79.79,0,0,0,0-.3l.49.15a3,3,0,0,0,.66.09c.63,0,.82-.33.88-.5a.89.89,0,0,0-.16-.77h.13A.92.92,0,0,0,62.62,25.63Zm-2.55-.58v0A47,47,0,0,0,55,23.49l-.14.55A42.53,42.53,0,0,1,60.74,26c.39.17.55.49.51.61s-.29.19-.85.05l-6.22-1.82-.16.55,5,1.47c.08.09.15.23.13.28s-.25.17-.95.07l-3-.59h0a38.81,38.81,0,0,1-4.14-1.16,15.93,15.93,0,0,1-2-.86,1.56,1.56,0,0,1-.66-1.36V20.28a10,10,0,0,1,1.37-.82,5.76,5.76,0,0,1,2.46-.58h.22A7.58,7.58,0,0,0,55,18.62,9.63,9.63,0,0,0,56.44,18c.57-.3,1.17-.61,1.27-.46a.79.79,0,0,1,0,.62c-.15.32-.58.79-1.74,1.19-.56.19-1.27.44-1.38.94a.8.8,0,0,0,.31.76l.06,0C55,21,60,22.2,61.76,22.88c.25.1.37.29.35.39s-.28.2-.82.11l-5.17-.95-.74-.2-.15.55.2,0v.05L56,23c1.91.52,5.24,1.52,6,2.18a.37.37,0,0,1,.15.19S61.79,25.63,60.07,25.05Z"/><rect class="cls-4" x="15.13" y="0.41" width="19.95" height="41.17" rx="0.79" ry="0.79"/><line class="cls-5" x1="19.29" y1="7.06" x2="30.92" y2="7.06"/><line class="cls-5" x1="19.29" y1="10.01" x2="30.92" y2="10.01"/><line class="cls-5" x1="19.29" y1="12.96" x2="30.92" y2="12.96"/><line class="cls-5" x1="19.29" y1="15.91" x2="30.92" y2="15.91"/><rect class="cls-6" x="19.03" y="20.22" width="3.08" height="3.08" rx="0.42" ry="0.42"/></g></g></svg>