<svg xmlns="http://www.w3.org/2000/svg" viewBox="0 0 89.67 41.98"><defs><style>.cls-1{fill:#c5d4dc;}.cls-2{fill:#e3edfa;}.cls-2,.cls-3,.cls-5{stroke:#1d1d1b;stroke-width:0.82px;}.cls-2,.cls-3{stroke-miterlimit:3.86;}.cls-3{fill:#b8c9d9;stroke-linecap:round;}.cls-4{fill:#e94e1b;}.cls-5{fill:#fff;stroke-linejoin:round;}</style></defs><title>Element 158</title><g id="Ebene_2" data-name="Ebene 2"><g id="Ebene_1-2" data-name="Ebene 1"><polygon class="cls-1" points="0 6.64 71.73 6.64 89.67 20.99 71.73 35.34 0 35.34 0 6.64"/><rect class="cls-2" x="15.13" y="0.41" width="19.95" height="41.17" rx="0.79" ry="0.79"/><line class="cls-3" x1="19.29" y1="7.06" x2="30.92" y2="7.06"/><line class="cls-3" x1="19.29" y1="10.01" x2="30.92" y2="10.01"/><line class="cls-3" x1="19.29" y1="12.96" x2="30.92" y2="12.96"/><line class="cls-3" x1="19.29" y1="15.91" x2="30.92" y2="15.91"/><rect class="cls-4" x="19.03" y="20.22" width="3.08" height="3.08" rx="0.42" ry="0.42"/><path class="cls-5" d="M48.83,23.26a6.66,6.66,0,0,1-.49-4.91l1.15,1.2L51,14.44l-5.16,1.29.92.95a8.3,8.3,0,0,0-.29,7.72,8.39,8.39,0,0,0,11.17,4L56.44,26A5.71,5.71,0,0,1,48.83,23.26Z"/><path class="cls-5" d="M62.76,16.15A8.37,8.37,0,0,0,51.6,12.2l1.14,2.4a5.73,5.73,0,0,1,7.62,2.7,7.21,7.21,0,0,1,.51,5.1L59.7,21l-1.47,5.12,5.16-1.29-.91-.95A8.32,8.32,0,0,0,62.76,16.15Z"/></g></g></svg>