<?xml version="1.0" encoding="UTF-8" standalone="no"?>
<svg
   xmlns:dc="http://purl.org/dc/elements/1.1/"
   xmlns:cc="http://creativecommons.org/ns#"
   xmlns:rdf="http://www.w3.org/1999/02/22-rdf-syntax-ns#"
   xmlns:svg="http://www.w3.org/2000/svg"
   xmlns="http://www.w3.org/2000/svg"
   xmlns:sodipodi="http://sodipodi.sourceforge.net/DTD/sodipodi-0.dtd"
   xmlns:inkscape="http://www.inkscape.org/namespaces/inkscape"
   viewBox="0 0 89.67 41.98"
   version="1.1"
   id="svg44"
   sodipodi:docname="Automated_Process_handshake.svg"
   inkscape:version="1.0.1 (3bc2e813f5, 2020-09-07)">
  <metadata
     id="metadata48">
    <rdf:RDF>
      <cc:Work
         rdf:about="">
        <dc:format>image/svg+xml</dc:format>
        <dc:type
           rdf:resource="http://purl.org/dc/dcmitype/StillImage" />
        <dc:title>Element 160</dc:title>
      </cc:Work>
    </rdf:RDF>
  </metadata>
  <sodipodi:namedview
     pagecolor="#ffffff"
     bordercolor="#666666"
     borderopacity="1"
     objecttolerance="10"
     gridtolerance="10"
     guidetolerance="10"
     inkscape:pageopacity="0"
     inkscape:pageshadow="2"
     inkscape:window-width="1920"
     inkscape:window-height="1001"
     id="namedview46"
     showgrid="false"
     inkscape:zoom="8.8871346"
     inkscape:cx="74.220508"
     inkscape:cy="20.446212"
     inkscape:window-x="-9"
     inkscape:window-y="-9"
     inkscape:window-maximized="1"
     inkscape:current-layer="svg44"
     inkscape:snap-bbox="true"
     inkscape:bbox-nodes="true" />
  <defs
     id="defs4">
    <style
       id="style2">.cls-1{fill:#c5d4dc;}.cls-2{fill:#fff;}.cls-3{fill:#0e4252;}.cls-4{fill:#e3edfa;}.cls-4,.cls-5{stroke:#1d1d1b;stroke-miterlimit:3.86;stroke-width:0.82px;}.cls-5{fill:#b8c9d9;stroke-linecap:round;}.cls-6{fill:#e94e1b;}</style>
  </defs>
  <title
     id="title6">Element 160</title>
  <g
     id="g103">
    <path
       class="cls-2"
       d="m 63.68,24.12 -2.86,0.77 c -1.19,0.17 -1.37,-0.28 -1.26,-0.67 H 59 c -1.77,0.25 -1.27,-0.88 -1,-1.1 l -0.2,0.15 c -1.78,0.25 -1.55,-0.82 -0.89,-1 0.66,-0.18 0.51,-0.14 0.51,-0.14 -0.53,-0.25 -0.49,-0.68 -0.24,-0.87 1.56,-1.16 7.15,-3 7.15,-3 A 4.47,4.47 0 0 0 62.8,16.95 c -2.22,-0.77 -2.08,-1.86 -2,-2.18 0.42,-0.66 1.68,0.49 3,1 a 8.42,8.42 0 0 0 2.61,0.24 6,6 0 0 1 2.57,0.61 9.82,9.82 0 0 1 1.54,0.94 v 3.05 a 1.84,1.84 0 0 1 -0.82,1.61 15.6,15.6 0 0 1 -2,0.88 41.31,41.31 0 0 1 -4.17,1.17"
       id="path10" />
    <polygon
       class="cls-2"
       points="70.79,16.62 75.28,16.62 75.28,23.23 70.79,23.23 "
       id="polygon12" />
    <path
       class="cls-3"
       d="M 76.22,23.62 H 70.4 v -7.38 h 5.82 z m -5,-0.78 h 4.26 V 17 h -4.3 z"
       id="path14" />
    <rect
       class="cls-3"
       x="72.370003"
       y="16.620001"
       width="3.22"
       height="6.6100001"
       id="rect16" />
    <path
       class="cls-3"
       d="M 70.84,17.28 70.73,17.2 a 10.28,10.28 0 0 0 -1.6,-1 6.31,6.31 0 0 0 -2.68,-0.63 H 66.21 A 7.08,7.08 0 0 1 63.93,15.34 8.5,8.5 0 0 1 62.6,14.72 c -0.84,-0.44 -1.63,-0.86 -2.06,-0.17 a 1.34,1.34 0 0 0 0.05,1.06 3.3,3.3 0 0 0 2.07,1.49 4,4 0 0 1 1.09,0.86 l 0.06,0.05 C 62.53,18.48 58.32,20 57,21 a 0.7,0.7 0 0 0 -0.29,0.65 0.79,0.79 0 0 0 0.11,0.3 v 0 a 0.91,0.91 0 0 0 -0.66,1 c 0,0.2 0.25,0.62 1.16,0.62 h 0.14 a 0.81,0.81 0 0 0 0,0.46 c 0.14,0.33 0.49,0.5 1,0.5 a 3,3 0 0 0 0.5,0 h 0.26 a 0.74,0.74 0 0 0 0.05,0.25 c 0.14,0.34 0.48,0.51 1,0.51 0.16,0 0.33,0 0.53,0 l 2.86,-0.78 v 0 a 41.88,41.88 0 0 0 4.08,-1.15 16.19,16.19 0 0 0 2,-0.9 2.1,2.1 0 0 0 1,-1.85 z m -0.57,3.22 a 1.54,1.54 0 0 1 -0.67,1.34 15.29,15.29 0 0 1 -2,0.86 38.81,38.81 0 0 1 -4.14,1.16 v 0 l -2.72,0.74 c -0.62,0.09 -0.9,0 -1,-0.13 A 0.54,0.54 0 0 1 60,24 c 0.25,-0.16 2.76,-1.05 5,-1.8 l -0.18,-0.54 c -1.13,0.38 -4.83,1.64 -5.15,1.89 a 1,1 0 0 0 -0.22,0.27 l -0.51,0.09 C 58.33,24 58.05,23.91 58,23.78 a 0.54,0.54 0 0 1 0.15,-0.46 c 0.3,-0.19 3.94,-1.49 6.17,-2.26 l -0.18,-0.54 c -1.4,0.49 -6,2.1 -6.33,2.35 a 0.76,0.76 0 0 0 -0.09,0.09 c -0.79,0.11 -1,-0.07 -1,-0.15 0,-0.08 0.1,-0.28 0.29,-0.34 0.73,-0.25 6.38,-2.34 6.62,-2.43 l -0.2,-0.53 -6,2.21 c -0.06,0 -0.12,-0.11 -0.12,-0.16 a 0.15,0.15 0 0 1 0.06,-0.14 c 1.41,-1.05 6.31,-2.73 7,-3 a 7.42,7.42 0 0 0 1,0.75 l 0.3,-0.48 a 9.23,9.23 0 0 1 -1.41,-1.17 4.21,4.21 0 0 0 -1.3,-1 c -1.16,-0.4 -1.59,-0.87 -1.73,-1.19 a 0.84,0.84 0 0 1 -0.07,-0.57 c 0.13,-0.21 0.72,0.11 1.29,0.41 a 9.29,9.29 0 0 0 1.42,0.66 7.82,7.82 0 0 0 2.46,0.26 h 0.24 a 5.72,5.72 0 0 1 2.45,0.58 9.41,9.41 0 0 1 1.37,0.82 z"
       id="path18" />
    <path
       class="cls-2"
       d="M 55.22,26.85 A 41.11,41.11 0 0 1 51,25.68 17,17 0 0 1 49,24.8 1.84,1.84 0 0 1 48.18,23.19 v -3.05 a 9.82,9.82 0 0 1 1.54,-0.94 6,6 0 0 1 2.57,-0.61 8.45,8.45 0 0 0 2.61,-0.24 c 1.36,-0.46 2.62,-1.61 3,-1 0.12,0.32 0.27,1.41 -1.95,2.18 -0.72,0.24 -1.65,0.58 -1,1.22 H 55 c 0,0 5.11,1.17 6.88,1.86 0.72,0.29 0.86,1.29 -0.63,1.05 L 55.47,22.6 55.31,22.51 c 0,0 5.76,1.46 6.85,2.43 0.55,0.49 0.3,1.22 -2.18,0.38 l -5.1,-1.55 a 42.45,42.45 0 0 1 6,1.92 c 0.91,0.39 1.1,1.6 -0.53,1.19 l -6.25,-1.81 5.1,1.47 c 0.28,0.22 0.76,1.15 -1,0.9 l -3.08,-0.61"
       id="path20" />
    <polygon
       class="cls-2"
       points="47.98,19.33 43.49,19.33 43.49,25.94 47.98,25.94 "
       id="polygon22" />
    <path
       class="cls-3"
       d="m 48.37,26.33 h -5.26 v -7.39 h 5.26 z m -4.49,-0.78 h 3.72 v -5.83 h -3.72 z"
       id="path24" />
    <rect
       class="cls-3"
       x="43.5"
       y="19.33"
       width="2.9100001"
       height="6.6100001"
       id="rect26" />
    <path
       class="cls-3"
       d="m 62.62,25.63 a 0.72,0.72 0 0 0 -0.27,-0.9 6.66,6.66 0 0 0 -1.8,-0.91 l 0.65,0.12 a 2.6,2.6 0 0 0 0.46,0 c 0.75,0 0.94,-0.38 1,-0.56 A 1,1 0 0 0 62,22.35 C 60.36,21.71 56,20.68 55.2,20.5 a 0.31,0.31 0 0 1 -0.07,-0.12 c 0,-0.2 0.76,-0.44 1,-0.54 a 3.3,3.3 0 0 0 2.06,-1.48 1.36,1.36 0 0 0 0,-1.12 c -0.42,-0.65 -1.21,-0.22 -2,0.22 a 8.39,8.39 0 0 1 -1.32,0.62 7.2,7.2 0 0 1 -2.29,0.23 h -0.23 a 6.35,6.35 0 0 0 -2.69,0.63 9.48,9.48 0 0 0 -1.59,1 l -0.12,0.08 v 3.19 a 2.09,2.09 0 0 0 1,1.87 16.42,16.42 0 0 0 2,0.89 37.58,37.58 0 0 0 4.05,1.13 v 0 l 3.1,0.61 a 3.63,3.63 0 0 0 0.57,0.05 c 0.4,0 0.84,-0.08 1,-0.46 a 0.79,0.79 0 0 0 0,-0.3 l 0.49,0.15 a 3,3 0 0 0 0.66,0.09 c 0.63,0 0.82,-0.33 0.88,-0.5 a 0.89,0.89 0 0 0 -0.16,-0.77 h 0.13 a 0.92,0.92 0 0 0 0.95,-0.34 z m -2.55,-0.58 v 0 A 47,47 0 0 0 55,23.49 l -0.14,0.55 A 42.53,42.53 0 0 1 60.74,26 c 0.39,0.17 0.55,0.49 0.51,0.61 -0.04,0.12 -0.29,0.19 -0.85,0.05 l -6.22,-1.82 -0.16,0.55 5,1.47 c 0.08,0.09 0.15,0.23 0.13,0.28 -0.02,0.05 -0.25,0.17 -0.95,0.07 l -3,-0.59 v 0 a 38.81,38.81 0 0 1 -4.14,-1.16 15.93,15.93 0 0 1 -2,-0.86 1.56,1.56 0 0 1 -0.66,-1.36 v -2.96 a 10,10 0 0 1 1.37,-0.82 5.76,5.76 0 0 1 2.46,-0.58 h 0.22 A 7.58,7.58 0 0 0 55,18.62 9.63,9.63 0 0 0 56.44,18 c 0.57,-0.3 1.17,-0.61 1.27,-0.46 a 0.79,0.79 0 0 1 0,0.62 c -0.15,0.32 -0.58,0.79 -1.74,1.19 -0.56,0.19 -1.27,0.44 -1.38,0.94 a 0.8,0.8 0 0 0 0.31,0.76 h 0.06 C 55,21 60,22.2 61.76,22.88 c 0.25,0.1 0.37,0.29 0.35,0.39 -0.02,0.1 -0.28,0.2 -0.82,0.11 l -5.17,-0.95 -0.74,-0.2 -0.15,0.55 h 0.2 v 0.05 L 56,23 c 1.91,0.52 5.24,1.52 6,2.18 a 0.37,0.37 0 0 1 0.15,0.19 c 0,0 -0.36,0.26 -2.08,-0.32 z"
       id="path28" />
  </g>
</svg>
