<?xml version="1.0" encoding="UTF-8" standalone="no"?>
<svg
   xmlns:dc="http://purl.org/dc/elements/1.1/"
   xmlns:cc="http://creativecommons.org/ns#"
   xmlns:rdf="http://www.w3.org/1999/02/22-rdf-syntax-ns#"
   xmlns:svg="http://www.w3.org/2000/svg"
   xmlns="http://www.w3.org/2000/svg"
   xmlns:sodipodi="http://sodipodi.sourceforge.net/DTD/sodipodi-0.dtd"
   xmlns:inkscape="http://www.inkscape.org/namespaces/inkscape"
   viewBox="0 0 89.67 41.98"
   version="1.1"
   id="svg44"
   sodipodi:docname="Automated_Process_continued.svg"
   inkscape:version="1.0.1 (3bc2e813f5, 2020-09-07)">
  <metadata
     id="metadata48">
    <rdf:RDF>
      <cc:Work
         rdf:about="">
        <dc:format>image/svg+xml</dc:format>
        <dc:type
           rdf:resource="http://purl.org/dc/dcmitype/StillImage" />
        <dc:title>Element 160</dc:title>
      </cc:Work>
    </rdf:RDF>
  </metadata>
  <sodipodi:namedview
     pagecolor="#ffffff"
     bordercolor="#666666"
     borderopacity="1"
     objecttolerance="10"
     gridtolerance="10"
     guidetolerance="10"
     inkscape:pageopacity="0"
     inkscape:pageshadow="2"
     inkscape:window-width="1920"
     inkscape:window-height="1001"
     id="namedview46"
     showgrid="false"
     inkscape:zoom="8.8871346"
     inkscape:cx="74.220508"
     inkscape:cy="20.446212"
     inkscape:window-x="-9"
     inkscape:window-y="-9"
     inkscape:window-maximized="1"
     inkscape:current-layer="svg44"
     inkscape:snap-bbox="true"
     inkscape:bbox-nodes="true" />
  <defs
     id="defs4">
    <style
       id="style2">.cls-1{fill:#c5d4dc;}.cls-2{fill:#fff;}.cls-3{fill:#0e4252;}.cls-4{fill:#e3edfa;}.cls-4,.cls-5{stroke:#1d1d1b;stroke-miterlimit:3.86;stroke-width:0.82px;}.cls-5{fill:#b8c9d9;stroke-linecap:round;}.cls-6{fill:#e94e1b;}</style>
  </defs>
  <title
     id="title6">Element 160</title>
  <g
     id="g55">
    <path
       class="cls-5"
       d="m 48.83,23.26 a 6.66,6.66 0 0 1 -0.49,-4.91 l 1.15,1.2 1.51,-5.11 -5.16,1.29 0.92,0.95 a 8.3,8.3 0 0 0 -0.29,7.72 8.39,8.39 0 0 0 11.17,4 L 56.44,26 a 5.71,5.71 0 0 1 -7.61,-2.74 z"
       id="path22" />
    <path
       class="cls-5"
       d="M 62.76,16.15 A 8.37,8.37 0 0 0 51.6,12.2 l 1.14,2.4 a 5.73,5.73 0 0 1 7.62,2.7 7.21,7.21 0 0 1 0.51,5.1 L 59.7,21 l -1.47,5.12 5.16,-1.29 -0.91,-0.95 a 8.32,8.32 0 0 0 0.28,-7.73 z"
       id="path24-3" />
  </g>
</svg>
