<svg xmlns="http://www.w3.org/2000/svg" viewBox="0 0 36.91 32.53"><defs><style>.cls-1{fill:none;stroke:#c5d4dc;stroke-linejoin:round;}.cls-2{fill:#fff7cc;stroke:#1d1d1b;}.cls-2,.cls-3{stroke-miterlimit:10;stroke-width:0.82px;}.cls-3{fill:#fff;stroke:#e94e1b;}.cls-4{fill:#e94e1b;}</style></defs><title>Element 150</title><g id="Ebene_2" data-name="Ebene 2"><g id="Ebene_1-2" data-name="Ebene 1"><polygon class="cls-1" points="18.45 32.03 0.5 0.5 36.41 0.5 18.45 32.03 18.45 32.03"/><path class="cls-2" d="M16.26,4.21h0A1.3,1.3,0,0,0,15,2.92H7.33A1.29,1.29,0,0,0,6,4.21V20.43a1.29,1.29,0,0,0,1.29,1.29H29.84a1.29,1.29,0,0,0,1.29-1.29V6.8a1.3,1.3,0,0,0-1.29-1.3H17.55A1.29,1.29,0,0,1,16.26,4.21Z"/><circle class="cls-3" cx="29.57" cy="8" r="5.45"/><rect class="cls-4" x="28.98" y="4.34" width="1.15" height="7.53" transform="translate(2.92 23.28) rotate(-45)"/><rect class="cls-4" x="25.8" y="7.53" width="7.53" height="1.15" transform="translate(2.92 23.28) rotate(-45)"/></g></g></svg>