<svg xmlns="http://www.w3.org/2000/svg" viewBox="0 0 36.91 35.79"><defs><style>.cls-1,.cls-5{fill:none;}.cls-1{stroke:#c5d4dc;stroke-linejoin:round;}.cls-2{fill:#fff7cc;}.cls-2,.cls-5{stroke:#1d1d1b;stroke-miterlimit:10;stroke-width:0.82px;}.cls-3{fill:#417999;}.cls-4{fill:#fff;}</style></defs><title>Element 151</title><g id="Ebene_2" data-name="Ebene 2"><g id="Ebene_1-2" data-name="Ebene 1"><polygon class="cls-1" points="18.45 35.29 0.5 3.76 36.41 3.76 18.45 35.29 18.45 35.29"/><path class="cls-2" d="M16.26,7.47h0A1.29,1.29,0,0,0,15,6.18H7.33A1.28,1.28,0,0,0,6,7.47V23.69A1.29,1.29,0,0,0,7.33,25H29.84a1.29,1.29,0,0,0,1.29-1.29V10.06a1.3,1.3,0,0,0-1.29-1.3H17.55A1.29,1.29,0,0,1,16.26,7.47Z"/><path class="cls-3" d="M34.82,3.21a4.29,4.29,0,0,0,.86-1.47A1.07,1.07,0,0,0,35.53.58a1.09,1.09,0,0,0-1.18,0A4.32,4.32,0,0,0,33,1.66L31.44,3.48l-7.53,8.71,0,0,1.79,1.55L33.24,5l1.28-1.49.3-.34Z"/><path class="cls-4" d="M23.91,12.19l0,0-1.11,2.71a.25.25,0,0,0,.37.31l2.53-1.47Z"/><path class="cls-5" d="M35.53.58a1.09,1.09,0,0,0-1.18,0A4.32,4.32,0,0,0,33,1.66L31.44,3.48l-7.53,8.7,0,0-1.11,2.71a.25.25,0,0,0,.37.31l2.53-1.47L33.24,5l1.28-1.48.3-.34h0a4.16,4.16,0,0,0,.86-1.46A1.07,1.07,0,0,0,35.53.58Z"/></g></g></svg>