<svg xmlns="http://www.w3.org/2000/svg" viewBox="0 0 38.18 32.53"><defs><style>.cls-1{fill:none;stroke:#c5d4dc;stroke-linejoin:round;}.cls-2{fill:#fff7cc;stroke:#1d1d1b;}.cls-2,.cls-3{stroke-miterlimit:10;stroke-width:0.82px;}.cls-3{fill:#fff;stroke:#a1b505;}.cls-4{fill:#a1b505;}</style></defs><title>Element 152</title><g id="Ebene_2" data-name="Ebene 2"><g id="Ebene_1-2" data-name="Ebene 1"><polygon class="cls-1" points="18.45 32.03 0.5 0.5 36.41 0.5 18.45 32.03 18.45 32.03"/><path class="cls-2" d="M16.26,4.21h0A1.3,1.3,0,0,0,15,2.92H7.33A1.29,1.29,0,0,0,6,4.21V20.43a1.29,1.29,0,0,0,1.29,1.29H29.84a1.29,1.29,0,0,0,1.29-1.29V6.8a1.3,1.3,0,0,0-1.29-1.3H17.55A1.29,1.29,0,0,1,16.26,4.21Z"/><circle class="cls-3" cx="32.32" cy="8.72" r="5.45"/><rect class="cls-4" x="28.63" y="8.23" width="7.53" height="1.15"/><rect class="cls-4" x="31.81" y="5.04" width="1.15" height="7.53"/></g></g></svg>