<svg xmlns="http://www.w3.org/2000/svg" viewBox="0 0 36.91 32.53"><defs><style>.cls-1,.cls-5,.cls-6{fill:none;stroke-linejoin:round;}.cls-1{stroke:#c5d4dc;}.cls-2{fill:#d9e5ec;}.cls-3{fill:#c4c4c4;}.cls-4{fill:#fff;}.cls-5,.cls-6{stroke:#1d1d1b;}.cls-5{stroke-width:0.82px;}.cls-6{stroke-width:0.84px;}.cls-7{fill:#1d1d1b;}</style></defs><title>Element 156</title><g id="Ebene_2" data-name="Ebene 2"><g id="Ebene_1-2" data-name="Ebene 1"><polygon class="cls-1" points="18.45 32.03 0.5 0.5 36.41 0.5 18.45 32.03 18.45 32.03"/><rect class="cls-2" x="5.28" y="9.32" width="26.5" height="17.53"/><path class="cls-3" d="M31.78,3.27V9.32H5.28V3.27ZM29.84,7.38V5.27H11.64V7.38Zm-20,0V5.27H7.15V7.38Z"/><rect class="cls-4" x="11.64" y="5.27" width="18.2" height="2.11"/><rect class="cls-3" x="7.15" y="5.27" width="2.71" height="2.11"/><polygon class="cls-5" points="31.78 9.31 31.78 26.84 5.28 26.84 5.28 9.31 5.28 3.27 31.78 3.27 31.78 9.31"/><line class="cls-5" x1="31.78" y1="9.32" x2="5.28" y2="9.32"/><rect class="cls-6" x="7.15" y="5.27" width="2.71" height="2.11"/><path class="cls-7" d="M17.39,15.81V12h2.27v3.82l-.31,4.65H17.7Zm2.27,7.93H17.39V21.57h2.27Z"/></g></g></svg>