<svg xmlns="http://www.w3.org/2000/svg" viewBox="0 0 26.83 26.05"><defs><style>.cls-1{fill:#fff7cc;}.cls-1,.cls-2{stroke:#1d1d1b;stroke-miterlimit:10;stroke-width:0.82px;}.cls-2{fill:#dbe5f1;}</style></defs><title>Element 157</title><g id="Ebene_2" data-name="Ebene 2"><g id="Ebene_1-2" data-name="Ebene 1"><path class="cls-1" d="M20.69,2.53h0a.51.51,0,0,0-.5-.5h-3a.51.51,0,0,0-.5.5V8.79a.51.51,0,0,0,.5.5h8.68a.5.5,0,0,0,.5-.5V3.53a.5.5,0,0,0-.5-.5H21.18A.49.49,0,0,1,20.69,2.53Z"/><path class="cls-2" d="M3.14,9.74H14.06a2.73,2.73,0,0,1,2.73,2.73V25.64a0,0,0,0,1,0,0H.41a0,0,0,0,1,0,0V12.47A2.73,2.73,0,0,1,3.14,9.74Z"/><line class="cls-2" x1="4.19" y1="25.64" x2="4.19" y2="14.53"/><line class="cls-2" x1="13.01" y1="25.64" x2="13.01" y2="14.53"/><circle class="cls-1" cx="8.6" cy="4.35" r="3.94"/></g></g></svg>