<?xml version="1.0" encoding="utf-8"?>
<!-- Generator: Adobe Illustrator 14.0.0, SVG Export Plug-In . SVG Version: 6.00 Build 43363)  -->
<!DOCTYPE svg PUBLIC "-//W3C//DTD SVG 1.1//EN" "http://www.w3.org/Graphics/SVG/1.1/DTD/svg11.dtd">
<svg version="1.1" id="Ebene_1" xmlns="http://www.w3.org/2000/svg" xmlns:xlink="http://www.w3.org/1999/xlink" x="0px" y="0px"
	 width="52px" height="44px" viewBox="0 0 52 44" enable-background="new 0 0 52 44" xml:space="preserve">
<g>
	<g>
		<circle fill="#FFF7CC" cx="25.365" cy="14.186" r="3.598"/>
		<path d="M25.365,18.198c-2.213,0-4.013-1.8-4.013-4.013s1.8-4.012,4.013-4.012c2.212,0,4.011,1.8,4.011,4.012
			S27.577,18.198,25.365,18.198L25.365,18.198z M25.365,11.001c-1.756,0-3.185,1.428-3.185,3.184s1.429,3.185,3.185,3.185
			c1.755,0,3.183-1.429,3.183-3.185S27.12,11.001,25.365,11.001L25.365,11.001z"/>
	</g>
	<g>
		<path fill="#E3E7F3" d="M30.369,18.939h-9.996c-1.378,0-2.483,1.117-2.483,2.494l-0.007,11.645l3.354,0.01v-9.99h0.266v9.994
			l7.729,0.025v-10.02h0.266v10.021l3.357,0.01l0.001-11.695C32.854,20.056,31.746,18.939,30.369,18.939z"/>
		<path d="M33.268,33.545l-15.799-0.053l0.007-12.059c0-1.604,1.3-2.908,2.897-2.908h9.996c1.599,0,2.899,1.305,2.899,2.908
			L33.268,33.545L33.268,33.545z M29.91,32.707l2.529,0.007l0.001-11.28c0-1.147-0.929-2.08-2.071-2.08h-9.996
			c-1.141,0-2.069,0.933-2.069,2.08l-0.007,11.232l2.525,0.007v-9.99h1.094v9.997l6.9,0.022V22.683h1.094V32.707L29.91,32.707z"/>
	</g>
	<g>
		<circle fill="#FFF7CC" cx="6.799" cy="18.822" r="2.702"/>
		<path d="M6.799,21.938c-1.719,0-3.117-1.398-3.117-3.117c0-1.718,1.398-3.116,3.117-3.116c1.718,0,3.116,1.398,3.116,3.116
			C9.915,20.541,8.517,21.938,6.799,21.938L6.799,21.938z M6.799,16.534c-1.263,0-2.289,1.026-2.289,2.288s1.026,2.289,2.289,2.289
			c1.262,0,2.288-1.027,2.288-2.289S8.061,16.534,6.799,16.534L6.799,16.534z"/>
	</g>
	<g>
		<circle fill="#FFF7CC" cx="43.94" cy="18.822" r="2.702"/>
		<path d="M43.94,21.938c-1.72,0-3.118-1.398-3.118-3.116c0-1.719,1.398-3.117,3.118-3.117c1.717,0,3.114,1.398,3.114,3.117
			C47.055,20.541,45.657,21.938,43.94,21.938L43.94,21.938z M43.94,16.534c-1.263,0-2.29,1.027-2.29,2.289
			c0,1.261,1.027,2.288,2.29,2.288c1.261,0,2.286-1.026,2.286-2.288C46.227,17.561,45.201,16.534,43.94,16.534L43.94,16.534z"/>
	</g>
	<g>
		<circle fill="#FFF7CC" cx="34.795" cy="15.667" r="3.25"/>
		<path d="M34.795,19.33c-2.02,0-3.663-1.644-3.663-3.665c0-2.02,1.644-3.663,3.663-3.663c2.021,0,3.666,1.643,3.666,3.663
			C38.461,17.686,36.816,19.33,34.795,19.33L34.795,19.33z M34.795,12.831c-1.563,0-2.835,1.271-2.835,2.834
			c0,1.564,1.271,2.836,2.835,2.836c1.564,0,2.838-1.272,2.838-2.836C37.633,14.103,36.359,12.831,34.795,12.831L34.795,12.831z"/>
	</g>
	<g>
		<path fill="#FFF7CC" d="M15.943,18.916c1.793,0,3.248-1.455,3.248-3.25c0-1.794-1.455-3.249-3.248-3.249
			c-1.798,0-3.252,1.454-3.252,3.249C12.691,17.461,14.146,18.916,15.943,18.916z"/>
		<path d="M15.943,19.33c-2.021,0-3.666-1.644-3.666-3.665c0-2.02,1.645-3.663,3.666-3.663c2.02,0,3.662,1.643,3.662,3.663
			C19.605,17.686,17.963,19.33,15.943,19.33L15.943,19.33z M15.943,12.831c-1.564,0-2.838,1.271-2.838,2.834
			c0,1.564,1.273,2.836,2.838,2.836c1.562,0,2.834-1.272,2.834-2.836C18.777,14.103,17.506,12.831,15.943,12.831L15.943,12.831z"/>
	</g>
	<g>
		<path fill="#E3E7F3" d="M48.954,33.092l-0.004-8.746c0-1.033-0.834-1.873-1.868-1.873l-5.426,0.093l0.007,10.552l4.572-0.016
			v-7.506h0.121V33.1L48.954,33.092z"/>
		<path d="M41.249,33.532l-0.007-11.374l5.833-0.1c1.266,0,2.289,1.025,2.289,2.287l0.004,9.16L41.249,33.532L41.249,33.532z
			 M42.07,22.973l0.007,9.729l3.744-0.012v-7.508h0.949v7.503l1.77-0.005l-0.004-8.334c0-0.805-0.652-1.459-1.454-1.459
			L42.07,22.973L42.07,22.973z"/>
	</g>
	<g>
		<path fill="#E3E7F3" d="M1.787,24.346l-0.004,8.746L4.381,33.1v-7.504h0.12v7.506l4.573,0.016L9.08,22.568l-5.425-0.095
			C2.621,22.473,1.787,23.312,1.787,24.346z"/>
		<path d="M9.488,33.533l-8.119-0.027l0.004-9.16c0-1.262,1.023-2.287,2.282-2.287l5.839,0.103L9.488,33.533L9.488,33.533z
			 M4.915,32.689l3.745,0.013l0.006-9.728l-5.018-0.088c-0.795,0-1.447,0.654-1.447,1.459L2.197,32.68l1.77,0.005v-7.503h0.948
			V32.689L4.915,32.689z"/>
	</g>
	<g>
		<path fill="#E3E7F3" d="M39.147,20.313h-6.222c0.15,0.343,0.232,0.723,0.232,1.121l-0.002,11.678l5.006-0.018v-9.025h0.135v9.025
			l3.101-0.011l-0.007-10.515C41.391,21.321,40.39,20.313,39.147,20.313z"/>
		<path d="M32.742,33.527l0.002-12.094c0-0.334-0.066-0.655-0.197-0.955l-0.255-0.58h6.855c1.465,0,2.657,1.197,2.657,2.669
			l0.007,10.928l-3.929,0.014l0,0L32.742,33.527L32.742,33.527z M33.495,20.727c0.051,0.229,0.077,0.466,0.077,0.707L33.57,32.695
			l4.178-0.014v-9.027h0.963v9.024l2.272-0.009l-0.007-10.102c0-1.016-0.82-1.841-1.829-1.841H33.495L33.495,20.727z"/>
	</g>
	<g>
		<path fill="#E3E7F3" d="M11.592,20.313c-1.244,0-2.246,1.008-2.246,2.255L9.34,33.083l3.1,0.011v-9.025h0.136v9.025l5.005,0.018
			l-0.003-11.678c0-0.397,0.085-0.777,0.233-1.121H11.592z"/>
		<path d="M17.994,33.527l-5.141-0.018l0,0l-3.928-0.014l0.006-10.928c0-1.472,1.193-2.669,2.66-2.669h6.849l-0.25,0.579
			c-0.132,0.306-0.199,0.627-0.199,0.956L17.994,33.527L17.994,33.527z M12.989,32.682l4.177,0.014l-0.003-11.262
			c0-0.239,0.026-0.475,0.078-0.707h-5.649c-1.01,0-1.832,0.826-1.832,1.841L9.754,32.67l2.271,0.009v-9.024h0.964V32.682
			L12.989,32.682z"/>
	</g>
</g>
</svg>
