<?xml version="1.0" encoding="utf-8"?>
<!-- Generator: Adobe Illustrator 14.0.0, SVG Export Plug-In . SVG Version: 6.00 Build 43363)  -->
<!DOCTYPE svg PUBLIC "-//W3C//DTD SVG 1.1//EN" "http://www.w3.org/Graphics/SVG/1.1/DTD/svg11.dtd">
<svg version="1.1" id="Ebene_1" xmlns="http://www.w3.org/2000/svg" xmlns:xlink="http://www.w3.org/1999/xlink" x="0px" y="0px"
	 width="52px" height="44px" viewBox="0 0 52 44" enable-background="new 0 0 52 44" xml:space="preserve">
<g>
	<g>
		<polygon fill-rule="evenodd" clip-rule="evenodd" points="37.23,15.938 29.141,15.938 31.764,13.58 39.855,13.58 		"/>
		<polygon fill-rule="evenodd" clip-rule="evenodd" points="37.23,15.938 29.141,15.938 31.764,13.58 39.855,13.58 		"/>
	</g>
	<g>
		<polygon fill="#FFFFFF" stroke="#008FB4" stroke-width="0.3327" stroke-miterlimit="3.8637" points="35.736,9.095 35.736,12.724 
			37.053,12.724 34.545,15.231 32.038,12.724 33.377,12.724 33.377,9.095 		"/>
		<polygon fill="none" stroke="#008FB4" stroke-width="0.6143" stroke-miterlimit="3.8637" points="35.736,9.095 35.736,12.724 
			37.053,12.724 34.545,15.231 32.038,12.724 33.377,12.724 33.377,9.095 		"/>
	</g>
	<g>
		
			<line fill-rule="evenodd" clip-rule="evenodd" fill="none" stroke="#008FB4" stroke-width="0.5877" stroke-miterlimit="3.8637" x1="37.186" y1="24.334" x2="37.186" y2="15.601"/>
	</g>
</g>
<g>
	<g>
		<polygon fill-rule="evenodd" clip-rule="evenodd" fill="none" stroke="#008FB4" stroke-width="0.8293" points="29.026,15.993 
			29.051,24.24 37.297,24.24 39.91,21.786 39.932,13.539 31.686,13.539 		"/>
		<polygon fill-rule="evenodd" clip-rule="evenodd" fill="none" stroke="#008FB4" stroke-width="0.8293" points="29.026,15.993 
			29.051,24.24 37.297,24.24 39.91,21.786 39.932,13.539 31.686,13.539 		"/>
	</g>
</g>
<g>
	<polygon fill-rule="evenodd" clip-rule="evenodd" points="37.23,15.938 29.141,15.938 31.764,13.58 39.855,13.58 	"/>
	<polygon fill-rule="evenodd" clip-rule="evenodd" points="37.23,15.938 29.141,15.938 31.764,13.58 39.855,13.58 	"/>
</g>
<g>
	<g>
		<polygon fill="#FFFFFF" points="35.736,9.095 35.736,12.724 37.053,12.724 34.545,15.231 32.038,12.724 33.377,12.724 
			33.377,9.095 		"/>
		<path d="M34.545,15.467l-2.91-2.909h1.575V8.929h2.692v3.629h1.553L34.545,15.467L34.545,15.467z M32.439,12.891l2.106,2.105
			l2.105-2.105h-1.08V9.262h-2.027v3.629H32.439L32.439,12.891z"/>
	</g>
	<g>
		<path d="M34.545,15.666l-3.25-3.249h1.774V8.788h2.973v3.629h1.752L34.545,15.666L34.545,15.666z M32.779,13.031l1.766,1.766
			l1.766-1.766H35.43V9.402h-1.746v3.629H32.779L32.779,13.031z"/>
	</g>
</g>
<g>
	<g>
		<polygon points="37.479,24.334 36.891,24.334 36.891,15.601 37.479,15.601 37.479,24.334 		"/>
	</g>
</g>
<g>
	<g>
		<g>
			<linearGradient id="SVGID_1_" gradientUnits="userSpaceOnUse" x1="34.4785" y1="24.2402" x2="34.4785" y2="13.5391">
				<stop  offset="0" style="stop-color:#FFFFFF"/>
				<stop  offset="0.2747" style="stop-color:#FFE6B3"/>
				<stop  offset="0.7857" style="stop-color:#D2BF96"/>
				<stop  offset="0.989" style="stop-color:#FFE6B3"/>
			</linearGradient>
			<polygon fill-rule="evenodd" clip-rule="evenodd" fill="url(#SVGID_1_)" stroke="#008FB4" stroke-width="0.8293" points="
				29.026,15.993 29.051,24.24 37.297,24.24 39.91,21.786 39.932,13.539 31.686,13.539 			"/>
			<polygon fill-rule="evenodd" clip-rule="evenodd" fill="#FFF7CC" stroke="#008FB4" stroke-width="0.8293" points="29.026,15.993 
				29.051,24.24 37.297,24.24 39.91,21.786 39.932,13.539 31.686,13.539 			"/>
		</g>
	</g>
	<g>
		<polygon fill-rule="evenodd" clip-rule="evenodd" points="37.23,15.938 29.141,15.938 31.764,13.58 39.855,13.58 		"/>
		<polygon fill-rule="evenodd" clip-rule="evenodd" points="37.23,15.938 29.141,15.938 31.764,13.58 39.855,13.58 		"/>
	</g>
	<g>
		<polygon fill="#FFFFFF" stroke="#008FB4" stroke-width="0.3327" stroke-miterlimit="3.8637" points="35.736,9.095 35.736,12.724 
			37.053,12.724 34.545,15.231 32.038,12.724 33.377,12.724 33.377,9.095 		"/>
		<polygon fill="none" stroke="#008FB4" stroke-width="0.6143" stroke-miterlimit="3.8637" points="35.736,9.095 35.736,12.724 
			37.053,12.724 34.545,15.231 32.038,12.724 33.377,12.724 33.377,9.095 		"/>
	</g>
	<g>
		
			<line fill-rule="evenodd" clip-rule="evenodd" fill="none" stroke="#008FB4" stroke-width="0.5877" stroke-miterlimit="3.8637" x1="37.186" y1="24.334" x2="37.186" y2="15.601"/>
	</g>
</g>
<g>
	<g>
		<g>
			<path d="M37.461,24.654h-8.824l-0.027-8.842l2.914-2.688h8.824l-0.023,8.841L37.461,24.654L37.461,24.654z M29.464,23.826h7.668
				l2.363-2.22l0.02-7.653h-7.667l-2.408,2.221L29.464,23.826L29.464,23.826z"/>
		</g>
		<g>
			<path d="M37.461,24.654h-8.824l-0.027-8.842l2.914-2.688h8.824l-0.023,8.841L37.461,24.654L37.461,24.654z M29.464,23.826h7.668
				l2.363-2.22l0.02-7.653h-7.667l-2.408,2.221L29.464,23.826L29.464,23.826z"/>
		</g>
	</g>
</g>
<g>
	<polygon fill-rule="evenodd" clip-rule="evenodd" points="37.23,15.938 29.141,15.938 31.764,13.58 39.855,13.58 	"/>
	<polygon fill-rule="evenodd" clip-rule="evenodd" points="37.23,15.938 29.141,15.938 31.764,13.58 39.855,13.58 	"/>
</g>
<g>
	<g>
		<polygon fill="#FFFFFF" points="35.736,9.095 35.736,12.724 37.053,12.724 34.545,15.231 32.038,12.724 33.377,12.724 
			33.377,9.095 		"/>
		<path d="M34.545,15.467l-2.91-2.909h1.575V8.929h2.692v3.629h1.553L34.545,15.467L34.545,15.467z M32.439,12.891l2.106,2.105
			l2.105-2.105h-1.08V9.262h-2.027v3.629H32.439L32.439,12.891z"/>
	</g>
	<g>
		<path d="M34.545,15.666l-3.25-3.249h1.774V8.788h2.973v3.629h1.752L34.545,15.666L34.545,15.666z M32.779,13.031l1.766,1.766
			l1.766-1.766H35.43V9.402h-1.746v3.629H32.779L32.779,13.031z"/>
	</g>
</g>
<g>
	<g>
		<polygon points="37.479,24.334 36.891,24.334 36.891,15.601 37.479,15.601 37.479,24.334 		"/>
	</g>
</g>
<g>
	<path fill="#E3E7F3" stroke="#000000" stroke-width="0.828" d="M27.787,18.723H16.63c-1.54,0-2.776,1.247-2.776,2.785
		l-0.008,13.059h3.386v-0.414h0.654v0.414h8.633v-0.414h0.654v0.414h3.386l0.003-13.059C30.562,19.97,29.323,18.723,27.787,18.723z"
		/>
	<path d="M30.973,34.98H13.43l0.009-13.473c0-1.764,1.431-3.199,3.191-3.199h11.157c1.759,0,3.19,1.435,3.19,3.199L30.973,34.98
		L30.973,34.98z"/>
	<path fill="#DBE5EF" d="M30.144,34.152l0.003-12.645c0-1.307-1.059-2.37-2.361-2.37H16.63c-1.302,0-2.362,1.063-2.362,2.37
		L14.26,34.152H17.1l0,0h1.2l0,0h7.804l0,0h1.2l0,0H30.144z"/>
	<path d="M22.202,17.705c-2.444,0-4.432-1.988-4.432-4.433c0-2.444,1.988-4.432,4.432-4.432c2.443,0,4.431,1.988,4.431,4.432
		C26.632,15.716,24.645,17.705,22.202,17.705L22.202,17.705z"/>
	<path fill="#FFF7CC" d="M22.202,9.669c-1.987,0-3.603,1.616-3.603,3.603c0,1.987,1.616,3.604,3.603,3.604
		c1.986,0,3.602-1.617,3.602-3.604C25.803,11.286,24.188,9.669,22.202,9.669L22.202,9.669z"/>
</g>
</svg>
