<?xml version="1.0" encoding="utf-8"?>
<!-- Generator: Adobe Illustrator 14.0.0, SVG Export Plug-In . SVG Version: 6.00 Build 43363)  -->
<!DOCTYPE svg PUBLIC "-//W3C//DTD SVG 1.1//EN" "http://www.w3.org/Graphics/SVG/1.1/DTD/svg11.dtd" [
	<!ENTITY ns_extend "http://ns.adobe.com/Extensibility/1.0/">
	<!ENTITY ns_ai "http://ns.adobe.com/AdobeIllustrator/10.0/">
	<!ENTITY ns_graphs "http://ns.adobe.com/Graphs/1.0/">
	<!ENTITY ns_vars "http://ns.adobe.com/Variables/1.0/">
	<!ENTITY ns_imrep "http://ns.adobe.com/ImageReplacement/1.0/">
	<!ENTITY ns_sfw "http://ns.adobe.com/SaveForWeb/1.0/">
	<!ENTITY ns_custom "http://ns.adobe.com/GenericCustomNamespace/1.0/">
	<!ENTITY ns_adobe_xpath "http://ns.adobe.com/XPath/1.0/">
]>
<svg version="1.1" id="Ebene_1" xmlns:x="&ns_extend;" xmlns:i="&ns_ai;" xmlns:graph="&ns_graphs;"
	 xmlns="http://www.w3.org/2000/svg" xmlns:xlink="http://www.w3.org/1999/xlink" x="0px" y="0px" width="195px" height="89px"
	 viewBox="0 0 195 89" enable-background="new 0 0 195 89" xml:space="preserve">
<metadata>
	<sfw  xmlns="&ns_sfw;">
		<slices></slices>
		<sliceSourceBounds  x="217.911" y="393.508" width="158.537" height="53.368" bottomLeftOrigin="true"></sliceSourceBounds>
	</sfw>
</metadata>
<g>
	<path fill="none" stroke="#000000" stroke-width="0.783" d="M144.989,19.28c0.807-0.483,1.748-0.289,2.219,0.493
		c0.471,0.783,0.213,1.671-0.617,2.169c-0.801,0.483-1.729,0.312-2.229-0.516C143.905,20.665,144.185,19.764,144.989,19.28z"/>
	<path fill="none" stroke="#000000" stroke-width="0.783" d="M146.442,24.112c0.824,0.445,1.137,1.354,0.703,2.159
		c-0.432,0.802-1.328,1.034-2.178,0.575c-0.83-0.446-1.15-1.333-0.693-2.18C144.696,23.884,145.612,23.665,146.442,24.112z"/>
	<path fill="none" stroke="#000000" stroke-width="0.783" d="M143.013,27.846c0.037,0.94-0.586,1.668-1.498,1.708
		c-0.914,0.036-1.568-0.617-1.607-1.58c-0.037-0.94,0.562-1.671,1.525-1.709C142.319,26.229,142.976,26.909,143.013,27.846z"/>
	<path fill="none" stroke="#000000" stroke-width="0.783" d="M138.04,26.773c-0.791,0.508-1.734,0.341-2.23-0.426
		s-0.266-1.661,0.545-2.185c0.789-0.51,1.721-0.365,2.246,0.444C139.083,25.353,138.829,26.263,138.04,26.773z"/>
	<path fill="#B0007C" stroke="#000000" stroke-width="0.783" d="M136.454,21.961c-0.844-0.419-1.182-1.319-0.771-2.137
		c0.408-0.815,1.297-1.074,2.16-0.641c0.842,0.419,1.191,1.293,0.76,2.159C138.206,22.136,137.296,22.38,136.454,21.961z"/>
	<path fill="none" stroke="#000000" stroke-width="0.783" d="M139.778,18.163c-0.066-0.938,0.533-1.688,1.447-1.753
		c0.912-0.063,1.582,0.569,1.65,1.536c0.068,0.934-0.51,1.684-1.473,1.752C140.519,19.759,139.843,19.103,139.778,18.163z"/>
</g>
<g>
	<path fill="#044254" d="M113.437,21.331h-68.25c-14.764,0-26.775,10.777-26.775,24.025s12.012,24.025,26.775,24.025h68.25
		c14.764,0,26.775-10.777,26.775-24.025S128.2,21.331,113.437,21.331z"/>
	<path fill="#DAE5EB" d="M113.435,68.099H45.187c-14.055,0-25.492-10.203-25.492-22.743c0-12.539,11.438-22.74,25.492-22.74h68.248
		c14.057,0,25.494,10.201,25.494,22.74C138.929,57.896,127.491,68.099,113.435,68.099L113.435,68.099z"/>
</g>
<polygon fill="#FFF7CC" points="159.96,21.405 176.538,21.405 176.538,31.231 159.96,31.231 159.96,21.405 "/>
<polygon fill="none" points="159.96,21.405 176.538,21.405 176.538,31.231 159.96,31.231 159.96,21.405 "/>
<g>
	<defs>
		<polygon id="SVGID_1_" points="159.96,21.405 176.538,21.405 176.538,31.231 159.96,31.231 159.96,21.405 		"/>
	</defs>
	<clipPath id="SVGID_2_">
		<use xlink:href="#SVGID_1_"  overflow="visible"/>
	</clipPath>
	<use xlink:href="#SVGID_1_"  overflow="visible" fill="none" stroke="#000000" stroke-width="0.82"/>
</g>
<path fill="#E3E7F3" stroke="#000000" stroke-width="0.828" d="M159.44,30.411h-11.158c-1.539,0-2.775,1.246-2.775,2.784
	l-0.008,13.06h3.385V35.382h0.654v10.873h8.633V35.382h0.654v10.873h3.387l0.004-13.06C162.216,31.657,160.976,30.411,159.44,30.411
	z"/>
<path d="M162.626,46.669h-17.543l0.01-13.475c0-1.764,1.43-3.198,3.189-3.198h11.158c1.758,0,3.189,1.435,3.189,3.199
	L162.626,46.669L162.626,46.669z"/>
<path fill="#DBE5EF" d="M161.798,45.84l0.002-12.645c0-1.307-1.059-2.37-2.359-2.37h-11.158c-1.301,0-2.361,1.063-2.361,2.37
	l-0.008,12.645h2.84V34.967h1.199V45.84h7.805V34.967h1.201V45.84H161.798z"/>
<path d="M153.854,29.392c-2.443,0-4.432-1.988-4.432-4.432c0-2.444,1.988-4.432,4.432-4.432s4.432,1.987,4.432,4.432
	C158.286,27.403,156.298,29.392,153.854,29.392L153.854,29.392z"/>
<path fill="#FFF7CC" d="M153.854,21.356c-1.986,0-3.604,1.617-3.604,3.604s1.617,3.604,3.604,3.604s3.602-1.617,3.602-3.604
	S155.841,21.356,153.854,21.356L153.854,21.356z"/>
<g>
	<defs>
		<path id="SVGID_3_" d="M161.798,45.84l0.002-12.645c0-1.307-1.059-2.37-2.359-2.37h-11.158c-1.301,0-2.361,1.063-2.361,2.37
			l-0.008,12.645h2.84V34.967h1.199V45.84h7.805V34.967h1.201V45.84H161.798z"/>
	</defs>
	<clipPath id="SVGID_4_">
		<use xlink:href="#SVGID_3_"  overflow="visible"/>
	</clipPath>
</g>
</svg>
