<?xml version="1.0" encoding="utf-8"?>
<!-- Generator: Adobe Illustrator 14.0.0, SVG Export Plug-In . SVG Version: 6.00 Build 43363)  -->
<!DOCTYPE svg PUBLIC "-//W3C//DTD SVG 1.1//EN" "http://www.w3.org/Graphics/SVG/1.1/DTD/svg11.dtd">
<svg version="1.1" id="Ebene_1" xmlns="http://www.w3.org/2000/svg" xmlns:xlink="http://www.w3.org/1999/xlink" x="0px" y="0px"
	 width="52px" height="44px" viewBox="0 0 52 44" enable-background="new 0 0 52 44" xml:space="preserve">
<path d="M42.719,11.477c0-0.405-0.258-0.746-0.623-0.879v-0.065c-0.01-0.57-0.457-1.019-1.027-1.029h-4.91
	c-0.574,0.011-1.02,0.458-1.031,1.028h-6.021c-0.441,0.019-0.791,0.319-0.908,0.732c-0.465,0.103-0.812,0.489-0.826,0.988v7.372
	c0.014,0.571,0.463,1.02,1.033,1.031h12.664c0.57-0.011,1.018-0.46,1.027-1.031v-0.868l0.621-7.192
	C42.717,11.53,42.719,11.509,42.719,11.477z"/>
<path d="M42.719,11.477c0-0.405-0.258-0.746-0.623-0.879v-0.065c-0.01-0.57-0.457-1.019-1.027-1.029h-4.91
	c-0.574,0.011-1.02,0.458-1.031,1.028h-6.021c-0.441,0.019-0.791,0.319-0.908,0.732c-0.465,0.103-0.812,0.489-0.826,0.988v7.372
	c0.014,0.571,0.463,1.02,1.033,1.031h12.664c0.57-0.011,1.018-0.46,1.027-1.031v-0.868l0.621-7.192
	C42.717,11.53,42.719,11.509,42.719,11.477z"/>
<path d="M42.719,11.477c0-0.396-0.248-0.728-0.601-0.867v-0.077c0-0.568-0.481-1.048-1.05-1.048h-4.91
	c-0.566,0-1.046,0.479-1.048,1.046h-6.005c-0.435,0.019-0.777,0.311-0.899,0.713c-0.473,0.099-0.848,0.508-0.848,1.006v7.373
	c0,0.568,0.479,1.048,1.046,1.048h12.664c0.568,0,1.05-0.48,1.05-1.048v-1.129l0.599-6.932
	C42.717,11.53,42.719,11.509,42.719,11.477z"/>
<path fill="#FFF7CC" d="M35.525,11.617v-1.084c0-0.336,0.293-0.634,0.633-0.634h4.91c0.336,0,0.635,0.297,0.635,0.634v1.492v1.362
	v6.236c0,0.336-0.299,0.633-0.635,0.633H28.404c-0.338,0-0.631-0.297-0.631-0.633V12.25c0-0.338,0.293-0.633,0.631-0.633
	L35.525,11.617z"/>
<g>
	<g>
		<path d="M41.068,20.671H28.404c-0.566,0-1.046-0.48-1.046-1.048V12.25c0-0.568,0.479-1.048,1.046-1.048l6.706,0v-0.669
			c0-0.568,0.48-1.048,1.048-1.048h4.91c0.568,0,1.05,0.48,1.05,1.048v9.09C42.118,20.191,41.637,20.671,41.068,20.671
			L41.068,20.671z M36.158,10.313c-0.108,0-0.218,0.111-0.218,0.219v1.499l-7.536,0c-0.109,0-0.216,0.108-0.216,0.219v7.373
			c0,0.108,0.108,0.219,0.216,0.219h12.664c0.107,0,0.22-0.112,0.22-0.219v-9.09c0-0.106-0.112-0.219-0.22-0.219H36.158
			L36.158,10.313z"/>
	</g>
</g>
<g>
	<defs>
		<path id="SVGID_1_" d="M42.719,11.477c0-0.405-0.258-0.746-0.623-0.879v-0.065c-0.01-0.57-0.457-1.019-1.027-1.029h-4.91
			c-0.574,0.011-1.02,0.458-1.031,1.028h-6.021c-0.441,0.019-0.791,0.319-0.908,0.732c-0.465,0.103-0.812,0.489-0.826,0.988v7.372
			c0.014,0.571,0.463,1.02,1.033,1.031h12.664c0.57-0.011,1.018-0.46,1.027-1.031v-0.868l0.621-7.192
			C42.717,11.53,42.719,11.509,42.719,11.477z"/>
	</defs>
	<clipPath id="SVGID_2_">
		<use xlink:href="#SVGID_1_"  overflow="visible"/>
	</clipPath>
</g>
<g>
	<defs>
		<path id="SVGID_3_" d="M42.719,11.477c0-0.405-0.258-0.746-0.623-0.879v-0.065c-0.01-0.57-0.457-1.019-1.027-1.029h-4.91
			c-0.574,0.011-1.02,0.458-1.031,1.028h-6.021c-0.441,0.019-0.791,0.319-0.908,0.732c-0.465,0.103-0.812,0.489-0.826,0.988v7.372
			c0.014,0.571,0.463,1.02,1.033,1.031h12.664c0.57-0.011,1.018-0.46,1.027-1.031v-0.868l0.621-7.192
			C42.717,11.53,42.719,11.509,42.719,11.477z"/>
	</defs>
	<clipPath id="SVGID_4_">
		<use xlink:href="#SVGID_3_"  overflow="visible"/>
	</clipPath>
</g>
<g>
	<path fill="#E3E7F3" stroke="#000000" stroke-width="0.828" d="M27.621,17.557H16.464c-1.54,0-2.776,1.247-2.776,2.785L13.68,33.4
		h3.386V22.527h0.653V33.4h8.634V22.527h0.653V33.4h3.387l0.004-13.059C30.396,18.804,29.157,17.557,27.621,17.557z"/>
	<path d="M30.807,33.814H13.264l0.01-13.474c0-1.764,1.431-3.199,3.19-3.199h11.157c1.758,0,3.189,1.435,3.189,3.199L30.807,33.814
		L30.807,33.814z"/>
	<path fill="#DBE5EF" d="M29.979,32.986l0.003-12.645c0-1.307-1.06-2.37-2.36-2.37H16.464c-1.302,0-2.362,1.063-2.362,2.37
		l-0.008,12.645h2.84V22.113h1.2v10.874h7.804V22.113h1.201v10.874H29.979z"/>
	<path d="M22.035,16.538c-2.443,0-4.432-1.988-4.432-4.433c0-2.444,1.988-4.432,4.432-4.432s4.432,1.988,4.432,4.432
		C26.467,14.55,24.479,16.538,22.035,16.538L22.035,16.538z"/>
	<path fill="#FFF7CC" d="M22.035,8.503c-1.986,0-3.603,1.616-3.603,3.603c0,1.987,1.616,3.604,3.603,3.604s3.602-1.617,3.602-3.604
		C25.637,10.119,24.021,8.503,22.035,8.503L22.035,8.503z"/>
</g>
</svg>
