<?xml version="1.0" encoding="utf-8"?>
<!-- Generator: Adobe Illustrator 14.0.0, SVG Export Plug-In . SVG Version: 6.00 Build 43363)  -->
<!DOCTYPE svg PUBLIC "-//W3C//DTD SVG 1.1//EN" "http://www.w3.org/Graphics/SVG/1.1/DTD/svg11.dtd">
<svg version="1.1" id="Ebene_1" xmlns="http://www.w3.org/2000/svg" xmlns:xlink="http://www.w3.org/1999/xlink" x="0px" y="0px"
	 width="52px" height="44px" viewBox="0 0 52 44" enable-background="new 0 0 52 44" xml:space="preserve">
<path fill="#DBE5EF" d="M20.795,18.939c0,0,0.637-1.817,2.885-3.257c2.25-1.442,3.735-0.848,3.735-0.848
	c0.013,0.04,1.501,0.634,3.749-0.808c2.249-1.441,2.885-3.256,2.885-3.256l2.326,7.15c0,0-0.641,1.817-2.887,3.258
	c-2.248,1.44-3.734,0.847-3.734,0.847c-0.014-0.041-1.501-0.634-3.75,0.807c-2.25,1.441-2.885,3.258-2.885,3.258L20.795,18.939z"/>
<path d="M34.067,9.489l-0.409,1.143c-0.006,0.017-0.63,1.707-2.718,3.045c-1.746,1.121-2.917,0.914-3.231,0.828l-0.14-0.056
	c-0.084-0.034-1.604-0.725-4.113,0.884c-2.342,1.5-3.024,3.39-3.053,3.469l-0.046,0.132l0.022,0.067l-0.036,0.012l4.639,14.281
	l0.874-0.004l-2.32-7.129c0.126-0.3,0.812-1.778,2.691-2.98c1.742-1.117,2.909-0.913,3.229-0.828l0.145,0.058
	c0.082,0.032,1.606,0.721,4.111-0.884c2.339-1.5,3.026-3.389,3.054-3.469l0.047-0.132L34.067,9.489z M33.265,20.829
	c-2.053,1.313-3.358,0.812-3.358,0.812h0.001c-0.303-0.163-0.796-0.185-1.044-0.185c-0.675,0-1.758,0.178-3.083,1.027
	c-1.335,0.855-2.131,1.836-2.573,2.537l-1.971-6.064c0.182-0.411,0.891-1.786,2.667-2.924c2.056-1.317,3.357-0.812,3.357-0.812
	l0.001-0.001c0.303,0.163,0.795,0.185,1.042,0.185c0.676,0,1.759-0.178,3.084-1.028c1.335-0.855,2.13-1.835,2.573-2.536l1.973,6.063
	C35.748,18.316,35.025,19.699,33.265,20.829z"/>
</svg>
