<?xml version="1.0" encoding="utf-8"?>
<!-- Generator: Adobe Illustrator 14.0.0, SVG Export Plug-In . SVG Version: 6.00 Build 43363)  -->
<!DOCTYPE svg PUBLIC "-//W3C//DTD SVG 1.1//EN" "http://www.w3.org/Graphics/SVG/1.1/DTD/svg11.dtd">
<svg version="1.1" id="Ebene_1" xmlns="http://www.w3.org/2000/svg" xmlns:xlink="http://www.w3.org/1999/xlink" x="0px" y="0px"
	 width="52px" height="44px" viewBox="0 0 52 44" enable-background="new 0 0 52 44" xml:space="preserve">
<path fill-rule="evenodd" clip-rule="evenodd" fill="#FFF7CC" d="M41.073,13.918h-1.088c-0.131-0.519-0.336-1.01-0.604-1.457
	l0.771-0.771c0.125-0.126,0.125-0.35,0-0.476l-1.43-1.43c-0.129-0.127-0.352-0.127-0.477,0l-0.771,0.769
	c-0.447-0.268-0.904-0.46-1.424-0.591l-0.033-0.042V8.864c0-0.18-0.158-0.338-0.336-0.338h-2.021c-0.178,0-0.34,0.158-0.34,0.338
	v1.087c-0.516,0.131-1.006,0.336-1.453,0.604l-0.771-0.769c-0.125-0.127-0.35-0.127-0.477,0l-1.432,1.43
	c-0.123,0.126-0.123,0.35,0,0.476l0.771,0.771c-0.266,0.446-0.463,0.905-0.592,1.424l-0.039,0.033h-1.061
	c-0.18,0-0.336,0.158-0.336,0.337v2.022c0,0.18,0.156,0.337,0.336,0.337h1.088c0.129,0.519,0.338,1.009,0.604,1.457l-0.771,0.77
	c-0.123,0.126-0.123,0.351,0,0.477l1.432,1.43c0.127,0.126,0.352,0.126,0.477,0l0.771-0.769c0.447,0.268,0.904,0.459,1.424,0.591
	l0.029,0.043v1.057c0,0.179,0.162,0.337,0.34,0.337h2.021c0.178,0,0.336-0.158,0.336-0.337v-1.087
	c0.52-0.133,1.01-0.336,1.457-0.604l0.771,0.769c0.125,0.126,0.348,0.126,0.477,0l1.43-1.43c0.125-0.126,0.125-0.351,0-0.477
	l-0.771-0.77c0.268-0.448,0.463-0.906,0.594-1.425l0.039-0.032h1.059c0.182,0,0.34-0.157,0.34-0.337v-2.022
	C41.413,14.077,41.255,13.918,41.073,13.918z M34.671,18.846c-1.975,0-3.578-1.602-3.578-3.58c0-1.976,1.604-3.579,3.578-3.579
	c1.979,0,3.58,1.603,3.58,3.579C38.251,17.244,36.649,18.846,34.671,18.846z"/>
<g>
	<path d="M35.683,22.421h-2.021c-0.409,0-0.755-0.344-0.755-0.751v-0.777c-0.337-0.104-0.657-0.235-0.968-0.398l-0.549,0.547
		c-0.27,0.272-0.787,0.275-1.062,0l-1.432-1.43c-0.283-0.29-0.283-0.773-0.003-1.06L29.445,18c-0.165-0.315-0.3-0.64-0.403-0.971
		h-0.773c-0.407,0-0.751-0.344-0.751-0.751v-2.022c0-0.407,0.344-0.751,0.751-0.751h0.775c0.101-0.333,0.233-0.654,0.401-0.971
		l-0.55-0.548c-0.282-0.29-0.282-0.773-0.003-1.059l1.435-1.434c0.275-0.274,0.79-0.276,1.065,0.002l0.546,0.544
		c0.311-0.163,0.634-0.297,0.968-0.402V8.864c0-0.408,0.346-0.752,0.755-0.752h2.021c0.407,0,0.751,0.345,0.751,0.752V9.64
		c0.337,0.103,0.658,0.235,0.972,0.4l0.549-0.547c0.268-0.269,0.781-0.276,1.061-0.001l1.432,1.432
		c0.286,0.288,0.286,0.773,0.001,1.061l-0.55,0.55c0.162,0.31,0.297,0.634,0.401,0.971h0.774c0.409,0,0.755,0.344,0.755,0.751v2.022
		c0,0.407-0.346,0.751-0.755,0.751h-0.774c-0.103,0.335-0.235,0.656-0.401,0.971l0.549,0.548c0.286,0.289,0.286,0.774,0.001,1.062
		l-1.431,1.431c-0.285,0.281-0.791,0.276-1.064-0.001l-0.547-0.545c-0.309,0.162-0.634,0.296-0.972,0.402v0.774
		C36.434,22.077,36.09,22.421,35.683,22.421L35.683,22.421z M33.736,21.592h1.867v-1.331l0.312-0.08
		c0.48-0.123,0.934-0.311,1.347-0.558l0.276-0.167l0.946,0.943l1.319-1.32l-0.944-0.943l0.166-0.278
		c0.255-0.427,0.429-0.845,0.547-1.313l0.033-0.132l0.221-0.181l0.188-0.032h0.983v-1.867h-1.336l-0.079-0.313
		c-0.12-0.476-0.308-0.929-0.557-1.345l-0.167-0.278l0.945-0.944l-1.319-1.319l-0.945,0.942l-0.277-0.166
		c-0.422-0.252-0.839-0.425-1.312-0.545l-0.137-0.034l-0.177-0.224l-0.033-0.186V8.941h-1.867v1.333l-0.313,0.079
		c-0.473,0.12-0.924,0.308-1.342,0.558l-0.277,0.166l-0.945-0.942l-1.321,1.319l0.944,0.943l-0.165,0.277
		c-0.258,0.433-0.432,0.85-0.546,1.312l-0.032,0.131L29.52,14.3l-0.19,0.033h-0.981V16.2h1.333l0.078,0.314
		c0.114,0.463,0.303,0.916,0.558,1.346l0.165,0.277l-0.944,0.942l1.321,1.32l0.946-0.943l0.276,0.167
		c0.418,0.25,0.835,0.423,1.312,0.544l0.152,0.039l0.161,0.235l0.029,0.171V21.592L33.736,21.592z M34.671,19.26
		c-2.201,0-3.993-1.792-3.993-3.994c0-2.202,1.792-3.994,3.993-3.994c2.203,0,3.995,1.792,3.995,3.994
		C38.666,17.469,36.874,19.26,34.671,19.26L34.671,19.26z M34.671,12.102c-1.744,0-3.163,1.419-3.163,3.165s1.419,3.165,3.163,3.165
		c1.745,0,3.165-1.42,3.165-3.165S36.416,12.102,34.671,12.102L34.671,12.102z"/>
</g>
<g>
	<path fill="#E3E7F3" stroke="#000000" stroke-width="0.828" d="M28.371,16.557H17.214c-1.54,0-2.776,1.247-2.776,2.785L14.429,32.4
		h3.386V21.527h0.654V32.4h8.633V21.527h0.654V32.4h3.386l0.003-13.059C31.146,17.804,29.907,16.557,28.371,16.557z"/>
	<path d="M31.557,32.814H14.014l0.009-13.474c0-1.764,1.431-3.199,3.191-3.199h11.157c1.759,0,3.19,1.435,3.19,3.199L31.557,32.814
		L31.557,32.814z"/>
	<path fill="#DBE5EF" d="M30.728,31.986l0.003-12.645c0-1.307-1.059-2.37-2.361-2.37H17.214c-1.302,0-2.362,1.063-2.362,2.37
		l-0.008,12.645h2.839V21.113h1.2v10.874h7.804V21.113h1.2v10.874H30.728z"/>
	<path d="M22.786,15.538c-2.444,0-4.432-1.988-4.432-4.433c0-2.444,1.988-4.432,4.432-4.432c2.443,0,4.431,1.988,4.431,4.432
		C27.216,13.55,25.229,15.538,22.786,15.538L22.786,15.538z"/>
	<path fill="#FFF7CC" d="M22.786,7.503c-1.987,0-3.603,1.616-3.603,3.603c0,1.987,1.616,3.604,3.603,3.604
		c1.986,0,3.602-1.617,3.602-3.604C26.387,9.119,24.771,7.503,22.786,7.503L22.786,7.503z"/>
</g>
</svg>
