<?xml version="1.0" encoding="UTF-8" standalone="no"?>
<svg
   xmlns:dc="http://purl.org/dc/elements/1.1/"
   xmlns:cc="http://creativecommons.org/ns#"
   xmlns:rdf="http://www.w3.org/1999/02/22-rdf-syntax-ns#"
   xmlns:svg="http://www.w3.org/2000/svg"
   xmlns="http://www.w3.org/2000/svg"
   xmlns:sodipodi="http://sodipodi.sourceforge.net/DTD/sodipodi-0.dtd"
   xmlns:inkscape="http://www.inkscape.org/namespaces/inkscape"
   width="24"
   height="24"
   viewBox="0 0 24 24"
   version="1.1"
   id="svg4"
   sodipodi:docname="iconmonstr-magnifier-7.svg"
   inkscape:export-filename="C:\Users\Daniel\git\MosaicFX\resources\svg\magnifier1.png"
   inkscape:export-xdpi="96"
   inkscape:export-ydpi="96"
   inkscape:version="1.0.1 (3bc2e813f5, 2020-09-07)">
  <metadata
     id="metadata10">
    <rdf:RDF>
      <cc:Work
         rdf:about="">
        <dc:format>image/svg+xml</dc:format>
        <dc:type
           rdf:resource="http://purl.org/dc/dcmitype/StillImage" />
      </cc:Work>
    </rdf:RDF>
  </metadata>
  <defs
     id="defs8">
    <rect
       x="-17.886792"
       y="37.584906"
       width="127.01887"
       height="78.566038"
       id="rect878" />
    <rect
       x="-10"
       y="-85"
       width="150"
       height="75"
       id="rect865" />
  </defs>
  <sodipodi:namedview
     pagecolor="#ffffff"
     bordercolor="#666666"
     borderopacity="1"
     objecttolerance="10"
     gridtolerance="10"
     guidetolerance="10"
     inkscape:pageopacity="0"
     inkscape:pageshadow="2"
     inkscape:window-width="1920"
     inkscape:window-height="1001"
     id="namedview6"
     showgrid="false"
     inkscape:zoom="17.666667"
     inkscape:cx="18.147806"
     inkscape:cy="17.73494"
     inkscape:window-x="-9"
     inkscape:window-y="-9"
     inkscape:window-maximized="1"
     inkscape:current-layer="svg4"
     inkscape:snap-center="true">
    <inkscape:grid
       type="xygrid"
       id="grid12" />
  </sodipodi:namedview>
  <path
     id="path841"
     style="fill:#000000"
     d="M 9 0 C 4.029 0 5.5913607e-17 4.029 0 9 C 0 13.971 4.029 18 9 18 C 10.761 18 12.397156 17.487281 13.785156 16.613281 L 21.171875 24 L 24 21.171875 L 16.613281 13.785156 C 17.486281 12.398156 18 10.761 18 9 C 18 4.029 13.971 5.5913607e-17 9 0 z M 9 2 C 12.859 2 16 5.14 16 9 C 16 12.86 12.859 16 9 16 C 5.141 16 2 12.86 2 9 C 2 5.14 5.141 2 9 2 z " />
  <rect
     style="fill:#000000;fill-opacity:1;stroke:none;stroke-width:1;stroke-linecap:round;stroke-linejoin:round;stroke-miterlimit:4;stroke-dasharray:3, 3;stroke-dashoffset:0;paint-order:markers fill stroke"
     id="rect14"
     width="8"
     height="2"
     x="-5.8679247"
     y="27.047171"
     ry="1" />
  <path
     style="fill:#ffffff;stroke:none;stroke-width:1px;stroke-linecap:butt;stroke-linejoin:miter;stroke-opacity:1"
     d="M 3,10 C 3,10 4.3214887,6.6785113 5.5,5.5 6.6785113,4.3214887 10,3 10,3 5.3089198,3 3,5 3,10 Z"
     id="path861"
     sodipodi:nodetypes="czcc" />
  <g
     aria-label="1:1"
     transform="matrix(0.24366978,0,0,0.24366978,4.1117793,24.378933)"
     id="text863"
     style="font-style:normal;font-weight:normal;font-size:40px;line-height:1.25;font-family:sans-serif;white-space:pre;shape-inside:url(#rect865);fill:#000000;fill-opacity:1;stroke:none;stroke-width:4.10391">
    <path
       d="m 7.2890625,-51.629451 v -17.773438 c -3.3072917,2.539063 -5.5338542,3.808594 -6.6796875,3.808594 -0.546875,0 -1.03515623,-0.214844 -1.4648437,-0.644531 -0.4166667,-0.442709 -0.625,-0.950521 -0.625,-1.523438 0,-0.664062 0.2083333,-1.152343 0.625,-1.464843 0.41666667,-0.3125 1.15234373,-0.716146 2.2070312,-1.210938 1.5755208,-0.742187 2.8320312,-1.523437 3.7695313,-2.34375 0.9505208,-0.820313 1.7903645,-1.738281 2.5195312,-2.753906 0.7291667,-1.015625 1.2044271,-1.640625 1.4257813,-1.875 0.2213541,-0.234375 0.6380208,-0.351563 1.2499997,-0.351563 0.690104,0 1.24349,0.266927 1.660157,0.800782 0.416666,0.533854 0.625,1.269531 0.625,2.207031 v 22.363281 c 0,2.617187 -0.891928,3.925781 -2.6757817,3.925781 -0.7942709,0 -1.4322917,-0.266927 -1.9140625,-0.800781 -0.4817709,-0.533854 -0.7226563,-1.321614 -0.7226563,-2.363281 z"
       style="font-style:normal;font-variant:normal;font-weight:normal;font-stretch:normal;font-family:'Arial Rounded MT Bold';-inkscape-font-specification:'Arial Rounded MT Bold, ';stroke-width:4.10391"
       id="path869"
       sodipodi:nodetypes="scscssccsssssssss" />
    <path
       d="m 19.358818,-48.465389 c -0.807292,0 -1.503906,-0.260417 -2.089844,-0.78125 -0.585937,-0.520833 -0.878906,-1.25 -0.878906,-2.1875 0,-0.794271 0.279948,-1.477864 0.839843,-2.050781 0.559896,-0.572917 1.250001,-0.859375 2.070313,-0.859375 0.820313,0 1.516928,0.286458 2.089844,0.859375 0.585938,0.559896 0.878906,1.24349 0.878906,2.050781 0,0.924479 -0.292968,1.653646 -0.878906,2.1875 -0.572916,0.520833 -1.25,0.78125 -2.03125,0.78125 z m -2.96875,-18.769531 c 0,-0.924479 0.286459,-1.640625 0.859375,-2.148437 0.585938,-0.507813 1.289063,-0.761719 2.109375,-0.761719 0.794271,0 1.477865,0.260417 2.050781,0.78125 0.572917,0.507813 0.859375,1.217448 0.859375,2.128906 0,0.729167 -0.3125,1.39974 -0.9375,2.011719 -0.625,0.611979 -1.302083,0.917969 -2.03125,0.917969 -0.79427,0 -1.477864,-0.292969 -2.050781,-0.878907 -0.572916,-0.585937 -0.859375,-1.269531 -0.859375,-2.050781 z"
       style="font-style:normal;font-variant:normal;font-weight:normal;font-stretch:normal;font-family:'Arial Rounded MT Bold';-inkscape-font-specification:'Arial Rounded MT Bold, ';stroke-width:4.10391"
       id="path871"
       sodipodi:nodetypes="ssssscscsscscsssss" />
    <path
       d="m 33.578125,-51.629451 v -17.773438 c -3.307292,2.539063 -5.533855,3.808594 -6.679688,3.808594 -0.546875,0 -1.035156,-0.214844 -1.464843,-0.644531 -0.416667,-0.442709 -0.625,-0.950521 -0.625,-1.523438 0,-0.664062 0.208333,-1.152343 0.625,-1.464843 0.416667,-0.3125 1.152344,-0.716146 2.207031,-1.210938 1.575521,-0.742187 2.832031,-1.523437 3.769531,-2.34375 0.950521,-0.820313 1.790364,-1.738281 2.519531,-2.753906 0.729167,-1.015625 1.204427,-1.640625 1.425782,-1.875 0.221354,-0.234375 0.638021,-0.351563 1.25,-0.351563 0.690104,0 1.243489,0.266927 1.660156,0.800782 0.416667,0.533854 0.625,1.269531 0.625,2.207031 v 22.363281 c 0,2.617187 -0.891927,3.925781 -2.675781,3.925781 -0.794271,0 -1.432292,-0.266927 -1.914063,-0.800781 -0.481771,-0.533854 -0.722656,-1.321614 -0.722656,-2.363281 z"
       style="font-style:normal;font-variant:normal;font-weight:normal;font-stretch:normal;font-family:'Arial Rounded MT Bold';-inkscape-font-specification:'Arial Rounded MT Bold, ';stroke-width:4.10391"
       id="path873"
       sodipodi:nodetypes="scscssccsssssssss" />
  </g>
  <text
     xml:space="preserve"
     id="text876"
     style="fill:black;fill-opacity:1;line-height:1.25;stroke:none;font-family:sans-serif;font-style:normal;font-weight:normal;font-size:40px;white-space:pre;shape-inside:url(#rect878);" />
</svg>
