<?xml version="1.0" encoding="UTF-8" standalone="no"?>
<svg
   xmlns:dc="http://purl.org/dc/elements/1.1/"
   xmlns:cc="http://creativecommons.org/ns#"
   xmlns:rdf="http://www.w3.org/1999/02/22-rdf-syntax-ns#"
   xmlns:svg="http://www.w3.org/2000/svg"
   xmlns="http://www.w3.org/2000/svg"
   xmlns:sodipodi="http://sodipodi.sourceforge.net/DTD/sodipodi-0.dtd"
   xmlns:inkscape="http://www.inkscape.org/namespaces/inkscape"
   width="24"
   height="24"
   viewBox="0 0 24 24"
   version="1.1"
   id="svg4"
   sodipodi:docname="iconmonstr-magnifier-7.svg"
   inkscape:export-filename="C:\Users\Daniel\git\MosaicFX\resources\svg\magnifier+.png"
   inkscape:export-xdpi="96"
   inkscape:export-ydpi="96"
   inkscape:version="1.0.1 (3bc2e813f5, 2020-09-07)">
  <metadata
     id="metadata10">
    <rdf:RDF>
      <cc:Work
         rdf:about="">
        <dc:format>image/svg+xml</dc:format>
        <dc:type
           rdf:resource="http://purl.org/dc/dcmitype/StillImage" />
      </cc:Work>
    </rdf:RDF>
  </metadata>
  <defs
     id="defs8" />
  <sodipodi:namedview
     pagecolor="#ffffff"
     bordercolor="#666666"
     borderopacity="1"
     objecttolerance="10"
     gridtolerance="10"
     guidetolerance="10"
     inkscape:pageopacity="0"
     inkscape:pageshadow="2"
     inkscape:window-width="1920"
     inkscape:window-height="1001"
     id="namedview6"
     showgrid="true"
     inkscape:zoom="17.666667"
     inkscape:cx="-11.121884"
     inkscape:cy="20.103402"
     inkscape:window-x="-9"
     inkscape:window-y="-9"
     inkscape:window-maximized="1"
     inkscape:current-layer="svg4">
    <inkscape:grid
       type="xygrid"
       id="grid12" />
  </sodipodi:namedview>
  <path
     id="path841"
     style="fill:#000000"
     d="M 9 0 C 4.029 0 5.5913607e-17 4.029 0 9 C 0 13.971 4.029 18 9 18 C 10.761 18 12.397156 17.487281 13.785156 16.613281 L 21.171875 24 L 24 21.171875 L 16.613281 13.785156 C 17.486281 12.398156 18 10.761 18 9 C 18 4.029 13.971 5.5913607e-17 9 0 z M 9 2 C 12.859 2 16 5.14 16 9 C 16 12.86 12.859 16 9 16 C 5.141 16 2 12.86 2 9 C 2 5.14 5.141 2 9 2 z " />
  <rect
     style="fill:#000000;stroke:none;stroke-width:1;stroke-linecap:round;stroke-linejoin:round;stroke-dasharray:3, 3;paint-order:markers fill stroke;stroke-miterlimit:4;stroke-dashoffset:0;fill-opacity:1"
     id="rect14"
     width="8"
     height="2"
     x="5"
     y="8"
     ry="1" />
  <rect
     style="fill:#000000;fill-opacity:1;stroke:none;stroke-width:1;stroke-linecap:round;stroke-linejoin:round;stroke-miterlimit:4;stroke-dasharray:3, 3;stroke-dashoffset:0;paint-order:markers fill stroke"
     id="rect14-1"
     width="8"
     height="2"
     x="-13"
     y="8"
     ry="1"
     transform="rotate(-90)" />
  <path
     style="fill:#ffffff;stroke:none;stroke-width:1px;stroke-linecap:butt;stroke-linejoin:miter;stroke-opacity:1"
     d="M 3,10 C 3,10 4.3214887,6.6785113 5.5,5.5 6.6785113,4.3214887 10,3 10,3 5.3089198,3 3,5 3,10 Z"
     id="path861"
     sodipodi:nodetypes="czcc" />
</svg>
