<?xml version="1.0" encoding="UTF-8" standalone="no"?>
<svg
   width="24"
   height="24"
   viewBox="0 0 24 24"
   version="1.1"
   id="svg4"
   sodipodi:docname="iconmonstr-note-26.svg"
   inkscape:version="1.2.1 (9c6d41e410, 2022-07-14)"
   xmlns:inkscape="http://www.inkscape.org/namespaces/inkscape"
   xmlns:sodipodi="http://sodipodi.sourceforge.net/DTD/sodipodi-0.dtd"
   xmlns="http://www.w3.org/2000/svg"
   xmlns:svg="http://www.w3.org/2000/svg">
  <defs
     id="defs8" />
  <sodipodi:namedview
     id="namedview6"
     pagecolor="#ffffff"
     bordercolor="#000000"
     borderopacity="0.25"
     inkscape:showpageshadow="2"
     inkscape:pageopacity="0.0"
     inkscape:pagecheckerboard="0"
     inkscape:deskcolor="#d1d1d1"
     showgrid="false"
     inkscape:zoom="32.333333"
     inkscape:cx="12"
     inkscape:cy="11.92268"
     inkscape:window-width="1920"
     inkscape:window-height="974"
     inkscape:window-x="-11"
     inkscape:window-y="-11"
     inkscape:window-maximized="1"
     inkscape:current-layer="svg4" />
  <path
     d="M 4,22 V 2 H 20 V 13.543 C 20,17.65 14,16 14,16 c 0,0 1.518,6 -2.638,6 z M 22,14.386 V 0 H 2 V 24 H 12.189 C 15.352,24 22,16.777 22,14.386 Z"
     id="path2"
     sodipodi:nodetypes="cccscscscccss" />
  <path
     style="fill:#ffe680;stroke:#000000;stroke-width:0.935141"
     d="M 4.0206186,12.00068 V 2.0257732 h 7.9799114 7.979912 l -0.0083,6.0386598 -0.0083,6.03866 -0.06941,0.247422 c -0.292955,1.044328 -1.030251,1.641117 -2.318315,1.87651 -0.481586,0.08801 -1.577429,0.09538 -2.189598,0.01472 -0.384976,-0.05072 -1.245531,-0.212096 -1.354962,-0.254089 -0.06359,-0.0244 -0.06429,-0.05094 0.0074,0.281828 0.308926,1.434152 0.280512,2.937925 -0.07427,3.930554 -0.162709,0.455238 -0.332163,0.728838 -0.650328,1.050015 -0.23581,0.238042 -0.323255,0.303082 -0.572165,0.425564 -0.161598,0.07952 -0.405155,0.175699 -0.541237,0.213734 l -0.247423,0.06916 -3.9664946,0.0085 -3.9664948,0.0085 z"
     id="path414" />
</svg>
