<svg xmlns="http://www.w3.org/2000/svg" viewBox="0 0 29.5 22.86"><defs><style>.cls-1{fill:#fff;}.cls-2,.cls-4{fill:#e3edfa;stroke:#1d1d1b;stroke-width:0.82px;}.cls-2{stroke-miterlimit:3.86;}.cls-3{fill:#1d1d1b;}.cls-4{stroke-linejoin:round;}</style></defs><title>Case_Desktop_2</title><g id="Ebene_2" data-name="Ebene 2"><g id="Ebene_1-2" data-name="Ebene 1"><rect class="cls-1" x="7.82" y="18.6" width="9.85" height="2.27" rx="0.76" ry="0.76"/><rect class="cls-2" x="0.41" y="0.41" width="24.69" height="18.14" rx="1.84" ry="1.84"/><path class="cls-2" d="M17.09,20.12a.72.72,0,0,1-.67.76H9.08a.71.71,0,0,1-.66-.76v-.76a.71.71,0,0,1,.66-.76h7.34a.72.72,0,0,1,.67.76Z"/><rect class="cls-3" x="2.79" y="2.79" width="19.92" height="13.48"/><rect class="cls-4" x="11.84" y="12.24" width="1.83" height="18.6" rx="0.71" ry="0.71" transform="translate(34.29 8.79) rotate(90)"/><path class="cls-4" d="M29.1,21.74a.71.71,0,0,1-.72.71H24.33a.71.71,0,0,1-.72-.71h0a1.68,1.68,0,0,1,1.68-1.68h2.13a1.68,1.68,0,0,1,1.68,1.68Z"/></g></g></svg>