<svg xmlns="http://www.w3.org/2000/svg" viewBox="0 0 27.64 28.29"><defs><style>.cls-1,.cls-5{fill:#e3edfa;}.cls-1,.cls-3,.cls-5{stroke:#1d1d1b;stroke-width:0.82px;}.cls-1,.cls-3{stroke-miterlimit:3.86;}.cls-2{fill:#1d1d1b;}.cls-3{fill:#b8c9d9;stroke-linecap:round;}.cls-4{fill:#e94e1b;}.cls-5{stroke-linejoin:round;}.cls-6{fill:#9baab7;}.cls-7{fill:none;}</style></defs><title>Case_All_In_One_2</title><g id="Ebene_2" data-name="Ebene 2"><g id="Ebene_1-2" data-name="Ebene 1"><rect class="cls-1" x="0.41" y="0.41" width="21.56" height="19.31" rx="1.61" ry="1.61"/><rect class="cls-2" x="2.65" y="2.49" width="17.4" height="11.77"/><line class="cls-3" x1="12.04" y1="16.87" x2="19.74" y2="16.87"/><rect class="cls-4" x="2.65" y="16.17" width="1.39" height="1.39" rx="0.42" ry="0.42"/><rect class="cls-5" x="23.05" y="21.29" width="4.18" height="6.59" rx="1.66" ry="1.66"/><path class="cls-5" d="M19.58,27.73H2.78c-.79,0-1.4-.52-1.3-1.1l.73-4.33a1.24,1.24,0,0,1,1.31-.86H18.85a1.24,1.24,0,0,1,1.3.86l.74,4.33C21,27.21,20.37,27.73,19.58,27.73Z"/><polygon class="cls-6" points="18.68 24.15 18.8 24.9 16.16 24.9 16.07 24.06 18.66 24.06 18.68 24.15"/><polygon class="cls-6" points="15.93 22.7 18.43 22.7 18.59 23.56 16.02 23.56 15.93 22.7"/><polygon class="cls-6" points="15.8 26.47 13.04 26.47 13.01 25.4 15.7 25.4 15.8 26.47"/><polygon class="cls-6" points="15.56 24.06 15.64 24.9 12.98 24.9 12.96 24.06 15.56 24.06"/><polygon class="cls-6" points="15.43 22.7 15.52 23.56 12.95 23.56 12.91 22.7 15.43 22.7"/><polygon class="cls-6" points="19.07 26.47 16.32 26.47 16.2 25.4 18.89 25.4 19.07 26.47"/><polygon class="cls-6" points="12.51 25.4 12.54 26.47 9.77 26.47 9.8 25.4 12.51 25.4"/><polygon class="cls-6" points="12.46 24.06 12.48 24.9 9.81 24.9 9.85 24.06 12.46 24.06"/><polygon class="cls-6" points="12.41 22.7 12.45 23.56 9.87 23.56 9.89 22.7 12.41 22.7"/><polygon class="cls-6" points="6.5 26.47 6.61 25.4 9.3 25.4 9.27 26.47 6.5 26.47"/><polygon class="cls-6" points="9.35 24.06 9.31 24.9 6.66 24.9 6.75 24.06 9.35 24.06"/><polygon class="cls-6" points="3.87 22.7 6.38 22.7 6.29 23.56 3.71 23.56 3.87 22.7"/><polygon class="cls-6" points="3.65 24.06 6.24 24.06 6.16 24.9 3.5 24.9 3.62 24.16 3.65 24.06"/><polygon class="cls-6" points="9.39 22.7 9.37 23.56 6.79 23.56 6.88 22.7 9.39 22.7"/><polygon class="cls-6" points="3.23 26.47 3.4 25.4 6.11 25.4 6 26.47 3.23 26.47"/><line class="cls-7" x1="12.98" y1="24.9" x2="15.64" y2="24.9"/></g></g></svg>