<svg xmlns="http://www.w3.org/2000/svg" viewBox="0 0 29.12 27.96"><defs><style>.cls-1,.cls-3{fill:#e3edfa;stroke:#1d1d1b;stroke-width:0.82px;}.cls-1{stroke-miterlimit:3.86;}.cls-2{fill:#1d1d1b;}.cls-3{stroke-linejoin:round;}.cls-4{fill:#9baab7;}.cls-5{fill:none;}</style></defs><title>Case_Desktop_1</title><g id="Ebene_2" data-name="Ebene 2"><g id="Ebene_1-2" data-name="Ebene 1"><rect class="cls-1" x="0.41" y="0.41" width="24.69" height="18.14" rx="1.84" ry="1.84"/><rect class="cls-2" x="2.79" y="2.79" width="19.92" height="13.48"/><path class="cls-3" d="M21.18,27.4H4.38c-.79,0-1.4-.52-1.3-1.1L3.81,22a1.24,1.24,0,0,1,1.31-.86H20.45a1.24,1.24,0,0,1,1.3.86l.74,4.33C22.58,26.88,22,27.4,21.18,27.4Z"/><rect class="cls-3" x="24.53" y="20.96" width="4.18" height="6.59" rx="1.66" ry="1.66"/><polygon class="cls-4" points="20.28 23.82 20.4 24.57 17.75 24.57 17.66 23.73 20.26 23.73 20.28 23.82"/><polygon class="cls-4" points="17.52 22.37 20.03 22.37 20.18 23.23 17.61 23.23 17.52 22.37"/><polygon class="cls-4" points="17.4 26.14 14.63 26.14 14.6 25.07 17.29 25.07 17.4 26.14"/><polygon class="cls-4" points="17.16 23.73 17.24 24.57 14.58 24.57 14.55 23.73 17.16 23.73"/><polygon class="cls-4" points="17.02 22.37 17.11 23.23 14.54 23.23 14.51 22.37 17.02 22.37"/><polygon class="cls-4" points="20.67 26.14 17.91 26.14 17.8 25.07 20.49 25.07 20.67 26.14"/><polygon class="cls-4" points="14.1 25.07 14.13 26.14 11.36 26.14 11.4 25.07 14.1 25.07"/><polygon class="cls-4" points="14.05 23.73 14.08 24.57 11.41 24.57 11.44 23.73 14.05 23.73"/><polygon class="cls-4" points="14.01 22.37 14.04 23.23 11.46 23.23 11.49 22.37 14.01 22.37"/><polygon class="cls-4" points="8.09 26.14 8.2 25.07 10.9 25.07 10.86 26.14 8.09 26.14"/><polygon class="cls-4" points="10.94 23.73 10.91 24.57 8.25 24.57 8.34 23.73 10.94 23.73"/><polygon class="cls-4" points="5.46 22.37 7.97 22.37 7.89 23.23 5.31 23.23 5.46 22.37"/><polygon class="cls-4" points="5.25 23.73 7.83 23.73 7.75 24.57 5.09 24.57 5.21 23.83 5.25 23.73"/><polygon class="cls-4" points="10.99 22.37 10.96 23.23 8.39 23.23 8.48 22.37 10.99 22.37"/><polygon class="cls-4" points="4.82 26.14 5 25.07 7.7 25.07 7.59 26.14 4.82 26.14"/><line class="cls-5" x1="14.58" y1="24.57" x2="17.24" y2="24.57"/></g></g></svg>