<svg xmlns="http://www.w3.org/2000/svg" viewBox="0 0 40.86 27.96"><defs><style>.cls-1,.cls-5{fill:#e3edfa;}.cls-1,.cls-2,.cls-5{stroke:#1d1d1b;stroke-width:0.82px;}.cls-1,.cls-2{stroke-miterlimit:3.86;}.cls-2{fill:#b8c9d9;stroke-linecap:round;}.cls-3{fill:#e94e1b;}.cls-4{fill:#1d1d1b;}.cls-5{stroke-linejoin:round;}.cls-6{fill:#9baab7;}.cls-7{fill:none;}</style></defs><title>Case_Desktop_4</title><g id="Ebene_2" data-name="Ebene 2"><g id="Ebene_1-2" data-name="Ebene 1"><rect class="cls-1" x="4.77" y="16.29" width="3.96" height="12.68" rx="0.79" ry="0.79" transform="translate(-15.88 29.37) rotate(-90)"/><line class="cls-2" x1="6.08" y1="22.63" x2="10.52" y2="22.63"/><rect class="cls-3" x="1.81" y="21.9" width="1.45" height="1.45" rx="0.42" ry="0.42"/><rect class="cls-1" x="12.15" y="0.41" width="24.69" height="18.14" rx="1.84" ry="1.84"/><rect class="cls-4" x="14.54" y="2.79" width="19.92" height="13.48"/><rect class="cls-5" x="36.27" y="20.96" width="4.18" height="6.59" rx="1.66" ry="1.66"/><path class="cls-5" d="M32.93,27.4H16.13c-.79,0-1.4-.52-1.3-1.1L15.56,22a1.24,1.24,0,0,1,1.31-.86H32.2a1.24,1.24,0,0,1,1.3.86l.74,4.33C34.33,26.88,33.72,27.4,32.93,27.4Z"/><polygon class="cls-6" points="32.03 23.82 32.15 24.57 29.5 24.57 29.41 23.73 32.01 23.73 32.03 23.82"/><polygon class="cls-6" points="29.27 22.37 31.78 22.37 31.93 23.23 29.36 23.23 29.27 22.37"/><polygon class="cls-6" points="29.15 26.14 26.38 26.14 26.35 25.07 29.04 25.07 29.15 26.14"/><polygon class="cls-6" points="28.91 23.73 28.99 24.57 26.33 24.57 26.3 23.73 28.91 23.73"/><polygon class="cls-6" points="28.77 22.37 28.86 23.23 26.29 23.23 26.26 22.37 28.77 22.37"/><polygon class="cls-6" points="32.42 26.14 29.66 26.14 29.55 25.07 32.24 25.07 32.42 26.14"/><polygon class="cls-6" points="25.85 25.07 25.88 26.14 23.11 26.14 23.15 25.07 25.85 25.07"/><polygon class="cls-6" points="25.8 23.73 25.83 24.57 23.16 24.57 23.19 23.73 25.8 23.73"/><polygon class="cls-6" points="25.76 22.37 25.79 23.23 23.21 23.23 23.24 22.37 25.76 22.37"/><polygon class="cls-6" points="19.84 26.14 19.95 25.07 22.65 25.07 22.61 26.14 19.84 26.14"/><polygon class="cls-6" points="22.69 23.73 22.66 24.57 20 24.57 20.09 23.73 22.69 23.73"/><polygon class="cls-6" points="17.21 22.37 19.72 22.37 19.64 23.23 17.06 23.23 17.21 22.37"/><polygon class="cls-6" points="17 23.73 19.58 23.73 19.5 24.57 16.84 24.57 16.96 23.83 17 23.73"/><polygon class="cls-6" points="22.74 22.37 22.71 23.23 20.14 23.23 20.23 22.37 22.74 22.37"/><polygon class="cls-6" points="16.57 26.14 16.75 25.07 19.45 25.07 19.34 26.14 16.57 26.14"/><line class="cls-7" x1="26.33" y1="24.57" x2="28.99" y2="24.57"/></g></g></svg>