<svg xmlns="http://www.w3.org/2000/svg" viewBox="0 0 19.98 3.54"><defs><style>.cls-1{fill:none;stroke:#9baab7;stroke-linecap:round;stroke-linejoin:round;stroke-width:0.82px;}</style></defs><title>Internal_Coupling_medium</title><g id="Ebene_2" data-name="Ebene 2"><g id="Ebene_1-2" data-name="Ebene 1"><path class="cls-1" d="M8,1.77H8A1.37,1.37,0,0,1,6.63,3.13H1.77A1.36,1.36,0,0,1,.41,1.77h0A1.36,1.36,0,0,1,1.77.41H5.41"/><path class="cls-1" d="M13.75,1.77h0a1.37,1.37,0,0,1-1.37,1.36H8.74"/><path class="cls-1" d="M6.16,1.77h0A1.36,1.36,0,0,1,7.52.41h3.73"/><path class="cls-1" d="M12,1.77h0A1.36,1.36,0,0,1,13.34.41h4.87a1.36,1.36,0,0,1,1.36,1.36h0a1.36,1.36,0,0,1-1.36,1.36H14.57"/></g></g></svg>