<svg xmlns="http://www.w3.org/2000/svg" viewBox="0 0 39.33 28.43"><defs><style>.cls-1{fill:#fff7cc;}.cls-2{fill:#c0d4e0;}.Outline-Ende-Rund-7,.cls-2,.cls-3,.cls-4{stroke:#1d1d1b;stroke-miterlimit:10;stroke-width:0.82px;}.Outline-Ende-Rund-7,.cls-3{fill:none;}.Outline-Ende-Rund-7{stroke-linecap:round;}.cls-4{fill:#fff;}</style></defs><title>IS_Architecture_2</title><g id="Ebene_2" data-name="Ebene 2"><g id="Ebene_1-2" data-name="Ebene 1"><rect class="cls-1" x="0.41" y="3.03" width="36.32" height="24.99" rx="4.02" ry="4.02"/><rect class="cls-2" x="30.03" y="0.41" width="5.05" height="5.05"/><rect class="cls-2" x="26.19" y="7.57" width="5.05" height="5.05"/><rect class="cls-2" x="33.87" y="7.57" width="5.05" height="5.05"/><path class="cls-3" d="M36.73,14.66V24a4,4,0,0,1-4,4H4.43a4,4,0,0,1-4-4V7.05a4,4,0,0,1,4-4H28"/><polyline class="Outline-Ende-Rund-7" points="7.5 19.75 7.5 16.16 23.14 16.16 23.14 19.75"/><line class="Outline-Ende-Rund-7" x1="15.43" y1="16.01" x2="15.43" y2="12.73"/><rect class="cls-4" x="11.41" y="8.53" width="8.05" height="4.2"/><rect class="cls-4" x="20.74" y="19.75" width="4.81" height="4.2"/><rect class="cls-4" x="4.82" y="19.16" width="5.37" height="5.37" rx="2.13" ry="2.13"/></g></g></svg>