<svg xmlns="http://www.w3.org/2000/svg" viewBox="0 0 55.4 33.61"><defs><style>.cls-1{fill:#fff;stroke-width:0.82px;}.cls-1,.cls-3,.cls-5,.cls-6{stroke:#1d1d1b;}.cls-1,.cls-3,.cls-6{stroke-miterlimit:3.86;}.cls-2{fill:#1d1d1b;}.cls-3,.cls-5{fill:#e3edfa;}.cls-3,.cls-5,.cls-6,.cls-7,.cls-8{stroke-width:0.82px;}.cls-4,.cls-8{fill:#e94e1b;}.cls-5{stroke-linejoin:round;}.cls-6{fill:#b8c9d9;stroke-linecap:round;}.cls-7{fill:#d6e7f1;stroke:#0d4252;fill-rule:evenodd;}.cls-7,.cls-8{stroke-miterlimit:10;}.cls-8{stroke:#fff;}</style></defs><title>Mini_specific_Platform_1_2</title><g id="Ebene_2" data-name="Ebene 2"><g id="Ebene_1-2" data-name="Ebene 1"><path class="cls-1" d="M14.46,8.33a1.85,1.85,0,0,1-1.91,1.76H2.32A1.85,1.85,0,0,1,.41,8.33V2.17A1.84,1.84,0,0,1,2.32.41H12.55a1.84,1.84,0,0,1,1.91,1.76Z"/><path class="cls-2" d="M5.11,6.35h0l.64-3.16h.89l-1,4.28H4.56l-1-4.28H4.5Z"/><path class="cls-2" d="M8.27,3.19l.61,3h0l.62-3h1.27V7.47H10V4.05h0L9.22,7.47H8.55L7.79,4.05h0V7.47H7V3.19Z"/><rect class="cls-3" x="15.8" y="3.11" width="11.22" height="23.14" rx="0.79" ry="0.79"/><rect class="cls-4" x="18.14" y="14.4" width="1.44" height="1.44"/><rect class="cls-5" x="37.05" y="16.18" width="1.83" height="18.6" rx="0.71" ry="0.71" transform="translate(63.45 -12.49) rotate(90)"/><path class="cls-5" d="M55,25.68a.71.71,0,0,1-.72.71H50.23a.71.71,0,0,1-.72-.71h0A1.68,1.68,0,0,1,51.19,24h2.12A1.69,1.69,0,0,1,55,25.68Z"/><rect class="cls-3" x="25.63" y="4.35" width="24.69" height="18.14" rx="1.84" ry="1.84"/><rect class="cls-2" x="28.2" y="6.73" width="19.92" height="13.48"/><line class="cls-6" x1="18.47" y1="6.85" x2="24.34" y2="6.85"/><line class="cls-6" x1="18.47" y1="8.51" x2="24.34" y2="8.51"/><line class="cls-6" x1="18.47" y1="10.17" x2="24.34" y2="10.17"/><line class="cls-6" x1="18.47" y1="11.83" x2="24.34" y2="11.83"/><path class="cls-7" d="M13.09,26.18l-.65-.06a3,3,0,0,0-.27-.9l.5-.42a.2.2,0,0,0,0-.28l-.77-.93a.2.2,0,0,0-.28,0l-.5.41a3.3,3.3,0,0,0-.81-.43l0,0,.06-.62a.21.21,0,0,0-.18-.22L9,22.56a.21.21,0,0,0-.21.19l-.06.64a3.37,3.37,0,0,0-.9.28l-.42-.5a.2.2,0,0,0-.28,0l-.93.77a.2.2,0,0,0,0,.28l.41.5a3.3,3.3,0,0,0-.43.81l0,0-.62-.06a.21.21,0,0,0-.22.18l-.11,1.2a.2.2,0,0,0,.18.22l.64.06a3.37,3.37,0,0,0,.28.9l-.5.41a.22.22,0,0,0,0,.29l.77.92a.19.19,0,0,0,.28,0l.5-.41a3.3,3.3,0,0,0,.81.43l0,0-.06.63a.21.21,0,0,0,.18.22l1.2.11a.2.2,0,0,0,.22-.18l.06-.65a3.36,3.36,0,0,0,.9-.27l.42.49a.19.19,0,0,0,.28,0l.93-.77a.2.2,0,0,0,0-.28l-.41-.5a3.3,3.3,0,0,0,.43-.81l0,0,.63.06a.21.21,0,0,0,.22-.18l.11-1.2A.2.2,0,0,0,13.09,26.18Z"/><path class="cls-7" d="M23.56,28.38h-.65a3.19,3.19,0,0,0-.36-.87l.46-.46a.23.23,0,0,0,0-.29l-.86-.85a.21.21,0,0,0-.28,0l-.46.46a3.17,3.17,0,0,0-.85-.35l0,0v-.63a.2.2,0,0,0-.2-.2H19.13a.21.21,0,0,0-.2.2V26a3.26,3.26,0,0,0-.86.36l-.46-.46a.23.23,0,0,0-.29,0l-.85.85a.21.21,0,0,0,0,.29l.46.46a2.77,2.77,0,0,0-.35.85l0,0h-.63a.2.2,0,0,0-.2.2v1.2a.2.2,0,0,0,.2.2h.65a3.19,3.19,0,0,0,.36.87l-.46.46a.21.21,0,0,0,0,.29l.85.85a.23.23,0,0,0,.29,0l.46-.46a2.93,2.93,0,0,0,.85.35V33a.21.21,0,0,0,.2.2h1.21a.2.2,0,0,0,.2-.2v-.65a3.33,3.33,0,0,0,.87-.36l.46.46a.21.21,0,0,0,.28,0L23,31.6a.23.23,0,0,0,0-.29l-.46-.46A3,3,0,0,0,22.9,30l0,0h.63a.21.21,0,0,0,.2-.2v-1.2A.21.21,0,0,0,23.56,28.38Z"/><path class="cls-7" d="M21.06,24.32h-.91a4.24,4.24,0,0,0-.5-1.22l.64-.64a.28.28,0,0,0,0-.4L19.1,20.87a.28.28,0,0,0-.4,0l-.64.64A4.46,4.46,0,0,0,16.87,21l0,0V20.1a.3.3,0,0,0-.29-.28H14.87a.29.29,0,0,0-.28.28V21a4.61,4.61,0,0,0-1.21.5l-.64-.64a.28.28,0,0,0-.4,0l-1.2,1.19a.3.3,0,0,0,0,.4l.65.64a4.17,4.17,0,0,0-.5,1.19l0,0h-.89a.29.29,0,0,0-.28.28v1.69a.29.29,0,0,0,.28.28h.91a4.32,4.32,0,0,0,.51,1.21l-.65.65a.29.29,0,0,0,0,.39l1.2,1.2a.3.3,0,0,0,.4,0l.64-.65a4.06,4.06,0,0,0,1.19.5l0,0v.89a.29.29,0,0,0,.28.28h1.69a.3.3,0,0,0,.29-.28v-.91a4.32,4.32,0,0,0,1.21-.51l.64.65a.3.3,0,0,0,.4,0l1.19-1.2a.27.27,0,0,0,0-.39l-.64-.65a4,4,0,0,0,.49-1.19l0,0h.88a.29.29,0,0,0,.28-.28V24.6A.29.29,0,0,0,21.06,24.32Z"/><circle class="cls-8" cx="15.72" cy="25.44" r="2.56"/></g></g></svg>