<svg xmlns="http://www.w3.org/2000/svg" viewBox="0 0 55.4 30.86"><defs><style>.cls-1{fill:#fff;stroke-width:0.82px;}.cls-1,.cls-3,.cls-5,.cls-6{stroke:#1d1d1b;}.cls-1,.cls-3,.cls-6{stroke-miterlimit:3.86;}.cls-2{fill:#1d1d1b;}.cls-3,.cls-5{fill:#e3edfa;}.cls-3,.cls-5,.cls-6,.cls-8{stroke-width:0.82px;}.cls-4,.cls-8{fill:#e94e1b;}.cls-5{stroke-linejoin:round;}.cls-6{fill:#b8c9d9;stroke-linecap:round;}.cls-7{fill:#d6e7f1;stroke:#0d4252;stroke-width:0.78px;fill-rule:evenodd;}.cls-7,.cls-8{stroke-miterlimit:10;}.cls-8{stroke:#fff;}</style></defs><title>Mini_specific_Platform_1</title><g id="Ebene_2" data-name="Ebene 2"><g id="Ebene_1-2" data-name="Ebene 1"><path class="cls-1" d="M14.46,8.33a1.85,1.85,0,0,1-1.91,1.76H2.32A1.85,1.85,0,0,1,.41,8.33V2.17A1.84,1.84,0,0,1,2.32.41H12.55a1.84,1.84,0,0,1,1.91,1.76Z"/><path class="cls-2" d="M5.11,6.35h0l.64-3.16h.89l-1,4.28H4.56l-1-4.28H4.5Z"/><path class="cls-2" d="M8.27,3.19l.61,3h0l.62-3h1.27V7.47H10V4.05h0L9.22,7.47H8.55L7.79,4.05h0V7.47H7V3.19Z"/><rect class="cls-3" x="15.8" y="3.11" width="11.22" height="23.14" rx="0.79" ry="0.79"/><rect class="cls-4" x="18.14" y="14.4" width="1.44" height="1.44"/><rect class="cls-5" x="37.05" y="16.18" width="1.83" height="18.6" rx="0.71" ry="0.71" transform="translate(63.45 -12.49) rotate(90)"/><path class="cls-5" d="M55,25.68a.71.71,0,0,1-.72.71H50.23a.71.71,0,0,1-.72-.71h0A1.68,1.68,0,0,1,51.19,24h2.12A1.69,1.69,0,0,1,55,25.68Z"/><rect class="cls-3" x="25.63" y="4.35" width="24.69" height="18.14" rx="1.84" ry="1.84"/><rect class="cls-2" x="28.2" y="6.73" width="19.92" height="13.48"/><line class="cls-6" x1="18.47" y1="6.85" x2="24.34" y2="6.85"/><line class="cls-6" x1="18.47" y1="8.51" x2="24.34" y2="8.51"/><line class="cls-6" x1="18.47" y1="10.17" x2="24.34" y2="10.17"/><line class="cls-6" x1="18.47" y1="11.83" x2="24.34" y2="11.83"/><path class="cls-7" d="M20.55,24.48h-.81a4,4,0,0,0-.45-1.08l.57-.57a.25.25,0,0,0,0-.36l-1.06-1a.24.24,0,0,0-.35,0l-.57.57a3.55,3.55,0,0,0-1.06-.44l0,0v-.79a.26.26,0,0,0-.25-.25h-1.5a.26.26,0,0,0-.25.25v.81a4.11,4.11,0,0,0-1.08.45l-.57-.57a.24.24,0,0,0-.35,0l-1.06,1a.25.25,0,0,0,0,.36l.57.57a3.6,3.6,0,0,0-.44,1.05l0,0h-.79a.26.26,0,0,0-.25.25v1.5a.26.26,0,0,0,.25.25h.81a4.26,4.26,0,0,0,.45,1.08l-.57.57a.24.24,0,0,0,0,.35l1.06,1.06a.26.26,0,0,0,.35,0l.57-.57a3.83,3.83,0,0,0,1.06.44l0,0v.78a.25.25,0,0,0,.25.25h1.5a.25.25,0,0,0,.25-.25v-.8A4.11,4.11,0,0,0,17.88,29l.57.57a.26.26,0,0,0,.35,0l1.06-1.06a.24.24,0,0,0,0-.35l-.57-.57a4.1,4.1,0,0,0,.44-1.06l0,0h.79a.25.25,0,0,0,.24-.25v-1.5A.25.25,0,0,0,20.55,24.48Z"/><circle class="cls-8" cx="15.8" cy="25.48" r="2.27"/></g></g></svg>