<svg xmlns="http://www.w3.org/2000/svg" viewBox="0 0 17.53 17.53"><defs><style>.cls-1{fill:#d6e7f1;stroke:#0d4252;stroke-width:0.78px;fill-rule:evenodd;}.cls-1,.cls-2{stroke-miterlimit:10;}.cls-2{fill:#e94e1b;stroke:#fff;}</style></defs><title>OS_Kernel_1</title><g id="Ebene_2" data-name="Ebene 2"><g id="Ebene_1-2" data-name="Ebene 1"><path class="cls-1" d="M16.72,7.09H15.37a6.85,6.85,0,0,0-.75-1.81l1-1a.42.42,0,0,0,0-.59L13.8,2a.42.42,0,0,0-.59,0l-1,1a6.55,6.55,0,0,0-1.77-.73l0-.06V.81A.42.42,0,0,0,10,.39H7.51a.43.43,0,0,0-.42.42V2.16a6.72,6.72,0,0,0-1.81.75l-1-1a.42.42,0,0,0-.59,0L2,3.73a.44.44,0,0,0,0,.59l1,1a6.91,6.91,0,0,0-.74,1.77l0,0H.81a.44.44,0,0,0-.42.42V10a.44.44,0,0,0,.42.42H2.16a6.72,6.72,0,0,0,.75,1.81l-1,1a.44.44,0,0,0,0,.59l1.78,1.77a.42.42,0,0,0,.59,0l1-1a6.29,6.29,0,0,0,1.77.73l0,.06v1.31a.44.44,0,0,0,.42.42H10a.43.43,0,0,0,.42-.42V15.37a6.72,6.72,0,0,0,1.81-.75l1,1a.42.42,0,0,0,.59,0l1.77-1.77a.42.42,0,0,0,0-.59l-1-1a6.55,6.55,0,0,0,.73-1.77l.06,0h1.31a.44.44,0,0,0,.42-.42V7.51A.44.44,0,0,0,16.72,7.09Z"/><circle class="cls-2" cx="8.76" cy="8.77" r="3.81"/></g></g></svg>