<svg xmlns="http://www.w3.org/2000/svg" viewBox="0 0 39.33 28.43"><defs><style>.cls-1{fill:#fff7cc;}.cls-2{fill:#c0d4e0;}.cls-11,.cls-2,.cls-3,.cls-4,.cls-6,.cls-8,.cls-9{stroke:#1d1d1b;}.cls-11,.cls-2,.cls-3{stroke-miterlimit:10;}.cls-11,.cls-2,.cls-3,.cls-4,.cls-6{stroke-width:0.82px;}.cls-3,.cls-6{fill:none;}.cls-11,.cls-4,.cls-9{fill:#fff;}.cls-4,.cls-6,.cls-8,.cls-9{stroke-linejoin:round;}.cls-5,.cls-8{fill:#d6e7f1;}.cls-7{fill:#1b181c;}.cls-8,.cls-9{stroke-width:0.82px;}.cls-10{fill:#a1b505;}.cls-11{stroke-linecap:round;}</style></defs><title>Peripherals Cluster</title><g id="Ebene_2" data-name="Ebene 2"><g id="Ebene_1-2" data-name="Ebene 1"><rect class="cls-1" x="0.41" y="3.03" width="36.32" height="24.99" rx="4.02" ry="4.02"/><rect class="cls-2" x="30.03" y="0.41" width="5.05" height="5.05"/><rect class="cls-2" x="26.19" y="7.57" width="5.05" height="5.05"/><rect class="cls-2" x="33.87" y="7.57" width="5.05" height="5.05"/><path class="cls-3" d="M36.73,14.66V24a4,4,0,0,1-4,4H4.43a4,4,0,0,1-4-4V7.05a4,4,0,0,1,4-4H28"/><rect class="cls-4" x="16.01" y="15.96" width="6.43" height="4.45"/><polygon id="SVGID" class="cls-5" points="12.26 19.37 15.4 19.37 15.86 19.39 22.6 19.39 23.09 19.37 26.27 19.37 26.27 24.97 12.26 24.97 12.26 19.37"/><polygon id="SVGID-2" data-name="SVGID" class="cls-6" points="12.26 19.37 15.4 19.37 15.86 19.39 22.6 19.39 23.09 19.37 26.27 19.37 26.27 24.97 12.26 24.97 12.26 19.37"/><rect class="cls-7" x="14.9" y="20.52" width="0.98" height="0.98" rx="0.22" ry="0.22"/><rect class="cls-7" x="13.5" y="20.52" width="0.98" height="0.98" rx="0.22" ry="0.22"/><rect class="cls-7" x="14.85" y="22.62" width="8.83" height="0.98" rx="0.24" ry="0.24"/><rect class="cls-4" x="16.01" y="23.05" width="6.43" height="2.94"/><path class="cls-8" d="M6.34,17.57h6a1.07,1.07,0,0,0,1.07-1.06l-.52-9.75A.83.83,0,0,0,12.05,6H6.62a.82.82,0,0,0-.82.78l-.52,9.75A1.06,1.06,0,0,0,6.34,17.57Z"/><rect class="cls-9" x="5.28" y="15.44" width="8.11" height="2.13" rx="0.94" ry="0.94"/><rect class="cls-10" x="6.49" y="16.15" width="0.91" height="0.71" rx="0.15" ry="0.15"/><rect class="cls-11" x="16.65" y="5.98" width="1.99" height="1.53"/><path class="cls-8" d="M16.09,7.49H19.2a0,0,0,0,1,0,0V12a1.37,1.37,0,0,1-1.37,1.37h-.37A1.37,1.37,0,0,1,16.09,12V7.49a0,0,0,0,1,0,0Z"/></g></g></svg>