<svg xmlns="http://www.w3.org/2000/svg" viewBox="0 0 39.33 28.43"><defs><style>.cls-1{fill:#fff7cc;}.cls-2{fill:#c0d4e0;}.cls-2,.cls-3,.cls-4{stroke:#1d1d1b;stroke-width:0.82px;}.cls-2,.cls-3{stroke-miterlimit:10;}.cls-3{fill:none;}.cls-4{fill:#b8c9d9;stroke-miterlimit:3.86;}</style></defs><title>Persistance Cluster</title><g id="Ebene_2" data-name="Ebene 2"><g id="Ebene_1-2" data-name="Ebene 1"><rect class="cls-1" x="0.41" y="3.03" width="36.32" height="24.99" rx="4.02" ry="4.02"/><rect class="cls-2" x="30.03" y="0.41" width="5.05" height="5.05"/><rect class="cls-2" x="26.19" y="7.57" width="5.05" height="5.05"/><rect class="cls-2" x="33.87" y="7.57" width="5.05" height="5.05"/><path class="cls-3" d="M36.73,14.66V24a4,4,0,0,1-4,4H4.43a4,4,0,0,1-4-4V7.05a4,4,0,0,1,4-4H28"/><path class="cls-4" d="M7.66,8.31v14.8c0,1.24,3,2.24,6.7,2.24s6.69-1,6.69-2.24V8.31Z"/><path class="cls-4" d="M21.05,8.31c0,1.23-3,2.23-6.69,2.23s-6.7-1-6.7-2.23,3-2.23,6.7-2.23S21.05,7.08,21.05,8.31Z"/></g></g></svg>