<svg xmlns="http://www.w3.org/2000/svg" viewBox="0 0 39.33 28.43"><defs><style>.cls-1,.cls-5{fill:#fff7cc;}.cls-2{fill:#c0d4e0;}.cls-2,.cls-3,.cls-5{stroke:#1d1d1b;stroke-width:0.82px;}.cls-2,.cls-3,.cls-4{stroke-miterlimit:10;}.cls-3{fill:none;}.cls-4{fill:#d6e7f1;stroke:#0d4252;stroke-width:0.78px;fill-rule:evenodd;}.cls-5{stroke-linecap:round;stroke-linejoin:round;}</style></defs><title>Service_Cluster_1</title><g id="Ebene_2" data-name="Ebene 2"><g id="Ebene_1-2" data-name="Ebene 1"><rect class="cls-1" x="0.41" y="3.03" width="36.32" height="24.99" rx="4.02" ry="4.02"/><rect class="cls-2" x="30.03" y="0.41" width="5.05" height="5.05"/><rect class="cls-2" x="26.19" y="7.57" width="5.05" height="5.05"/><rect class="cls-2" x="33.87" y="7.57" width="5.05" height="5.05"/><path class="cls-3" d="M36.73,14.66V24a4,4,0,0,1-4,4H4.43a4,4,0,0,1-4-4V7.05a4,4,0,0,1,4-4H28"/><path class="cls-4" d="M18.25,13.91H17.08a5.1,5.1,0,0,0-.63-1.53v-.06l.8-.8a.37.37,0,0,0,0-.52L15.73,9.48a.37.37,0,0,0-.52,0l-.82.82a6,6,0,0,0-1.56-.64V8.49a.37.37,0,0,0-.37-.36H10.3a.37.37,0,0,0-.37.36V9.66a6,6,0,0,0-1.53.63H8.35l-.81-.8a.36.36,0,0,0-.51,0L5.5,11a.37.37,0,0,0,0,.52l.82.82a5.71,5.71,0,0,0-.64,1.56H4.51a.36.36,0,0,0-.36.36v2.17a.37.37,0,0,0,.36.36H5.68a5.32,5.32,0,0,0,.63,1.53v.05l-.8.81a.36.36,0,0,0,0,.51L7,21.24a.36.36,0,0,0,.51,0l.83-.82a6.07,6.07,0,0,0,1.56.65v1.16a.37.37,0,0,0,.37.36h2.16a.37.37,0,0,0,.37-.36V21.06a5.32,5.32,0,0,0,1.53-.63h.05l.8.8a.37.37,0,0,0,.52,0l1.53-1.53a.36.36,0,0,0,0-.51l-.82-.83a5.71,5.71,0,0,0,.64-1.56h1.17a.37.37,0,0,0,.36-.36V14.28A.38.38,0,0,0,18.25,13.91ZM14.1,18.08a3.84,3.84,0,1,1,0-5.43A3.85,3.85,0,0,1,14.1,18.08Z"/><path class="cls-5" d="M17.83,20.23a3.68,3.68,0,0,0,.29,1l-.83.62,1.16,1.56.82-.61a3.87,3.87,0,0,0,2,.83l.12,1,1.94-.23-.12-1a4,4,0,0,0,1.71-1.26l.94.4.77-1.79-.95-.41a3.66,3.66,0,0,0-.25-2.1l.83-.62-1.17-1.57-.82.61a4,4,0,0,0-2-.83l-.12-1-1.94.23.13,1a3.89,3.89,0,0,0-1.71,1.27L17.69,17l-.77,1.8.95.4A3.89,3.89,0,0,0,17.83,20.23Zm3.66-2.68A2.23,2.23,0,1,1,19.54,20,2.23,2.23,0,0,1,21.49,17.55Z"/></g></g></svg>