<?xml version="1.0" encoding="UTF-8" standalone="no"?>
<svg
   viewBox="0 0 55.4 35.49"
   version="1.1"
   id="svg59"
   xmlns="http://www.w3.org/2000/svg"
   xmlns:svg="http://www.w3.org/2000/svg"
   xmlns:rdf="http://www.w3.org/1999/02/22-rdf-syntax-ns#"
   xmlns:cc="http://creativecommons.org/ns#"
   xmlns:dc="http://purl.org/dc/elements/1.1/">
  <defs
     id="defs11">
    <style
       id="style9">.cls-1,.cls-9{fill:#fff;}.cls-1,.cls-3,.cls-5,.cls-6,.cls-8{stroke:#1d1d1b;}.cls-1,.cls-3,.cls-6,.cls-8{stroke-miterlimit:3.86;}.cls-1,.cls-8{stroke-width:0.82px;}.cls-2{fill:#1d1d1b;}.cls-3,.cls-5{fill:#e3edfa;}.cls-3,.cls-5,.cls-6{stroke-width:0.82px;}.cls-4{fill:#e94e1b;}.cls-5{stroke-linejoin:round;}.cls-6{fill:#b8c9d9;stroke-linecap:round;}.cls-7{fill:#d6e7f1;stroke:#0d4252;stroke-miterlimit:10;stroke-width:0.78px;fill-rule:evenodd;}.cls-8{fill:#9baab7;}</style>
  </defs>
  <title
     id="title13">Specific_Platform_1</title>
  <rect
     class="cls-3"
     x="15.8"
     y="3.1099999"
     width="11.22"
     height="23.139999"
     rx="0.79000002"
     ry="0.79000002"
     id="rect21" />
  <rect
     class="cls-4"
     x="18.139999"
     y="14.4"
     width="1.4400001"
     height="1.4400001"
     id="rect23" />
  <rect
     class="cls-5"
     x="24.559999"
     y="-47.27"
     width="1.83"
     height="18.6"
     rx="0.70999998"
     ry="0.70999998"
     transform="rotate(90)"
     id="rect25" />
  <path
     class="cls-5"
     d="m 55,25.68 a 0.71,0.71 0 0 1 -0.72,0.71 h -4.05 a 0.71,0.71 0 0 1 -0.72,-0.71 v 0 A 1.68,1.68 0 0 1 51.19,24 h 2.12 A 1.69,1.69 0 0 1 55,25.68 Z"
     id="path27" />
  <rect
     class="cls-3"
     x="25.629999"
     y="4.3499999"
     width="24.690001"
     height="18.139999"
     rx="1.84"
     ry="1.84"
     id="rect29" />
  <rect
     class="cls-2"
     x="28.200001"
     y="6.73"
     width="19.92"
     height="13.48"
     id="rect31" />
  <line
     class="cls-6"
     x1="18.469999"
     y1="6.8499999"
     x2="24.34"
     y2="6.8499999"
     id="line33" />
  <line
     class="cls-6"
     x1="18.469999"
     y1="8.5100002"
     x2="24.34"
     y2="8.5100002"
     id="line35" />
  <line
     class="cls-6"
     x1="18.469999"
     y1="10.17"
     x2="24.34"
     y2="10.17"
     id="line37" />
  <line
     class="cls-6"
     x1="18.469999"
     y1="11.83"
     x2="24.34"
     y2="11.83"
     id="line39" />
  <path
     class="cls-7"
     d="m 13.14,22.4 h -0.79 a 3.49,3.49 0 0 0 -0.44,-1 l 0.56,-0.56 a 0.26,0.26 0 0 0 0,-0.35 l -1,-1 a 0.26,0.26 0 0 0 -0.35,0 l -0.56,0.55 a 3.6,3.6 0 0 0 -1,-0.42 v 0 -0.77 A 0.24,0.24 0 0 0 9.32,18.61 H 7.77 a 0.24,0.24 0 0 0 -0.24,0.24 v 0.79 A 3.93,3.93 0 0 0 6.47,20 L 5.92,19.45 a 0.26,0.26 0 0 0 -0.35,0 l -1,1 a 0.24,0.24 0 0 0 0,0.35 l 0.55,0.56 a 3.93,3.93 0 0 0 -0.43,1 v 0 H 3.87 A 0.24,0.24 0 0 0 3.63,22.6 v 1.47 a 0.24,0.24 0 0 0 0.24,0.24 h 0.79 a 3.93,3.93 0 0 0 0.43,1.06 L 4.54,26 a 0.24,0.24 0 0 0 0,0.35 l 1,1 a 0.26,0.26 0 0 0 0.35,0 l 0.55,-0.56 a 3.52,3.52 0 0 0 1,0.43 v 0 0.78 a 0.24,0.24 0 0 0 0.24,0.24 H 9.24 A 0.24,0.24 0 0 0 9.48,28 v -0.79 a 3.49,3.49 0 0 0 1,-0.44 l 0.56,0.56 a 0.26,0.26 0 0 0 0.35,0 l 1,-1 a 0.26,0.26 0 0 0 0,-0.35 l -0.56,-0.55 a 3.52,3.52 0 0 0 0.43,-1 v 0 h 0.77 a 0.24,0.24 0 0 0 0.24,-0.24 V 22.64 A 0.24,0.24 0 0 0 13.14,22.4 Z"
     id="path41" />
  <path
     class="cls-7"
     d="m 24.16,29.25 h -0.79 a 3.66,3.66 0 0 0 -0.44,-1.06 l 0.56,-0.55 a 0.26,0.26 0 0 0 0,-0.35 l -1,-1 a 0.26,0.26 0 0 0 -0.35,0 l -0.56,0.55 a 3.6,3.6 0 0 0 -1,-0.42 v 0 -0.76 a 0.25,0.25 0 0 0 -0.24,-0.25 h -1.55 a 0.25,0.25 0 0 0 -0.24,0.25 v 0.79 a 3.93,3.93 0 0 0 -1.06,0.43 l -0.55,-0.55 a 0.26,0.26 0 0 0 -0.35,0 l -1,1 a 0.26,0.26 0 0 0 0,0.35 l 0.55,0.55 a 3.85,3.85 0 0 0 -0.42,1 v 0 h -0.77 a 0.24,0.24 0 0 0 -0.24,0.24 V 31 a 0.25,0.25 0 0 0 0.24,0.24 h 0.79 a 3.87,3.87 0 0 0 0.43,1.05 l -0.55,0.56 a 0.26,0.26 0 0 0 0,0.35 l 1,1 a 0.26,0.26 0 0 0 0.35,0 l 0.55,-0.56 a 3.52,3.52 0 0 0 1,0.43 v 0 0.77 a 0.24,0.24 0 0 0 0.24,0.24 h 1.47 a 0.24,0.24 0 0 0 0.24,-0.24 v -0.79 a 3.49,3.49 0 0 0 1.05,-0.44 l 0.56,0.56 a 0.26,0.26 0 0 0 0.35,0 l 1,-1 a 0.26,0.26 0 0 0 0,-0.35 l -0.56,-0.56 a 3.36,3.36 0 0 0 0.43,-1 v 0 h 0.77 A 0.25,0.25 0 0 0 24.4,31 v -1.51 a 0.24,0.24 0 0 0 -0.24,-0.24 z"
     id="path43" />
  <path
     class="cls-7"
     d="m 18.94,22.53 h -0.68 a 3.65,3.65 0 0 0 -0.38,-0.91 l 0.48,-0.48 a 0.22,0.22 0 0 0 0,-0.3 L 17.47,20 a 0.22,0.22 0 0 0 -0.3,0 l -0.48,0.48 A 3.16,3.16 0 0 0 15.8,20.11 v 0 -0.66 A 0.22,0.22 0 0 0 15.59,19.24 H 14.3 a 0.22,0.22 0 0 0 -0.21,0.21 v 0.68 a 3.65,3.65 0 0 0 -0.91,0.38 L 12.7,20 a 0.22,0.22 0 0 0 -0.3,0 l -0.89,0.89 a 0.22,0.22 0 0 0 0,0.3 l 0.48,0.48 a 3.16,3.16 0 0 0 -0.37,0.89 v 0 h -0.67 a 0.22,0.22 0 0 0 -0.21,0.21 V 24 a 0.22,0.22 0 0 0 0.21,0.21 h 0.68 a 3.65,3.65 0 0 0 0.38,0.91 l -0.48,0.48 a 0.22,0.22 0 0 0 0,0.3 l 0.89,0.89 a 0.22,0.22 0 0 0 0.3,0 l 0.48,-0.48 a 3.16,3.16 0 0 0 0.89,0.37 v 0 0.67 a 0.22,0.22 0 0 0 0.21,0.21 h 1.27 a 0.22,0.22 0 0 0 0.21,-0.21 V 26.7 a 3.65,3.65 0 0 0 0.91,-0.38 l 0.48,0.48 a 0.22,0.22 0 0 0 0.3,0 l 0.89,-0.89 a 0.22,0.22 0 0 0 0,-0.3 l -0.48,-0.48 a 3.16,3.16 0 0 0 0.37,-0.89 v 0 h 0.67 a 0.22,0.22 0 0 0 0.21,-0.21 v -1.29 a 0.22,0.22 0 0 0 -0.19,-0.21 z"
     id="path45" />
  <path
     class="cls-8"
     d="m 21.48,30.35 a 1.84,1.84 0 0 1 -1.91,1.76 H 9.34 A 1.84,1.84 0 0 1 7.43,30.35 v -6.16 a 1.84,1.84 0 0 1 1.91,-1.76 h 10.23 a 1.84,1.84 0 0 1 1.91,1.76 z"
     id="path47" />
  <text
     xml:space="preserve"
     style="font-style:normal;font-variant:normal;font-weight:bold;font-stretch:condensed;font-size:5.33333px;line-height:1.25;font-family:'Arial Narrow';-inkscape-font-specification:'Arial Narrow, Bold Condensed';font-variant-ligatures:normal;font-variant-caps:normal;font-variant-numeric:normal;font-variant-east-asian:normal;fill:#ffffff;fill-opacity:1;stroke:none;stroke-width:0.178122"
     x="9.6670208"
     y="29.455463"
     id="text14267"
     transform="scale(1.0107267,0.98938715)"><tspan
       id="tspan14265"
       x="9.6670208"
       y="29.455463"
       style="font-style:normal;font-variant:normal;font-weight:bold;font-stretch:condensed;font-size:5.33333px;font-family:'Arial Narrow';-inkscape-font-specification:'Arial Narrow, Bold Condensed';font-variant-ligatures:normal;font-variant-caps:normal;font-variant-numeric:normal;font-variant-east-asian:normal;stroke-width:0.178122">WIN</tspan></text>
  <metadata
     id="metadata18945">
    <rdf:RDF>
      <cc:Work
         rdf:about="">
        <dc:title>Specific_Platform_1</dc:title>
      </cc:Work>
    </rdf:RDF>
  </metadata>
</svg>
