<svg xmlns="http://www.w3.org/2000/svg" viewBox="0 0 56.18 26.8"><defs><style>.cls-1,.cls-8{fill:#fff;}.cls-1,.cls-3,.cls-5,.cls-6,.cls-7{stroke:#1d1d1b;}.cls-1,.cls-3,.cls-6,.cls-7{stroke-miterlimit:3.86;}.cls-1,.cls-7{stroke-width:0.82px;}.cls-2{fill:#1d1d1b;}.cls-3,.cls-5{fill:#e3edfa;}.cls-3,.cls-5,.cls-6{stroke-width:0.82px;}.cls-4{fill:#e94e1b;}.cls-5{stroke-linejoin:round;}.cls-6{fill:#b8c9d9;stroke-linecap:round;}.cls-7{fill:#9baab7;}</style></defs><title>Specific_Platform_2</title><g id="Ebene_2" data-name="Ebene 2"><g id="Ebene_1-2" data-name="Ebene 1"><path class="cls-1" d="M14.56,8.33a1.85,1.85,0,0,1-1.91,1.76H2.42A1.85,1.85,0,0,1,.51,8.33V2.17A1.84,1.84,0,0,1,2.42.41H12.65a1.84,1.84,0,0,1,1.91,1.76Z"/><path class="cls-2" d="M5.21,6.35h0l.64-3.16h.89l-1,4.28H4.66l-1-4.28H4.6Z"/><path class="cls-2" d="M8.37,3.19l.61,3H9l.62-3h1.28V7.47H10.1V4.05h0L9.32,7.47H8.65L7.89,4.05h0V7.47H7.09V3.19Z"/><rect class="cls-3" x="16.58" y="3.11" width="11.22" height="23.14" rx="0.79" ry="0.79"/><rect class="cls-4" x="18.92" y="14.4" width="1.44" height="1.44"/><rect class="cls-5" x="37.83" y="16.18" width="1.83" height="18.6" rx="0.71" ry="0.71" transform="translate(64.22 -13.27) rotate(90)"/><path class="cls-5" d="M55.77,25.68a.71.71,0,0,1-.71.71H51a.71.71,0,0,1-.71-.71h0A1.68,1.68,0,0,1,52,24h2.12a1.68,1.68,0,0,1,1.68,1.68Z"/><rect class="cls-3" x="26.4" y="4.35" width="24.69" height="18.14" rx="1.84" ry="1.84"/><rect class="cls-2" x="28.98" y="6.73" width="19.92" height="13.48"/><line class="cls-6" x1="19.25" y1="6.85" x2="25.12" y2="6.85"/><line class="cls-6" x1="19.25" y1="8.51" x2="25.12" y2="8.51"/><line class="cls-6" x1="19.25" y1="10.17" x2="25.12" y2="10.17"/><line class="cls-6" x1="19.25" y1="11.83" x2="25.12" y2="11.83"/><path class="cls-7" d="M14.46,20.31a1.84,1.84,0,0,1-1.91,1.76H2.32A1.84,1.84,0,0,1,.41,20.31V14.15a1.84,1.84,0,0,1,1.91-1.76H12.55a1.84,1.84,0,0,1,1.91,1.76Z"/><path class="cls-8" d="M2.73,18.16a1.37,1.37,0,0,0,0,.29.62.62,0,0,0,.08.24.36.36,0,0,0,.15.15.49.49,0,0,0,.25.06.46.46,0,0,0,.25-.06.31.31,0,0,0,.15-.15.62.62,0,0,0,.08-.24,1.37,1.37,0,0,0,0-.29v-3H4.6v3a1.64,1.64,0,0,1-.12.67,1,1,0,0,1-.3.42,1,1,0,0,1-.44.21,2.1,2.1,0,0,1-.51.06,2.76,2.76,0,0,1-.51-.05,1,1,0,0,1-.44-.2.93.93,0,0,1-.3-.41,1.77,1.77,0,0,1-.11-.7v-3h.86Z"/><path class="cls-8" d="M7.18,18.1h0V15.17H8v4.28H7l-1.06-3h0v3H5.14V15.17h1Z"/><path class="cls-8" d="M8.62,15.17h.86v4.28H8.62Z"/><path class="cls-8" d="M10.9,15.17l.55,1.39L12,15.17h.94l-1,2.12L13,19.45H12L11.42,18l-.61,1.45h-1l1.07-2.16-1-2.12Z"/></g></g></svg>