<svg xmlns="http://www.w3.org/2000/svg" viewBox="0 0 28.26 27.42"><defs><style>.cls-1{fill:#e3edfa;}.cls-1,.cls-2,.cls-4{stroke:#1d1d1b;stroke-miterlimit:3.86;}.cls-1,.cls-2{stroke-width:0.82px;}.cls-2{fill:#b8c9d9;stroke-linecap:round;}.cls-3{fill:#e94e1b;}.cls-4{fill:#fff;stroke-width:0.82px;}.cls-5{fill:#1d1d1b;}</style></defs><title>Virtual_Platform</title><g id="Ebene_2" data-name="Ebene 2"><g id="Ebene_1-2" data-name="Ebene 1"><rect class="cls-1" x="0.41" y="0.41" width="12.9" height="26.61" rx="0.79" ry="0.79"/><line class="cls-2" x1="3.1" y1="4.7" x2="10.61" y2="4.7"/><line class="cls-2" x1="3.1" y1="6.61" x2="10.61" y2="6.61"/><line class="cls-2" x1="3.1" y1="8.52" x2="10.61" y2="8.52"/><line class="cls-2" x1="3.1" y1="10.43" x2="10.61" y2="10.43"/><rect class="cls-3" x="2.93" y="13.22" width="1.99" height="1.99" rx="0.42" ry="0.42"/><path class="cls-4" d="M27.85,19.57a1.25,1.25,0,0,1-1.29,1.19H12.17a1.25,1.25,0,0,1-1.3-1.19V15.4a1.25,1.25,0,0,1,1.3-1.19H26.56a1.25,1.25,0,0,1,1.29,1.19Z"/><path class="cls-5" d="M13.55,18.23h0L14,16.09h.61L13.93,19h-.75l-.66-2.9h.62Z"/><path class="cls-5" d="M14.84,16.09h.58V19h-.58Z"/><path class="cls-5" d="M16.93,16.09a.79.79,0,0,1,.57.19.73.73,0,0,1,.2.56.84.84,0,0,1-.12.47.49.49,0,0,1-.36.24h0a.53.53,0,0,1,.32.14.6.6,0,0,1,.13.35c0,.06,0,.12,0,.18a1.62,1.62,0,0,0,0,.21,2.74,2.74,0,0,0,0,.35.22.22,0,0,0,.11.17v0h-.64a.34.34,0,0,1-.05-.14,1,1,0,0,1,0-.17l0-.55a.41.41,0,0,0-.08-.27.3.3,0,0,0-.26-.1h-.31V19h-.59v-2.9Zm-.25,1.27a.54.54,0,0,0,.33-.1.46.46,0,0,0,.11-.34.36.36,0,0,0-.41-.4h-.27v.84Z"/><path class="cls-5" d="M19.73,16.57H19.1V19h-.59V16.57h-.63v-.48h1.85Z"/><path class="cls-5" d="M20.53,18.11a1.27,1.27,0,0,0,0,.2.75.75,0,0,0,.05.16.27.27,0,0,0,.11.1.29.29,0,0,0,.17,0,.31.31,0,0,0,.17,0,.32.32,0,0,0,.1-.1.43.43,0,0,0,.05-.16,1.23,1.23,0,0,0,0-.2v-2h.58v2a1.05,1.05,0,0,1-.08.46.75.75,0,0,1-.2.28.69.69,0,0,1-.3.14,1.27,1.27,0,0,1-.34,0,2,2,0,0,1-.35,0,.7.7,0,0,1-.29-.13.64.64,0,0,1-.21-.29,1.24,1.24,0,0,1-.08-.47v-2h.59Z"/><path class="cls-5" d="M23.44,16.09l.77,2.9H23.6l-.13-.62H22.7l-.14.62H22l.76-2.9Zm-.07,1.81-.28-1.31h0L22.8,17.9Z"/><path class="cls-5" d="M24.41,16.09H25v2.42h1V19H24.41Z"/></g></g></svg>