<?xml version="1.0" encoding="UTF-8" standalone="no"?>
<svg
   xmlns:dc="http://purl.org/dc/elements/1.1/"
   xmlns:cc="http://creativecommons.org/ns#"
   xmlns:rdf="http://www.w3.org/1999/02/22-rdf-syntax-ns#"
   xmlns:svg="http://www.w3.org/2000/svg"
   xmlns="http://www.w3.org/2000/svg"
   xmlns:xlink="http://www.w3.org/1999/xlink"
   xmlns:sodipodi="http://sodipodi.sourceforge.net/DTD/sodipodi-0.dtd"
   xmlns:inkscape="http://www.inkscape.org/namespaces/inkscape"
   version="1.1"
   id="Ebene_1"
   x="0px"
   y="0px"
   width="17"
   height="41"
   viewBox="0 0 17 41"
   enable-background="new 0 0 52 44"
   xml:space="preserve"
   sodipodi:docname="ampel.svg"
   inkscape:version="1.0.1 (3bc2e813f5, 2020-09-07)"><metadata
   id="metadata51"><rdf:RDF><cc:Work
       rdf:about=""><dc:format>image/svg+xml</dc:format><dc:type
         rdf:resource="http://purl.org/dc/dcmitype/StillImage" /><dc:title></dc:title></cc:Work></rdf:RDF></metadata><defs
   id="defs49" /><sodipodi:namedview
   pagecolor="#ffffff"
   bordercolor="#666666"
   borderopacity="1"
   objecttolerance="10"
   gridtolerance="10"
   guidetolerance="10"
   inkscape:pageopacity="0"
   inkscape:pageshadow="2"
   inkscape:window-width="1920"
   inkscape:window-height="1001"
   id="namedview47"
   showgrid="true"
   inkscape:snap-center="true"
   fit-margin-top="0"
   fit-margin-left="0"
   fit-margin-right="0"
   fit-margin-bottom="0"
   inkscape:zoom="9.6363636"
   inkscape:cx="30.924434"
   inkscape:cy="24.085822"
   inkscape:window-x="-9"
   inkscape:window-y="-9"
   inkscape:window-maximized="1"
   inkscape:current-layer="Ebene_1"><inkscape:grid
     type="xygrid"
     id="grid53"
     originx="0"
     originy="0" /></sodipodi:namedview>
<rect
   style="fill:#000000;stroke:none;stroke-width:10;stroke-linecap:round;stroke-linejoin:round;paint-order:markers fill stroke"
   id="rect78"
   width="17"
   height="41"
   x="0"
   y="0"
   rx="3"
   ry="3" /><g
   id="g8">
	<defs
   id="defs3">
		<path
   id="SVGID_1_"
   d="m 23.038,16.371 3.146,0.011 v 10e-4 l 2.295,0.007 0.002,-5.167 C 28.479,10.436 27.846,9.792 27.059,9.792 H 26.291 C 26.664,9.45 26.9,8.957 26.9,8.407 c 0,-1.035 -0.838,-1.875 -1.875,-1.875 -1.039,0 -1.879,0.84 -1.879,1.875 0,0.55 0.236,1.042 0.609,1.385 h -0.758 c -0.791,0 -1.426,0.644 -1.426,1.431 l -0.002,5.143 z m -8.555,1.948 v 0.004 h 0.486 l 0.334,0.001 v -0.001 h 1.494 v -5.244 c 0,-0.795 -0.641,-1.444 -1.438,-1.447 h -0.795 c 0.387,-0.347 0.631,-0.851 0.631,-1.413 0,-1.049 -0.852,-1.899 -1.902,-1.899 -1.049,0 -1.896,0.85 -1.896,1.899 0,0.562 0.242,1.066 0.627,1.413 h -0.791 c -0.797,0.003 -1.439,0.65 -1.443,1.447 v 5.22 l 1.762,0.007 z m 21.082,0 v -0.004 l 3.199,-0.011 v -10e-4 l 1.492,-0.005 -0.004,-5.22 C 40.25,12.281 39.609,11.634 38.813,11.631 h -0.791 c 0.387,-0.347 0.629,-0.851 0.629,-1.413 0,-1.049 -0.85,-1.899 -1.898,-1.899 -1.048,0 -1.898,0.85 -1.898,1.899 0,0.562 0.24,1.066 0.629,1.413 h -0.795 c -0.803,0.003 -1.441,0.65 -1.441,1.447 v 5.244 z M 6.515,18.281 H 5.358 c 0.533,-0.396 0.883,-1.031 0.883,-1.749 0,-1.199 -0.973,-2.172 -2.17,-2.172 -1.201,0 -2.172,0.973 -2.172,2.172 0,0.718 0.348,1.354 0.883,1.749 H 1.634 c -0.902,0.001 -1.627,0.732 -1.629,1.632 l -0.002,6.099 1.764,0.005 v 0.002 l 4.605,0.018 v -0.002 l 1.766,0.007 0.004,-6.128 C 8.138,19.014 7.417,18.282 6.515,18.281 Z m 43.527,1.632 c 0,-0.899 -0.725,-1.631 -1.627,-1.632 h -1.15 c 0.537,-0.396 0.883,-1.031 0.883,-1.749 0,-1.199 -0.971,-2.172 -2.168,-2.172 -1.203,0 -2.174,0.973 -2.174,2.172 0,0.718 0.346,1.354 0.883,1.749 h -1.152 c -0.904,0.001 -1.627,0.732 -1.629,1.632 v 6.126 l 2.545,-0.006 V 26.03 l 3.828,-0.012 v 0 l 1.768,-0.005 v -0.415 z m -10.713,5.256 h -1.721 c 0.771,-0.396 1.301,-1.203 1.301,-2.133 0,-1.326 -1.074,-2.4 -2.398,-2.4 -1.326,0 -2.404,1.074 -2.404,2.4 0,0.93 0.529,1.736 1.305,2.133 h -1.729 c -0.98,0 -1.771,0.799 -1.771,1.779 v 6.977 h 2.045 v 0 h 0.342 0.273 v -0.002 l 4.488,-0.02 v -0.002 l 2.045,-0.008 -0.004,-6.946 c 0,-0.979 -0.789,-1.776 -1.772,-1.778 z m -22.99,0 h -1.727 c 0.773,-0.398 1.301,-1.203 1.301,-2.134 0,-1.326 -1.076,-2.401 -2.402,-2.401 -1.324,0 -2.398,1.075 -2.4,2.401 0,0.931 0.529,1.735 1.299,2.134 h -1.72 c -0.98,0 -1.771,0.799 -1.771,1.779 l -0.004,6.947 2.66,0.008 v 0 l 3.873,0.014 v 0 l 2.658,0.01 0.002,-6.979 c -0.002,-0.98 -0.787,-1.777 -1.769,-1.779 z m 12.066,1.909 h -2.174 c 0.967,-0.455 1.639,-1.438 1.639,-2.577 0,-1.576 -1.273,-2.849 -2.846,-2.849 -1.574,0 -2.848,1.272 -2.848,2.849 0,1.139 0.67,2.122 1.639,2.577 h -2.164 c -1.164,0.003 -2.096,0.944 -2.096,2.103 l -0.006,8.285 2.881,0.009 5.621,0.021 v -0.002 l 2.447,0.008 v -8.32 c -0.001,-1.16 -0.931,-2.101 -2.093,-2.104 z" />
	</defs>
	<clipPath
   id="SVGID_2_">
		<use
   xlink:href="#SVGID_1_"
   overflow="visible"
   id="use5"
   x="0"
   y="0"
   width="100%"
   height="100%" />
	</clipPath>
</g>

















<circle
   style="fill:#d40000;stroke:none;stroke-width:10;stroke-linecap:round;stroke-linejoin:round;paint-order:markers fill stroke"
   id="path55"
   cx="8.5"
   cy="8.5"
   r="5" /><circle
   style="fill:#ffe100;fill-opacity:1;stroke:none;stroke-width:10;stroke-linecap:round;stroke-linejoin:round;paint-order:markers fill stroke"
   id="path55-7"
   cx="8.5"
   cy="20.5"
   r="5" /><circle
   style="fill:#00d455;fill-opacity:1;stroke:none;stroke-width:10;stroke-linecap:round;stroke-linejoin:round;paint-order:markers fill stroke"
   id="path55-75"
   cx="8.5"
   cy="32.5"
   r="5" /><rect
   style="fill:none;fill-opacity:1;stroke:#ffffff;stroke-width:1;stroke-linecap:round;stroke-linejoin:round;stroke-miterlimit:4;stroke-dasharray:none;paint-order:markers fill stroke"
   id="rect912"
   width="14"
   height="38"
   x="1.5"
   y="1.5"
   rx="2.00001"
   ry="2.00001" /></svg>
