<?xml version="1.0" encoding="utf-8"?>
<!-- Generator: Adobe Illustrator 14.0.0, SVG Export Plug-In . SVG Version: 6.00 Build 43363)  -->
<!DOCTYPE svg PUBLIC "-//W3C//DTD SVG 1.1//EN" "http://www.w3.org/Graphics/SVG/1.1/DTD/svg11.dtd">
<svg version="1.1" id="Ebene_1" xmlns="http://www.w3.org/2000/svg" xmlns:xlink="http://www.w3.org/1999/xlink" x="0px" y="0px"
	 width="52px" height="44px" viewBox="0 0 52 44" enable-background="new 0 0 52 44" xml:space="preserve">
<g>
	<defs>
		<path id="SVGID_1_" d="M23.038,16.371l3.146,0.011v0.001l2.295,0.007l0.002-5.167c-0.002-0.787-0.635-1.431-1.422-1.431h-0.768
			c0.373-0.342,0.609-0.835,0.609-1.385c0-1.035-0.838-1.875-1.875-1.875c-1.039,0-1.879,0.84-1.879,1.875
			c0,0.55,0.236,1.042,0.609,1.385h-0.758c-0.791,0-1.426,0.644-1.426,1.431l-0.002,5.143L23.038,16.371L23.038,16.371z
			 M14.483,18.319v0.004h0.486l0.334,0.001v-0.001h1.494v-5.244c0-0.795-0.641-1.444-1.438-1.447h-0.795
			c0.387-0.347,0.631-0.851,0.631-1.413c0-1.049-0.852-1.899-1.902-1.899c-1.049,0-1.896,0.85-1.896,1.899
			c0,0.562,0.242,1.066,0.627,1.413h-0.791c-0.797,0.003-1.439,0.65-1.443,1.447v5.22l1.762,0.007L14.483,18.319z M35.565,18.319
			v-0.004l3.199-0.011v-0.001l1.492-0.005l-0.004-5.22c-0.002-0.797-0.643-1.444-1.439-1.447h-0.791
			c0.387-0.347,0.629-0.851,0.629-1.413c0-1.049-0.85-1.899-1.898-1.899s-1.898,0.85-1.898,1.899c0,0.562,0.24,1.066,0.629,1.413
			h-0.795c-0.803,0.003-1.441,0.65-1.441,1.447v5.244L35.565,18.319z M6.515,18.281H5.358c0.533-0.396,0.883-1.031,0.883-1.749
			c0-1.199-0.973-2.172-2.17-2.172c-1.201,0-2.172,0.973-2.172,2.172c0,0.718,0.348,1.354,0.883,1.749H1.634
			c-0.902,0.001-1.627,0.732-1.629,1.632l-0.002,6.099l1.764,0.005v0.002l4.605,0.018v-0.002l1.766,0.007l0.004-6.128
			C8.138,19.014,7.417,18.282,6.515,18.281z M50.042,19.913c0-0.899-0.725-1.631-1.627-1.632h-1.15
			c0.537-0.396,0.883-1.031,0.883-1.749c0-1.199-0.971-2.172-2.168-2.172c-1.203,0-2.174,0.973-2.174,2.172
			c0,0.718,0.346,1.354,0.883,1.749h-1.152c-0.904,0.001-1.627,0.732-1.629,1.632v6.126l2.545-0.006V26.03l3.828-0.012l0,0
			l1.768-0.005v-0.415L50.042,19.913z M39.329,25.169h-1.721c0.771-0.396,1.301-1.203,1.301-2.133c0-1.326-1.074-2.4-2.398-2.4
			c-1.326,0-2.404,1.074-2.404,2.4c0,0.93,0.529,1.736,1.305,2.133h-1.729c-0.98,0-1.771,0.799-1.771,1.779v6.977h2.045l0,0h0.342
			h0.273v-0.002l4.488-0.02v-0.002l2.045-0.008l-0.004-6.946C41.101,25.968,40.312,25.171,39.329,25.169z M16.339,25.169h-1.727
			c0.773-0.398,1.301-1.203,1.301-2.134c0-1.326-1.076-2.401-2.402-2.401c-1.324,0-2.398,1.075-2.4,2.401
			c0,0.931,0.529,1.735,1.299,2.134H10.69c-0.98,0-1.771,0.799-1.771,1.779l-0.004,6.947l2.66,0.008l0,0l3.873,0.014l0,0l2.658,0.01
			l0.002-6.979C18.106,25.968,17.321,25.171,16.339,25.169z M28.405,27.078h-2.174c0.967-0.455,1.639-1.438,1.639-2.577
			c0-1.576-1.273-2.849-2.846-2.849c-1.574,0-2.848,1.272-2.848,2.849c0,1.139,0.67,2.122,1.639,2.577h-2.164
			c-1.164,0.003-2.096,0.944-2.096,2.103l-0.006,8.285l2.881,0.009l5.621,0.021v-0.002l2.447,0.008v-8.32
			C30.497,28.022,29.567,27.081,28.405,27.078z"/>
	</defs>
	<clipPath id="SVGID_2_">
		<use xlink:href="#SVGID_1_"  overflow="visible"/>
	</clipPath>
</g>
<path fill="#FFF7CC" d="M4.071,18.29c0.971,0,1.754-0.787,1.754-1.758c0-0.969-0.783-1.756-1.754-1.756
	c-0.973,0-1.758,0.787-1.758,1.756C2.313,17.503,3.099,18.29,4.071,18.29z"/>
<path fill="#DBE5EF" d="M6.513,18.696H1.634c-0.674,0-1.215,0.545-1.215,1.218l-0.004,5.687l1.717,0.004v-4.832h0.051v4.834
	l3.775,0.014l0.002-4.848h0.047v4.848l1.719,0.005v-5.711C7.726,19.241,7.185,18.696,6.513,18.696z"/>
<circle fill="#FFF7CC" cx="25.024" cy="24.499" r="2.432"/>
<path fill="#DBE5EF" d="M28.403,27.493h-6.752c-0.936,0-1.682,0.756-1.682,1.688l-0.006,7.871l2.051,0.007v-6.641h0.396v6.643
	l5.229,0.019v-6.661h0.393v6.663l2.053,0.006l0.002-7.906C30.087,28.249,29.337,27.493,28.403,27.493z"/>
<circle fill="#FFF7CC" cx="13.296" cy="10.22" r="1.485"/>
<path fill="#DBE5EF" d="M11.69,13.788h0.006v4.104l3.195,0.016v-4.12h0.006v4.12h1.488V13.08c0-0.57-0.457-1.031-1.025-1.031h-4.125
	c-0.568,0-1.029,0.461-1.029,1.031l-0.002,4.808l1.486,0.004V13.788z"/>
<circle fill="#FFF7CC" cx="25.026" cy="8.409" r="1.462"/>
<path fill="#DBE5EF" d="M23.452,11.93h0.002v4.029l3.143,0.011v-4.04h0.002v4.041l1.465,0.004l0.004-4.75
	c0-0.561-0.451-1.015-1.008-1.015h-4.061c-0.561,0-1.01,0.455-1.01,1.015l-0.004,4.73l1.467,0.003V11.93z"/>
<circle fill="#FFF7CC" cx="13.512" cy="23.035" r="2.034"/>
<path fill="#DBE5EF" d="M16.339,25.539H10.69c-0.777,0-1.402,0.632-1.402,1.409l-0.006,6.58l1.924,0.006v-5.549h0.121v5.549
	l4.369,0.016v-5.564h0.123v5.565l1.924,0.005v-6.607C17.743,26.171,17.116,25.539,16.339,25.539z"/>
<circle fill="#FFF7CC" cx="45.979" cy="16.533" r="1.757"/>
<path fill="#DBE5EF" d="M49.636,25.601l-0.008-5.687c0-0.673-0.539-1.218-1.215-1.218h-4.877c-0.676,0-1.217,0.545-1.217,1.218
	l0.004,5.711l1.713-0.005v-4.848h0.055v4.848l3.773-0.014v-4.834h0.053v4.832L49.636,25.601z"/>
<circle fill="#FFF7CC" cx="36.511" cy="23.036" r="2.032"/>
<path fill="#DBE5EF" d="M39.329,25.539h-5.646c-0.777,0-1.404,0.632-1.404,1.409l0.004,6.607h1.922v-5.639h0.123v5.639l4.369-0.02
	v-5.619h0.119v5.617l1.922-0.006l-0.006-6.58C40.731,26.171,40.108,25.539,39.329,25.539z"/>
<circle fill="#FFF7CC" cx="36.753" cy="10.22" r="1.485"/>
<path fill="#DBE5EF" d="M35.151,17.903v-4.059h0.006v4.058l3.189-0.011v-4.047h0.01v4.047l1.486-0.004l-0.004-4.808
	c0-0.57-0.457-1.031-1.025-1.031h-4.125c-0.568,0-1.025,0.461-1.025,1.031v4.828L35.151,17.903z"/>
<g>
	<path d="M30.499,37.503l-10.95-0.037l0.006-8.286c0-1.159,0.94-2.102,2.097-2.102h2.168c-0.97-0.454-1.644-1.44-1.644-2.579
		c0-1.569,1.278-2.846,2.849-2.846c1.569,0,2.847,1.276,2.847,2.846c0,1.139-0.673,2.125-1.642,2.579h2.174
		c1.157,0,2.099,0.942,2.099,2.103L30.499,37.503L30.499,37.503z M28.447,36.667l1.224,0.004l0.001-7.49
		c0-0.702-0.569-1.273-1.269-1.273h-6.752c-0.698,0-1.267,0.571-1.267,1.273l-0.006,7.458l1.221,0.004v-6.64h1.227v6.645
		l4.398,0.016v-6.66h1.223V36.667L28.447,36.667z M25.024,22.481c-1.113,0-2.019,0.905-2.019,2.018s0.905,2.018,2.019,2.018
		c1.112,0,2.017-0.905,2.017-2.018S26.137,22.481,25.024,22.481L25.024,22.481z M33.912,33.972V33.97h-2.044l-0.005-7.021
		c0-1.006,0.816-1.824,1.819-1.824h1.554c-0.703-0.43-1.174-1.205-1.174-2.088c0-1.35,1.099-2.447,2.448-2.447
		c1.349,0,2.446,1.098,2.446,2.447c0,0.883-0.471,1.658-1.174,2.088h1.546c1.002,0,1.817,0.818,1.817,1.824l0.006,6.992
		L33.912,33.972L33.912,33.972z M32.696,33.142h1.093v-5.639h0.953v5.637l3.539-0.016v-5.621h0.949v5.615l1.092-0.004l-0.006-6.166
		c0-0.549-0.442-0.994-0.987-0.994h-5.646c-0.546,0-0.989,0.445-0.989,0.994L32.696,33.142L32.696,33.142z M36.511,21.419
		c-0.893,0-1.618,0.725-1.618,1.617c0,0.892,0.726,1.617,1.618,1.617c0.892,0,1.616-0.726,1.616-1.617
		C38.127,22.144,37.402,21.419,36.511,21.419L36.511,21.419z M18.158,33.972l-9.291-0.03l0.006-6.993
		c0-1.006,0.815-1.824,1.817-1.824h1.547c-0.704-0.43-1.175-1.205-1.175-2.089c0-1.349,1.099-2.446,2.448-2.446
		c1.351,0,2.45,1.098,2.45,2.446c0,0.884-0.472,1.659-1.176,2.089h1.554c1.003,0,1.819,0.818,1.819,1.824V33.972L18.158,33.972z
		 M16.234,33.138l1.094,0.002v-6.191c0-0.549-0.443-0.994-0.989-0.994H10.69c-0.545,0-0.987,0.445-0.987,0.994l-0.006,6.166
		l1.094,0.004v-5.547h0.951v5.55l3.539,0.013v-5.562h0.953V33.138L16.234,33.138z M13.511,21.419c-0.893,0-1.618,0.725-1.618,1.616
		s0.726,1.618,1.618,1.618c0.894,0,1.62-0.727,1.62-1.618S14.404,21.419,13.511,21.419L13.511,21.419z M41.909,26.041l-0.005-6.126
		c0-0.901,0.732-1.634,1.632-1.634h1.156c-0.537-0.396-0.886-1.032-0.886-1.749c0-1.197,0.975-2.171,2.173-2.171
		c1.195,0,2.169,0.974,2.169,2.171c0,0.717-0.349,1.354-0.884,1.749h1.148c0.898,0,1.63,0.732,1.63,1.633l0.008,6.1L41.909,26.041
		L41.909,26.041z M43.536,19.11c-0.442,0-0.802,0.36-0.802,0.804l0.003,5.295l0.884-0.003v-4.848h0.83l0.055,0.414v4.432
		l2.943-0.011v-4.835h0.83l0.053,0.414v4.416l0.889-0.002l-0.008-5.271c0-0.444-0.358-0.805-0.8-0.805H43.536L43.536,19.11z
		 M45.979,15.19c-0.74,0-1.343,0.602-1.343,1.342c0,0.74,0.603,1.344,1.343,1.344c0.738,0,1.339-0.604,1.339-1.344
		C47.318,15.792,46.718,15.19,45.979,15.19L45.979,15.19z M8.141,26.041L0,26.014l0.004-6.101c0-0.899,0.731-1.632,1.63-1.632h1.15
		c-0.537-0.396-0.886-1.032-0.886-1.749c0-1.197,0.975-2.171,2.173-2.171c1.195,0,2.169,0.974,2.169,2.171
		c0,0.717-0.349,1.354-0.884,1.749h1.156c0.897,0,1.628,0.732,1.628,1.633V26.041L8.141,26.041z M6.422,25.206l0.889,0.003v-5.295
		c0-0.443-0.357-0.804-0.798-0.804H1.634c-0.441,0-0.8,0.36-0.8,0.804L0.83,25.187l0.887,0.002v-4.83h0.83l0.051,0.414v4.421
		l2.946,0.011l0.002-4.846h0.829l0.047,0.414V25.206L6.422,25.206z M4.071,15.19c-0.74,0-1.343,0.602-1.343,1.342
		c0,0.74,0.603,1.344,1.343,1.344c0.738,0,1.339-0.604,1.339-1.344C5.41,15.792,4.81,15.19,4.071,15.19L4.071,15.19z M15.307,18.323
		l-5.518-0.022l0.002-5.221c0-0.797,0.648-1.445,1.444-1.445h0.792c-0.388-0.348-0.633-0.854-0.633-1.415
		c0-1.047,0.854-1.899,1.901-1.899s1.901,0.852,1.901,1.899c0,0.562-0.245,1.067-0.633,1.415h0.796c0.794,0,1.44,0.648,1.44,1.445
		v5.242L15.307,18.323L15.307,18.323z M15.312,17.493h0.658V13.08c0-0.34-0.273-0.616-0.61-0.616h-4.125
		c-0.339,0-0.614,0.276-0.614,0.616l-0.002,4.394l0.656,0.002v-4.103h0.83l0.006,0.415v3.692l2.365,0.012v-4.118h0.83l0.006,0.415
		V17.493L15.312,17.493z M13.296,9.149c-0.591,0-1.071,0.48-1.071,1.07c0,0.591,0.48,1.072,1.071,1.072s1.071-0.481,1.071-1.072
		C14.367,9.629,13.887,9.149,13.296,9.149L13.296,9.149z M33.248,18.323V13.08c0-0.797,0.646-1.445,1.44-1.445h0.798
		c-0.388-0.348-0.633-0.854-0.633-1.415c0-1.047,0.853-1.899,1.899-1.899s1.899,0.852,1.899,1.899c0,0.562-0.245,1.067-0.633,1.415
		h0.794c0.794,0,1.44,0.648,1.44,1.445l0.004,5.221L33.248,18.323L33.248,18.323z M34.688,12.463c-0.337,0-0.61,0.276-0.61,0.616
		v4.412l0.658-0.001V13.43h0.83l0.006,0.415v3.642l2.359-0.008V13.43h0.83l0.01,0.415v3.631l0.656-0.002l-0.004-4.394
		c0-0.34-0.273-0.617-0.61-0.617H34.688L34.688,12.463z M36.753,9.149c-0.59,0-1.069,0.48-1.069,1.07
		c0,0.591,0.479,1.072,1.069,1.072s1.069-0.481,1.069-1.072C37.822,9.629,37.343,9.149,36.753,9.149L36.753,9.149z M28.478,16.39
		l-6.907-0.021l0.004-5.145c0-0.788,0.64-1.429,1.425-1.429h0.761c-0.377-0.343-0.613-0.837-0.613-1.384
		c0-1.035,0.844-1.877,1.88-1.877c1.034,0,1.876,0.842,1.876,1.877c0,0.547-0.236,1.041-0.611,1.384h0.769
		c0.784,0,1.423,0.641,1.423,1.43L28.478,16.39L28.478,16.39z M27.013,15.557l0.637,0.002l0.003-4.335c0-0.331-0.266-0.6-0.593-0.6
		h-4.061c-0.328,0-0.595,0.27-0.595,0.601L22.4,15.541l0.637,0.001V11.93h0.832l-0.001,3.616l2.313,0.008V11.93h0.832L27.013,15.557
		L27.013,15.557z M25.026,7.362c-0.579,0-1.05,0.47-1.05,1.048c0,0.577,0.471,1.046,1.05,1.046c0.577,0,1.046-0.469,1.046-1.046
		C26.072,7.833,25.604,7.362,25.026,7.362L25.026,7.362z"/>
</g>
</svg>
