<?xml version="1.0" encoding="utf-8"?>
<!-- Generator: Adobe Illustrator 15.1.0, SVG Export Plug-In . SVG Version: 6.00 Build 0)  -->
<!DOCTYPE svg PUBLIC "-//W3C//DTD SVG 1.1//EN" "http://www.w3.org/Graphics/SVG/1.1/DTD/svg11.dtd">
<svg version="1.1" id="Ebene_1" xmlns="http://www.w3.org/2000/svg" xmlns:xlink="http://www.w3.org/1999/xlink" x="0px" y="0px"
	 width="37.084px" height="37.084px" viewBox="0 0 37.084 37.084" enable-background="new 0 0 37.084 37.084" xml:space="preserve">
<g>
	<polygon points="8.584,31.066 8.584,5.396 10.061,5.396 10.061,4.011 11.477,4.011 11.477,2.563 29.951,2.563 29.979,10.575 
		29.979,28.234 28.564,28.234 28.564,29.682 27.088,29.682 27.088,31.066 	"/>
	<polygon points="29.695,10.576 29.668,2.847 11.76,2.847 11.76,4.294 10.344,4.294 10.344,5.679 8.867,5.679 8.867,30.783 
		26.805,30.783 26.805,29.398 28.281,29.398 28.281,27.951 29.695,27.951 	"/>
	<g>
		<polygon fill="#DBE5F1" points="29.396,27.651 29.396,10.577 29.369,3.146 12.06,3.146 12.06,27.651 		"/>
		<path d="M29.695,27.951H11.76V2.847h17.908l0.027,7.729V27.951z M12.359,27.352h16.736L29.07,3.446H12.359V27.352z"/>
	</g>
	<g>
		<polygon fill="#DBE5F1" points="27.981,29.099 27.981,12.023 27.953,4.594 10.644,4.594 10.644,29.099 		"/>
		<path d="M28.281,29.398H10.344V4.294h17.908l0.029,7.729V29.398z M10.943,28.799h16.738L27.655,4.894H10.943V28.799z"/>
	</g>
	<g>
		<polygon fill="#FFFFFF" points="26.504,30.483 26.504,13.408 26.478,5.979 9.167,5.979 9.167,30.483 		"/>
		<path d="M26.805,30.783H8.867V5.679h17.91l0.027,7.729V30.783z M9.467,30.184h16.738L26.179,6.278H9.467V30.184z"/>
	</g>
	<g>
		<path fill="#0D4252" d="M11.481,12.738c0.018-0.24,0.065-0.453,0.143-0.639c0.078-0.185,0.196-0.333,0.353-0.444
			s0.375-0.167,0.654-0.167c0.23,0,0.418,0.033,0.568,0.098c0.15,0.065,0.27,0.171,0.36,0.315s0.154,0.333,0.191,0.564
			c0.036,0.231,0.056,0.513,0.056,0.845c0,0.261-0.009,0.512-0.026,0.752c-0.019,0.24-0.065,0.453-0.144,0.639
			c-0.077,0.185-0.195,0.33-0.354,0.437c-0.155,0.105-0.374,0.159-0.652,0.159c-0.227,0-0.415-0.03-0.567-0.091
			c-0.151-0.06-0.272-0.162-0.362-0.307s-0.153-0.333-0.19-0.564s-0.056-0.513-0.056-0.845
			C11.455,13.229,11.464,12.979,11.481,12.738z M12.236,14.234c0.012,0.15,0.033,0.269,0.064,0.355
			c0.033,0.086,0.075,0.146,0.129,0.177c0.053,0.032,0.119,0.048,0.201,0.048c0.084,0,0.152-0.021,0.205-0.061
			c0.054-0.041,0.096-0.109,0.126-0.207c0.029-0.097,0.051-0.227,0.063-0.389c0.012-0.163,0.019-0.364,0.019-0.604v-0.407
			c0-0.237-0.007-0.43-0.019-0.58c-0.013-0.15-0.035-0.269-0.066-0.355c-0.032-0.086-0.074-0.146-0.127-0.177
			c-0.053-0.032-0.12-0.048-0.201-0.048c-0.085,0-0.154,0.021-0.207,0.061c-0.053,0.041-0.095,0.109-0.124,0.207
			c-0.03,0.097-0.052,0.227-0.063,0.389c-0.013,0.163-0.02,0.364-0.02,0.604v0.407C12.217,13.892,12.224,14.085,12.236,14.234z"/>
		<path fill="#0D4252" d="M14.971,12.59h-0.747v-0.498h0.069c0.254,0,0.454-0.047,0.601-0.143s0.239-0.249,0.278-0.461h0.562v3.75
			h-0.763V12.59z"/>
		<path fill="#0D4252" d="M16.777,12.738c0.018-0.24,0.065-0.453,0.143-0.639c0.078-0.185,0.195-0.333,0.353-0.444
			s0.375-0.167,0.654-0.167c0.229,0,0.419,0.033,0.569,0.098c0.149,0.065,0.27,0.171,0.359,0.315
			c0.091,0.145,0.154,0.333,0.191,0.564s0.055,0.513,0.055,0.845c0,0.261-0.008,0.512-0.025,0.752
			c-0.019,0.24-0.065,0.453-0.144,0.639c-0.077,0.185-0.196,0.33-0.353,0.437c-0.156,0.105-0.375,0.159-0.653,0.159
			c-0.228,0-0.415-0.03-0.567-0.091c-0.151-0.06-0.273-0.162-0.362-0.307c-0.09-0.145-0.153-0.333-0.19-0.564
			s-0.056-0.513-0.056-0.845C16.751,13.229,16.76,12.979,16.777,12.738z M17.532,14.234c0.012,0.15,0.034,0.269,0.065,0.355
			c0.032,0.086,0.074,0.146,0.128,0.177c0.053,0.032,0.119,0.048,0.201,0.048c0.084,0,0.153-0.021,0.206-0.061
			c0.053-0.041,0.095-0.109,0.125-0.207c0.029-0.097,0.051-0.227,0.062-0.389c0.012-0.163,0.02-0.364,0.02-0.604v-0.407
			c0-0.237-0.008-0.43-0.02-0.58s-0.034-0.269-0.066-0.355c-0.031-0.086-0.073-0.146-0.126-0.177
			c-0.053-0.032-0.12-0.048-0.201-0.048c-0.085,0-0.154,0.021-0.207,0.061c-0.053,0.041-0.095,0.109-0.124,0.207
			c-0.03,0.097-0.052,0.227-0.063,0.389c-0.013,0.163-0.019,0.364-0.019,0.604v0.407C17.514,13.892,17.52,14.085,17.532,14.234z"/>
		<path fill="#0D4252" d="M20.266,12.59H19.52v-0.498h0.069c0.254,0,0.454-0.047,0.601-0.143s0.239-0.249,0.278-0.461h0.562v3.75
			h-0.764V12.59z"/>
		<path fill="#0D4252" d="M22.073,12.738c0.018-0.24,0.065-0.453,0.143-0.639c0.078-0.185,0.195-0.333,0.353-0.444
			s0.375-0.167,0.654-0.167c0.229,0,0.419,0.033,0.569,0.098c0.149,0.065,0.27,0.171,0.36,0.315c0.09,0.145,0.153,0.333,0.19,0.564
			s0.056,0.513,0.056,0.845c0,0.261-0.009,0.512-0.026,0.752c-0.019,0.24-0.065,0.453-0.144,0.639
			c-0.076,0.185-0.195,0.33-0.353,0.437c-0.156,0.105-0.376,0.159-0.653,0.159c-0.227,0-0.415-0.03-0.567-0.091
			c-0.151-0.06-0.272-0.162-0.362-0.307s-0.153-0.333-0.191-0.564c-0.036-0.231-0.055-0.513-0.055-0.845
			C22.047,13.229,22.056,12.979,22.073,12.738z M22.828,14.234c0.012,0.15,0.034,0.269,0.065,0.355
			c0.032,0.086,0.074,0.146,0.128,0.177c0.053,0.032,0.119,0.048,0.201,0.048c0.084,0,0.153-0.021,0.206-0.061
			c0.053-0.041,0.095-0.109,0.124-0.207c0.03-0.097,0.051-0.227,0.064-0.389c0.012-0.163,0.019-0.364,0.019-0.604v-0.407
			c0-0.237-0.007-0.43-0.019-0.58c-0.014-0.15-0.035-0.269-0.066-0.355c-0.033-0.086-0.074-0.146-0.127-0.177
			c-0.053-0.032-0.121-0.048-0.201-0.048c-0.086,0-0.154,0.021-0.207,0.061c-0.053,0.041-0.096,0.109-0.124,0.207
			c-0.03,0.097-0.052,0.227-0.063,0.389c-0.013,0.163-0.019,0.364-0.019,0.604v0.407C22.81,13.892,22.815,14.085,22.828,14.234z"/>
		<path fill="#0D4252" d="M12.323,17.181h-0.747v-0.498h0.069c0.254,0,0.454-0.047,0.601-0.143s0.24-0.249,0.278-0.461h0.562v3.75
			h-0.763V17.181z"/>
		<path fill="#0D4252" d="M14.971,17.181h-0.747v-0.498h0.069c0.254,0,0.454-0.047,0.601-0.143s0.239-0.249,0.278-0.461h0.562v3.75
			h-0.763V17.181z"/>
		<path fill="#0D4252" d="M16.777,17.329c0.018-0.24,0.065-0.453,0.143-0.639c0.078-0.185,0.195-0.333,0.353-0.444
			s0.375-0.167,0.654-0.167c0.229,0,0.419,0.033,0.569,0.098c0.149,0.065,0.27,0.171,0.359,0.315
			c0.091,0.145,0.154,0.333,0.191,0.564s0.055,0.513,0.055,0.845c0,0.261-0.008,0.512-0.025,0.752
			c-0.019,0.24-0.065,0.453-0.144,0.639c-0.077,0.185-0.196,0.33-0.353,0.437c-0.156,0.105-0.375,0.159-0.653,0.159
			c-0.228,0-0.415-0.03-0.567-0.091c-0.151-0.06-0.273-0.162-0.362-0.307c-0.09-0.145-0.153-0.333-0.19-0.564
			s-0.056-0.513-0.056-0.845C16.751,17.82,16.76,17.569,16.777,17.329z M17.532,18.825c0.012,0.15,0.034,0.269,0.065,0.355
			c0.032,0.086,0.074,0.146,0.128,0.177c0.053,0.032,0.119,0.048,0.201,0.048c0.084,0,0.153-0.021,0.206-0.061
			c0.053-0.041,0.095-0.109,0.125-0.207c0.029-0.097,0.051-0.227,0.062-0.389c0.012-0.163,0.02-0.364,0.02-0.604v-0.407
			c0-0.237-0.008-0.43-0.02-0.58s-0.034-0.269-0.066-0.355c-0.031-0.086-0.073-0.146-0.126-0.177
			c-0.053-0.032-0.12-0.048-0.201-0.048c-0.085,0-0.154,0.021-0.207,0.061c-0.053,0.041-0.095,0.109-0.124,0.207
			c-0.03,0.097-0.052,0.227-0.063,0.389c-0.013,0.163-0.019,0.364-0.019,0.604v0.407C17.514,18.482,17.52,18.676,17.532,18.825z"/>
		<path fill="#0D4252" d="M19.425,17.329c0.019-0.24,0.065-0.453,0.144-0.639c0.077-0.185,0.194-0.333,0.352-0.444
			s0.375-0.167,0.654-0.167c0.229,0,0.419,0.033,0.569,0.098c0.149,0.065,0.27,0.171,0.359,0.315
			c0.091,0.145,0.154,0.333,0.191,0.564s0.056,0.513,0.056,0.845c0,0.261-0.009,0.512-0.026,0.752
			c-0.019,0.24-0.065,0.453-0.144,0.639c-0.077,0.185-0.195,0.33-0.353,0.437c-0.157,0.105-0.375,0.159-0.653,0.159
			c-0.227,0-0.415-0.03-0.567-0.091c-0.151-0.06-0.272-0.162-0.362-0.307s-0.153-0.333-0.191-0.564
			c-0.037-0.231-0.055-0.513-0.055-0.845C19.398,17.82,19.407,17.569,19.425,17.329z M20.18,18.825
			c0.012,0.15,0.034,0.269,0.065,0.355c0.032,0.086,0.075,0.146,0.128,0.177c0.053,0.032,0.119,0.048,0.201,0.048
			c0.084,0,0.153-0.021,0.206-0.061c0.052-0.041,0.095-0.109,0.125-0.207c0.028-0.097,0.051-0.227,0.063-0.389
			c0.012-0.163,0.018-0.364,0.018-0.604v-0.407c0-0.237-0.006-0.43-0.018-0.58c-0.013-0.15-0.035-0.269-0.066-0.355
			c-0.033-0.086-0.074-0.146-0.127-0.177c-0.053-0.032-0.12-0.048-0.201-0.048c-0.085,0-0.154,0.021-0.207,0.061
			c-0.053,0.041-0.095,0.109-0.124,0.207c-0.03,0.097-0.052,0.227-0.063,0.389c-0.013,0.163-0.019,0.364-0.019,0.604v0.407
			C20.161,18.482,20.167,18.676,20.18,18.825z"/>
		<path fill="#0D4252" d="M22.915,17.181h-0.747v-0.498h0.068c0.255,0,0.455-0.047,0.602-0.143s0.239-0.249,0.277-0.461h0.562v3.75
			h-0.763V17.181z"/>
		<path fill="#0D4252" d="M11.481,21.919c0.018-0.24,0.065-0.453,0.143-0.639c0.078-0.185,0.196-0.333,0.353-0.444
			s0.375-0.167,0.654-0.167c0.23,0,0.418,0.033,0.568,0.098c0.15,0.065,0.27,0.171,0.36,0.315s0.154,0.333,0.191,0.564
			c0.036,0.231,0.056,0.513,0.056,0.845c0,0.261-0.009,0.512-0.026,0.752c-0.019,0.24-0.065,0.453-0.144,0.639
			c-0.077,0.185-0.195,0.33-0.354,0.437c-0.155,0.105-0.374,0.159-0.652,0.159c-0.227,0-0.415-0.03-0.567-0.091
			c-0.151-0.06-0.272-0.162-0.362-0.307s-0.153-0.333-0.19-0.564s-0.056-0.513-0.056-0.845
			C11.455,22.41,11.464,22.159,11.481,21.919z M12.236,23.415c0.012,0.15,0.033,0.269,0.064,0.355
			c0.033,0.086,0.075,0.146,0.129,0.177c0.053,0.032,0.119,0.048,0.201,0.048c0.084,0,0.152-0.021,0.205-0.061
			c0.054-0.041,0.096-0.109,0.126-0.207c0.029-0.097,0.051-0.227,0.063-0.389c0.012-0.163,0.019-0.364,0.019-0.604v-0.407
			c0-0.237-0.007-0.43-0.019-0.58c-0.013-0.15-0.035-0.269-0.066-0.355c-0.032-0.086-0.074-0.146-0.127-0.177
			c-0.053-0.032-0.12-0.048-0.201-0.048c-0.085,0-0.154,0.021-0.207,0.061c-0.053,0.041-0.095,0.109-0.124,0.207
			c-0.03,0.097-0.052,0.227-0.063,0.389c-0.013,0.163-0.02,0.364-0.02,0.604v0.407C12.217,23.072,12.224,23.266,12.236,23.415z"/>
		<path fill="#0D4252" d="M14.129,21.919c0.018-0.24,0.065-0.453,0.143-0.639c0.078-0.185,0.195-0.333,0.353-0.444
			s0.375-0.167,0.654-0.167c0.229,0,0.419,0.033,0.569,0.098c0.149,0.065,0.27,0.171,0.359,0.315
			c0.091,0.145,0.154,0.333,0.191,0.564s0.055,0.513,0.055,0.845c0,0.261-0.008,0.512-0.025,0.752
			c-0.019,0.24-0.065,0.453-0.145,0.639c-0.076,0.185-0.194,0.33-0.352,0.437c-0.156,0.105-0.375,0.159-0.653,0.159
			c-0.227,0-0.415-0.03-0.567-0.091c-0.151-0.06-0.272-0.162-0.362-0.307s-0.153-0.333-0.19-0.564s-0.057-0.513-0.057-0.845
			C14.102,22.41,14.111,22.159,14.129,21.919z M14.884,23.415c0.012,0.15,0.034,0.269,0.065,0.355
			c0.032,0.086,0.074,0.146,0.128,0.177c0.053,0.032,0.119,0.048,0.201,0.048c0.084,0,0.153-0.021,0.206-0.061
			c0.053-0.041,0.095-0.109,0.125-0.207c0.029-0.097,0.051-0.227,0.063-0.389c0.012-0.163,0.019-0.364,0.019-0.604v-0.407
			c0-0.237-0.007-0.43-0.019-0.58c-0.013-0.15-0.036-0.269-0.066-0.355c-0.032-0.086-0.074-0.146-0.127-0.177
			c-0.053-0.032-0.12-0.048-0.201-0.048c-0.085,0-0.154,0.021-0.208,0.061c-0.053,0.041-0.094,0.109-0.123,0.207
			c-0.031,0.097-0.052,0.227-0.063,0.389c-0.013,0.163-0.019,0.364-0.019,0.604v0.407C14.865,23.072,14.871,23.266,14.884,23.415z"
			/>
		<path fill="#0D4252" d="M17.619,21.771h-0.747v-0.498h0.069c0.254,0,0.454-0.047,0.601-0.143s0.239-0.249,0.278-0.461h0.562v3.75
			h-0.763V21.771z"/>
		<path fill="#0D4252" d="M20.266,21.771H19.52v-0.498h0.069c0.254,0,0.454-0.047,0.601-0.143s0.239-0.249,0.278-0.461h0.562v3.75
			h-0.764V21.771z"/>
		<path fill="#0D4252" d="M22.073,21.919c0.018-0.24,0.065-0.453,0.143-0.639c0.078-0.185,0.195-0.333,0.353-0.444
			s0.375-0.167,0.654-0.167c0.229,0,0.419,0.033,0.569,0.098c0.149,0.065,0.27,0.171,0.36,0.315c0.09,0.145,0.153,0.333,0.19,0.564
			s0.056,0.513,0.056,0.845c0,0.261-0.009,0.512-0.026,0.752c-0.019,0.24-0.065,0.453-0.144,0.639
			c-0.076,0.185-0.195,0.33-0.353,0.437c-0.156,0.105-0.376,0.159-0.653,0.159c-0.227,0-0.415-0.03-0.567-0.091
			c-0.151-0.06-0.272-0.162-0.362-0.307s-0.153-0.333-0.191-0.564c-0.036-0.231-0.055-0.513-0.055-0.845
			C22.047,22.41,22.056,22.159,22.073,21.919z M22.828,23.415c0.012,0.15,0.034,0.269,0.065,0.355
			c0.032,0.086,0.074,0.146,0.128,0.177c0.053,0.032,0.119,0.048,0.201,0.048c0.084,0,0.153-0.021,0.206-0.061
			c0.053-0.041,0.095-0.109,0.124-0.207c0.03-0.097,0.051-0.227,0.064-0.389c0.012-0.163,0.019-0.364,0.019-0.604v-0.407
			c0-0.237-0.007-0.43-0.019-0.58c-0.014-0.15-0.035-0.269-0.066-0.355c-0.033-0.086-0.074-0.146-0.127-0.177
			c-0.053-0.032-0.121-0.048-0.201-0.048c-0.086,0-0.154,0.021-0.207,0.061c-0.053,0.041-0.096,0.109-0.124,0.207
			c-0.03,0.097-0.052,0.227-0.063,0.389c-0.013,0.163-0.019,0.364-0.019,0.604v0.407C22.81,23.072,22.815,23.266,22.828,23.415z"/>
	</g>
	<g>
		<path fill="#C6C6C6" d="M17.474,21.344c-0.298-2.972-11.968-2.972-12.266,0H5.194v11.99c0,1.564,3.092,2.383,6.146,2.383
			s6.146-0.818,6.146-2.383v-11.99H17.474z"/>
		<g>
			<path fill="#DBE5F1" d="M6.689,20.476v11.49c0,1.041,2.527,1.883,5.646,1.883c3.117,0,5.646-0.842,5.646-1.883v-11.49H6.689z"/>
			<path d="M12.336,34.349c-3.055,0-6.146-0.818-6.146-2.383v-11.99h12.293v11.99C18.482,33.53,15.391,34.349,12.336,34.349z
				 M7.189,20.976v10.99c0,0.487,1.954,1.383,5.146,1.383s5.146-0.896,5.146-1.383v-10.99H7.189z"/>
		</g>
		<g>
			<ellipse fill="#D9E5EC" cx="12.336" cy="20.09" rx="5.646" ry="1.883"/>
			<path d="M12.336,22.473c-3.055,0-6.146-0.818-6.146-2.383c0-3.127,12.293-3.127,12.293,0
				C18.482,21.654,15.391,22.473,12.336,22.473z M12.336,18.709c-3.192,0-5.146,0.894-5.146,1.381s1.954,1.383,5.146,1.383
				s5.146-0.896,5.146-1.383S15.528,18.709,12.336,18.709z"/>
		</g>
		<path fill="#AEC2CE" d="M13.589,33.297c1.276-0.101,2.272-0.345,2.94-0.616V21.87c-0.833,0.287-1.859,0.472-2.94,0.553V33.297z"/>
	</g>
</g>
</svg>
