<?xml version="1.0" encoding="UTF-8" standalone="no"?>
<svg
   xmlns:dc="http://purl.org/dc/elements/1.1/"
   xmlns:cc="http://creativecommons.org/ns#"
   xmlns:rdf="http://www.w3.org/1999/02/22-rdf-syntax-ns#"
   xmlns:svg="http://www.w3.org/2000/svg"
   xmlns="http://www.w3.org/2000/svg"
   xmlns:xlink="http://www.w3.org/1999/xlink"
   xmlns:sodipodi="http://sodipodi.sourceforge.net/DTD/sodipodi-0.dtd"
   xmlns:inkscape="http://www.inkscape.org/namespaces/inkscape"
   version="1.1"
   id="Ebene_1"
   x="0px"
   y="0px"
   width="89.669998"
   height="28.693001"
   viewBox="0 0 89.669993 28.693001"
   enable-background="new 0 0 138.542 69.792"
   xml:space="preserve"
   sodipodi:docname="Automated.svg"
   inkscape:version="1.0.1 (3bc2e813f5, 2020-09-07)"><metadata
   id="metadata121"><rdf:RDF><cc:Work
       rdf:about=""><dc:format>image/svg+xml</dc:format><dc:type
         rdf:resource="http://purl.org/dc/dcmitype/StillImage" /><dc:title></dc:title></cc:Work></rdf:RDF></metadata><defs
   id="defs119" /><sodipodi:namedview
   pagecolor="#ffffff"
   bordercolor="#666666"
   borderopacity="1"
   objecttolerance="10"
   gridtolerance="10"
   guidetolerance="10"
   inkscape:pageopacity="0"
   inkscape:pageshadow="2"
   inkscape:window-width="1920"
   inkscape:window-height="1001"
   id="namedview117"
   showgrid="false"
   inkscape:snap-page="true"
   fit-margin-top="0"
   fit-margin-left="0"
   fit-margin-right="0"
   fit-margin-bottom="0"
   inkscape:zoom="8.0047923"
   inkscape:cx="76.690192"
   inkscape:cy="32.925616"
   inkscape:window-x="-9"
   inkscape:window-y="-9"
   inkscape:window-maximized="1"
   inkscape:current-layer="Ebene_1" />

<g
   id="g114"
   transform="translate(-28.578,-17.727)">
	<g
   id="g10">
		<g
   id="g8">
			<path
   d="M 76.207,54.594 H 52.686 V 9.553 h 23.521 z m -21.521,-2 H 74.207 V 11.553 H 54.686 Z"
   id="path6" />
		</g>
	</g>
	<g
   id="g40">
		<g
   id="g16">
			<polygon
   fill="#e7e7e8"
   points="53.686,53.594 53.686,10.553 75.207,10.553 75.207,53.594 "
   id="polygon12" />
			<path
   fill="#e7e7e8"
   d="M 64.446,32.073"
   id="path14" />
		</g>
		<g
   id="g32">
			<defs
   id="defs19">
				<polygon
   id="SVGID_1_"
   points="53.686,53.594 53.686,10.553 75.207,10.553 75.207,53.594 " />
			</defs>
			<clipPath
   id="SVGID_2_">
				<use
   xlink:href="#SVGID_1_"
   overflow="visible"
   id="use21"
   x="0"
   y="0"
   width="100%"
   height="100%" />
			</clipPath>
			<g
   clip-path="url(#SVGID_2_)"
   id="g30">
				<g
   id="g28">
					<polygon
   fill="#c4c5c6"
   points="53.686,53.594 53.686,50.007 75.207,50.006 75.207,53.594 "
   id="polygon24" />
					<path
   fill="#c4c5c6"
   d="M 64.446,51.8"
   id="path26" />
				</g>
			</g>
		</g>
		<g
   id="g38">
			<polygon
   fill="none"
   stroke="#000000"
   stroke-miterlimit="3.8637"
   points="53.686,53.594 53.686,10.553 75.207,10.553 75.207,53.594 "
   id="polygon34" />
			<path
   fill="none"
   stroke="#000000"
   stroke-miterlimit="3.8637"
   d="M 64.446,32.073"
   id="path36" />
		</g>
	</g>
	<g
   id="g52">
		<g
   id="g50">
			<g
   id="g44">
				<path
   d="M 72.12,18.227 H 56.772 V 13.64 H 72.12 Z m -14.348,-1 H 71.12 V 14.64 H 57.772 Z"
   id="path42" />
			</g>
			<g
   id="g48">
				<path
   fill="none"
   d="M 64.446,15.933"
   id="path46" />
			</g>
		</g>
	</g>
	<g
   id="g64">
		<g
   id="g62">
			<g
   id="g56">
				<path
   d="M 72.12,25.399 H 56.772 V 20.812 H 72.12 Z m -14.348,-1 H 71.12 V 21.812 H 57.772 Z"
   id="path54" />
			</g>
			<g
   id="g60">
				<path
   fill="none"
   d="M 64.446,23.106"
   id="path58" />
			</g>
		</g>
	</g>
	<g
   id="g76">
		<g
   id="g74">
			<g
   id="g68">
				<path
   d="M 72.12,32.573 H 56.772 V 27.987 H 72.12 Z m -14.348,-1 H 71.12 V 28.987 H 57.772 Z"
   id="path66" />
			</g>
			<g
   id="g72">
				<path
   fill="none"
   d="M 64.446,30.28"
   id="path70" />
			</g>
		</g>
	</g>
	<g
   id="g88">
		<g
   id="g86">
			<g
   id="g80">
				<path
   d="M 68.532,39.747 H 60.359 V 35.16 h 8.173 z m -7.173,-1 h 6.173 V 36.16 h -6.173 z"
   id="path78" />
			</g>
			<g
   id="g84">
				<path
   fill="none"
   d="M 64.446,37.454"
   id="path82" />
			</g>
		</g>
	</g>
	<g
   id="g92">
		<rect
   x="60.859001"
   y="40.404999"
   width="7.1729999"
   height="0.63300002"
   id="rect90" />
	</g>
	<g
   id="g96">
		<rect
   x="60.859001"
   y="42.200001"
   width="7.1729999"
   height="0.63300002"
   id="rect94" />
	</g>
	<g
   id="g100">
		<rect
   x="60.859001"
   y="43.993"
   width="7.1729999"
   height="0.63300002"
   id="rect98" />
	</g>
	<g
   id="g104">
		<rect
   x="60.859001"
   y="45.786999"
   width="7.1729999"
   height="0.63300002"
   id="rect102" />
	</g>
	<g
   id="g108">
		<rect
   x="60.859001"
   y="47.581001"
   width="7.1729999"
   height="0.63300002"
   id="rect106" />
	</g>
	<g
   id="g112">
		<rect
   x="60.859001"
   y="49.374001"
   width="7.1729999"
   height="0.63300002"
   id="rect110" />
	</g>
</g>
</svg>
