<?xml version="1.0" encoding="utf-8"?>
<!-- Generator: Adobe Illustrator 14.0.0, SVG Export Plug-In . SVG Version: 6.00 Build 43363)  -->
<!DOCTYPE svg PUBLIC "-//W3C//DTD SVG 1.1//EN" "http://www.w3.org/Graphics/SVG/1.1/DTD/svg11.dtd">
<svg version="1.1" id="Ebene_1" xmlns="http://www.w3.org/2000/svg" xmlns:xlink="http://www.w3.org/1999/xlink" x="0px" y="0px"
	 width="44.833px" height="44.917px" viewBox="0 0 44.833 44.917" enable-background="new 0 0 44.833 44.917" xml:space="preserve">
<circle fill="#87888A" cx="22.198" cy="21.015" r="8.799"/>
<path fill-rule="evenodd" clip-rule="evenodd" fill="#FFFFFF" d="M23.914,21.033c-0.016-0.098-0.115-0.169-0.213-0.155l-0.594,0.094
	c-0.117-0.272-0.27-0.521-0.456-0.743l0.354-0.487c0.059-0.08,0.038-0.202-0.041-0.26l-0.904-0.657
	c-0.082-0.059-0.203-0.039-0.261,0.041l-0.354,0.487c-0.268-0.106-0.533-0.173-0.829-0.199l-0.021-0.02l-0.092-0.579
	c-0.015-0.098-0.114-0.17-0.214-0.155l-1.104,0.175c-0.098,0.016-0.17,0.115-0.155,0.213l0.095,0.594
	c-0.271,0.117-0.521,0.271-0.742,0.456l-0.487-0.354c-0.08-0.058-0.201-0.039-0.261,0.042l-0.657,0.905
	c-0.058,0.08-0.039,0.202,0.043,0.26l0.485,0.354c-0.107,0.268-0.174,0.534-0.199,0.829l-0.021,0.021l-0.578,0.091
	c-0.098,0.016-0.17,0.117-0.155,0.213l0.176,1.105c0.015,0.098,0.114,0.17,0.212,0.155l0.595-0.095
	c0.118,0.272,0.271,0.522,0.456,0.744l-0.353,0.487c-0.06,0.08-0.039,0.202,0.041,0.26l0.904,0.657
	c0.079,0.059,0.201,0.04,0.26-0.042l0.354-0.487c0.268,0.108,0.535,0.173,0.828,0.201l0.022,0.019l0.093,0.579
	c0.015,0.097,0.114,0.17,0.212,0.155l1.104-0.175c0.099-0.016,0.172-0.116,0.155-0.214l-0.094-0.594
	c0.273-0.116,0.522-0.271,0.744-0.456l0.485,0.354c0.081,0.058,0.203,0.038,0.261-0.042l0.656-0.905
	c0.06-0.08,0.041-0.202-0.04-0.26l-0.487-0.353c0.106-0.268,0.174-0.535,0.201-0.829l0.021-0.022l0.575-0.092
	c0.101-0.015,0.172-0.115,0.155-0.212L23.914,21.033z M20.63,24.123c-1.08,0.171-2.094-0.564-2.265-1.645
	c-0.17-1.08,0.566-2.094,1.646-2.265c1.078-0.17,2.094,0.566,2.264,1.646C22.448,22.938,21.71,23.953,20.63,24.123z"/>
<path fill-rule="evenodd" clip-rule="evenodd" fill="#FFFFFF" d="M23.282,19.052c-0.021-0.205-0.013-0.406,0.022-0.598l-0.439-0.196
	c-0.112-0.05-0.166-0.187-0.116-0.3l0.23-0.52c0.052-0.114,0.188-0.166,0.303-0.117l0.436,0.195
	c0.248-0.317,0.582-0.567,0.972-0.707l-0.048-0.476c-0.015-0.122,0.079-0.237,0.201-0.25l0.566-0.059
	c0.124-0.013,0.238,0.081,0.251,0.203l0.05,0.478c0.408,0.055,0.785,0.228,1.091,0.486l0.389-0.283c0.1-0.073,0.245-0.05,0.318,0.05
	l0.335,0.461c0.071,0.1,0.05,0.245-0.05,0.318l-0.39,0.283c0.073,0.182,0.123,0.377,0.144,0.583
	c0.022,0.209,0.015,0.412-0.021,0.608l0.439,0.195c0.112,0.05,0.164,0.189,0.116,0.301l-0.233,0.52
	c-0.05,0.113-0.188,0.166-0.301,0.115l-0.441-0.196c-0.243,0.313-0.576,0.559-0.961,0.698l0.051,0.48
	c0.014,0.122-0.081,0.237-0.203,0.25l-0.566,0.059c-0.122,0.013-0.238-0.08-0.249-0.202l-0.052-0.479
	c-0.408-0.056-0.785-0.228-1.091-0.485l-0.388,0.282c-0.1,0.072-0.246,0.05-0.318-0.05l-0.336-0.461
	c-0.071-0.1-0.05-0.246,0.05-0.317l0.388-0.282C23.354,19.456,23.304,19.259,23.282,19.052z M24.297,18.946
	c-0.064-0.617,0.382-1.171,1.001-1.236c0.616-0.064,1.17,0.383,1.234,1c0.064,0.617-0.382,1.17-1,1.234
	C24.916,20.01,24.362,19.563,24.297,18.946z"/>
</svg>
