<?xml version="1.0" encoding="utf-8"?>
<!-- Generator: Adobe Illustrator 14.0.0, SVG Export Plug-In . SVG Version: 6.00 Build 43363)  -->
<!DOCTYPE svg PUBLIC "-//W3C//DTD SVG 1.1//EN" "http://www.w3.org/Graphics/SVG/1.1/DTD/svg11.dtd">
<svg version="1.1" id="Ebene_1" xmlns="http://www.w3.org/2000/svg" xmlns:xlink="http://www.w3.org/1999/xlink" x="0px" y="0px"
	 width="44.833px" height="44.917px" viewBox="0 0 44.833 44.917" enable-background="new 0 0 44.833 44.917" xml:space="preserve">
<g>
	<circle fill="#87888A" cx="22.044" cy="22.708" r="8.799"/>
	<path fill="#FFFFFF" d="M21.896,20.483c1.008,0,1.826-0.816,1.826-1.824c0-1.008-0.818-1.825-1.826-1.825s-1.824,0.817-1.824,1.825
		C20.072,19.667,20.888,20.483,21.896,20.483z M24.435,20.906h-5.07c-0.699,0-1.261,0.566-1.261,1.265L18.1,28.076l1.538,0.006
		v-5.066h0.297v5.067l3.922,0.013v-5.082h0.297v5.083l1.54,0.005v-5.931C25.694,21.472,25.132,20.906,24.435,20.906z"/>
</g>
</svg>
