<?xml version="1.0" encoding="utf-8"?>
<!-- Generator: Adobe Illustrator 14.0.0, SVG Export Plug-In . SVG Version: 6.00 Build 43363)  -->
<!DOCTYPE svg PUBLIC "-//W3C//DTD SVG 1.1//EN" "http://www.w3.org/Graphics/SVG/1.1/DTD/svg11.dtd">
<svg version="1.1" id="Ebene_1" xmlns="http://www.w3.org/2000/svg" xmlns:xlink="http://www.w3.org/1999/xlink" x="0px" y="0px"
	 width="44.833px" height="44.917px" viewBox="0 0 44.833 44.917" enable-background="new 0 0 44.833 44.917" xml:space="preserve">
<circle fill="#87888A" cx="22.027" cy="22.069" r="8.799"/>
<path fill-rule="evenodd" clip-rule="evenodd" fill="#FFFFFF" d="M28.505,19.508c-0.013-0.088-0.104-0.153-0.19-0.139l-0.531,0.084
	c-0.105-0.245-0.242-0.467-0.408-0.666l0.317-0.436c0.052-0.072,0.033-0.181-0.039-0.233l-0.811-0.588
	c-0.069-0.053-0.179-0.036-0.232,0.037l-0.315,0.436c-0.24-0.097-0.479-0.155-0.744-0.179l-0.019-0.018l-0.081-0.518
	c-0.015-0.087-0.104-0.153-0.192-0.139l-0.987,0.157c-0.089,0.013-0.153,0.103-0.141,0.191l0.085,0.531
	c-0.243,0.105-0.467,0.243-0.666,0.409l-0.436-0.317c-0.072-0.052-0.182-0.035-0.232,0.038l-0.59,0.81
	c-0.051,0.072-0.035,0.182,0.037,0.233l0.436,0.316c-0.094,0.236-0.15,0.471-0.175,0.729c0.344,0.008,0.665,0.113,0.933,0.292
	c-0.007-0.863,0.61-1.626,1.488-1.765c0.968-0.153,1.876,0.506,2.029,1.474c0.153,0.967-0.508,1.875-1.476,2.028
	c-0.458,0.073-0.899-0.042-1.256-0.28c0,0.003,0.001,0.007,0.001,0.011l0,1.047c0.231,0.089,0.46,0.149,0.714,0.172l0.019,0.018
	l0.083,0.518c0.014,0.088,0.104,0.152,0.19,0.139l0.989-0.157c0.087-0.013,0.152-0.102,0.139-0.19l-0.085-0.532
	c0.244-0.103,0.47-0.243,0.667-0.408l0.436,0.316c0.072,0.053,0.181,0.035,0.232-0.036l0.589-0.811
	c0.052-0.072,0.035-0.181-0.037-0.233l-0.436-0.316c0.097-0.241,0.155-0.479,0.18-0.743l0.019-0.019l0.517-0.082
	c0.089-0.014,0.153-0.104,0.139-0.191L28.505,19.508z"/>
<g>
	<circle fill="#FFFFFF" cx="20.01" cy="18.495" r="1.825"/>
	<path fill="#FFFFFF" d="M22.547,20.742h-5.067c-0.699,0-1.261,0.566-1.261,1.266l-0.003,4.714c0.356,0.443,0.762,0.844,1.209,1.196
		l0.326,0.001v-5.067h0.299v5.068l3.92,0.013v-5.082h0.299v5.083l1.538,0.006l0.002-5.933
		C23.809,21.309,23.247,20.742,22.547,20.742z"/>
</g>
</svg>
