<?xml version="1.0" encoding="utf-8"?>
<!-- Generator: Adobe Illustrator 14.0.0, SVG Export Plug-In . SVG Version: 6.00 Build 43363)  -->
<!DOCTYPE svg PUBLIC "-//W3C//DTD SVG 1.1//EN" "http://www.w3.org/Graphics/SVG/1.1/DTD/svg11.dtd">
<svg version="1.1" id="Ebene_1" xmlns="http://www.w3.org/2000/svg" xmlns:xlink="http://www.w3.org/1999/xlink" x="0px" y="0px"
	 width="52px" height="44px" viewBox="0 0 52 44" enable-background="new 0 0 52 44" xml:space="preserve">
<g>
	<polygon points="32.368,31.055 9.293,31.055 7.42,34.777 34.24,34.777 	"/>
	<polygon fill="#FFF7CC" points="9.655,31.643 32.006,31.643 33.288,34.189 8.374,34.189 	"/>
	<polygon points="22.716,11.875 18.946,11.875 20.831,8.129 22.716,11.875 	"/>
	<polygon fill="#FFF7CC" points="19.899,11.287 21.762,11.287 20.831,9.437 19.899,11.287 	"/>
	<polygon points="23.15,12.733 18.514,12.733 16.64,16.455 25.021,16.455 	"/>
	<polygon fill="#FFF7CC" points="18.876,13.321 22.788,13.321 24.067,15.867 17.594,15.867 	"/>
	<polygon points="26.849,20.742 25.272,17.609 16.39,17.609 14.812,20.742 	"/>
	<polygon points="27.326,21.035 14.334,21.035 16.209,17.315 25.453,17.315 27.326,21.035 	"/>
	<polygon fill="#707173" points="15.289,20.447 26.372,20.447 25.091,17.903 16.571,17.903 15.289,20.447 	"/>
	<polygon points="29.632,25.616 12.03,25.616 13.903,21.894 27.758,21.894 29.632,25.616 	"/>
	<polygon fill="#FFF7CC" points="12.984,25.028 28.678,25.028 27.396,22.481 14.266,22.481 12.984,25.028 	"/>
	<polygon points="31.937,30.197 9.725,30.197 11.598,26.476 30.063,26.476 31.937,30.197 	"/>
	<polygon fill="#FFF7CC" points="10.679,29.609 30.982,29.609 29.701,27.063 11.96,27.063 10.679,29.609 	"/>
	<circle fill="#E3E7F3" stroke="#000000" stroke-width="0.828" cx="33.202" cy="13.106" r="4.018"/>
	<g>
		<path fill="#E3E7F3" stroke="#000000" stroke-width="0.828" d="M38.787,18.557H27.63c-1.54,0-2.776,1.247-2.776,2.785L24.845,34.4
			h3.386V23.527h0.654V34.4h8.633V23.527h0.653V34.4h3.387l0.004-13.059C41.562,19.804,40.323,18.557,38.787,18.557z"/>
		<path d="M41.973,34.814H24.43l0.009-13.474c0-1.764,1.431-3.198,3.191-3.198h11.157c1.758,0,3.189,1.435,3.189,3.199
			L41.973,34.814L41.973,34.814z"/>
		<path fill="#DBE5EF" d="M41.145,33.986l0.003-12.645c0-1.307-1.06-2.371-2.36-2.371H27.63c-1.302,0-2.362,1.064-2.362,2.371
			L25.26,33.986H28.1V23.113h1.2v10.873h7.804V23.113h1.201v10.873H41.145z"/>
		<path d="M33.202,17.538c-2.444,0-4.432-1.988-4.432-4.433c0-2.444,1.988-4.432,4.432-4.432c2.443,0,4.431,1.988,4.431,4.432
			C37.633,15.55,35.645,17.538,33.202,17.538L33.202,17.538z"/>
		<path fill="#FFF7CC" d="M33.202,9.503c-1.987,0-3.603,1.616-3.603,3.603c0,1.987,1.616,3.604,3.603,3.604
			c1.986,0,3.601-1.617,3.601-3.604C36.803,11.119,35.188,9.503,33.202,9.503L33.202,9.503z"/>
	</g>
</g>
</svg>
