<?xml version="1.0" encoding="utf-8"?>
<!-- Generator: Adobe Illustrator 14.0.0, SVG Export Plug-In . SVG Version: 6.00 Build 43363)  -->
<!DOCTYPE svg PUBLIC "-//W3C//DTD SVG 1.1//EN" "http://www.w3.org/Graphics/SVG/1.1/DTD/svg11.dtd">
<svg version="1.1" id="Ebene_1" xmlns="http://www.w3.org/2000/svg" xmlns:xlink="http://www.w3.org/1999/xlink" x="0px" y="0px"
	 width="138.542px" height="69.792px" viewBox="0 0 138.542 69.792" enable-background="new 0 0 138.542 69.792"
	 xml:space="preserve">
<g id="54">
	<g>
		<g>
			<path fill="#E7E7E8" d="M47.635,26.367h3.535l5.765,0.001c1.125-1.353,1.577-1.965,3.656-2.821
				c1.814-0.747,4.733-0.413,5.872,0.997l-1.496,1.139L75.26,37.6c0,0,1.256,1.353,0.955,2.264
				c-0.291,0.878-2.004,1.268-2.004,1.268l-9.573,0.782l-6.427-4.138l-10.559,0.045L47.635,26.367z"/>
			<path d="M64.493,42.491l-6.446-4.151L47.09,38.386l-0.019-12.583l9.599,0.001c1.021-1.229,1.606-1.915,3.706-2.778
				c0.684-0.281,1.505-0.43,2.375-0.43c1.767,0,3.356,0.61,4.15,1.593l0.364,0.452l-1.481,1.126l9.902,11.463
				c0.233,0.252,1.448,1.642,1.063,2.809c-0.373,1.124-2.076,1.564-2.414,1.641L64.493,42.491L64.493,42.491z M58.376,37.211
				l6.406,4.125l9.382-0.767c0.51-0.124,1.393-0.511,1.516-0.884c0.127-0.385-0.402-1.236-0.834-1.704L64.148,25.597l1.445-1.099
				c-0.67-0.481-1.715-0.775-2.843-0.775c-0.714,0-1.405,0.123-1.946,0.345c-1.865,0.767-2.287,1.275-3.305,2.501l-0.301,0.362
				l-9-0.001l0.016,10.324L58.376,37.211L58.376,37.211z"/>
		</g>
		<g>
			<path fill="#E7E7E8" d="M47.635,26.367h3.535l5.765,0.001c1.125-1.353,1.577-1.965,3.656-2.821
				c1.814-0.747,4.733-0.413,5.872,0.997l-1.496,1.139L75.26,37.6c0,0,1.256,1.353,0.955,2.264
				c-0.291,0.878-2.004,1.268-2.004,1.268l-9.573,0.782l-6.427-4.138l-10.559,0.045L47.635,26.367z"/>
			<path d="M64.493,42.491l-6.446-4.151L47.09,38.386l-0.019-12.583l9.599,0.001c1.021-1.229,1.606-1.915,3.706-2.778
				c0.684-0.281,1.505-0.43,2.375-0.43c1.767,0,3.356,0.61,4.15,1.593l0.364,0.452l-1.481,1.126l9.902,11.463
				c0.233,0.252,1.448,1.642,1.063,2.809c-0.373,1.124-2.076,1.564-2.414,1.641L64.493,42.491L64.493,42.491z M58.376,37.211
				l6.406,4.125l9.382-0.767c0.51-0.124,1.393-0.511,1.516-0.884c0.127-0.385-0.402-1.236-0.834-1.704L64.148,25.597l1.445-1.099
				c-0.67-0.481-1.715-0.775-2.843-0.775c-0.714,0-1.405,0.123-1.946,0.345c-1.865,0.767-2.287,1.275-3.305,2.501l-0.301,0.362
				l-9-0.001l0.016,10.324L58.376,37.211L58.376,37.211z"/>
		</g>
	</g>
	<path fill="#FFFFFF" d="M47.635,26.367h3.535l5.765,0.001c1.125-1.353,1.577-1.965,3.656-2.821
		c1.814-0.747,4.733-0.413,5.872,0.997l-1.496,1.139L75.26,37.6c0,0,1.256,1.353,0.955,2.264c-0.291,0.878-2.004,1.268-2.004,1.268
		l-9.573,0.782l-6.427-4.138l-10.559,0.045L47.635,26.367z"/>
	<g>
		<path fill-rule="evenodd" clip-rule="evenodd" d="M68.828,23.591c0.037-0.007,0.074-0.013,0.111-0.019
			C68.902,23.578,68.865,23.583,68.828,23.591z"/>
		<path fill-rule="evenodd" clip-rule="evenodd" d="M68.177,23.769c0.022-0.007,0.045-0.016,0.067-0.024
			C68.222,23.752,68.199,23.761,68.177,23.769z"/>
		<path fill-rule="evenodd" clip-rule="evenodd" d="M83.228,37.765l-7.84,0.011L70.16,31.63l-2.919,2.652l2.47-2.244l5.135,5.944
			c0.432,0.468,0.961,1.319,0.834,1.704c-0.123,0.373-1.006,0.76-1.516,0.884l-0.9,0.074l-3.771-4.39l-0.563,0.483l3.42,3.98
			l-2.438,0.199l-2.425-2.813l-0.562,0.484l2.073,2.404l-3.32,0.271c0.008-0.027,0.026-0.047,0.033-0.074l0.137-0.683
			c0.146-0.532,0.072-1.091-0.206-1.572c-0.288-0.498-0.758-0.854-1.323-1.002l-7.032-1.845c-0.188-0.049-0.383-0.074-0.578-0.074
			c-0.865,0-1.612,0.483-1.934,1.213l-3.909,0.017V26.93l6.335,0.001l0.301-0.362c1.018-1.226,1.439-1.734,3.305-2.501
			c0.541-0.222,1.232-0.345,1.946-0.345c1.128,0,2.173,0.294,2.843,0.775l-1.445,1.099l2.853,3.304l-5.188,4.915l5.652-5.354
			l-2.349-2.761c0,0,0.79-0.766,1.885-1.391c-0.001,0-0.001,0-0.001,0.001l-0.099-0.122c-0.794-0.982-2.384-1.593-4.15-1.593
			c-0.87,0-1.691,0.148-2.375,0.43c-2.1,0.863-2.686,1.55-3.706,2.778l-5.806-0.001V23.89h-6.456v17.113h6.456V38.37l3.807-0.016
			c0.097,0.385,0.306,0.704,0.515,0.991l0.169,0.237c0.626,0.916,1.384,1.465,2.412,1.734l5.337,1.112
			c0.256,0.067,0.51,0.102,0.754,0.102c0.207,0,0.395-0.032,0.575-0.079l0.061,0.039l9.843-0.811
			c0.338-0.076,2.041-0.517,2.414-1.641c0.263-0.799-0.222-1.694-0.629-2.266L83.228,37.765z M65.304,40.359l-0.146,0.719
			c-0.225,0.817-1.063,1.03-1.912,0.808l-5.364-1.119c-0.849-0.224-1.502-0.68-2.063-1.501c-0.367-0.538-0.758-0.919-0.617-1.555
			c0.189-0.845,1.093-1.3,1.94-1.077l7.033,1.845C65.021,38.7,65.526,39.542,65.304,40.359z"/>
	</g>
	<g>
		<g>
			<polygon fill="#E7E7E8" points="44.972,24.454 50.301,24.454 50.301,40.44 44.972,40.44 44.972,24.454 			"/>
			<path d="M50.864,41.003h-6.456V23.89h6.456V41.003L50.864,41.003z M45.535,39.877h4.203v-14.86h-4.203V39.877L45.535,39.877z"/>
		</g>
		<g>
			<path fill="#E7E7E8" d="M47.635,32.447"/>
		</g>
	</g>
	<polygon fill="#E7E7E8" points="45.535,39.877 49.738,39.877 49.738,25.017 45.535,25.017 45.535,39.877 	"/>
	<g>
		<path fill="#E7E7E8" d="M47.635,32.447"/>
	</g>
	<path fill-rule="evenodd" clip-rule="evenodd" fill="#FFFFFF" d="M57.142,36.633l7.033,1.845c0.847,0.222,1.352,1.064,1.129,1.881
		l-0.146,0.719c-0.225,0.817-1.063,1.03-1.912,0.808l-5.364-1.119c-0.849-0.224-1.502-0.68-2.063-1.501
		c-0.367-0.538-0.758-0.919-0.617-1.555C55.391,36.866,56.294,36.411,57.142,36.633z"/>
	<path d="M63.857,42.531c-0.244,0-0.498-0.034-0.754-0.102l-5.337-1.112c-1.028-0.27-1.786-0.818-2.412-1.734l-0.169-0.237
		c-0.332-0.458-0.708-0.977-0.534-1.757c0.208-0.928,1.054-1.574,2.056-1.574c0.195,0,0.39,0.025,0.578,0.074l7.032,1.845
		c0.565,0.147,1.035,0.504,1.323,1.002c0.278,0.481,0.352,1.04,0.206,1.572L65.71,41.19C65.477,42.043,64.787,42.531,63.857,42.531
		L63.857,42.531z M56.707,37.141c-0.472,0-0.865,0.285-0.956,0.692c-0.058,0.263,0.037,0.423,0.346,0.851l0.188,0.264
		c0.47,0.688,1.007,1.08,1.74,1.273l5.337,1.112c0.727,0.187,1.135,0.023,1.253-0.405l0.137-0.681
		c0.074-0.277,0.041-0.529-0.086-0.749c-0.136-0.235-0.361-0.404-0.634-0.476l-7.033-1.845
		C56.903,37.153,56.805,37.141,56.707,37.141L56.707,37.141z"/>
	<path fill-rule="evenodd" clip-rule="evenodd" fill="#FFFFFF" d="M83.228,37.765l-0.031-11.398h-3.515l-5.768,0.001
		c-1.123-1.353-2.121-2.854-4.368-2.854c-2.183,0-4.43,2.188-4.43,2.188l2.349,2.761l-5.652,5.354l0.311,0.328
		c1.375,1.45,3.668,1.512,5.118,0.138l2.919-2.652l5.228,6.146L83.228,37.765z"/>
	<path d="M79.044,23.89v1.914l-4.863,0.001l-0.133-0.162c-1.027-1.262-2.19-2.692-4.502-2.692c-2.384,0-4.724,2.251-4.823,2.347
		l-0.377,0.368l2.344,2.755l-5.672,5.373l0.697,0.738c0.786,0.83,1.893,1.305,3.037,1.305c1.076,0,2.098-0.406,2.868-1.138
		l2.487-2.261l5.021,5.9l3.916-0.004v2.669H85.5V23.89H79.044z M75.647,37.211l-5.437-6.39l-3.357,3.051
		c-1.158,1.097-3.114,1.074-4.242-0.036l5.629-5.333l-2.336-2.746c0.697-0.579,2.212-1.681,3.642-1.681
		c1.775,0,2.634,1.056,3.628,2.277l0.476,0.577l5.395-0.001v10.277L75.647,37.211z"/>
</g>
</svg>
