<?xml version="1.0" encoding="utf-8"?>
<!-- Generator: Adobe Illustrator 14.0.0, SVG Export Plug-In . SVG Version: 6.00 Build 43363)  -->
<!DOCTYPE svg PUBLIC "-//W3C//DTD SVG 1.1//EN" "http://www.w3.org/Graphics/SVG/1.1/DTD/svg11.dtd">
<svg version="1.1" id="Ebene_1" xmlns="http://www.w3.org/2000/svg" xmlns:xlink="http://www.w3.org/1999/xlink" x="0px" y="0px"
	 width="138.542px" height="69.792px" viewBox="0 0 138.542 69.792" enable-background="new 0 0 138.542 69.792"
	 xml:space="preserve">
<g>
	<g>
		<polygon fill-rule="evenodd" clip-rule="evenodd" fill="#C6D4DC" points="28.104,18.633 99.839,18.633 117.773,32.98 
			99.839,47.328 28.104,47.328 		"/>
	</g>
	<g>
		<g>
			<polygon fill="#FFFFFF" points="66.895,47.973 68.308,47.973 68.308,53.883 66.895,53.883 66.895,47.973 			"/>
			<path fill="#FFFFFF" d="M67.601,50.928"/>
		</g>
	</g>
	<g>
		<g>
			<path fill-rule="evenodd" clip-rule="evenodd" fill="#FFFFFF" d="M46.644,31.488c0.764-10.83,9.791-19.377,20.814-19.377
				c11.525,0,20.867,9.343,20.867,20.867c0,11.525-9.342,20.868-20.867,20.868c-10.546,0-19.264-7.822-20.669-17.98l-0.813,0.002
				l-3.689,0.012L46.644,31.488z M53.134,30.106c1.334-6.692,7.24-11.734,14.324-11.734c8.067,0,14.607,6.54,14.607,14.606
				c0,8.067-6.54,14.607-14.607,14.607c-7.082,0-12.986-5.039-14.323-11.728l1.35-0.002l3.669,0.023L53.134,30.106z"/>
			
				<path fill-rule="evenodd" clip-rule="evenodd" fill="none" stroke="#000000" stroke-width="1.3742" stroke-miterlimit="3.8637" d="
				M46.644,31.488c0.764-10.83,9.791-19.377,20.814-19.377c11.525,0,20.867,9.343,20.867,20.867
				c0,11.525-9.342,20.868-20.867,20.868c-10.546,0-19.264-7.822-20.669-17.98l-0.813,0.002l-3.689,0.012L46.644,31.488z
				 M53.134,30.106c1.334-6.692,7.24-11.734,14.324-11.734c8.067,0,14.607,6.54,14.607,14.606c0,8.067-6.54,14.607-14.607,14.607
				c-7.082,0-12.986-5.039-14.323-11.728l1.35-0.002l3.669,0.023L53.134,30.106z"/>
		</g>
		<g>
			<polyline fill-rule="evenodd" clip-rule="evenodd" fill="none" points="54.494,35.856 58.153,35.879 50.741,27.355 
				42.286,35.879 45.976,35.868 			"/>
			
				<polyline fill-rule="evenodd" clip-rule="evenodd" fill="none" stroke="#000000" stroke-width="1.3742" stroke-miterlimit="3.8637" points="
				54.494,35.856 58.153,35.879 50.741,27.355 42.286,35.879 45.976,35.868 			"/>
		</g>
	</g>
</g>
<polygon fill-rule="evenodd" clip-rule="evenodd" fill="#C6D4DC" points="28.104,18.633 99.839,18.633 117.773,32.98 99.839,47.328 
	28.104,47.328 "/>
<g>
	<g>
		<g>
			<polygon fill="#FFFFFF" points="66.895,47.973 68.308,47.973 68.308,53.883 66.895,53.883 66.895,47.973 			"/>
			<path fill="#FFFFFF" d="M67.601,50.928"/>
		</g>
	</g>
	<g>
		<g>
			<path fill-rule="evenodd" clip-rule="evenodd" fill="#FFFFFF" d="M46.644,31.488c0.764-10.83,9.791-19.377,20.814-19.377
				c11.525,0,20.867,9.343,20.867,20.867c0,11.525-9.342,20.868-20.867,20.868c-10.546,0-19.264-7.822-20.669-17.98l-0.813,0.002
				l-3.689,0.012L46.644,31.488z M53.134,30.106c1.334-6.692,7.24-11.734,14.324-11.734c8.067,0,14.607,6.54,14.607,14.606
				c0,8.067-6.54,14.607-14.607,14.607c-7.082,0-12.986-5.039-14.323-11.728l1.35-0.002l3.669,0.023L53.134,30.106z"/>
			<g>
				<path d="M67.458,54.533c-10.505,0-19.539-7.688-21.259-17.979l-5.568,0.017l5.347-5.388
					c0.916-11.101,10.302-19.759,21.48-19.759c11.885,0,21.555,9.669,21.555,21.554C89.013,44.864,79.343,54.533,67.458,54.533
					L67.458,54.533z M47.388,35.178l0.082,0.594c1.371,9.912,9.964,17.387,19.988,17.387c11.127,0,20.18-9.053,20.18-20.181
					c0-11.127-9.053-20.18-20.18-20.18c-10.546,0-19.388,8.231-20.129,18.738l-0.019,0.254l-3.369,3.396L47.388,35.178
					L47.388,35.178z M67.458,48.272c-7.268,0-13.575-5.164-14.997-12.279l-0.164-0.821l2.191-0.003l2.148,0.014l-4.243-4.88
					l0.066-0.331c1.419-7.12,7.727-12.287,14.998-12.287c8.434,0,15.295,6.86,15.295,15.293
					C82.753,41.412,75.892,48.272,67.458,48.272L67.458,48.272z M53.999,36.543c1.597,6.048,7.127,10.355,13.459,10.355
					c7.676,0,13.92-6.245,13.92-13.921c0-7.675-6.244-13.919-13.92-13.919c-6.506,0-12.164,4.545-13.581,10.855l5.793,6.662
					l-5.188-0.032H53.999L53.999,36.543z"/>
			</g>
		</g>
		<g>
			<polyline fill-rule="evenodd" clip-rule="evenodd" fill="none" points="54.494,35.856 58.153,35.879 50.741,27.355 
				42.286,35.879 45.976,35.868 			"/>
			<g>
				<polygon points="59.67,36.576 54.49,36.543 54.498,35.168 56.637,35.182 50.708,28.364 43.94,35.186 45.974,35.18 
					45.978,36.555 40.632,36.571 50.774,26.347 59.67,36.576 				"/>
			</g>
		</g>
	</g>
</g>
</svg>
