<?xml version="1.0" encoding="utf-8"?>
<!-- Generator: Adobe Illustrator 14.0.0, SVG Export Plug-In . SVG Version: 6.00 Build 43363)  -->
<!DOCTYPE svg PUBLIC "-//W3C//DTD SVG 1.1//EN" "http://www.w3.org/Graphics/SVG/1.1/DTD/svg11.dtd">
<svg version="1.1" id="Ebene_1" xmlns="http://www.w3.org/2000/svg" xmlns:xlink="http://www.w3.org/1999/xlink" x="0px" y="0px"
	 width="138.542px" height="69.792px" viewBox="0 0 138.542 69.792" enable-background="new 0 0 138.542 69.792"
	 xml:space="preserve">
<polygon fill-rule="evenodd" clip-rule="evenodd" fill="#C6D4DC" points="28.332,18.53 99.441,18.53 117.219,32.752 99.441,46.973 
	28.332,46.973 "/>
<g>
	<g>
		<g>
			<polygon fill-rule="evenodd" clip-rule="evenodd" fill="#FFFDE8" points="38.449,36.698 59.695,36.698 65.006,40.946 
				59.695,45.196 38.449,45.196 			"/>
			<g>
				<path d="M59.871,45.696H37.949v-9.498h21.922l5.936,4.748L59.871,45.696L59.871,45.696z M38.949,44.696h20.57l4.686-3.75
					l-4.686-3.748h-20.57V44.696L38.949,44.696z"/>
			</g>
		</g>
	</g>
	<g>
		<g>
			<polygon fill-rule="evenodd" clip-rule="evenodd" fill="#FFFDE8" points="69.067,36.698 90.313,36.698 95.624,40.946 
				90.313,45.196 69.067,45.196 			"/>
			<g>
				<path d="M90.489,45.696H68.567v-9.498h21.922l5.936,4.748L90.489,45.696L90.489,45.696z M69.567,44.696h20.57l4.686-3.75
					l-4.686-3.748h-20.57V44.696L69.567,44.696z"/>
			</g>
		</g>
	</g>
	<g>
		<g>
			<polygon fill-rule="evenodd" clip-rule="evenodd" fill="#FFFDE8" points="53.221,20.307 74.465,20.307 79.776,24.556 
				74.465,28.804 53.221,28.804 			"/>
			<g>
				<path d="M74.641,29.304h-21.92v-9.497h21.92l5.937,4.749L74.641,29.304L74.641,29.304z M53.721,28.304h20.568l4.687-3.749
					l-4.687-3.749H53.721V28.304L53.721,28.304z"/>
			</g>
		</g>
	</g>
</g>
<polygon points="65.646,32.214 65.646,29.84 64.646,29.84 64.646,32.214 51.465,32.214 51.465,35.518 52.465,35.518 52.465,33.214 
	77.038,33.214 77.038,35.518 78.038,35.518 78.038,32.214 "/>
</svg>
