<?xml version="1.0" encoding="utf-8"?>
<!-- Generator: Adobe Illustrator 14.0.0, SVG Export Plug-In . SVG Version: 6.00 Build 43363)  -->
<!DOCTYPE svg PUBLIC "-//W3C//DTD SVG 1.1//EN" "http://www.w3.org/Graphics/SVG/1.1/DTD/svg11.dtd">
<svg version="1.1" id="Ebene_1" xmlns="http://www.w3.org/2000/svg" xmlns:xlink="http://www.w3.org/1999/xlink" x="0px" y="0px"
	 width="138.542px" height="69.792px" viewBox="0 0 138.542 69.792" enable-background="new 0 0 138.542 69.792"
	 xml:space="preserve">
<g>
	<g>
		<polygon fill-rule="evenodd" clip-rule="evenodd" fill="#C6D4DC" points="28.578,18.058 100.312,18.058 118.246,32.405 
			100.312,46.752 28.578,46.752 		"/>
	</g>
	<g>
		<g>
			<g>
				<path fill-rule="evenodd" clip-rule="evenodd" fill="#E7E7E8" d="M72.888,33.233l2.886-0.294l-0.977-10.977
					c-0.071-0.401-0.221-1.094-0.665-1.657c-0.811-1.028-3.531-0.932-4.206-0.932h-3.758h-3.747
					c-1.337-0.018-2.625,0.249-3.156,0.576c-0.515,0.316-1.206,1.028-1.384,2.215l-0.06,10.854l2.562,3.153l0.475,0.927
					l0.089,14.979c0.078,1.002,0.952,1.754,1.957,1.685c0.919-0.064,1.654-0.804,1.725-1.696l0.736-12.57h1.747l0.736,12.57
					c0.07,0.893,0.806,1.632,1.724,1.696c1.005,0.069,1.879-0.683,1.957-1.685l0.09-14.979L72.888,33.233z"/>
			</g>
			<g>
				<path d="M69.701,54.202L69.701,54.202c-0.053,0-0.105-0.001-0.159-0.005c-1.126-0.079-2.041-0.981-2.129-2.099L66.7,39.932
					h-0.923L65.064,52.09c-0.088,1.125-1.004,2.027-2.13,2.106c-1.248,0.095-2.327-0.86-2.423-2.086l-0.089-14.905l-0.428-0.836
					l-2.611-3.198l0.061-11.01c0.242-1.644,1.279-2.393,1.592-2.584c0.624-0.383,1.934-0.641,3.26-0.641l7.63,0.001l0.458-0.002
					c2.169,0,3.507,0.36,4.091,1.101c0.489,0.62,0.664,1.354,0.752,1.851l1.02,11.443l-3.032,0.31l-1.158,3.531l-0.09,14.908
					C71.873,53.284,70.879,54.202,69.701,54.202L69.701,54.202z M64.953,39.059h2.571l0.76,12.98
					c0.054,0.68,0.621,1.237,1.318,1.286l0.099,0.003c0.725,0,1.337-0.564,1.393-1.286l0.11-15.08l1.357-4.134l2.739-0.28
					l-0.938-10.547c-0.067-0.367-0.205-0.959-0.573-1.425c-0.227-0.287-0.969-0.768-3.405-0.768l-7.963,0.002l-0.125-0.001
					c-1.28,0-2.399,0.264-2.803,0.512c-0.231,0.142-1,0.699-1.181,1.907l-0.054,10.636l2.464,3.032l0.572,1.2l0.089,14.979
					c0.055,0.689,0.667,1.254,1.392,1.254c0.797-0.052,1.364-0.609,1.418-1.299L64.953,39.059L64.953,39.059z"/>
			</g>
		</g>
		<g>
			<g>
				<circle fill="#FFFDE8" cx="66.036" cy="14.567" r="3.766"/>
			</g>
			<g>
				<path d="M66.035,18.771c-2.317,0-4.203-1.886-4.203-4.204s1.886-4.204,4.203-4.204c2.318,0,4.204,1.886,4.204,4.204
					S68.354,18.771,66.035,18.771L66.035,18.771z M66.035,11.239c-1.835,0-3.328,1.493-3.328,3.329s1.493,3.329,3.328,3.329
					c1.836,0,3.329-1.493,3.329-3.329S67.871,11.239,66.035,11.239L66.035,11.239z"/>
			</g>
		</g>
		<polygon points="82.371,32.319 50.101,32.319 50.101,34.113 51.893,34.113 51.893,53.842 53.686,53.842 53.686,37.7 78.791,37.7 
			78.791,53.842 80.585,53.842 80.585,34.113 82.371,34.113 		"/>
		<g>
			<g>
				<polygon points="71.934,30.275 71.061,30.275 71.061,23.58 71.934,23.58 71.934,30.275 				"/>
			</g>
		</g>
		<g>
			<g>
				<polygon points="61.294,29.405 60.421,29.403 60.434,23.579 61.307,23.581 61.294,29.405 				"/>
			</g>
		</g>
		<g>
			<g>
				<polygon points="63.244,29.657 62.296,27.114 63.233,26.765 64.182,29.308 63.244,29.657 				"/>
			</g>
		</g>
		<g>
			<g>
				<path d="M71.239,39.622c-0.291-0.8-1.059-1.338-1.911-1.338c-0.849,0-1.587,0.522-1.882,1.33l-0.717-0.262
					c0.406-1.112,1.426-1.832,2.599-1.832c1.172,0,2.229,0.74,2.628,1.842L71.239,39.622L71.239,39.622z"/>
			</g>
		</g>
		<g>
			<g>
				<path d="M61.238,39.622l-0.717-0.26c0.399-1.102,1.456-1.842,2.628-1.842c1.171,0,2.191,0.719,2.599,1.832l-0.717,0.262
					c-0.296-0.808-1.034-1.33-1.882-1.33C62.297,38.284,61.529,38.822,61.238,39.622L61.238,39.622z"/>
			</g>
		</g>
		<g>
			<g>
				<path d="M60.745,36.659l-0.866-0.107l0.549-4.461l2.544,0.682c0.688,0.164,1.399-0.248,1.611-0.94
					c0.218-0.716-0.188-1.478-0.904-1.696l-3.709-0.938l0.214-0.847l3.73,0.943c1.196,0.365,1.861,1.615,1.504,2.792
					c-0.348,1.134-1.516,1.806-2.661,1.531l-1.585-0.424L60.745,36.659L60.745,36.659z"/>
			</g>
		</g>
		<g>
			<g>
				<path d="M72.48,33.719c-0.966,0-1.854-0.629-2.148-1.592c-0.176-0.57-0.117-1.174,0.162-1.701
					c0.28-0.526,0.748-0.913,1.318-1.087l0.236-0.059l-0.93-5.775l0.861-0.139l1.058,6.565l-0.991,0.248
					c-0.326,0.1-0.611,0.335-0.781,0.656c-0.171,0.321-0.206,0.688-0.1,1.035c0.21,0.683,0.942,1.105,1.631,0.938l0.424-0.102
					l0.204,0.849L73,33.658C72.826,33.7,72.652,33.719,72.48,33.719L72.48,33.719z"/>
			</g>
		</g>
	</g>
</g>
</svg>
