<?xml version="1.0" encoding="UTF-8" standalone="no"?>
<svg
   xmlns:dc="http://purl.org/dc/elements/1.1/"
   xmlns:cc="http://creativecommons.org/ns#"
   xmlns:rdf="http://www.w3.org/1999/02/22-rdf-syntax-ns#"
   xmlns:svg="http://www.w3.org/2000/svg"
   xmlns="http://www.w3.org/2000/svg"
   xmlns:sodipodi="http://sodipodi.sourceforge.net/DTD/sodipodi-0.dtd"
   xmlns:inkscape="http://www.inkscape.org/namespaces/inkscape"
   version="1.1"
   id="Ebene_1"
   x="0px"
   y="0px"
   width="89.667999"
   height="28.695"
   viewBox="0 0 89.667994 28.695"
   enable-background="new 0 0 138.542 69.792"
   xml:space="preserve"
   sodipodi:docname="Computer_supported2.svg"
   inkscape:version="1.0.1 (3bc2e813f5, 2020-09-07)"><metadata
   id="metadata83"><rdf:RDF><cc:Work
       rdf:about=""><dc:format>image/svg+xml</dc:format><dc:type
         rdf:resource="http://purl.org/dc/dcmitype/StillImage" /><dc:title></dc:title></cc:Work></rdf:RDF></metadata><defs
   id="defs81">
	
	
	
	
	
	
	
	
	
	
	
	
	

		
		
	
		
	
		
		
	
			
		
			
		
		
	
		
			
	
			
		
		
		
	
		
	
			
			
		
		
	
			
		
				
				
			
		
	
		
		
	</defs><sodipodi:namedview
   pagecolor="#ffffff"
   bordercolor="#666666"
   borderopacity="1"
   objecttolerance="10"
   gridtolerance="10"
   guidetolerance="10"
   inkscape:pageopacity="0"
   inkscape:pageshadow="2"
   inkscape:window-width="1920"
   inkscape:window-height="1001"
   id="namedview79"
   showgrid="false"
   inkscape:snap-page="true"
   fit-margin-top="0"
   fit-margin-left="0"
   fit-margin-right="0"
   fit-margin-bottom="0"
   inkscape:zoom="4"
   inkscape:cx="111.31339"
   inkscape:cy="64.453642"
   inkscape:window-x="-9"
   inkscape:window-y="-9"
   inkscape:window-maximized="1"
   inkscape:current-layer="Ebene_1" />
<path
   id="path956"
   style="color:#000000;font-style:normal;font-variant:normal;font-weight:normal;font-stretch:normal;font-size:medium;line-height:normal;font-family:sans-serif;font-variant-ligatures:normal;font-variant-position:normal;font-variant-caps:normal;font-variant-numeric:normal;font-variant-alternates:normal;font-variant-east-asian:normal;font-feature-settings:normal;font-variation-settings:normal;text-indent:0;text-align:start;text-decoration:none;text-decoration-line:none;text-decoration-style:solid;text-decoration-color:#000000;letter-spacing:normal;word-spacing:normal;text-transform:none;writing-mode:lr-tb;direction:ltr;text-orientation:mixed;dominant-baseline:auto;baseline-shift:baseline;text-anchor:start;white-space:normal;shape-padding:0;shape-margin:0;inline-size:0;clip-rule:nonzero;display:inline;overflow:visible;visibility:visible;opacity:1;isolation:auto;mix-blend-mode:normal;color-interpolation:sRGB;color-interpolation-filters:linearRGB;solid-color:#000000;solid-opacity:1;vector-effect:none;fill:#000000;fill-opacity:1;fill-rule:nonzero;stroke:none;stroke-width:1.9843;stroke-linecap:butt;stroke-linejoin:miter;stroke-miterlimit:3.8637;stroke-dasharray:none;stroke-dashoffset:0;stroke-opacity:1;color-rendering:auto;image-rendering:auto;shape-rendering:auto;text-rendering:auto;enable-background:accumulate;stop-color:#000000;stop-opacity:1"
   d="m 27.361328,-7.6113281 c -2.318,0 -4.203125,1.886125 -4.203125,4.203125 0,2.318 1.885125,4.2050781 4.203125,4.2050781 2.318,0 4.204125,-1.8860781 4.203125,-4.2050781 0,-2.317 -1.886125,-4.203125 -4.203125,-4.203125 z m -1.474609,8.8515625 c -2.913215,0 -5.292969,2.3825421 -5.292969,5.2949218 V 18.484375 l -0.002,0.162109 v 0.0059 c 0,2.886674 2.353719,5.254818 5.28125,5.294922 h 0.0059 7.560547 v 12.544922 h 5.296875 5.294922 v -0.990235 c 0,-1.185285 -0.72964,-2.18575 -1.699219,-2.824219 -0.722051,-0.475471 -1.629647,-0.728767 -2.59375,-0.859375 l -0.0098,-8.863281 c 0,-2.913214 -2.383939,-5.294922 -5.296875,-5.294922 h -3.248047 v -2.320312 h 3.310547 5.298828 v -0.992188 c 0,-1.185948 -0.733226,-2.186055 -1.705078,-2.824218 -0.971853,-0.638166 -2.224409,-0.990235 -3.59375,-0.990235 H 31.183594 V 6.5351562 c 0,-2.9132145 -2.382886,-5.2949218 -5.296875,-5.2949218 z"
   sodipodi:nodetypes="ssscsssccsccccccssccsccccssscss" /><path
   id="circle28"
   style="fill:#fffde8"
   d="M 27.361328 -6.734375 C 25.525328 -6.734375 24.033203 -5.24125 24.033203 -3.40625 C 24.033203 -1.57125 25.525328 -0.078125 27.361328 -0.078125 C 29.196328 -0.078125 30.689453 -1.57025 30.689453 -3.40625 C 30.690453 -5.24125 29.196328 -6.734375 27.361328 -6.734375 z " /><path
   fill="#e7e7e8"
   d="M 21.584,18.652 21.586,18.49 V 6.536 c 0,-2.377 1.924,-4.304 4.301,-4.304 2.378,0 4.305,1.927 4.305,4.304 v 4.99 h 4.303 c 2.389,0 4.305,1.263 4.305,2.822 h -4.305 -4.304 v 4.305 h 4.241 c 2.377,0 4.304,1.926 4.304,4.303 l 0.013,9.723 c 2.377,0 4.291,1.264 4.291,2.822 H 38.736 34.432 V 22.955 h -8.546 c -2.409,-0.033 -4.302,-1.948 -4.302,-4.303 z"
   id="path24" /><path
   id="polygon16"
   transform="translate(-28.205,-18.042)"
   style="clip-rule:evenodd;fill-rule:evenodd"
   d="m 79.137,34.542 h 6.455 V 32.389 H 62.638 v 2.153 h 12.196 v 19.367 h 4.303 z" /><path
   fill="#ffffff"
   d="M 49.027,1.254"
   id="path56" />
<path
   id="path1003"
   style="color:#000000;font-style:normal;font-variant:normal;font-weight:normal;font-stretch:normal;font-size:medium;line-height:normal;font-family:sans-serif;font-variant-ligatures:normal;font-variant-position:normal;font-variant-caps:normal;font-variant-numeric:normal;font-variant-alternates:normal;font-variant-east-asian:normal;font-feature-settings:normal;font-variation-settings:normal;text-indent:0;text-align:start;text-decoration:none;text-decoration-line:none;text-decoration-style:solid;text-decoration-color:#000000;letter-spacing:normal;word-spacing:normal;text-transform:none;writing-mode:lr-tb;direction:ltr;text-orientation:mixed;dominant-baseline:auto;baseline-shift:baseline;text-anchor:start;white-space:normal;shape-padding:0;shape-margin:0;inline-size:0;clip-rule:nonzero;display:inline;overflow:visible;visibility:visible;isolation:auto;mix-blend-mode:normal;color-interpolation:sRGB;color-interpolation-filters:linearRGB;solid-color:#000000;solid-opacity:1;vector-effect:none;fill:#000000;fill-opacity:1;fill-rule:nonzero;stroke:none;stroke-width:1.5;stroke-linecap:butt;stroke-linejoin:miter;stroke-miterlimit:3.8637;stroke-dasharray:none;stroke-dashoffset:0;stroke-opacity:1;color-rendering:auto;image-rendering:auto;shape-rendering:auto;text-rendering:auto;enable-background:accumulate;stop-color:#000000"
   d="m 45.929688,-6.1289062 -0.734376,0.6035156 -2.652343,13.265625 0.734375,0.8964844 h 8.365234 l 0.002,1.3730472 h -9.353515 v 0.75 4.33789 h 14.441406 v -5.08789 H 55.095703 V 3.4296875 c 0,-0.6655796 -0.461504,-1.1368085 -1.033203,-1.4199219 l 1.447266,-7.2421875 -0.734375,-0.8964843 z" /><path
   id="rect44"
   style="clip-rule:evenodd;fill:#ffffff;fill-rule:evenodd"
   d="m 45.931641,-5.3789062 -2.654297,13.265625 h 8.84375 l 0.267578,-1.3398438 0.810547,-4.0488281 1.576172,-7.8769531 z m 0.755859,0.9199218 h 6.962891 L 51.367188,6.9648438 h -6.775391 -0.189453 z m 7.242188,7.1191406 c -0.398436,1.9921789 -0.796703,3.9843907 -1.195313,5.9765626 h -0.341797 l 0.002,1.3730472 H 54.34575 V 3.4316406 c 5e-6,-0.3242484 -0.170785,-0.5968042 -0.416015,-0.7714844 z M 43.041016,10.761719 v 3.585937 h 12.941406 v -3.585937 z m 1.160156,1.292969 h 4.220703 v 1 h -4.220703 z" /></svg>
