<?xml version="1.0" encoding="utf-8"?>
<!-- Generator: Adobe Illustrator 14.0.0, SVG Export Plug-In . SVG Version: 6.00 Build 43363)  -->
<!DOCTYPE svg PUBLIC "-//W3C//DTD SVG 1.1//EN" "http://www.w3.org/Graphics/SVG/1.1/DTD/svg11.dtd">
<svg version="1.1" id="Ebene_1" xmlns="http://www.w3.org/2000/svg" xmlns:xlink="http://www.w3.org/1999/xlink" x="0px" y="0px"
	 width="138.542px" height="69.792px" viewBox="0 0 138.542 69.792" enable-background="new 0 0 138.542 69.792"
	 xml:space="preserve">
<g>
	<polygon fill-rule="evenodd" clip-rule="evenodd" fill="#C6D4DC" points="28.578,17.727 100.313,17.727 118.248,32.073 
		100.313,46.42 28.578,46.42 	"/>
</g>
<g>
	<g>
		<g>
			<path d="M76.207,54.594H52.686V9.553h23.521V54.594L76.207,54.594z M54.686,52.594h19.521V11.553H54.686V52.594L54.686,52.594z"
				/>
		</g>
	</g>
	<g>
		<g>
			<polygon fill="#E7E7E8" points="53.686,10.553 75.207,10.553 75.207,53.594 53.686,53.594 53.686,10.553 			"/>
			<path fill="#E7E7E8" d="M64.446,32.073"/>
		</g>
		<g>
			<defs>
				<polygon id="SVGID_1_" points="53.686,10.553 75.207,10.553 75.207,53.594 53.686,53.594 53.686,10.553 				"/>
			</defs>
			<clipPath id="SVGID_2_">
				<use xlink:href="#SVGID_1_"  overflow="visible"/>
			</clipPath>
			<g clip-path="url(#SVGID_2_)">
				<g>
					<polygon fill="#C4C5C6" points="53.686,50.007 75.207,50.006 75.207,53.594 53.686,53.594 53.686,50.007 					"/>
					<path fill="#C4C5C6" d="M64.446,51.8"/>
				</g>
			</g>
		</g>
		<g>
			<polygon fill="none" stroke="#000000" stroke-miterlimit="3.8637" points="53.686,10.553 75.207,10.553 75.207,53.594 
				53.686,53.594 53.686,10.553 			"/>
			<path fill="none" stroke="#000000" stroke-miterlimit="3.8637" d="M64.446,32.073"/>
		</g>
	</g>
	<g>
		<g>
			<g>
				<path d="M72.12,18.227H56.772v-4.587H72.12V18.227L72.12,18.227z M57.772,17.227H71.12v-2.587H57.772V17.227L57.772,17.227z"/>
			</g>
			<g>
				<path fill="none" d="M64.446,15.933"/>
			</g>
		</g>
	</g>
	<g>
		<g>
			<g>
				<path d="M72.12,25.399H56.772v-4.587H72.12V25.399L72.12,25.399z M57.772,24.399H71.12v-2.587H57.772V24.399L57.772,24.399z"/>
			</g>
			<g>
				<path fill="none" d="M64.446,23.106"/>
			</g>
		</g>
	</g>
	<g>
		<g>
			<g>
				<path d="M72.12,32.573H56.772v-4.586H72.12V32.573L72.12,32.573z M57.772,31.573H71.12v-2.586H57.772V31.573L57.772,31.573z"/>
			</g>
			<g>
				<path fill="none" d="M64.446,30.28"/>
			</g>
		</g>
	</g>
	<g>
		<g>
			<g>
				<path d="M68.532,39.747h-8.173V35.16h8.173V39.747L68.532,39.747z M61.359,38.747h6.173V36.16h-6.173V38.747L61.359,38.747z"/>
			</g>
			<g>
				<path fill="none" d="M64.446,37.454"/>
			</g>
		</g>
	</g>
	<g>
		<rect x="60.859" y="40.405" width="7.173" height="0.633"/>
	</g>
	<g>
		<rect x="60.859" y="42.2" width="7.173" height="0.633"/>
	</g>
	<g>
		<rect x="60.859" y="43.993" width="7.173" height="0.633"/>
	</g>
	<g>
		<rect x="60.859" y="45.787" width="7.173" height="0.633"/>
	</g>
	<g>
		<rect x="60.859" y="47.581" width="7.173" height="0.633"/>
	</g>
	<g>
		<rect x="60.859" y="49.374" width="7.173" height="0.633"/>
	</g>
</g>
</svg>
