<?xml version="1.0" encoding="UTF-8" standalone="no"?>
<svg
   xmlns:dc="http://purl.org/dc/elements/1.1/"
   xmlns:cc="http://creativecommons.org/ns#"
   xmlns:rdf="http://www.w3.org/1999/02/22-rdf-syntax-ns#"
   xmlns:svg="http://www.w3.org/2000/svg"
   xmlns="http://www.w3.org/2000/svg"
   xmlns:sodipodi="http://sodipodi.sourceforge.net/DTD/sodipodi-0.dtd"
   xmlns:inkscape="http://www.inkscape.org/namespaces/inkscape"
   version="1.1"
   id="Ebene_1"
   x="0px"
   y="0px"
   width="35.671875"
   height="37.150391"
   viewBox="0 0 35.671873 37.150391"
   enable-background="new 0 0 138.542 69.792"
   xml:space="preserve"
   sodipodi:docname="Start.svg"
   inkscape:version="1.0.1 (3bc2e813f5, 2020-09-07)"><metadata
   id="metadata25"><rdf:RDF><cc:Work
       rdf:about=""><dc:format>image/svg+xml</dc:format><dc:type
         rdf:resource="http://purl.org/dc/dcmitype/StillImage" /><dc:title></dc:title></cc:Work></rdf:RDF></metadata><defs
   id="defs23">
	
	

		
	
		
		
		
		
		
	</defs><sodipodi:namedview
   pagecolor="#ffffff"
   bordercolor="#666666"
   borderopacity="1"
   objecttolerance="10"
   gridtolerance="10"
   guidetolerance="10"
   inkscape:pageopacity="0"
   inkscape:pageshadow="2"
   inkscape:window-width="1920"
   inkscape:window-height="1001"
   id="namedview21"
   showgrid="false"
   fit-margin-top="0"
   fit-margin-left="0"
   fit-margin-right="0"
   fit-margin-bottom="0"
   inkscape:zoom="5.6602429"
   inkscape:cx="22.018191"
   inkscape:cy="26.573366"
   inkscape:window-x="-9"
   inkscape:window-y="-9"
   inkscape:window-maximized="1"
   inkscape:current-layer="Ebene_1"
   inkscape:document-rotation="0"
   inkscape:snap-page="true" />
<path
   id="path2"
   d="m 17.376953,-5.8261719 c -0.409,0.004 -0.733656,0.1103594 -0.972656,0.3183594 -0.238,0.208 -0.359234,0.4934687 -0.365235,0.8554687 0.011,0.297 0.108829,0.5405156 0.298829,0.7285157 0.188,0.189 0.406297,0.3550937 0.654297,0.4960937 0.248999,0.14 0.466296,0.2865 0.654296,0.4375 0.189,0.152 0.288828,0.3405 0.298828,0.5625 10e-4,0.131 -0.05778,0.2531406 -0.175781,0.3691406 -0.116,0.117 -0.297015,0.1775469 -0.541015,0.1855469 -0.219,-10e-4 -0.428,-0.055063 -0.625,-0.1640625 -0.197,-0.109 -0.376063,-0.2676094 -0.539063,-0.4746094 v 0.8007813 c 0.182,0.138 0.375172,0.2396406 0.576172,0.3066406 0.201,0.067 0.421203,0.1006094 0.658203,0.099609 0.362,-0.006 0.655813,-0.1198906 0.882813,-0.3378906 0.227,-0.2190001 0.344562,-0.5044219 0.351562,-0.8574219 -0.011,-0.344 -0.109828,-0.6173125 -0.298828,-0.8203125 -0.189,-0.204 -0.40825,-0.3709063 -0.65625,-0.5039063 -0.248,-0.133 -0.464344,-0.2663906 -0.652344,-0.4003906 -0.188,-0.134 -0.289828,-0.3047656 -0.298828,-0.5097656 0.003,-0.158 0.06831,-0.2829532 0.195313,-0.3769532 0.127,-0.094 0.293953,-0.1434843 0.501953,-0.1464843 0.149,-0.003 0.313281,0.027703 0.488281,0.095703 0.176,0.067 0.355922,0.1892812 0.544922,0.3632813 v -0.7187497 c -0.155,-0.104 -0.313516,-0.1814218 -0.478516,-0.2324218 -0.166,-0.052 -0.332953,-0.076172 -0.501953,-0.076172 z m 7.244141,0.03125 -1.894532,4.4316406 h 0.646485 l 0.556641,-1.2988281 h 1.873046 l 0.587891,1.2988281 h 0.646484 l -1.970703,-4.4316406 z m -5.447266,0.025391 v 0.5683594 h 1.523438 v 3.8378906 h 0.632812 v -3.8378906 h 1.525391 v -0.5683598 z m 8.681641,0 v 4.40625 h 0.630859 v -1.9121094 h 0.267578 c 0.105,-0.004 0.21236,0.015547 0.31836,0.060547 0.105,0.044 0.226328,0.1391563 0.361328,0.2851563 0.134,0.145 0.298234,0.3651093 0.490234,0.6621094 l 0.580078,0.9042968 h 0.75586 c -0.146,-0.201 -0.26175,-0.3605156 -0.34375,-0.4785156 -0.084,-0.119 -0.170813,-0.2505781 -0.257813,-0.3925781 -0.164,-0.275 -0.317797,-0.51475 -0.466797,-0.71875 -0.147,-0.203 -0.319625,-0.3709063 -0.515625,-0.5039063 0.237,-0.095 0.419875,-0.2339687 0.546875,-0.4179687 0.126,-0.184 0.187453,-0.4031563 0.189453,-0.6601563 -0.005,-0.385 -0.134625,-0.6853437 -0.390625,-0.9023437 -0.254,-0.217 -0.60564,-0.3280313 -1.05664,-0.3320313 z m 3.328125,0 v 0.5683594 h 1.52539 v 3.8378906 h 0.632813 v -3.8378906 h 1.525391 v -0.5683598 z m -2.697266,0.5429688 h 0.408203 c 0.305,0.002 0.52511,0.060734 0.66211,0.1777343 0.135,0.117 0.205078,0.2792813 0.205078,0.4882813 0.01,0.191 -0.04978,0.3560938 -0.175781,0.4960938 -0.127,0.14 -0.357407,0.2137031 -0.691407,0.2207031 h -0.408203 z m -3.654297,0.4023437 0.710938,1.5957031 H 24.173828 Z M 0,0 17.835938,31.324219 35.671875,0 Z M 1.4824219,0.8613281 H 34.189453 L 17.835938,29.582031 Z"
   style="fill:#008000" />
</svg>
