<?xml version="1.0" encoding="UTF-8" standalone="no"?>
<svg
   xmlns:dc="http://purl.org/dc/elements/1.1/"
   xmlns:cc="http://creativecommons.org/ns#"
   xmlns:rdf="http://www.w3.org/1999/02/22-rdf-syntax-ns#"
   xmlns:svg="http://www.w3.org/2000/svg"
   xmlns="http://www.w3.org/2000/svg"
   xmlns:sodipodi="http://sodipodi.sourceforge.net/DTD/sodipodi-0.dtd"
   xmlns:inkscape="http://www.inkscape.org/namespaces/inkscape"
   version="1.1"
   id="Ebene_1"
   x="0px"
   y="0px"
   width="35.671001"
   height="37.151001"
   viewBox="0 0 35.671 37.151001"
   enable-background="new 0 0 138.542 69.792"
   xml:space="preserve"
   sodipodi:docname="Stop.svg"
   inkscape:version="1.0.1 (3bc2e813f5, 2020-09-07)"><metadata
   id="metadata23"><rdf:RDF><cc:Work
       rdf:about=""><dc:format>image/svg+xml</dc:format><dc:type
         rdf:resource="http://purl.org/dc/dcmitype/StillImage" /><dc:title></dc:title></cc:Work></rdf:RDF></metadata><defs
   id="defs21">
	
	

		
	
		
		
		
		
	</defs><sodipodi:namedview
   pagecolor="#ffffff"
   bordercolor="#666666"
   borderopacity="1"
   objecttolerance="10"
   gridtolerance="10"
   guidetolerance="10"
   inkscape:pageopacity="0"
   inkscape:pageshadow="2"
   inkscape:window-width="1920"
   inkscape:window-height="1001"
   id="namedview19"
   showgrid="false"
   fit-margin-top="0"
   fit-margin-left="0"
   fit-margin-right="0"
   fit-margin-bottom="0"
   inkscape:snap-page="true"
   inkscape:zoom="8.0047923"
   inkscape:cx="44.910597"
   inkscape:cy="21.585638"
   inkscape:window-x="-9"
   inkscape:window-y="-9"
   inkscape:window-maximized="1"
   inkscape:current-layer="Ebene_1" />
<path
   id="path2"
   d="M 19.998047 -5.8261719 C 19.590047 -5.8221719 19.265344 -5.7168125 19.027344 -5.5078125 C 18.788344 -5.2998125 18.667109 -5.0123906 18.662109 -4.6503906 C 18.671109 -4.3533906 18.770984 -4.109875 18.958984 -3.921875 C 19.147984 -3.732875 19.366281 -3.5687344 19.613281 -3.4277344 C 19.861281 -3.2877344 20.081531 -3.1392813 20.269531 -2.9882812 C 20.457531 -2.8362812 20.556406 -2.6507344 20.566406 -2.4277344 C 20.567406 -2.2967344 20.510578 -2.1726406 20.392578 -2.0566406 C 20.275578 -1.9396406 20.094609 -1.8790938 19.849609 -1.8710938 C 19.630609 -1.8720937 19.424562 -1.9261563 19.226562 -2.0351562 C 19.029563 -2.1441562 18.8495 -2.3047187 18.6875 -2.5117188 L 18.6875 -1.7109375 C 18.8705 -1.5719375 19.059719 -1.4683437 19.261719 -1.4023438 C 19.461719 -1.3353438 19.682875 -1.3036875 19.921875 -1.3046875 C 20.283875 -1.3106875 20.577688 -1.422625 20.804688 -1.640625 C 21.030687 -1.859625 21.147297 -2.1450469 21.154297 -2.4980469 C 21.144297 -2.8420469 21.044469 -3.1153594 20.855469 -3.3183594 C 20.666469 -3.5213594 20.448172 -3.6912188 20.201172 -3.8242188 C 19.952172 -3.9572188 19.735875 -4.0906094 19.546875 -4.2246094 C 19.358875 -4.3586094 19.259047 -4.5274219 19.248047 -4.7324219 C 19.252047 -4.8904219 19.318312 -5.0173281 19.445312 -5.1113281 C 19.571313 -5.2063281 19.738312 -5.2548125 19.945312 -5.2578125 C 20.095312 -5.2608125 20.259547 -5.2271563 20.435547 -5.1601562 C 20.610547 -5.0931562 20.791469 -4.9728281 20.980469 -4.7988281 L 20.980469 -5.5175781 C 20.824469 -5.6215781 20.664047 -5.6970469 20.498047 -5.7480469 C 20.333047 -5.8000469 20.167047 -5.8261719 19.998047 -5.8261719 z M 28.191406 -5.8261719 C 27.712406 -5.8211719 27.295359 -5.7176719 26.943359 -5.5136719 C 26.589359 -5.3086719 26.315047 -5.0353125 26.123047 -4.6953125 C 25.928047 -4.3543125 25.828172 -3.9784062 25.826172 -3.5664062 C 25.828172 -3.1624063 25.925234 -2.7882656 26.115234 -2.4472656 C 26.306234 -2.1062656 26.576734 -1.833 26.927734 -1.625 C 27.278734 -1.417 27.695734 -1.3096875 28.177734 -1.3046875 C 28.677734 -1.3096875 29.104984 -1.4179531 29.458984 -1.6269531 C 29.813984 -1.8349531 30.085391 -2.1091719 30.275391 -2.4511719 C 30.463391 -2.7911719 30.558547 -3.1644062 30.560547 -3.5664062 C 30.557547 -3.9804063 30.461531 -4.3572656 30.269531 -4.6972656 C 30.078531 -5.0372656 29.805172 -5.3096719 29.451172 -5.5136719 C 29.098172 -5.7176719 28.678406 -5.8211719 28.191406 -5.8261719 z M 21.794922 -5.7695312 L 21.794922 -5.2011719 L 23.318359 -5.2011719 L 23.318359 -1.3632812 L 23.951172 -1.3632812 L 23.951172 -5.2011719 L 25.476562 -5.2011719 L 25.476562 -5.7695312 L 21.794922 -5.7695312 z M 31.630859 -5.7695312 L 31.630859 -1.3632812 L 32.263672 -1.3632812 L 32.263672 -3.2695312 L 32.923828 -3.2695312 C 33.431828 -3.2775313 33.805828 -3.3969531 34.048828 -3.6269531 C 34.289828 -3.8569531 34.40925 -4.1479531 34.40625 -4.5019531 C 34.40925 -4.8599531 34.296359 -5.1584844 34.068359 -5.3964844 C 33.839359 -5.6354844 33.484859 -5.7595313 33.005859 -5.7695312 L 31.630859 -5.7695312 z M 28.193359 -5.2460938 C 28.697359 -5.2370937 29.106875 -5.0775313 29.421875 -4.7695312 C 29.737875 -4.4605312 29.901156 -4.0614063 29.910156 -3.5664062 C 29.901156 -3.0754062 29.737875 -2.6732813 29.421875 -2.3632812 C 29.106875 -2.0542812 28.696359 -1.8947656 28.193359 -1.8847656 C 27.691359 -1.8947656 27.282797 -2.0542813 26.966797 -2.3632812 C 26.651797 -2.6732813 26.489516 -3.0754062 26.478516 -3.5664062 C 26.489516 -4.0604062 26.651797 -4.4605313 26.966797 -4.7695312 C 27.281797 -5.0775312 27.691359 -5.2370937 28.193359 -5.2460938 z M 32.263672 -5.2011719 L 33.007812 -5.2011719 C 33.289812 -5.1931719 33.486656 -5.1213281 33.597656 -4.9863281 C 33.708656 -4.8503281 33.761813 -4.6963438 33.757812 -4.5273438 C 33.753813 -4.3063437 33.682922 -4.1365781 33.544922 -4.0175781 C 33.406922 -3.8975781 33.218469 -3.8388906 32.980469 -3.8378906 L 32.263672 -3.8378906 L 32.263672 -5.2011719 z M 0 0 L 17.835938 31.324219 L 35.671875 0 L 0 0 z M 1.4824219 0.86132812 L 34.189453 0.86132812 L 17.835938 29.582031 L 1.4824219 0.86132812 z "
   style="fill:#ff0000" />
</svg>
