<?xml version="1.0" encoding="UTF-8" standalone="no"?>
<!-- Generator: Adobe Illustrator 15.1.0, SVG Export Plug-In . SVG Version: 6.00 Build 0)  -->

<svg
   version="1.1"
   id="Ebene_1"
   x="0px"
   y="0px"
   width="46.667px"
   height="59.667px"
   viewBox="36.833 -10.792 46.667 59.667"
   enable-background="new 36.833 -10.792 46.667 59.667"
   xml:space="preserve"
   sodipodi:docname="OR_blue.svg"
   inkscape:version="1.1 (c68e22c387, 2021-05-23)"
   xmlns:inkscape="http://www.inkscape.org/namespaces/inkscape"
   xmlns:sodipodi="http://sodipodi.sourceforge.net/DTD/sodipodi-0.dtd"
   xmlns="http://www.w3.org/2000/svg"
   xmlns:svg="http://www.w3.org/2000/svg"><defs
   id="defs57" /><sodipodi:namedview
   id="namedview55"
   pagecolor="#505050"
   bordercolor="#eeeeee"
   borderopacity="1"
   inkscape:pageshadow="0"
   inkscape:pageopacity="0"
   inkscape:pagecheckerboard="0"
   showgrid="false"
   inkscape:zoom="27.888112"
   inkscape:cx="16.297266"
   inkscape:cy="5.7551403"
   inkscape:window-width="1920"
   inkscape:window-height="1017"
   inkscape:window-x="-8"
   inkscape:window-y="-8"
   inkscape:window-maximized="1"
   inkscape:current-layer="Ebene_1" />



<g
   id="g14832"
   transform="translate(-3.5292188,-3.999172)"><g
     id="g14"
     transform="translate(-5.5937812,-21.442828)">
	<g
   id="g12">
		<g
   id="g6">
			<polygon
   fill="#dae5eb"
   points="60.346,15.361 74.024,29.041 60.346,42.719 46.667,29.04 "
   id="polygon2" />
			<path
   fill="#044254"
   d="M 60.346,43.43 45.956,29.04 60.346,14.65 74.738,29.042 Z M 47.38,29.04 60.346,42.006 73.314,29.041 60.346,16.072 Z"
   id="path4" />
		</g>
		<g
   id="g10">
			<path
   fill="#dae5eb"
   d="M 60.346,29.042"
   id="path8" />
		</g>
	</g>
</g><g
     id="g20"
     transform="translate(-5.5937812,-21.442828)">
	<path
   fill-rule="evenodd"
   clip-rule="evenodd"
   fill="#044254"
   d="m 54.817,28.993 c 0.004,0.488 0.121,0.941 0.351,1.353 0.231,0.412 0.558,0.744 0.983,0.996 0.424,0.25 0.929,0.379 1.514,0.387 0.602,-0.008 1.119,-0.137 1.549,-0.389 0.43,-0.254 0.759,-0.586 0.987,-0.998 0.23,-0.412 0.346,-0.864 0.348,-1.349 -0.003,-0.502 -0.12,-0.958 -0.354,-1.37 -0.234,-0.412 -0.562,-0.74 -0.988,-0.987 -0.43,-0.245 -0.939,-0.373 -1.528,-0.379 -0.578,0.006 -1.082,0.134 -1.509,0.381 -0.428,0.247 -0.759,0.577 -0.993,0.989 -0.237,0.411 -0.356,0.866 -0.36,1.366 z m 0.789,0 c 0.012,-0.599 0.208,-1.084 0.591,-1.456 0.382,-0.373 0.876,-0.566 1.481,-0.578 0.609,0.012 1.106,0.205 1.488,0.578 0.384,0.372 0.58,0.857 0.592,1.456 -0.012,0.594 -0.208,1.08 -0.592,1.453 -0.382,0.375 -0.879,0.568 -1.488,0.58 -0.605,-0.012 -1.1,-0.205 -1.481,-0.58 -0.383,-0.374 -0.579,-0.86 -0.591,-1.453 z"
   id="path16" />
	<path
   fill-rule="evenodd"
   clip-rule="evenodd"
   fill="#044254"
   d="m 61.894,26.328 v 5.331 h 0.767 v -2.315 h 0.322 c 0.126,-0.005 0.253,0.02 0.381,0.073 0.13,0.054 0.276,0.169 0.438,0.344 0.164,0.175 0.362,0.443 0.593,0.802 l 0.705,1.096 h 0.915 c -0.178,-0.244 -0.316,-0.438 -0.418,-0.58 -0.103,-0.145 -0.204,-0.303 -0.311,-0.477 -0.197,-0.332 -0.385,-0.621 -0.565,-0.868 -0.177,-0.246 -0.385,-0.449 -0.62,-0.609 0.285,-0.113 0.506,-0.283 0.658,-0.506 0.151,-0.223 0.229,-0.488 0.23,-0.799 -0.005,-0.466 -0.161,-0.83 -0.472,-1.094 -0.309,-0.261 -0.733,-0.395 -1.279,-0.398 z m 0.766,0.654 h 0.492 c 0.368,0.002 0.635,0.074 0.801,0.216 0.164,0.141 0.247,0.339 0.247,0.591 0.012,0.23 -0.06,0.432 -0.213,0.602 -0.152,0.17 -0.431,0.258 -0.835,0.266 H 62.66 Z"
   id="path18" />
</g></g>


</svg>
