<?xml version="1.0" encoding="utf-8"?>
<!-- Generator: Adobe Illustrator 14.0.0, SVG Export Plug-In . SVG Version: 6.00 Build 43363)  -->
<!DOCTYPE svg PUBLIC "-//W3C//DTD SVG 1.1//EN" "http://www.w3.org/Graphics/SVG/1.1/DTD/svg11.dtd">
<svg version="1.1" id="Ebene_1" xmlns="http://www.w3.org/2000/svg" xmlns:xlink="http://www.w3.org/1999/xlink" x="0px" y="0px"
	 width="117.75px" height="53px" viewBox="0 0 117.75 53" enable-background="new 0 0 117.75 53" xml:space="preserve">
<g>
	<g>
		<g>
			<polygon fill="#DAE5EB" points="50.024,22.97 63.702,9.292 77.381,22.971 63.702,36.65 50.024,22.97 			"/>
			<path fill="#044254" d="M63.702,37.362L49.312,22.97L63.702,8.58l14.392,14.392L63.702,37.362L63.702,37.362z M50.736,22.97
				l12.966,12.968l12.968-12.967L63.702,10.003L50.736,22.97L50.736,22.97z"/>
		</g>
		<g>
			<path fill="#DAE5EB" d="M63.702,22.972"/>
		</g>
	</g>
</g>
<g>
	<path fill-rule="evenodd" clip-rule="evenodd" fill="#044254" d="M58.323,20.3h-0.539l-2.281,5.342h0.781l0.668-1.565h2.258
		l0.709,1.565h0.779L58.323,20.3z M58.042,21.468l0.857,1.925h-1.652L58.042,21.468z"/>
	<polygon fill-rule="evenodd" clip-rule="evenodd" fill="#044254" points="66.584,20.332 65.868,20.332 65.868,24.443 
		62.268,20.332 61.661,20.332 61.661,25.642 62.377,25.642 62.377,21.554 65.93,25.642 66.584,25.642 	"/>
	<path fill-rule="evenodd" clip-rule="evenodd" fill="#044254" d="M68.143,25.642h2.07c0.59-0.007,1.09-0.135,1.51-0.385
		s0.744-0.575,0.969-0.976c0.225-0.402,0.34-0.833,0.342-1.294c0.002-0.427-0.1-0.844-0.297-1.246c-0.199-0.404-0.506-0.736-0.926-1
		c-0.418-0.264-0.951-0.4-1.604-0.409h-2.064V25.642z M68.907,21.015h1.176c0.496,0.004,0.9,0.096,1.223,0.274
		c0.318,0.177,0.557,0.415,0.713,0.711c0.154,0.297,0.23,0.626,0.23,0.986c0.006,0.229-0.051,0.497-0.168,0.801
		s-0.33,0.572-0.641,0.804c-0.309,0.231-0.75,0.353-1.318,0.365h-1.215V21.015z"/>
</g>
</svg>
