<?xml version="1.0" encoding="utf-8"?>
<!-- Generator: Adobe Illustrator 14.0.0, SVG Export Plug-In . SVG Version: 6.00 Build 43363)  -->
<!DOCTYPE svg PUBLIC "-//W3C//DTD SVG 1.1//EN" "http://www.w3.org/Graphics/SVG/1.1/DTD/svg11.dtd">
<svg version="1.1" id="Ebene_1" xmlns="http://www.w3.org/2000/svg" xmlns:xlink="http://www.w3.org/1999/xlink" x="0px" y="0px"
	 width="170.08px" height="113.39px" viewBox="0 0 170.08 113.39" enable-background="new 0 0 170.08 113.39" xml:space="preserve">
<path d="M146.764,79.858H28.287c-0.861,0-1.562-0.73-1.562-1.629V33.695c0-0.898,0.701-1.629,1.562-1.629h118.477
	c0.859,0,1.561,0.73,1.561,1.629v44.535C148.324,79.128,147.623,79.858,146.764,79.858L146.764,79.858z"/>
<path fill="#7199AC" d="M147.049,78.229c0,0.195-0.127,0.354-0.285,0.354H28.287c-0.158,0-0.287-0.158-0.287-0.354V33.695
	c0-0.196,0.129-0.354,0.287-0.354h118.477c0.158,0,0.285,0.157,0.285,0.354V78.229z"/>
</svg>
